/* XPM */
static char * co0_xpm[] = {
"50 50 528 2",
"  	c None",
". 	c #425813",
"+ 	c #506A19",
"@ 	c #59751B",
"# 	c #4D6618",
"$ 	c #57731B",
"% 	c #5B781C",
"& 	c #5C791C",
"* 	c #63821E",
"= 	c #4C6516",
"- 	c #5A761B",
"; 	c #58741B",
"> 	c #62811E",
", 	c #415511",
"' 	c #33420E",
") 	c #435A15",
"! 	c #496117",
"~ 	c #4E6717",
"{ 	c #3A4112",
"] 	c #2B1614",
"^ 	c #3E1E1E",
"/ 	c #422121",
"( 	c #422020",
"_ 	c #361A1A",
": 	c #2F1717",
"< 	c #301717",
"[ 	c #516B19",
"} 	c #4D6718",
"| 	c #5D7A1D",
"1 	c #607F1D",
"2 	c #496114",
"3 	c #59761B",
"4 	c #5A771C",
"5 	c #5D7B1D",
"6 	c #5C791B",
"7 	c #36440E",
"8 	c #27270C",
"9 	c #3C4F12",
"0 	c #486017",
"a 	c #4A6317",
"b 	c #485C15",
"c 	c #44311E",
"d 	c #613233",
"e 	c #814444",
"f 	c #804242",
"g 	c #7E4141",
"h 	c #7F4141",
"i 	c #783D3D",
"j 	c #603030",
"k 	c #371B1B",
"l 	c #4E6718",
"m 	c #5F7C1D",
"n 	c #5C7A1C",
"o 	c #435913",
"p 	c #56711A",
"q 	c #5F7D1D",
"r 	c #4E6816",
"s 	c #3D4812",
"t 	c #271711",
"u 	c #313211",
"v 	c #435914",
"w 	c #496116",
"x 	c #404016",
"y 	c #4A2625",
"z 	c #713A3B",
"A 	c #884949",
"B 	c #945252",
"C 	c #975454",
"D 	c #914F4F",
"E 	c #904E4E",
"F 	c #8E4C4C",
"G 	c #8C4A4A",
"H 	c #8A4949",
"I 	c #894848",
"J 	c #884747",
"K 	c #884646",
"L 	c #824343",
"M 	c #793E3E",
"N 	c #623131",
"O 	c #381B1B",
"P 	c #5A761C",
"Q 	c #4F6919",
"R 	c #607F1E",
"S 	c #567119",
"T 	c #3C500F",
"U 	c #59751A",
"V 	c #496214",
"W 	c #424B15",
"X 	c #271312",
"Y 	c #2C1915",
"Z 	c #3A3D14",
"` 	c #465E15",
" .	c #3F4E13",
"..	c #362218",
"+.	c #4C2627",
"@.	c #773F3F",
"#.	c #824646",
"$.	c #925353",
"%.	c #834949",
"&.	c #753E3E",
"*.	c #763E3E",
"=.	c #784040",
"-.	c #794040",
";.	c #7B4141",
">.	c #783E3E",
",.	c #773D3D",
"'.	c #763C3C",
").	c #753C3C",
"!.	c #405611",
"~.	c #526C19",
"{.	c #4E6716",
"].	c #415713",
"^.	c #425812",
"/.	c #55711A",
"(.	c #4A6214",
"_.	c #516C18",
":.	c #3D4314",
"<.	c #210F10",
"[.	c #2E1617",
"}.	c #38201A",
"|.	c #363912",
"1.	c #312912",
"2.	c #371A1B",
"3.	c #4F2727",
"4.	c #5D2F2F",
"5.	c #683737",
"6.	c #854B4B",
"7.	c #6B3636",
"8.	c #653232",
"9.	c #653333",
"0.	c #663333",
"a.	c #6A3535",
"b.	c #743B3B",
"c.	c #773C3C",
"d.	c #5C2E2E",
"e.	c #341919",
"f.	c #405512",
"g.	c #4B6417",
"h.	c #57721B",
"i.	c #465D14",
"j.	c #3F5512",
"k.	c #455D14",
"l.	c #516B17",
"m.	c #445B13",
"n.	c #56721A",
"o.	c #333411",
"p.	c #271213",
"q.	c #472323",
"r.	c #3D1D1E",
"s.	c #341B19",
"t.	c #291514",
"u.	c #3F1F1F",
"v.	c #582B2B",
"w.	c #592C2C",
"x.	c #572B2B",
"y.	c #6D3B3B",
"z.	c #703A3A",
"A.	c #592D2D",
"B.	c #5A2D2D",
"C.	c #693535",
"D.	c #6F3838",
"E.	c #3B1C1C",
"F.	c #425913",
"G.	c #475E15",
"H.	c #5E7B1D",
"I.	c #58751A",
"J.	c #435A13",
"K.	c #496217",
"L.	c #445A15",
"M.	c #3B4F11",
"N.	c #4B6415",
"O.	c #57731A",
"P.	c #4C6517",
"Q.	c #536D19",
"R.	c #29240F",
"S.	c #331819",
"T.	c #5A2C2C",
"U.	c #522929",
"V.	c #391C1C",
"W.	c #2E1616",
"X.	c #482323",
"Y.	c #582C2C",
"Z.	c #613232",
"`.	c #713C3C",
" +	c #613030",
".+	c #562B2B",
"++	c #3A1C1C",
"@+	c #465E16",
"#+	c #526D19",
"$+	c #4C6515",
"%+	c #465D15",
"&+	c #465D16",
"*+	c #425915",
"=+	c #415712",
"-+	c #3F5511",
";+	c #445A14",
">+	c #4A5E16",
",+	c #24180F",
"'+	c #401F1F",
")+	c #5E2F2F",
"!+	c #6C3939",
"~+	c #673434",
"{+	c #643232",
"]+	c #532A2A",
"^+	c #633131",
"/+	c #4B6316",
"(+	c #3E5312",
"_+	c #475F16",
":+	c #485F17",
"<+	c #445B16",
"[+	c #455C15",
"}+	c #546F1A",
"|+	c #3C4712",
"1+	c #261312",
"2+	c #4B2525",
"3+	c #673333",
"4+	c #4A2424",
"5+	c #552A2A",
"6+	c #623232",
"7+	c #683434",
"8+	c #475E16",
"9+	c #5D7A1C",
"0+	c #485E14",
"a+	c #394C12",
"b+	c #435A16",
"c+	c #4C6418",
"d+	c #526B18",
"e+	c #2E2A10",
"f+	c #532929",
"g+	c #633232",
"h+	c #512828",
"i+	c #4E2626",
"j+	c #5B2D2D",
"k+	c #613131",
"l+	c #445B14",
"m+	c #485F14",
"n+	c #536E19",
"o+	c #353313",
"p+	c #384113",
"q+	c #3E5314",
"r+	c #506B19",
"s+	c #455415",
"t+	c #3D1E1E",
"u+	c #512929",
"v+	c #542A2A",
"w+	c #552B2B",
"x+	c #5B2E2E",
"y+	c #5F2F2F",
"z+	c #5D2E2E",
"A+	c #3A4511",
"B+	c #281513",
"C+	c #2F2613",
"D+	c #3A4C12",
"E+	c #4B6418",
"F+	c #4F6617",
"G+	c #342D14",
"H+	c #2C1415",
"I+	c #482424",
"J+	c #502929",
"K+	c #4F2828",
"L+	c #542929",
"M+	c #496115",
"N+	c #435512",
"O+	c #3A2919",
"P+	c #361A1B",
"Q+	c #311918",
"R+	c #353314",
"S+	c #3D5113",
"T+	c #4A6217",
"U+	c #4E6817",
"V+	c #3C4014",
"W+	c #2D1715",
"X+	c #34191A",
"Y+	c #4B2626",
"Z+	c #4E2727",
"`+	c #4D2626",
" @	c #4C2525",
".@	c #5F3030",
"+@	c #506B18",
"@@	c #3E3F15",
"#@	c #522C2A",
"$@	c #653434",
"%@	c #532B2B",
"&@	c #4D2A27",
"*@	c #453B1D",
"=@	c #425315",
"-@	c #496216",
";@	c #4C6417",
">@	c #444917",
",@	c #331D18",
"'@	c #4C2626",
")@	c #572C2C",
"!@	c #6C3737",
"~@	c #703939",
"{@	c #6A3636",
"]@	c #472424",
"^@	c #462424",
"/@	c #492525",
"(@	c #4A2525",
"_@	c #485E15",
":@	c #473420",
"<@	c #5F3131",
"[@	c #5D3030",
"}@	c #50292A",
"|@	c #502A29",
"1@	c #4A3422",
"2@	c #46491A",
"3@	c #48431C",
"4@	c #4D2B26",
"5@	c #412020",
"6@	c #311717",
"7@	c #7D4141",
"8@	c #844444",
"9@	c #854545",
"0@	c #864545",
"a@	c #874646",
"b@	c #8A4848",
"c@	c #935151",
"d@	c #7E4242",
"e@	c #723A3A",
"f@	c #502828",
"g@	c #4E2828",
"h@	c #452323",
"i@	c #506A18",
"j@	c #404617",
"k@	c #5E3936",
"l@	c #804848",
"m@	c #955353",
"n@	c #7B4444",
"o@	c #562E2E",
"p@	c #522C2C",
"q@	c #512A2A",
"r@	c #4F2A28",
"s@	c #4D2827",
"t@	c #402020",
"u@	c #381C1C",
"v@	c #723C3C",
"w@	c #8F4E4E",
"x@	c #8C4B4B",
"y@	c #945353",
"z@	c #925252",
"A@	c #955656",
"B@	c #8F5151",
"C@	c #844747",
"D@	c #7C4040",
"E@	c #753B3B",
"F@	c #6D3737",
"G@	c #4F6918",
"H@	c #445713",
"I@	c #382919",
"J@	c #5A3132",
"K@	c #6B3838",
"L@	c #6F3A3A",
"M@	c #6C3838",
"N@	c #432222",
"O@	c #442323",
"P@	c #3E1F1F",
"Q@	c #492424",
"R@	c #774242",
"S@	c #985858",
"T@	c #854949",
"U@	c #7E4545",
"V@	c #753F3F",
"W@	c #6D3838",
"X@	c #7C4343",
"Y@	c #7B4040",
"Z@	c #723939",
"`@	c #683535",
" #	c #442222",
".#	c #4C6518",
"+#	c #353113",
"@#	c #3E2020",
"##	c #6C3B3B",
"$#	c #452222",
"%#	c #3C1E1E",
"&#	c #3B1D1D",
"*#	c #462222",
"=#	c #502727",
"-#	c #663636",
";#	c #804747",
">#	c #562C2C",
",#	c #6F3939",
"'#	c #643333",
")#	c #432121",
"!#	c #3C1D1D",
"~#	c #321818",
"{#	c #4C6416",
"]#	c #393A13",
"^#	c #4E2728",
"/#	c #462323",
"(#	c #633333",
"_#	c #774141",
":#	c #824545",
"<#	c #864646",
"[#	c #713A3A",
"}#	c #2F1616",
"|#	c #475D15",
"1#	c #393914",
"2#	c #341C19",
"3#	c #623030",
"4#	c #793D3D",
"5#	c #975555",
"6#	c #311818",
"7#	c #2A2410",
"8#	c #331A18",
"9#	c #6D3939",
"0#	c #4A2626",
"a#	c #7F4242",
"b#	c #9A5A5A",
"c#	c #8C4E4E",
"d#	c #854848",
"e#	c #824444",
"f#	c #713939",
"g#	c #6C3636",
"h#	c #220F10",
"i#	c #693636",
"j#	c #4F2626",
"k#	c #4D2727",
"l#	c #733A3A",
"m#	c #965757",
"n#	c #7A4242",
"o#	c #2D1515",
"p#	c #703838",
"q#	c #7B3F3F",
"r#	c #7F4343",
"s#	c #985757",
"t#	c #7B4343",
"u#	c #5E2E2E",
"v#	c #562A2A",
"w#	c #733B3B",
"x#	c #522828",
"y#	c #7F4646",
"z#	c #9B5A5A",
"A#	c #5C2F2F",
"B#	c #6B3737",
"C#	c #814343",
"D#	c #764040",
"E#	c #834444",
"F#	c #8C4C4C",
"G#	c #7A3E3E",
"H#	c #5E3030",
"I#	c #743E3E",
"J#	c #391B1B",
"K#	c #6E3838",
"L#	c #894949",
"M#	c #8F4D4D",
"N#	c #915050",
"O#	c #8D4F4F",
"P#	c #8A4C4C",
"Q#	c #864747",
"R#	c #793F3F",
"S#	c #915353",
"T#	c #8E5050",
"U#	c #7E4444",
"V#	c #7A3F3F",
"W#	c #8B4A4A",
"X#	c #985656",
"Y#	c #633434",
"Z#	c #6E3939",
"`#	c #874747",
" $	c #8E4D4D",
".$	c #874A4A",
"+$	c #8A4E4E",
"@$	c #774040",
"#$	c #582D2D",
"$$	c #783F3F",
"%$	c #8D4E4E",
"&$	c #7B4242",
"*$	c #693434",
"=$	c #753D3D",
"-$	c #884D4D",
";$	c #854C4C",
">$	c #412121",
",$	c #522A2A",
"'$	c #542C2C",
")$	c #331919",
"!$	c #442121",
"~$	c #723B3B",
"{$	c #844545",
"]$	c #8D4C4C",
"^$	c #894747",
"/$	c #844646",
"($	c #763B3B",
"_$	c #965454",
":$	c #8E4F4F",
"<$	c #804444",
"[$	c #794343",
"}$	c #814545",
"|$	c #864A4A",
"1$	c #743D3D",
"2$	c #713B3B",
"3$	c #7D4444",
"4$	c #874949",
"5$	c #804343",
"6$	c #6A3737",
"7$	c #763F3F",
"8$	c #804545",
"9$	c #834747",
"0$	c #905151",
"a$	c #814747",
"b$	c #733D3D",
"c$	c #804646",
"d$	c #884B4B",
"e$	c #8F5050",
"f$	c #6D3A3A",
"g$	c #351919",
"h$	c #784141",
"i$	c #905252",
"j$	c #794242",
"k$	c #7F4848",
"l$	c #743F3F",
"m$	c #371A1A",
"n$	c #733F3F",
"o$	c #703C3C",
"p$	c #643434",
"q$	c #8B4B4B",
"r$	c #7C4141",
"s$	c #693737",
"t$	c #6E3A3A",
"u$	c #794141",
"v$	c #7C4242",
"w$	c #824747",
"x$	c #884C4C",
"y$	c #673535",
"z$	c #663434",
"A$	c #331818",
"B$	c #411F1F",
"C$	c #351A1A",
". + @ # $ % % % & * = - $ ; % % % > , ' ) ! ! ! ~ { ] ^ / / / / / / / / / / / / / / / / ( _ : < < < ",
". [ @ } ; % % % | 1 2 3 4 3 % % 5 6 7 8 9 0 ! a b c d e f g g g g h h h h h h h h h h h i j k : < < ",
". [ 3 l ; % % % m n o p % % % % q r s t u v ! w x y z A B C D E F G H I J J J K K K J L M i N O : < ",
"o + P Q ; % % % R S T ~ 4 % % & U V W X Y Z `  ...+.@.#.$.%.&.*.=.-.;.;.-.>.,.'.).'.,.'.i i i N O : ",
"!.l 4 ~.$ % % % > {.].^./.% % & (._.:.<.[.}.|.1.2.3.4.5.6.7.8.8.8.9.8.8.9.9.9.9.9.9.0.a.b.i i c.d.e.",
"f.g.3 /.h.% % & 1 i.0 j.k.- & l.m.n.o.p.q.r.s.t.u.v.w.x.y.z.9.0.0.0.A.B.0.0.0.0.0.0.0.0.C.D.C.N B.E.",
"F.G.$ @ $ % % H.I.J.K.L.M.N.O.^.P.Q.R.S.T.U.V.W.X.T.w.Y.Z.`.0.0.0.0.4.4.0.0.0.8.N 9.0.0.0. +w.w..+++",
"@+o #+% @ % % q $+%+! &+*+=+-+;+~.>+,+'+)+9.U.( X.w.w.w.B.!+~+0.{+{+0.0.0.0.0.)+]+^+0.0.0.j w.w.x.++",
"! F./+P % % & 3 (+_+! :+<+0 [+! }+|+1+2+ +3+N w.4+5+w.w.w.6+7+0.9.9.0.0.0.0.0.{+j 9.0.0.0. +w.w.x.++",
"! 8+F.}+% % 9+0+a+b+! ! @+! ! c+d+e+< f+ +g+j B.h+i+w.w.w.j+k+9.0.0.0.0.0.0.0.0.0.0.0.0.0. +w.w.x.++",
"! ! l+m+3 & n+o+p+q+0 ! 0 ! ! r+s+t t+5+]+U.u+v+x.2+v.w.w.v+u+w+x+k+8.0.0.0.0.0.0.y+z+0.0. +w.w.x.++",
"! ! ! o = 3 A+B+C+D+*+! ! ! E+F+G+H+I+J+K+K+K+K+v+i+L+w.v+K+K+K+K+u+w+j+ +8.0.0.3+{+^+0.0. +w.w.x.++",
"! ! ! ! M+N+O+P+Q+R+S+@+! T+U+V+W+X+Y+Z+Z+Z+Z+Z+K+`+ @U.K+K+K+K+K+K+K+K+J+v+B.d.z+.@j k+N y+w.w.x.++",
"! ! ! E++@@@#@$@%@&@*@=@-@;@>@,@p.V.'@K+]+)@4.9.!@~@{@z+v+K+Z+K+K+K+K+K+K+K+Z+]@^@]@]@/@(@Z+x.w.x.++",
"! ! ! Q _@:@<@h [@}@|@1@2@3@4@5@6@d.7@L 8@9@0@a@K b@c@d@e@{@j .+f@Z+g@K+K+K+'@h@h@h@h@h@h@h@f@Y.x.++",
"! ! a i@j@k@l@m@n@o@p@q@r@s@t@u@t+5+v@w@x@F E c@y@z@A@B@C@D@i E@F@N Y.U.K+K+I+h@h@h@h@h@h@h@/@f+.+E.",
"! ! G@H@I@J@K@L@M@J+N@O@N@P@_ Q@q.h+w.R@S@T@U@V@z.{@~+W@@.X@Y@i i c.Z@`@x+`+f@Q@N@ # # # #h@^@Z+h+V.",
"! .#/++#@###8.Y.j j $#%#t+&#*#Y.2+=#w.-#;#8.8.8.9.0.)+N 8.0.C.~+4.A.>#U.`+k+Y@>.,#'#Y.'@)#/ u.5@!#~#",
"E+{#]#s.^#V@9.k+{+3+)+/#u.`+v.T.3.=#w.(#_#0.g+z+{+0.y+N 0.0.j ]+g@K+Y+Q@0.i :#F K K <#L D@[#)@O }#< ",
"|#1#2#5@d.v@0.0.{+x+{+j w.3#T.T.=#=#w..@L@0.j v+N 3+0.9.^+4.U.K+K+]@4+7.4#i Y@5#G J K K J 8@4#`@$#6#",
"7#8#P@v+4.9#0.0.N .+k+3+3+{+B.w.f@i+w.j+~+3+9.N j d..+f@0#Y+K+Z+)#`+D.4#i ,.a#b#c#d#e#L 9@D@f#g#z+V.",
"h#t+L+w.d.i#0.0.0.8.0.0.0.{+j+w.f+j#w.w.d.A.]+k#/@/#h@h@h@/#/@'+h+l#4#i c.d@m#n#.@g+C.a.!@{+j+w..+++",
"o#U.w.w.B.9.0.^+N 0.0.0.0.8.j+w.5+i+w.5+I+h@O@h@h@h@ #/ u.u.P@`+p#M Y@q#r#s#t#8.g+{+0.0.0.u#w.w.x.++",
"++x.w.w.T.{+0.)+)+0.0.0.0.8.j+w.v# @x.Y+h@h@ #N@/  #/@.+g+w#~@x#j+$@`.y#z#;#8.8.8.0.0.9.{+y+w.w.x.++",
"++x.w.w.Y.j 0.0.0.0.0.8.4.u+'@v+x.2+Z+ #/#Q@u+A#B#,.C#<#J H D@x.f+w.Y.B.R@D#8.x+>#8.0.)+.+u#w.w.x.++",
"++x.Y.5+u+U.4.9.0.{+x+K+]@h@h@]@2+$#w+9.[#D@E#a@K K a@J F F#G#9.`+w.w.w.H#I#~+.@d.9.0.N )+y+w.w.x.++",
"J#U.U.K+K+K+f@Y.A.Z+^@h@h@h@O@ #w+d.d.K#r#L#G I H M#N#O#O#P#i e@2+.+w.w.w.6+~+0.0.0.0.0.0. +w.w.x.++",
"6@&#(@K+K+K+K+g@]@O@h@h@h@/ (@C.Q#R#v+5+4.5.t#S#T#U@v@{@~+U#V#i 5+i+T.w.w.w.N 0.0.0.0.0.0. +w.w.x.++",
"< < _ /#K+K+K+k#/#h@h@N@/ A.q#W#X#D@C. @v.v.v.Y#M@ +8.j ^+Z#R#4#0.$#w.w.w.w.z+0.0.0.0.0.0.N w.w.x.++",
"< < < ~#5@k#K+'@h@ #t@'@K#`# $.$+$d@i Y.2+w.w.w.u#{+0.{+8.0.~@'.~@)#x#w.w.w.T.^+0.0.9.0.0.N w.w.x.++",
"< < < : < &#2+/@t@/ .@C#M#P#@$7+C.).i e@Q@=#w.v+k#u+)+9.0.8. +#$w+5@2+Y.w.w.w.y+0.^+.+4.0.^+T.w.x.++",
"6#e.e.e.e.e.E.5@u+$$F %$&${@0.9.)+v+.+k+5+!#/#/#h@h@]@f@d.{+Y.g@(@v+T.h+w.w.w.j+{+N v+d.0.g+B.w.x.++",
"t+{+*$7+*$7+7+C.=$-$;$!@0.8.)+U.I+O@N@/#B..@(@u.>$h@h@h@]@Z+u+K+Q@i#,#Q@x.w.w.w.j 0.{+0.3+{+B.w.x.++",
"t+9.7+9. +k+k+A.v+,$'$B.4.U.I+h@ #/#)@w#9@9@'.7+U. #/ O@h@h@Y+K+'@q#r#h+i+w.w.w.Y.x.x.x.x..+Y.w.x.++",
"6#e.)$O `+7.`@`+!$Y+K+K+(@O@ #/#)@~${$J a@]$d@i i K#j+(@ # #]@k#A.8@A Y#*#v#w.w.Z+h@h@h@h@h@h+w.x.++",
"< O f@,#E#^$/$($9.3.Q@k#]@/#>#e@8@K a@a@G _$:$<$V#i i l#g+U.I+2+{@a@M#[$`+4+w.5+]@h@h@h@h@h@Y+5+x.++",
"k k+E#^$J F :$}$q#E@0.'@3.[#8@K a@^$M#N#|$1$2$3$.$4$5$V#i E@a.f+K#a@ $y#H#!$f+Z+h@h@h@h@h@h@I+f@v+E.",
"E.Y.6$d#N#U#W@7$8$9$*.f+x.@.L#W#D 0$a$L@0.8.0.9.C.b$c$d$4$.$L@L+5+&.e$&.f$i+(  #>$t@t@/ N@ #/#'@/#g$",
"++.+v.5.h$9.8.8.`@V@.@=#=#j+f$i$3$B#9.9.0.g+d.N 0.{+8.{@j$k$d.L+`+j+l$Z#`.Z.4.x+.+f@3.3.Z+(@u.m$6@< ",
"++x.w.Z.Z#8.x+j+0.6$d.h+i+w.w.n$C.9.0.0.0..@J+d.8.)@)+0.7+o$B.v# @v.p$Z#{@U@q$x@G W#H I L#r$3+f@E.6@",
"++x.w.4.`@9.Y.)@9.~+4.h+2+w.Y.s$B#0.^+j 0.8.j {+0.y+N 0.~+t$B.Y.4+x.4.9#0.v@=.u$v$U#c$w$x$.$e -.z+O ",
"++x.w.B.g+0.8.8.0.8.j+h+Q@w.w.Z.7+0.^+j 0.0.0.0.0.3+0.0.~+6$w.w.4+5+B.y$~+8.8.8.9.{+.@9.0.B#h$s$x.++",
"++x.w.w.N 0.)+ +0.{+j+f+4+w.w.j+{+0.0.0.0.0.0.0.{+j 9.0.3+z$w.w. @h+w.j ~+g+x+{+0.{+k+0.0.0.{+B..+++",
"++x.w.w.N 0.d.y+0.g+Y.3.X.w.Y.5+z+0.0.0.0.0.0.0.j .+{+0.0.g+w.T.=#`+w.j+8.^+A.{+4.Y.g+0.0.0.j w.x.++",
"++.+v..+4.0.0.0.3+)+f@ #'+5+u+K+u+.@0.0.0.0.0.3+0.{+0.3+3+ +w.T.h+X.w.T.^+0.0.0.)@f@j 3+g+B.u+u+v+++",
"e.I+J+K+u+d.j y+)+w+K+^ A$Q@K+K+K+U..+.+)@Y.A.B.x+d.d.z+z+5+U..+v#Q@v.w.v+]+v+w+]+u+Y.B.v+K+K+K+q.)$",
"< e.q.K+K+k#I+]@]@'@Z+V.: ++k#K+K+/@h@h@h@h@h@h@h@h@/#/#]@Y+K+f@u+B$5+5+]@O@h@h@h@h@h@I+g@K+K+q.e.< ",
"< < e.q.K+/@h@h@h@I+(@e.< 6@/ K+Y+h@h@h@h@h@h@h@h@h@h@h@h@h@(@K+'@O 3.Z+h@h@h@h@h@h@h@h@'@f@q.e.< < ",
"< < < e.*#]@h@h@h@/#)#6#< < e.q.^@h@h@h@h@h@h@h@h@h@h@h@h@h@h@/@/#6#)#]@h@h@h@h@h@h@h@h@I+/#e.< < < ",
"< < < < A$k k k k k e.< < < < C$k k k k k k k k k k k k k k k k C$< e.k k k k k k k k k k A$< < < < "};
