/* XPM */
static char * co1_xpm[] = {
"50 50 532 2",
"  	c None",
". 	c #301717",
"+ 	c #2F1717",
"@ 	c #361A1A",
"# 	c #422020",
"$ 	c #422121",
"% 	c #412020",
"& 	c #341919",
"* 	c #311818",
"= 	c #391B1B",
"- 	c #391C1C",
"; 	c #2F1616",
"> 	c #21110F",
", 	c #394111",
"' 	c #4E6717",
") 	c #496117",
"! 	c #435A15",
"~ 	c #364410",
"{ 	c #435612",
"] 	c #62811E",
"^ 	c #5B781C",
"/ 	c #58741B",
"( 	c #57731B",
"_ 	c #5A761B",
": 	c #4C6516",
"< 	c #63821E",
"[ 	c #5C791C",
"} 	c #4D6618",
"| 	c #59751B",
"1 	c #506A19",
"2 	c #425813",
"3 	c #371B1B",
"4 	c #603030",
"5 	c #7B4040",
"6 	c #844646",
"7 	c #804343",
"8 	c #7F4242",
"9 	c #7F4141",
"0 	c #773D3D",
"a 	c #542A2A",
"b 	c #592C2C",
"c 	c #5D2E2E",
"d 	c #3D1D1D",
"e 	c #3B1D1D",
"f 	c #412F1C",
"g 	c #485D15",
"h 	c #4A6317",
"i 	c #486017",
"j 	c #3E5013",
"k 	c #42351B",
"l 	c #3E4813",
"m 	c #5B791B",
"n 	c #5D7B1D",
"o 	c #59761B",
"p 	c #5A771C",
"q 	c #496115",
"r 	c #607F1D",
"s 	c #5D7A1D",
"t 	c #4D6718",
"u 	c #516B19",
"v 	c #381B1B",
"w 	c #623131",
"x 	c #783D3D",
"y 	c #7E4141",
"z 	c #975656",
"A 	c #8F5050",
"B 	c #8C4C4C",
"C 	c #8C4B4B",
"D 	c #8B4A4A",
"E 	c #894848",
"F 	c #884747",
"G 	c #884646",
"H 	c #814242",
"I 	c #793D3D",
"J 	c #703838",
"K 	c #442121",
"L 	c #582C2C",
"M 	c #633131",
"N 	c #482323",
"O 	c #5A2D2D",
"P 	c #482524",
"Q 	c #414117",
"R 	c #496216",
"S 	c #435915",
"T 	c #48401F",
"U 	c #53312C",
"V 	c #444C17",
"W 	c #4D6815",
"X 	c #5F7D1D",
"Y 	c #56711A",
"Z 	c #435913",
"` 	c #5C7A1C",
" .	c #5F7C1D",
"..	c #4E6718",
"+.	c #7D4141",
"@.	c #8C4E4E",
"#.	c #774040",
"$.	c #683535",
"%.	c #6C3838",
"&.	c #703A3A",
"*.	c #713A3A",
"=.	c #753D3D",
"-.	c #773E3E",
";.	c #7A3E3E",
">.	c #6A3535",
",.	c #643232",
"'.	c #5E2F2F",
").	c #4C2626",
"!.	c #472323",
"~.	c #522828",
"{.	c #452222",
"].	c #3A241A",
"^.	c #404F13",
"/.	c #465E15",
"(.	c #47471E",
"_.	c #4A2B27",
":.	c #452424",
"<.	c #464E18",
"[.	c #496214",
"}.	c #59751A",
"|.	c #3C500F",
"1.	c #567119",
"2.	c #607F1E",
"3.	c #4F6919",
"4.	c #5A761C",
"5.	c #783F3F",
"6.	c #854848",
"7.	c #8D4F4F",
"8.	c #723C3C",
"9.	c #653232",
"0.	c #653333",
"a.	c #663333",
"b.	c #542929",
"c.	c #4A2525",
"d.	c #4F2727",
"e.	c #4A2424",
"f.	c #352B14",
"g.	c #383A13",
"h.	c #4B2E28",
"i.	c #422122",
"j.	c #3D1D1E",
"k.	c #424517",
"l.	c #516C18",
"m.	c #4A6214",
"n.	c #55711A",
"o.	c #425812",
"p.	c #415713",
"q.	c #4E6716",
"r.	c #526C19",
"s.	c #405611",
"t.	c #3A1C1C",
"u.	c #5F3030",
"v.	c #723E3E",
"w.	c #7B4343",
"x.	c #5B2E2E",
"y.	c #5A2C2C",
"z.	c #4C2525",
"A.	c #572B2B",
"B.	c #472222",
"C.	c #552A2A",
"D.	c #341A19",
"E.	c #341B19",
"F.	c #452525",
"G.	c #5A2E2E",
"H.	c #422021",
"I.	c #3F3A17",
"J.	c #56721A",
"K.	c #445B13",
"L.	c #516B17",
"M.	c #455D14",
"N.	c #3F5512",
"O.	c #465D14",
"P.	c #57721B",
"Q.	c #4B6417",
"R.	c #405512",
"S.	c #562B2B",
"T.	c #582B2B",
"U.	c #5D2F2F",
"V.	c #613030",
"W.	c #5F2F2F",
"X.	c #5C2E2E",
"Y.	c #502727",
"Z.	c #512A2A",
"`.	c #6E3A3A",
" +	c #482324",
".+	c #3C2E18",
"++	c #536D19",
"@+	c #4C6517",
"#+	c #57731A",
"$+	c #4B6415",
"%+	c #3B4F11",
"&+	c #445A15",
"*+	c #496217",
"=+	c #435A13",
"-+	c #58751A",
";+	c #5E7B1D",
">+	c #475E15",
",+	c #425913",
"'+	c #5B2D2D",
")+	c #562A2A",
"!+	c #3D1E1E",
"~+	c #512828",
"{+	c #492424",
"]+	c #6C3939",
"^+	c #4F2728",
"/+	c #3B241B",
"(+	c #4C5F17",
"_+	c #445A14",
":+	c #3F5511",
"<+	c #415712",
"[+	c #425915",
"}+	c #465D16",
"|+	c #465D15",
"1+	c #4C6515",
"2+	c #526D19",
"3+	c #465E16",
"4+	c #532A2A",
"5+	c #4F2828",
"6+	c #502929",
"7+	c #673333",
"8+	c #633232",
"9+	c #3C1F1D",
"0+	c #444B16",
"a+	c #546F19",
"b+	c #455C15",
"c+	c #445B16",
"d+	c #485F17",
"e+	c #475F16",
"f+	c #3E5312",
"g+	c #4B6316",
"h+	c #3B1C1C",
"i+	c #512929",
"j+	c #572C2C",
"k+	c #4E2626",
"l+	c #401F20",
"m+	c #3D3218",
"n+	c #516B18",
"o+	c #4C6418",
"p+	c #435A16",
"q+	c #394C12",
"r+	c #495F15",
"s+	c #5D7A1C",
"t+	c #546F1A",
"u+	c #475E16",
"v+	c #4B2626",
"w+	c #502828",
"x+	c #522A2A",
"y+	c #522929",
"z+	c #4B2525",
"A+	c #351E19",
"B+	c #465416",
"C+	c #506B19",
"D+	c #3D5314",
"E+	c #394113",
"F+	c #373314",
"G+	c #546E19",
"H+	c #485F15",
"I+	c #445B14",
"J+	c #331919",
"K+	c #432121",
"L+	c #492525",
"M+	c #4C2727",
"N+	c #4E2727",
"O+	c #532929",
"P+	c #2F1718",
"Q+	c #352E15",
"R+	c #4E6617",
"S+	c #4B6418",
"T+	c #3C4D13",
"U+	c #3B2C19",
"V+	c #3A1E1C",
"W+	c #424915",
"X+	c #683434",
"Y+	c #733B3B",
"Z+	c #6F3939",
"`+	c #623232",
" @	c #582D2D",
".@	c #4D2626",
"+@	c #351B1B",
"@@	c #2E1917",
"#@	c #3B4014",
"$@	c #4E6818",
"%@	c #4A6217",
"&@	c #3C5113",
"*@	c #373415",
"=@	c #381C1C",
"-@	c #3A1C1D",
";@	c #382717",
">@	c #415411",
",@	c #763D3D",
"'@	c #7B3F3F",
")@	c #844545",
"!@	c #894747",
"~@	c #854545",
"{@	c #824343",
"]@	c #7D4040",
"^@	c #743C3C",
"/@	c #6C3737",
"(@	c #462222",
"_@	c #703939",
":@	c #6A3636",
"<@	c #412121",
"[@	c #2F1818",
"}@	c #2F1C16",
"|@	c #3D4514",
"1@	c #3F5214",
"2@	c #313112",
"3@	c #2A1715",
"4@	c #2C1616",
"5@	c #351A1B",
"6@	c #2C1815",
"7@	c #323A0F",
"8@	c #603131",
"9@	c #8E4F4F",
"0@	c #904E4E",
"a@	c #874646",
"b@	c #6D3737",
"c@	c #844444",
"d@	c #864545",
"e@	c #8A4848",
"f@	c #935151",
"g@	c #7E4242",
"h@	c #723A3A",
"i@	c #4D2727",
"j@	c #361B1B",
"k@	c #2E1718",
"l@	c #2F1C17",
"m@	c #393C14",
"n@	c #3C4414",
"o@	c #302614",
"p@	c #291515",
"q@	c #402121",
"r@	c #2B2511",
"s@	c #465C13",
"t@	c #7B4545",
"u@	c #A25F5F",
"v@	c #965555",
"w@	c #945252",
"x@	c #915050",
"y@	c #8D4C4C",
"z@	c #8A4949",
"A@	c #874747",
"B@	c #6C3636",
"C@	c #723D3D",
"D@	c #8F4E4E",
"E@	c #8E4C4C",
"F@	c #945353",
"G@	c #925252",
"H@	c #955656",
"I@	c #8F5151",
"J@	c #844747",
"K@	c #7C4040",
"L@	c #753B3B",
"M@	c #592D2D",
"N@	c #301818",
"O@	c #2F1817",
"P@	c #2F1917",
"Q@	c #2B1516",
"R@	c #2A1515",
"S@	c #3A1D1D",
"T@	c #462323",
"U@	c #3A1D1E",
"V@	c #2A1814",
"W@	c #363F10",
"X@	c #506B18",
"Y@	c #613232",
"Z@	c #824949",
"`@	c #6E3939",
" #	c #6F3A3A",
".#	c #713B3B",
"+#	c #723B3B",
"@#	c #774242",
"##	c #985858",
"$#	c #854949",
"%#	c #7E4545",
"&#	c #753F3F",
"*#	c #673434",
"=#	c #6D3838",
"-#	c #773F3F",
";#	c #7C4343",
">#	c #763C3C",
",#	c #3F2020",
"'#	c #2E1617",
")#	c #2B1515",
"!#	c #442222",
"~#	c #2B2111",
"{#	c #435713",
"]#	c #4F6918",
"^#	c #794242",
"/#	c #663636",
"(#	c #804747",
"_#	c #693535",
":#	c #552B2B",
"<#	c #2E1717",
"[#	c #492626",
"}#	c #542B2B",
"|#	c #643333",
"1#	c #291514",
"2#	c #2C2D0E",
"3#	c #4A6315",
"4#	c #4C6518",
"5#	c #613131",
"6#	c #633333",
"7#	c #774141",
"8#	c #4E2828",
"9#	c #482424",
"0#	c #5A2F2F",
"a#	c #824545",
"b#	c #864646",
"c#	c #5E3030",
"d#	c #351C1A",
"e#	c #343710",
"f#	c #4B6416",
"g#	c #713C3C",
"h#	c #472424",
"i#	c #6B3636",
"j#	c #773C3C",
"k#	c #975555",
"l#	c #8C4A4A",
"m#	c #804242",
"n#	c #3F221F",
"o#	c #3B3A15",
"p#	c #475D15",
"q#	c #6D3939",
"r#	c #4A2626",
"s#	c #6F3838",
"t#	c #9A5A5A",
"u#	c #824444",
"v#	c #371C1B",
"w#	c #2A240F",
"x#	c #693636",
"y#	c #452323",
"z#	c #401F1F",
"A#	c #733A3A",
"B#	c #965757",
"C#	c #7A4242",
"D#	c #220F10",
"E#	c #442323",
"F#	c #3F1F1F",
"G#	c #3E1F1F",
"H#	c #793E3E",
"I#	c #7F4343",
"J#	c #985757",
"K#	c #5E2E2E",
"L#	c #2D1515",
"M#	c #432222",
"N#	c #653434",
"O#	c #7F4646",
"P#	c #9B5A5A",
"Q#	c #5C2F2F",
"R#	c #6B3737",
"S#	c #814343",
"T#	c #764040",
"U#	c #562C2C",
"V#	c #834444",
"W#	c #743E3E",
"X#	c #462424",
"Y#	c #6E3838",
"Z#	c #894949",
"`#	c #8F4D4D",
" $	c #8A4C4C",
".$	c #311717",
"+$	c #864747",
"@$	c #793F3F",
"#$	c #683737",
"$$	c #915353",
"%$	c #8E5050",
"&$	c #7E4444",
"*$	c #7A3F3F",
"=$	c #985656",
"-$	c #633434",
";$	c #321818",
">$	c #402020",
",$	c #8E4D4D",
"'$	c #874A4A",
")$	c #8A4E4E",
"!$	c #753C3C",
"~$	c #8D4E4E",
"{$	c #7B4242",
"]$	c #3C1D1D",
"^$	c #693434",
"/$	c #884D4D",
"($	c #854C4C",
"_$	c #542C2C",
":$	c #884949",
"<$	c #763B3B",
"[$	c #965454",
"}$	c #804444",
"|$	c #794343",
"1$	c #814545",
"2$	c #864A4A",
"3$	c #743D3D",
"4$	c #7D4444",
"5$	c #874949",
"6$	c #6A3737",
"7$	c #763F3F",
"8$	c #804545",
"9$	c #834747",
"0$	c #763E3E",
"a$	c #914F4F",
"b$	c #905151",
"c$	c #814747",
"d$	c #733D3D",
"e$	c #804646",
"f$	c #884B4B",
"g$	c #753E3E",
"h$	c #6D3A3A",
"i$	c #351919",
"j$	c #784141",
"k$	c #905252",
"l$	c #7F4848",
"m$	c #743F3F",
"n$	c #371A1A",
"o$	c #733F3F",
"p$	c #703C3C",
"q$	c #643434",
"r$	c #8B4B4B",
"s$	c #7C4141",
"t$	c #693737",
"u$	c #784040",
"v$	c #794141",
"w$	c #7C4242",
"x$	c #824747",
"y$	c #884C4C",
"z$	c #814444",
"A$	c #794040",
"B$	c #673535",
"C$	c #663434",
"D$	c #3E1E1E",
"E$	c #331818",
"F$	c #411F1F",
"G$	c #351A1A",
". . . + @ # # $ $ $ $ $ $ $ $ $ $ % & * = - ; > , ' ) ) ) ! ~ { ] ^ ^ ^ / ( _ : < [ ^ ^ ^ ( } | 1 2 ",
". . + 3 4 5 6 7 8 9 9 9 9 9 9 9 9 0 a 3 b c d e f g h ) i j k l m n ^ ^ o p o q r s ^ ^ ^ / t | u 2 ",
". + v w x y z A B C D E F F F G H I J K L M N O P Q R ) S T U V W X ^ ^ ^ ^ Y Z `  .^ ^ ^ / ..o u 2 ",
"+ v w x +.@.#.$.%.&.*.=.-.0 ;.0 >.,.'.K ).4 !.~.{.].^./.(._.:.<.[.}.[ ^ ^ p ' |.1.2.^ ^ ^ / 3.4.1 Z ",
"& b 5.6.7.8.9.0.9.0.0.a.w M a.'.b b b.v c.'.d.e.d.3 f.g.h.i.j.k.l.m.[ ^ ^ n.o.p.q.] ^ ^ ^ ( r.p ..s.",
"t.L u.v.w.9.a.O x.a.a.a.9.0.M y.b y.z.t.A.w b B.C.% D.E.F.G.H.I.J.K.L.[ _ M.N.i O.r [ ^ ^ P.n.o Q.R.",
"t.S.T.u.%.a.a.U.'.a.0.V.0.a.W.b b b # {.X.9.c z.Y.Y.3 @ Z.`. +.+++@+o.#+$+%+&+*+=+-+;+^ ^ ( | ( >+,+",
"t.A.b b U.V.,.a.a.a.a.4 0.,.'+b b )+!+~+'.a.W.b.{+T.!.z.O ]+^+/+(+r._+:+<+[+}+) |+1+X ^ ^ | ^ 2+Z 3+",
"t.A.b 4+5+6+4+S.O '.w 9.a.V.b b y.d.% L V.7+w b e.C.b b b 8+L 9+0+a+) b+i c+d+) e+f+o [ ^ ^ 4.g+,+) ",
"h+S.4+5+5+5+5+5+5+5+i+a j+b b b b !.z.O 4 8+4 O ~+k+b b b '+O l+m+n+o+) ) 3+) ) p+q+r+s+^ ^ t+,+u+) ",
"3 c.v+).5+5+5+w+5+5+5+5+5+i+L b A.K C.S.x+y+i+a A.z+T.b b a w+!+A+B+C+) ) i ) i D+E+F+G+[ o H+I+) ) ",
". * J+h+# % K+{.L+M+N+5+5+5+O+b y+{+S.w+5+5+5+5+a k+b.b a 5+5+$ P+Q+R+S+) ) ) [+T+U+V+W+o : Z ) ) ) ",
"& {+'+X+Y+Z+`+ @y+{+{+!.!.c.).O+.@N+w+N+N+N+N+N+5+.@z.y+5+5+5+v++@@@#@$@%@) 3+&@*@=@-@;@>@q ) ) ) ) ",
"t.'.,@'@)@!@F G ~@{@]@^@/@0.U.C.% (@).5+4+j+U.0./@_@:@c a 5+N+5+<@[@}@|@Q.*+1@2@3@4@5@6@7@n+S+) ) ) ",
"t.S.8@#.9@0@G a@a@a@G F F F ~@b@!.'.+.{@c@~@d@a@G e@f@g@h@:@4 S.i@j@k@l@m@n@o@p@p@[@q@[@r@s@3.) ) ) ",
"t.A.b x.t@u@v@w@x@y@z@A@d@{@B@y.B.a C@D@C E@0@f@F@G@H@I@J@K@x L@b@M@=@N@O@P@Q@p@R@S@T@U@V@W@X@h ) ) ",
"t.A.b L Y@Z@`@ #&.&..#+#_@X+b b N w+b @###$#%#&#&.:@*#=#-#;#5 x x >#U.,#j@'#N@)#* $ !#$ N@~#{#]#) ) ",
"t.A.b b 8@^#,.L 4 a.0.0.a.V.b b z+Y.b /#(#9.9.9.0.a.'.w 9.a._#*#U.M@:#,#<#S@[#}#:@|#L ).!+1#2#3#4#) ",
"t.A.b b u.&#0.5#,.a.a.a.a.w b y.d.Y.b 6#7#a.8+c ,.a.W.w a.a.4 4+8#5+v+9#i+c.0#a#G G b#{@K@c#d#e#f#S+",
"t.A.b b c#g#a.a.,.x.M a.a.M y.y.Y.Y.b u. #a.4 a w 7+a.0.M U.y+5+5+h#e.i#j#$.^@k#l#F G G F m#M@n#o#p#",
"t.A.b b U.q#a.a.w S.5#a.a.,.O b w+k+b '+*#7+0.w 4 X.S.w+r#v+5+N+K+.@s#I x x 8 t#@.6.u#{@~@]@i#z+v#w#",
"t.A.b b X.x#a.a.a.9.a.a.a.,.'+b O+k+b b X.M@4+i@L+T@y#y#y#T@L+z#~+A#I x j#g@B#C#u.8+_#>./@,.'+b.!+D#",
"t.A.b b O 0.a.M w a.a.a.a.9.'+b C.k+b C.9#y#E#y#y#y#!#$ F#F#G#.@J H#5 '@I#J#w.9.8+,.a.a.a.K#b b y+L#",
"t.A.b b y.,.a.'.'.a.a.a.a.9.'+b )+z.A.v+y#y#!#M#$ !#L+S.8+Y+_@~.'+N#g#O#P#(#9.9.9.a.a.0.,.W.b b A.t.",
"t.A.b b L 4 a.a.a.a.a.9.U.i+).a A.z+N+!#T@{+i+Q#R#0 S#b#F z@K@A.O+b L O @#T#9.x.U#9.a.'.S.K#b b A.t.",
"t.A.L C.i+y+U.0.a.,.x.5+h#y#y#h#z+{.:#0.*.K@V#a@G G a@F E@B ;.0..@b b b c#W#*#u.X.0.a.w '.W.b b A.t.",
"= y+y+5+5+5+w+L M@i@X#y#y#y#E#!#:#X.X.Y#I#Z#l#E z@`#x@7.7. $x h@z+S.b b b `+*#a.a.a.a.a.a.V.b b A.t.",
".$e c.5+5+5+5+8#h#E#y#y#y#$ c._#+$@$a C.U.#$w.$$%$%#8.:@*#&$*$x C.k+y.b b b w a.a.a.a.a.a.V.b b A.t.",
". . @ T@5+5+5+i@T@y#y#M#$ M@'@D =$K@_#z.T.T.T.-$%.V.9.4 M `@@$I a.{.b b b b c a.a.a.a.a.a.w b b A.t.",
". . . ;$% i@5+).y#!#>$).Y#A@,$'$)$8 x L z+b b b K#,.a.,.9.a._@>#_@K+~.b b b y.M a.a.0.a.a.w b b A.t.",
". . . + . e z+L+>$$ u.S#`# $#.X+_#!$x h@{+Y.b a i@i+'.0.a.9.V. @:#% z+L b b b W.a.M S.U.a.M y.b A.t.",
"* & & & & & h+% i+5.E@~${$:@a.0.'.a S.5#C.]$T@T@y#y#h#w+X.,.L 8#c.a y.~+b b b '+,.w a X.a.8+O b A.t.",
"!+,.^$X+^$X+X+_#=./$($/@a.9.'.y+9#E#M#T@O u.c.F#<@y#y#y#h#N+i+5+{+x#Z+{+A.b b b 4 a.,.a.7+,.O b A.t.",
"!+0.X+0.V.5#5#M@a x+_$O U.y+9#y#!#T@j+Y+~@~@>#X+y+!#$ E#y#y#v+5+.@'@I#~+k+b b b L A.A.A.A.S.L b A.t.",
"* & J+v .@i#$..@K v+5+5+c.E#!#T@j++#)@F a@y@g@x x Y#'+c.!#!#h#i@M@c@:$-$(@)+b b N+y#y#y#y#y#~+b A.t.",
". v w+Z+V#!@6 <$0.d.{+i@h#T@U#h@c@G a@a@l#[$9@}$*$x x A#8+y+9#z+:@a@`#|$.@e.b C.h#y#y#y#y#y#v+C.A.t.",
"3 5#V#!@F E@9@1$'@L@a.).d.*.c@G a@!@`#x@2$3$.#4$'$5$7 *$x L@>.O+Y#a@,$O#c#K O+N+y#y#y#y#y#y#9#w+a h+",
"h+L 6$6.x@&$=#7$8$9$0$O+A.-#Z#D a$b$c$ #a.9.a.0._#d$e$f$5$'$ #b.C.g$A g$h$k+# !#<@>$>$$ M#!#T@).T@i$",
"t.S.T.#$j$0.9.9.$.&#u.Y.Y.'+h$k$4$R#0.0.a.8+X.w a.,.9.:@^#l$X.b..@'+m$`@g#Y@U.x.S.w+d.d.N+c.F#n$.$. ",
"t.A.b Y@`@9.x.'+a.6$X.~+k+b b o$_#0.a.a.a.u.6+X.9.j+'.a.X+p$O )+z.T.q$`@:@%#r$C l#D z@E Z#s$7+w+h+.$",
"t.A.b U.$.0.L j+0.*#U.~+z+b L t$R#a.M 4 a.9.4 ,.a.W.w a.*#`.O L e.A.U.q#a.8.u$v$w$&$e$x$y$'$z$A$c v ",
"t.A.b O 8+a.9.9.a.9.'+~+{+b b Y@X+a.M 4 a.a.a.a.a.7+a.a.*#6$b b e.C.O B$*#9.9.9.0.,.u.0.a.R#j$t$A.t.",
"t.A.b b w a.'.V.a.,.'+O+e.b b '+,.a.a.a.a.a.a.a.,.4 0.a.7+C$b b z.~+b 4 *#8+x.,.a.,.5#a.a.a.,.O S.t.",
"t.A.b b w a.X.W.a.8+L d.N b L C.c a.a.a.a.a.a.a.4 S.,.a.a.8+b y.Y..@b '+9.M M@,.U.L 8+a.a.a.4 b A.t.",
"t.S.T.S.U.a.a.a.7+'.w+!#z#C.i+5+i+u.a.a.a.a.a.7+a.,.a.7+7+V.b y.~+N b y.M a.a.a.j+w+4 7+8+O i+i+a t.",
"& 9#6+5+i+X.4 W.'.:#5+D$E${+5+5+5+y+S.S.j+L M@O x.X.X.c c C.y+S.)+{+T.b a 4+a :#4+i+L O a 5+5+5+!.J+",
". & !.5+5+i@9#h#h#).N+- + t.i@5+5+L+y#y#y#y#y#y#y#y#T@T@h#v+5+w+i+F$C.C.h#E#y#y#y#y#y#9#8#5+5+!.& . ",
". . & !.5+L+y#y#y#9#c.& . .$$ 5+v+y#y#y#y#y#y#y#y#y#y#y#y#y#c.5+).v d.N+y#y#y#y#y#y#y#y#).w+!.& . . ",
". . . & (@h#y#y#y#T@K+* . . & !.X#y#y#y#y#y#y#y#y#y#y#y#y#y#y#L+T@* K+h#y#y#y#y#y#y#y#y#9#T@& . . . ",
". . . . E$3 3 3 3 3 & . . . . G$3 3 3 3 3 3 3 3 3 3 3 3 3 3 3 3 G$. & 3 3 3 3 3 3 3 3 3 3 E$. . . . "};
