/* XPM */
static char * co2_xpm[] = {
"50 50 297 2",
"  	c None",
". 	c #301717",
"+ 	c #2F1717",
"@ 	c #361A1A",
"# 	c #422020",
"$ 	c #422121",
"% 	c #412020",
"& 	c #341919",
"* 	c #311818",
"= 	c #391B1B",
"- 	c #391C1C",
"; 	c #321818",
"> 	c #351A1A",
", 	c #371B1B",
"' 	c #603030",
") 	c #7B4040",
"! 	c #844646",
"~ 	c #804343",
"{ 	c #7F4242",
"] 	c #7F4141",
"^ 	c #773D3D",
"/ 	c #542A2A",
"( 	c #592C2C",
"_ 	c #5D2E2E",
": 	c #3D1E1E",
"< 	c #743B3B",
"[ 	c #814444",
"} 	c #824545",
"| 	c #804242",
"1 	c #7E4141",
"2 	c #783D3D",
"3 	c #381B1B",
"4 	c #623131",
"5 	c #975656",
"6 	c #8F5050",
"7 	c #8C4C4C",
"8 	c #8C4B4B",
"9 	c #8B4A4A",
"0 	c #894848",
"a 	c #884747",
"b 	c #884646",
"c 	c #814242",
"d 	c #793D3D",
"e 	c #703838",
"f 	c #442121",
"g 	c #582C2C",
"h 	c #633131",
"i 	c #482323",
"j 	c #673333",
"k 	c #773C3C",
"l 	c #793E3E",
"m 	c #884949",
"n 	c #945252",
"o 	c #975454",
"p 	c #914F4F",
"q 	c #904E4E",
"r 	c #8E4C4C",
"s 	c #8C4A4A",
"t 	c #8A4949",
"u 	c #824343",
"v 	c #7D4141",
"w 	c #8B4E4E",
"x 	c #774040",
"y 	c #683535",
"z 	c #6C3838",
"A 	c #703A3A",
"B 	c #713A3A",
"C 	c #753D3D",
"D 	c #773E3E",
"E 	c #7A3E3E",
"F 	c #6A3535",
"G 	c #643232",
"H 	c #5E2F2F",
"I 	c #4C2626",
"J 	c #472323",
"K 	c #542929",
"L 	c #5F2F2F",
"M 	c #693636",
"N 	c #794040",
"O 	c #824646",
"P 	c #925353",
"Q 	c #834949",
"R 	c #753E3E",
"S 	c #763E3E",
"T 	c #784040",
"U 	c #7B4141",
"V 	c #783E3E",
"W 	c #763C3C",
"X 	c #753C3C",
"Y 	c #783F3F",
"Z 	c #854848",
"` 	c #8D4F4F",
" .	c #723C3C",
"..	c #653232",
"+.	c #653333",
"@.	c #663333",
"#.	c #4A2525",
"$.	c #4F2727",
"%.	c #492424",
"&.	c #5C2F2F",
"*.	c #683737",
"=.	c #854B4B",
"-.	c #6B3636",
";.	c #5C2E2E",
">.	c #3A1C1C",
",.	c #5F3030",
"'.	c #723E3E",
").	c #7B4343",
"!.	c #5A2D2D",
"~.	c #5B2E2E",
"{.	c #5A2C2C",
"].	c #4C2525",
"^.	c #572B2B",
"/.	c #472222",
"(.	c #562A2A",
"_.	c #6D3B3B",
":.	c #592D2D",
"<.	c #693535",
"[.	c #6F3838",
"}.	c #3B1C1C",
"|.	c #562B2B",
"1.	c #582B2B",
"2.	c #5D2F2F",
"3.	c #613030",
"4.	c #452222",
"5.	c #613232",
"6.	c #713C3C",
"7.	c #5B2D2D",
"8.	c #512828",
"9.	c #6C3939",
"0.	c #673434",
"a.	c #532A2A",
"b.	c #4F2828",
"c.	c #502929",
"d.	c #4A2424",
"e.	c #552A2A",
"f.	c #623232",
"g.	c #683434",
"h.	c #512929",
"i.	c #572C2C",
"j.	c #633232",
"k.	c #4E2626",
"l.	c #613131",
"m.	c #4B2626",
"n.	c #502828",
"o.	c #522A2A",
"p.	c #522929",
"q.	c #4B2525",
"r.	c #552B2B",
"s.	c #331919",
"t.	c #432121",
"u.	c #492525",
"v.	c #4C2727",
"w.	c #4E2727",
"x.	c #532929",
"y.	c #733A3A",
"z.	c #6F3939",
"A.	c #582D2D",
"B.	c #4D2626",
"C.	c #763D3D",
"D.	c #7B3F3F",
"E.	c #844545",
"F.	c #894747",
"G.	c #854545",
"H.	c #7D4040",
"I.	c #743C3C",
"J.	c #6C3737",
"K.	c #462222",
"L.	c #703939",
"M.	c #6A3636",
"N.	c #472424",
"O.	c #462424",
"P.	c #603131",
"Q.	c #8E4F4F",
"R.	c #874646",
"S.	c #6D3737",
"T.	c #844444",
"U.	c #864545",
"V.	c #8A4848",
"W.	c #935151",
"X.	c #7E4242",
"Y.	c #723A3A",
"Z.	c #4E2828",
"`.	c #452323",
" +	c #7B4545",
".+	c #A25F5F",
"++	c #965555",
"@+	c #915050",
"#+	c #8D4C4C",
"$+	c #874747",
"%+	c #6C3636",
"&+	c #8F4E4E",
"*+	c #945353",
"=+	c #925252",
"-+	c #955656",
";+	c #8F5151",
">+	c #844747",
",+	c #7C4040",
"'+	c #753B3B",
")+	c #482424",
"!+	c #824949",
"~+	c #6E3939",
"{+	c #6F3A3A",
"]+	c #713B3B",
"^+	c #723B3B",
"/+	c #774242",
"(+	c #985858",
"_+	c #854949",
":+	c #7E4545",
"<+	c #753F3F",
"[+	c #6D3838",
"}+	c #773F3F",
"|+	c #7C4343",
"1+	c #723939",
"2+	c #432222",
"3+	c #442222",
"4+	c #794242",
"5+	c #502727",
"6+	c #663636",
"7+	c #804747",
"8+	c #562C2C",
"9+	c #643333",
"0+	c #3F1F1F",
"a+	c #3C1D1D",
"b+	c #633333",
"c+	c #774141",
"d+	c #864646",
"e+	c #2F1616",
"f+	c #5E3030",
"g+	c #975555",
"h+	c #6D3939",
"i+	c #673535",
"j+	c #4A2626",
"k+	c #9A5A5A",
"l+	c #8C4E4E",
"m+	c #854747",
"n+	c #824444",
"o+	c #713939",
"p+	c #4F2626",
"q+	c #4D2727",
"r+	c #462323",
"s+	c #401F1F",
"t+	c #965757",
"u+	c #7A4242",
"v+	c #442323",
"w+	c #7F4343",
"x+	c #985757",
"y+	c #5E2E2E",
"z+	c #733B3B",
"A+	c #522828",
"B+	c #653434",
"C+	c #7F4646",
"D+	c #9B5A5A",
"E+	c #6B3737",
"F+	c #814343",
"G+	c #764040",
"H+	c #452121",
"I+	c #834444",
"J+	c #743E3E",
"K+	c #894949",
"L+	c #8F4D4D",
"M+	c #8A4C4C",
"N+	c #3E1E1E",
"O+	c #3B1D1D",
"P+	c #915353",
"Q+	c #8E5050",
"R+	c #7E4444",
"S+	c #7A3F3F",
"T+	c #311717",
"U+	c #633434",
"V+	c #793F3F",
"W+	c #3F2020",
"X+	c #331818",
"Y+	c #3E1F1F",
"Z+	c #412121",
"`+	c #351919",
" @	c #371A1A",
".@	c #3A1D1D",
"+@	c #794343",
"@@	c #6E3838",
"#@	c #8E4D4D",
"$@	c #6D3A3A",
"%@	c #402020",
"&@	c #743F3F",
"*@	c #643434",
"=@	c #8B4B4B",
"-@	c #8D4B4B",
";@	c #8A4A4A",
">@	c #7C4141",
",@	c #794141",
"'@	c #7C4242",
")@	c #804646",
"!@	c #824747",
"~@	c #884C4C",
"{@	c #874A4A",
"]@	c #784141",
"^@	c #693737",
". . . + @ # # $ $ $ $ $ $ $ $ $ $ % & * = - ; > % $ $ # $ $ $ $ $ $ $ $ $ $ $ $ $ $ $ $ # @ + . . . ",
". . + , ' ) ! ~ { ] ] ] ] ] ] ] ] ^ / , ( _ : / < ) [ } | 1 1 1 1 ] ] ] ] ] ] ] ] ] ] ] 2 ' , + . . ",
". + 3 4 2 1 5 6 7 8 9 0 a a a b c d e f g h i j k l { m n o p q r s t 0 a a a b b b a u l 2 4 3 + . ",
"+ 3 4 2 v w x y z A B C D ^ E ^ F G H f I ' J K L M N O P Q R S T N U U N V ^ W X W ^ W 2 2 2 4 3 + ",
"& ( Y Z `  ...+...+.+.@.4 h @.H ( ( K 3 #.H $.%.( ( &.*.=.-.......+.....+.+.+.+.+.+.@.F < 2 2 k ;.& ",
">.g ,.'.)...@.!.~.@.@.@...+.h {.( {.].>.^.4 ( /.(.( ( ^._.A +.@.@.@.:.!.@.@.@.@.@.@.@.@.<.[.<.4 !.}.",
">.|.1.,.z @.@.2.H @.+.3.+.@.L ( ( ( # 4.;..._ ].$.( ( g 5.6.@.@.@.@.2.2.@.@.@...4 +.@.@.@.3.( ( |.>.",
">.^.( ( 2.3.G @.@.@.@.' +.G 7.( ( (.: 8.H @.L K %.( ( ( !.9.0.@.G G @.@.@.@.@.H a.h @.@.@.' ( ( ^.>.",
">.^.( a.b.c.a.|.!.H 4 ..@.3.( ( {.$.% g 3.j 4 ( d.e.( ( ( f.g.@.+.+.@.@.@.@.@.G ' +.@.@.@.3.( ( ^.>.",
"}.|.a.b.b.b.b.b.b.b.h./ i.( ( ( ( J ].!.3.j.' !.8.k.( ( ( 7.l.+.@.@.@.@.@.@.@.@.@.@.@.@.@.3.( ( ^.>.",
", #.m.I b.b.b.n.b.b.b.b.b.h.g ( ^.f e.|.o.p.h./ ^.q.1.( ( / h.r.~.l...@.@.@.@.@.@.L _ @.@.3.( ( ^.>.",
". * s.}.# % t.4.u.v.w.b.b.b.x.( p.%.|.n.b.b.b.b./ k.K ( / b.b.b.b.h.r.7.3...@.@.j G h @.@.3.( ( ^.>.",
"& %.7.g.y.z.f.A.p.%.%.J J #.I x.B.w.n.w.w.w.w.w.b.B.].p.b.b.b.b.b.b.b.b.c./ !.;._ ,.' l.4 L ( ( ^.>.",
">.H C.D.E.F.a b G.u H.I.J.+.2.e.% K.I b.a.i.2.+.J.L.M._ / b.w.b.b.b.b.b.b.b.w.N.O.N.N.u.#.w.^.( ^.>.",
">.|.P.x Q.q b R.R.R.b a a a G.S.J H v u T.G.U.R.b V.W.X.Y.M.' |.n.w.Z.b.b.b.I `.`.`.`.`.`.`.n.g ^.>.",
">.^.( ~. +.+++n @+#+t $+U.u %+{././  .&+8 r q W.*+=+-+;+>+,+2 '+S.4 g p.b.b.)+`.`.`.`.`.`.`.u.x.|.}.",
">.^.( g 5.!+~+{+A A ]+^+L.g.( ( i n.( /+(+_+:+<+A M.0.[+}+|+) 2 2 k 1+y ~.B.n.%.2+3+3+3+3+`.O.w.8.- ",
">.^.( ( P.4+G g ' @.+.+.@.3.( ( q.5+( 6+7+......+.@.H 4 ..@.<.0.2.:.8+p.B.l.) V z.9+g I t.$ 0+% a+; ",
">.^.( ( ,.<++.l.G @.@.@.@.4 ( {.$.5+( b+c+@.j._ G @.L 4 @.@.' a.Z.b.m.%.@.2 } r b b d+u ,+B i.3 e+. ",
">.^.( ( f+6.@.@.G ~.h @.@.h {.{.5+5+( ,.{+@.' / 4 j @.+.h 2.p.b.b.N.d.-.d 2 ) g+s a b b a T.d y 4.* ",
">.^.( ( 2.h+@.@.4 |.l.@.@.G !.( n.k.( 7.i+j +.4 ' ;.|.n.j+m.b.w.t.B.[.d 2 ^ { k+l+m+n+u G.,+o+%+_ - ",
">.^.( ( ;.M @.@.@...@.@.@.G 7.( x.p+( ( ;.:.a.q+u.r+`.`.`.r+u.s+8.y.d 2 k X.t+u+,.j.<.F J.G 7.( |.>.",
">.^.( ( !.+.@.h 4 @.@.@.@...7.( e.k.( e.)+`.v+`.`.`.3+$ 0+0+0+B.e l ) D.w+x+)...j.G @.@.@.y+( ( ^.>.",
">.^.( ( {.G @.L H @.@.@.@...7.( (.].^.m.`.`.3+t.$ 3+u.|.j.z+L.A+7.B+6.C+D+7+......@.@.+.G L ( ( ^.>.",
">.^.( ( g ' @.@.@.@.@...2.h.I / ^.q.w.3+r+%.h.&.E+^ F+d+a t ,+^.x.( g !./+G+..~.8+..@.H |.y+( ( ^.>.",
">.^.g e.h.p.2.+.@.G ~.b.N.`.`.N.I H+r.+.B ,+I+R.b b R.a r 7 E +.B.( ( ( f+J+0.,.;.+.@.4 H L ( ( ^.>.",
"- x.p.b.b.b.n.g :.w.O.`.`.`.`.% 3 3 {.z.w+K+s 0 t L+@+` ` M+2 Y.q.|.( ( ( f.0.@.@.@.@.@.@.3.( ( ^.>.",
"* N+I b.b.b.b.Z.N.v+`.`.`.t.O+&     : (.2.*.).P+Q+:+ .M.0.R+S+2 e.k.{.( ( ( 4 @.@.@.@.@.@.3.( ( ^.>.",
"  . 3 u.b.b.b.q+r+`.`.3+N+@ T+      T+f g 1.1.U+z 3...' h ~+V+d @.4.( ( ( ( _ @.@.@.@.@.@.4 ( ( ^.>.",
"    + & 3+b.b.I `.`.W+3 X+            s.q.( ( ( y+G @.G ..@.L.W L.t.A+( ( ( {.h @.@.+.@.@.4 ( ( ^.>.",
"        ; Y+q+#.Z+>.`+                .  @8.( / q+h.H +.@...3.A.r.% q.g ( ( ( L @.h |.2.@.h {.( ^.>.",
"          . - : @                       ; >.J O.`.`.N.n.;.G g Z.#./ {.8.( ( ( 7.G 4 / ;.@.j.!.( ^.>.",
"            . T+                          . ; >.$ `.`.`.N.w.h.b.%.M z.%.^.( ( ( ' @.G @.j G !.( ^.>.",
"                                            . . s..@$ `.`.`.m.b.I D.w+8.k.( ( ( g ^.^.^.^.|.g ( ^.>.",
"                                                  . & O+$ `.)+q+:.T.m U+K.(.( ( w.`.`.`.`.`.8.( ^.>.",
"                                                      T+& a+2+q.M.R.L++@B.d.( e.N.`.`.`.`.`.m.e.^.>.",
"                                                          T+> s+@@R.#@C+f+f x.w.`.`.`.`.`.`.)+n./ }.",
"                                                              @ x.R 6 R $@k.# 3+Z+%@%@$ 2+3+r+I r+`+",
"                                                              X+i 7.&@~+6.5.2.~.|.n.$.$.w.#.0+ @T+. ",
"                                                              T+f 1.*@~+M.:+=@-@s 9 t 0 ;@>@j n.}.T+",
"                                                                N+^.2.h+@. .T ,@'@R+)@!@~@{@[ N _ 3 ",
"                                                                >.e.!.i+0.......+.G ,.+.@.E+]@^@^.>.",
"                                                                , 5+( ' 0.j.~.G @.G l.@.@.@.G !.|.>.",
"                                                                @ ].( 7...h :.G 2.g j.@.@.@.' ( ^.>.",
"                                                                  4.( {.h @.@.@.i.n.' j j.!.h.h./ >.",
"                                                                  f 1.( / a./ r.a.h.g !./ b.b.b.J s.",
"                                                                  - e.e.N.v+`.`.`.`.`.)+Z.b.b.J & . ",
"                                                                  s.$.w.`.`.`.`.`.`.`.`.I n.J & . . ",
"                                                                  . t.N.`.`.`.`.`.`.`.`.)+r+& . . . ",
"                                                                    & , , , , , , , , , , X+. . . . "};
