/* XPM */
static char * co3_xpm[] = {
"50 50 296 2",
"  	c None",
". 	c #301717",
"+ 	c #2F1717",
"@ 	c #361A1A",
"# 	c #422020",
"$ 	c #422121",
"% 	c #412020",
"& 	c #351A1A",
"* 	c #321818",
"= 	c #391C1C",
"- 	c #391B1B",
"; 	c #311818",
"> 	c #341919",
", 	c #371B1B",
"' 	c #603030",
") 	c #783D3D",
"! 	c #7F4141",
"~ 	c #7E4141",
"{ 	c #804242",
"] 	c #824545",
"^ 	c #814444",
"/ 	c #7B4040",
"( 	c #743B3B",
"_ 	c #542A2A",
": 	c #3D1E1E",
"< 	c #5D2E2E",
"[ 	c #592C2C",
"} 	c #773D3D",
"| 	c #7F4242",
"1 	c #804343",
"2 	c #844646",
"3 	c #381B1B",
"4 	c #623131",
"5 	c #793E3E",
"6 	c #824343",
"7 	c #884747",
"8 	c #884646",
"9 	c #894848",
"0 	c #8A4949",
"a 	c #8C4A4A",
"b 	c #8E4C4C",
"c 	c #904E4E",
"d 	c #914F4F",
"e 	c #975454",
"f 	c #945252",
"g 	c #884949",
"h 	c #773C3C",
"i 	c #673333",
"j 	c #482323",
"k 	c #633131",
"l 	c #582C2C",
"m 	c #442121",
"n 	c #703838",
"o 	c #793D3D",
"p 	c #814242",
"q 	c #8B4A4A",
"r 	c #8C4B4B",
"s 	c #8C4C4C",
"t 	c #8F5050",
"u 	c #975656",
"v 	c #763C3C",
"w 	c #753C3C",
"x 	c #783E3E",
"y 	c #794040",
"z 	c #7B4141",
"A 	c #784040",
"B 	c #763E3E",
"C 	c #753E3E",
"D 	c #834949",
"E 	c #925353",
"F 	c #824646",
"G 	c #693636",
"H 	c #5F2F2F",
"I 	c #542929",
"J 	c #472323",
"K 	c #4C2626",
"L 	c #5E2F2F",
"M 	c #643232",
"N 	c #6A3535",
"O 	c #7A3E3E",
"P 	c #773E3E",
"Q 	c #753D3D",
"R 	c #713A3A",
"S 	c #703A3A",
"T 	c #6C3838",
"U 	c #683535",
"V 	c #774040",
"W 	c #8B4E4E",
"X 	c #7D4141",
"Y 	c #5C2E2E",
"Z 	c #663333",
"` 	c #653333",
" .	c #653232",
"..	c #6B3636",
"+.	c #854B4B",
"@.	c #683737",
"#.	c #5C2F2F",
"$.	c #492424",
"%.	c #4F2727",
"&.	c #4A2525",
"*.	c #723C3C",
"=.	c #8D4F4F",
"-.	c #854848",
";.	c #783F3F",
">.	c #3B1C1C",
",.	c #5A2D2D",
"'.	c #693535",
").	c #6F3838",
"!.	c #592D2D",
"~.	c #6D3B3B",
"{.	c #572B2B",
"].	c #562A2A",
"^.	c #472222",
"/.	c #3A1C1C",
"(.	c #4C2525",
"_.	c #5A2C2C",
":.	c #5B2E2E",
"<.	c #7B4343",
"[.	c #723E3E",
"}.	c #5F3030",
"|.	c #562B2B",
"1.	c #613030",
"2.	c #5D2F2F",
"3.	c #713C3C",
"4.	c #613232",
"5.	c #452222",
"6.	c #582B2B",
"7.	c #532A2A",
"8.	c #673434",
"9.	c #6C3939",
"0.	c #512828",
"a.	c #5B2D2D",
"b.	c #683434",
"c.	c #623232",
"d.	c #552A2A",
"e.	c #4A2424",
"f.	c #502929",
"g.	c #4F2828",
"h.	c #613131",
"i.	c #4E2626",
"j.	c #633232",
"k.	c #572C2C",
"l.	c #512929",
"m.	c #552B2B",
"n.	c #4B2525",
"o.	c #522929",
"p.	c #522A2A",
"q.	c #502828",
"r.	c #4B2626",
"s.	c #532929",
"t.	c #4E2727",
"u.	c #4C2727",
"v.	c #492525",
"w.	c #432121",
"x.	c #331919",
"y.	c #4D2626",
"z.	c #582D2D",
"A.	c #6F3939",
"B.	c #733A3A",
"C.	c #472424",
"D.	c #462424",
"E.	c #6A3636",
"F.	c #703939",
"G.	c #6C3737",
"H.	c #462222",
"I.	c #743C3C",
"J.	c #7D4040",
"K.	c #854545",
"L.	c #894747",
"M.	c #844545",
"N.	c #7B3F3F",
"O.	c #763D3D",
"P.	c #452323",
"Q.	c #4E2828",
"R.	c #723A3A",
"S.	c #7E4242",
"T.	c #935151",
"U.	c #8A4848",
"V.	c #874646",
"W.	c #864545",
"X.	c #844444",
"Y.	c #6D3737",
"Z.	c #8E4F4F",
"`.	c #603131",
" +	c #482424",
".+	c #753B3B",
"++	c #7C4040",
"@+	c #844747",
"#+	c #8F5151",
"$+	c #955656",
"%+	c #925252",
"&+	c #945353",
"*+	c #8F4E4E",
"=+	c #6C3636",
"-+	c #874747",
";+	c #8D4C4C",
">+	c #915050",
",+	c #965555",
"'+	c #A25F5F",
")+	c #7B4545",
"!+	c #442222",
"~+	c #432222",
"{+	c #7C4343",
"]+	c #773F3F",
"^+	c #6D3838",
"/+	c #753F3F",
"(+	c #7E4545",
"_+	c #854949",
":+	c #985858",
"<+	c #774242",
"[+	c #723B3B",
"}+	c #713B3B",
"|+	c #6F3A3A",
"1+	c #6E3939",
"2+	c #824949",
"3+	c #3C1D1D",
"4+	c #3F1F1F",
"5+	c #643333",
"6+	c #562C2C",
"7+	c #804747",
"8+	c #663636",
"9+	c #502727",
"0+	c #794242",
"a+	c #2F1616",
"b+	c #864646",
"c+	c #774141",
"d+	c #633333",
"e+	c #975555",
"f+	c #5E3030",
"g+	c #713939",
"h+	c #824444",
"i+	c #8C4E4E",
"j+	c #9A5A5A",
"k+	c #4A2626",
"l+	c #6D3939",
"m+	c #7A4242",
"n+	c #965757",
"o+	c #401F1F",
"p+	c #462323",
"q+	c #4D2727",
"r+	c #4F2626",
"s+	c #5E2E2E",
"t+	c #985757",
"u+	c #7F4343",
"v+	c #442323",
"w+	c #9B5A5A",
"x+	c #7F4646",
"y+	c #653434",
"z+	c #522828",
"A+	c #733B3B",
"B+	c #764040",
"C+	c #814343",
"D+	c #6B3737",
"E+	c #743E3E",
"F+	c #834444",
"G+	c #452121",
"H+	c #8A4C4C",
"I+	c #8F4D4D",
"J+	c #894949",
"K+	c #7A3F3F",
"L+	c #7E4444",
"M+	c #8E5050",
"N+	c #915353",
"O+	c #3B1D1D",
"P+	c #3E1E1E",
"Q+	c #793F3F",
"R+	c #633434",
"S+	c #311717",
"T+	c #331818",
"U+	c #3F2020",
"V+	c #371A1A",
"W+	c #351919",
"X+	c #412121",
"Y+	c #3E1F1F",
"Z+	c #512727",
"`+	c #3A1D1D",
" @	c #794343",
".@	c #8E4D4D",
"+@	c #6E3838",
"@@	c #402020",
"#@	c #6D3A3A",
"$@	c #743F3F",
"%@	c #7C4141",
"&@	c #8A4A4A",
"*@	c #8D4B4B",
"=@	c #8B4B4B",
"-@	c #643434",
";@	c #874A4A",
">@	c #884C4C",
",@	c #824747",
"'@	c #804646",
")@	c #7C4242",
"!@	c #794141",
"~@	c #693737",
"{@	c #784141",
"]@	c #673535",
". . . + @ # $ $ $ $ $ $ $ $ $ $ $ $ $ $ $ $ # $ $ % & * = - ; > % $ $ $ $ $ $ $ $ $ $ # # @ + . . . ",
". . + , ' ) ! ! ! ! ! ! ! ! ! ! ! ~ ~ ~ ~ { ] ^ / ( _ : < [ , _ } ! ! ! ! ! ! ! ! | 1 2 / ' , + . . ",
". + 3 4 ) 5 6 7 8 8 8 7 7 7 9 0 a b c d e f g | 5 h i j k l m n o p 8 7 7 7 9 q r s t u ~ ) 4 3 + . ",
"+ 3 4 ) ) ) v } v w v } x y z z y A B C D E F y G H I J ' K m L M N } O } P Q R S T U V W X ) 4 3 + ",
"> Y h ) ) ( N Z ` ` ` ` ` `  . .`  . . ...+.@.#.[ [ $.%.L &.3 I [ [ L Z k 4 Z ` `  .`  .*.=.-.;.[ > ",
">.,.4 '.).'.Z Z Z Z Z Z Z Z ,.!.Z Z Z ` S ~.{.[ [ ].^.[ 4 {./.(._.[ _.k `  .Z Z Z :.,.Z  .<.[.}.l /.",
"/.|.[ [ 1.Z Z Z ` 4  .Z Z Z 2.2.Z Z Z Z 3.4.l [ [ %.(.<  .Y 5.# [ [ [ H Z ` 1.` Z L 2.Z Z T }.6.|./.",
"/.{.[ [ ' Z Z Z k 7.L Z Z Z Z Z M M Z 8.9.,.[ [ [ $.I H Z L 0.: ].[ [ a.M ` ' Z Z Z Z M 1.2.[ [ {./.",
"/.{.[ [ 1.Z Z Z ` ' M Z Z Z Z Z ` ` Z b.c.[ [ [ d.e.[ 4 i 1.l % %._.[ [ 1.Z  .4 L ,.|.7.f.g.7.[ {./.",
"/.{.[ [ 1.Z Z Z Z Z Z Z Z Z Z Z Z Z ` h.a.[ [ [ i.0.,.' j.1.,.(.J [ [ [ [ k._ l.g.g.g.g.g.g.g.7.|.>.",
"/.{.[ [ 1.Z Z 2.}.Z Z Z Z Z Z  .h.:.m.l._ [ [ 6.n.{._ l.o.p.|.d.m {.[ l l.g.g.g.g.g.q.g.g.g.K r.&., ",
"/.{.[ [ 1.Z Z k M i Z Z  .1.a.m.l.g.g.g.g._ [ I i._ g.g.g.g.q.|.$.o.[ s.g.g.g.t.u.v.5.w.% # >.x.; . ",
"/.{.[ [ H 4 h.' H < Y ,._ f.g.g.g.g.g.g.g.g.o.(.y.g.t.t.t.t.t.q.t.y.s.K &.J J $.$.o.z.c.A.B.b.a.$.> ",
"/.{.[ {.t.&.v.C.C.D.C.t.g.g.g.g.g.g.g.t.g._ < E.F.G.` 2.k.7.g.K H.% d.2.` G.I.J.6 K.8 7 L.M.N.O.L /.",
"/.{.l q.P.P.P.P.P.P.P.K g.g.g.Q.t.q.|.' E.R.S.T.U.8 V.W.K.X.6 X L J Y.K.7 7 7 8 V.V.V.8 c Z.V `.|./.",
">.|.s.v.P.P.P.P.P.P.P. +g.g.o.l 4 Y..+) ++@+#+$+%+&+T.c b r *+*._ ^._.=+6 W.-+0 ;+>+f ,+'+)+:.[ {./.",
"= 0.t.D.P.!+!+!+!+~+$.q.y.:.U R.h ) ) / {+]+^+8.E.S /+(+_+:+<+[ 0.j [ [ b.F.[+}+S S |+1+2+4.l [ {./.",
"* 3+% 4+$ w.K l 5+A.x / h.y.o.6+!.2.8.'.Z  .4 L Z `  . . .7+8+[ 9+n.[ [ 1.Z ` ` Z ' l M 0+`.[ [ {./.",
". a+3 k.R ++6 b+8 8 b ] ) Z $.r.g.Q.7.' Z Z 4 H Z M < j.Z c+d+[ 9+%._.[ 4 Z Z Z Z M h.` /+}.[ [ {./.",
"; 5.U o X.7 8 8 7 a e+/ ) o ..e.C.g.g.o.2.k ` Z i 4 _ ' Z |+}.[ 9+9+_._.k Z Z k :.M Z Z 3.f+[ [ {./.",
"= < =+g+++K.6 h+-.i+j+| } ) o ).y.w.t.g.r.k+q.|.Y ' 4 ` i 8.a.[ i.q.[ ,.M Z Z h.|.4 Z Z l+2.[ [ {./.",
"/.|.[ a.M G.N '.j.}.m+n+S.h ) o B.0.o+v.p+P.P.P.p+v.q+7.!.Y [ [ r+s.[ a.M Z Z Z  .Z Z Z G Y [ [ {./.",
"/.{.[ [ s+Z Z Z M j. .<.t+u+N./ 5 n y.4+4+4+$ !+P.P.P.v+P. +d.[ i.d.[ a. .Z Z Z Z 4 k Z ` ,.[ [ {./.",
"/.{.[ [ H M ` Z Z  . . .7+w+x+3.y+a.z+F.A+j.|.v.!+$ w.!+P.P.r.{.(.].[ a. .Z Z Z Z L L Z M _.[ [ {./.",
"/.{.[ [ s+|.L Z  .6+:. .B+<+,.l [ s.{.++0 7 b+C+} D+#.l.$.p+!+t.n.{._ K l.2. .Z Z Z Z Z ' l [ [ {./.",
"/.{.[ [ H L 4 Z ` Y }.8.E+f+[ [ [ y.` O s b 7 V.8 8 V.F+++R ` m.G+K C.P.P.C.g.:.M Z ` 2.o.l.d.l {./.",
"/.{.[ [ 1.Z Z Z Z Z Z 8.c.[ [ [ |.n.R.) H+=.=.>+I+0 9 a J+u+A._.3 3 % P.P.P.P.D.q+!.l q.g.g.g.o.s.= ",
"/.{.[ [ 1.Z Z Z Z Z Z 4 [ [ [ _.i.d.) K+L+8.E.*.(+M+N+<.@.2.].:     > O+w.P.P.P.v+C.Q.g.g.g.g.K P+; ",
"/.{.[ [ 4 Z Z Z Z Z Z < [ [ [ [ 5.Z o Q+1+k '  .1.T R+6.6.l m S+      S+@ P+!+P.P.p+q+g.g.g.v.3 .   ",
"/.{.[ [ 4 Z Z ` Z Z k _.[ [ [ z+w.F.v F.Z  .M Z M s+[ [ [ n.x.            T+3 U+P.P.K g.g.!+> +     ",
"/.{.[ _.k Z 2.|.k Z H [ [ [ l n.% m.z.1. .Z ` L l.q+_ [ 0.V+.                 W+/.X+&.q+Y+*         ",
"/.{.[ ,.j.Z Y _ 4 M a.[ [ [ Z+[ _ &.Q.l M Y q.C.P.P.D.J /.*                       @ : = .           ",
"/.{.[ ,.M i Z M Z ' [ [ [ {.$.A.G v.g.l.t.C.P.P.P.$ /.* .                           S+.             ",
"/.{.[ l |.{.{.{.{.l [ [ [ i.0.u+N.K g.r.P.P.P.$ `+x.. .                                             ",
"/.{.[ 0.P.P.P.P.P.t.[ [ ].H.R+g X.!.q+ +P.$ O+> .                                                   ",
"/.{.d.r.P.P.P.P.P.C.d.[ e.y. @I+V.E.n.~+3+> S+                                                      ",
">._ q. +P.P.P.P.P.P.t.s.m f+x+.@V.+@o+& S+                                                          ",
"W+p+K p+!+~+$ @@@@X+!+# i.#@C t C s.@                                                               ",
". S+V+4+&.t.%.%.q.|.:.2.4.3.1+$@a.j T+                                                              ",
"S+>.q.8.%@&@9 0 q a *@=@(+E.1+-@6.m S+                                                              ",
"3 < y ^ ;@>@,@'@L+)@!@A *.Z l+2.{.P+                                                                ",
"/.{.~@{@D+Z ` }.M `  . . .8.]@,.d./.                                                                ",
"/.|.,.M Z Z Z h.M Z M :.j.8.' [ 9+,                                                                 ",
"/.{.[ ' Z Z Z j.l 2.M !.k  .a.[ (.@                                                                 ",
"/._ l.l.,.j.i ' q.k.Z Z Z k _.[ 5.                                                                  ",
"x.J g.g.g._ ,.l l.7.m._ 7._ [ 6.m                                                                   ",
". > J g.g.Q. +P.P.P.P.P.v+C.d.d.=                                                                   ",
". . > J q.K P.P.P.P.P.P.P.P.t.%.x.                                                                  ",
". . . > p+ +P.P.P.P.P.P.P.P.C.w..                                                                   ",
". . . . T+, , , , , , , , , , >                                                                     "};
