/* XPM */
static char * LGrun1_xpm[] = {
"50 50 902 2",
"  	c None",
". 	c #906719",
"+ 	c #996E1A",
"@ 	c #A0741B",
"# 	c #A3751C",
"$ 	c #A4751C",
"% 	c #996D1A",
"& 	c #936919",
"* 	c #9E701A",
"= 	c #A2751C",
"- 	c #9E711B",
"; 	c #966C19",
"> 	c #8F6618",
", 	c #8F6719",
"' 	c #9A6E1A",
") 	c #AA7A1D",
"! 	c #AC7C1E",
"~ 	c #A6781C",
"{ 	c #A1741B",
"] 	c #A7791C",
"^ 	c #A5761C",
"/ 	c #956A19",
"( 	c #8D6518",
"_ 	c #9C701B",
": 	c #AE7E20",
"< 	c #B08022",
"[ 	c #B08123",
"} 	c #AF8023",
"| 	c #AF7F21",
"1 	c #AD7D1F",
"2 	c #A8791D",
"3 	c #966B19",
"4 	c #B6882A",
"5 	c #D1A649",
"6 	c #EDC76A",
"7 	c #F5D177",
"8 	c #F6D378",
"9 	c #F4CF74",
"0 	c #E2BA5E",
"a 	c #C79A3D",
"b 	c #B28325",
"c 	c #A5771C",
"d 	c #926819",
"e 	c #8E6518",
"f 	c #A4761C",
"g 	c #C29437",
"h 	c #F5CD71",
"i 	c #F0BD5E",
"j 	c #EDB655",
"k 	c #EDB654",
"l 	c #EEB857",
"m 	c #F1C364",
"n 	c #F6D379",
"o 	c #E3BC60",
"p 	c #B7882A",
"q 	c #916818",
"r 	c #AC7D1F",
"s 	c #BE9132",
"t 	c #F5CF74",
"u 	c #ECB351",
"v 	c #E9AA45",
"w 	c #F0C061",
"x 	c #E3BA5D",
"y 	c #B58628",
"z 	c #A2741C",
"A 	c #956B1A",
"B 	c #B18123",
"C 	c #E8BD5F",
"D 	c #EAAE4B",
"E 	c #E6A844",
"F 	c #A97934",
"G 	c #794B31",
"H 	c #805333",
"I 	c #B88536",
"J 	c #E8A945",
"K 	c #DDA141",
"L 	c #E5A744",
"M 	c #EFBE5F",
"N 	c #CD9E3F",
"O 	c #A6781D",
"P 	c #916618",
"Q 	c #966C1A",
"R 	c #BC8B2C",
"S 	c #EFBC5B",
"T 	c #E8A944",
"U 	c #6B4728",
"V 	c #874545",
"W 	c #6F3737",
"X 	c #663333",
"Y 	c #6A3534",
"Z 	c #4A2A22",
"` 	c #613030",
" .	c #573126",
"..	c #A87833",
"+.	c #DFA342",
"@.	c #E4B453",
"#.	c #B38324",
"$.	c #916918",
"%.	c #C59434",
"&.	c #E5A742",
"*.	c #D89D3C",
"=.	c #DDA13F",
"-.	c #624026",
";.	c #894746",
">.	c #884646",
",.	c #6B3535",
"'.	c #673333",
").	c #83582F",
"!.	c #EBB24F",
"~.	c #C48F2D",
"{.	c #D59B3A",
"].	c #986E1D",
"^.	c #B07F28",
"/.	c #9C6D33",
"(.	c #894747",
"_.	c #6B3636",
":.	c #A2752E",
"<.	c #E3A642",
"[.	c #E4A642",
"}.	c #E7A844",
"|.	c #E8AB45",
"1.	c #B38122",
"2.	c #C38C2A",
"3.	c #D89E3D",
"4.	c #A97B26",
"5.	c #BC882E",
"6.	c #D99E40",
"7.	c #864545",
"8.	c #854444",
"9.	c #783D3D",
"0.	c #7F473C",
"a.	c #E4A643",
"b.	c #CB9335",
"c.	c #CF9638",
"d.	c #E2A541",
"e.	c #E6A843",
"f.	c #E7A841",
"g.	c #61431E",
"h.	c #6A3535",
"i.	c #693434",
"j.	c #61302F",
"k.	c #C69039",
"l.	c #CC9436",
"m.	c #D09738",
"n.	c #DCA040",
"o.	c #C68E3E",
"p.	c #E2A43F",
"q.	c #AB7B20",
"r.	c #A0731B",
"s.	c #8C6416",
"t.	c #C08B38",
"u.	c #623030",
"v.	c #5B2C2C",
"w.	c #5F2F2F",
"x.	c #643131",
"y.	c #BF893B",
"z.	c #C28D34",
"A.	c #8E661D",
"B.	c #88611A",
"C.	c #866119",
"D.	c #805D19",
"E.	c #E5A743",
"F.	c #8A6229",
"G.	c #A1742E",
"H.	c #CD953C",
"I.	c #B48235",
"J.	c #633131",
"K.	c #643232",
"L.	c #653232",
"M.	c #512828",
"N.	c #5E2F2F",
"O.	c #522929",
"P.	c #4C2626",
"Q.	c #865D2C",
"R.	c #D0963A",
"S.	c #99732A",
"T.	c #94722B",
"U.	c #95722C",
"V.	c #94722C",
"W.	c #93702C",
"X.	c #E5A642",
"Y.	c #DFA340",
"Z.	c #3F2A16",
"`.	c #412121",
" +	c #310F0F",
".+	c #430000",
"++	c #3A0000",
"@+	c #2D0000",
"#+	c #290000",
"$+	c #250000",
"%+	c #230000",
"&+	c #260101",
"*+	c #2A0404",
"=+	c #330909",
"-+	c #492424",
";+	c #733939",
">+	c #3B1D1D",
",+	c #B38135",
"'+	c #E0A342",
")+	c #D59B3C",
"!+	c #9F762C",
"~+	c #C89D49",
"{+	c #C59B40",
"]+	c #C49A3F",
"^+	c #C0983E",
"/+	c #B38C3A",
"(+	c #95692C",
"_+	c #291414",
":+	c #3C1111",
"<+	c #660000",
"[+	c #630000",
"}+	c #2A0B0B",
"|+	c #623131",
"1+	c #7D4E33",
"2+	c #E1A441",
"3+	c #DB9F3E",
"4+	c #D2983A",
"5+	c #A5782A",
"6+	c #B99142",
"7+	c #E3A845",
"8+	c #E9A944",
"9+	c #E8A943",
"0+	c #D4993A",
"a+	c #482822",
"b+	c #341A1A",
"c+	c #3D0F0F",
"d+	c #640000",
"e+	c #650000",
"f+	c #610000",
"g+	c #460404",
"h+	c #552020",
"i+	c #C58E3B",
"j+	c #E7A944",
"k+	c #E4A947",
"l+	c #E1A949",
"m+	c #D6A448",
"n+	c #C49641",
"o+	c #AB8234",
"p+	c #8C6926",
"q+	c #DCA749",
"r+	c #E7A942",
"s+	c #E8A73E",
"t+	c #E7A53A",
"u+	c #E6A539",
"v+	c #E6A537",
"w+	c #E6A230",
"x+	c #C78B24",
"y+	c #65362F",
"z+	c #250F0B",
"A+	c #3A0303",
"B+	c #390101",
"C+	c #3A0202",
"D+	c #390404",
"E+	c #1A0505",
"F+	c #5D2F2F",
"G+	c #5E2F2E",
"H+	c #B78536",
"I+	c #EAB04C",
"J+	c #EAB555",
"K+	c #E5B65A",
"L+	c #DCB058",
"M+	c #CFA44F",
"N+	c #9B762F",
"O+	c #C48F36",
"P+	c #E3A53F",
"Q+	c #C18A27",
"R+	c #E5A029",
"S+	c #E49F28",
"T+	c #DF9C28",
"U+	c #BE8726",
"V+	c #A27022",
"W+	c #342213",
"X+	c #22140C",
"Y+	c #351B18",
"Z+	c #4E2727",
"`+	c #462323",
" @	c #422020",
".@	c #442222",
"+@	c #472323",
"@@	c #482424",
"#@	c #492525",
"$@	c #4A2525",
"%@	c #4B2624",
"&@	c #492523",
"*@	c #422220",
"=@	c #5E401A",
"-@	c #DA9E3E",
";@	c #CE9E46",
">@	c #A57C2F",
",@	c #D79C3B",
"'@	c #B28021",
")@	c #BE8721",
"!@	c #E29E28",
"~@	c #D69727",
"{@	c #C7902B",
"]@	c #CB922C",
"^@	c #E49F29",
"/@	c #795B0E",
"(@	c #E6E100",
"_@	c #FFD300",
":@	c #FEC400",
"<@	c #ED9A00",
"[@	c #FCBA00",
"}@	c #F6BC00",
"|@	c #E4B600",
"1@	c #D3A800",
"2@	c #BF9800",
"3@	c #AF8C00",
"4@	c #A58400",
"5@	c #997700",
"6@	c #5A523E",
"7@	c #5A5444",
"8@	c #524103",
"9@	c #D09124",
"0@	c #E5A12E",
"a@	c #E6A436",
"b@	c #E7A73E",
"c@	c #EAAD49",
"d@	c #BD9343",
"e@	c #B98732",
"f@	c #AD7D20",
"g@	c #B27E1F",
"h@	c #C78B23",
"i@	c #C38822",
"j@	c #BE8521",
"k@	c #BA8221",
"l@	c #B67F20",
"m@	c #B68123",
"n@	c #BF8E30",
"o@	c #C7902D",
"p@	c #CA8D23",
"q@	c #625224",
"r@	c #C1BA00",
"s@	c #FED000",
"t@	c #CFAF49",
"u@	c #4A2F00",
"v@	c #FDA000",
"w@	c #FEA200",
"x@	c #FEBB00",
"y@	c #FFCC00",
"z@	c #F2C30B",
"A@	c #B4A275",
"B@	c #E6D18C",
"C@	c #9D6D18",
"D@	c #C28822",
"E@	c #D49425",
"F@	c #E39E28",
"G@	c #E5A22F",
"H@	c #E6A536",
"I@	c #E7A539",
"J@	c #E8A83F",
"K@	c #E9B150",
"L@	c #B28839",
"M@	c #966D1D",
"N@	c #946A1A",
"O@	c #9D701B",
"P@	c #8F6716",
"Q@	c #A7781D",
"R@	c #A8802F",
"S@	c #BD9542",
"T@	c #BF9947",
"U@	c #BD9949",
"V@	c #B59244",
"W@	c #A38035",
"X@	c #906A22",
"Y@	c #CE9934",
"Z@	c #D69526",
"`@	c #B0B0B0",
" #	c #3B372D",
".#	c #CFBF60",
"+#	c #796926",
"@#	c #887C5C",
"##	c #686253",
"$#	c #241F15",
"%#	c #826025",
"&#	c #F5C05E",
"*#	c #FEC761",
"=#	c #F3B94C",
"-#	c #D9A73C",
";#	c #BFA361",
">#	c #BEAB79",
",#	c #9D7D00",
"'#	c #A0721B",
")#	c #C78C23",
"!#	c #E5A02A",
"~#	c #E6A332",
"{#	c #E7A537",
"]#	c #E7A538",
"^#	c #E7A63A",
"/#	c #D7A241",
"(#	c #A88336",
"_#	c #A07F39",
":#	c #8A641D",
"<#	c #855F17",
"[#	c #896217",
"}#	c #987121",
"|#	c #A58439",
"1#	c #B68D37",
"2#	c #E3B553",
"3#	c #EDBF5B",
"4#	c #F1C45F",
"5#	c #EDBE59",
"6#	c #D0A347",
"7#	c #AB7E2A",
"8#	c #DC9A27",
"9#	c #201F1F",
"0#	c #6D6758",
"a#	c #FFE7AD",
"b#	c #FFF2D7",
"c#	c #FEE6AC",
"d#	c #716751",
"e#	c #757574",
"f#	c #333232",
"g#	c #DAC0A1",
"h#	c #FFDCA8",
"i#	c #FEDC8E",
"j#	c #FFD26C",
"k#	c #FCDD97",
"l#	c #DDBE5B",
"m#	c #FDCB00",
"n#	c #9D7015",
"o#	c #D59625",
"p#	c #DA9827",
"q#	c #E19F2C",
"r#	c #CA9D3F",
"s#	c #C39D47",
"t#	c #997326",
"u#	c #A07F35",
"v#	c #A5853C",
"w#	c #A47E2E",
"x#	c #C79F43",
"y#	c #BF8821",
"z#	c #E09D28",
"A#	c #C08825",
"B#	c #C28F30",
"C#	c #E49C3B",
"D#	c #BE8E88",
"E#	c #D9C79A",
"F#	c #F3DDA5",
"G#	c #FDE5AB",
"H#	c #CAB88B",
"I#	c #CCB289",
"J#	c #FEA094",
"K#	c #FFC77B",
"L#	c #FFD77C",
"M#	c #EEC464",
"N#	c #4B3F23",
"O#	c #BE9E2A",
"P#	c #E2B400",
"Q#	c #FECB00",
"R#	c #E5AE00",
"S#	c #DF910E",
"T#	c #E79610",
"U#	c #A06F19",
"V#	c #DF9C27",
"W#	c #B2801F",
"X#	c #AE8024",
"Y#	c #B38D3A",
"Z#	c #B49140",
"`#	c #B38629",
" $	c #DE9B28",
".$	c #B38125",
"+$	c #D9A035",
"@$	c #E19D28",
"#$	c #AD7C34",
"$$	c #C1AC7A",
"%$	c #FDE09B",
"&$	c #DFC892",
"*$	c #FDDE96",
"=$	c #FDDD93",
"-$	c #CEB06B",
";$	c #A78947",
">$	c #D2A74D",
",$	c #E9BA56",
"'$	c #A08458",
")$	c #231912",
"!$	c #886A14",
"~$	c #EDC02F",
"{$	c #F8C600",
"]$	c #F5B600",
"^$	c #AA6D00",
"/$	c #B37C1D",
"($	c #976D1B",
"_$	c #DC9A29",
":$	c #A87D2A",
"<$	c #E4A22E",
"[$	c #D99826",
"}$	c #C18621",
"|$	c #936619",
"1$	c #DF9B28",
"2$	c #2E2401",
"3$	c #B1916A",
"4$	c #614E32",
"5$	c #DBB691",
"6$	c #3A1C1C",
"7$	c #D9B48D",
"8$	c #D5B18C",
"9$	c #D3AE5A",
"0$	c #FEB000",
"a$	c #FD9F00",
"b$	c #9F6E18",
"c$	c #DA9928",
"d$	c #9E7628",
"e$	c #E39F28",
"f$	c #1D0303",
"g$	c #542D22",
"h$	c #391B12",
"i$	c #6E5A47",
"j$	c #462A24",
"k$	c #937A62",
"l$	c #D8BC9F",
"m$	c #C0A88F",
"n$	c #EE9806",
"o$	c #FC9E00",
"p$	c #A36905",
"q$	c #B8801E",
"r$	c #D69627",
"s$	c #A27624",
"t$	c #BD8320",
"u$	c #83674E",
"v$	c #321713",
"w$	c #320706",
"x$	c #1A0606",
"y$	c #AA8D6F",
"z$	c #907E57",
"A$	c #908263",
"B$	c #A46A04",
"C$	c #7A5411",
"D$	c #DD9A27",
"E$	c #B07C21",
"F$	c #A57722",
"G$	c #553909",
"H$	c #38271E",
"I$	c #090404",
"J$	c #100606",
"K$	c #361818",
"L$	c #DAB35E",
"M$	c #FDE2A3",
"N$	c #C4A87D",
"O$	c #D39325",
"P$	c #DB9926",
"Q$	c #DB9927",
"R$	c #AC7B23",
"S$	c #BB9442",
"T$	c #C2963D",
"U$	c #C58A23",
"V$	c #4A3107",
"W$	c #2D1717",
"X$	c #472424",
"Y$	c #251212",
"Z$	c #56312D",
"`$	c #FFE7AE",
" %	c #956A53",
".%	c #9F6C19",
"+%	c #AF7C1E",
"@%	c #CA8E23",
"#%	c #BD8721",
"$%	c #D39425",
"%%	c #A67823",
"&%	c #C29943",
"*%	c #DAA43C",
"=%	c #D6A136",
"-%	c #C3912E",
";%	c #C68E28",
">%	c #D69824",
",%	c #D79824",
"'%	c #DC9B26",
")%	c #2C1C03",
"!%	c #251313",
"~%	c #592E2D",
"{%	c #571E1A",
"]%	c #BB8420",
"^%	c #D09224",
"/%	c #A1731B",
"(%	c #A57926",
"_%	c #BC953E",
":%	c #D2A036",
"<%	c #D29725",
"[%	c #D09624",
"}%	c #CB962A",
"|%	c #C18F28",
"1%	c #C7932A",
"2%	c #CB9322",
"3%	c #CC9322",
"4%	c #CF9523",
"5%	c #D39724",
"6%	c #1B1715",
"7%	c #381B1B",
"8%	c #422121",
"9%	c #402121",
"0%	c #190C0C",
"a%	c #360000",
"b%	c #620000",
"c%	c #350505",
"d%	c #9D6C1D",
"e%	c #825C16",
"f%	c #87611B",
"g%	c #A38136",
"h%	c #C0963B",
"i%	c #CF9C30",
"j%	c #CA9324",
"k%	c #C89326",
"l%	c #CA9322",
"m%	c #CE9422",
"n%	c #D29623",
"o%	c #D59824",
"p%	c #DB9B25",
"q%	c #E19E27",
"r%	c #CD8F24",
"s%	c #4A3418",
"t%	c #231212",
"u%	c #4B2828",
"v%	c #462424",
"w%	c #341313",
"x%	c #3F1C1C",
"y%	c #2F1D1C",
"z%	c #A6731E",
"A%	c #BA9B4D",
"B%	c #B28E3E",
"C%	c #AC8432",
"D%	c #BC9034",
"E%	c #CE9A2C",
"F%	c #8D6526",
"G%	c #502929",
"H%	c #422525",
"I%	c #522A2A",
"J%	c #3A2121",
"K%	c #554535",
"L%	c #F5DFA7",
"M%	c #B5822F",
"N%	c #AB8532",
"O%	c #B68A2E",
"P%	c #B28427",
"Q%	c #BC8923",
"R%	c #936816",
"S%	c #402B25",
"T%	c #745A48",
"U%	c #392A20",
"V%	c #8D6218",
"W%	c #A8792A",
"X%	c #F9D88B",
"Y%	c #D5B474",
"Z%	c #E29E27",
"`%	c #DE9C27",
" &	c #DB9A25",
".&	c #D69724",
"+&	c #B17F1E",
"@&	c #B9851F",
"#&	c #9F7D42",
"$&	c #FCE5AB",
"%&	c #FEE2A3",
"&&	c #968458",
"*&	c #AA7A1C",
"=&	c #D39623",
"-&	c #A9834A",
";&	c #FCE4AC",
">&	c #ECD49D",
",&	c #67441F",
"'&	c #D59426",
")&	c #DF9C26",
"!&	c #DB9A26",
"~&	c #D59724",
"{&	c #D39723",
"]&	c #D19623",
"^&	c #D09523",
"/&	c #CD9422",
"(&	c #CD9322",
"_&	c #B07E1E",
":&	c #C2A67E",
"<&	c #FEE4A8",
"[&	c #6E6757",
"}&	c #B5ADA4",
"|&	c #BE8B2D",
"1&	c #F6E1B3",
"2&	c #695040",
"3&	c #512928",
"4&	c #543911",
"5&	c #94723E",
"6&	c #AE9371",
"7&	c #62463A",
"8&	c #48291F",
"9&	c #B28226",
"0&	c #BB871E",
"a&	c #C48D20",
"b&	c #8A6322",
"c&	c #502928",
"d&	c #3F2020",
"e&	c #3E1F1F",
"f&	c #7D571A",
"g&	c #A6771C",
"h&	c #C58E21",
"i&	c #C69021",
"j&	c #C79021",
"k&	c #C89121",
"l&	c #C99121",
"m&	c #CA9222",
"n&	c #B6841D",
"o&	c #B1801E",
"p&	c #C99122",
"q&	c #C58F21",
"r&	c #BF8A1F",
"s&	c #B6841E",
"t&	c #A47619",
"u&	c #4F2828",
"v&	c #341919",
"w&	c #886214",
"x&	c #866013",
"y&	c #876113",
"z&	c #694A0E",
"A&	c #3A231F",
"B&	c #512B29",
"C&	c #512929",
"D&	c #442221",
"E&	c #7F5C13",
"F&	c #976D17",
"G&	c #9A6F17",
"H&	c #996E17",
"I&	c #AE7E1C",
"J&	c #B5831D",
"K&	c #BC881F",
"L&	c #C28C20",
"M&	c #AF7D1E",
"N&	c #B4811E",
"O&	c #C89021",
"P&	c #B7841E",
"Q&	c #B17F1D",
"R&	c #A97A1A",
"S&	c #8D6615",
"T&	c #73510E",
"U&	c #573D08",
"V&	c #412D05",
"W&	c #251608",
"X&	c #351A1A",
"Y&	c #412020",
"Z&	c #3E1E1D",
"`&	c #140B04",
" *	c #120A01",
".*	c #100800",
"+*	c #23100C",
"@*	c #502828",
"#*	c #1C0D07",
"$*	c #1D1201",
"%*	c #211602",
"&*	c #271902",
"**	c #261902",
"=*	c #3A2704",
"-*	c #4E3707",
";*	c #61450B",
">*	c #76540F",
",*	c #8A6314",
"'*	c #9B6F17",
")*	c #976C18",
"!*	c #9F731B",
"~*	c #8F6818",
"{*	c #956C1A",
"]*	c #AE7D1E",
"^*	c #CA9221",
"/*	c #C68F21",
"(*	c #B1801C",
"_*	c #936916",
":*	c #6E4E0E",
"<*	c #493206",
"[*	c #241702",
"}*	c #0E0700",
"|*	c #030100",
"1*	c #2A1212",
"2*	c #4B2525",
"3*	c #532A2A",
"4*	c #2D1616",
"5*	c #000000",
"6*	c #512626",
"7*	c #5C2E2E",
"8*	c #221111",
"9*	c #010100",
"0*	c #050200",
"a*	c #100801",
"b*	c #211502",
"c*	c #3B2904",
"d*	c #503808",
"e*	c #65480D",
"f*	c #7E5A13",
"g*	c #8D6617",
"h*	c #805B14",
"i*	c #926919",
"j*	c #B8851E",
"k*	c #A17419",
"l*	c #77550F",
"m*	c #473105",
"n*	c #1F1401",
"o*	c #070300",
"p*	c #010000",
"q*	c #070303",
"r*	c #603030",
"s*	c #4D2727",
"t*	c #321818",
"u*	c #5A2D2D",
"v*	c #2C1515",
"w*	c #090400",
"x*	c #1A1001",
"y*	c #352304",
"z*	c #573D0A",
"A*	c #715010",
"B*	c #694B0E",
"C*	c #8D6717",
"D*	c #AD7C1E",
"E*	c #B9851E",
"F*	c #BB871F",
"G*	c #9F7318",
"H*	c #7C5810",
"I*	c #4A3306",
"J*	c #1C1101",
"K*	c #040200",
"L*	c #592C2C",
"M*	c #572C2C",
"N*	c #1E0D0D",
"O*	c #0A0404",
"P*	c #432222",
"Q*	c #060202",
"R*	c #180E01",
"S*	c #382604",
"T*	c #533A09",
"U*	c #473307",
"V*	c #986D1A",
"W*	c #C08A20",
"X*	c #CA9122",
"Y*	c #986D17",
"Z*	c #6D4D0D",
"`*	c #3A2804",
" =	c #130A01",
".=	c #020100",
"+=	c #2D1515",
"@=	c #1B0B0B",
"#=	c #2E1616",
"$=	c #100901",
"%=	c #2D1D03",
"&=	c #422E05",
"*=	c #211401",
"==	c #8F6518",
"-=	c #9F721B",
";=	c #AF7E1E",
">=	c #A4751B",
",=	c #8D6416",
"'=	c #704F0F",
")=	c #463006",
"!=	c #1F1301",
"~=	c #060300",
"{=	c #170D01",
"]=	c #2E1E03",
"^=	c #2D1E03",
"/=	c #0B0300",
"(=	c #8F6717",
"_=	c #9D711B",
":=	c #AB7B1D",
"<=	c #8D6517",
"[=	c #6E4E0F",
"}=	c #4B3407",
"|=	c #2B1C02",
"1=	c #130B01",
"2=	c #080400",
"3=	c #190F01",
"4=	c #2B1C03",
"5=	c #2F1F03",
"6=	c #130700",
"7=	c #906717",
"8=	c #946A19",
"9=	c #A5771D",
"0=	c #A1741C",
"a=	c #976D19",
"b=	c #845F15",
"c=	c #705010",
"d=	c #593F0B",
"e=	c #3F2B05",
"f=	c #2B1D03",
"g=	c #1C1201",
"h=	c #040300",
"i=	c #0C0600",
"j=	c #140B01",
"k=	c #3A2604",
"l=	c #332203",
"m=	c #170900",
"n=	c #93681A",
"o=	c #92671A",
"p=	c #8F6519",
"q=	c #8A6118",
"r=	c #7F5915",
"s=	c #735012",
"t=	c #66470F",
"u=	c #573C0B",
"v=	c #4A3208",
"w=	c #402B06",
"x=	c #382605",
"y=	c #302004",
"z=	c #312004",
"A=	c #2F1E03",
"B=	c #301F04",
"C=	c #2F1E02",
"D=	c #291B03",
"E=	c #291A03",
"F=	c #2C1D03",
"G=	c #302003",
"H=	c #3B2805",
"I=	c #3C2904",
"                                                                                                    ",
"        . + @ # $ $ $ $ $ $ $ $ $ $ $ $ $ $ $ $ $ $ $ $ $ $ $ % & * $ $ $ $ $ $ $ $ = - ; >         ",
"    , ' ) ! ! ! ! ! ! ! ! ! ! ! ! ! ! ! ! ! ! ! ! ! ! ! ! ! ~ { ] ! ! ! ! ! ! ! ! ! ! ! ! ^ /       ",
"  ( _ ! ! ! ! : < [ [ [ [ [ [ [ [ [ [ [ [ [ [ [ [ [ [ [ [ [ } } [ [ [ [ [ [ [ [ [ | 1 ! ! ! 2 /     ",
"  3 ! ! ! 1 4 5 6 7 8 8 8 8 8 8 8 8 8 8 8 8 8 8 8 8 8 8 8 8 8 8 8 8 8 8 8 8 8 8 9 0 a b ! ! ! c d   ",
"e f ! ! 1 g 7 h i j k k k k k k k k k k k k k k k k k k k k k k k k k k k k k k l m n o p ! ! ! +   ",
"q ! ! r s t u v v v v v v v v v v v v v v v v v v v v v v v v v v v v v v v v v v v v w x y ! ! z   ",
"A ! ! B C D v v v v v v v v v v v E F G H I J K L v v v v v v v v v v v v v v v v v v v M N | ! O P ",
"Q ! ! R S v v v v T T T v v v v K U V W X Y Z `  ...+.v v v v v v v v v v v v v v v v v v @.#.! 2 $.",
"Q ! ! %.v v v v T &.*.=.v v v L -.;.>.,.X X X X X '.).v v v v v v v v v v v v v v v v v v !.#.! 2 $.",
"Q ! ! ~.v v v v T {.].^.v v v /.(.(.V X X X X X X X _.:.v <.[.T v v v v v v v }.T v v v v |.1.! 2 $.",
"Q ! ! 2.v v v v T 3.4.5.v v 6._.7.8.9.X X X X X X X X 0.a.b.c.}.v v v v v v v d.e.v v v v f.1.! 2 $.",
"Q ! ! 2.v v v v v v v v v J g.'.h.i.X X X X X X X X X j.k.l.m.}.v v v v v v v v v v v v v f.1.! 2 $.",
"Q ! ! 2.v v v v v v v v v n.h.X X X X X X X X X X X X X o.v v v v v v v v v v v v v v v v p.q.# r.s.",
"Q ! ! 2.v v v v v v v v v t.X X X X X X X X X u.v.w.x.X y.v v v v v v v v v v v v v v v }.z.A.B.C.D.",
"Q ! ! 2.T }.E.v v n.F.G.H.I.u.J.x.K.L.L.L.L.L.M.N.O.P.X Q.t.}.v v v v v v v v v v v v T R.S.T.U.V.W.",
"Q ! ! 2.T X.Y.v v E Z.`.`. +.+++@+#+$+%+&+*+=+-+X X X X X ;+>+,+'+v v v v v v v v v T )+!+~+{+]+^+/+",
"Q ! ! 2.v v v v v v (+_+`.:+<+<+<+<+<+<+<+[+}+|+X X X X X X X X 1+n.v v v T E E.2+3+4+5+6+7+1.! 2 $.",
"Q ! ! 2.v v 8+T T 9+0+a+b+c+d+d+e+e+e+f+g+h+'.X X X X X X X X X K.i+v v v j+k+l+m+n+o+p+q+r+1.! 2 $.",
"Q ! ! 2.T 9+s+t+u+v+w+x+y+z+A+B+C+D+E+F+h.L.L.L.L.L.L.L.L.L.L.J.G+H+v v v v I+J+K+L+M+N+O+P+1.! 2 $.",
"Q ! ! Q+u+v+w+R+R+R+S+T+U+V+W+X+Y+Z+`+ @.@`++@@@@@#@$@$@#@%@&@*@=@-@T T v v v v v v v ;@>@,@'@! 2 $.",
"Q ! ! )@R+R+R+R+R+!@~@{@]@^@/@(@_@:@<@[@}@|@1@2@3@4@5@6@7@8@9@R+0@a@u+b@9+v v v v v v c@d@e@f@! 2 $.",
"Q ! ! g@h@i@j@k@l@m@n@o@R+R+p@q@r@s@t@u@v@w@w@x@y@y@y@z@A@B@C@D@E@F@R+G@H@I@J@T v v v v K@L@M@N@O@P@",
"Q Q@N@R@S@T@U@V@W@X@Y@R+R+R+Z@`@ #.#+#@###$#%#&#*#*#=#-#;#>#,#'#)#!@R+R+R+!#~#{#]#]#]#]#^#/#(#_#:#<#",
"[#}#|#1#2#3#4#5#6#7#R+R+R+R+8#9#0#a#b#c#d#e#f#g#h#a#i#j#k#l#m#n#o#F@p#R+R+R+R+R+R+R+R+R+!#q#r#s#t#u#",
"v#w#x#y#R+R+R+z#A#B#R+R+R+R+C#D#E#c#a#F#G#H#I#J#K#L#M#N#O#P#Q#R#S#T#U#R+R+R+R+R+R+R+R+R+R+V#W#! X#Y#",
"Z#`#! )@R+R+R+ $.$+$R+R+R+R+@$#$$$%$&$*$=$-$;$>$,$'$)$!$~${$y@Q#]$^$/$R+R+R+R+R+R+R+R+R+R+V#W#! 2 $.",
"($! ! )@R+R+R+_$:$<$R+R+R+R+z#E@[$}$|$j@8#1$2$3$4$5$6$7$8$9$Q#0$a$a$b$R+R+R+R+R+R+R+R+R+R+V#W#! 2 $.",
"Q ! ! )@R+R+S+c$d$R+R+R+R+R+S+e$S+R+R+R+R+R+f$g$h$i$j$k$l$m$n$o$p$q$R+R+R+R+R+R+R+R+R+R+R+V#W#! 2 $.",
"Q ! ! )@R+R+S+r$s$R+R+R+R+R+R+R+R+R+R+R+R+R+t$u$v$w$x$y$z$A$B$C$Z@R+R+R+R+R+R+R+R+R+R+R+R+V#W#! 2 $.",
"Q ! ! )@R+S+D$E$F$R+R+R+R+R+R+R+R+R+R+R+R+R+G$H$I$J$K$L$M$N$O$^@R+R+R+R+R+R+R+P$@$R+R+R+R+V#W#! 2 $.",
"Q ! ! )@S+Q$R$S$T$U$R+R+R+R+R+R+R+R+R+R+R+R+V$W$`+X$Y$Z$`$ %.%R+R+R+R+R+R+R+9@+%@%!@R+R+R+V#W#! 2 $.",
"Q ! ! #%$%%%&%*%=%-%;%>%>%,%'%e$R+R+R+R+R+R+)%b+.@@@!%~%{%f+e+Q$R+R+R+R+R+R+Z@]%^%!@R+R+R+V#W#! 2 $.",
"Q ) /%- (%_%:%<%[%}%|%1%2%3%4%5%,%'%!@R+R+!@6%7%8%W$9%0%a%b%c%d%R+R+R+R+R+R+F@8#@$S+R+R+R+V#W#! 2 $.",
"e%<#f%g%h%i%2%2%2%2%j%k%l%2%2%2%3%m%n%o%p%q%r%s%t%X$u%v%w%x%y%z%R+R+R+R+R+R+R+R+R+R+R+R+R+V#W#! 2 $.",
"A%B%C%D%E%2%2%2%2%2%l%l%l%2%2%2%2%2%2%3%m%n%o%F%P.G%H%I%J%K%L%M%R+R+R+R+R+R+R+R+R+R+R+R+R+V#W#! 2 $.",
"N%O%P%Q%2%2%2%2%2%2%2%2%2%2%2%2%2%2%2%2%2%2%2%R%S%T%U%V%W%X%G#Y%^@R+R+R+R+R+R+R+R+R+Z%`% &.&+&! 2 $.",
"Q ! ! @&2%2%2%2%2%2%2%2%2%2%2%2%2%2%2%2%2%2%2%#&$&%&&&*&=&-&;&>&,&'&R+Z%)&!&,%~&{&]&^&4%/&(&_&! 2 $.",
"Q ! ! @&2%2%2%2%2%2%2%2%2%2%2%2%2%2%2%2%2%2%2%:&c#<&[&}&2%|&1&2&3&4&]&^&4%m%(&3%2%2%2%2%2%2%_&! 2 $.",
"Q ! ! @&2%2%2%2%2%2%2%2%2%2%2%2%2%2%2%2%2%2%l%5&6&7&8&9&0&a&b&c&d&e&f&g&h&i&j&k&l&m&m&2%2%2%_&! 2 $.",
"Q ! ! @&2%2%2%2%2%2%2%j&n&o&2%2%2%2%2%p&q&r&s&t&u&G%v&w&x&y&x&z&A&B&C&D&E&F&G&H&t&I&J&K&L&i&M&! 2 $.",
"Q ! ! N&2%2%2%2%2%2%2%O&P&Q&2%l%l&h&0&R&S&T&U&V&W&X&Y&Z&`& *.*+*@*C&X$#*$*%*&***=*-*;*>*,*'*)*!*# ~*",
"{*! ! ]*j&2%2%2%2%2%2%^*j&/*l&L&(*_*:*<*[*}*|*1*2*3*I%C&4*5*5*6*7*u&8*5*5*5*5*5*9*0*a*b*c*d*e*f*g*h*",
"i*! ! ! P&2%2%2%2%2%2%2%2%j&j*k*l*m*n*o*p*5*q*K.r*I%s*#@t*5*5*K.u*v*5*5*5*5*5*5*5*5*5*p*w*x*y*z*A*B*",
"C*c ! ! D*E*2%2%2%2%2%2%l&F*G*H*I*J*K*5*5*5*L*M*@@t*N*O*5*5*5*L*P*Q*5*5*5*5*5*5*5*5*5*5*5*0*R*S*T*U*",
"  V*! ! ! D*N&W*X*2%2%2%j&P&Y*Z*`* =.=5*5*5*+=@=p*5*5*5*5*5*5*#=q*5*5*5*5*5*5*5*5*5*5*5*5*.=$=%=&=*=",
"  ==-=! ! ! ! ]*;=_&_&_&]*>=,='=)=!=~=p*5*5*5*5*5*5*5*5*5*5*5*5*5*5*5*5*5*5*5*5*5*5*5*5*5*0*{=]=^=/=",
"    (=_=:=! ! ! ! ! ! ! ! ) -=<=[=}=|=1=K*p*5*5*5*5*5*5*5*5*5*5*5*5*5*5*5*5*5*5*5*5*5*9*2=3=4=5=6=  ",
"      7=8=- # O O O O O O O 9=0=a=b=c=d=e=f=g=a*w*0*K*|*|*.=.=.=9*.=|*.=.=.=|*h=~=i=j=b*%=k=l=m=    ",
"              n=n=n=n=n=n=n=n=n=o=p=q=r=s=t=u=v=w=x=y*y=z=A=B=C=D=E=A=F=F=)%F=]=G=y*H=V&I=          "};
