/* XPM */
static char * LGrun0_xpm[] = {
"50 50 904 2",
"  	c None",
". 	c #906719",
"+ 	c #996E1A",
"@ 	c #A0741B",
"# 	c #A3751C",
"$ 	c #A4751C",
"% 	c #996D1A",
"& 	c #936919",
"* 	c #9E701A",
"= 	c #A2751C",
"- 	c #9E711B",
"; 	c #966C19",
"> 	c #8F6618",
", 	c #8F6719",
"' 	c #9A6E1A",
") 	c #AA7A1D",
"! 	c #AC7C1E",
"~ 	c #A6781C",
"{ 	c #A1741B",
"] 	c #A7791C",
"^ 	c #A5761C",
"/ 	c #956A19",
"( 	c #8D6518",
"_ 	c #9C701B",
": 	c #AE7E20",
"< 	c #B08022",
"[ 	c #B08123",
"} 	c #AF8023",
"| 	c #AF7F21",
"1 	c #AD7D1F",
"2 	c #A8791D",
"3 	c #966B19",
"4 	c #B6882A",
"5 	c #D1A649",
"6 	c #EDC76A",
"7 	c #F5D177",
"8 	c #F6D378",
"9 	c #F4CF74",
"0 	c #E2BA5E",
"a 	c #C79A3D",
"b 	c #B28325",
"c 	c #A5771C",
"d 	c #926819",
"e 	c #8E6518",
"f 	c #A4761C",
"g 	c #C29437",
"h 	c #F5CD71",
"i 	c #F0BD5E",
"j 	c #EDB655",
"k 	c #EDB654",
"l 	c #EEB857",
"m 	c #F1C364",
"n 	c #F6D379",
"o 	c #E3BC60",
"p 	c #B7882A",
"q 	c #916818",
"r 	c #AC7D1F",
"s 	c #BE9132",
"t 	c #F5CF74",
"u 	c #ECB351",
"v 	c #E9AA45",
"w 	c #F0C061",
"x 	c #E3BA5D",
"y 	c #B58628",
"z 	c #A2741C",
"A 	c #956B1A",
"B 	c #B18123",
"C 	c #E8BD5F",
"D 	c #EAAE4B",
"E 	c #E8A945",
"F 	c #B98636",
"G 	c #996B32",
"H 	c #CC943C",
"I 	c #EFBE5F",
"J 	c #CD9E3F",
"K 	c #A6781D",
"L 	c #916618",
"M 	c #966C1A",
"N 	c #BC8B2C",
"O 	c #EFBC5B",
"P 	c #E8A944",
"Q 	c #DA9F40",
"R 	c #785229",
"S 	c #793E3E",
"T 	c #673333",
"U 	c #633231",
"V 	c #A97933",
"W 	c #B58237",
"X 	c #B28036",
"Y 	c #CD953D",
"Z 	c #E6A844",
"` 	c #E4B453",
" .	c #B38324",
"..	c #916918",
"+.	c #C59434",
"@.	c #E5A742",
"#.	c #D89D3C",
"$.	c #DDA13F",
"%.	c #DCA041",
"&.	c #69402D",
"*.	c #894746",
"=.	c #844343",
"-.	c #663333",
";.	c #683434",
">.	c #6C3834",
",.	c #624321",
"'.	c #E7A844",
").	c #EBB24F",
"!.	c #C48F2D",
"~.	c #D59B3A",
"{.	c #986E1D",
"].	c #B07F28",
"^.	c #7C5230",
"/.	c #894747",
"(.	c #7A3E3E",
"_.	c #6C3636",
":.	c #92672E",
"<.	c #E3A642",
"[.	c #E4A642",
"}.	c #E8AB45",
"|.	c #B38122",
"1.	c #C38C2A",
"2.	c #D89E3D",
"3.	c #A97B26",
"4.	c #BC882E",
"5.	c #996E2D",
"6.	c #874646",
"7.	c #884646",
"8.	c #874545",
"9.	c #723939",
"0.	c #5C2E2E",
"a.	c #E5A744",
"b.	c #CB9335",
"c.	c #CF9638",
"d.	c #E2A541",
"e.	c #E6A843",
"f.	c #E7A841",
"g.	c #D69C3F",
"h.	c #613131",
"i.	c #6D3737",
"j.	c #6E3737",
"k.	c #6D3636",
"l.	c #74531E",
"m.	c #CC9436",
"n.	c #D09738",
"o.	c #B58236",
"p.	c #693E2E",
"q.	c #E2A43F",
"r.	c #AB7B20",
"s.	c #A0731B",
"t.	c #8C6416",
"u.	c #8B612D",
"v.	c #744334",
"w.	c #C28D34",
"x.	c #8E661D",
"y.	c #88611A",
"z.	c #866119",
"A.	c #805D19",
"B.	c #E5A743",
"C.	c #A2752E",
"D.	c #C9923A",
"E.	c #44241F",
"F.	c #5E2E2E",
"G.	c #643232",
"H.	c #492424",
"I.	c #3E1F1F",
"J.	c #6A3E2F",
"K.	c #D0963A",
"L.	c #99732A",
"M.	c #94722B",
"N.	c #95722C",
"O.	c #94722C",
"P.	c #93702C",
"Q.	c #E5A642",
"R.	c #DFA340",
"S.	c #513719",
"T.	c #391C1C",
"U.	c #2D1815",
"V.	c #725120",
"W.	c #3C1313",
"X.	c #592020",
"Y.	c #5B2121",
"Z.	c #5D2323",
"`.	c #5D2424",
" +	c #5A2424",
".+	c #592626",
"++	c #572727",
"@+	c #562828",
"#+	c #412020",
"$+	c #3D231A",
"%+	c #BF8A39",
"&+	c #D89D3F",
"*+	c #D59B3C",
"=+	c #9F762C",
"-+	c #C89D49",
";+	c #C59B40",
">+	c #C49A3F",
",+	c #C0983E",
"'+	c #B38C3A",
")+	c #B88635",
"!+	c #3D1F1F",
"~+	c #422222",
"{+	c #3A1D1D",
"]+	c #500000",
"^+	c #690000",
"/+	c #660000",
"(+	c #610000",
"_+	c #5E0000",
":+	c #590000",
"<+	c #510000",
"[+	c #582B2B",
"}+	c #693A33",
"|+	c #91662D",
"1+	c #E1A441",
"2+	c #DB9F3E",
"3+	c #D2983A",
"4+	c #A5782A",
"5+	c #B99142",
"6+	c #E3A845",
"7+	c #E9A944",
"8+	c #E6A842",
"9+	c #6A4822",
"0+	c #301818",
"a+	c #361B1B",
"b+	c #580000",
"c+	c #650000",
"d+	c #490101",
"e+	c #805A27",
"f+	c #E7A944",
"g+	c #E4A947",
"h+	c #E1A949",
"i+	c #D6A448",
"j+	c #C49641",
"k+	c #AB8234",
"l+	c #8C6926",
"m+	c #DCA749",
"n+	c #E7A942",
"o+	c #E8A943",
"p+	c #E8A73E",
"q+	c #E7A53A",
"r+	c #E6A539",
"s+	c #E6A537",
"t+	c #BF8626",
"u+	c #61332E",
"v+	c #2B1714",
"w+	c #4D0000",
"x+	c #5A0000",
"y+	c #5C0000",
"z+	c #590303",
"A+	c #1D0D0D",
"B+	c #6F3737",
"C+	c #653232",
"D+	c #7D4F32",
"E+	c #E4A643",
"F+	c #EAB04C",
"G+	c #EAB555",
"H+	c #E5B65A",
"I+	c #DCB058",
"J+	c #CFA44F",
"K+	c #9B762F",
"L+	c #C48F36",
"M+	c #E3A53F",
"N+	c #C18A27",
"O+	c #E6A230",
"P+	c #E5A029",
"Q+	c #E49F28",
"R+	c #C08622",
"S+	c #61401B",
"T+	c #3E1F1D",
"U+	c #672C2C",
"V+	c #692D2D",
"W+	c #5C2929",
"X+	c #341919",
"Y+	c #4F2828",
"Z+	c #4E2727",
"`+	c #4C2727",
" @	c #4D2727",
".@	c #512727",
"+@	c #552929",
"@@	c #572B2B",
"#@	c #5A2C2C",
"$@	c #5D2E2E",
"%@	c #522828",
"&@	c #4C2626",
"*@	c #6F4A23",
"=@	c #E5A641",
"-@	c #CE9E46",
";@	c #A57C2F",
">@	c #D79C3B",
",@	c #B28021",
"'@	c #BE8721",
")@	c #E29E28",
"!@	c #D69727",
"~@	c #C7902B",
"{@	c #CB922C",
"]@	c #B98E1B",
"^@	c #A4A400",
"/@	c #685A00",
"(@	c #5E4A00",
"_@	c #603C02",
":@	c #6C460A",
"<@	c #745210",
"[@	c #765313",
"}@	c #775313",
"|@	c #785414",
"1@	c #775314",
"2@	c #714E15",
"3@	c #452715",
"4@	c #2A1515",
"5@	c #593B15",
"6@	c #6E491C",
"7@	c #906121",
"8@	c #90631A",
"9@	c #DD9B2C",
"0@	c #E6A436",
"a@	c #E7A73E",
"b@	c #EAAD49",
"c@	c #BD9343",
"d@	c #B98732",
"e@	c #AD7D20",
"f@	c #B27E1F",
"g@	c #C78B23",
"h@	c #C38822",
"i@	c #BE8521",
"j@	c #BA8221",
"k@	c #B67F20",
"l@	c #B68123",
"m@	c #BF8E30",
"n@	c #C7902D",
"o@	c #D89726",
"p@	c #59522E",
"q@	c #F5ED00",
"r@	c #FECB00",
"s@	c #4E3900",
"t@	c #FBA000",
"u@	c #FEA200",
"v@	c #FEB700",
"w@	c #FFCC00",
"x@	c #FDCA00",
"y@	c #F4CE46",
"z@	c #EFD9A4",
"A@	c #5D5644",
"B@	c #A17514",
"C@	c #D49425",
"D@	c #C28822",
"E@	c #E39E28",
"F@	c #E5A22F",
"G@	c #E6A536",
"H@	c #E7A539",
"I@	c #E8A83F",
"J@	c #E9B150",
"K@	c #B28839",
"L@	c #966D1D",
"M@	c #946A1A",
"N@	c #9D701B",
"O@	c #8F6716",
"P@	c #A7781D",
"Q@	c #A8802F",
"R@	c #BD9542",
"S@	c #BF9947",
"T@	c #BD9949",
"U@	c #B59244",
"V@	c #A38035",
"W@	c #906A22",
"X@	c #CE9934",
"Y@	c #DB9927",
"Z@	c #8F805E",
"`@	c #49473C",
" #	c #9F941E",
".#	c #D3BB01",
"+#	c #C2AC6C",
"@#	c #B5944F",
"##	c #875E18",
"$#	c #875B0E",
"%#	c #C47D00",
"&#	c #F6A500",
"*#	c #FBB100",
"=#	c #F0AC00",
"-#	c #A57C00",
";#	c #50431C",
">#	c #F9E6B7",
",#	c #A58402",
"'#	c #C58A21",
")#	c #A9781D",
"!#	c #C78C23",
"~#	c #E5A02A",
"{#	c #E6A332",
"]#	c #E7A537",
"^#	c #E7A538",
"/#	c #E7A63A",
"(#	c #D7A241",
"_#	c #A88336",
":#	c #A07F39",
"<#	c #8A641D",
"[#	c #855F17",
"}#	c #896217",
"|#	c #987121",
"1#	c #A58439",
"2#	c #B68D37",
"3#	c #E3B553",
"4#	c #EDBF5B",
"5#	c #F1C45F",
"6#	c #EDBE59",
"7#	c #D0A347",
"8#	c #AB7E2A",
"9#	c #DE9B27",
"0#	c #727272",
"a#	c #676665",
"b#	c #FFE7AD",
"c#	c #FEE9B8",
"d#	c #B1A079",
"e#	c #E4D0A0",
"f#	c #505050",
"g#	c #191919",
"h#	c #C0BEBB",
"i#	c #FFE6AC",
"j#	c #F7E0A8",
"k#	c #FFD26B",
"l#	c #FFD36F",
"m#	c #E8D29D",
"n#	c #DBAF00",
"o#	c #4B3B01",
"p#	c #CC8F23",
"q#	c #DA9926",
"r#	c #D69525",
"s#	c #E19F2C",
"t#	c #CA9D3F",
"u#	c #C39D47",
"v#	c #997326",
"w#	c #A07F35",
"x#	c #A5853C",
"y#	c #A47E2E",
"z#	c #C79F43",
"A#	c #BF8821",
"B#	c #E09D28",
"C#	c #C08825",
"D#	c #C28F30",
"E#	c #E19D28",
"F#	c #6D544A",
"G#	c #504D46",
"H#	c #FFE7AF",
"I#	c #F6DFA7",
"J#	c #AC9F83",
"K#	c #463430",
"L#	c #C97770",
"M#	c #FFB29B",
"N#	c #FFD984",
"O#	c #FDD477",
"P#	c #F7DA96",
"Q#	c #9C8225",
"R#	c #FCC900",
"S#	c #CB970D",
"T#	c #9F6D13",
"U#	c #724C06",
"V#	c #E49F29",
"W#	c #DF9C27",
"X#	c #B2801F",
"Y#	c #AE8024",
"Z#	c #B38D3A",
"`#	c #B49140",
" $	c #B38629",
".$	c #DE9B28",
"+$	c #B38125",
"@$	c #D9A035",
"#$	c #E69F30",
"$$	c #EB9070",
"%$	c #E4C191",
"&$	c #FEE6AC",
"*$	c #F6DEA6",
"=$	c #DAC593",
"-$	c #FFE6AB",
";$	c #FEE099",
">$	c #FEDD93",
",$	c #FEBE7B",
"'$	c #E9BD65",
")$	c #AE904A",
"!$	c #A68946",
"~$	c #5C4A25",
"{$	c #BD9A38",
"]$	c #54441A",
"^$	c #D6B029",
"/$	c #F9C700",
"($	c #FEC800",
"_$	c #DBA000",
":$	c #503504",
"<$	c #DD9A27",
"[$	c #976D1B",
"}$	c #DC9A29",
"|$	c #A87D2A",
"1$	c #E4A22E",
"2$	c #AA761C",
"3$	c #7A6536",
"4$	c #FDD272",
"5$	c #F5CB6C",
"6$	c #987E42",
"7$	c #261F0F",
"8$	c #4E3D05",
"9$	c #79644E",
"0$	c #E7A72A",
"a$	c #DAB590",
"b$	c #563831",
"c$	c #855841",
"d$	c #D0AD8A",
"e$	c #A69079",
"f$	c #DFC4A9",
"g$	c #7B640B",
"h$	c #FEB000",
"i$	c #FC9E00",
"j$	c #EC9500",
"k$	c #DC9A27",
"l$	c #DA9928",
"m$	c #9E7628",
"n$	c #E39F28",
"o$	c #B57D1E",
"p$	c #836650",
"q$	c #574629",
"r$	c #BE976F",
"s$	c #643E38",
"t$	c #37231A",
"u$	c #1C1612",
"v$	c #A28A74",
"w$	c #AC9A71",
"x$	c #B09F73",
"y$	c #FB9E00",
"z$	c #A36907",
"A$	c #D29224",
"B$	c #D69627",
"C$	c #A27624",
"D$	c #C88F39",
"E$	c #412221",
"F$	c #4F1D18",
"G$	c #451A15",
"H$	c #381413",
"I$	c #2A1414",
"J$	c #1B110F",
"K$	c #524231",
"L$	c #FDD886",
"M$	c #996B1D",
"N$	c #B07C21",
"O$	c #A57722",
"P$	c #3D1E1E",
"Q$	c #91735D",
"R$	c #6C4C40",
"S$	c #8B6A55",
"T$	c #1E0303",
"U$	c #410303",
"V$	c #342118",
"W$	c #847255",
"X$	c #D3932A",
"Y$	c #DB9926",
"Z$	c #AC7B23",
"`$	c #BB9442",
" %	c #C2963D",
".%	c #C58A23",
"+%	c #DA9827",
"@%	c #371E1D",
"#%	c #C5A081",
"$%	c #A28369",
"%%	c #261312",
"&%	c #0B0505",
"*%	c #331919",
"=%	c #502828",
"-%	c #816C62",
";%	c #D09124",
">%	c #AF7C1E",
",%	c #CA8E23",
"'%	c #BD8721",
")%	c #D39425",
"!%	c #A67823",
"~%	c #C29943",
"{%	c #DAA43C",
"]%	c #D6A136",
"^%	c #C3912E",
"/%	c #C68E28",
"(%	c #D69824",
"_%	c #D79824",
":%	c #DC9B26",
"<%	c #9F6E1A",
"[%	c #341B1B",
"}%	c #3D2923",
"|%	c #927641",
"1%	c #76674D",
"2%	c #452323",
"3%	c #482424",
"4%	c #221010",
"5%	c #2B0606",
"6%	c #DA9826",
"7%	c #D69526",
"8%	c #BB8420",
"9%	c #D09224",
"0%	c #A1731B",
"a%	c #A57926",
"b%	c #BC953E",
"c%	c #D2A036",
"d%	c #D29725",
"e%	c #D09624",
"f%	c #CB962A",
"g%	c #C18F28",
"h%	c #C7932A",
"i%	c #CB9322",
"j%	c #CC9322",
"k%	c #CF9523",
"l%	c #D39724",
"m%	c #D79626",
"n%	c #180D05",
"o%	c #251111",
"p%	c #2E1919",
"q%	c #241313",
"r%	c #1D0F0F",
"s%	c #472323",
"t%	c #361717",
"u%	c #361212",
"v%	c #6C4A16",
"w%	c #825C16",
"x%	c #87611B",
"y%	c #A38136",
"z%	c #C0963B",
"A%	c #CF9C30",
"B%	c #CA9324",
"C%	c #C89326",
"D%	c #CA9322",
"E%	c #CE9422",
"F%	c #D29623",
"G%	c #D59824",
"H%	c #DB9B25",
"I%	c #B8832E",
"J%	c #DFBF74",
"K%	c #331A1A",
"L%	c #492525",
"M%	c #2C1515",
"N%	c #422121",
"O%	c #281818",
"P%	c #C58922",
"Q%	c #BA9B4D",
"R%	c #B28E3E",
"S%	c #AC8432",
"T%	c #BC9034",
"U%	c #CE9A2C",
"V%	c #9B6D1D",
"W%	c #242221",
"X%	c #321A1A",
"Y%	c #462323",
"Z%	c #221414",
"`%	c #62533F",
" &	c #C1AE82",
".&	c #E39F29",
"+&	c #AB8532",
"@&	c #B68A2E",
"#&	c #B28427",
"$&	c #BC8923",
"%&	c #A2772B",
"&&	c #3D2D20",
"*&	c #443E30",
"=&	c #482626",
"-&	c #3B1F1F",
";&	c #544034",
">&	c #3D2B1B",
",&	c #9D8248",
"'&	c #FEE5AA",
")&	c #CA8D24",
"!&	c #E29E27",
"~&	c #DE9C27",
"{&	c #DB9A25",
"]&	c #D69724",
"^&	c #B17F1E",
"/&	c #B9851F",
"(&	c #B2801E",
"_&	c #88631E",
":&	c #7E5A14",
"<&	c #D5BF8C",
"[&	c #FDE5AA",
"}&	c #DBB766",
"|&	c #2F2417",
"1&	c #F5DDA3",
"2&	c #FDE5A9",
"3&	c #C78D2A",
"4&	c #DF9C26",
"5&	c #DB9A26",
"6&	c #D59724",
"7&	c #D39723",
"8&	c #D19623",
"9&	c #D09523",
"0&	c #CD9422",
"a&	c #CD9322",
"b&	c #B07E1E",
"c&	c #CA9222",
"d&	c #D8BF89",
"e&	c #FEE6AB",
"f&	c #F0D79E",
"g&	c #FDE5AD",
"h&	c #EDD7A0",
"i&	c #5E4028",
"j&	c #A47419",
"k&	c #C99222",
"l&	c #C89121",
"m&	c #BF8A1F",
"n&	c #E5CE9E",
"o&	c #DEC899",
"p&	c #542A2A",
"q&	c #665349",
"r&	c #4D2827",
"s&	c #23130E",
"t&	c #805B15",
"u&	c #C68F21",
"v&	c #C69021",
"w&	c #C79021",
"x&	c #C99121",
"y&	c #B6841D",
"z&	c #B1801E",
"A&	c #C99122",
"B&	c #C58F21",
"C&	c #B6841E",
"D&	c #AC7C1B",
"E&	c #A17419",
"F&	c #976D17",
"G&	c #896315",
"H&	c #3D2A08",
"I&	c #472623",
"J&	c #422120",
"K&	c #311818",
"L&	c #321E16",
"M&	c #7C5912",
"N&	c #8F6714",
"O&	c #906715",
"P&	c #946B16",
"Q&	c #9A6F17",
"R&	c #996E17",
"S&	c #A47619",
"T&	c #AE7E1C",
"U&	c #B5831D",
"V&	c #BC881F",
"W&	c #C28C20",
"X&	c #AF7D1E",
"Y&	c #B4811E",
"Z&	c #C89021",
"`&	c #B7841E",
" *	c #B17F1D",
".*	c #C58E21",
"+*	c #BB871E",
"@*	c #A97A1A",
"#*	c #8D6615",
"$*	c #73510E",
"%*	c #573D08",
"&*	c #412D05",
"**	c #2F1F02",
"=*	c #241702",
"-*	c #1A1001",
";*	c #150D01",
">*	c #311716",
",*	c #4E2626",
"'*	c #381F1E",
")*	c #4F2928",
"!*	c #1F0F0D",
"~*	c #160D01",
"{*	c #180F01",
"]*	c #1D1201",
"^*	c #211602",
"/*	c #271902",
"(*	c #261902",
"_*	c #3A2704",
":*	c #4E3707",
"<*	c #61450B",
"[*	c #76540F",
"}*	c #8A6314",
"|*	c #9B6F17",
"1*	c #976C18",
"2*	c #9F731B",
"3*	c #8F6818",
"4*	c #956C1A",
"5*	c #AE7D1E",
"6*	c #CA9221",
"7*	c #B1801C",
"8*	c #936916",
"9*	c #6E4E0E",
"0*	c #493206",
"a*	c #0E0700",
"b*	c #030100",
"c*	c #010000",
"d*	c #000000",
"e*	c #030101",
"f*	c #633131",
"g*	c #522A2A",
"h*	c #502929",
"i*	c #020101",
"j*	c #010100",
"k*	c #050200",
"l*	c #100801",
"m*	c #211502",
"n*	c #3B2904",
"o*	c #503808",
"p*	c #65480D",
"q*	c #7E5A13",
"r*	c #8D6617",
"s*	c #805B14",
"t*	c #926919",
"u*	c #B8851E",
"v*	c #77550F",
"w*	c #473105",
"x*	c #1F1401",
"y*	c #070300",
"z*	c #311717",
"A*	c #5F2E2E",
"B*	c #562B2B",
"C*	c #412121",
"D*	c #281313",
"E*	c #100606",
"F*	c #090400",
"G*	c #352304",
"H*	c #573D0A",
"I*	c #715010",
"J*	c #694B0E",
"K*	c #8D6717",
"L*	c #AD7C1E",
"M*	c #B9851E",
"N*	c #BB871F",
"O*	c #9F7318",
"P*	c #7C5810",
"Q*	c #4A3306",
"R*	c #1C1101",
"S*	c #040200",
"T*	c #231010",
"U*	c #120606",
"V*	c #180E01",
"W*	c #382604",
"X*	c #533A09",
"Y*	c #473307",
"Z*	c #986D1A",
"`*	c #C08A20",
" =	c #CA9122",
".=	c #986D17",
"+=	c #6D4D0D",
"@=	c #3A2804",
"#=	c #130A01",
"$=	c #020100",
"%=	c #100901",
"&=	c #2D1D03",
"*=	c #422E05",
"==	c #211401",
"-=	c #8F6518",
";=	c #9F721B",
">=	c #AF7E1E",
",=	c #A4751B",
"'=	c #8D6416",
")=	c #704F0F",
"!=	c #463006",
"~=	c #1F1301",
"{=	c #060300",
"]=	c #170D01",
"^=	c #2E1E03",
"/=	c #2D1E03",
"(=	c #0B0300",
"_=	c #8F6717",
":=	c #9D711B",
"<=	c #AB7B1D",
"[=	c #8D6517",
"}=	c #6E4E0F",
"|=	c #4B3407",
"1=	c #2B1C02",
"2=	c #130B01",
"3=	c #080400",
"4=	c #190F01",
"5=	c #2B1C03",
"6=	c #2F1F03",
"7=	c #130700",
"8=	c #906717",
"9=	c #946A19",
"0=	c #A5771D",
"a=	c #A1741C",
"b=	c #976D19",
"c=	c #845F15",
"d=	c #705010",
"e=	c #593F0B",
"f=	c #3F2B05",
"g=	c #2B1D03",
"h=	c #1C1201",
"i=	c #040300",
"j=	c #0C0600",
"k=	c #140B01",
"l=	c #3A2604",
"m=	c #332203",
"n=	c #170900",
"o=	c #93681A",
"p=	c #92671A",
"q=	c #8F6519",
"r=	c #8A6118",
"s=	c #7F5915",
"t=	c #735012",
"u=	c #66470F",
"v=	c #573C0B",
"w=	c #4A3208",
"x=	c #402B06",
"y=	c #382605",
"z=	c #302004",
"A=	c #312004",
"B=	c #2F1E03",
"C=	c #301F04",
"D=	c #2F1E02",
"E=	c #291B03",
"F=	c #291A03",
"G=	c #2C1D03",
"H=	c #2C1C03",
"I=	c #302003",
"J=	c #3B2805",
"K=	c #3C2904",
"                                                                                                    ",
"        . + @ # $ $ $ $ $ $ $ $ $ $ $ $ $ $ $ $ $ $ $ $ $ $ $ % & * $ $ $ $ $ $ $ $ = - ; >         ",
"    , ' ) ! ! ! ! ! ! ! ! ! ! ! ! ! ! ! ! ! ! ! ! ! ! ! ! ! ~ { ] ! ! ! ! ! ! ! ! ! ! ! ! ^ /       ",
"  ( _ ! ! ! ! : < [ [ [ [ [ [ [ [ [ [ [ [ [ [ [ [ [ [ [ [ [ } } [ [ [ [ [ [ [ [ [ | 1 ! ! ! 2 /     ",
"  3 ! ! ! 1 4 5 6 7 8 8 8 8 8 8 8 8 8 8 8 8 8 8 8 8 8 8 8 8 8 8 8 8 8 8 8 8 8 8 9 0 a b ! ! ! c d   ",
"e f ! ! 1 g 7 h i j k k k k k k k k k k k k k k k k k k k k k k k k k k k k k k l m n o p ! ! ! +   ",
"q ! ! r s t u v v v v v v v v v v v v v v v v v v v v v v v v v v v v v v v v v v v v w x y ! ! z   ",
"A ! ! B C D v v v v v v v v v v v E F G H v v v v v v v v v v v v v v v v v v v v v v v I J | ! K L ",
"M ! ! N O v v v v P P P v v v v Q R S T U V W X Y Z v v v v v v v v v v v v v v v v v v v `  .! 2 ..",
"M ! ! +.v v v v P @.#.$.v v v %.&.*.=.-.-.-.T ;.>.,.'.v v v v v v v v v v v v v v v v v v ). .! 2 ..",
"M ! ! !.v v v v P ~.{.].v v Z ^././.(.-.-.-.-.-.-._.:.v v <.[.P v v v v v v v '.P v v v v }.|.! 2 ..",
"M ! ! 1.v v v v P 2.3.4.v v 5.6.7.8.9.-.-.-.-.-.-.-.0.a.v b.c.'.v v v v v v v d.e.v v v v f.|.! 2 ..",
"M ! ! 1.v v v v v v v v v g.h.i.j.k.-.-.-.-.-.-.-.-.-.l.v m.n.'.v v v v v v v v v v v v v f.|.! 2 ..",
"M ! ! 1.v v v v v v v v v o.-.-.-.-.-.-.-.-.-.-.-.-.-.p.v v v v v v v v v v v v v v v v v q.r.# s.t.",
"M ! ! 1.v v v v v v v v v u.-.-.-.-.-.-.-.-.-.-.-.-.-.v.v v v v v v v v v v v v v v v v '.w.x.y.z.A.",
"M ! ! 1.P '.B.v B.C.D.a.'.E.-.-.-.-.-.-.-.-.F.G.;.H.I.J.a.v v v v v v v v v v v v v v P K.L.M.N.O.P.",
"M ! ! 1.P Q.R.v a.S.T.U.V.W.X.Y.Z.`. +.+++@+#+-.-.-._.S $+%+&+E v v v v v v v v v v P *+=+-+;+>+,+'+",
"M ! ! 1.v v v v v )+!+~+{+]+^+^+^+/+(+_+:+<+[+-.-.-.-.-.-.T }+|+E v v v v P Z B.1+2+3+4+5+6+|.! 2 ..",
"M ! ! 1.v v 7+P P 8+9+0+a+b+/+/+/+/+c+c+d+X.-.-.-.-.-.-.-.-.-._.e+v v v v f+g+h+i+j+k+l+m+n+|.! 2 ..",
"M ! ! 1.P o+p+q+r+s+t+u+v+w+x+y+y+y+z+A+B+C+C+C+C+C+C+-.-.C+C+C+D+E+v v v v F+G+H+I+J+K+L+M+|.! 2 ..",
"M ! ! N+r+s+O+P+P+P+Q+R+S+T+U+V+W+X+Y+Z+`+ @.@+@@@#@0.$@0.#@%@&@*@=@P P v v v v v v v -@;@>@,@! 2 ..",
"M ! ! '@P+P+P+P+P+)@!@~@{@]@^@/@(@_@:@<@[@}@|@1@1@2@3@4@5@6@7@8@9@0@r+a@o+v v v v v v b@c@d@e@! 2 ..",
"M ! ! f@g@h@i@j@k@l@m@n@P+o@p@q@r@s@t@u@v@w@r@r@r@x@y@z@A@B@C@D@C@E@P+F@G@H@I@P v v v v J@K@L@M@N@O@",
"M P@M@Q@R@S@T@U@V@W@X@P+P+Y@Z@`@ #.#+#@###$#%#&#*#=#-#;#>#,#'#)#!#)@P+P+P+~#{#]#^#^#^#^#/#(#_#:#<#[#",
"}#|#1#2#3#4#5#6#7#8#P+P+P+9#0#a#b#c#d#e#f#g#h#i#b#j#k#l#m#n#o#p#q#r#P+P+P+P+P+P+P+P+P+P+~#s#t#u#v#w#",
"x#y#z#A#P+P+P+B#C#D#P+P+P+E#F#G#b#b#H#I#J#K#L#M#i#N#O#P#Q#R#r@S#T#U#V#P+P+P+P+P+P+P+P+P+P+W#X#! Y#Z#",
"`# $! '@P+P+P+.$+$@$P+P+P+#$$$%$&$*$=$-$;$>$,$'$)$!$~${$]$^$/$($_$:$<$P+P+P+P+P+P+P+P+P+P+W#X#! 2 ..",
"[$! ! '@P+P+P+}$|$1$P+P+P+P+B#2$3$4$5$6$7$8$9$0$a$b$c$d$e$f$g$h$i$j$k$P+P+P+P+P+P+P+P+P+P+W#X#! 2 ..",
"M ! ! '@P+P+Q+l$m$P+P+P+P+P+Q+n$E@)@)@V#P+o$p$q$r$s$t$u$v$w$x$y$z$A$P+P+P+P+P+P+P+P+P+P+P+W#X#! 2 ..",
"M ! ! '@P+P+Q+B$C$P+P+P+P+P+P+P+P+P+P+P+P+D$E$F$G$H$I$J$K$L$&$M$)@P+P+P+P+P+P+P+P+P+P+P+P+W#X#! 2 ..",
"M ! ! '@P+Q+<$N$O$P+P+P+P+P+P+P+P+P+P+P+P+E#P$Q$R$S$T$U$V$W$&$X$P+P+P+P+P+P+P+Y$E#P+P+P+P+W#X#! 2 ..",
"M ! ! '@Q+Y@Z$`$ %.%P+P+P+P+P+P+P+P+P+P+P+P++%@%#%$%%%&%*%=%-%P+P+P+P+P+P+P+;%>%,%)@P+P+P+W#X#! 2 ..",
"M ! ! '%)%!%~%{%]%^%/%(%(%_%:%n$P+P+P+P+P+P+<%[%}%|%1%2%3%4%5%6%P+P+P+P+P+P+7%8%9%)@P+P+P+W#X#! 2 ..",
"M ) 0%- a%b%c%d%e%f%g%h%i%j%k%l%_%:%)@P+P+m%n%o%p%q%r%3%s%t%u%v%V#P+P+P+P+P+E@k$E#Q+P+P+P+W#X#! 2 ..",
"w%[#x%y%z%A%i%i%i%i%B%C%D%i%i%i%j%E%F%G%H%I%J%T.K%L%M%N%I.a+O%P%P+P+P+P+P+P+P+P+P+P+P+P+P+W#X#! 2 ..",
"Q%R%S%T%U%i%i%i%i%i%D%D%D%i%i%i%i%i%i%j%E%V%W%4@X%Y%N%4@Z%`% &.&P+P+P+P+P+P+P+P+P+P+P+P+P+W#X#! 2 ..",
"+&@&#&$&i%i%i%i%i%i%i%i%i%i%i%i%i%i%i%i%i%%&&&*&=&-&;&>&,&'&&$)&P+P+P+P+P+P+P+P+P+P+!&~&{&]&^&! 2 ..",
"M ! ! /&i%i%i%i%i%i%i%i%i%i%i%i%i%i%i%i%i%i%(&_&:&<&[&}&|&1&2&3&P+P+P+!&4&5&_%6&7&8&9&k%0&a&b&! 2 ..",
"M ! ! /&i%i%i%i%i%i%i%i%i%i%i%i%i%i%i%i%i%i%i%i%c&d&e&f&P$g&h&i&j&l%8&9&k%E%a&j%i%i%i%i%i%i%b&! 2 ..",
"M ! ! /&i%i%i%i%i%i%i%i%i%i%i%i%i%i%i%i%i%i%D%k&l&m&n&o&p&q&r& @s&t&u&u&u&v&w&l&x&c&c&i%i%i%b&! 2 ..",
"M ! ! /&i%i%i%i%i%i%i%w&y&z&i%i%i%i%i%A&B&m&C&D&E&F&G&H&I&J&Z+K&L&M&N&O&P&F&Q&R&S&T&U&V&W&v&X&! 2 ..",
"M ! ! Y&i%i%i%i%i%i%i%Z&`& *i%D%x&.*+*@*#*$*%*&***=*-*;*>*,*'*)*r&!*~*{*]*^*/*(*_*:*<*[*}*|*1*2*# 3*",
"4*! ! 5*w&i%i%i%i%i%i%6*w&u&x&W&7*8*9*0*=*a*b*c*d*d*d*e*+@f*g*h*h*3%i*d*d*d*d*d*j*k*l*m*n*o*p*q*r*s*",
"t*! ! ! `&i%i%i%i%i%i%i%i%w&u*E&v*w*x*y*c*d*d*d*d*d*d*z*A*B* @C*D*E*d*d*d*d*d*d*d*d*d*c*F*-*G*H*I*J*",
"K*c ! ! L*M*i%i%i%i%i%i%x&N*O*P*Q*R*S*d*d*d*d*d*d*d*d*K&0+T*U*i*d*d*d*d*d*d*d*d*d*d*d*d*d*k*V*W*X*Y*",
"  Z*! ! ! L*Y&`* =i%i%i%w&`&.=+=@=#=$=d*d*d*d*d*d*d*d*d*d*d*d*d*d*d*d*d*d*d*d*d*d*d*d*d*d*$=%=&=*===",
"  -=;=! ! ! ! 5*>=b&b&b&5*,='=)=!=~={=c*d*d*d*d*d*d*d*d*d*d*d*d*d*d*d*d*d*d*d*d*d*d*d*d*d*k*]=^=/=(=",
"    _=:=<=! ! ! ! ! ! ! ! ) ;=[=}=|=1=2=S*c*d*d*d*d*d*d*d*d*d*d*d*d*d*d*d*d*d*d*d*d*d*j*3=4=5=6=7=  ",
"      8=9=- # K K K K K K K 0=a=b=c=d=e=f=g=h=l*F*k*S*b*b*$=$=$=j*$=b*$=$=$=b*i={=j=k=m*&=l=m=n=    ",
"              o=o=o=o=o=o=o=o=o=p=q=r=s=t=u=v=w=x=y=G*z=A=B=C=D=E=F=B=G=G=H=G=^=I=G*J=&*K=          "};
