/* XPM */
static char * RGrun0_xpm[] = {
"50 50 894 2",
"  	c None",
". 	c #906719",
"+ 	c #996E1A",
"@ 	c #A0741B",
"# 	c #A3751C",
"$ 	c #A4751C",
"% 	c #996D1A",
"& 	c #936919",
"* 	c #9E701A",
"= 	c #A2751C",
"- 	c #9E711B",
"; 	c #966C19",
"> 	c #8F6618",
", 	c #8F6719",
"' 	c #9A6E1A",
") 	c #AA7A1D",
"! 	c #AC7C1E",
"~ 	c #A6781C",
"{ 	c #A1741B",
"] 	c #A7791C",
"^ 	c #A5761C",
"/ 	c #956A19",
"( 	c #8D6518",
"_ 	c #9C701B",
": 	c #AE7E20",
"< 	c #B08022",
"[ 	c #B08123",
"} 	c #AF8023",
"| 	c #AF7F21",
"1 	c #AD7D1F",
"2 	c #A8791D",
"3 	c #966B19",
"4 	c #B6882A",
"5 	c #D1A649",
"6 	c #EDC76A",
"7 	c #F5D177",
"8 	c #F6D378",
"9 	c #F4CF74",
"0 	c #E2BA5E",
"a 	c #C79A3D",
"b 	c #B28325",
"c 	c #A5771C",
"d 	c #926819",
"e 	c #8E6518",
"f 	c #A4761C",
"g 	c #C29437",
"h 	c #F5CD71",
"i 	c #F0BD5E",
"j 	c #EDB655",
"k 	c #EDB654",
"l 	c #EEB857",
"m 	c #F1C364",
"n 	c #F6D379",
"o 	c #E3BC60",
"p 	c #B7882A",
"q 	c #916818",
"r 	c #AC7D1F",
"s 	c #BE9132",
"t 	c #F5CF74",
"u 	c #ECB351",
"v 	c #E9AA45",
"w 	c #F0C061",
"x 	c #E3BA5D",
"y 	c #B58628",
"z 	c #A2741C",
"A 	c #956B1A",
"B 	c #B18123",
"C 	c #E8BD5F",
"D 	c #EAAE4B",
"E 	c #CC943C",
"F 	c #996B32",
"G 	c #B98636",
"H 	c #E8A945",
"I 	c #EFBE5F",
"J 	c #CD9E3F",
"K 	c #A6781D",
"L 	c #916618",
"M 	c #966C1A",
"N 	c #BC8B2C",
"O 	c #EFBC5B",
"P 	c #E8A944",
"Q 	c #E6A844",
"R 	c #CD953D",
"S 	c #B28036",
"T 	c #B58237",
"U 	c #A97933",
"V 	c #633231",
"W 	c #673333",
"X 	c #793E3E",
"Y 	c #785229",
"Z 	c #DA9F40",
"` 	c #E4B453",
" .	c #B38324",
"..	c #916918",
"+.	c #C59434",
"@.	c #E5A742",
"#.	c #D89D3C",
"$.	c #DDA13F",
"%.	c #E7A844",
"&.	c #624321",
"*.	c #6C3834",
"=.	c #683434",
"-.	c #663333",
";.	c #844343",
">.	c #894746",
",.	c #69402D",
"'.	c #DCA041",
").	c #EBB24F",
"!.	c #C48F2D",
"~.	c #D59B3A",
"{.	c #986E1D",
"].	c #B07F28",
"^.	c #92672E",
"/.	c #6C3636",
"(.	c #7A3E3E",
"_.	c #894747",
":.	c #7C5230",
"<.	c #E8AB45",
"[.	c #B38122",
"}.	c #C38C2A",
"|.	c #D89E3D",
"1.	c #A97B26",
"2.	c #BC882E",
"3.	c #E5A744",
"4.	c #5C2E2E",
"5.	c #723939",
"6.	c #874545",
"7.	c #884646",
"8.	c #874646",
"9.	c #996E2D",
"0.	c #E2A541",
"a.	c #E6A843",
"b.	c #E7A841",
"c.	c #74531E",
"d.	c #6D3636",
"e.	c #6E3737",
"f.	c #6D3737",
"g.	c #613131",
"h.	c #D69C3F",
"i.	c #693E2E",
"j.	c #B58236",
"k.	c #E2A43F",
"l.	c #AB7B20",
"m.	c #A0731B",
"n.	c #8C6416",
"o.	c #744334",
"p.	c #8B612D",
"q.	c #C28D34",
"r.	c #8E661D",
"s.	c #88611A",
"t.	c #866119",
"u.	c #805D19",
"v.	c #E5A743",
"w.	c #E9AA44",
"x.	c #E5A643",
"y.	c #6A3E2F",
"z.	c #3E1F1F",
"A.	c #492424",
"B.	c #643232",
"C.	c #5E2E2E",
"D.	c #44241F",
"E.	c #C9923A",
"F.	c #A2752E",
"G.	c #D0963A",
"H.	c #99732A",
"I.	c #94722B",
"J.	c #95722C",
"K.	c #94722C",
"L.	c #93702C",
"M.	c #E5A642",
"N.	c #DFA340",
"O.	c #E8A943",
"P.	c #E7A740",
"Q.	c #D69A37",
"R.	c #BD8732",
"S.	c #3D2319",
"T.	c #412020",
"U.	c #562828",
"V.	c #572727",
"W.	c #592626",
"X.	c #5A2424",
"Y.	c #5D2424",
"Z.	c #5D2323",
"`.	c #5B2121",
" +	c #592020",
".+	c #3C1313",
"++	c #725120",
"@+	c #2D1815",
"#+	c #391C1C",
"$+	c #513719",
"%+	c #D59B3C",
"&+	c #9F762C",
"*+	c #C89D49",
"=+	c #C59B40",
"-+	c #C49A3F",
";+	c #C0983E",
">+	c #B38C3A",
",+	c #E9A944",
"'+	c #E8A840",
")+	c #E7A63C",
"!+	c #E7A63A",
"~+	c #E5A438",
"{+	c #906224",
"]+	c #693932",
"^+	c #582B2B",
"/+	c #510000",
"(+	c #590000",
"_+	c #5E0000",
":+	c #610000",
"<+	c #660000",
"[+	c #690000",
"}+	c #500000",
"|+	c #3A1D1D",
"1+	c #422222",
"2+	c #3D1F1F",
"3+	c #B28132",
"4+	c #DB9F3E",
"5+	c #D2983A",
"6+	c #A5782A",
"7+	c #B99142",
"8+	c #E3A845",
"9+	c #E7A63B",
"0+	c #E6A438",
"a+	c #E6A231",
"b+	c #E5A02B",
"c+	c #E5A029",
"d+	c #7E551C",
"e+	c #490101",
"f+	c #650000",
"g+	c #580000",
"h+	c #361B1B",
"i+	c #301818",
"j+	c #674924",
"k+	c #D5A347",
"l+	c #C49641",
"m+	c #AB8234",
"n+	c #8C6926",
"o+	c #DCA749",
"p+	c #E7A942",
"q+	c #E8A73E",
"r+	c #E7A53A",
"s+	c #E6A539",
"t+	c #E6A537",
"u+	c #E6A230",
"v+	c #E4A02A",
"w+	c #E49F29",
"x+	c #E29E29",
"y+	c #E09C28",
"z+	c #7C4C2D",
"A+	c #653232",
"B+	c #6F3737",
"C+	c #1D0D0D",
"D+	c #590303",
"E+	c #5C0000",
"F+	c #5A0000",
"G+	c #4D0000",
"H+	c #2B1714",
"I+	c #62352F",
"J+	c #C39645",
"K+	c #E5B65A",
"L+	c #DCB058",
"M+	c #CFA44F",
"N+	c #9B762F",
"O+	c #C48F36",
"P+	c #E3A53F",
"Q+	c #C18A27",
"R+	c #E49F28",
"S+	c #DF9C28",
"T+	c #D3962B",
"U+	c #E09D2A",
"V+	c #E29E28",
"W+	c #6E481E",
"X+	c #4C2626",
"Y+	c #522828",
"Z+	c #5A2C2C",
"`+	c #5D2E2E",
" @	c #572B2B",
".@	c #552929",
"+@	c #512727",
"@@	c #4D2727",
"#@	c #4C2727",
"$@	c #4E2727",
"%@	c #4F2828",
"&@	c #341919",
"*@	c #5C2929",
"=@	c #692D2D",
"-@	c #672C2C",
";@	c #3E1F1D",
">@	c #694822",
",@	c #C9923B",
"'@	c #CE9E46",
")@	c #A57C2F",
"!@	c #D79C3B",
"~@	c #B28021",
"{@	c #BE8721",
"]@	c #D69727",
"^@	c #C7902B",
"/@	c #CB922C",
"(@	c #DD9A27",
"_@	c #90631A",
":@	c #906121",
"<@	c #6E491C",
"[@	c #593B15",
"}@	c #2A1515",
"|@	c #452715",
"1@	c #714E15",
"2@	c #775314",
"3@	c #785414",
"4@	c #775313",
"5@	c #765313",
"6@	c #745210",
"7@	c #6C460A",
"8@	c #603C02",
"9@	c #5E4A00",
"0@	c #685A00",
"a@	c #A4A400",
"b@	c #BB932F",
"c@	c #EAAD49",
"d@	c #BD9343",
"e@	c #B98732",
"f@	c #AD7D20",
"g@	c #B27E1F",
"h@	c #C78B23",
"i@	c #C38822",
"j@	c #BE8521",
"k@	c #BA8221",
"l@	c #B67F20",
"m@	c #B68123",
"n@	c #BF8E30",
"o@	c #C7902D",
"p@	c #A17514",
"q@	c #5D5644",
"r@	c #EFD9A4",
"s@	c #F4CE46",
"t@	c #FDCA00",
"u@	c #FECB00",
"v@	c #FFCC00",
"w@	c #FEB700",
"x@	c #FEA200",
"y@	c #FBA000",
"z@	c #4E3900",
"A@	c #F5ED00",
"B@	c #59522E",
"C@	c #D99C32",
"D@	c #E7A539",
"E@	c #E8A83F",
"F@	c #E9B150",
"G@	c #B28839",
"H@	c #966D1D",
"I@	c #946A1A",
"J@	c #9D701B",
"K@	c #8F6716",
"L@	c #A7781D",
"M@	c #A8802F",
"N@	c #BD9542",
"O@	c #BF9947",
"P@	c #BD9949",
"Q@	c #B59244",
"R@	c #A38035",
"S@	c #906A22",
"T@	c #CE9934",
"U@	c #A58402",
"V@	c #F9E6B7",
"W@	c #50431C",
"X@	c #A57C00",
"Y@	c #F0AC00",
"Z@	c #FBB100",
"`@	c #F6A500",
" #	c #C47D00",
".#	c #875B0E",
"+#	c #875E18",
"@#	c #B5944F",
"##	c #C2AC6C",
"$#	c #D3BB01",
"%#	c #9F941E",
"&#	c #49473C",
"*#	c #8F805E",
"=#	c #DB9927",
"-#	c #E5A02A",
";#	c #E6A332",
">#	c #E7A537",
",#	c #E7A538",
"'#	c #D7A241",
")#	c #A88336",
"!#	c #A07F39",
"~#	c #8A641D",
"{#	c #855F17",
"]#	c #896217",
"^#	c #987121",
"/#	c #A58439",
"(#	c #B68D37",
"_#	c #E3B553",
":#	c #EDBF5B",
"<#	c #F1C45F",
"[#	c #EDBE59",
"}#	c #D0A347",
"|#	c #AB7E2A",
"1#	c #D79626",
"2#	c #DF9B28",
"3#	c #4B3B01",
"4#	c #DBAF00",
"5#	c #E8D29D",
"6#	c #FFD36F",
"7#	c #FFD26B",
"8#	c #F7E0A8",
"9#	c #FFE7AD",
"0#	c #FFE6AC",
"a#	c #C0BEBB",
"b#	c #191919",
"c#	c #505050",
"d#	c #E4D0A0",
"e#	c #B1A079",
"f#	c #FEE9B8",
"g#	c #676665",
"h#	c #727272",
"i#	c #DE9B27",
"j#	c #E19F2C",
"k#	c #CA9D3F",
"l#	c #C39D47",
"m#	c #997326",
"n#	c #A07F35",
"o#	c #A5853C",
"p#	c #A47E2E",
"q#	c #C79F43",
"r#	c #BF8821",
"s#	c #E09D28",
"t#	c #C08825",
"u#	c #C28F30",
"v#	c #724C06",
"w#	c #9F6D13",
"x#	c #CB970D",
"y#	c #FCC900",
"z#	c #9C8225",
"A#	c #F7DA96",
"B#	c #FDD477",
"C#	c #FFD984",
"D#	c #FFB29B",
"E#	c #C97770",
"F#	c #463430",
"G#	c #AC9F83",
"H#	c #F6DFA7",
"I#	c #FFE7AF",
"J#	c #504D46",
"K#	c #6D544A",
"L#	c #E19D28",
"M#	c #DF9C27",
"N#	c #B2801F",
"O#	c #AE8024",
"P#	c #B38D3A",
"Q#	c #B49140",
"R#	c #B38629",
"S#	c #DE9B28",
"T#	c #B38125",
"U#	c #D9A035",
"V#	c #CF9023",
"W#	c #4E3304",
"X#	c #DBA000",
"Y#	c #FEC800",
"Z#	c #F9C700",
"`#	c #D6B029",
" $	c #54441A",
".$	c #BD9A38",
"+$	c #5C4A25",
"@$	c #A68946",
"#$	c #AE904A",
"$$	c #E9BD65",
"%$	c #FEBE7B",
"&$	c #FEDD93",
"*$	c #FEE099",
"=$	c #FFE6AB",
"-$	c #DAC593",
";$	c #F6DEA6",
">$	c #FEE6AC",
",$	c #E4C191",
"'$	c #EC9170",
")$	c #E69F30",
"!$	c #976D1B",
"~$	c #DC9A29",
"{$	c #A87D2A",
"]$	c #E4A22E",
"^$	c #CC8E23",
"/$	c #EC9500",
"($	c #FC9E00",
"_$	c #FEB000",
":$	c #7B640B",
"<$	c #DFC4A9",
"[$	c #A69079",
"}$	c #D0AD8A",
"|$	c #855841",
"1$	c #563831",
"2$	c #DAB590",
"3$	c #E7A72A",
"4$	c #79644E",
"5$	c #4E3D05",
"6$	c #261F0F",
"7$	c #987E42",
"8$	c #F5CB6C",
"9$	c #FDD272",
"0$	c #7A6536",
"a$	c #B8801F",
"b$	c #DA9928",
"c$	c #9E7628",
"d$	c #E39F28",
"e$	c #D19123",
"f$	c #A36907",
"g$	c #FB9E00",
"h$	c #B09F73",
"i$	c #AC9A71",
"j$	c #A28A74",
"k$	c #1C1612",
"l$	c #37231A",
"m$	c #643E38",
"n$	c #BE976F",
"o$	c #574629",
"p$	c #836650",
"q$	c #B57D1E",
"r$	c #D69627",
"s$	c #A27624",
"t$	c #996B1D",
"u$	c #FDD886",
"v$	c #524231",
"w$	c #1B110F",
"x$	c #2A1414",
"y$	c #381413",
"z$	c #451A15",
"A$	c #4F1D18",
"B$	c #412221",
"C$	c #C88F39",
"D$	c #B07C21",
"E$	c #A57722",
"F$	c #D3932A",
"G$	c #847255",
"H$	c #342118",
"I$	c #410303",
"J$	c #1E0303",
"K$	c #8B6A55",
"L$	c #6C4C40",
"M$	c #91735D",
"N$	c #3D1E1E",
"O$	c #DB9926",
"P$	c #AC7B23",
"Q$	c #BB9442",
"R$	c #C2963D",
"S$	c #C58A23",
"T$	c #816C62",
"U$	c #502828",
"V$	c #331919",
"W$	c #0B0505",
"X$	c #261312",
"Y$	c #A28369",
"Z$	c #C5A081",
"`$	c #371E1D",
" %	c #DA9827",
".%	c #D09124",
"+%	c #AF7C1E",
"@%	c #CA8E23",
"#%	c #BD8721",
"$%	c #D39425",
"%%	c #A67823",
"&%	c #C29943",
"*%	c #DAA43C",
"=%	c #D6A136",
"-%	c #C3912E",
";%	c #C68E28",
">%	c #D69824",
",%	c #D79824",
"'%	c #DC9B26",
")%	c #DA9826",
"!%	c #2B0606",
"~%	c #221010",
"{%	c #482424",
"]%	c #452323",
"^%	c #76674D",
"/%	c #927641",
"(%	c #3D2923",
"_%	c #341B1B",
":%	c #9F6E1A",
"<%	c #D69526",
"[%	c #BB8420",
"}%	c #D09224",
"|%	c #A1731B",
"1%	c #A57926",
"2%	c #BC953E",
"3%	c #D2A036",
"4%	c #D29725",
"5%	c #D09624",
"6%	c #CB962A",
"7%	c #C18F28",
"8%	c #C7932A",
"9%	c #CB9322",
"0%	c #CC9322",
"a%	c #CF9523",
"b%	c #D39724",
"c%	c #DB9A26",
"d%	c #6B4916",
"e%	c #361212",
"f%	c #361717",
"g%	c #472323",
"h%	c #1D0F0F",
"i%	c #241313",
"j%	c #2E1919",
"k%	c #251111",
"l%	c #180D05",
"m%	c #E39E28",
"n%	c #DC9A27",
"o%	c #825C16",
"p%	c #87611B",
"q%	c #A38136",
"r%	c #C0963B",
"s%	c #CF9C30",
"t%	c #CA9324",
"u%	c #C89326",
"v%	c #CA9322",
"w%	c #CE9422",
"x%	c #B5811D",
"y%	c #281818",
"z%	c #422121",
"A%	c #2C1515",
"B%	c #492525",
"C%	c #331A1A",
"D%	c #DFBF74",
"E%	c #BB842F",
"F%	c #BA9B4D",
"G%	c #B28E3E",
"H%	c #AC8432",
"I%	c #BC9034",
"J%	c #CE9A2C",
"K%	c #CA9222",
"L%	c #C1AE82",
"M%	c #62533F",
"N%	c #221414",
"O%	c #462323",
"P%	c #321A1A",
"Q%	c #242221",
"R%	c #A97421",
"S%	c #AB8532",
"T%	c #B68A2E",
"U%	c #B28427",
"V%	c #BC8923",
"W%	c #B3811E",
"X%	c #FEE5AA",
"Y%	c #9D8248",
"Z%	c #3D2B1B",
"`%	c #544034",
" &	c #3B1F1F",
".&	c #482626",
"+&	c #443E30",
"@&	c #3D2D20",
"#&	c #B4802E",
"$&	c #E29E27",
"%&	c #DE9C27",
"&&	c #DB9A25",
"*&	c #D69724",
"=&	c #B17F1E",
"-&	c #B9851F",
";&	c #B38327",
">&	c #FDE5A9",
",&	c #F5DDA3",
"'&	c #2F2417",
")&	c #DBB766",
"!&	c #FDE5AA",
"~&	c #D7C08C",
"{&	c #6C4D11",
"]&	c #664A1A",
"^&	c #9B6F1A",
"/&	c #D39623",
"(&	c #D99925",
"_&	c #E09D27",
":&	c #DF9C26",
"<&	c #D59724",
"[&	c #D39723",
"}&	c #D19623",
"|&	c #D09523",
"1&	c #CD9422",
"2&	c #CD9322",
"3&	c #B07E1E",
"4&	c #9D7118",
"5&	c #5D3F28",
"6&	c #EDD7A0",
"7&	c #FDE5AD",
"8&	c #F0D79E",
"9&	c #FEE6AB",
"0&	c #DAC089",
"a&	c #BF8A20",
"b&	c #B5831E",
"c&	c #C08A20",
"d&	c #845E16",
"e&	c #23130E",
"f&	c #4D2827",
"g&	c #665349",
"h&	c #542A2A",
"i&	c #DEC899",
"j&	c #E6CF9E",
"k&	c #C28C20",
"l&	c #C58E20",
"m&	c #C28D20",
"n&	c #C38D20",
"o&	c #C48D20",
"p&	c #C48E20",
"q&	c #C48F21",
"r&	c #C68F21",
"s&	c #C69021",
"t&	c #C79021",
"u&	c #C89121",
"v&	c #C99121",
"w&	c #B6841D",
"x&	c #B1801E",
"y&	c #B6831E",
"z&	c #362116",
"A&	c #311818",
"B&	c #432120",
"C&	c #4B2923",
"D&	c #523A0C",
"E&	c #A6781B",
"F&	c #A17419",
"G&	c #976D17",
"H&	c #8E6614",
"I&	c #8A6314",
"J&	c #866013",
"K&	c #876113",
"L&	c #896213",
"M&	c #8A6414",
"N&	c #8B6414",
"O&	c #8F6714",
"P&	c #906715",
"Q&	c #946B16",
"R&	c #9A6F17",
"S&	c #996E17",
"T&	c #A47619",
"U&	c #AE7E1C",
"V&	c #B5831D",
"W&	c #BC881F",
"X&	c #AF7D1E",
"Y&	c #B4811E",
"Z&	c #C89021",
"`&	c #B7841E",
" *	c #B17F1D",
".*	c #C99222",
"+*	c #714F16",
"@*	c #4E2927",
"#*	c #4F2928",
"$*	c #381F1E",
"%*	c #4E2626",
"&*	c #452917",
"**	c #553C08",
"=*	c #412D05",
"-*	c #2F1F02",
";*	c #241702",
">*	c #1A1001",
",*	c #160D01",
"'*	c #120A01",
")*	c #100800",
"!*	c #120A00",
"~*	c #140B01",
"{*	c #180F01",
"]*	c #1D1201",
"^*	c #211602",
"/*	c #271902",
"(*	c #261902",
"_*	c #3A2704",
":*	c #4E3707",
"<*	c #61450B",
"[*	c #76540F",
"}*	c #9B6F17",
"|*	c #976C18",
"1*	c #9F731B",
"2*	c #8F6818",
"3*	c #956C1A",
"4*	c #AE7D1E",
"5*	c #CA9221",
"6*	c #AA7A1B",
"7*	c #502929",
"8*	c #522A2A",
"9*	c #633131",
"0*	c #050201",
"a*	c #010000",
"b*	c #000000",
"c*	c #010100",
"d*	c #050200",
"e*	c #100801",
"f*	c #211502",
"g*	c #3B2904",
"h*	c #503808",
"i*	c #65480D",
"j*	c #7E5A13",
"k*	c #8D6617",
"l*	c #805B14",
"m*	c #926919",
"n*	c #B8851E",
"o*	c #956B16",
"p*	c #52380C",
"q*	c #2B1614",
"r*	c #412121",
"s*	c #562B2B",
"t*	c #5F2E2E",
"u*	c #311717",
"v*	c #090400",
"w*	c #352304",
"x*	c #573D0A",
"y*	c #715010",
"z*	c #694B0E",
"A*	c #8D6717",
"B*	c #AD7C1E",
"C*	c #B9851E",
"D*	c #BB871F",
"E*	c #9F7318",
"F*	c #7C5810",
"G*	c #4A3306",
"H*	c #1B1001",
"I*	c #050301",
"J*	c #120606",
"K*	c #231010",
"L*	c #180E01",
"M*	c #382604",
"N*	c #533A09",
"O*	c #473307",
"P*	c #986D1A",
"Q*	c #CA9122",
"R*	c #986D17",
"S*	c #6D4D0D",
"T*	c #3A2804",
"U*	c #130A01",
"V*	c #020100",
"W*	c #100901",
"X*	c #2D1D03",
"Y*	c #422E05",
"Z*	c #211401",
"`*	c #8F6518",
" =	c #9F721B",
".=	c #AF7E1E",
"+=	c #A4751B",
"@=	c #8D6416",
"#=	c #704F0F",
"$=	c #463006",
"%=	c #1F1301",
"&=	c #060300",
"*=	c #170D01",
"==	c #2E1E03",
"-=	c #2D1E03",
";=	c #0B0300",
">=	c #8F6717",
",=	c #9D711B",
"'=	c #AB7B1D",
")=	c #8D6517",
"!=	c #6E4E0F",
"~=	c #4B3407",
"{=	c #2B1C02",
"]=	c #130B01",
"^=	c #040200",
"/=	c #080400",
"(=	c #190F01",
"_=	c #2B1C03",
":=	c #2F1F03",
"<=	c #130700",
"[=	c #906717",
"}=	c #946A19",
"|=	c #A5771D",
"1=	c #A1741C",
"2=	c #976D19",
"3=	c #845F15",
"4=	c #705010",
"5=	c #593F0B",
"6=	c #3F2B05",
"7=	c #2B1D03",
"8=	c #1C1201",
"9=	c #030100",
"0=	c #040300",
"a=	c #0C0600",
"b=	c #3A2604",
"c=	c #332203",
"d=	c #170900",
"e=	c #93681A",
"f=	c #92671A",
"g=	c #8F6519",
"h=	c #8A6118",
"i=	c #7F5915",
"j=	c #735012",
"k=	c #66470F",
"l=	c #573C0B",
"m=	c #4A3208",
"n=	c #402B06",
"o=	c #382605",
"p=	c #302004",
"q=	c #312004",
"r=	c #2F1E03",
"s=	c #301F04",
"t=	c #2F1E02",
"u=	c #291B03",
"v=	c #291A03",
"w=	c #2C1D03",
"x=	c #2C1C03",
"y=	c #302003",
"z=	c #3B2805",
"A=	c #3C2904",
"                                                                                                    ",
"        . + @ # $ $ $ $ $ $ $ $ $ $ $ $ $ $ $ $ $ $ $ $ $ $ $ % & * $ $ $ $ $ $ $ $ = - ; >         ",
"    , ' ) ! ! ! ! ! ! ! ! ! ! ! ! ! ! ! ! ! ! ! ! ! ! ! ! ! ~ { ] ! ! ! ! ! ! ! ! ! ! ! ! ^ /       ",
"  ( _ ! ! ! ! : < [ [ [ [ [ [ [ [ [ [ [ [ [ [ [ [ [ [ [ [ [ } } [ [ [ [ [ [ [ [ [ | 1 ! ! ! 2 /     ",
"  3 ! ! ! 1 4 5 6 7 8 8 8 8 8 8 8 8 8 8 8 8 8 8 8 8 8 8 8 8 8 8 8 8 8 8 8 8 8 8 9 0 a b ! ! ! c d   ",
"e f ! ! 1 g 7 h i j k k k k k k k k k k k k k k k k k k k k k k k k k k k k k k l m n o p ! ! ! +   ",
"q ! ! r s t u v v v v v v v v v v v v v v v v v v v v v v v v v v v v v v v v v v v v w x y ! ! z   ",
"A ! ! B C D v v v v v v v v v v v v v v v v v v v v v v v E F G H v v v v v v v v v v v I J | ! K L ",
"M ! ! N O v v v v P P P v v v v v v v v v v v v Q R S T U V W X Y Z v v v v v v v v v v v `  .! 2 ..",
"M ! ! +.v v v v P @.#.$.v v v v v v v v v v v %.&.*.=.W -.-.-.;.>.,.'.v v v v v v v v v v ). .! 2 ..",
"M ! ! !.v v v v P ~.{.].v v v v v v v v v v v ^./.-.-.-.-.-.-.(._._.:.Q v v v %.P v v v v <.[.! 2 ..",
"M ! ! }.v v v v P |.1.2.v v v v v v v v v v 3.4.-.-.-.-.-.-.-.5.6.7.8.9.v v v 0.a.v v v v b.[.! 2 ..",
"M ! ! }.v v v v v v v v v v v v v v v v v v c.-.-.-.-.-.-.-.-.-.d.e.f.g.h.v v v v v v v v b.[.! 2 ..",
"M ! ! }.v v v v v v v v v v v v v v v v v v i.-.-.-.-.-.-.-.-.-.-.-.-.-.j.v v v v v v v v k.l.# m.n.",
"M ! ! }.v v v v v v v v v v v v v v v v v v o.-.-.-.-.-.-.-.-.-.-.-.-.-.p.v v v v v v v %.q.r.s.t.u.",
"M ! ! }.P %.v.v v v v v v v v v v v w.P P x.y.z.A.=.B.C.-.-.-.-.-.-.-.-.D.%.3.E.F.v.v P G.H.I.J.K.L.",
"M ! ! }.P M.N.v v v v v v v w.P P O.P.Q.R.S.X /.-.-.-.T.U.V.W.X.Y.Z.`. +.+++@+#+$+3.P %+&+*+=+-+;+>+",
"M ! ! }.v v v v v v ,+P P O.'+)+!+~+{+]+W -.-.-.-.-.-.^+/+(+_+:+<+[+[+[+}+|+1+2+3+4+5+6+7+8+[.! 2 ..",
"M ! ! }.v v ,+P P O.'+9+!+0+a+b+c+d+/.-.-.-.-.-.-.-.-.-. +e+f+f+<+<+<+<+g+h+i+j+k+l+m+n+o+p+[.! 2 ..",
"M ! ! }.P O.q+r+s+t+u+v+w+x+c+c+y+z+A+A+A+-.-.A+A+A+A+A+A+B+C+D+E+E+E+F+G+H+I+J+K+L+M+N+O+P+[.! 2 ..",
"M ! ! Q+s+t+u+c+c+c+R+S+T+U+c+c+V+W+X+Y+Z+4.`+4.Z+ @.@+@@@#@$@%@&@*@=@-@;@>@,@v v v v '@)@!@~@! 2 ..",
"M ! ! {@c+c+c+c+c+V+]@^@/@c+c+c+c+(@_@:@<@[@}@|@1@2@2@3@4@5@6@7@8@9@0@a@b@v v v v v v c@d@e@f@! 2 ..",
"M ! ! g@h@i@j@k@l@m@n@o@c+c+c+c+c+c+c+c+p@q@r@s@t@u@u@u@v@w@x@y@z@u@A@B@C@D@E@P v v v v F@G@H@I@J@K@",
"M L@I@M@N@O@P@Q@R@S@T@c+c+c+c+c+c+c+c+(@U@V@W@X@Y@Z@`@ #.#+#@###$#%#&#*#=#-#;#>#,#,#,#,#!+'#)#!#~#{#",
"]#^#/#(#_#:#<#[#}#|#c+c+c+c+c+c+1#c+2#3#4#5#6#7#8#9#0#a#b#c#d#e#f#9#g#h#i#c+c+c+c+c+c+c+-#j#k#l#m#n#",
"o#p#q#r#c+c+c+s#t#u#c+c+c+c+c+w+v#w#x#u@y#z#A#B#C#0#D#E#F#G#H#I#9#9#J#K#L#c+c+c+c+c+c+c+c+M#N#! O#P#",
"Q#R#! {@c+c+c+S#T#U#c+c+c+c+L#V#W#X#Y#Z#`# $.$+$@$#$$$%$&$*$=$-$;$>$,$'$)$c+c+c+c+c+c+c+c+M#N#! 2 ..",
"!$! ! {@c+c+c+~${$]$c+c+c+c+s#^$/$($_$:$<$[$}$|$1$2$3$4$5$6$7$8$9$0$a$c+c+c+c+c+c+c+c+c+c+M#N#! 2 ..",
"M ! ! {@c+c+R+b$c$c+c+c+c+c+R+d$e$f$g$h$i$j$k$l$m$n$o$p$q$c+w+V+V+w+c+c+c+c+c+c+c+c+c+c+c+M#N#! 2 ..",
"M ! ! {@c+c+R+r$s$c+c+c+c+c+c+c+c+V+t$>$u$v$w$x$y$z$A$B$C$c+c+c+c+c+c+c+c+c+c+c+c+c+c+c+c+M#N#! 2 ..",
"M ! ! {@c+R+(@D$E$c+c+c+c+c+c+c+c+c+F$>$G$H$I$J$K$L$M$N$L#c+c+c+c+c+c+c+c+c+c+O$L#c+c+c+c+M#N#! 2 ..",
"M ! ! {@R+=#P$Q$R$S$c+c+c+c+c+c+c+c+c+T$U$V$W$X$Y$Z$`$ %c+c+c+c+c+c+c+c+c+c+.%+%@%V+c+c+c+M#N#! 2 ..",
"M ! ! #%$%%%&%*%=%-%;%>%>%,%'%d$c+c+)%!%~%{%]%^%/%(%_%:%c+c+c+c+c+c+c+c+c+c+<%[%}%V+c+c+c+M#N#! 2 ..",
"M ) |%- 1%2%3%4%5%6%7%8%9%0%a%b%,%c%d%e%f%g%{%h%i%j%k%l%1#c+c+c+c+c+c+c+c+c+m%n%L#R+c+c+c+M#N#! 2 ..",
"o%{#p%q%r%s%9%9%9%9%t%u%v%9%9%9%0%w%x%y%h+z.z%A%B%C%#+D%E%c+c+c+c+c+c+c+c+c+c+c+c+c+c+c+c+M#N#! 2 ..",
"F%G%H%I%J%9%9%9%9%9%v%v%v%9%9%9%9%9%K%L%M%N%}@z%O%P%}@Q%R%c+c+c+c+c+c+c+c+c+c+c+c+c+c+c+c+M#N#! 2 ..",
"S%T%U%V%9%9%9%9%9%9%9%9%9%9%9%9%9%9%W%>$X%Y%Z%`% &.&+&@&#&c+c+c+c+c+c+c+c+c+c+c+c+c+$&%&&&*&=&! 2 ..",
"M ! ! -&9%9%9%9%9%9%9%9%9%9%9%9%9%9%;&>&,&'&)&!&~&{&]&^&/&(&_&R+c+c+c+$&:&c%,%<&[&}&|&a%1&2&3&! 2 ..",
"M ! ! -&9%9%9%9%9%9%9%9%9%9%9%9%9%4&5&6&7&N$8&9&0&a&b&c&9%1&|&b%<&b%}&|&a%w%2&0%9%9%9%9%9%9%3&! 2 ..",
"M ! ! -&9%9%9%9%9%9%9%9%9%9%9%9%d&e&@@f&g&h&i&j&k&l&k&m&n&o&p&q&r&r&r&r&r&s&t&u&v&K%K%9%9%9%3&! 2 ..",
"M ! ! -&9%9%9%9%9%9%9%t&w&x&9%9%y&z&A&$@B&C&D&E&F&G&H&I&J&K&J&L&M&N&O&P&Q&G&R&S&T&U&V&W&k&s&X&! 2 ..",
"M ! ! Y&9%9%9%9%9%9%9%Z&`& *9%.*+*@*#*$*%*&***=*-*;*>*,*'*'*)*'*!*~*,*{*]*^*/*(*_*:*<*[*I&}*|*1*# 2*",
"3*! ! 4*t&9%9%9%9%9%9%5*t&r&v&6*{%7*7*8*9*.@0*a*b*b*b*b*b*b*b*b*b*b*b*b*b*b*b*b*c*d*e*f*g*h*i*j*k*l*",
"m*! ! ! `&9%9%9%9%9%9%9%9%t&n*o*p*q*r*@@s*t*u*b*b*b*b*b*b*b*b*b*b*b*b*b*b*b*b*b*b*b*b*a*v*>*w*x*y*z*",
"A*c ! ! B*C*9%9%9%9%9%9%v&D*E*F*G*H*I*J*K*i+A&b*b*b*b*b*b*b*b*b*b*b*b*b*b*b*b*b*b*b*b*b*b*d*L*M*N*O*",
"  P*! ! ! B*Y&c&Q*9%9%9%t&`&R*S*T*U*V*b*b*b*b*b*b*b*b*b*b*b*b*b*b*b*b*b*b*b*b*b*b*b*b*b*b*V*W*X*Y*Z*",
"  `* =! ! ! ! 4*.=3&3&3&4*+=@=#=$=%=&=a*b*b*b*b*b*b*b*b*b*b*b*b*b*b*b*b*b*b*b*b*b*b*b*b*b*d**===-=;=",
"    >=,='=! ! ! ! ! ! ! ! )  =)=!=~={=]=^=a*b*b*b*b*b*b*b*b*b*b*b*b*b*b*b*b*b*b*b*b*b*c*/=(=_=:=<=  ",
"      [=}=- # K K K K K K K |=1=2=3=4=5=6=7=8=e*v*d*^=9=9=V*V*V*c*V*9=V*V*V*9=0=&=a=~*f*X*b=c=d=    ",
"              e=e=e=e=e=e=e=e=e=f=g=h=i=j=k=l=m=n=o=w*p=q=r=s=t=u=v=r=w=w=x=w===y=w*z==*A=          "};
