/* XPM */
static char * RGrun1_xpm[] = {
"50 50 891 2",
"  	c None",
". 	c #906719",
"+ 	c #996E1A",
"@ 	c #A0741B",
"# 	c #A3751C",
"$ 	c #A4751C",
"% 	c #996D1A",
"& 	c #936919",
"* 	c #9E701A",
"= 	c #A2751C",
"- 	c #9E711B",
"; 	c #966C19",
"> 	c #8F6618",
", 	c #8F6719",
"' 	c #9A6E1A",
") 	c #AA7A1D",
"! 	c #AC7C1E",
"~ 	c #A6781C",
"{ 	c #A1741B",
"] 	c #A7791C",
"^ 	c #A5761C",
"/ 	c #956A19",
"( 	c #8D6518",
"_ 	c #9C701B",
": 	c #AE7E20",
"< 	c #B08022",
"[ 	c #B08123",
"} 	c #AF8023",
"| 	c #AF7F21",
"1 	c #AD7D1F",
"2 	c #A8791D",
"3 	c #966B19",
"4 	c #B6882A",
"5 	c #D1A649",
"6 	c #EDC76A",
"7 	c #F5D177",
"8 	c #F6D378",
"9 	c #F4CF74",
"0 	c #E2BA5E",
"a 	c #C79A3D",
"b 	c #B28325",
"c 	c #A5771C",
"d 	c #926819",
"e 	c #8E6518",
"f 	c #A4761C",
"g 	c #C29437",
"h 	c #F5CD71",
"i 	c #F0BD5E",
"j 	c #EDB655",
"k 	c #EDB654",
"l 	c #EEB857",
"m 	c #F1C364",
"n 	c #F6D379",
"o 	c #E3BC60",
"p 	c #B7882A",
"q 	c #916818",
"r 	c #AC7D1F",
"s 	c #BE9132",
"t 	c #F5CF74",
"u 	c #ECB351",
"v 	c #E9AA45",
"w 	c #F0C061",
"x 	c #E3BA5D",
"y 	c #B58628",
"z 	c #A2741C",
"A 	c #956B1A",
"B 	c #B18123",
"C 	c #E8BD5F",
"D 	c #EAAE4B",
"E 	c #E5A744",
"F 	c #DDA141",
"G 	c #E8A945",
"H 	c #B88536",
"I 	c #805333",
"J 	c #794B31",
"K 	c #A97934",
"L 	c #E6A844",
"M 	c #EFBE5F",
"N 	c #CD9E3F",
"O 	c #A6781D",
"P 	c #916618",
"Q 	c #966C1A",
"R 	c #BC8B2C",
"S 	c #EFBC5B",
"T 	c #E8A944",
"U 	c #DFA342",
"V 	c #A87833",
"W 	c #573126",
"X 	c #613030",
"Y 	c #4A2A22",
"Z 	c #6A3534",
"` 	c #663333",
" .	c #6F3737",
"..	c #874545",
"+.	c #6B4728",
"@.	c #E4B453",
"#.	c #B38324",
"$.	c #916918",
"%.	c #C59434",
"&.	c #E5A742",
"*.	c #D89D3C",
"=.	c #DDA13F",
"-.	c #83582F",
";.	c #673333",
">.	c #6B3535",
",.	c #884646",
"'.	c #894746",
").	c #624026",
"!.	c #EBB24F",
"~.	c #C48F2D",
"{.	c #D59B3A",
"].	c #986E1D",
"^.	c #B07F28",
"/.	c #A2752E",
"(.	c #6B3636",
"_.	c #894747",
":.	c #9C6D33",
"<.	c #E7A844",
"[.	c #E8AB45",
"}.	c #B38122",
"|.	c #C38C2A",
"1.	c #D89E3D",
"2.	c #A97B26",
"3.	c #BC882E",
"4.	c #E4A643",
"5.	c #7F473C",
"6.	c #783D3D",
"7.	c #854444",
"8.	c #864545",
"9.	c #D99E40",
"0.	c #E2A541",
"a.	c #E6A843",
"b.	c #E7A841",
"c.	c #C69039",
"d.	c #61302F",
"e.	c #693434",
"f.	c #6A3535",
"g.	c #61431E",
"h.	c #C68E3E",
"i.	c #DCA040",
"j.	c #E2A43F",
"k.	c #AB7B20",
"l.	c #A0731B",
"m.	c #8C6416",
"n.	c #BF893B",
"o.	c #643131",
"p.	c #5F2F2F",
"q.	c #5B2C2C",
"r.	c #623030",
"s.	c #C08B38",
"t.	c #C28D34",
"u.	c #8E661D",
"v.	c #88611A",
"w.	c #866119",
"x.	c #805D19",
"y.	c #E5A743",
"z.	c #E9AA44",
"A.	c #E6A743",
"B.	c #BF8A37",
"C.	c #865C2C",
"D.	c #4C2626",
"E.	c #522929",
"F.	c #5E2F2F",
"G.	c #512828",
"H.	c #653232",
"I.	c #643232",
"J.	c #633131",
"K.	c #B48235",
"L.	c #CD953C",
"M.	c #A1742E",
"N.	c #8A6229",
"O.	c #D0963A",
"P.	c #99732A",
"Q.	c #94722B",
"R.	c #95722C",
"S.	c #94722C",
"T.	c #93702C",
"U.	c #E5A642",
"V.	c #DFA340",
"W.	c #DFA240",
"X.	c #B28032",
"Y.	c #3B1D1D",
"Z.	c #733939",
"`.	c #492424",
" +	c #330909",
".+	c #2A0404",
"++	c #260101",
"@+	c #230000",
"#+	c #250000",
"$+	c #290000",
"%+	c #2D0000",
"&+	c #3A0000",
"*+	c #430000",
"=+	c #310F0F",
"-+	c #412121",
";+	c #3F2A16",
">+	c #D59B3C",
",+	c #9F762C",
"'+	c #C89D49",
")+	c #C59B40",
"!+	c #C49A3F",
"~+	c #C0983E",
"{+	c #B38C3A",
"]+	c #E9A944",
"^+	c #E8A943",
"/+	c #E8A840",
"(+	c #E7A63C",
"_+	c #DA9C36",
":+	c #7C4C31",
"<+	c #623131",
"[+	c #2A0B0B",
"}+	c #630000",
"|+	c #660000",
"1+	c #3C1111",
"2+	c #291414",
"3+	c #93682C",
"4+	c #E1A441",
"5+	c #DB9F3E",
"6+	c #D2983A",
"7+	c #A5782A",
"8+	c #B99142",
"9+	c #E3A845",
"0+	c #E7A63B",
"a+	c #E7A63A",
"b+	c #E6A438",
"c+	c #E6A231",
"d+	c #E5A02B",
"e+	c #C18625",
"f+	c #552020",
"g+	c #460404",
"h+	c #610000",
"i+	c #650000",
"j+	c #640000",
"k+	c #3D0F0F",
"l+	c #341A1A",
"m+	c #482822",
"n+	c #CD9A42",
"o+	c #D6A448",
"p+	c #C49641",
"q+	c #AB8234",
"r+	c #8C6926",
"s+	c #DCA749",
"t+	c #E7A942",
"u+	c #E8A73E",
"v+	c #E7A53A",
"w+	c #E6A539",
"x+	c #E6A537",
"y+	c #E6A230",
"z+	c #E4A02A",
"A+	c #E49F29",
"B+	c #E29E29",
"C+	c #E5A029",
"D+	c #B47D21",
"E+	c #5E2F2E",
"F+	c #5D2F2F",
"G+	c #1A0505",
"H+	c #390404",
"I+	c #3A0202",
"J+	c #390101",
"K+	c #3A0303",
"L+	c #260F0C",
"M+	c #653730",
"N+	c #CD9942",
"O+	c #EAB555",
"P+	c #E5B65A",
"Q+	c #DCB058",
"R+	c #CFA44F",
"S+	c #9B762F",
"T+	c #C48F36",
"U+	c #E3A53F",
"V+	c #C18A27",
"W+	c #E49F28",
"X+	c #DF9C28",
"Y+	c #D3962B",
"Z+	c #E09D2A",
"`+	c #D89626",
" @	c #5D3E15",
".@	c #422220",
"+@	c #492523",
"@@	c #4B2624",
"#@	c #492525",
"$@	c #4A2525",
"%@	c #482424",
"&@	c #472323",
"*@	c #462323",
"=@	c #442222",
"-@	c #422020",
";@	c #4E2727",
">@	c #351B18",
",@	c #22140C",
"'@	c #342213",
")@	c #A87932",
"!@	c #D2993D",
"~@	c #CE9E46",
"{@	c #A57C2F",
"]@	c #D79C3B",
"^@	c #B28021",
"/@	c #BE8721",
"(@	c #E29E28",
"_@	c #D69727",
":@	c #C7902B",
"<@	c #CB922C",
"[@	c #D09124",
"}@	c #524103",
"|@	c #5A5444",
"1@	c #5A523E",
"2@	c #997700",
"3@	c #A58400",
"4@	c #AF8C00",
"5@	c #BF9800",
"6@	c #D3A800",
"7@	c #E4B600",
"8@	c #F6BC00",
"9@	c #FCBA00",
"0@	c #ED9A00",
"a@	c #FEC400",
"b@	c #FFD300",
"c@	c #E6E100",
"d@	c #7A5E19",
"e@	c #E7A843",
"f@	c #EAAD49",
"g@	c #BD9343",
"h@	c #B98732",
"i@	c #AD7D20",
"j@	c #B27E1F",
"k@	c #C78B23",
"l@	c #C38822",
"m@	c #BE8521",
"n@	c #BA8221",
"o@	c #B67F20",
"p@	c #B68123",
"q@	c #BF8E30",
"r@	c #C7902D",
"s@	c #AA761B",
"t@	c #E6D18C",
"u@	c #B4A275",
"v@	c #F2C30B",
"w@	c #FFCC00",
"x@	c #FEBB00",
"y@	c #FEA200",
"z@	c #FDA000",
"A@	c #4A2F00",
"B@	c #CFAF49",
"C@	c #FED000",
"D@	c #C1BA00",
"E@	c #625224",
"F@	c #CA8F28",
"G@	c #E6A536",
"H@	c #E7A539",
"I@	c #E8A83F",
"J@	c #E9B150",
"K@	c #B28839",
"L@	c #966D1D",
"M@	c #946A1A",
"N@	c #9D701B",
"O@	c #8F6716",
"P@	c #A7781D",
"Q@	c #A8802F",
"R@	c #BD9542",
"S@	c #BF9947",
"T@	c #BD9949",
"U@	c #B59244",
"V@	c #A38035",
"W@	c #906A22",
"X@	c #CE9934",
"Y@	c #DA9826",
"Z@	c #9D7D00",
"`@	c #BEAB79",
" #	c #BFA361",
".#	c #D9A73C",
"+#	c #F3B94C",
"@#	c #FEC761",
"##	c #F5C05E",
"$#	c #826025",
"%#	c #241F15",
"&#	c #686253",
"*#	c #887C5C",
"=#	c #796926",
"-#	c #CFBF60",
";#	c #3B372D",
">#	c #B0B0B0",
",#	c #D69526",
"'#	c #E5A02A",
")#	c #E6A332",
"!#	c #E7A537",
"~#	c #E7A538",
"{#	c #D7A241",
"]#	c #A88336",
"^#	c #A07F39",
"/#	c #8A641D",
"(#	c #855F17",
"_#	c #896217",
":#	c #987121",
"<#	c #A58439",
"[#	c #B68D37",
"}#	c #E3B553",
"|#	c #EDBF5B",
"1#	c #F1C45F",
"2#	c #EDBE59",
"3#	c #D0A347",
"4#	c #AB7E2A",
"5#	c #DA9827",
"6#	c #E09D28",
"7#	c #A97819",
"8#	c #FDCB00",
"9#	c #DDBE5B",
"0#	c #FCDD97",
"a#	c #FFD26C",
"b#	c #FEDC8E",
"c#	c #FFE7AD",
"d#	c #FFDCA8",
"e#	c #DAC0A1",
"f#	c #333232",
"g#	c #757574",
"h#	c #716751",
"i#	c #FEE6AC",
"j#	c #FFF2D7",
"k#	c #6D6758",
"l#	c #201F1F",
"m#	c #DC9A27",
"n#	c #E19F2C",
"o#	c #CA9D3F",
"p#	c #C39D47",
"q#	c #997326",
"r#	c #A07F35",
"s#	c #A5853C",
"t#	c #A47E2E",
"u#	c #C79F43",
"v#	c #BF8821",
"w#	c #C08825",
"x#	c #C28F30",
"y#	c #A06F19",
"z#	c #E79610",
"A#	c #DF910E",
"B#	c #E5AE00",
"C#	c #FECB00",
"D#	c #E2B400",
"E#	c #BE9E2A",
"F#	c #4B3F23",
"G#	c #EEC464",
"H#	c #FFD77C",
"I#	c #FFC77B",
"J#	c #FEA094",
"K#	c #CCB289",
"L#	c #CAB88B",
"M#	c #FDE5AB",
"N#	c #F3DDA5",
"O#	c #D9C79A",
"P#	c #BE8E88",
"Q#	c #E49C3B",
"R#	c #DF9C27",
"S#	c #B2801F",
"T#	c #AE8024",
"U#	c #B38D3A",
"V#	c #B49140",
"W#	c #B38629",
"X#	c #DE9B28",
"Y#	c #B38125",
"Z#	c #D9A035",
"`#	c #E19D28",
" $	c #A7741A",
".$	c #AA6D00",
"+$	c #F5B600",
"@$	c #F8C600",
"#$	c #EDC02F",
"$$	c #886A14",
"%$	c #231912",
"&$	c #A08458",
"*$	c #E9BA56",
"=$	c #D2A74D",
"-$	c #A78947",
";$	c #CEB06B",
">$	c #FDDD93",
",$	c #FDDE96",
"'$	c #DFC892",
")$	c #FDE09B",
"!$	c #C1AC7A",
"~$	c #B78335",
"{$	c #976D1B",
"]$	c #DC9A29",
"^$	c #A87D2A",
"/$	c #E4A22E",
"($	c #946616",
"_$	c #FD9F00",
":$	c #FEB000",
"<$	c #D3AE5A",
"[$	c #D5B18C",
"}$	c #D9B48D",
"|$	c #3A1C1C",
"1$	c #DBB691",
"2$	c #614E32",
"3$	c #B1916A",
"4$	c #2E2401",
"5$	c #DF9B28",
"6$	c #936619",
"7$	c #C18621",
"8$	c #E39F29",
"9$	c #DA9928",
"0$	c #9E7628",
"a$	c #E39F28",
"b$	c #B87F1D",
"c$	c #A36905",
"d$	c #FC9E00",
"e$	c #EE9806",
"f$	c #C0A88F",
"g$	c #D8BC9F",
"h$	c #937A62",
"i$	c #462A24",
"j$	c #6E5A47",
"k$	c #391B12",
"l$	c #542D22",
"m$	c #1D0303",
"n$	c #D69627",
"o$	c #A27624",
"p$	c #7A5411",
"q$	c #A46A04",
"r$	c #908263",
"s$	c #907E57",
"t$	c #AA8D6F",
"u$	c #1A0606",
"v$	c #320706",
"w$	c #321713",
"x$	c #83674E",
"y$	c #BD8320",
"z$	c #DD9A27",
"A$	c #B07C21",
"B$	c #A57722",
"C$	c #D39325",
"D$	c #C4A87D",
"E$	c #FDE2A3",
"F$	c #DAB35E",
"G$	c #361818",
"H$	c #100606",
"I$	c #090404",
"J$	c #38271E",
"K$	c #553909",
"L$	c #DB9926",
"M$	c #DB9927",
"N$	c #AC7B23",
"O$	c #BB9442",
"P$	c #C2963D",
"Q$	c #C58A23",
"R$	c #9F6C19",
"S$	c #956A53",
"T$	c #FFE7AE",
"U$	c #56312D",
"V$	c #251212",
"W$	c #472424",
"X$	c #2D1717",
"Y$	c #4A3107",
"Z$	c #AF7C1E",
"`$	c #CA8E23",
" %	c #BD8721",
".%	c #D39425",
"+%	c #A67823",
"@%	c #C29943",
"#%	c #DAA43C",
"$%	c #D6A136",
"%%	c #C3912E",
"&%	c #C68E28",
"*%	c #D69824",
"=%	c #D79824",
"-%	c #DC9B26",
";%	c #571E1A",
">%	c #592E2D",
",%	c #251313",
"'%	c #2C1C03",
")%	c #BB8420",
"!%	c #D09224",
"~%	c #A1731B",
"{%	c #A57926",
"]%	c #BC953E",
"^%	c #D2A036",
"/%	c #D29725",
"(%	c #D09624",
"_%	c #CB962A",
":%	c #C18F28",
"<%	c #C7932A",
"[%	c #CB9322",
"}%	c #CC9322",
"|%	c #CF9523",
"1%	c #D39724",
"2%	c #9B6B1C",
"3%	c #350505",
"4%	c #620000",
"5%	c #360000",
"6%	c #190C0C",
"7%	c #402121",
"8%	c #422121",
"9%	c #381B1B",
"0%	c #1B1715",
"a%	c #E39E28",
"b%	c #825C16",
"c%	c #87611B",
"d%	c #A38136",
"e%	c #C0963B",
"f%	c #CF9C30",
"g%	c #CA9324",
"h%	c #C89326",
"i%	c #CA9322",
"j%	c #CE9422",
"k%	c #986C1A",
"l%	c #2F1D1C",
"m%	c #3F1C1C",
"n%	c #341313",
"o%	c #462424",
"p%	c #4B2828",
"q%	c #231212",
"r%	c #4A3418",
"s%	c #CD8F24",
"t%	c #BA9B4D",
"u%	c #B28E3E",
"v%	c #AC8432",
"w%	c #BC9034",
"x%	c #CE9A2C",
"y%	c #A2782C",
"z%	c #F5DFA7",
"A%	c #554535",
"B%	c #3A2121",
"C%	c #522A2A",
"D%	c #422525",
"E%	c #502929",
"F%	c #946927",
"G%	c #AB8532",
"H%	c #B68A2E",
"I%	c #B28427",
"J%	c #BC8923",
"K%	c #CA9222",
"L%	c #D0B274",
"M%	c #F9D88B",
"N%	c #997228",
"O%	c #8C6417",
"P%	c #392A20",
"Q%	c #745A48",
"R%	c #402B25",
"S%	c #815A14",
"T%	c #CC8F23",
"U%	c #E29E27",
"V%	c #DE9C27",
"W%	c #DB9A25",
"X%	c #D69724",
"Y%	c #B17F1E",
"Z%	c #B9851F",
"`%	c #BC881F",
" &	c #5F401E",
".&	c #ECD49D",
"+&	c #FCE4AC",
"@&	c #A18049",
"#&	c #C38D20",
"$&	c #968458",
"%&	c #FEE2A3",
"&&	c #FCE5AB",
"*&	c #836B40",
"=&	c #D39623",
"-&	c #D99925",
";&	c #E09D27",
">&	c #DF9C26",
",&	c #DB9A26",
"'&	c #D59724",
")&	c #D39723",
"!&	c #D19623",
"~&	c #D09523",
"{&	c #CD9422",
"]&	c #CD9322",
"^&	c #B07E1E",
"/&	c #513811",
"(&	c #512928",
"_&	c #695040",
":&	c #F6E1B3",
"<&	c #BD8A2D",
"[&	c #B8AEA4",
"}&	c #6F6857",
"|&	c #FEE4A8",
"1&	c #B9A17E",
"2&	c #C08A20",
"3&	c #AA7A1C",
"4&	c #805A1B",
"5&	c #3E1F1F",
"6&	c #3F2020",
"7&	c #502928",
"8&	c #8F6623",
"9&	c #B98828",
"0&	c #482A1F",
"a&	c #62463A",
"b&	c #AE9371",
"c&	c #906F3E",
"d&	c #C28D20",
"e&	c #C48D20",
"f&	c #C48E20",
"g&	c #C48F21",
"h&	c #C68F21",
"i&	c #C69021",
"j&	c #C79021",
"k&	c #C89121",
"l&	c #C99121",
"m&	c #B6841D",
"n&	c #996E19",
"o&	c #452421",
"p&	c #512929",
"q&	c #512B29",
"r&	c #3B231F",
"s&	c #9C7019",
"t&	c #C99122",
"u&	c #C58F21",
"v&	c #BF8A1F",
"w&	c #B4821D",
"x&	c #341919",
"y&	c #4F2828",
"z&	c #876113",
"A&	c #8A6314",
"B&	c #866013",
"C&	c #896213",
"D&	c #8A6414",
"E&	c #8B6414",
"F&	c #8F6714",
"G&	c #906715",
"H&	c #946B16",
"I&	c #976D17",
"J&	c #9A6F17",
"K&	c #996E17",
"L&	c #A47619",
"M&	c #AE7E1C",
"N&	c #B5831D",
"O&	c #C28C20",
"P&	c #AF7D1E",
"Q&	c #B4811E",
"R&	c #C89021",
"S&	c #B7841E",
"T&	c #AF7E1D",
"U&	c #8C6418",
"V&	c #8F661A",
"W&	c #A97A1A",
"X&	c #8D6615",
"Y&	c #68490E",
"Z&	c #47281E",
"`&	c #412020",
" *	c #351A1A",
".*	c #1F1108",
"+*	c #1A1001",
"@*	c #160D01",
"#*	c #120A01",
"$*	c #100800",
"%*	c #120A00",
"&*	c #140B01",
"**	c #180F01",
"=*	c #1D1201",
"-*	c #211602",
";*	c #271902",
">*	c #261902",
",*	c #3A2704",
"'*	c #4E3707",
")*	c #61450B",
"!*	c #76540F",
"~*	c #9B6F17",
"{*	c #976C18",
"]*	c #9F731B",
"^*	c #8F6818",
"/*	c #956C1A",
"(*	c #AE7D1E",
"_*	c #CA9221",
":*	c #694918",
"<*	c #5C2E2E",
"[*	c #5B3127",
"}*	c #493206",
"|*	c #241702",
"1*	c #2D1616",
"2*	c #532A2A",
"3*	c #4B2525",
"4*	c #2A1212",
"5*	c #000000",
"6*	c #010100",
"7*	c #050200",
"8*	c #100801",
"9*	c #211502",
"0*	c #3B2904",
"a*	c #503808",
"b*	c #65480D",
"c*	c #7E5A13",
"d*	c #8D6617",
"e*	c #805B14",
"f*	c #926919",
"g*	c #B8851E",
"h*	c #9B7018",
"i*	c #2D1615",
"j*	c #5A2D2D",
"k*	c #030100",
"l*	c #010000",
"m*	c #321818",
"n*	c #4D2727",
"o*	c #603030",
"p*	c #070303",
"q*	c #090400",
"r*	c #352304",
"s*	c #573D0A",
"t*	c #715010",
"u*	c #694B0E",
"v*	c #8D6717",
"w*	c #AD7C1E",
"x*	c #B9851E",
"y*	c #BB871F",
"z*	c #9F7318",
"A*	c #7C5810",
"B*	c #412C07",
"C*	c #592C2C",
"D*	c #0A0404",
"E*	c #1E0D0D",
"F*	c #572C2C",
"G*	c #180E01",
"H*	c #382604",
"I*	c #533A09",
"J*	c #473307",
"K*	c #986D1A",
"L*	c #CA9122",
"M*	c #986D17",
"N*	c #6D4D0D",
"O*	c #3A2804",
"P*	c #100804",
"Q*	c #2E1616",
"R*	c #1B0B0B",
"S*	c #2D1515",
"T*	c #020100",
"U*	c #100901",
"V*	c #2D1D03",
"W*	c #422E05",
"X*	c #211401",
"Y*	c #8F6518",
"Z*	c #9F721B",
"`*	c #AF7E1E",
" =	c #A4751B",
".=	c #8D6416",
"+=	c #704F0F",
"@=	c #463006",
"#=	c #1F1301",
"$=	c #060300",
"%=	c #170D01",
"&=	c #2E1E03",
"*=	c #2D1E03",
"==	c #0B0300",
"-=	c #8F6717",
";=	c #9D711B",
">=	c #AB7B1D",
",=	c #8D6517",
"'=	c #6E4E0F",
")=	c #4B3407",
"!=	c #2B1C02",
"~=	c #130B01",
"{=	c #040200",
"]=	c #080400",
"^=	c #190F01",
"/=	c #2B1C03",
"(=	c #2F1F03",
"_=	c #130700",
":=	c #906717",
"<=	c #946A19",
"[=	c #A5771D",
"}=	c #A1741C",
"|=	c #976D19",
"1=	c #845F15",
"2=	c #705010",
"3=	c #593F0B",
"4=	c #3F2B05",
"5=	c #2B1D03",
"6=	c #1C1201",
"7=	c #040300",
"8=	c #0C0600",
"9=	c #3A2604",
"0=	c #332203",
"a=	c #170900",
"b=	c #93681A",
"c=	c #92671A",
"d=	c #8F6519",
"e=	c #8A6118",
"f=	c #7F5915",
"g=	c #735012",
"h=	c #66470F",
"i=	c #573C0B",
"j=	c #4A3208",
"k=	c #402B06",
"l=	c #382605",
"m=	c #302004",
"n=	c #312004",
"o=	c #2F1E03",
"p=	c #301F04",
"q=	c #2F1E02",
"r=	c #291B03",
"s=	c #291A03",
"t=	c #2C1D03",
"u=	c #302003",
"v=	c #3B2805",
"w=	c #412D05",
"x=	c #3C2904",
"                                                                                                    ",
"        . + @ # $ $ $ $ $ $ $ $ $ $ $ $ $ $ $ $ $ $ $ $ $ $ $ % & * $ $ $ $ $ $ $ $ = - ; >         ",
"    , ' ) ! ! ! ! ! ! ! ! ! ! ! ! ! ! ! ! ! ! ! ! ! ! ! ! ! ~ { ] ! ! ! ! ! ! ! ! ! ! ! ! ^ /       ",
"  ( _ ! ! ! ! : < [ [ [ [ [ [ [ [ [ [ [ [ [ [ [ [ [ [ [ [ [ } } [ [ [ [ [ [ [ [ [ | 1 ! ! ! 2 /     ",
"  3 ! ! ! 1 4 5 6 7 8 8 8 8 8 8 8 8 8 8 8 8 8 8 8 8 8 8 8 8 8 8 8 8 8 8 8 8 8 8 9 0 a b ! ! ! c d   ",
"e f ! ! 1 g 7 h i j k k k k k k k k k k k k k k k k k k k k k k k k k k k k k k l m n o p ! ! ! +   ",
"q ! ! r s t u v v v v v v v v v v v v v v v v v v v v v v v v v v v v v v v v v v v v w x y ! ! z   ",
"A ! ! B C D v v v v v v v v v v v v v v v v v v v E F G H I J K L v v v v v v v v v v v M N | ! O P ",
"Q ! ! R S v v v v T T T v v v v v v v v v v v U V W X Y Z `  ...+.F v v v v v v v v v v v @.#.! 2 $.",
"Q ! ! %.v v v v T &.*.=.v v v v v v v v v v v -.;.` ` ` ` ` >.,.'.).E v v v v v v v v v v !.#.! 2 $.",
"Q ! ! ~.v v v v T {.].^.v v v v v v v v v v /.(.` ` ` ` ` ` ` .._._.:.v v v v <.T v v v v [.}.! 2 $.",
"Q ! ! |.v v v v T 1.2.3.v v v v v v v v v 4.5.` ` ` ` ` ` ` ` 6.7.8.(.9.v v v 0.a.v v v v b.}.! 2 $.",
"Q ! ! |.v v v v v v v v v v v v v v v v v c.d.` ` ` ` ` ` ` ` ` e.f.;.g.G v v v v v v v v b.}.! 2 $.",
"Q ! ! |.v v v v v v v v v v v v v v v v v h.` ` ` ` ` ` ` ` ` ` ` ` ` f.i.v v v v v v v v j.k.# l.m.",
"Q ! ! |.v v v v v v v v v v v v v v v v v n.` o.p.q.r.` ` ` ` ` ` ` ` ` s.v v v v v v v <.t.u.v.w.x.",
"Q ! ! |.T <.y.v v v v v v v v v v v z.A.B.C.` D.E.F.G.H.H.H.H.H.I.o.J.r.K.L.M.N.i.v v T O.P.Q.R.S.T.",
"Q ! ! |.T U.V.v v v v v v v z.T T W.X.Y.Z.` ` ` ` ` `. +.+++@+#+$+%+&+*+=+-+-+;+L v T >+,+'+)+!+~+{+",
"Q ! ! |.v v v v v v ]+T T ^+/+(+_+:+` ` ` ` ` ` ` ` <+[+}+|+|+|+|+|+|+|+1+-+2+3+4+5+6+7+8+9+}.! 2 $.",
"Q ! ! |.v v ]+T T ^+/+0+a+b+c+d+e+I.` ` ` ` ` ` ` ` ` ;.f+g+h+i+i+i+j+j+k+l+m+n+o+p+q+r+s+t+}.! 2 $.",
"Q ! ! |.T ^+u+v+w+x+y+z+A+B+C+C+D+E+J.H.H.H.H.H.H.H.H.H.H.f.F+G+H+I+J+K+L+M+N+O+P+Q+R+S+T+U+}.! 2 $.",
"Q ! ! V+w+x+y+C+C+C+W+X+Y+Z+C+C+`+ @.@+@@@#@$@$@#@%@%@&@*@=@-@*@;@>@,@'@)@!@v v v v v ~@{@]@^@! 2 $.",
"Q ! ! /@C+C+C+C+C+(@_@:@<@C+C+C+C+C+C+[@}@|@1@2@3@4@5@6@7@8@9@0@a@b@c@d@e@v v v v v v f@g@h@i@! 2 $.",
"Q ! ! j@k@l@m@n@o@p@q@r@C+C+C+C+C+C+C+s@t@u@v@w@w@w@x@y@y@z@A@B@C@D@E@F@G@H@I@T v v v v J@K@L@M@N@O@",
"Q P@M@Q@R@S@T@U@V@W@X@C+C+C+C+C+C+C+Y@Z@`@ #.#+#@#@###$#%#&#*#=#-#;#>#,#C+'#)#!#~#~#~#~#a+{#]#^#/#(#",
"_#:#<#[#}#|#1#2#3#4#C+C+C+C+C+5#A+6#7#8#9#0#a#b#c#d#e#f#g#h#i#j#c#k#l#m#C+C+C+C+C+C+C+C+'#n#o#p#q#r#",
"s#t#u#v#C+C+C+6#w#x#C+C+C+C+C+y#z#A#B#C#D#E#F#G#H#I#J#K#L#M#N#c#i#O#P#Q#C+C+C+C+C+C+C+C+C+R#S#! T#U#",
"V#W#! /@C+C+C+X#Y#Z#C+C+C+C+`# $.$+$C#w@@$#$$$%$&$*$=$-$;$>$,$'$)$!$~$C+C+C+C+C+C+C+C+C+C+R#S#! 2 $.",
"{$! ! /@C+C+C+]$^$/$C+C+C+C+6#($_$_$:$C#<$[$}$|$1$2$3$4$5$m#m@6$7$8$C+C+C+C+C+C+C+C+C+C+C+R#S#! 2 $.",
"Q ! ! /@C+C+W+9$0$C+C+C+C+C+W+a$b$c$d$e$f$g$h$i$j$k$l$m$C+C+C+C+C+C+C+C+C+C+C+C+C+C+C+C+C+R#S#! 2 $.",
"Q ! ! /@C+C+W+n$o$C+C+C+C+C+C+C+C+,#p$q$r$s$t$u$v$w$x$y$C+C+C+C+C+C+C+C+C+C+C+C+C+C+C+C+C+R#S#! 2 $.",
"Q ! ! /@C+W+z$A$B$C+C+C+C+C+C+C+C+C+A+C$D$E$F$G$H$I$J$K$C+C+C+C+C+C+C+C+C+C+C+L$`#C+C+C+C+R#S#! 2 $.",
"Q ! ! /@W+M$N$O$P$Q$C+C+C+C+C+C+C+C+C+R$S$T$U$V$W$*@X$Y$C+C+C+C+C+C+C+C+C+C+[@Z$`$(@C+C+C+R#S#! 2 $.",
"Q ! !  %.%+%@%#%$%%%&%*%*%=%-%a$C+C+M$i+h+;%>%,%%@=@l+'%C+C+C+C+C+C+C+C+C+C+,#)%!%(@C+C+C+R#S#! 2 $.",
"Q ) ~%- {%]%^%/%(%_%:%<%[%}%|%1%=%-%2%3%4%5%6%7%X$8%9%0%(@C+C+C+C+C+C+C+C+C+a%m#`#W+C+C+C+R#S#! 2 $.",
"b%(#c%d%e%f%[%[%[%[%g%h%i%[%[%[%}%j%k%l%m%n%o%p%W$q%r%s%C+C+C+C+C+C+C+C+C+C+C+C+C+C+C+C+C+R#S#! 2 $.",
"t%u%v%w%x%[%[%[%[%[%i%i%i%[%[%[%[%[%y%z%A%B%C%D%E%D.F%C+C+C+C+C+C+C+C+C+C+C+C+C+C+C+C+C+C+R#S#! 2 $.",
"G%H%I%J%[%[%[%[%[%[%[%[%[%[%[%[%[%K%L%M#M%N%O%P%Q%R%S%T%W+C+C+C+C+C+C+C+C+C+C+C+C+C+U%V%W%X%Y%! 2 $.",
"Q ! ! Z%[%[%[%[%[%[%[%[%[%[%[%[%`% &.&+&@&[%#&$&%&&&*&Y%=&-&;&W+C+C+C+U%>&,&=%'&)&!&~&|%{&]&^&! 2 $.",
"Q ! ! Z%[%[%[%[%[%[%[%[%[%[%[%[%/&(&_&:&<&[%[&}&|&i#1&2&[%{&~&1%'&1%!&~&|%j%]&}%[%[%[%[%[%[%^&! 2 $.",
"Q ! ! Z%[%[%[%[%[%[%[%[%[%K%3&4&5&6&7&8&[%#&9&0&a&b&c&d&#&e&f&g&h&h&h&h&h&i&j&k&l&K%K%[%[%[%^&! 2 $.",
"Q ! ! Z%[%[%[%[%[%[%[%j&m&n&o&p&q&r&s&t&u&v&w&x&E%y&z&A&B&z&B&C&D&E&F&G&H&I&J&K&L&M&N&`%O&i&P&! 2 $.",
"Q ! ! Q&[%[%[%[%[%[%[%R&S&T&U&W$p&(&V&W&X&Y&Z&`& *.*+*@*#*#*$*#*%*&*@***=*-*;*>*,*'*)*!*A&~*{*]*# ^*",
"/*! ! (*j&[%[%[%[%[%[%_*j&h&l&:*y&<*[*}*|*1*p&C%2*3*4*5*5*5*5*5*5*5*5*5*5*5*5*5*6*7*8*9*0*a*b*c*d*e*",
"f*! ! ! S&[%[%[%[%[%[%[%[%j&g*h*i*j*I.k*l*m*#@n*C%o*I.p*5*5*5*5*5*5*5*5*5*5*5*5*5*5*5*l*q*+*r*s*t*u*",
"v*c ! ! w*x*[%[%[%[%[%[%l&y*z*A*B*=@C*5*5*5*D*E*m*%@F*C*5*5*5*5*5*5*5*5*5*5*5*5*5*5*5*5*5*7*G*H*I*J*",
"  K*! ! ! w*Q&2&L*[%[%[%j&S&M*N*O*P*Q*5*5*5*5*5*5*l*R*S*5*5*5*5*5*5*5*5*5*5*5*5*5*5*5*5*5*T*U*V*W*X*",
"  Y*Z*! ! ! ! (*`*^&^&^&(* =.=+=@=#=$=l*5*5*5*5*5*5*5*5*5*5*5*5*5*5*5*5*5*5*5*5*5*5*5*5*5*7*%=&=*===",
"    -=;=>=! ! ! ! ! ! ! ! ) Z*,='=)=!=~={=l*5*5*5*5*5*5*5*5*5*5*5*5*5*5*5*5*5*5*5*5*5*6*]=^=/=(=_=  ",
"      :=<=- # O O O O O O O [=}=|=1=2=3=4=5=6=8*q*7*{=k*k*T*T*T*6*T*k*T*T*T*k*7=$=8=&*9*V*9=0=a=    ",
"              b=b=b=b=b=b=b=b=b=c=d=e=f=g=h=i=j=k=l=r*m=n=o=p=q=r=s=o=t=t='%t=&=u=r*v=w=x=          "};
