/* XPM */
static char * !_xpm[] = {
"50 50 654 2",
"  	c #000000",
". 	c #02CF1A",
"+ 	c #03FC22",
"@ 	c #02B916",
"# 	c #0D0C09",
"$ 	c #231F18",
"% 	c #0C0A07",
"& 	c #3C372A",
"* 	c #040403",
"= 	c #302C22",
"- 	c #484234",
"; 	c #030202",
"> 	c #221F18",
", 	c #4E4739",
"' 	c #4B4436",
") 	c #030302",
"! 	c #13110D",
"~ 	c #1C1A13",
"{ 	c #453E31",
"] 	c #554E3F",
"^ 	c #4C4536",
"/ 	c #060504",
"( 	c #2E291E",
"_ 	c #0E0C09",
": 	c #050503",
"< 	c #1D1A14",
"[ 	c #3D372B",
"} 	c #524B3D",
"| 	c #524B3C",
"1 	c #4D4636",
"2 	c #080806",
"3 	c #352F23",
"4 	c #2F291E",
"5 	c #292317",
"6 	c #2B2418",
"7 	c #231F14",
"8 	c #252117",
"9 	c #2A251B",
"0 	c #3C362A",
"a 	c #443E30",
"b 	c #534D3F",
"c 	c #4D4637",
"d 	c #0A0907",
"e 	c #363024",
"f 	c #373125",
"g 	c #3C3528",
"h 	c #4A4332",
"i 	c #5C523C",
"j 	c #534932",
"k 	c #312A18",
"l 	c #030303",
"m 	c #484848",
"n 	c #969696",
"o 	c #BBBBBB",
"p 	c #B0B0B0",
"q 	c #7A7A7A",
"r 	c #242424",
"s 	c #181409",
"t 	c #3B341F",
"u 	c #5C5237",
"v 	c #615740",
"w 	c #4B4332",
"x 	c #40392B",
"y 	c #453E30",
"z 	c #403A2C",
"A 	c #453F31",
"B 	c #4A4436",
"C 	c #484233",
"D 	c #4B4435",
"E 	c #0F0C09",
"F 	c #3D3629",
"G 	c #453E2E",
"H 	c #574E3A",
"I 	c #73684D",
"J 	c #897C5D",
"K 	c #968861",
"L 	c #867A59",
"M 	c #A6A39E",
"N 	c #EFEFEF",
"O 	c #F7F7F7",
"P 	c #FBFBFB",
"Q 	c #F8F8F8",
"R 	c #F0F0F0",
"S 	c #E0DFDB",
"T 	c #B1AA94",
"U 	c #887C5E",
"V 	c #675E45",
"W 	c #4F4735",
"X 	c #4D4635",
"Y 	c #514A39",
"Z 	c #463F30",
"` 	c #3D372A",
" .	c #443E31",
"..	c #433D2F",
"+.	c #463F31",
"@.	c #2D2718",
"#.	c #3B3527",
"$.	c #4A4333",
"%.	c #605946",
"&.	c #6B624E",
"*.	c #696049",
"=.	c #655C45",
"-.	c #72674D",
";.	c #8A7E5F",
">.	c #C6C0B3",
",.	c #EDEDED",
"'.	c #FDFDFD",
").	c #FFFFFF",
"!.	c #FEFEFE",
"~.	c #FAFAFA",
"{.	c #DEDDDC",
"].	c #807A6A",
"^.	c #655B44",
"/.	c #675D45",
"(.	c #645B44",
"_.	c #5C543E",
":.	c #514937",
"<.	c #494232",
"[.	c #3A3427",
"}.	c #3F392B",
"|.	c #4C432D",
"1.	c #464033",
"2.	c #7F796C",
"3.	c #B3AFA4",
"4.	c #C1BDB3",
"5.	c #AFA999",
"6.	c #948B72",
"7.	c #887D5E",
"8.	c #968E78",
"9.	c #DCDBDA",
"0.	c #F3F3F3",
"a.	c #FCFCFC",
"b.	c #F6F6F7",
"c.	c #E7E7E7",
"d.	c #C7C5BF",
"e.	c #8C8061",
"f.	c #85795A",
"g.	c #7B7054",
"h.	c #6F654B",
"i.	c #625942",
"j.	c #544C39",
"k.	c #403A2B",
"l.	c #393326",
"m.	c #383226",
"n.	c #040405",
"o.	c #060607",
"p.	c #040404",
"q.	c #010101",
"r.	c #574E38",
"s.	c #807C73",
"t.	c #E4E3E2",
"u.	c #F2F2F1",
"v.	c #CFCBC2",
"w.	c #A89D7F",
"x.	c #BCB7A7",
"y.	c #E0E0DF",
"z.	c #F4F4F4",
"A.	c #F2F2F2",
"B.	c #C5C7C9",
"C.	c #BCBDBF",
"D.	c #DFE0E0",
"E.	c #D7D7D7",
"F.	c #988B67",
"G.	c #8C805F",
"H.	c #7F7456",
"I.	c #71664C",
"J.	c #504936",
"K.	c #443D2E",
"L.	c #352F24",
"M.	c #0F1112",
"N.	c #272A2B",
"O.	c #333537",
"P.	c #1D1F20",
"Q.	c #0D0F0F",
"R.	c #625B47",
"S.	c #CCCBCA",
"T.	c #F6F7F7",
"U.	c #DFE0E1",
"V.	c #DBDBDB",
"W.	c #B2AB99",
"X.	c #C1BDB4",
"Y.	c #DCDCDC",
"Z.	c #E3E3E3",
"`.	c #818486",
" +	c #4D5356",
".+	c #B1B2B4",
"++	c #D4D4D4",
"@+	c #B4AA90",
"#+	c #A3956E",
"$+	c #8B7F5E",
"%+	c #7D7254",
"&+	c #6D644A",
"*+	c #5E553F",
"=+	c #4D4534",
"-+	c #3E372A",
";+	c #02CE19",
">+	c #01B816",
",+	c #0C0D0D",
"'+	c #3F4244",
")+	c #999B9C",
"!+	c #AEAFB0",
"~+	c #6E7172",
"{+	c #292C2D",
"]+	c #111314",
"^+	c #29251A",
"/+	c #716A58",
"(+	c #DADADA",
"_+	c #F5F5F5",
":+	c #DDDDDE",
"<+	c #888B8D",
"[+	c #A0A2A4",
"}+	c #A7A39A",
"|+	c #B9B6AD",
"1+	c #D5D5D4",
"2+	c #E8E8E8",
"3+	c #E7E8E8",
"4+	c #C1C3C4",
"5+	c #8E8E8F",
"6+	c #383A3B",
"7+	c #282E32",
"8+	c #85888A",
"9+	c #CCCCCC",
"0+	c #B4A98C",
"a+	c #A99A73",
"b+	c #A0936D",
"c+	c #948864",
"d+	c #857A5A",
"e+	c #766B4F",
"f+	c #534B38",
"g+	c #423B2C",
"h+	c #373124",
"i+	c #02C618",
"j+	c #01AF14",
"k+	c #1E2122",
"l+	c #6E7173",
"m+	c #C7C9CA",
"n+	c #D5D6D7",
"o+	c #A5A8A9",
"p+	c #494D4F",
"q+	c #1E2123",
"r+	c #191917",
"s+	c #4C473A",
"t+	c #CFCECE",
"u+	c #E5E5E5",
"v+	c #CBCCCD",
"w+	c #676B6D",
"x+	c #34383B",
"y+	c #7E8183",
"z+	c #928E85",
"A+	c #A8A292",
"B+	c #CCCCCB",
"C+	c #C9CBCC",
"D+	c #616669",
"E+	c #363B3E",
"F+	c #212629",
"G+	c #2A3135",
"H+	c #989A9B",
"I+	c #C8C7C5",
"J+	c #A99B78",
"K+	c #AC9D75",
"L+	c #A4966F",
"M+	c #998C67",
"N+	c #8A7E5D",
"O+	c #7A6E52",
"P+	c #695F47",
"Q+	c #574F3B",
"R+	c #383225",
"S+	c #02BC17",
"T+	c #01A313",
"U+	c #26292B",
"V+	c #696C6E",
"W+	c #B0B3B4",
"X+	c #BCBFC0",
"Y+	c #9C9FA2",
"Z+	c #525759",
"`+	c #272B2D",
" @	c #151718",
".@	c #151411",
"+@	c #A09C94",
"@@	c #C9CACA",
"#@	c #86888A",
"$@	c #74787A",
"%@	c #A1A1A1",
"&@	c #86806F",
"*@	c #8F856C",
"=@	c #C3C2BE",
"-@	c #CFCFCF",
";@	c #D6D6D7",
">@	c #989B9C",
",@	c #4C5154",
"'@	c #43494D",
")@	c #C0C0C1",
"!@	c #AFAA99",
"~@	c #A69871",
"{@	c #AC9E75",
"]@	c #A59670",
"^@	c #998C68",
"/@	c #8A7E5E",
"(@	c #7A6F52",
"_@	c #6A6047",
":@	c #574E3B",
"<@	c #01B416",
"[@	c #019810",
"}@	c #222527",
"|@	c #42474A",
"1@	c #7E8385",
"2@	c #959B9D",
"3@	c #777C7E",
"4@	c #4A4F51",
"5@	c #2D3132",
"6@	c #181B1C",
"7@	c #090A0A",
"8@	c #494437",
"9@	c #B1ACA1",
"0@	c #CECDCC",
"a@	c #CECECE",
"b@	c #B8B6B4",
"c@	c #888376",
"d@	c #91886F",
"e@	c #998E73",
"f@	c #8D8673",
"g@	c #CDCCCA",
"h@	c #CDCDCD",
"i@	c #D0D0D0",
"j@	c #CACBCB",
"k@	c #C7C7C7",
"l@	c #B8B4AA",
"m@	c #988C6B",
"n@	c #AB9C74",
"o@	c #AA9C74",
"p@	c #A2946E",
"q@	c #968865",
"r@	c #877A5B",
"s@	c #776C51",
"t@	c #665D45",
"u@	c #544C38",
"v@	c #383125",
"w@	c #01A813",
"x@	c #018A0D",
"y@	c #181C1D",
"z@	c #303436",
"A@	c #474D50",
"B@	c #575E60",
"C@	c #565C5E",
"D@	c #44494B",
"E@	c #2C3133",
"F@	c #191C1D",
"G@	c #181713",
"H@	c #9D9277",
"I@	c #958B72",
"J@	c #8C836D",
"K@	c #8B8269",
"L@	c #9D9376",
"M@	c #A89C7E",
"N@	c #A99D7D",
"O@	c #A09372",
"P@	c #94896D",
"Q@	c #BCB8AD",
"R@	c #D3D2D0",
"S@	c #D1D1CF",
"T@	c #D2D1D0",
"U@	c #CDCCC7",
"V@	c #ADA796",
"W@	c #998C6C",
"X@	c #A89A72",
"Y@	c #A5966F",
"Z@	c #9B8D68",
"`@	c #8E8160",
" #	c #7F7356",
".#	c #5F5640",
"+#	c #4D4634",
"@#	c #3E3729",
"##	c #3B3426",
"$#	c #019C11",
"%#	c #017A0B",
"&#	c #0D0E0F",
"*#	c #33383A",
"=#	c #404547",
"-#	c #424749",
";#	c #363B3D",
">#	c #16191A",
",#	c #08090A",
"'#	c #776E57",
")#	c #94896C",
"!#	c #9B9072",
"~#	c #A09374",
"{#	c #A39776",
"]#	c #A79A76",
"^#	c #AB9E77",
"/#	c #AEA078",
"(#	c #A1946E",
"_#	c #9E9170",
":#	c #A59B7E",
"<#	c #A2987A",
"[#	c #9D906D",
"}#	c #AA9B73",
"|#	c #A3956F",
"1#	c #9B8D69",
"2#	c #8F8261",
"3#	c #817658",
"4#	c #73694E",
"5#	c #554C39",
"6#	c #3A3327",
"7#	c #2B2517",
"8#	c #018E0F",
"9#	c #006A08",
"0#	c #151618",
"a#	c #212425",
"b#	c #292D2F",
"c#	c #2C3032",
"d#	c #262A2C",
"e#	c #1C1F21",
"f#	c #111214",
"g#	c #040303",
"h#	c #4F4937",
"i#	c #70674D",
"j#	c #7D7356",
"k#	c #928563",
"l#	c #9A8D68",
"m#	c #A99A72",
"n#	c #A99B73",
"o#	c #A79871",
"p#	c #9D8F6B",
"q#	c #958865",
"r#	c #484130",
"s#	c #3D3729",
"t#	c #342D22",
"u#	c #0D0A04",
"v#	c #01800D",
"w#	c #005505",
"x#	c #080809",
"y#	c #121415",
"z#	c #1A1D1F",
"A#	c #181A1C",
"B#	c #090A0B",
"C#	c #0A0909",
"D#	c #5C533E",
"E#	c #685E46",
"F#	c #73684E",
"G#	c #7D7255",
"H#	c #877B5B",
"I#	c #8E8260",
"J#	c #948764",
"K#	c #988B68",
"L#	c #9B8E6A",
"M#	c #9D906B",
"N#	c #9C8F6A",
"O#	c #9A8C68",
"P#	c #968965",
"Q#	c #918462",
"R#	c #7A7053",
"S#	c #746A4F",
"T#	c #6D634A",
"U#	c #615841",
"V#	c #1E1A14",
"W#	c #00710A",
"X#	c #003201",
"Y#	c #0A0B0C",
"Z#	c #0D0E0E",
"`#	c #0B0C0D",
" $	c #070808",
".$	c #020202",
"+$	c #222220",
"@$	c #413A2C",
"#$	c #70664B",
"$$	c #827658",
"%$	c #877C5B",
"&$	c #867A5B",
"*$	c #837759",
"=$	c #796F53",
"-$	c #58513C",
";$	c #3D3628",
">$	c #302A1F",
",$	c #080705",
"'$	c #005C07",
")$	c #03F922",
"!$	c #010202",
"~$	c #070707",
"{$	c #0A0B0B",
"]$	c #080808",
"^$	c #1B1C1B",
"/$	c #36332B",
"($	c #3A3326",
"_$	c #433C2D",
":$	c #524A36",
"<$	c #58503B",
"[$	c #5E5540",
"}$	c #645A44",
"|$	c #685E47",
"1$	c #6B6148",
"2$	c #6C6349",
"3$	c #6D6349",
"4$	c #6C6249",
"5$	c #696047",
"6$	c #635A44",
"7$	c #423D2D",
"8$	c #312C1E",
"9$	c #32301C",
"0$	c #48422D",
"a$	c #3B3427",
"b$	c #181510",
"c$	c #010000",
"d$	c #003D04",
"e$	c #03F320",
"f$	c #020303",
"g$	c #121313",
"h$	c #131413",
"i$	c #2E2B24",
"j$	c #363125",
"k$	c #3B3428",
"l$	c #3C3529",
"m$	c #484131",
"n$	c #4C4533",
"o$	c #4F4736",
"p$	c #524937",
"q$	c #524A37",
"r$	c #494431",
"s$	c #45402C",
"t$	c #423C28",
"u$	c #45462A",
"v$	c #4C4E2B",
"w$	c #595C2F",
"x$	c #626332",
"y$	c #5B6135",
"z$	c #44442B",
"A$	c #221E17",
"B$	c #060503",
"C$	c #0B0907",
"D$	c #403A2D",
"E$	c #423C2F",
"F$	c #423B2E",
"G$	c #40392C",
"H$	c #3F382A",
"I$	c #3E382A",
"J$	c #3F392A",
"K$	c #403B2B",
"L$	c #4C5931",
"M$	c #5E7636",
"N$	c #646F36",
"O$	c #677038",
"P$	c #6A7C3F",
"Q$	c #6D7B3C",
"R$	c #6E7C3C",
"S$	c #6A7638",
"T$	c #5F6638",
"U$	c #43442C",
"V$	c #262219",
"W$	c #0A0906",
"X$	c #020101",
"Y$	c #0F0D09",
"Z$	c #2A261C",
"`$	c #484134",
" %	c #534C3E",
".%	c #585142",
"+%	c #575041",
"@%	c #524C3C",
"#%	c #4A4335",
"$%	c #413A2D",
"%%	c #434130",
"&%	c #5B753D",
"*%	c #6C9A44",
"=%	c #6D9744",
"-%	c #6C863F",
";%	c #6B8A44",
">%	c #6A8F48",
",%	c #688A43",
"'%	c #6A8F4B",
")%	c #6D9652",
"!%	c #4A6435",
"~%	c #11140B",
"{%	c #020201",
"]%	c #12100C",
"^%	c #2D281F",
"/%	c #423D30",
"(%	c #554F40",
"_%	c #655E4D",
":%	c #6C6452",
"<%	c #68604F",
"[%	c #605948",
"}%	c #524D3D",
"|%	c #607647",
"1%	c #6F9C49",
"2%	c #729C47",
"3%	c #6B9545",
"4%	c #628D42",
"5%	c #6C984F",
"6%	c #6B9A51",
"7%	c #6B9B52",
"8%	c #71A257",
"9%	c #5C8545",
"0%	c #1C2815",
"a%	c #0E0D0A",
"b%	c #242019",
"c%	c #3A3429",
"d%	c #474134",
"e%	c #4F483A",
"f%	c #514A3C",
"g%	c #504A3C",
"h%	c #4D4739",
"i%	c #52583D",
"j%	c #698A48",
"k%	c #79A44F",
"l%	c #6DA14E",
"m%	c #5B8940",
"n%	c #709557",
"o%	c #84AF73",
"p%	c #6B9F55",
"q%	c #73A35A",
"r%	c #628A4B",
"s%	c #1D2A16",
"t%	c #0F0E0B",
"u%	c #1B1913",
"v%	c #25211A",
"w%	c #2B271E",
"x%	c #2E2921",
"y%	c #2E2A20",
"z%	c #4B5D34",
"A%	c #749D4E",
"B%	c #7FAE66",
"C%	c #6A9B4F",
"D%	c #617A3F",
"E%	c #7BA161",
"F%	c #6F9A53",
"G%	c #6B8C51",
"H%	c #425A33",
"I%	c #0A0E07",
"J%	c #010100",
"K%	c #131B0F",
"L%	c #61834B",
"M%	c #8FB87E",
"N%	c #77A65B",
"O%	c #6D8544",
"P%	c #79A554",
"Q%	c #76A456",
"R%	c #57753F",
"S%	c #161B0E",
"T%	c #000100",
"U%	c #304029",
"V%	c #63874E",
"W%	c #719A51",
"X%	c #788F4D",
"Y%	c #638242",
"Z%	c #4E6B39",
"`%	c #3C572D",
" &	c #090E07",
".&	c #040603",
"+&	c #1B2615",
"@&	c #2A381E",
"#&	c #324123",
"$&	c #1F2A16",
"%&	c #0D1209",
"&&	c #131C0E",
"*&	c #050804",
"=&	c #010201",
"        . + + + + + @                                                                           #   ",
"        . + + + + + @                                                                           $   ",
"        . + + + + + @                                                                         % &   ",
"        . + + + + + @                                                                       * = -   ",
"        . + + + + + @                                                                     ; > , '   ",
"        . + + + + + @                   ) !                                             ) ~ { ] ^   ",
"        . + + + + + @                   / ( _                                         : < [ } | 1   ",
"        . + + + + + @                   2 3 4 5 6                                 7 8 9 0 a b c c   ",
"        . + + + + + @                   d e f g h i j k     l m n o p q r s t u v w x y z A B C D   ",
"        . + + + + + @                   E f F G h H I J K L M N O P Q R S T U V W X Y Z `  .z ..+.  ",
"        . + + + + + @                   @.#.$.%.&.*.=.-.;.>.,.O '.).!.~.N {.].^./.(._.:.<.z [.` }.  ",
"        . + + + + + @                   |.1.2.3.4.5.6.7.8.9.0.a.).).P b.0.c.d.e.f.g.h.i.j.k.g l.m.  ",
"        . + + + + + @       n.o.p.q.    r.s.t.P a.u.v.w.x.y.z.'.).).A.B.C.D.E.w.F.G.H.I.i.J.K.[.L.  ",
"        . + + + + + @   q.M.N.O.P.Q.n.s R.S.O ).T.U.V.W.X.Y.A.P !.!.Z.`. +.+++@+#+F.$+%+&+*+=+-+e   ",
"        ;++ + + + + >+  ,+'+)+!+~+{+]+^+/+(+_+P :+<+[+}+|+1+2+z.3+4+5+6+7+8+9+0+a+b+c+d+e+^.f+g+h+  ",
"        i++ + + + + j+  k+l+m+n+o+p+q+r+s+t+u+v+w+x+y+z+A+B+V.c.C+D+E+F+G+H+I+J+K+L+M+N+O+P+Q+K.R+  ",
"        S++ + + + + T+  U+V+W+X+Y+Z+`+ @.@+@++@@#@$@%@&@*@=@-@(+;@>@,@'@y+)@!@~@{@]@^@/@(@_@:@K.R+  ",
"        <@+ + + + + [@  }@|@1@2@3@4@5@6@7@8@9@0@a@b@c@d@e@f@g@h@i@i@j@k@9+l@m@n@o@p@q@r@s@t@u@g+v@  ",
"        w@+ + + + + x@  y@z@A@B@C@D@E@F@7@G@H@I@J@K@L@M@N@O@P@Q@R@S@T@U@V@W@X@n@Y@Z@`@ #h..#+#@###  ",
"        $#+ + + + + %#  &#}@*#=#-#;#U+>#,#/ '#)#!#~#{#]#^#/#K+(#_#:#<#[##+}#a+|#1#2#3#4#^.5#G 6#7#  ",
"        8#+ + + + + 9#  l 0#a#b#c#d#e#f#n.g#h#i#j#J k#l#b+~@m#o@n@o@n#m#o#p@p#q#$+H.I ^.Q+r#s#t#u#  ",
"        v#+ + + + + w#    x#y#6@z#A#y#B#q.C#C D#E#F#G#H#I#J#K#L#M#M#N#O#P#Q#N+R#S#T#U#5#r#@#R+V#    ",
"        W#+ + + + + X#    q.o.Y#Z#`# $.$q.+$@$w 5#*+V #$s@G#$$f.H#%$&$*$H.=$4#-$k.Q+W G ;$R+>$,$    ",
"        '$+ + + + )$          !$~${$~$]$^$/$($@#_$h :$<$[$}$|$1$2$3$4$5$6$Q+7$8$9$0$x a$f 3 b$c$    ",
"        d$+ + + + e$            f$,+g$h$i$j$m.k$l$` k.K.m$n$o$p$q$W r$s$t$u$v$w$x$y$z$h+e A$B$      ",
"                                  .$l l C$$ e k$D$E$F$G$H$I$H$J$x K$L$M$N$O$P$Q$R$S$T$U$V$W$        ",
"                                          X$Y$Z$0 `$ %.%+%@%#%a $%%%&%*%=%-%;%>%,%'%)%!%~%          ",
"                                              {%]%^%/%(%_%:%<%[%.%}%|%1%2%3%4%5%6%7%8%9%0%          ",
"                                                  q.a%b%c%d%e%f%g%h%i%j%k%l%m%n%o%p%q%r%s%          ",
"                                                        g#t%u%v%w%x%y%z%A%B%C%D%E%F%G%H%I%          ",
"                                                                J%{%) K%L%M%N%O%P%Q%R%S%            ",
"                                                                      T%U%V%W%X%Y%Z%`% &            ",
"        . + + + + + @                                                   .&+&@&#&$&%&&&*&            ",
"        . + + + + + @                                                         =&                    ",
"        . + + + + + @                                                                               ",
"        . + + + + + @                                                                               ",
"        . + + + + + @                                                                               ",
"        . + + + + + @                                                                               ",
"        . + + + + + @                                                                               ",
"        . + + + + + @                                                                               ",
"                                                                                                    ",
"                                                                                                    ",
"                                                                                                    ",
"                                                                                                    ",
"                                                                                                    ",
"                                                                                                    ",
"                                                                                                    ",
"                                                                                                    ",
"                                                                                                    ",
"                                                                                                    "};
