/* XPM */
static char * GLwin0_xpm[] = {
"50 50 799 2",
"  	c None",
". 	c #B4A394",
"+ 	c #B4A294",
"@ 	c #AA9A8D",
"# 	c #83786F",
"$ 	c #AB9A8C",
"% 	c #B3A193",
"& 	c #B3A091",
"* 	c #B8A392",
"= 	c #C9B7A9",
"- 	c #E8DFDA",
"; 	c #E0D4CC",
"> 	c #E5DAD4",
", 	c #C0AC9C",
"' 	c #B6A17F",
") 	c #C1B05B",
"! 	c #C4B556",
"~ 	c #BFAD5E",
"{ 	c #B6A084",
"] 	c #C5B2A3",
"^ 	c #E8DED9",
"/ 	c #DFD3CB",
"( 	c #E7DDD7",
"_ 	c #C4B0A1",
": 	c #B3A192",
"< 	c #B3A293",
"[ 	c #AD9C8E",
"} 	c #877B71",
"| 	c #A49488",
"1 	c #B5A395",
"2 	c #B8A799",
"3 	c #BFAC9D",
"4 	c #BEAA9A",
"5 	c #BFAB9C",
"6 	c #B2A093",
"7 	c #887B71",
"8 	c #897B6F",
"9 	c #B7A495",
"0 	c #BFAC9C",
"a 	c #BDA998",
"b 	c #C7B4A6",
"c 	c #DED2CA",
"d 	c #D8CAC0",
"e 	c #DCCFC6",
"f 	c #BBA898",
"g 	c #C3A33D",
"h 	c #F7D103",
"i 	c #FADA02",
"j 	c #F3D402",
"k 	c #F4D502",
"l 	c #F5CD04",
"m 	c #BD9F4A",
"n 	c #C1AEA0",
"o 	c #D7C9BF",
"p 	c #DDD1C8",
"q 	c #C3AFA0",
"r 	c #BEAB9B",
"s 	c #B9A697",
"t 	c #8B7C71",
"u 	c #8B7D72",
"v 	c #BEAC9D",
"w 	c #B6A597",
"x 	c #BFAB9B",
"y 	c #BDA897",
"z 	c #BFAA9A",
"A 	c #BCA99A",
"B 	c #B09E8E",
"C 	c #AE9B8B",
"D 	c #A69587",
"E 	c #82766C",
"F 	c #9B8A7D",
"G 	c #AB998A",
"H 	c #AC9A8A",
"I 	c #AD9A8B",
"J 	c #AE9B8D",
"K 	c #AD9B8C",
"L 	c #AE9B8C",
"M 	c #AB9989",
"N 	c #AC9564",
"O 	c #C09C3F",
"P 	c #C49E3C",
"Q 	c #C39D3C",
"R 	c #A68533",
"S 	c #76562D",
"T 	c #7A5A2D",
"U 	c #AD8B35",
"V 	c #BD9A41",
"W 	c #A69269",
"X 	c #AA998A",
"Y 	c #AC9A8B",
"Z 	c #AC998A",
"` 	c #9E8E80",
" .	c #83766C",
"..	c #A29183",
"+.	c #B19F90",
"@.	c #BDAA9B",
"#.	c #BFAA99",
"$.	c #BDAB9C",
"%.	c #B19F91",
"&.	c #BDAC9D",
"*.	c #BEA999",
"=.	c #BEAB9C",
"-.	c #A59282",
";.	c #8B7B6C",
">.	c #51483F",
",.	c #3C352F",
"'.	c #332E29",
").	c #322C27",
"!.	c #3D352F",
"~.	c #3C3530",
"{.	c #3C3630",
"].	c #392C28",
"^.	c #693838",
"/.	c #723A3A",
"(.	c #6A3535",
"_.	c #572F2E",
":.	c #412B28",
"<.	c #4A2B2A",
"[.	c #442A28",
"}.	c #362D28",
"|.	c #3B342E",
"1.	c #352F2A",
"2.	c #312C28",
"3.	c #584D44",
"4.	c #917F70",
"5.	c #A69484",
"6.	c #BCAB9C",
"7.	c #BFAB9A",
"8.	c #B2A092",
"9.	c #998777",
"0.	c #66594F",
"a.	c #1E1A17",
"b.	c #000000",
"c.	c #1D0D0D",
"d.	c #6E3939",
"e.	c #8A4848",
"f.	c #743B3B",
"g.	c #653333",
"h.	c #693535",
"i.	c #6B3636",
"j.	c #5D2F2F",
"k.	c #241111",
"l.	c #25211D",
"m.	c #6E6156",
"n.	c #9C897A",
"o.	c #B6A495",
"p.	c #BEA998",
"q.	c #BCAA9C",
"r.	c #BDAB9D",
"s.	c #B19E8F",
"t.	c #7E6E62",
"u.	c #0B0A09",
"v.	c #080303",
"w.	c #603131",
"x.	c #8A4747",
"y.	c #894747",
"z.	c #663333",
"A.	c #683434",
"B.	c #5A2E2E",
"C.	c #120707",
"D.	c #141210",
"E.	c #89786A",
"F.	c #B4A193",
"G.	c #7A6B5F",
"H.	c #070606",
"I.	c #3E1F1F",
"J.	c #844545",
"K.	c #864545",
"L.	c #6C3636",
"M.	c #673333",
"N.	c #3A1D1D",
"O.	c #0F0E0C",
"P.	c #867668",
"Q.	c #B4A293",
"R.	c #070706",
"S.	c #0C0404",
"T.	c #663434",
"U.	c #884646",
"V.	c #864646",
"W.	c #7A3E3E",
"X.	c #673434",
"Y.	c #532A2A",
"Z.	c #070303",
"`.	c #100E0C",
" +	c #2C1414",
".+	c #6D3737",
"++	c #6C3737",
"@+	c #5F3030",
"#+	c #1B0C0C",
"$+	c #442121",
"%+	c #633232",
"&+	c #2A1313",
"*+	c #060202",
"=+	c #522929",
"-+	c #623131",
";+	c #653232",
">+	c #341919",
",+	c #512929",
"'+	c #502929",
")+	c #4F2828",
"!+	c #502828",
"~+	c #2D1616",
"{+	c #040202",
"]+	c #1A0D0D",
"^+	c #0B0505",
"/+	c #130808",
"(+	c #502727",
"_+	c #592B2B",
":+	c #592C2C",
"<+	c #5A2D2D",
"[+	c #5B2D2D",
"}+	c #5B2E2E",
"|+	c #5C2E2E",
"1+	c #592D2D",
"2+	c #4A2525",
"3+	c #643333",
"4+	c #572C2C",
"5+	c #3F2020",
"6+	c #1E0D0D",
"7+	c #010000",
"8+	c #020101",
"9+	c #281414",
"0+	c #3C1F1F",
"a+	c #3B1F1F",
"b+	c #2D1010",
"c+	c #510404",
"d+	c #580505",
"e+	c #570505",
"f+	c #560606",
"g+	c #550606",
"h+	c #550707",
"i+	c #540707",
"j+	c #540808",
"k+	c #490808",
"l+	c #4C2323",
"m+	c #190B0B",
"n+	c #1F0E0E",
"o+	c #371C1C",
"p+	c #422323",
"q+	c #381414",
"r+	c #5F0000",
"s+	c #690000",
"t+	c #680000",
"u+	c #640000",
"v+	c #4F0F0F",
"w+	c #613030",
"x+	c #150909",
"y+	c #0A0404",
"z+	c #3A1F1F",
"A+	c #381313",
"B+	c #670000",
"C+	c #650000",
"D+	c #590101",
"E+	c #4D1313",
"F+	c #602F2F",
"G+	c #351A1A",
"H+	c #231010",
"I+	c #432323",
"J+	c #301111",
"K+	c #490000",
"L+	c #510000",
"M+	c #500000",
"N+	c #4E0303",
"O+	c #4E0F0F",
"P+	c #572525",
"Q+	c #010101",
"R+	c #231212",
"S+	c #412121",
"T+	c #401A1B",
"U+	c #391115",
"V+	c #3B1316",
"W+	c #421B1D",
"X+	c #4B2527",
"Y+	c #552B2E",
"Z+	c #582C2F",
"`+	c #572B2D",
" @	c #572B2B",
".@	c #552B2B",
"+@	c #4E2828",
"@@	c #402121",
"#@	c #170A0A",
"$@	c #0F0606",
"%@	c #271515",
"&@	c #32191A",
"*@	c #514012",
"=@	c #7A6712",
"-@	c #6D4E15",
";@	c #614114",
">@	c #593513",
",@	c #523513",
"'@	c #4F3513",
")@	c #4D3314",
"!@	c #4C3214",
"~@	c #4C3115",
"{@	c #4B3115",
"]@	c #4A2F14",
"^@	c #35201B",
"/@	c #321F1F",
"(@	c #231112",
"_@	c #221111",
":@	c #0E0606",
"<@	c #1D1D1D",
"[@	c #535151",
"}@	c #312626",
"|@	c #422122",
"1@	c #4F3A16",
"2@	c #BDBB02",
"3@	c #F8DB00",
"4@	c #F1BE00",
"5@	c #D79200",
"6@	c #E49800",
"7@	c #EAAA00",
"8@	c #E8B300",
"9@	c #E5B600",
"0@	c #E4B700",
"a@	c #E5B800",
"b@	c #DFB200",
"c@	c #BBA142",
"d@	c #BDAF8B",
"e@	c #534E44",
"f@	c #5A5A5A",
"g@	c #B1B1B1",
"h@	c #B7B8B8",
"i@	c #3D3939",
"j@	c #381C1C",
"k@	c #3B211F",
"l@	c #5F5321",
"m@	c #989204",
"n@	c #EDCB00",
"o@	c #B99516",
"p@	c #BC8E3B",
"q@	c #D38D11",
"r@	c #E79700",
"s@	c #FAA900",
"t@	c #FEB300",
"u@	c #FEB900",
"v@	c #FEBD00",
"w@	c #FCBE00",
"x@	c #F0B90C",
"y@	c #BC9C45",
"z@	c #95896F",
"A@	c #141311",
"B@	c #0E0E0E",
"C@	c #858585",
"D@	c #CECECE",
"E@	c #ADADAD",
"F@	c #4E4E4E",
"G@	c #060505",
"H@	c #160A0A",
"I@	c #251312",
"J@	c #77726E",
"K@	c #646156",
"L@	c #908431",
"M@	c #A7951D",
"N@	c #AE9D63",
"O@	c #9C8A64",
"P@	c #504127",
"Q@	c #8F7445",
"R@	c #9D752E",
"S@	c #C49337",
"T@	c #C7973C",
"U@	c #BE933D",
"V@	c #C99C3C",
"W@	c #D6AF57",
"X@	c #C7B486",
"Y@	c #27241E",
"Z@	c #3B3B3B",
"`@	c #848484",
" #	c #626262",
".#	c #171717",
"+#	c #030101",
"@#	c #271414",
"##	c #5F5C5D",
"$#	c #66635B",
"%#	c #DFCA9A",
"&#	c #E2D2A9",
"*#	c #D3C192",
"=#	c #BBAB85",
"-#	c #494A4A",
";#	c #313337",
">#	c #968675",
",#	c #F6DBA9",
"'#	c #F9E3AD",
")#	c #F9DE9C",
"!#	c #FFD672",
"~#	c #FFDE87",
"{#	c #AB9B74",
"]#	c #070605",
"^#	c #060606",
"/#	c #0F0706",
"(#	c #564543",
"_#	c #766E60",
":#	c #F3DDA7",
"<#	c #FFEBB3",
"[#	c #FFE9B1",
"}#	c #F5DEA6",
"|#	c #A4987A",
"1#	c #877162",
"2#	c #E4948A",
"3#	c #FFC5A4",
"4#	c #FFE39E",
"5#	c #FBD57C",
"6#	c #C5A760",
"7#	c #B49D5E",
"8#	c #5D4E1B",
"9#	c #C1AC9C",
"0#	c #472424",
"a#	c #B6776E",
"b#	c #DABE93",
"c#	c #FFE9AE",
"d#	c #DAC594",
"e#	c #DBC695",
"f#	c #FFE8AC",
"g#	c #FFE7A5",
"h#	c #FED991",
"i#	c #FABE78",
"j#	c #E8B869",
"k#	c #D7B25A",
"l#	c #BE9C45",
"m#	c #9D8015",
"n#	c #D9AE01",
"o#	c #A58400",
"p#	c #C0AC9B",
"q#	c #C0AB99",
"r#	c #AD9C90",
"s#	c #8B7C70",
"t#	c #96877B",
"u#	c #AF9D8E",
"v#	c #7B6C5F",
"w#	c #201610",
"x#	c #88764F",
"y#	c #D8BE81",
"z#	c #E2C98C",
"A#	c #E0C687",
"B#	c #D7B873",
"C#	c #C0A058",
"D#	c #A88C53",
"E#	c #816A30",
"F#	c #A48411",
"G#	c #B18E0C",
"H#	c #BA9502",
"I#	c #EFBF00",
"J#	c #FFD000",
"K#	c #D9AD00",
"L#	c #362A00",
"M#	c #877769",
"N#	c #AF9D8F",
"O#	c #928377",
"P#	c #8E7F73",
"Q#	c #AF9F92",
"R#	c #8D8179",
"S#	c #5D5651",
"T#	c #6C645D",
"U#	c #98897E",
"V#	c #6D6157",
"W#	c #413523",
"X#	c #4E3B25",
"Y#	c #664B34",
"Z#	c #977A48",
"`#	c #A28143",
" $	c #AA8C70",
".$	c #55382E",
"+$	c #85662E",
"@$	c #A38752",
"#$	c #95815B",
"$$	c #998131",
"%$	c #E9BA00",
"&$	c #FFC900",
"*$	c #C58C00",
"=$	c #714900",
"-$	c #271700",
";$	c #0F0D0C",
">$	c #796C60",
",$	c #96887D",
"'$	c #675F58",
")$	c #615A54",
"!$	c #92867D",
"~$	c #93877E",
"{$	c #605953",
"]$	c #706760",
"^$	c #A09185",
"/$	c #74675D",
"($	c #22170F",
"_$	c #3D221E",
":$	c #4A2D28",
"<$	c #5B3E28",
"[$	c #99784E",
"}$	c #7E644F",
"|$	c #4B2827",
"1$	c #A07B65",
"2$	c #A58C74",
"3$	c #BEA68E",
"4$	c #A59575",
"5$	c #D1B44F",
"6$	c #E5BB1B",
"7$	c #F3B100",
"8$	c #C17D00",
"9$	c #382200",
"0$	c #807267",
"a$	c #9E9084",
"b$	c #6A615B",
"c$	c #645C56",
"d$	c #998C83",
"e$	c #B0A093",
"f$	c #95867A",
"g$	c #9E8F82",
"h$	c #0B0404",
"i$	c #341A1B",
"j$	c #533630",
"k$	c #553026",
"l$	c #855F4A",
"m$	c #836854",
"n$	c #3E1F20",
"o$	c #775740",
"p$	c #A68A6E",
"q$	c #B29B7D",
"r$	c #E9D39C",
"s$	c #FEE7B1",
"t$	c #E1CA91",
"u$	c #9B6E21",
"v$	c #5C3900",
"w$	c #090500",
"x$	c #B09E90",
"y$	c #9B8C7F",
"z$	c #97887C",
"A$	c #B2A295",
"B$	c #311919",
"C$	c #523A32",
"D$	c #9D7D65",
"E$	c #522A22",
"F$	c #4B3229",
"G$	c #2E1818",
"H$	c #321D1A",
"I$	c #5D4A3A",
"J$	c #8F7655",
"K$	c #D0AE64",
"L$	c #FCDF99",
"M$	c #A8906F",
"N$	c #55312D",
"O$	c #432513",
"P$	c #050300",
"Q$	c #C1AC9B",
"R$	c #C0AB9A",
"S$	c #0E0505",
"T$	c #331A1A",
"U$	c #49322C",
"V$	c #C5A383",
"W$	c #A28066",
"X$	c #33100E",
"Y$	c #2C1515",
"Z$	c #301A1A",
"`$	c #180E0B",
" %	c #322106",
".%	c #6D4A0B",
"+%	c #8E753D",
"@%	c #58392D",
"#%	c #30191A",
"$%	c #0D0404",
"%%	c #331A1B",
"&%	c #432C27",
"*%	c #9E7F66",
"=%	c #B09174",
"-%	c #3D231D",
";%	c #290808",
">%	c #2C1717",
",%	c #100808",
"'%	c #211010",
")%	c #3A1E1E",
"!%	c #482525",
"~%	c #442323",
"{%	c #110606",
"]%	c #351C1C",
"^%	c #382221",
"/%	c #A3968B",
"(%	c #928579",
"_%	c #2F1B1A",
":%	c #280B0B",
"<%	c #2A0808",
"[%	c #350505",
"}%	c #230000",
"|%	c #1E0F0F",
"1%	c #2F1818",
"2%	c #200F0F",
"3%	c #381D1D",
"4%	c #331F1F",
"5%	c #8E8687",
"6%	c #766E6E",
"7%	c #2C1818",
"8%	c #2E0C0C",
"9%	c #520101",
"0%	c #672A2A",
"a%	c #3F0707",
"b%	c #2C1F16",
"c%	c #423126",
"d%	c #3B1E1E",
"e%	c #321A1A",
"f%	c #180B0B",
"g%	c #4C2929",
"h%	c #472626",
"i%	c #2E0E0E",
"j%	c #4C0000",
"k%	c #5E0606",
"l%	c #510101",
"m%	c #0D0000",
"n%	c #3E341C",
"o%	c #56412E",
"p%	c #211112",
"q%	c #251313",
"r%	c #2B1717",
"s%	c #361C1C",
"t%	c #4F2929",
"u%	c #301919",
"v%	c #261010",
"w%	c #420101",
"x%	c #660000",
"y%	c #5A0000",
"z%	c #180000",
"A%	c #0C0604",
"B%	c #080404",
"C%	c #391E1F",
"D%	c #472727",
"E%	c #4E2929",
"F%	c #522A2A",
"G%	c #452626",
"H%	c #432222",
"I%	c #370909",
"J%	c #3F0607",
"K%	c #230303",
"L%	c #020000",
"M%	c #635943",
"N%	c #847158",
"O%	c #5B4338",
"P%	c #301D1C",
"Q%	c #3E2121",
"R%	c #392120",
"S%	c #4A2927",
"T%	c #432A26",
"U%	c #362923",
"V%	c #0A0707",
"W%	c #67604F",
"X%	c #E4D09E",
"Y%	c #FFE9AB",
"Z%	c #C3AA6E",
"`%	c #1B1710",
" &	c #040203",
".&	c #0C0704",
"+&	c #8C7546",
"@&	c #D3BC8A",
"#&	c #AFA079",
"$&	c #18160E",
"%&	c #8A7D66",
"&&	c #F5DFA8",
"*&	c #EFD593",
"=&	c #705E31",
"-&	c #020201",
";&	c #7F6C3F",
">&	c #FBE1A3",
",&	c #DAC99D",
"'&	c #444035",
")&	c #100506",
"!&	c #4C2D2A",
"~&	c #725546",
"{&	c #765E44",
"]&	c #160F07",
"^&	c #6F603C",
"/&	c #F7DEA1",
"(&	c #DDC899",
"_&	c #55463C",
":&	c #4F2728",
"<&	c #3A1C1D",
"[&	c #3D311A",
"}&	c #866C4F",
"|&	c #624339",
"1&	c #472525",
"2&	c #391D1D",
"3&	c #201010",
"4&	c #3B1C1D",
"5&	c #130707",
"6&	c #2D1515",
"7&	c #3F1F1F",
"8&	c #512B2A",
"9&	c #462524",
"0&	c #1E0E0E",
"a&	c #402221",
"b&	c #240F10",
"c&	c #1C0B0B",
"d&	c #796B5E",
"e&	c #060504",
"f&	c #170909",
"g&	c #633131",
"h&	c #532B2A",
"i&	c #412221",
"j&	c #542C2B",
"k&	c #542B2B",
"l&	c #361A1A",
"m&	c #0E0C0B",
"n&	c #B09E8F",
"o&	c #8B7A6C",
"p&	c #2F2924",
"q&	c #3A1C1C",
"r&	c #281313",
"s&	c #512A29",
"t&	c #1C0C0C",
"u&	c #040303",
"v&	c #3A332D",
"w&	c #928172",
"x&	c #BEAB9D",
"y&	c #BEAA99",
"z&	c #B9A799",
"A&	c #A69485",
"B&	c #948273",
"C&	c #5C5147",
"D&	c #1A1714",
"E&	c #0B0A08",
"F&	c #0B0908",
"G&	c #080707",
"H&	c #452323",
"I&	c #321919",
"J&	c #291515",
"K&	c #231312",
"L&	c #1A0F0E",
"M&	c #0D0A09",
"N&	c #261414",
"O&	c #3E2020",
"P&	c #3D2020",
"Q&	c #211111",
"R&	c #090807",
"S&	c #0A0908",
"T&	c #1F1C18",
"U&	c #65594E",
"V&	c #988676",
"W&	c #A89687",
"X&	c #BAA89B",
"Y&	c #A49181",
"Z&	c #907F71",
"`&	c #837468",
" *	c #6A5F56",
".*	c #776A5E",
"+*	c #857669",
"@*	c #847568",
"#*	c #827366",
"$*	c #6F6257",
"%*	c #706358",
"&*	c #77695D",
"**	c #7C6E62",
"=*	c #807265",
"-*	c #837366",
";*	c #847467",
">*	c #77695E",
",*	c #73655A",
"'*	c #73665A",
")*	c #7B6D61",
"!*	c #7B6D62",
"~*	c #675D54",
"{*	c #827367",
"]*	c #938273",
"^*	c #A59383",
"/*	c #C0AC9D",
"(*	c #B5A496",
"_*	c #BCA999",
":*	c #BCA899",
"<*	c #85786E",
"[*	c #928276",
"}*	c #B8A595",
"|*	c #BCA898",
"1*	c #C4B3A5",
"2*	c #CEBFB4",
"3*	c #CBBCB0",
"4*	c #CCBDB1",
"5*	c #CDBEB3",
"6*	c #CBBBAF",
"7*	c #CFC0B5",
"8*	c #C2B0A2",
"9*	c #BDA999",
"0*	c #B6A393",
"a*	c #928376",
"b*	c #8D7F74",
"c*	c #A9998C",
"d*	c #BDA99A",
"e*	c #B4A395",
"f*	c #BBA99A",
"g*	c #BBA899",
"h*	c #867970",
"i*	c #9B8C80",
"j*	c #B8A697",
"k*	c #C6B6AA",
"l*	c #D3C7BE",
"m*	c #CFC2B8",
"n*	c #D1C3BA",
"o*	c #D2C5BC",
"p*	c #CEC1B7",
"q*	c #D4C8BF",
"r*	c #C3B2A6",
"s*	c #B6A496",
"t*	c #9C8C80",
"u*	c #8D8076",
"v*	c #A8988C",
"w*	c #BCAA9A",
"x*	c #B8A699",
"        . + + . @ # $ % + & * = - ; > , ' ) ! ! ! ! ! ! ~ { ] ^ / ( _ * : + < [ } | 1 + + .         ",
"    2 3 4 4 5 , 6 7 8 9 0 4 a b c d e f g h i i i j k i l m n c o p q a r 0 s t u @ , 5 4 4 v w     ",
"% v x y z A B C D E F G H H H I J K L M N O P Q R S T U V W X J K L Y H H H Z `  ...L +.@.#.y 5 $.%.",
"&.*.y =.% -.;.>.,.'.).!.,.,.,.,.,.,.,.,.~.{.{.].^./.(._.:.<.[.}.|.,.,.,.,.,.!.1.2.,.3.4.5.1 5 y #.6.",
"$.y 7.8.9.0.a.b.b.b.b.b.b.b.b.b.b.b.b.b.b.b.c.d.e.f.g.h.i.i.i.j.k.b.b.b.b.b.b.b.b.b.b.l.m.n.o.#.p.q.",
"r.y 7.s.t.u.b.b.b.b.b.b.b.b.b.b.b.b.b.b.b.v.w.x.y./.g.z.z.z.z.A.B.C.b.b.b.b.b.b.b.b.b.b.D.E.F.#.p.q.",
"r.y 7.+.G.H.b.b.b.b.b.b.b.b.b.b.b.b.b.b.b.I.J.x.K.L.z.z.z.z.z.z.M.N.b.b.b.b.b.b.b.b.b.b.O.P.Q.#.p.q.",
"r.y 7.+.G.R.b.b.b.b.b.b.b.b.b.b.b.b.b.b.S.T.U.V.W.X.z.z.z.z.z.z.X.Y.Z.b.b.b.b.b.b.b.b.b.`.P.Q.#.p.q.",
"r.y 7.+.G.R.b.b.b.b.b.b.b.b.b.b.b.b.b.b. +z..+++X.z.z.z.z.z.z.z.z.@+#+b.b.b.b.b.b.b.b.b.`.P.Q.#.p.q.",
"r.y 7.+.G.R.b.b.b.b.b.b.b.b.b.b.b.b.b.b.$+M.z.z.z.z.z.z.z.z.z.z.z.%+&+b.b.b.b.b.b.b.b.b.`.P.Q.#.p.q.",
"r.y 7.+.G.R.b.b.b.b.b.b.b.b.b.b.b.b.b.*+=+M.z.z.z.z.z.z.z.g.-+-+;+g.>+b.b.b.b.b.b.b.b.b.`.P.Q.#.p.q.",
"r.y 7.+.G.R.b.b.b.b.b.b.b.b.b.b.b.b.b.C.B.A.M.M.M.M.M.M.z.,+'+'+)+!+~+b.b.b.b.b.b.b.b.b.`.P.Q.#.p.q.",
"r.y 7.+.G.R.b.b.b.b.b.b.b.b.b.{+]+#+^+/+(+_+:+:+<+[+}+|+1+2+h.(.h.3+4+5+6+7+b.b.b.b.b.b.`.P.Q.#.p.q.",
"r.y 7.+.G.R.b.b.b.b.b.b.b.b.b.8+9+0+a+b+c+d+e+f+g+h+i+j+k+l+M.z.z.M.A.h.3+2+m+b.b.b.b.b.`.P.Q.#.p.q.",
"r.y 7.+.G.R.b.b.b.b.b.b.b.b.b.b.n+o+p+q+r+s+t+t+t+t+s+u+v+w+z.z.z.z.z.z.z.h.1+x+b.b.b.b.`.P.Q.#.p.q.",
"r.y 7.+.G.R.b.b.b.b.b.b.b.b.b.b.y+o+z+A+r+B+B+B+B+C+D+E+F+X.z.z.z.z.z.z.z.z.z.G+b.b.b.b.`.P.Q.#.p.q.",
"r.y 7.+.G.R.b.b.b.b.b.b.b.b.b.b.b.H+I+J+K+L+L+M+N+O+P+X.A.M.M.M.M.M.M.M.z.z.-+G+b.b.b.b.`.P.Q.#.p.q.",
"r.y 7.+.G.R.b.b.b.b.b.b.b.b.b.b.b.Q+R+S+T+U+V+W+X+Y+Z+`+`+`+`+`+`+4+ @.@Y.+@@@#@b.b.b.b.`.P.Q.#.p.q.",
"r.y 7.+.G.R.b.b.b.b.b.b.b.b.b.b.b.$@%@&@*@=@-@;@>@,@'@)@!@~@{@~@]@^@/@(@_@c.:@b.b.b.b.b.`.P.Q.#.p.q.",
"r.y 7.+.G.R.b.b.b.b.b.b.b.b.b.b.<@[@}@|@1@2@3@4@5@6@7@8@9@0@0@a@b@c@d@e@b.b.b.b.b.b.b.b.`.P.Q.#.p.q.",
"r.y 7.+.G.R.b.b.b.b.b.b.b.b.Q+f@g@h@i@j@k@l@m@n@o@p@q@r@s@t@u@v@w@x@y@z@A@b.b.b.b.b.b.b.`.P.Q.#.p.q.",
"r.y 7.+.G.R.b.b.b.b.b.b.b.B@C@D@E@F@G@H@I@J@K@L@M@N@O@P@Q@R@S@T@U@V@W@X@Y@b.b.b.b.b.b.b.`.P.Q.#.p.q.",
"r.y 7.+.G.R.b.b.b.b.b.b.b.Z@`@ #.#b.b.+#@###$#%#&#*#=#-#;#>#,#'#)#!#~#{#]#b.b.b.b.b.b.b.`.P.Q.#.p.q.",
"r.y 7.+.G.R.b.b.b.b.b.b.b.^#b.b.b.b.b.b./#(#_#:#<#[#}#|#1#2#3#4#5#6#7#8#b.b.b.b.b.b.b.b.`.P.Q.#.p.q.",
"v #.9#+.G.R.b.b.b.b.b.b.b.b.b.b.b.b.b.b.0#a#b#c#d#e#f#g#h#i#j#k#l#m#n#o#b.b.b.b.b.b.b.b.`.P.Q.p#q#$.",
"r#s#t#u#v#R.b.b.b.b.b.b.b.b.b.b.b.b.b.b.b.w#x#y#z#A#B#C#D#E#F#G#H#I#J#K#L#b.b.b.b.b.b.b.`.M#N#O#P#Q#",
"R#S#T#U#V#]#b.b.b.b.b.b.b.b.b.b.b.b.b.b.b.b.b.W#X#Y#Z#`# $.$+$@$#$$$%$&$*$=$-$b.b.b.b.b.;$>$,$'$)$!$",
"~${$]$^$/$H.b.b.b.b.b.b.b.b.b.b.b.b.b.b.b.b.b.($_$:$<$[$}$|$1$2$3$4$5$6$7$8$9$b.b.b.b.b.O.0$a$b$c$d$",
"e$f$g$u#v#R.b.b.b.b.b.b.b.b.b.b.b.b.b.b.b.b.b.h$i$j$k$l$m$n$o$p$q$r$s$t$u$v$w$b.b.b.b.b.`.M#x$y$z$A$",
"v #.9#+.G.R.b.b.b.b.b.b.b.b.b.b.b.b.b.b.b.b.b.$@B$C$D$E$F$G$H$I$J$K$L$M$N$O$P$b.b.b.b.b.`.P.Q.Q$R$$.",
"r.y 7.+.G.R.b.b.b.b.b.b.b.b.b.b.b.b.b.b.b.b.b.S$T$U$V$W$X$Y$Z$`$ %.%+%@%n$#%9+{+b.b.b.b.`.P.Q.#.p.q.",
"r.y 7.+.G.R.b.b.b.b.b.b.b.b.b.b.b.b.b.b.b.b.b.$%%%&%*%=%-%;%>%,%b.b.7+'%)%!%~%#+b.b.b.b.`.P.Q.#.p.q.",
"r.y 7.+.G.R.b.b.b.b.b.b.b.b.b.b.b.b.b.b.b.b.b.{%]%^%/%(%_%:%<%[%}%b.b.|%j@!%!%1%b.b.b.b.`.P.Q.#.p.q.",
"r.y 7.+.G.R.b.b.b.b.b.b.b.b.b.b.b.b.b.b.b.b.b.2%3%4%5%6%7%8%9%0%a%b.b.b%c%d%e%f%b.b.b.b.`.P.Q.#.p.q.",
"r.y 7.+.G.R.b.b.b.b.b.b.b.b.b.b.b.b.b.b.b.b.b.k.]%e%g%h%7%i%j%k%l%m%b.n%o%p%:@8+b.b.b.b.`.P.Q.#.p.q.",
"r.y 7.+.G.R.b.b.b.b.b.b.b.b.b.b.b.b.b.b.b.b.7+q%r%s%t%'+u%v%w%x%y%z%b.b.A%B%b.b.b.b.b.b.`.P.Q.#.p.q.",
"r.y 7.+.G.R.b.b.b.b.b.b.b.b.b.b.b.b.b.b.b.b.h$C%!%D%E%F%G%H%I%J%K%L%b.b.b.b.b.b.b.b.b.b.`.P.Q.#.p.q.",
"r.y 7.+.G.R.b.b.b.b.b.b.b.b.b.b.b.b.b.b.b.b.M%N%O%P%Q%p+R%S%T%U%V%b.b.b.b.b.b.b.b.b.b.b.`.P.Q.#.p.q.",
"r.y 7.+.G.R.b.b.b.b.b.b.b.b.b.b.b.b.b.b.b.W%X%Y%Z%`% &Z..&+&@&#&$&b.b.b.b.b.b.b.b.b.b.b.`.P.Q.#.p.q.",
"r.y 7.+.G.R.b.b.b.b.b.b.b.b.b.b.b.b.b.b.b.%&&&*&=&-&b.b.b.;&>&,&'&b.b.b.b.b.b.b.b.b.b.b.`.P.Q.#.p.q.",
"r.y 7.+.G.R.b.b.b.b.b.b.b.b.b.b.b.b.b.b.)&!&~&{&]&b.b.b.b.^&/&(&_&b.b.b.b.b.b.b.b.b.b.b.`.P.Q.#.p.q.",
"r.y 7.+.G.R.b.b.b.b.b.b.b.b.b.b.b.b.b.b.x+0#:&<&+#b.b.b.b.[&}&|&1&{%b.b.b.b.b.b.b.b.b.b.`.P.Q.#.p.q.",
"r.y 7.+.G.R.b.b.b.b.b.b.b.b.b.b.b.b.b.b.B%s%2&3&b.b.b.b.b.{+4&:&S+:@b.b.b.b.b.b.b.b.b.b.`.P.Q.#.p.q.",
"r.y 7.+.G.R.b.b.b.b.b.b.b.b.b.b.b.b.5&6&7&8&9&0&b.b.b.b.b.b.0&s%a&B$b&c&Q+b.b.b.b.b.b.b.`.P.Q.#.p.q.",
"r.y 7.+.d&e&b.b.b.b.b.b.b.b.b.b.b.f&=+g&4+Y.h&I.{+b.b.b.b.b.C.i&j&k&j.j.l&Q+b.b.b.b.b.b.m&P.Q.#.p.q.",
"r.y 7.n&o&p&-&b.b.b.b.b.b.b.b.b.b.q&-+j.F%+@+@H%$@b.b.b.b.b.r&s&F%F%1+%+4+t&b.b.b.b.b.u&v&w&: #.p.q.",
"x&y y&z&A&B&C&D&E&F&G&u.u.u.u.u.u.3%H&d%I&J&K&L&M&u.u.u.u.u.N&S+O&P&@@S+S+Q&u.R&S&E&T&U&V&W&A p.p.6.",
"X&, y *.=.%.Y&Z&`& *.*+*@*@*@*@*#*$*%*&***=*-*;*;*;*;*;*@*@*>*,*'*,*,*'*,*)*+*!*~*{*]*^*% 5 p.p./*2 ",
"  (*v 7.p.x _*:*%.<*[*}*_*_*_*_*_*_*_*_*|*1*2*3*4*5*6*7*8*|*_*_*_*_*_*_*_*9*0*a*b*c*9*d*x p.x x&e*  ",
"      z&f*g*g*A Q#h*i*j*f*g*g*g*g*g*g*g*g*k*l*m*n*o*p*q*r*g*g*g*g*g*g*g*g*f*s*t*u*v*w*g*g*f*x*      "};
