/* XPM */
static char * GRwin0_xpm[] = {
"50 50 798 2",
"  	c None",
". 	c #B4A394",
"+ 	c #B4A294",
"@ 	c #AA9A8D",
"# 	c #83786F",
"$ 	c #AB9A8C",
"% 	c #B3A193",
"& 	c #B3A091",
"* 	c #B8A392",
"= 	c #C9B7A9",
"- 	c #E8DFDA",
"; 	c #E0D4CC",
"> 	c #E5DAD4",
", 	c #C0AC9C",
"' 	c #B6A17F",
") 	c #C1B05B",
"! 	c #C4B556",
"~ 	c #BFAD5E",
"{ 	c #B6A084",
"] 	c #C5B2A3",
"^ 	c #E8DED9",
"/ 	c #DFD3CB",
"( 	c #E7DDD7",
"_ 	c #C4B0A1",
": 	c #B3A192",
"< 	c #B3A293",
"[ 	c #AD9C8E",
"} 	c #877B71",
"| 	c #A49488",
"1 	c #B5A395",
"2 	c #B8A799",
"3 	c #BFAC9D",
"4 	c #BEAA9A",
"5 	c #BFAB9C",
"6 	c #B2A093",
"7 	c #887B71",
"8 	c #897B6F",
"9 	c #B7A495",
"0 	c #BFAC9C",
"a 	c #BDA998",
"b 	c #C7B4A6",
"c 	c #DED2CA",
"d 	c #D8CAC0",
"e 	c #DCCFC6",
"f 	c #BBA898",
"g 	c #C3A33D",
"h 	c #F7D103",
"i 	c #FADA02",
"j 	c #F4D502",
"k 	c #F3D402",
"l 	c #F5CD04",
"m 	c #BD9F4A",
"n 	c #C1AEA0",
"o 	c #D7C9BF",
"p 	c #DDD1C8",
"q 	c #C3AFA0",
"r 	c #BEAB9B",
"s 	c #B9A697",
"t 	c #8B7C71",
"u 	c #8B7D72",
"v 	c #BEAC9D",
"w 	c #B6A597",
"x 	c #BFAB9B",
"y 	c #BDA897",
"z 	c #BFAA9A",
"A 	c #BCA99A",
"B 	c #B09E8E",
"C 	c #AE9B8B",
"D 	c #A69587",
"E 	c #82766C",
"F 	c #9B8A7D",
"G 	c #AB998A",
"H 	c #AC9A8A",
"I 	c #AD9A8B",
"J 	c #AE9B8D",
"K 	c #AD9B8C",
"L 	c #AE9B8C",
"M 	c #A99888",
"N 	c #A89262",
"O 	c #BF9B3F",
"P 	c #AD8B35",
"Q 	c #7A5A2D",
"R 	c #76562D",
"S 	c #A68533",
"T 	c #C39D3C",
"U 	c #C49E3C",
"V 	c #BE9B41",
"W 	c #AA956B",
"X 	c #AC9A8B",
"Y 	c #AC998A",
"Z 	c #9E8E80",
"` 	c #83766C",
" .	c #A29183",
"..	c #B19F90",
"+.	c #BDAA9B",
"@.	c #BFAA99",
"#.	c #BDAB9C",
"$.	c #B19F91",
"%.	c #BDAC9D",
"&.	c #BEA999",
"*.	c #BEAB9C",
"=.	c #A59282",
"-.	c #8B7B6C",
";.	c #51483F",
">.	c #3C352F",
",.	c #332E29",
"'.	c #322C27",
").	c #3D352F",
"!.	c #3B342E",
"~.	c #362D28",
"{.	c #442A28",
"].	c #4A2B2A",
"^.	c #412B28",
"/.	c #572F2E",
"(.	c #6A3535",
"_.	c #723A3A",
":.	c #693838",
"<.	c #392C28",
"[.	c #3C3630",
"}.	c #3C3530",
"|.	c #352F2A",
"1.	c #312C28",
"2.	c #584D44",
"3.	c #917F70",
"4.	c #A69484",
"5.	c #BCAB9C",
"6.	c #BFAB9A",
"7.	c #B2A092",
"8.	c #998777",
"9.	c #66594F",
"0.	c #1E1A17",
"a.	c #000000",
"b.	c #241111",
"c.	c #5D2F2F",
"d.	c #6B3636",
"e.	c #693535",
"f.	c #653333",
"g.	c #743B3B",
"h.	c #8A4848",
"i.	c #6E3939",
"j.	c #1D0D0D",
"k.	c #25211D",
"l.	c #6E6156",
"m.	c #9C897A",
"n.	c #B6A495",
"o.	c #BEA998",
"p.	c #BCAA9C",
"q.	c #BDAB9D",
"r.	c #B19E8F",
"s.	c #7E6E62",
"t.	c #0B0A09",
"u.	c #120707",
"v.	c #5A2E2E",
"w.	c #683434",
"x.	c #663333",
"y.	c #894747",
"z.	c #8A4747",
"A.	c #603131",
"B.	c #080303",
"C.	c #141210",
"D.	c #89786A",
"E.	c #B4A193",
"F.	c #7A6B5F",
"G.	c #070606",
"H.	c #3A1D1D",
"I.	c #673333",
"J.	c #6C3636",
"K.	c #864545",
"L.	c #844545",
"M.	c #3E1F1F",
"N.	c #0F0E0C",
"O.	c #867668",
"P.	c #B4A293",
"Q.	c #070706",
"R.	c #070303",
"S.	c #532A2A",
"T.	c #673434",
"U.	c #7A3E3E",
"V.	c #864646",
"W.	c #884646",
"X.	c #663434",
"Y.	c #0C0404",
"Z.	c #100E0C",
"`.	c #1B0C0C",
" +	c #5F3030",
".+	c #6C3737",
"++	c #6D3737",
"@+	c #2C1414",
"#+	c #2A1313",
"$+	c #633232",
"%+	c #442121",
"&+	c #341919",
"*+	c #653232",
"=+	c #623131",
"-+	c #522929",
";+	c #060202",
">+	c #2D1616",
",+	c #502828",
"'+	c #4F2828",
")+	c #502929",
"!+	c #512929",
"~+	c #010000",
"{+	c #1E0D0D",
"]+	c #3F2020",
"^+	c #572C2C",
"/+	c #643333",
"(+	c #4A2525",
"_+	c #592D2D",
":+	c #5C2E2E",
"<+	c #5B2E2E",
"[+	c #5B2D2D",
"}+	c #5A2D2D",
"|+	c #592C2C",
"1+	c #592B2B",
"2+	c #502727",
"3+	c #130808",
"4+	c #0B0505",
"5+	c #1A0D0D",
"6+	c #040202",
"7+	c #190B0B",
"8+	c #4C2323",
"9+	c #490808",
"0+	c #540808",
"a+	c #540707",
"b+	c #550707",
"c+	c #550606",
"d+	c #560606",
"e+	c #570505",
"f+	c #580505",
"g+	c #510404",
"h+	c #2D1010",
"i+	c #3B1F1F",
"j+	c #3C1F1F",
"k+	c #281414",
"l+	c #020101",
"m+	c #150909",
"n+	c #613030",
"o+	c #4F0F0F",
"p+	c #640000",
"q+	c #690000",
"r+	c #680000",
"s+	c #5F0000",
"t+	c #381414",
"u+	c #422323",
"v+	c #371C1C",
"w+	c #1F0E0E",
"x+	c #351A1A",
"y+	c #602F2F",
"z+	c #4D1313",
"A+	c #590101",
"B+	c #650000",
"C+	c #670000",
"D+	c #381313",
"E+	c #3A1F1F",
"F+	c #0A0404",
"G+	c #572525",
"H+	c #4E0F0F",
"I+	c #4E0303",
"J+	c #500000",
"K+	c #510000",
"L+	c #490000",
"M+	c #301111",
"N+	c #432323",
"O+	c #231010",
"P+	c #170A0A",
"Q+	c #402121",
"R+	c #4E2828",
"S+	c #552B2B",
"T+	c #572B2B",
"U+	c #572B2D",
"V+	c #582C2F",
"W+	c #552B2E",
"X+	c #4B2527",
"Y+	c #421B1D",
"Z+	c #3B1316",
"`+	c #391115",
" @	c #401A1B",
".@	c #412121",
"+@	c #231212",
"@@	c #010101",
"#@	c #0E0606",
"$@	c #221111",
"%@	c #231112",
"&@	c #321F1F",
"*@	c #35201B",
"=@	c #4A2F14",
"-@	c #4C3115",
";@	c #4B3115",
">@	c #4C3214",
",@	c #4D3314",
"'@	c #4F3513",
")@	c #523513",
"!@	c #593513",
"~@	c #614114",
"{@	c #6D4E15",
"]@	c #7A6712",
"^@	c #514012",
"/@	c #32191A",
"(@	c #271515",
"_@	c #0F0606",
":@	c #534E44",
"<@	c #BDAF8B",
"[@	c #BBA142",
"}@	c #DFB200",
"|@	c #E5B800",
"1@	c #E4B700",
"2@	c #E5B600",
"3@	c #E8B300",
"4@	c #EAAA00",
"5@	c #E49800",
"6@	c #D79200",
"7@	c #F1BE00",
"8@	c #F8DB00",
"9@	c #BDBB02",
"0@	c #4F3A16",
"a@	c #422122",
"b@	c #312626",
"c@	c #535151",
"d@	c #1D1D1D",
"e@	c #141311",
"f@	c #95896F",
"g@	c #BC9C45",
"h@	c #F0B90C",
"i@	c #FCBE00",
"j@	c #FEBD00",
"k@	c #FEB900",
"l@	c #FEB300",
"m@	c #FAA900",
"n@	c #E79700",
"o@	c #D38D11",
"p@	c #BC8E3B",
"q@	c #B99516",
"r@	c #EDCB00",
"s@	c #989204",
"t@	c #5F5321",
"u@	c #3B211F",
"v@	c #381C1C",
"w@	c #3D3939",
"x@	c #B7B8B8",
"y@	c #B1B1B1",
"z@	c #5A5A5A",
"A@	c #27241E",
"B@	c #C7B486",
"C@	c #D6AF57",
"D@	c #C99C3C",
"E@	c #BE933D",
"F@	c #C7973C",
"G@	c #C49337",
"H@	c #9D752E",
"I@	c #8F7445",
"J@	c #504127",
"K@	c #9C8A64",
"L@	c #AE9D63",
"M@	c #A7951D",
"N@	c #908431",
"O@	c #646156",
"P@	c #77726E",
"Q@	c #251312",
"R@	c #160A0A",
"S@	c #060505",
"T@	c #4E4E4E",
"U@	c #ADADAD",
"V@	c #CECECE",
"W@	c #858585",
"X@	c #0E0E0E",
"Y@	c #070605",
"Z@	c #AB9B74",
"`@	c #FFDE87",
" #	c #FFD672",
".#	c #F9DE9C",
"+#	c #F9E3AD",
"@#	c #F6DBA9",
"##	c #968675",
"$#	c #313337",
"%#	c #494A4A",
"&#	c #BBAB85",
"*#	c #D3C192",
"=#	c #E2D2A9",
"-#	c #DFCA9A",
";#	c #66635B",
">#	c #5F5C5D",
",#	c #271414",
"'#	c #030101",
")#	c #171717",
"!#	c #626262",
"~#	c #848484",
"{#	c #3B3B3B",
"]#	c #5D4E1B",
"^#	c #B49D5E",
"/#	c #C5A760",
"(#	c #FBD57C",
"_#	c #FFE39E",
":#	c #FFC5A4",
"<#	c #E4948A",
"[#	c #877162",
"}#	c #A4987A",
"|#	c #F5DEA6",
"1#	c #FFE9B1",
"2#	c #FFEBB3",
"3#	c #F3DDA7",
"4#	c #766E60",
"5#	c #564543",
"6#	c #0F0706",
"7#	c #060606",
"8#	c #C1AC9C",
"9#	c #A58400",
"0#	c #D9AE01",
"a#	c #9D8015",
"b#	c #BE9C45",
"c#	c #D7B25A",
"d#	c #E8B869",
"e#	c #FABE78",
"f#	c #FED991",
"g#	c #FFE7A5",
"h#	c #FFE8AC",
"i#	c #DBC695",
"j#	c #DAC594",
"k#	c #FFE9AE",
"l#	c #DABE93",
"m#	c #B6776E",
"n#	c #472424",
"o#	c #C0AC9B",
"p#	c #C0AB99",
"q#	c #AD9C90",
"r#	c #8B7C70",
"s#	c #96877B",
"t#	c #AF9D8E",
"u#	c #7B6C5F",
"v#	c #362A00",
"w#	c #D9AD00",
"x#	c #FFD000",
"y#	c #EFBF00",
"z#	c #BA9502",
"A#	c #B18E0C",
"B#	c #A48411",
"C#	c #816A30",
"D#	c #A88C53",
"E#	c #C0A058",
"F#	c #D7B873",
"G#	c #E0C687",
"H#	c #E2C98C",
"I#	c #D8BE81",
"J#	c #88764F",
"K#	c #201610",
"L#	c #877769",
"M#	c #AF9D8F",
"N#	c #928377",
"O#	c #8E7F73",
"P#	c #AF9F92",
"Q#	c #8D8179",
"R#	c #5D5651",
"S#	c #6C645D",
"T#	c #98897E",
"U#	c #6D6157",
"V#	c #271700",
"W#	c #714900",
"X#	c #C58C00",
"Y#	c #FFC900",
"Z#	c #E9BA00",
"`#	c #998131",
" $	c #95815B",
".$	c #A38752",
"+$	c #85662E",
"@$	c #55382E",
"#$	c #AA8C70",
"$$	c #A28143",
"%$	c #977A48",
"&$	c #664B34",
"*$	c #4E3B25",
"=$	c #413523",
"-$	c #0F0D0C",
";$	c #796C60",
">$	c #96887D",
",$	c #675F58",
"'$	c #615A54",
")$	c #92867D",
"!$	c #93877E",
"~$	c #605953",
"{$	c #706760",
"]$	c #A09185",
"^$	c #74675D",
"/$	c #382200",
"($	c #C17D00",
"_$	c #F3B100",
":$	c #E5BB1B",
"<$	c #D1B44F",
"[$	c #A59575",
"}$	c #BEA68E",
"|$	c #A58C74",
"1$	c #A07B65",
"2$	c #4B2827",
"3$	c #7E644F",
"4$	c #99784E",
"5$	c #5B3E28",
"6$	c #4A2D28",
"7$	c #3D221E",
"8$	c #22170F",
"9$	c #807267",
"0$	c #9E9084",
"a$	c #6A615B",
"b$	c #645C56",
"c$	c #998C83",
"d$	c #B0A093",
"e$	c #95867A",
"f$	c #9E8F82",
"g$	c #090500",
"h$	c #5C3900",
"i$	c #9B6E21",
"j$	c #E1CA91",
"k$	c #FEE7B1",
"l$	c #E9D39C",
"m$	c #B29B7D",
"n$	c #A68A6E",
"o$	c #775740",
"p$	c #3E1F20",
"q$	c #836854",
"r$	c #855F4A",
"s$	c #553026",
"t$	c #533630",
"u$	c #341A1B",
"v$	c #0B0404",
"w$	c #B09E90",
"x$	c #9B8C7F",
"y$	c #97887C",
"z$	c #B2A295",
"A$	c #050300",
"B$	c #432513",
"C$	c #55312D",
"D$	c #A8906F",
"E$	c #FCDF99",
"F$	c #D0AE64",
"G$	c #8F7655",
"H$	c #5D4A3A",
"I$	c #321D1A",
"J$	c #2E1818",
"K$	c #4B3229",
"L$	c #522A22",
"M$	c #9D7D65",
"N$	c #523A32",
"O$	c #311919",
"P$	c #C1AC9B",
"Q$	c #C0AB9A",
"R$	c #30191A",
"S$	c #58392D",
"T$	c #8E753D",
"U$	c #6D4A0B",
"V$	c #322106",
"W$	c #180E0B",
"X$	c #301A1A",
"Y$	c #2C1515",
"Z$	c #33100E",
"`$	c #A28066",
" %	c #C5A383",
".%	c #49322C",
"+%	c #331A1A",
"@%	c #0E0505",
"#%	c #442323",
"$%	c #482525",
"%%	c #3A1E1E",
"&%	c #211010",
"*%	c #100808",
"=%	c #2C1717",
"-%	c #290808",
";%	c #3D231D",
">%	c #B09174",
",%	c #9E7F66",
"'%	c #432C27",
")%	c #331A1B",
"!%	c #0D0404",
"~%	c #2F1818",
"{%	c #1E0F0F",
"]%	c #230000",
"^%	c #350505",
"/%	c #2A0808",
"(%	c #280B0B",
"_%	c #2F1B1A",
":%	c #928579",
"<%	c #A3968B",
"[%	c #382221",
"}%	c #351C1C",
"|%	c #110606",
"1%	c #180B0B",
"2%	c #321A1A",
"3%	c #3B1E1E",
"4%	c #423126",
"5%	c #2C1F16",
"6%	c #3F0707",
"7%	c #672A2A",
"8%	c #520101",
"9%	c #2E0C0C",
"0%	c #2C1818",
"a%	c #766E6E",
"b%	c #8E8687",
"c%	c #331F1F",
"d%	c #381D1D",
"e%	c #200F0F",
"f%	c #211112",
"g%	c #56412E",
"h%	c #3E341C",
"i%	c #0D0000",
"j%	c #510101",
"k%	c #5E0606",
"l%	c #4C0000",
"m%	c #2E0E0E",
"n%	c #472626",
"o%	c #4C2929",
"p%	c #080404",
"q%	c #0C0604",
"r%	c #180000",
"s%	c #5A0000",
"t%	c #660000",
"u%	c #420101",
"v%	c #261010",
"w%	c #301919",
"x%	c #4F2929",
"y%	c #361C1C",
"z%	c #2B1717",
"A%	c #251313",
"B%	c #020000",
"C%	c #230303",
"D%	c #3F0607",
"E%	c #370909",
"F%	c #432222",
"G%	c #452626",
"H%	c #522A2A",
"I%	c #4E2929",
"J%	c #472727",
"K%	c #391E1F",
"L%	c #0A0707",
"M%	c #362923",
"N%	c #432A26",
"O%	c #4A2927",
"P%	c #392120",
"Q%	c #3E2121",
"R%	c #301D1C",
"S%	c #5B4338",
"T%	c #847158",
"U%	c #635943",
"V%	c #18160E",
"W%	c #AFA079",
"X%	c #D3BC8A",
"Y%	c #8C7546",
"Z%	c #0C0704",
"`%	c #040203",
" &	c #1B1710",
".&	c #C3AA6E",
"+&	c #FFE9AB",
"@&	c #E4D09E",
"#&	c #67604F",
"$&	c #444035",
"%&	c #DAC99D",
"&&	c #FBE1A3",
"*&	c #7F6C3F",
"=&	c #020201",
"-&	c #705E31",
";&	c #EFD593",
">&	c #F5DFA8",
",&	c #8A7D66",
"'&	c #55463C",
")&	c #DDC899",
"!&	c #F7DEA1",
"~&	c #6F603C",
"{&	c #160F07",
"]&	c #765E44",
"^&	c #725546",
"/&	c #4C2D2A",
"(&	c #100506",
"_&	c #472525",
":&	c #624339",
"<&	c #866C4F",
"[&	c #3D311A",
"}&	c #3A1C1D",
"|&	c #4F2728",
"1&	c #3B1C1D",
"2&	c #201010",
"3&	c #391D1D",
"4&	c #1C0B0B",
"5&	c #240F10",
"6&	c #402221",
"7&	c #1E0E0E",
"8&	c #462524",
"9&	c #512B2A",
"0&	c #3F1F1F",
"a&	c #2D1515",
"b&	c #130707",
"c&	c #796B5E",
"d&	c #060504",
"e&	c #361A1A",
"f&	c #542B2B",
"g&	c #542C2B",
"h&	c #412221",
"i&	c #532B2A",
"j&	c #633131",
"k&	c #170909",
"l&	c #0E0C0B",
"m&	c #B09E8F",
"n&	c #8B7A6C",
"o&	c #2F2924",
"p&	c #1C0C0C",
"q&	c #512A29",
"r&	c #281313",
"s&	c #3A1C1C",
"t&	c #040303",
"u&	c #3A332D",
"v&	c #928172",
"w&	c #BEAB9D",
"x&	c #BEAA99",
"y&	c #B9A799",
"z&	c #A69485",
"A&	c #948273",
"B&	c #5C5147",
"C&	c #1A1714",
"D&	c #0B0A08",
"E&	c #0B0908",
"F&	c #080707",
"G&	c #211111",
"H&	c #3D2020",
"I&	c #3E2020",
"J&	c #261414",
"K&	c #0D0A09",
"L&	c #1A0F0E",
"M&	c #231312",
"N&	c #291515",
"O&	c #321919",
"P&	c #452323",
"Q&	c #090807",
"R&	c #0A0908",
"S&	c #1F1C18",
"T&	c #65594E",
"U&	c #988676",
"V&	c #A89687",
"W&	c #BAA89B",
"X&	c #A49181",
"Y&	c #907F71",
"Z&	c #837468",
"`&	c #6A5F56",
" *	c #776A5E",
".*	c #857669",
"+*	c #7B6D61",
"@*	c #73655A",
"#*	c #73665A",
"$*	c #77695E",
"%*	c #847568",
"&*	c #847467",
"**	c #837366",
"=*	c #807265",
"-*	c #7C6E62",
";*	c #77695D",
">*	c #706358",
",*	c #6F6257",
"'*	c #827366",
")*	c #7B6D62",
"!*	c #675D54",
"~*	c #827367",
"{*	c #938273",
"]*	c #A59383",
"^*	c #C0AC9D",
"/*	c #B5A496",
"(*	c #BCA999",
"_*	c #BCA899",
":*	c #85786E",
"<*	c #928276",
"[*	c #B8A595",
"}*	c #BCA898",
"|*	c #C4B3A5",
"1*	c #CEBFB4",
"2*	c #CBBCB0",
"3*	c #CCBDB1",
"4*	c #CDBEB3",
"5*	c #CBBBAF",
"6*	c #CFC0B5",
"7*	c #C2B0A2",
"8*	c #BDA999",
"9*	c #B6A393",
"0*	c #928376",
"a*	c #8D7F74",
"b*	c #A9998C",
"c*	c #BDA99A",
"d*	c #B4A395",
"e*	c #BBA99A",
"f*	c #BBA899",
"g*	c #867970",
"h*	c #9B8C80",
"i*	c #B8A697",
"j*	c #C6B6AA",
"k*	c #D3C7BE",
"l*	c #CFC2B8",
"m*	c #D1C3BA",
"n*	c #D2C5BC",
"o*	c #CEC1B7",
"p*	c #D4C8BF",
"q*	c #C3B2A6",
"r*	c #B6A496",
"s*	c #9C8C80",
"t*	c #8D8076",
"u*	c #A8988C",
"v*	c #BCAA9A",
"w*	c #B8A699",
"        . + + . @ # $ % + & * = - ; > , ' ) ! ! ! ! ! ! ~ { ] ^ / ( _ * : + < [ } | 1 + + .         ",
"    2 3 4 4 5 , 6 7 8 9 0 4 a b c d e f g h i j k i i i l m n c o p q a r 0 s t u @ , 5 4 4 v w     ",
"% v x y z A B C D E F G H H H I J K L M N O P Q R S T U V W X J K L X H H H Y Z `  .L ..+.@.y 5 #.$.",
"%.&.y *.% =.-.;.>.,.'.).>.>.>.>.>.!.~.{.].^./.(._.:.<.[.[.}.>.>.>.>.>.>.>.>.).|.1.>.2.3.4.1 5 y @.5.",
"#.y 6.7.8.9.0.a.a.a.a.a.a.a.a.a.a.b.c.d.d.d.e.f.g.h.i.j.a.a.a.a.a.a.a.a.a.a.a.a.a.a.a.k.l.m.n.@.o.p.",
"q.y 6.r.s.t.a.a.a.a.a.a.a.a.a.a.u.v.w.x.x.x.x.f._.y.z.A.B.a.a.a.a.a.a.a.a.a.a.a.a.a.a.a.C.D.E.@.o.p.",
"q.y 6...F.G.a.a.a.a.a.a.a.a.a.a.H.I.x.x.x.x.x.x.J.K.z.L.M.a.a.a.a.a.a.a.a.a.a.a.a.a.a.a.N.O.P.@.o.p.",
"q.y 6...F.Q.a.a.a.a.a.a.a.a.a.R.S.T.x.x.x.x.x.x.T.U.V.W.X.Y.a.a.a.a.a.a.a.a.a.a.a.a.a.a.Z.O.P.@.o.p.",
"q.y 6...F.Q.a.a.a.a.a.a.a.a.a.`. +x.x.x.x.x.x.x.x.T..+++x.@+a.a.a.a.a.a.a.a.a.a.a.a.a.a.Z.O.P.@.o.p.",
"q.y 6...F.Q.a.a.a.a.a.a.a.a.a.#+$+x.x.x.x.x.x.x.x.x.x.x.I.%+a.a.a.a.a.a.a.a.a.a.a.a.a.a.Z.O.P.@.o.p.",
"q.y 6...F.Q.a.a.a.a.a.a.a.a.a.&+f.*+=+=+f.x.x.x.x.x.x.x.I.-+;+a.a.a.a.a.a.a.a.a.a.a.a.a.Z.O.P.@.o.p.",
"q.y 6...F.Q.a.a.a.a.a.a.a.a.a.>+,+'+)+)+!+x.I.I.I.I.I.I.w.v.u.a.a.a.a.a.a.a.a.a.a.a.a.a.Z.O.P.@.o.p.",
"q.y 6...F.Q.a.a.a.a.a.a.~+{+]+^+/+e.(.e.(+_+:+<+[+}+|+|+1+2+3+4+`.5+6+a.a.a.a.a.a.a.a.a.Z.O.P.@.o.p.",
"q.y 6...F.Q.a.a.a.a.a.7+(+/+e.w.I.x.x.I.8+9+0+a+b+c+d+e+f+g+h+i+j+k+l+a.a.a.a.a.a.a.a.a.Z.O.P.@.o.p.",
"q.y 6...F.Q.a.a.a.a.m+_+e.x.x.x.x.x.x.x.n+o+p+q+r+r+r+r+q+s+t+u+v+w+a.a.a.a.a.a.a.a.a.a.Z.O.P.@.o.p.",
"q.y 6...F.Q.a.a.a.a.x+x.x.x.x.x.x.x.x.x.T.y+z+A+B+C+C+C+C+s+D+E+v+F+a.a.a.a.a.a.a.a.a.a.Z.O.P.@.o.p.",
"q.y 6...F.Q.a.a.a.a.x+=+x.x.I.I.I.I.I.I.I.w.T.G+H+I+J+K+K+L+M+N+O+a.a.a.a.a.a.a.a.a.a.a.Z.O.P.@.o.p.",
"q.y 6...F.Q.a.a.a.a.P+Q+R+S.S+T+^+U+U+U+U+U+U+V+W+X+Y+Z+`+ @.@+@@@a.a.a.a.a.a.a.a.a.a.a.Z.O.P.@.o.p.",
"q.y 6...F.Q.a.a.a.a.a.#@j.$@%@&@*@=@-@;@-@>@,@'@)@!@~@{@]@^@/@(@_@a.a.a.a.a.a.a.a.a.a.a.Z.O.P.@.o.p.",
"q.y 6...F.Q.a.a.a.a.a.a.a.a.:@<@[@}@|@1@1@2@3@4@5@6@7@8@9@0@a@b@c@d@a.a.a.a.a.a.a.a.a.a.Z.O.P.@.o.p.",
"q.y 6...F.Q.a.a.a.a.a.a.a.e@f@g@h@i@j@k@l@m@n@o@p@q@r@s@t@u@v@w@x@y@z@@@a.a.a.a.a.a.a.a.Z.O.P.@.o.p.",
"q.y 6...F.Q.a.a.a.a.a.a.a.A@B@C@D@E@F@G@H@I@J@K@L@M@N@O@P@Q@R@S@T@U@V@W@X@a.a.a.a.a.a.a.Z.O.P.@.o.p.",
"q.y 6...F.Q.a.a.a.a.a.a.a.Y@Z@`@ #.#+#@###$#%#&#*#=#-#;#>#,#'#a.a.)#!#~#{#a.a.a.a.a.a.a.Z.O.P.@.o.p.",
"q.y 6...F.Q.a.a.a.a.a.a.a.a.]#^#/#(#_#:#<#[#}#|#1#2#3#4#5#6#a.a.a.a.a.a.7#a.a.a.a.a.a.a.Z.O.P.@.o.p.",
"v @.8#..F.Q.a.a.a.a.a.a.a.a.9#0#a#b#c#d#e#f#g#h#i#j#k#l#m#n#a.a.a.a.a.a.a.a.a.a.a.a.a.a.Z.O.P.o#p##.",
"q#r#s#t#u#Q.a.a.a.a.a.a.a.v#w#x#y#z#A#B#C#D#E#F#G#H#I#J#K#a.a.a.a.a.a.a.a.a.a.a.a.a.a.a.Z.L#M#N#O#P#",
"Q#R#S#T#U#Y@a.a.a.a.a.V#W#X#Y#Z#`# $.$+$@$#$$$%$&$*$=$a.a.a.a.a.a.a.a.a.a.a.a.a.a.a.a.a.-$;$>$,$'$)$",
"!$~${$]$^$G.a.a.a.a.a./$($_$:$<$[$}$|$1$2$3$4$5$6$7$8$a.a.a.a.a.a.a.a.a.a.a.a.a.a.a.a.a.N.9$0$a$b$c$",
"d$e$f$t#u#Q.a.a.a.a.a.g$h$i$j$k$l$m$n$o$p$q$r$s$t$u$v$a.a.a.a.a.a.a.a.a.a.a.a.a.a.a.a.a.Z.L#w$x$y$z$",
"v @.8#..F.Q.a.a.a.a.a.A$B$C$D$E$F$G$H$I$J$K$L$M$N$O$_@a.a.a.a.a.a.a.a.a.a.a.a.a.a.a.a.a.Z.O.P.P$Q$#.",
"q.y 6...F.Q.a.a.a.a.6+k+R$p$S$T$U$V$W$X$Y$Z$`$ %.%+%@%a.a.a.a.a.a.a.a.a.a.a.a.a.a.a.a.a.Z.O.P.@.o.p.",
"q.y 6...F.Q.a.a.a.a.`.#%$%%%&%~+a.a.*%=%-%;%>%,%'%)%!%a.a.a.a.a.a.a.a.a.a.a.a.a.a.a.a.a.Z.O.P.@.o.p.",
"q.y 6...F.Q.a.a.a.a.~%$%$%v@{%a.a.]%^%/%(%_%:%<%[%}%|%a.a.a.a.a.a.a.a.a.a.a.a.a.a.a.a.a.Z.O.P.@.o.p.",
"q.y 6...F.Q.a.a.a.a.1%2%3%4%5%a.a.6%7%8%9%0%a%b%c%d%e%a.a.a.a.a.a.a.a.a.a.a.a.a.a.a.a.a.Z.O.P.@.o.p.",
"q.y 6...F.Q.a.a.a.a.l+#@f%g%h%a.i%j%k%l%m%0%n%o%2%}%b.a.a.a.a.a.a.a.a.a.a.a.a.a.a.a.a.a.Z.O.P.@.o.p.",
"q.y 6...F.Q.a.a.a.a.a.a.p%q%a.a.r%s%t%u%v%w%)+x%y%z%A%~+a.a.a.a.a.a.a.a.a.a.a.a.a.a.a.a.Z.O.P.@.o.p.",
"q.y 6...F.Q.a.a.a.a.a.a.a.a.a.a.B%C%D%E%F%G%H%I%J%$%K%v$a.a.a.a.a.a.a.a.a.a.a.a.a.a.a.a.Z.O.P.@.o.p.",
"q.y 6...F.Q.a.a.a.a.a.a.a.a.a.a.a.L%M%N%O%P%u+Q%R%S%T%U%a.a.a.a.a.a.a.a.a.a.a.a.a.a.a.a.Z.O.P.@.o.p.",
"q.y 6...F.Q.a.a.a.a.a.a.a.a.a.a.a.V%W%X%Y%Z%R.`% &.&+&@&#&a.a.a.a.a.a.a.a.a.a.a.a.a.a.a.Z.O.P.@.o.p.",
"q.y 6...F.Q.a.a.a.a.a.a.a.a.a.a.a.$&%&&&*&a.a.a.=&-&;&>&,&a.a.a.a.a.a.a.a.a.a.a.a.a.a.a.Z.O.P.@.o.p.",
"q.y 6...F.Q.a.a.a.a.a.a.a.a.a.a.a.'&)&!&~&a.a.a.a.{&]&^&/&(&a.a.a.a.a.a.a.a.a.a.a.a.a.a.Z.O.P.@.o.p.",
"q.y 6...F.Q.a.a.a.a.a.a.a.a.a.a.|%_&:&<&[&a.a.a.a.'#}&|&n#m+a.a.a.a.a.a.a.a.a.a.a.a.a.a.Z.O.P.@.o.p.",
"q.y 6...F.Q.a.a.a.a.a.a.a.a.a.a.#@.@|&1&6+a.a.a.a.a.2&3&y%p%a.a.a.a.a.a.a.a.a.a.a.a.a.a.Z.O.P.@.o.p.",
"q.y 6...F.Q.a.a.a.a.a.a.a.@@4&5&O$6&y%7&a.a.a.a.a.a.7&8&9&0&a&b&a.a.a.a.a.a.a.a.a.a.a.a.Z.O.P.@.o.p.",
"q.y 6...c&d&a.a.a.a.a.a.@@e&c.c.f&g&h&u.a.a.a.a.a.6+M.i&S.^+j&-+k&a.a.a.a.a.a.a.a.a.a.a.l&O.P.@.o.p.",
"q.y 6.m&n&o&=&a.a.a.a.a.p&^+$+_+H%H%q&r&a.a.a.a.a._@F%R+R+H%c.=+s&a.a.a.a.a.a.a.a.a.a.t&u&v&: @.o.p.",
"w&y x&y&z&A&B&C&D&E&F&t.G&.@.@Q+H&I&.@J&t.t.t.t.t.K&L&M&N&O&3%P&d%t.t.t.t.t.t.Q&R&D&S&T&U&V&A o.o.5.",
"W&, y &.*.$.X&Y&Z&`& *.*+*@*#*@*@*#*@*$*%*%*&*&*&*&*&***=*-*;*>*,*'*%*%*%*%*.*)*!*~*{*]*% 5 o.o.^*2 ",
"  /*v 6.o.x (*_*$.:*<*[*(*(*(*(*(*(*(*(*}*|*1*2*3*4*5*6*7*}*(*(*(*(*(*(*(*8*9*0*a*b*8*c*x o.x w&d*  ",
"      y&e*f*f*A P#g*h*i*e*f*f*f*f*f*f*f*f*j*k*l*m*n*o*p*q*f*f*f*f*f*f*f*f*e*r*s*t*u*v*f*f*e*w*      "};
