/* XPM */
static char * i_xpm[] = {
"50 50 4 1",
" 	c #000000",
".	c #006E00",
"+	c #00FF00",
"@	c #00AB00",
"                                                  ",
"                                                  ",
"                    .+++++@                       ",
"                    .+++++@                       ",
"                    .+++++@                       ",
"                    .+++++@                       ",
"                    .+++++@                       ",
"                    .+++++@                       ",
"                    .+++++@                       ",
"                    .+++++@                       ",
"                    .+++++@                       ",
"                    .+++++@                       ",
"                    .+++++@                       ",
"                    .+++++@                       ",
"                    .+++++@                       ",
"                    .+++++@                       ",
"                    .+++++@                       ",
"                    .+++++@                       ",
"                    .+++++@                       ",
"                    .+++++@                       ",
"                    .+++++@                       ",
"                    .+++++@                       ",
"                    .+++++@                       ",
"                    .+++++@                       ",
"                    .+++++@                       ",
"                    .+++++@                       ",
"                    .+++++@                       ",
"                    .+++++@                       ",
"                    .+++++@                       ",
"                    .+++++@                       ",
"                    .+++++@                       ",
"                    .+++++@                       ",
"                    .+++++@                       ",
"                    .+++++@                       ",
"                    .+++++@                       ",
"                    .+++++@                       ",
"                                                  ",
"                                                  ",
"                                                  ",
"                                                  ",
"                                                  ",
"                                                  ",
"                                                  ",
"                                                  ",
"                                                  ",
"                                                  ",
"                                                  ",
"                                                  ",
"                                                  ",
"                                                  "};
