/* XPM */
static char * n_xpm[] = {
"50 50 63 1",
" 	c #000000",
".	c #007900",
"+	c #00BD00",
"@	c #00DF00",
"#	c #00F300",
"$	c #00FB00",
"%	c #00FC00",
"&	c #00F200",
"*	c #00E800",
"=	c #00CD00",
"-	c #009B00",
";	c #004000",
">	c #00A500",
",	c #00FF00",
"'	c #008500",
")	c #008300",
"!	c #00E200",
"~	c #00F700",
"{	c #00B000",
"]	c #002600",
"^	c #001600",
"/	c #00C200",
"(	c #00FE00",
"_	c #00E400",
":	c #004700",
"<	c #002200",
"[	c #00D700",
"}	c #00E900",
"|	c #004200",
"1	c #00CF00",
"2	c #00CB00",
"3	c #00D000",
"4	c #00C400",
"5	c #008E00",
"6	c #006200",
"7	c #003800",
"8	c #003D00",
"9	c #006800",
"0	c #00A600",
"a	c #00E000",
"b	c #008400",
"c	c #00FD00",
"d	c #00B800",
"e	c #003500",
"f	c #00A200",
"g	c #00D600",
"h	c #00FA00",
"i	c #008F00",
"j	c #004D00",
"k	c #009F00",
"l	c #00DE00",
"m	c #00A100",
"n	c #00D500",
"o	c #009700",
"p	c #007A00",
"q	c #00E700",
"r	c #00F000",
"s	c #00C800",
"t	c #00D400",
"u	c #00A700",
"v	c #002E00",
"w	c #008700",
"x	c #003200",
"                                                  ",
"                        .+@#$%&*=-;               ",
"            >,,,,,'   )!,,,,,,,,,,~{]             ",
"            >,,,,,' ^/(,,,,,,,,,,,,,_:            ",
"            >,,,,,'<[,,,,,,,,,,,,,,,,}|           ",
"            >,,,,,'1,,,,,,,,,,,,,,,,,,2           ",
"            >,,,,,3,,,,#4567890a,,,,,,,b          ",
"            >,,,,,,,,cde        fc,,,,,g          ",
"            >,,,,,,,hi           f,,,,,%j         ",
"            >,,,,,,,k             l,,,,,m         ",
"            >,,,,,,n              o,,,,,4         ",
"            >,,,,,,p              ]$,,,,a         ",
"            >,,,,,}                q,,,,r         ",
"            >,,,,,s                t,,,,~         ",
"            >,,,,,u                2,,,,c         ",
"            >,,,,,o                4,,,,,v        ",
"            >,,,,,w                4,,,,,x        ",
"            >,,,,,'                4,,,,,x        ",
"            >,,,,,'                4,,,,,x        ",
"            >,,,,,'                4,,,,,x        ",
"            >,,,,,'                4,,,,,x        ",
"            >,,,,,'                4,,,,,x        ",
"            >,,,,,'                4,,,,,x        ",
"            >,,,,,'                4,,,,,x        ",
"            >,,,,,'                4,,,,,x        ",
"            >,,,,,'                4,,,,,x        ",
"            >,,,,,'                4,,,,,x        ",
"            >,,,,,'                4,,,,,x        ",
"            >,,,,,'                4,,,,,x        ",
"            >,,,,,'                4,,,,,x        ",
"            >,,,,,'                4,,,,,x        ",
"            >,,,,,'                4,,,,,x        ",
"            >,,,,,'                4,,,,,x        ",
"            >,,,,,'                4,,,,,x        ",
"            >,,,,,'                4,,,,,x        ",
"            >,,,,,'                4,,,,,x        ",
"                                                  ",
"                                                  ",
"                                                  ",
"                                                  ",
"                                                  ",
"                                                  ",
"                                                  ",
"                                                  ",
"                                                  ",
"                                                  ",
"                                                  ",
"                                                  ",
"                                                  ",
"                                                  "};
