/* XPM */
static char * o_xpm[] = {
"50 50 101 2",
"  	c #000000",
". 	c #007100",
"+ 	c #00B300",
"@ 	c #00D700",
"# 	c #00EB00",
"$ 	c #00F700",
"% 	c #00FD00",
"& 	c #00FC00",
"* 	c #00EA00",
"= 	c #00D600",
"- 	c #00B100",
"; 	c #006A00",
"> 	c #009B00",
", 	c #00E700",
"' 	c #00FF00",
") 	c #00E400",
"! 	c #009400",
"~ 	c #006300",
"{ 	c #00E000",
"] 	c #00DB00",
"^ 	c #005800",
"/ 	c #008500",
"( 	c #00F600",
"_ 	c #00F300",
": 	c #007900",
"< 	c #008200",
"[ 	c #00FA00",
"} 	c #007600",
"| 	c #005A00",
"1 	c #00F500",
"2 	c #00D800",
"3 	c #009F00",
"4 	c #006D00",
"5 	c #003D00",
"6 	c #004200",
"7 	c #007000",
"8 	c #00A300",
"9 	c #00DC00",
"0 	c #00F000",
"a 	c #004B00",
"b 	c #007A00",
"c 	c #008600",
"d 	c #00EF00",
"e 	c #00D400",
"f 	c #00E300",
"g 	c #003800",
"h 	c #00EC00",
"i 	c #008800",
"j 	c #00E600",
"k 	c #00EE00",
"l 	c #004700",
"m 	c #005C00",
"n 	c #00DF00",
"o 	c #009000",
"p 	c #00A600",
"q 	c #006C00",
"r 	c #00C300",
"s 	c #00DE00",
"t 	c #000D00",
"u 	c #00E900",
"v 	c #00BD00",
"w 	c #00B000",
"x 	c #00E500",
"y 	c #004500",
"z 	c #00FB00",
"A 	c #003500",
"B 	c #005100",
"C 	c #00FE00",
"D 	c #003200",
"E 	c #008400",
"F 	c #00C800",
"G 	c #009C00",
"H 	c #00B600",
"I 	c #00C200",
"J 	c #00B200",
"K 	c #00BB00",
"L 	c #00C600",
"M 	c #00A700",
"N 	c #00C000",
"O 	c #00C700",
"P 	c #009A00",
"Q 	c #00A800",
"R 	c #00D300",
"S 	c #00ED00",
"T 	c #004D00",
"U 	c #002E00",
"V 	c #009D00",
"W 	c #00AE00",
"X 	c #00E800",
"Y 	c #008C00",
"Z 	c #004000",
"` 	c #005600",
" .	c #00F400",
"..	c #009300",
"+.	c #008700",
"@.	c #008300",
"#.	c #00D200",
"$.	c #00A100",
"%.	c #006500",
"&.	c #00B400",
"*.	c #00F800",
"                                                                                                    ",
"                    . + @ # $ % & $ * = - ;                                                         ",
"                > , ' ' ' ' ' ' ' ' ' ' ' ' ) !                                                     ",
"            ~ { ' ' ' ' ' ' ' ' ' ' ' ' ' ' ' ' ] ^                                                 ",
"          / ( ' ' ' ' ' ' ' ' ' ' ' ' ' ' ' ' ' ' _ :                                               ",
"        < [ ' ' ' ' ' ' ' ' ' ' ' ' ' ' ' ' ' ' ' ' $ }                                             ",
"      | 1 ' ' ' ' ' ' % 2 3 4 5 6 7 8 9 ' ' ' ' ' ' ' 0 a                                           ",
"      ] ' ' ' ' ' ' * b                 c d ' ' ' ' ' ' e                                           ",
"    ! ' ' ' ' ' ' f g                     a h ' ' ' ' ' ' i                                         ",
"    j ' ' ' ' ' k l                         m ( ' ' ' ' ' n                                         ",
"  b ' ' ' ' ' ' o                             p ' ' ' ' ' ' q                                       ",
"  r ' ' ' ' ' s                               t u ' ' ' ' ' v                                       ",
"  * ' ' ' ' ' 3                                 w ' ' ' ' ' x                                       ",
"y ' ' ' ' ' z A                                 B C ' ' ' ' % D                                     ",
"E ' ' ' ' ' )                                     k ' ' ' ' ' :                                     ",
"8 ' ' ' ' ' F                                     e ' ' ' ' ' G                                     ",
"H ' ' ' ' ' w                                     v ' ' ' ' ' w                                     ",
"I ' ' ' ' ' p                                     J ' ' ' ' ' K                                     ",
"L ' ' ' ' ' >                                     M ' ' ' ' ' N                                     ",
"O ' ' ' ' ' P                                     Q ' ' ' ' ' N                                     ",
"I ' ' ' ' ' p                                     J ' ' ' ' ' K                                     ",
"H ' ' ' ' ' w                                     v ' ' ' ' ' w                                     ",
"8 ' ' ' ' ' F                                     R ' ' ' ' ' G                                     ",
"E ' ' ' ' ' f                                     S ' ' ' ' ' :                                     ",
"y ' ' ' ' ' [ D                                 T C ' ' ' ' % U                                     ",
"  * ' ' ' ' ' V                                 W ' ' ' ' ' )                                       ",
"  I ' ' ' ' ' 9                                 X ' ' ' ' ' K                                       ",
"  : ' ' ' ' ' ' Y                             8 ' ' ' ' ' ' ;                                       ",
"    x ' ' ' ' ' S Z                         `  .' ' ' ' ' s                                         ",
"    ..' ' ' ' ' ' { U                     l u ' ' ' ' ' ' +.                                        ",
"      ] ' ' ' ' ' ' , }                 @.S ' ' ' ' ' ' #.                                          ",
"      | 1 ' ' ' ' ' ' % @ G ; 5 Z 4 $.] C ' ' ' ' ' ' 0 a                                           ",
"        < [ ' ' ' ' ' ' ' ' ' ' ' ' ' ' ' ' ' ' ' ' $ }                                             ",
"          c ( ' ' ' ' ' ' ' ' ' ' ' ' ' ' ' ' ' '  .b                                               ",
"            %.{ ' ' ' ' ' ' ' ' ' ' ' ' ' ' ' ' 9 |                                                 ",
"              t > , ' ' ' ' ' ' ' ' ' ' ' ' ) !                                                     ",
"                    . &.2 h *.% % *.# @ J q                                                         ",
"                                                                                                    ",
"                                                                                                    ",
"                                                                                                    ",
"                                                                                                    ",
"                                                                                                    ",
"                                                                                                    ",
"                                                                                                    ",
"                                                                                                    ",
"                                                                                                    ",
"                                                                                                    ",
"                                                                                                    ",
"                                                                                                    ",
"                                                                                                    "};
