/* XPM */
static char * u_xpm[] = {
"50 50 67 1",
" 	c #000000",
".	c #00DF00",
"+	c #00FF00",
"@	c #00ED00",
"#	c #00F500",
"$	c #00D600",
"%	c #00F600",
"&	c #00DE00",
"*	c #00EE00",
"=	c #00FD00",
"-	c #00D900",
";	c #00F300",
">	c #004500",
",	c #00D100",
"'	c #00FA00",
")	c #008900",
"!	c #00C800",
"~	c #005600",
"{	c #00BB00",
"]	c #00B400",
"^	c #009200",
"/	c #001600",
"(	c #00EF00",
"_	c #008A00",
":	c #00CD00",
"<	c #009F00",
"[	c #00F900",
"}	c #005100",
"|	c #005D00",
"1	c #00E000",
"2	c #00D400",
"3	c #005A00",
"4	c #00E900",
"5	c #00A200",
"6	c #00CB00",
"7	c #003200",
"8	c #009500",
"9	c #00F200",
"0	c #003500",
"a	c #00F100",
"b	c #00B500",
"c	c #007700",
"d	c #004900",
"e	c #002600",
"f	c #005500",
"g	c #007C00",
"h	c #00E600",
"i	c #00DC00",
"j	c #009000",
"k	c #00F000",
"l	c #00C200",
"m	c #006800",
"n	c #00BC00",
"o	c #00E500",
"p	c #008800",
"q	c #00E700",
"r	c #00B100",
"s	c #001C00",
"t	c #000D00",
"u	c #008300",
"v	c #00BE00",
"w	c #00E300",
"x	c #00F700",
"y	c #00E800",
"z	c #00CE00",
"A	c #009A00",
"B	c #002E00",
"                                                  ",
"                                                  ",
"  .++++@                 #++++$                   ",
"  .++++@                 #++++$                   ",
"  .++++@                 #++++$                   ",
"  .++++@                 #++++$                   ",
"  .++++@                 #++++$                   ",
"  .++++@                 #++++$                   ",
"  .++++@                 #++++$                   ",
"  .++++@                 #++++$                   ",
"  .++++@                 #++++$                   ",
"  .++++@                 #++++$                   ",
"  .++++@                 #++++$                   ",
"  .++++@                 #++++$                   ",
"  .++++@                 #++++$                   ",
"  .++++@                 #++++$                   ",
"  .++++@                 #++++$                   ",
"  .++++@                 #++++$                   ",
"  .++++@                 #++++$                   ",
"  .++++@                 #++++$                   ",
"  .++++@                 #++++$                   ",
"  .++++@                 %++++$                   ",
"  &++++*                 =++++$                   ",
"  -++++;                >+++++$                   ",
"  ,++++'                )+++++$                   ",
"  !+++++~               {+++++$                   ",
"  ]+++++^              /(+++++$                   ",
"  _+++++:              <++++++$                   ",
"  >+++++[}            |%++++++$                   ",
"   1+++++2           34+++++++$                   ",
"   5++++++67        89++++++++$                   ",
"   0a++++++abcdefg]h++++i#++++$                   ",
"    j++++++++++++++++++k}#++++$                   ",
"     l++++++++++++++++9m #++++$                   ",
"      n++++++++++++++o3  #++++$                   ",
"       pq++++++++++#rs   #++++$                   ",
"        tuvw([=xyzAB                              ",
"                                                  ",
"                                                  ",
"                                                  ",
"                                                  ",
"                                                  ",
"                                                  ",
"                                                  ",
"                                                  ",
"                                                  ",
"                                                  ",
"                                                  ",
"                                                  ",
"                                                  "};
