/* XPM */
static char * w_xpm[] = {
"50 50 142 2",
"  	c #000000",
". 	c #008C00",
"+ 	c #00FF00",
"@ 	c #009500",
"# 	c #004D00",
"$ 	c #00E400",
"% 	c #00CC00",
"& 	c #00FA00",
"* 	c #003200",
"= 	c #00FB00",
"- 	c #00C600",
"; 	c #009B00",
"> 	c #00FD00",
", 	c #004000",
"' 	c #00EF00",
") 	c #00DC00",
"! 	c #00DF00",
"~ 	c #00EB00",
"{ 	c #00CA00",
"] 	c #009400",
"^ 	c #006200",
"/ 	c #00B400",
"( 	c #00B900",
"_ 	c #005500",
": 	c #00EE00",
"< 	c #00C500",
"[ 	c #00A700",
"} 	c #007900",
"| 	c #008100",
"1 	c #00A000",
"2 	c #005D00",
"3 	c #00EA00",
"4 	c #00D200",
"5 	c #00F600",
"6 	c #001600",
"7 	c #001C00",
"8 	c #00F900",
"9 	c #00CE00",
"0 	c #00A400",
"a 	c #005300",
"b 	c #00F400",
"c 	c #00D600",
"d 	c #00DA00",
"e 	c #00F100",
"f 	c #00D100",
"g 	c #00E700",
"h 	c #009F00",
"i 	c #007100",
"j 	c #00AC00",
"k 	c #00B100",
"l 	c #006800",
"m 	c #00F300",
"n 	c #00FC00",
"o 	c #009600",
"p 	c #00CD00",
"q 	c #00AF00",
"r 	c #006C00",
"s 	c #007500",
"t 	c #00AA00",
"u 	c #006E00",
"v 	c #00E000",
"w 	c #003500",
"x 	c #00F000",
"y 	c #00D800",
"z 	c #00F200",
"A 	c #000D00",
"B 	c #00F500",
"C 	c #00D500",
"D 	c #00AD00",
"E 	c #006600",
"F 	c #00F800",
"G 	c #00D000",
"H 	c #00D400",
"I 	c #00D700",
"J 	c #008200",
"K 	c #00A900",
"L 	c #007E00",
"M 	c #00A300",
"N 	c #007800",
"O 	c #00F700",
"P 	c #002200",
"Q 	c #00B600",
"R 	c #005C00",
"S 	c #007C00",
"T 	c #00DE00",
"U 	c #00ED00",
"V 	c #00B500",
"W 	c #00B000",
"X 	c #007700",
"Y 	c #002E00",
"Z 	c #00C900",
"` 	c #002600",
" .	c #00DD00",
"..	c #007300",
"+.	c #00B200",
"@.	c #008A00",
"#.	c #009A00",
"$.	c #008600",
"%.	c #002A00",
"&.	c #00DB00",
"*.	c #00BE00",
"=.	c #00FE00",
"-.	c #004B00",
";.	c #005600",
">.	c #00BD00",
",.	c #008700",
"'.	c #00EC00",
").	c #00E300",
"!.	c #00D300",
"~.	c #008500",
"{.	c #00C200",
"].	c #00C700",
"^.	c #003D00",
"/.	c #006000",
"(.	c #00BB00",
"_.	c #009000",
":.	c #009700",
"<.	c #009300",
"[.	c #003B00",
"}.	c #006300",
"|.	c #00E200",
"1.	c #003800",
"2.	c #004500",
"3.	c #009200",
"4.	c #00CB00",
"5.	c #00E600",
"6.	c #00C400",
"7.	c #005100",
"8.	c #00C000",
"9.	c #00E900",
"0.	c #009E00",
"a.	c #008E00",
"b.	c #00E800",
"c.	c #00C300",
"d.	c #004F00",
"e.	c #00B300",
"f.	c #008300",
"g.	c #00BA00",
"h.	c #00AB00",
"i.	c #008800",
"j.	c #006A00",
"k.	c #00CF00",
"                                                                                                    ",
"        . + + + + + @                         # + + + + + + $                           % + + + + & ",
"        * = + + + + -                         ; + + + + + + > ,                         ' + + + + ) ",
"          ! + + + + ~                         { + + + + + + + ]                       ^ + + + + + / ",
"          ( + + + + + _                       : + + + + + + + <                       [ + + + + + } ",
"          | + + + + + 1                     2 + + + + + + + + 3                       4 + + + + 5 6 ",
"          7 8 + + + + 9                     0 + + + + + + + + + a                     b + + + + c   ",
"            d + + + + e                     f + + + + g + + + + h                   i + + + + + j   ",
"            k + + + + + l                   m + + + n o + + + + p                   q + + + + + r   ",
"            s + + + + + t                 u + + + + v w n + + + x                   y + + + + z     ",
"            A B + + + + C                 D + + + + (   v + + + + E               6 F + + + + G     ",
"              H + + + + 5 A               I + + + + J   ( + + + + K               L + + + + + M     ",
"              K + + + + + N             6 O + + + 8 P   | + + + + H               Q + + + + + R     ",
"              E + + + + + /             S + + + + d     7 8 + + + 5 A             T + + + + U       ",
"                e + + + + )             V + + + + W       d + + + + X           Y = + + + + Z       ",
"                9 + + + + & `            .+ + + + ..      W + + + + +.          @.+ + + + + #.      ",
"                1 + + + + + $.        %.= + + + B         ..+ + + + &.          *.+ + + + =.-.      ",
"                ;.+ + + + + >.        ,.+ + + + 4           B + + + & `         $ + + + + g         ",
"                  '.+ + + + ).        >.+ + + + [           !.+ + + + ~.      , > + + + + {.        ",
"                  ].+ + + + > ^.      ).+ + + + /.          [ + + + + (.      ] + + + + + _.        ",
"                  :.+ + + + + <.    [.> + + + :             }.+ + + + |.      < + + + + n 1.        ",
"                  2.=.+ + + + <     3.+ + + + 4.              ' + + + > [.    3 + + + + |.          ",
"                    5.+ + + + 3     6.+ + + + ;               % + + + + 3.  7.+ + + + + (.          ",
"                    8.+ + + + + 7.  9.+ + + + #               0.+ + + + 6.  0.+ + + + + ~.          ",
"                    a.+ + + + + 0.# + + + + b.                7.+ + + + 9.  % + + + + & `           ",
"                    w n + + + + p ; + + + + c.                  3 + + + + d.' + + + + )             ",
"                      v + + + + x { + + + + _.                  < + + + + / + + + + + e.            ",
"                      ( + + + + + O + + + n 1.                  ] + + + + O + + + + + N             ",
"                      f.+ + + + + + + + + |.                    ^.> + + + + + + + + 5 A             ",
"                      P 8 + + + + + + + + g.                      $ + + + + + + + + c               ",
"                        &.+ + + + + + + + f.                      >.+ + + + + + + + h.              ",
"                        +.+ + + + + + + 8 P                       i.+ + + + + + + + j.              ",
"                        X + + + + + + + d                         %.= + + + + + + z                 ",
"                        A 5 + + + + + + k                            .+ + + + + + k.                ",
"                          C + + + + + + s                           V + + + + + + M                 ",
"                                                                                                    ",
"                                                                                                    ",
"                                                                                                    ",
"                                                                                                    ",
"                                                                                                    ",
"                                                                                                    ",
"                                                                                                    ",
"                                                                                                    ",
"                                                                                                    ",
"                                                                                                    ",
"                                                                                                    ",
"                                                                                                    ",
"                                                                                                    ",
"                                                                                                    ",
"                                                                                                    "};
