/* XPM */
static char * y_xpm[] = {
"50 50 115 2",
"  	c #000000",
". 	c #00FF00",
"+ 	c #00F600",
"@ 	c #002A00",
"# 	c #008C00",
"$ 	c #00D100",
"% 	c #009F00",
"& 	c #00D500",
"* 	c #008500",
"= 	c #00E000",
"- 	c #005100",
"; 	c #00FC00",
"> 	c #00EC00",
", 	c #00DD00",
"' 	c #006A00",
") 	c #00B400",
"! 	c #00AF00",
"~ 	c #009700",
"{ 	c #00C200",
"] 	c #00EE00",
"^ 	c #00FB00",
"/ 	c #004700",
"( 	c #001C00",
"_ 	c #00F200",
": 	c #008A00",
"< 	c #00CF00",
"[ 	c #00B900",
"} 	c #009D00",
"| 	c #00D400",
"1 	c #008100",
"2 	c #005600",
"3 	c #00FD00",
"4 	c #00DF00",
"5 	c #004F00",
"6 	c #00EA00",
"7 	c #006800",
"8 	c #00B300",
"9 	c #00AD00",
"0 	c #00C100",
"a 	c #00ED00",
"b 	c #00FA00",
"c 	c #004200",
"d 	c #00F500",
"e 	c #002600",
"f 	c #008800",
"g 	c #00CD00",
"h 	c #00B000",
"i 	c #009B00",
"j 	c #00D200",
"k 	c #007D00",
"l 	c #004500",
"m 	c #00DE00",
"n 	c #004B00",
"o 	c #00E800",
"p 	c #006600",
"q 	c #00B200",
"r 	c #00AA00",
"s 	c #007C00",
"t 	c #00C000",
"u 	c #00F900",
"v 	c #003D00",
"w 	c #00E600",
"x 	c #00F400",
"y 	c #002200",
"z 	c #008600",
"A 	c #00CA00",
"B 	c #00A600",
"C 	c #009A00",
"D 	c #007800",
"E 	c #003500",
"F 	c #00F700",
"G 	c #004900",
"H 	c #00C500",
"I 	c #00FE00",
"J 	c #006300",
"K 	c #00A700",
"L 	c #006C00",
"M 	c #00BE00",
"N 	c #00EB00",
"O 	c #00F800",
"P 	c #003800",
"Q 	c #008400",
"R 	c #00C800",
"S 	c #009800",
"T 	c #00D000",
"U 	c #007500",
"V 	c #00F300",
"W 	c #00DC00",
"X 	c #00E400",
"Y 	c #00BC00",
"Z 	c #006000",
"` 	c #00A300",
" .	c #005C00",
"..	c #00BD00",
"+.	c #00D700",
"@.	c #008E00",
"#.	c #00EF00",
"$.	c #007000",
"%.	c #000D00",
"&.	c #00E200",
"*.	c #00A000",
"=.	c #002E00",
"-.	c #00C300",
";.	c #008000",
">.	c #00F000",
",.	c #008D00",
"'.	c #007100",
").	c #00E900",
"!.	c #00B100",
"~.	c #006200",
"{.	c #00A500",
"].	c #00D600",
"^.	c #004D00",
"/.	c #00C700",
"(.	c #007A00",
"                                                                                                    ",
". . . . + @                                       # . . . . . $                                     ",
". . . . . %                                       & . . . . . *                                     ",
". . . . . =                                     - ; . . . . >                                       ",
", . . . . . '                                   ) . . . . . !                                       ",
"~ . . . . . {                                   ] . . . . ^ /                                       ",
"( _ . . . . + @                               : . . . . . <                                         ",
"  [ . . . . . }                               | . . . . . 1                                         ",
"  2 3 . . . . 4                             5 ; . . . . 6                                           ",
"    & . . . . . 7                           8 . . . . . 9                                           ",
"    : . . . . . 0                           a . . . . b c                                           ",
"      a . . . . d e                       f . . . . . g                                             ",
"      h . . . . . i                       j . . . . . k                                             ",
"      l ^ . . . . m                     n ; . . . . o                                               ",
"        g . . . . . p                   q . . . . . r                                               ",
"        s . . . . . t                   > . . . . u v                                               ",
"          w . . . . x y               z . . . . . A                                                 ",
"          B . . . . . C               $ . . . . . D                                                 ",
"          E F . . . . ,             G ^ . . . . w                                                   ",
"            H . . . . I J           h . . . . . K                                                   ",
"            L . . . . . M           N . . . . O P                                                   ",
"              4 . . . . x y       Q . . . . . R                                                     ",
"              i . . . . . S       T . . . . . U                                                     ",
"              y V . . . . W     / ^ . . . . X                                                       ",
"                Y . . . . I Z   ! . . . . . `                                                       ",
"                 .3 . . . . ..  6 . . . . F E                                                       ",
"                  +.. . . . V * . . . . . H                                                         ",
"                  @.. . . . . #.. . . . . $.                                                        ",
"                  %.] . . . . . . . . . &.                                                          ",
"                    q . . . . . . . . . *.                                                          ",
"                    n ^ . . . . . . . + =.                                                          ",
"                      T . . . . . . . -.                                                            ",
"                      ;.. . . . . . . '                                                             ",
"                        o . . . . . 4                                                               ",
"                        -.. . . . . }                                                               ",
"                      %.>.. . . . d @                                                               ",
"                      ,.. . . . . t                                                                 ",
"                      +.. . . . . p                                                                 ",
"                    Z I . . . . m                                                                   ",
"                    A . . . . . i                                                                   ",
"                  '.; . . . . _ y                                                                   ",
"                c ).. . . . . !.                                                                    ",
"          e ~.K #.. . . . . x P                                                                     ",
"  2 . . . . . . . . . . . . {.                                                                      ",
"  2 . . . . . . . . . . . , %.                                                                      ",
"  2 . . . . . . . . . . a 5                                                                         ",
"  2 . . . . . . . . . ].^.                                                                          ",
"  2 . . . . I F o /.(.                                                                              ",
"                                                                                                    ",
"                                                                                                    "};
