/* XPM */
static char * DoorOpen_xpm[] = {
"50 50 261 2",
"  	c None",
". 	c #B4A394",
"+ 	c #B4A294",
"@ 	c #AA9A8D",
"# 	c #83786F",
"$ 	c #AB9A8C",
"% 	c #B3A193",
"& 	c #B3A091",
"* 	c #B8A392",
"= 	c #C9B7A9",
"- 	c #E8DFDA",
"; 	c #E0D4CC",
"> 	c #E5DAD4",
", 	c #C0AC9C",
"' 	c #B6A17F",
") 	c #C1B05B",
"! 	c #C4B556",
"~ 	c #BFAD5E",
"{ 	c #B6A084",
"] 	c #C5B2A3",
"^ 	c #E8DED9",
"/ 	c #DFD3CB",
"( 	c #E7DDD7",
"_ 	c #C4B0A1",
": 	c #B3A192",
"< 	c #B3A293",
"[ 	c #AD9C8E",
"} 	c #877B71",
"| 	c #A49488",
"1 	c #B5A395",
"2 	c #B8A799",
"3 	c #BFAC9D",
"4 	c #BEAA9A",
"5 	c #BFAB9C",
"6 	c #B2A093",
"7 	c #887B71",
"8 	c #897B6F",
"9 	c #B7A495",
"0 	c #BFAC9C",
"a 	c #BDA998",
"b 	c #C7B4A6",
"c 	c #DED2CA",
"d 	c #D8CAC0",
"e 	c #DCCFC6",
"f 	c #BBA898",
"g 	c #C3A33D",
"h 	c #F7D103",
"i 	c #FADA02",
"j 	c #F5CD04",
"k 	c #BD9F4A",
"l 	c #C1AEA0",
"m 	c #D7C9BF",
"n 	c #DDD1C8",
"o 	c #C3AFA0",
"p 	c #BEAB9B",
"q 	c #B9A697",
"r 	c #8B7C71",
"s 	c #8B7D72",
"t 	c #BEAC9D",
"u 	c #B6A597",
"v 	c #BFAB9B",
"w 	c #BDA897",
"x 	c #BFAA9A",
"y 	c #BCA99A",
"z 	c #B09E8E",
"A 	c #AE9B8B",
"B 	c #A69587",
"C 	c #82766C",
"D 	c #9B8A7D",
"E 	c #AB998A",
"F 	c #AC9A8A",
"G 	c #AD9A8B",
"H 	c #AE9B8D",
"I 	c #AD9B8C",
"J 	c #AE9B8C",
"K 	c #AB9989",
"L 	c #AC9564",
"M 	c #C09C3F",
"N 	c #C49E3C",
"O 	c #BE9B41",
"P 	c #AA956B",
"Q 	c #AC9A8B",
"R 	c #AC998A",
"S 	c #9E8E80",
"T 	c #83766C",
"U 	c #A29183",
"V 	c #B19F90",
"W 	c #BDAA9B",
"X 	c #BFAA99",
"Y 	c #BDAB9C",
"Z 	c #B19F91",
"` 	c #BDAC9D",
" .	c #BEA999",
"..	c #BEAB9C",
"+.	c #A59282",
"@.	c #8B7B6C",
"#.	c #51483F",
"$.	c #3C352F",
"%.	c #332E29",
"&.	c #322C27",
"*.	c #3D352F",
"=.	c #3C3530",
"-.	c #3C3630",
";.	c #352F2A",
">.	c #312C28",
",.	c #584D44",
"'.	c #917F70",
").	c #A69484",
"!.	c #BCAB9C",
"~.	c #BFAB9A",
"{.	c #B2A092",
"].	c #998777",
"^.	c #66594F",
"/.	c #1E1A17",
"(.	c #000000",
"_.	c #25211D",
":.	c #6E6156",
"<.	c #9C897A",
"[.	c #B6A495",
"}.	c #BEA998",
"|.	c #BCAA9C",
"1.	c #BDAB9D",
"2.	c #B19E8F",
"3.	c #7E6E62",
"4.	c #0B0A09",
"5.	c #141210",
"6.	c #89786A",
"7.	c #B4A193",
"8.	c #7A6B5F",
"9.	c #070606",
"0.	c #0F0E0C",
"a.	c #867668",
"b.	c #B4A293",
"c.	c #070706",
"d.	c #100E0C",
"e.	c #C1AC9C",
"f.	c #C0AC9B",
"g.	c #C0AB99",
"h.	c #AD9C90",
"i.	c #8B7C70",
"j.	c #96877B",
"k.	c #AF9D8E",
"l.	c #7B6C5F",
"m.	c #877769",
"n.	c #AF9D8F",
"o.	c #928377",
"p.	c #8E7F73",
"q.	c #AF9F92",
"r.	c #8D8179",
"s.	c #5D5651",
"t.	c #6C645D",
"u.	c #98897E",
"v.	c #6D6157",
"w.	c #070605",
"x.	c #0F0D0C",
"y.	c #796C60",
"z.	c #96887D",
"A.	c #675F58",
"B.	c #615A54",
"C.	c #92867D",
"D.	c #93877E",
"E.	c #605953",
"F.	c #706760",
"G.	c #A09185",
"H.	c #74675D",
"I.	c #807267",
"J.	c #9E9084",
"K.	c #6A615B",
"L.	c #645C56",
"M.	c #998C83",
"N.	c #B0A093",
"O.	c #95867A",
"P.	c #9E8F82",
"Q.	c #B09E90",
"R.	c #9B8C7F",
"S.	c #97887C",
"T.	c #B2A295",
"U.	c #C1AC9B",
"V.	c #C0AB9A",
"W.	c #796B5E",
"X.	c #060504",
"Y.	c #0E0C0B",
"Z.	c #B09E8F",
"`.	c #8B7A6C",
" +	c #2F2924",
".+	c #020201",
"++	c #040303",
"@+	c #3A332D",
"#+	c #928172",
"$+	c #BEAB9D",
"%+	c #BEAA99",
"&+	c #B9A799",
"*+	c #A69485",
"=+	c #948273",
"-+	c #5C5147",
";+	c #1A1714",
">+	c #0B0A08",
",+	c #0B0908",
"'+	c #080707",
")+	c #090807",
"!+	c #0A0908",
"~+	c #1F1C18",
"{+	c #65594E",
"]+	c #988676",
"^+	c #A89687",
"/+	c #BAA89B",
"(+	c #A49181",
"_+	c #907F71",
":+	c #837468",
"<+	c #6A5F56",
"[+	c #776A5E",
"}+	c #857669",
"|+	c #847568",
"1+	c #847467",
"2+	c #7B6D62",
"3+	c #675D54",
"4+	c #827367",
"5+	c #938273",
"6+	c #A59383",
"7+	c #C0AC9D",
"8+	c #B5A496",
"9+	c #BCA999",
"0+	c #BCA899",
"a+	c #85786E",
"b+	c #928276",
"c+	c #B8A595",
"d+	c #BCA898",
"e+	c #C4B3A5",
"f+	c #CEBFB4",
"g+	c #CBBCB0",
"h+	c #CCBDB1",
"i+	c #CDBEB3",
"j+	c #CBBBAF",
"k+	c #CFC0B5",
"l+	c #C2B0A2",
"m+	c #BDA999",
"n+	c #B6A393",
"o+	c #928376",
"p+	c #8D7F74",
"q+	c #A9998C",
"r+	c #BDA99A",
"s+	c #B4A395",
"t+	c #BBA99A",
"u+	c #BBA899",
"v+	c #867970",
"w+	c #9B8C80",
"x+	c #B8A697",
"y+	c #C6B6AA",
"z+	c #D3C7BE",
"A+	c #CFC2B8",
"B+	c #D1C3BA",
"C+	c #D2C5BC",
"D+	c #CEC1B7",
"E+	c #D4C8BF",
"F+	c #C3B2A6",
"G+	c #B6A496",
"H+	c #9C8C80",
"I+	c #8D8076",
"J+	c #A8988C",
"K+	c #BCAA9A",
"L+	c #B8A699",
"        . + + . @ # $ % + & * = - ; > , ' ) ! ! ! ! ! ! ~ { ] ^ / ( _ * : + < [ } | 1 + + .         ",
"    2 3 4 4 5 , 6 7 8 9 0 4 a b c d e f g h i i i i i i j k l c m n o a p 0 q r s @ , 5 4 4 t u     ",
"% t v w x y z A B C D E F F F G H I J K L M N N N N N N O P Q H I J Q F F F R S T U J V W X w 5 Y Z ",
"`  .w ..% +.@.#.$.%.&.*.$.$.$.$.$.$.$.$.=.-.-.-.-.-.-.-.-.=.$.$.$.$.$.$.$.$.*.;.>.$.,.'.).1 5 w X !.",
"Y w ~.{.].^./.(.(.(.(.(.(.(.(.(.(.(.(.(.(.(.(.(.(.(.(.(.(.(.(.(.(.(.(.(.(.(.(.(.(.(.(._.:.<.[.X }.|.",
"1.w ~.2.3.4.(.(.(.(.(.(.(.(.(.(.(.(.(.(.(.(.(.(.(.(.(.(.(.(.(.(.(.(.(.(.(.(.(.(.(.(.(.(.5.6.7.X }.|.",
"1.w ~.V 8.9.(.(.(.(.(.(.(.(.(.(.(.(.(.(.(.(.(.(.(.(.(.(.(.(.(.(.(.(.(.(.(.(.(.(.(.(.(.(.0.a.b.X }.|.",
"1.w ~.V 8.c.(.(.(.(.(.(.(.(.(.(.(.(.(.(.(.(.(.(.(.(.(.(.(.(.(.(.(.(.(.(.(.(.(.(.(.(.(.(.d.a.b.X }.|.",
"1.w ~.V 8.c.(.(.(.(.(.(.(.(.(.(.(.(.(.(.(.(.(.(.(.(.(.(.(.(.(.(.(.(.(.(.(.(.(.(.(.(.(.(.d.a.b.X }.|.",
"1.w ~.V 8.c.(.(.(.(.(.(.(.(.(.(.(.(.(.(.(.(.(.(.(.(.(.(.(.(.(.(.(.(.(.(.(.(.(.(.(.(.(.(.d.a.b.X }.|.",
"1.w ~.V 8.c.(.(.(.(.(.(.(.(.(.(.(.(.(.(.(.(.(.(.(.(.(.(.(.(.(.(.(.(.(.(.(.(.(.(.(.(.(.(.d.a.b.X }.|.",
"1.w ~.V 8.c.(.(.(.(.(.(.(.(.(.(.(.(.(.(.(.(.(.(.(.(.(.(.(.(.(.(.(.(.(.(.(.(.(.(.(.(.(.(.d.a.b.X }.|.",
"1.w ~.V 8.c.(.(.(.(.(.(.(.(.(.(.(.(.(.(.(.(.(.(.(.(.(.(.(.(.(.(.(.(.(.(.(.(.(.(.(.(.(.(.d.a.b.X }.|.",
"1.w ~.V 8.c.(.(.(.(.(.(.(.(.(.(.(.(.(.(.(.(.(.(.(.(.(.(.(.(.(.(.(.(.(.(.(.(.(.(.(.(.(.(.d.a.b.X }.|.",
"1.w ~.V 8.c.(.(.(.(.(.(.(.(.(.(.(.(.(.(.(.(.(.(.(.(.(.(.(.(.(.(.(.(.(.(.(.(.(.(.(.(.(.(.d.a.b.X }.|.",
"1.w ~.V 8.c.(.(.(.(.(.(.(.(.(.(.(.(.(.(.(.(.(.(.(.(.(.(.(.(.(.(.(.(.(.(.(.(.(.(.(.(.(.(.d.a.b.X }.|.",
"1.w ~.V 8.c.(.(.(.(.(.(.(.(.(.(.(.(.(.(.(.(.(.(.(.(.(.(.(.(.(.(.(.(.(.(.(.(.(.(.(.(.(.(.d.a.b.X }.|.",
"1.w ~.V 8.c.(.(.(.(.(.(.(.(.(.(.(.(.(.(.(.(.(.(.(.(.(.(.(.(.(.(.(.(.(.(.(.(.(.(.(.(.(.(.d.a.b.X }.|.",
"1.w ~.V 8.c.(.(.(.(.(.(.(.(.(.(.(.(.(.(.(.(.(.(.(.(.(.(.(.(.(.(.(.(.(.(.(.(.(.(.(.(.(.(.d.a.b.X }.|.",
"1.w ~.V 8.c.(.(.(.(.(.(.(.(.(.(.(.(.(.(.(.(.(.(.(.(.(.(.(.(.(.(.(.(.(.(.(.(.(.(.(.(.(.(.d.a.b.X }.|.",
"1.w ~.V 8.c.(.(.(.(.(.(.(.(.(.(.(.(.(.(.(.(.(.(.(.(.(.(.(.(.(.(.(.(.(.(.(.(.(.(.(.(.(.(.d.a.b.X }.|.",
"1.w ~.V 8.c.(.(.(.(.(.(.(.(.(.(.(.(.(.(.(.(.(.(.(.(.(.(.(.(.(.(.(.(.(.(.(.(.(.(.(.(.(.(.d.a.b.X }.|.",
"1.w ~.V 8.c.(.(.(.(.(.(.(.(.(.(.(.(.(.(.(.(.(.(.(.(.(.(.(.(.(.(.(.(.(.(.(.(.(.(.(.(.(.(.d.a.b.X }.|.",
"1.w ~.V 8.c.(.(.(.(.(.(.(.(.(.(.(.(.(.(.(.(.(.(.(.(.(.(.(.(.(.(.(.(.(.(.(.(.(.(.(.(.(.(.d.a.b.X }.|.",
"t X e.V 8.c.(.(.(.(.(.(.(.(.(.(.(.(.(.(.(.(.(.(.(.(.(.(.(.(.(.(.(.(.(.(.(.(.(.(.(.(.(.(.d.a.b.f.g.Y ",
"h.i.j.k.l.c.(.(.(.(.(.(.(.(.(.(.(.(.(.(.(.(.(.(.(.(.(.(.(.(.(.(.(.(.(.(.(.(.(.(.(.(.(.(.d.m.n.o.p.q.",
"r.s.t.u.v.w.(.(.(.(.(.(.(.(.(.(.(.(.(.(.(.(.(.(.(.(.(.(.(.(.(.(.(.(.(.(.(.(.(.(.(.(.(.(.x.y.z.A.B.C.",
"D.E.F.G.H.9.(.(.(.(.(.(.(.(.(.(.(.(.(.(.(.(.(.(.(.(.(.(.(.(.(.(.(.(.(.(.(.(.(.(.(.(.(.(.0.I.J.K.L.M.",
"N.O.P.k.l.c.(.(.(.(.(.(.(.(.(.(.(.(.(.(.(.(.(.(.(.(.(.(.(.(.(.(.(.(.(.(.(.(.(.(.(.(.(.(.d.m.Q.R.S.T.",
"t X e.V 8.c.(.(.(.(.(.(.(.(.(.(.(.(.(.(.(.(.(.(.(.(.(.(.(.(.(.(.(.(.(.(.(.(.(.(.(.(.(.(.d.a.b.U.V.Y ",
"1.w ~.V 8.c.(.(.(.(.(.(.(.(.(.(.(.(.(.(.(.(.(.(.(.(.(.(.(.(.(.(.(.(.(.(.(.(.(.(.(.(.(.(.d.a.b.X }.|.",
"1.w ~.V 8.c.(.(.(.(.(.(.(.(.(.(.(.(.(.(.(.(.(.(.(.(.(.(.(.(.(.(.(.(.(.(.(.(.(.(.(.(.(.(.d.a.b.X }.|.",
"1.w ~.V 8.c.(.(.(.(.(.(.(.(.(.(.(.(.(.(.(.(.(.(.(.(.(.(.(.(.(.(.(.(.(.(.(.(.(.(.(.(.(.(.d.a.b.X }.|.",
"1.w ~.V 8.c.(.(.(.(.(.(.(.(.(.(.(.(.(.(.(.(.(.(.(.(.(.(.(.(.(.(.(.(.(.(.(.(.(.(.(.(.(.(.d.a.b.X }.|.",
"1.w ~.V 8.c.(.(.(.(.(.(.(.(.(.(.(.(.(.(.(.(.(.(.(.(.(.(.(.(.(.(.(.(.(.(.(.(.(.(.(.(.(.(.d.a.b.X }.|.",
"1.w ~.V 8.c.(.(.(.(.(.(.(.(.(.(.(.(.(.(.(.(.(.(.(.(.(.(.(.(.(.(.(.(.(.(.(.(.(.(.(.(.(.(.d.a.b.X }.|.",
"1.w ~.V 8.c.(.(.(.(.(.(.(.(.(.(.(.(.(.(.(.(.(.(.(.(.(.(.(.(.(.(.(.(.(.(.(.(.(.(.(.(.(.(.d.a.b.X }.|.",
"1.w ~.V 8.c.(.(.(.(.(.(.(.(.(.(.(.(.(.(.(.(.(.(.(.(.(.(.(.(.(.(.(.(.(.(.(.(.(.(.(.(.(.(.d.a.b.X }.|.",
"1.w ~.V 8.c.(.(.(.(.(.(.(.(.(.(.(.(.(.(.(.(.(.(.(.(.(.(.(.(.(.(.(.(.(.(.(.(.(.(.(.(.(.(.d.a.b.X }.|.",
"1.w ~.V 8.c.(.(.(.(.(.(.(.(.(.(.(.(.(.(.(.(.(.(.(.(.(.(.(.(.(.(.(.(.(.(.(.(.(.(.(.(.(.(.d.a.b.X }.|.",
"1.w ~.V 8.c.(.(.(.(.(.(.(.(.(.(.(.(.(.(.(.(.(.(.(.(.(.(.(.(.(.(.(.(.(.(.(.(.(.(.(.(.(.(.d.a.b.X }.|.",
"1.w ~.V 8.c.(.(.(.(.(.(.(.(.(.(.(.(.(.(.(.(.(.(.(.(.(.(.(.(.(.(.(.(.(.(.(.(.(.(.(.(.(.(.d.a.b.X }.|.",
"1.w ~.V 8.c.(.(.(.(.(.(.(.(.(.(.(.(.(.(.(.(.(.(.(.(.(.(.(.(.(.(.(.(.(.(.(.(.(.(.(.(.(.(.d.a.b.X }.|.",
"1.w ~.V 8.c.(.(.(.(.(.(.(.(.(.(.(.(.(.(.(.(.(.(.(.(.(.(.(.(.(.(.(.(.(.(.(.(.(.(.(.(.(.(.d.a.b.X }.|.",
"1.w ~.V W.X.(.(.(.(.(.(.(.(.(.(.(.(.(.(.(.(.(.(.(.(.(.(.(.(.(.(.(.(.(.(.(.(.(.(.(.(.(.(.Y.a.b.X }.|.",
"1.w ~.Z.`. +.+(.(.(.(.(.(.(.(.(.(.(.(.(.(.(.(.(.(.(.(.(.(.(.(.(.(.(.(.(.(.(.(.(.(.(.(.++@+#+: X }.|.",
"$+w %+&+*+=+-+;+>+,+'+4.4.4.4.4.4.4.4.4.4.4.4.4.4.4.4.4.4.4.4.4.4.4.4.4.4.4.4.)+!+>+~+{+]+^+y }.}.!.",
"/+, w  ...Z (+_+:+<+[+}+|+|+|+|+|+|+|+|+|+|+1+1+1+1+1+1+|+|+|+|+|+|+|+|+|+|+}+2+3+4+5+6+% 5 }.}.7+2 ",
"  8+t ~.}.v 9+0+Z a+b+c+9+9+9+9+9+9+9+9+d+e+f+g+h+i+j+k+l+d+9+9+9+9+9+9+9+m+n+o+p+q+m+r+v }.v $+s+  ",
"      &+t+u+u+y q.v+w+x+t+u+u+u+u+u+u+u+u+y+z+A+B+C+D+E+F+u+u+u+u+u+u+u+u+t+G+H+I+J+K+u+u+t+L+      "};
