/* XPM */
static char * DoorLocked_xpm[] = {
"50 50 669 2",
"  	c None",
". 	c #B4A394",
"+ 	c #B4A294",
"@ 	c #AF9E90",
"# 	c #83786F",
"$ 	c #A8978A",
"% 	c #B2A193",
"& 	c #B3A192",
"* 	c #B8A392",
"= 	c #C5B2A3",
"- 	c #E8DED8",
"; 	c #DFD3CB",
"> 	c #E7DED8",
", 	c #C3B1A1",
"' 	c #B29484",
") 	c #B8765F",
"! 	c #C07559",
"~ 	c #BB755D",
"{ 	c #B2907F",
"] 	c #C1AE9E",
"^ 	c #E6DCD6",
"/ 	c #E8DFD9",
"( 	c #C7B5A6",
"_ 	c #B9A492",
": 	c #B3A091",
"< 	c #B3A294",
"[ 	c #AF9D8F",
"} 	c #8C7F75",
"| 	c #9C8E83",
"1 	c #B5A395",
"2 	c #B6A597",
"3 	c #BEAC9D",
"4 	c #BEAA9A",
"5 	c #BFAB9C",
"6 	c #B7A596",
"7 	c #897C72",
"8 	c #887A6E",
"9 	c #B19F90",
"0 	c #C0AC9C",
"a 	c #BEAB9B",
"b 	c #BDA998",
"c 	c #C4B1A1",
"d 	c #DED2C9",
"e 	c #D7C9BF",
"f 	c #DDD1C9",
"g 	c #C1AE9F",
"h 	c #A3594B",
"i 	c #BD1A07",
"j 	c #CC2106",
"k 	c #CC2006",
"l 	c #C11A06",
"m 	c #A44B3D",
"n 	c #BDA999",
"o 	c #DDD0C8",
"p 	c #D8CAC0",
"q 	c #DED2CA",
"r 	c #C5B3A4",
"s 	c #BCA999",
"t 	c #8E7F73",
"u 	c #8C7E73",
"v 	c #A29287",
"w 	c #C1AD9D",
"x 	c #BFAC9D",
"y 	c #B8A799",
"z 	c #B19F91",
"A 	c #BDAB9C",
"B 	c #BDA897",
"C 	c #BFAA99",
"D 	c #BDAA9B",
"E 	c #AC9A8A",
"F 	c #A69485",
"G 	c #81746A",
"H 	c #948477",
"I 	c #A79586",
"J 	c #A99687",
"K 	c #A99787",
"L 	c #AA9889",
"M 	c #A07968",
"N 	c #9C4E3F",
"O 	c #9D4739",
"P 	c #9C4C3D",
"Q 	c #9F7362",
"R 	c #A99686",
"S 	c #A99788",
"T 	c #9E8D7E",
"U 	c #99897C",
"V 	c #AD9A8A",
"W 	c #B09E8E",
"X 	c #BCA99A",
"Y 	c #BFAA9A",
"Z 	c #BFAB9B",
"` 	c #BEAB9D",
" .	c #B3A193",
"..	c #BCAB9D",
"+.	c #A69384",
"@.	c #8E7D6E",
"#.	c #6A6057",
"$.	c #78706A",
"%.	c #77716C",
"&.	c #726C68",
"*.	c #7F7771",
"=.	c #7E7771",
"-.	c #7F7872",
";.	c #807972",
">.	c #79736D",
",.	c #716C68",
"'.	c #7A736D",
").	c #695F57",
"!.	c #89796A",
"~.	c #A49181",
"{.	c #BEAB9C",
"].	c #BEA999",
"^.	c #BDAC9D",
"/.	c #BCAA9C",
"(.	c #BEA998",
"_.	c #B6A495",
":.	c #9C8979",
"<.	c #75675C",
"[.	c #635F5B",
"}.	c #999998",
"|.	c #BABABB",
"1.	c #A3A3A4",
"2.	c #C5C5C5",
"3.	c #C6C7C7",
"4.	c #A4A4A4",
"5.	c #BBBBBC",
"6.	c #A0A0A0",
"7.	c #666360",
"8.	c #6F6358",
"9.	c #998677",
"0.	c #B2A092",
"a.	c #BFAB9A",
"b.	c #B4A193",
"c.	c #877769",
"d.	c #666361",
"e.	c #B1B1B1",
"f.	c #B8B8B8",
"g.	c #CBCBCB",
"h.	c #C6C6C6",
"i.	c #CCCCCC",
"j.	c #B9B9B9",
"k.	c #B6B6B6",
"l.	c #6C6B6A",
"m.	c #7E6F62",
"n.	c #B19E8F",
"o.	c #BDAB9D",
"p.	c #B4A293",
"q.	c #857567",
"r.	c #787775",
"s.	c #C3C3C3",
"t.	c #BABABA",
"u.	c #828180",
"v.	c #7B6C60",
"w.	c #B19E90",
"x.	c #777574",
"y.	c #CECECE",
"z.	c #C7C7C7",
"A.	c #CDCDCD",
"B.	c #807F7E",
"C.	c #CACBCB",
"D.	c #C9C9C9",
"E.	c #C0C0C0",
"F.	c #B7B7B7",
"G.	c #A9A9A9",
"H.	c #AAAAAA",
"I.	c #A8A8A8",
"J.	c #AEAEAE",
"K.	c #BDBDBD",
"L.	c #807F7F",
"M.	c #757472",
"N.	c #C0C0C1",
"O.	c #C2C2C2",
"P.	c #C1C1C1",
"Q.	c #BEBEBE",
"R.	c #9C9C9C",
"S.	c #474747",
"T.	c #3D3D3D",
"U.	c #404040",
"V.	c #333333",
"W.	c #3A3A3A",
"X.	c #353535",
"Y.	c #2C2C2C",
"Z.	c #2D2D2D",
"`.	c #2F2F2F",
" +	c #3E3E3E",
".+	c #414141",
"++	c #3B3B3B",
"@+	c #7D7D7D",
"#+	c #7D7C7C",
"$+	c #7C6D60",
"%+	c #C8C8C8",
"&+	c #CACACA",
"*+	c #5E5E5E",
"=+	c #222222",
"-+	c #323232",
";+	c #292929",
">+	c #2B2B2B",
",+	c #1B1B1B",
"'+	c #191919",
")+	c #252525",
"!+	c #313131",
"~+	c #202020",
"{+	c #1E1E1E",
"]+	c #2E2E2E",
"^+	c #3C3C3C",
"/+	c #B3B3B3",
"(+	c #7B6D60",
"_+	c #777573",
":+	c #616161",
"<+	c #303030",
"[+	c #212121",
"}+	c #1A1A1A",
"|+	c #1F1F1F",
"1+	c #282828",
"2+	c #C2C3C3",
"3+	c #C2C2C3",
"4+	c #BFBFBF",
"5+	c #898989",
"6+	c #272727",
"7+	c #2A2A2A",
"8+	c #1C1C1C",
"9+	c #343434",
"0+	c #232323",
"a+	c #525252",
"b+	c #C3C4C4",
"c+	c #7F7E7D",
"d+	c #857568",
"e+	c #6C6763",
"f+	c #B5AFA9",
"g+	c #BCB5AF",
"h+	c #BBB5AF",
"i+	c #BBB4AF",
"j+	c #BDB7B2",
"k+	c #C4C3C1",
"l+	c #A2A2A2",
"m+	c #888888",
"n+	c #8B8B8B",
"o+	c #868686",
"p+	c #878787",
"q+	c #8C8C8C",
"r+	c #8D8D8D",
"s+	c #8A8A8A",
"t+	c #919191",
"u+	c #B4B4B4",
"v+	c #C7C7C6",
"w+	c #C0BBB7",
"x+	c #BCB6B0",
"y+	c #BDB6B1",
"z+	c #B9B3AE",
"A+	c #736F6B",
"B+	c #867668",
"C+	c #594F46",
"D+	c #907F71",
"E+	c #A08E7E",
"F+	c #9F8D7E",
"G+	c #9F8D7D",
"H+	c #A89A8D",
"I+	c #BDB8B3",
"J+	c #C5C5C4",
"K+	c #C7C8C8",
"L+	c #C7C7C8",
"M+	c #C3C0BD",
"N+	c #AFA298",
"O+	c #A08E7F",
"P+	c #958475",
"Q+	c #5A4F46",
"R+	c #7C6D61",
"S+	c #6E6A66",
"T+	c #BAB5B1",
"U+	c #C0BAB6",
"V+	c #BFBAB6",
"W+	c #BEB8B3",
"X+	c #ADA095",
"Y+	c #A29081",
"Z+	c #AD9F94",
"`+	c #B2A79E",
" @	c #B2A79D",
".@	c #B2A69D",
"+@	c #C1BCB9",
"@@	c #B1A69D",
"#@	c #B0A49A",
"$@	c #A39385",
"%@	c #A7978B",
"&@	c #BAB2AC",
"*@	c #BFB9B5",
"=@	c #BEB9B4",
"-@	c #BFB9B4",
";@	c #BCB7B2",
">@	c #75716D",
",@	c #787674",
"'@	c #CBCCCC",
")@	c #CDCDCE",
"!@	c #CACAC9",
"~@	c #A8988C",
"{@	c #A39284",
"]@	c #BBB4AE",
"^@	c #CCCDCD",
"/@	c #B6ADA5",
"(@	c #A29183",
"_@	c #A49486",
":@	c #B4ABA2",
"<@	c #C7C5C4",
"[@	c #81807F",
"}@	c #CACACB",
"|@	c #C9C8C7",
"1@	c #C7C4C3",
"2@	c #C7C5C3",
"3@	c #CAC9C8",
"4@	c #C7C4C2",
"5@	c #C8C6C4",
"6@	c #CCCCCD",
"7@	c #C0AB99",
"8@	c #C0AC9B",
"9@	c #C1AC9C",
"0@	c #B0A093",
"a@	c #928377",
"b@	c #AF9C8E",
"c@	c #96877B",
"d@	c #8B7C70",
"e@	c #AC9C8F",
"f@	c #93877D",
"g@	c #615A54",
"h@	c #665E58",
"i@	c #96887D",
"j@	c #786A5F",
"k@	c #767473",
"l@	c #98897E",
"m@	c #6C645D",
"n@	c #5D5650",
"o@	c #8D8178",
"p@	c #998D83",
"q@	c #645C56",
"r@	c #69615B",
"s@	c #9E8F84",
"t@	c #7F7165",
"u@	c #767573",
"v@	c #75695E",
"w@	c #A09185",
"x@	c #706760",
"y@	c #605853",
"z@	c #93877E",
"A@	c #B2A295",
"B@	c #97887C",
"C@	c #9B8B7F",
"D@	c #B09E90",
"E@	c #AF9D8E",
"F@	c #9E8F83",
"G@	c #95867A",
"H@	c #B09F93",
"I@	c #C0AB9A",
"J@	c #C1AC9B",
"K@	c #C9CACA",
"L@	c #777674",
"M@	c #C5C5C6",
"N@	c #B2B2B2",
"O@	c #BCBCBC",
"P@	c #ACACAC",
"Q@	c #AFAFAF",
"R@	c #B0B0B0",
"S@	c #ABABAB",
"T@	c #B5B5B5",
"U@	c #747271",
"V@	c #BBBBBB",
"W@	c #7C7B7B",
"X@	c #757371",
"Y@	c #C3C3C4",
"Z@	c #C4C4C4",
"`@	c #7B7A7A",
" #	c #787675",
".#	c #C1C2C2",
"+#	c #CDCECE",
"@#	c #7A7671",
"##	c #B1B0AE",
"$#	c #A6A5A6",
"%#	c #BDBCB9",
"&#	c #C4C0B9",
"*#	c #BFBDB9",
"=#	c #B9B8B8",
"-#	c #B9B9B8",
";#	c #C2BFB9",
">#	c #C3BFB9",
",#	c #BBBAB8",
"'#	c #BEBCB8",
")#	c #BAB9B8",
"!#	c #C1BEB9",
"~#	c #BDBBB8",
"{#	c #C0BDB9",
"]#	c #C4C0BA",
"^#	c #ACABA9",
"/#	c #ADADAC",
"(#	c #7D7B79",
"_#	c #463A27",
":#	c #2C2925",
"<#	c #4E3F25",
"[#	c #AB7A25",
"}#	c #9D7127",
"|#	c #3E3525",
"1#	c #2F2B24",
"2#	c #846024",
"3#	c #B78226",
"4#	c #6B5227",
"5#	c #282624",
"6#	c #524124",
"7#	c #AE7B25",
"8#	c #926B27",
"9#	c #363025",
"0#	c #352F24",
"a#	c #906825",
"b#	c #B37F27",
"c#	c #5C4826",
"d#	c #272624",
"e#	c #5F4924",
"f#	c #B68126",
"g#	c #A97927",
"h#	c #4C3E26",
"i#	c #292724",
"j#	c #715524",
"k#	c #B78126",
"l#	c #765827",
"m#	c #2A2825",
"n#	c #493B24",
"o#	c #A87825",
"p#	c #A57627",
"q#	c #463A26",
"r#	c #2B2824",
"s#	c #785924",
"t#	c #B98326",
"u#	c #775927",
"v#	c #2B2925",
"w#	c #453925",
"x#	c #6D5225",
"y#	c #7F6F61",
"z#	c #877669",
"A#	c #14110C",
"B#	c #331F00",
"C#	c #C97E00",
"D#	c #B77200",
"E#	c #281800",
"F#	c #130B00",
"G#	c #975E00",
"H#	c #E08C00",
"I#	c #6C4300",
"J#	c #060300",
"K#	c #4B2E00",
"L#	c #D28400",
"M#	c #A66800",
"N#	c #1B1000",
"O#	c #1D1200",
"P#	c #A96900",
"Q#	c #D88700",
"R#	c #553500",
"S#	c #050200",
"T#	c #603C00",
"U#	c #E28E00",
"V#	c #CC8000",
"W#	c #3D2600",
"X#	c #090500",
"Y#	c #7C4D00",
"Z#	c #DF8C00",
"`#	c #7B4D00",
" $	c #CC7F00",
".$	c #C37A00",
"+$	c #342000",
"@$	c #0C0700",
"#$	c #865400",
"$$	c #E38E00",
"%$	c #7D4E00",
"&$	c #0A0500",
"*$	c #372200",
"=$	c #945D00",
"-$	c #78500B",
";$	c #7D6E60",
">$	c #857669",
",$	c #52390F",
"'$	c #A56800",
")$	c #180F00",
"!$	c #281900",
"~$	c #BA7500",
"{$	c #DC8A00",
"]$	c #513300",
"^$	c #080500",
"/$	c #6F4600",
"($	c #E38F00",
"_$	c #8D5900",
":$	c #0F0900",
"<$	c #C97F00",
"[$	c #CE8100",
"}$	c #3C2600",
"|$	c #0D0800",
"1$	c #855400",
"2$	c #F59A00",
"3$	c #B87400",
"4$	c #271900",
"5$	c #A16500",
"6$	c #E08D00",
"7$	c #070400",
"8$	c #5F3C00",
"9$	c #AF6E00",
"0$	c #201400",
"a$	c #1E1200",
"b$	c #AB6C00",
"c$	c #613D00",
"d$	c #5E3B00",
"e$	c #DA8900",
"f$	c #805100",
"g$	c #231909",
"h$	c #867669",
"i$	c #785316",
"j$	c #624007",
"k$	c #110E09",
"l$	c #452E09",
"m$	c #D38809",
"n$	c #CC8408",
"o$	c #3D2908",
"p$	c #151109",
"q$	c #905E09",
"r$	c #E69409",
"s$	c #734C08",
"t$	c #0F0D08",
"u$	c #553909",
"v$	c #DE8F09",
"w$	c #BA7808",
"x$	c #2C1F08",
"y$	c #1F1709",
"z$	c #A66C09",
"A$	c #F89F09",
"B$	c #A06808",
"C$	c #1D1608",
"D$	c #2F2109",
"E$	c #BE7B09",
"F$	c #D68A09",
"G$	c #493108",
"H$	c #815409",
"I$	c #EC9809",
"J$	c #966208",
"K$	c #191308",
"L$	c #372609",
"M$	c #C78109",
"N$	c #D88B09",
"O$	c #4A3208",
"P$	c #7F5409",
"Q$	c #EA9709",
"R$	c #8F5D09",
"S$	c #151007",
"T$	c #1D170F",
"U$	c #70685B",
"V$	c #9A9996",
"W$	c #999997",
"X$	c #C7B89D",
"Y$	c #DDC59D",
"Z$	c #B5AC9C",
"`$	c #9A9B9C",
" %	c #AEA89C",
".%	c #DAC49D",
"+%	c #C9B99D",
"@%	c #9E9D9C",
"#%	c #A19F9C",
"$%	c #CDBB9D",
"%%	c #AEA79C",
"&%	c #B5AC9D",
"*%	c #DCC59D",
"=%	c #D4C09D",
"-%	c #A7A39C",
";%	c #9B9C9C",
">%	c #BEB29D",
",%	c #DDC69D",
"'%	c #BAAF9C",
")%	c #AAA59C",
"!%	c #D8C29D",
"~%	c #D3BF9D",
"{%	c #A4A19C",
"]%	c #C2B49D",
"^%	c #DEC69D",
"/%	c #BBB09C",
"(%	c #D1BE9D",
"_%	c #9E9B97",
":%	c #9A9A99",
"<%	c #726C62",
"[%	c #7D6D60",
"}%	c #857467",
"|%	c #757473",
"1%	c #BEBEBF",
"2%	c #CDCECF",
"3%	c #CCCDCF",
"4%	c #CFCFCF",
"5%	c #CECECF",
"6%	c #CBCDCF",
"7%	c #CECFCF",
"8%	c #7F7E7E",
"9%	c #7B6C5F",
"0%	c #918071",
"a%	c #5E5751",
"b%	c #888787",
"c%	c #BFBFC0",
"d%	c #ADADAD",
"e%	c #909090",
"f%	c #5D5853",
"g%	c #8B7A6B",
"h%	c #B09E8F",
"i%	c #BCAB9C",
"j%	c #A89687",
"k%	c #968474",
"l%	c #6E6257",
"m%	c #686461",
"n%	c #92908F",
"o%	c #908F8E",
"p%	c #979696",
"q%	c #9C9A99",
"r%	c #9C9B99",
"s%	c #989796",
"t%	c #8F8E8D",
"u%	c #959493",
"v%	c #6C6967",
"w%	c #695E55",
"x%	c #928071",
"y%	c #BAA799",
"z%	c #BEAA99",
"A%	c #C0AC9D",
"B%	c #A59282",
"C%	c #918072",
"D%	c #88796C",
"E%	c #73685E",
"F%	c #786B61",
"G%	c #8A7B6E",
"H%	c #897A6D",
"I%	c #89796C",
"J%	c #847569",
"K%	c #6B6159",
"L%	c #84766A",
"M%	c #8F7E70",
"N%	c #A39080",
"O%	c #BAA89B",
"P%	c #B4A395",
"Q%	c #BDA99A",
"R%	c #BCA898",
"S%	c #B5A394",
"T%	c #86796F",
"U%	c #B4A192",
"V%	c #C2B0A1",
"W%	c #CEC0B5",
"X%	c #CABAAE",
"Y%	c #CDBEB2",
"Z%	c #CCBCB1",
"`%	c #CBBBAF",
" &	c #CEBFB4",
".&	c #C4B2A5",
"+&	c #BCA899",
"@&	c #B8A596",
"#&	c #8F8176",
"$&	c #A19286",
"%&	c #B5A496",
"&&	c #B8A699",
"*&	c #BBA99A",
"=&	c #BBA899",
"-&	c #867A71",
";&	c #98897D",
">&	c #C3B2A6",
",&	c #D4C8BF",
"'&	c #CEC1B7",
")&	c #D2C5BC",
"!&	c #D1C3BA",
"~&	c #CFC2B8",
"{&	c #D3C7BE",
"]&	c #C6B6AA",
"^&	c #B9A698",
"/&	c #9D8E82",
"(&	c #918378",
"_&	c #A09186",
":&	c #B9A799",
"        . + + + @ # $ % + & * = - ; > , ' ) ! ! ! ! ! ! ~ { ] ^ ; / ( _ : + < [ } | 1 + + .         ",
"    2 3 4 4 5 5 6 7 8 9 0 a b c d e f g h i j k k k k j l m n o p q r b 4 5 s t u v w 5 4 4 x y     ",
"z A 5 B C D 9 E F G H I J J J K L L L K M N O O O O O O P Q R L L L S J J J J T G U V W X Y B Z `  .",
"..C B 5 1 +.@.#.$.%.&.*.=.=.=.=.=.=.=.=.-.;.;.;.;.;.;.;.;.-.=.=.=.=.=.=.=.=.*.>.,.'.).!.~. .{.B ].^.",
"/.(.C _.:.<.[.}.|.1.2.3.3.3.3.3.3.3.3.3.3.3.3.3.3.3.3.3.3.3.3.3.3.3.3.3.3.3.3.2.4.5.6.7.8.9.0.a.B A ",
"/.(.C b.c.d.e.f.g.h.i.i.i.i.i.i.i.i.i.i.i.i.i.i.i.i.i.i.i.i.i.i.i.i.i.i.i.i.i.i.h.g.j.k.l.m.n.a.B o.",
"/.(.C p.q.r.s.t.i.i.i.i.i.i.i.i.i.i.i.i.i.i.i.i.i.i.i.i.i.i.i.i.i.i.i.i.i.i.i.i.i.i.t.2.u.v.w.a.B o.",
"/.(.C p.q.x.g.y.i.i.i.i.i.i.i.i.z.h.z.z.z.z.z.z.z.z.z.z.z.z.z.z.h.z.i.i.i.i.i.i.i.i.A.A.B.v.w.a.B o.",
"/.(.C p.q.x.C.i.i.i.i.i.i.i.D.E.E.F.G.H.G.G.H.G.G.G.I.G.H.H.H.I.J.K.E.D.i.i.i.i.i.i.i.A.L.v.w.a.B o.",
"/.(.C p.q.M.N.O.P.P.P.P.P.P.Q.h.R.S.T.U.V.W.X.Y.Z.Z.`. +.+.+++Z.T.@+K.Q.P.P.P.P.P.P.P.O.#+$+w.a.B o.",
"/.(.C p.q.x.%+&+&+&+&+&+&+&+g.i.*+=+-+;+=+>+,+'+'+'+)+-+-+!+~+{+]+^+/+A.&+&+&+&+&+&+&+g.B.(+w.a.B o.",
"/.(.C p.q._+D.g.g.g.g.g.g.g.i.i.:+Z.<+[+Y.=+}+}+}+|+!+V.V.1+,+>+<+<+e.A.g.g.g.g.g.g.g.g.B.v.w.a.B o.",
"/.(.C p.q.x.O.2+3+3+3+3+3+O.4+z.5+T.6+6+7+,+,+,+8+>+9+9+`.{+0+-+7+a+f.E.O.3+3+3+3+3+2+b+c+$+w.a.B o.",
"/.(.C p.d+e+f+g+h+h+h+h+i+j+k+E.Q.l+m+n+5+o+o+o+p+q+r+r+n+o+s+q+t+u+E.v+w+x+x+x+x+x+y+z+A+$+w.a.B o.",
"/.(.C p.B+C+D+E+F+F+F+F+G+F+H+I+J+3.%+K+z.z.z.z.z.z.z.z.z.z.z.L+z.z.M+N+O+G+G+G+G+G+E+P+Q+R+w.a.B o.",
"/.(.C p.d+S+T+U+V+V+V+V+V+W+X+Y+Z+`+ @.@+@A.i.i.i.i.i.i.i.A.W+@@`+#@$@%@&@*@=@=@=@=@-@;@>@$+w.a.B o.",
"/.(.C p.q.,@'@)@A.A.A.A.A.A.!@g+~@{@{@{@]@A.i.i.i.i.i.i.i.^@/@(@{@_@:@<@A.A.A.A.A.A.A.y.[@v.w.a.B o.",
"/.(.C p.q.x.}@i.i.i.i.i.i.i.i.^@|@1@2@1@3@i.i.i.i.i.i.i.i.i.|@4@1@5@i.6@i.i.i.i.i.i.i.A.L.v.w.a.B o.",
"/.(.C p.q.x.}@i.i.i.i.i.i.i.i.i.i.6@6@6@i.i.i.i.i.i.i.i.i.i.i.6@6@i.i.i.i.i.i.i.i.i.i.A.L.v.w.a.B o.",
"/.(.C p.q.x.}@i.i.i.i.i.i.i.i.i.i.i.i.i.i.i.i.i.i.i.i.i.i.i.i.i.i.i.i.i.i.i.i.i.i.i.i.A.L.v.w.a.B o.",
"/.(.C p.q.x.}@i.i.i.i.i.i.i.i.i.i.i.i.i.i.i.i.i.i.i.i.i.i.i.i.i.i.i.i.i.i.i.i.i.i.i.i.A.L.v.w.a.B o.",
"/.(.C p.q.x.}@i.i.i.i.i.i.i.i.i.i.i.i.i.i.i.i.i.i.i.i.i.i.i.i.i.i.i.i.i.i.i.i.i.i.i.i.A.L.v.w.a.B o.",
"/.(.C p.q.x.}@i.i.i.i.i.i.i.i.i.i.i.i.i.i.i.i.i.i.i.i.i.i.i.i.i.i.i.i.i.i.i.i.i.i.i.i.A.L.v.w.a.B o.",
"/.(.C p.q.x.}@i.i.i.i.i.i.i.i.i.i.i.i.i.i.i.i.i.i.i.i.i.i.i.i.i.i.i.i.i.i.i.i.i.i.i.i.A.L.v.w.a.B o.",
"A 7@8@p.q.x.}@i.i.i.i.i.i.i.i.i.i.i.i.i.i.i.i.i.i.i.i.i.i.i.i.i.i.i.i.i.i.i.i.i.i.i.i.A.L.v.9 9@C 3 ",
"0@t a@[ B+x.}@i.i.i.i.i.i.i.i.i.i.i.i.i.i.i.i.i.i.i.i.i.i.i.i.i.i.i.i.i.i.i.i.i.i.i.i.A.L.R+b@c@d@e@",
"f@g@h@i@j@k@}@i.i.i.i.i.i.i.i.i.i.i.i.i.i.i.i.i.i.i.i.i.i.i.i.i.i.i.i.i.i.i.i.i.i.i.i.A.B.8.l@m@n@o@",
"p@q@r@s@t@u@}@i.i.i.i.i.i.i.i.i.i.i.i.i.i.i.i.i.i.i.i.i.i.i.i.i.i.i.i.i.i.i.i.i.i.i.i.A.L.v@w@x@y@z@",
"A@B@C@D@B+x.}@i.i.i.i.i.i.i.i.i.i.i.i.i.i.i.i.i.i.i.i.i.i.i.i.i.i.i.i.i.i.i.i.i.i.i.i.A.L.$+E@F@G@H@",
"A I@J@p.q.x.}@i.i.i.i.i.i.i.i.i.i.i.i.i.i.i.i.i.i.i.i.i.i.i.i.i.i.i.i.i.i.i.i.i.i.i.i.A.L.v.9 9@C 3 ",
"/.(.C p.q.x.}@A.i.i.i.i.i.i.i.i.i.i.i.i.i.i.i.i.i.i.i.i.i.i.i.i.i.i.i.i.i.i.i.i.i.i.A.A.L.v.w.a.B o.",
"/.(.C p.q.x.K@h.h.2.%+i.i.i.i.i.i.i.i.i.i.i.i.i.i.i.i.i.i.i.i.i.i.i.i.i.i.i.i.%+2.h.h.i.L.v.w.a.B o.",
"/.(.C p.q.L@M@F.e.N@O@i.i.i.i.i.i.i.i.i.i.i.i.i.i.i.i.i.i.i.i.i.i.i.i.i.i.i.i.Q./+e.k.z.[@v.w.a.B o.",
"/.(.C p.q.L@2.k.P@Q@O@g.i.i.i.i.i.i.i.i.i.i.i.i.i.i.i.i.i.i.i.i.i.i.i.i.i.i.i.Q.R@S@T@z.[@v.w.a.B o.",
"/.(.C p.q.,@h.F.Q@e.K.i.A.A.A.A.A.A.A.A.A.A.A.A.A.A.A.A.A.A.A.A.A.A.A.A.A.A.A.Q.N@J.k.z.[@v.w.a.B o.",
"/.(.C p.q.U@Q.j.f.f.V@P.P.P.P.P.P.P.P.P.P.P.P.P.P.P.P.P.P.P.P.P.P.P.P.P.P.P.P.V@f.f.f.E.W@(+w.a.B o.",
"/.(.C p.q.X@Y@h.2.2.2.Z@Z@Z@Z@Z@Z@Z@Z@Z@Z@Z@Z@Z@Z@Z@Z@Z@Z@Z@Z@Z@Z@Z@Z@Z@Z@Z@Z@2.2.2.h.2.`@$+w.a.B o.",
"/.(.C p.q. #.#j.)@)@)@y.+#)@)@+#y.)@)@)@y.)@)@)@+#y.)@)@)@y.+#)@)@+#y.)@)@)@y.+#)@y.O@E.u.v.w.a.B o.",
"/.(.C p.d+@###$#%#&#*#=#-#;#>#,#f.'#&#'#f.)#>#;#)#f.*#&#!#-#f.!#&#,#f.~#&#{#-#=#!#]#^#/#(#R+w.a.B o.",
"/.(.C p.c._#:#<#[#}#|#1#2#3#4#5#6#7#8#9#0#a#b#c#d#e#f#g#h#i#j#k#l#m#n#o#p#q#r#s#t#u#v#w#x#y#w.a.B o.",
"/.(.C p.z#A#B#C#D#E#F#G#H#I#J#K#L#M#N#O#P#Q#R#S#T#U#V#W#X#Y#Z#`#X#W# $.$+$@$#$$$%$&$*$=$-$;$w.a.B o.",
"/.(.C p.>$,$'$=$)$!$~${$]$^$/$($_$:$*$<$[$}$|$1$2$3$4$)$5$6$T#7$8$($9$0$a$b$($c$7$d$e$f$g$v.w.a.B o.",
"/.(.C p.h$i$j$k$l$m$n$o$p$q$r$s$t$u$v$w$x$y$z$A$B$C$D$E$F$G$k$H$I$J$K$L$M$N$O$k$P$Q$R$S$T$;$w.a.B o.",
"/.(.C p.B+U$V$W$X$Y$Z$`$ %.%+%@%#%$%.%%%`$&%*%=%-%;%>%,%'%`$)%!%~%{%R.]%^%/%`$)%!%(%_%:%<%[%w.a.B o.",
"/.(.C p.}%|%1%e.2%3%2%4%5%6%3%4%4%3%6%5%4%2%6%3%5%4%2%6%2%4%5%3%3%7%4%2%6%2%4%7%3%3%R@.#8%9%w.a.B o.",
"/.(.C & 0%a%b%c%&+d%g.4%4%4%4%4%4%4%4%4%4%4%4%4%4%4%4%4%4%4%4%4%4%4%4%4%4%4%4%g.d%&+s.e%f%g%h%a.B o.",
"i%(.(.X j%k%l%m%n%o%p%q%q%q%q%q%q%q%q%q%q%q%q%q%q%q%q%q%q%q%q%q%q%q%q%q%q%q%r%s%t%u%v%w%x%F y%z%B ` ",
"y A%(.(.5  .B%C%D%E%F%G%H%H%H%H%H%H%H%H%H%H%I%I%I%I%I%I%H%H%H%H%H%H%H%H%H%H%G%J%K%L%M%N%z {.].B 0 O%",
"  P%` Z (.Z Q%R%S%T%t U%s R%R%R%R%R%R%R%R%V%W%X%Y%Z%`% &.&R%R%R%R%R%R%R%R%+&@&H #&$&n s Z (.a.3 %&  ",
"      &&*&=&=&*&P%-&;&1 *&=&=&=&=&=&=&=&=&>&,&'&)&!&~&{&]&=&=&=&=&=&=&=&=&*&^&/&(&_&D =&=&*&:&      "};
