/* XPM */
static char * DoorUnlocked_xpm[] = {
"50 50 632 2",
"  	c None",
". 	c #B4A394",
"+ 	c #B4A294",
"@ 	c #AE9D90",
"# 	c #83786F",
"$ 	c #A8988A",
"% 	c #B3A193",
"& 	c #B3A192",
"* 	c #B8A392",
"= 	c #C6B4A5",
"- 	c #E8DFD9",
"; 	c #DFD3CB",
"> 	c #E6DCD6",
", 	c #C1AE9F",
"' 	c #B6A181",
") 	c #C1AF5C",
"! 	c #C4B556",
"~ 	c #C0AF5D",
"{ 	c #B6A182",
"] 	c #C4B1A2",
"^ 	c #E8DED8",
"/ 	c #E7DDD7",
"( 	c #C4B0A1",
"_ 	c #AD9C8E",
": 	c #877B72",
"< 	c #A49589",
"[ 	c #B5A394",
"} 	c #B6A597",
"| 	c #BEAC9D",
"1 	c #BEAA9A",
"2 	c #BFAB9C",
"3 	c #BFAC9C",
"4 	c #B6A496",
"5 	c #897C72",
"6 	c #887A6E",
"7 	c #B3A092",
"8 	c #C0AC9C",
"9 	c #BEAB9B",
"0 	c #BDA998",
"a 	c #C5B2A3",
"b 	c #DED2CA",
"c 	c #D7C9BF",
"d 	c #DDD0C8",
"e 	c #BDAB9B",
"f 	c #C0A143",
"g 	c #F6D003",
"h 	c #FADA02",
"i 	c #F5CE04",
"j 	c #BFA147",
"k 	c #C0AD9F",
"l 	c #DED2C9",
"m 	c #D7C9C0",
"n 	c #DDD1C9",
"o 	c #C3AFA0",
"p 	c #B9A696",
"q 	c #8A7C71",
"r 	c #8C7E73",
"s 	c #AA9A8D",
"t 	c #B09F91",
"u 	c #BDAB9C",
"v 	c #BDA897",
"w 	c #BFAA99",
"x 	c #BDAA9B",
"y 	c #B19F90",
"z 	c #AC9A8A",
"A 	c #A69485",
"B 	c #80746A",
"C 	c #948477",
"D 	c #A79586",
"E 	c #A99687",
"F 	c #A99788",
"G 	c #AA9889",
"H 	c #A89687",
"I 	c #A79264",
"J 	c #BB983D",
"K 	c #C19B38",
"L 	c #BB983E",
"M 	c #A79266",
"N 	c #A99787",
"O 	c #A89686",
"P 	c #9B8A7C",
"Q 	c #807369",
"R 	c #9F8E80",
"S 	c #AD9A8B",
"T 	c #BCAB9C",
"U 	c #B5A395",
"V 	c #A69383",
"W 	c #8E7C6E",
"X 	c #6A5F57",
"Y 	c #78716A",
"Z 	c #76716C",
"` 	c #726D68",
" .	c #7F7771",
"..	c #7E7771",
"+.	c #7E7772",
"@.	c #7E7872",
"#.	c #77716B",
"$.	c #736E69",
"%.	c #78706A",
"&.	c #6A6056",
"*.	c #8F7E6F",
"=.	c #A69384",
"-.	c #B6A495",
";.	c #BFAB9B",
">.	c #BFAA9A",
",.	c #BCAA9C",
"'.	c #BEA998",
").	c #9B8979",
"!.	c #74675C",
"~.	c #645F5B",
"{.	c #9A9A9A",
"].	c #BABABA",
"^.	c #A4A4A4",
"/.	c #C5C5C6",
"(.	c #C6C7C7",
"_.	c #C2C2C3",
":.	c #A3A3A3",
"<.	c #BDBDBE",
"[.	c #979797",
"}.	c #625E5A",
"|.	c #76685D",
"1.	c #9C8A7A",
"2.	c #BEAA99",
"3.	c #B4A193",
"4.	c #877769",
"5.	c #666361",
"6.	c #B1B1B1",
"7.	c #B8B8B8",
"8.	c #CBCBCB",
"9.	c #C6C6C6",
"0.	c #CCCCCC",
"a.	c #B6B6B6",
"b.	c #B2B2B3",
"c.	c #625F5D",
"d.	c #8A796B",
"e.	c #B5A294",
"f.	c #B4A293",
"g.	c #847467",
"h.	c #797775",
"i.	c #C3C3C3",
"j.	c #C5C5C5",
"k.	c #73716F",
"l.	c #777574",
"m.	c #CDCDCD",
"n.	c #C7C7C7",
"o.	c #C8C8C8",
"p.	c #CECECE",
"q.	c #CACACA",
"r.	c #726F6E",
"s.	c #887769",
"t.	c #C9C9C9",
"u.	c #BFBFBF",
"v.	c #C0C0C0",
"w.	c #A9A9A9",
"x.	c #AAAAAA",
"y.	c #A8A8A8",
"z.	c #B0B0B0",
"A.	c #BDBDBD",
"B.	c #C1C1C1",
"C.	c #C9CACA",
"D.	c #857567",
"E.	c #767472",
"F.	c #C0C1C1",
"G.	c #C2C2C2",
"H.	c #BEBEBE",
"I.	c #454545",
"J.	c #3E3E3E",
"K.	c #404040",
"L.	c #333333",
"M.	c #3B3B3B",
"N.	c #343434",
"O.	c #2C2C2C",
"P.	c #2D2D2D",
"Q.	c #303030",
"R.	c #3F3F3F",
"S.	c #414141",
"T.	c #393939",
"U.	c #424242",
"V.	c #868686",
"W.	c #BFC0C0",
"X.	c #706E6C",
"Y.	c #857467",
"Z.	c #777674",
"`.	c #C8C8C9",
" +	c #575757",
".+	c #232323",
"++	c #323232",
"@+	c #282828",
"#+	c #2A2A2A",
"$+	c #1B1B1B",
"%+	c #191919",
"&+	c #272727",
"*+	c #1E1E1E",
"=+	c #1F1F1F",
"-+	c #2E2E2E",
";+	c #C7C7C8",
">+	c #5B5B5B",
",+	c #212121",
"'+	c #202020",
")+	c #1A1A1A",
"!+	c #313131",
"~+	c #262626",
"{+	c #1C1C1C",
"]+	c #BCBCBC",
"^+	c #716F6D",
"/+	c #C2C3C3",
"(+	c #C1C2C2",
"_+	c #838383",
":+	c #292929",
"<+	c #1D1D1D",
"[+	c #252525",
"}+	c #5E5E5E",
"|+	c #C1C1C2",
"1+	c #716F6E",
"2+	c #6C6763",
"3+	c #B5AFA9",
"4+	c #BCB5AF",
"5+	c #BBB5AF",
"6+	c #BBB4AF",
"7+	c #BDB7B2",
"8+	c #C4C3C2",
"9+	c #A0A0A0",
"0+	c #888888",
"a+	c #8B8B8B",
"b+	c #8D8D8D",
"c+	c #8A8A8A",
"d+	c #878787",
"e+	c #8C8C8C",
"f+	c #949494",
"g+	c #B7B7B7",
"h+	c #C7C6C6",
"i+	c #BFBAB5",
"j+	c #BCB6B0",
"k+	c #BDB6B1",
"l+	c #B5AFAA",
"m+	c #68635F",
"n+	c #88786A",
"o+	c #867668",
"p+	c #594F46",
"q+	c #907F71",
"r+	c #A08E7E",
"s+	c #9F8D7E",
"t+	c #9F8D7D",
"u+	c #A08D7E",
"v+	c #A99B8E",
"w+	c #BEB9B4",
"x+	c #C7C8C8",
"y+	c #C2BDBA",
"z+	c #AC9F94",
"A+	c #8F7E70",
"B+	c #554B42",
"C+	c #89796B",
"D+	c #6F6A67",
"E+	c #BAB5B1",
"F+	c #C0BAB6",
"G+	c #BFBAB6",
"H+	c #A29081",
"I+	c #ADA095",
"J+	c #B2A79E",
"K+	c #B2A79D",
"L+	c #C3BFBB",
"M+	c #B1A69D",
"N+	c #AFA398",
"O+	c #A29183",
"P+	c #A99A8E",
"Q+	c #BBB4AE",
"R+	c #BFB9B4",
"S+	c #BFB9B5",
"T+	c #B7B3AE",
"U+	c #696461",
"V+	c #787675",
"W+	c #CBCCCC",
"X+	c #CDCDCE",
"Y+	c #CAC9C9",
"Z+	c #BBB3AD",
"`+	c #A7988B",
" @	c #A39284",
".@	c #BDB7B1",
"+@	c #B2A89F",
"@@	c #A59588",
"#@	c #B7AEA7",
"$@	c #C9C7C6",
"%@	c #CACBCB",
"&@	c #72706E",
"*@	c #CCCDCD",
"=@	c #C7C4C3",
"-@	c #C7C5C3",
";@	c #C7C4C2",
">@	c #C8C6C5",
",@	c #C9C9CA",
"'@	c #CCCCCD",
")@	c #C0AB99",
"!@	c #C0AC9B",
"~@	c #C0AB9A",
"{@	c #B0A093",
"]@	c #8E7F73",
"^@	c #928377",
"/@	c #AF9D8F",
"(@	c #867568",
"_@	c #89786A",
":@	c #908176",
"<@	c #8F8074",
"[@	c #93877D",
"}@	c #615A54",
"|@	c #665E58",
"1@	c #96887D",
"2@	c #776A5E",
"3@	c #767473",
"4@	c #7A6C60",
"5@	c #655D57",
"6@	c #625B55",
"7@	c #94877E",
"8@	c #9A8D83",
"9@	c #645C56",
"0@	c #69615B",
"a@	c #9E8F84",
"b@	c #7E7065",
"c@	c #817367",
"d@	c #9D8F84",
"e@	c #686059",
"f@	c #9A8E84",
"g@	c #B2A295",
"h@	c #98887C",
"i@	c #9B8B7F",
"j@	c #B09E90",
"k@	c #9A8A7E",
"l@	c #98897D",
"m@	c #B3A295",
"n@	c #C1AC9B",
"o@	c #787674",
"p@	c #B3B3B3",
"q@	c #BBBBBB",
"r@	c #ACACAC",
"s@	c #AFAFAF",
"t@	c #AEAEAE",
"u@	c #747371",
"v@	c #B9B9B9",
"w@	c #6F6D6B",
"x@	c #757372",
"y@	c #C3C4C4",
"z@	c #C4C4C4",
"A@	c #6E6C6A",
"B@	c #88776A",
"C@	c #CDCECE",
"D@	c #73706F",
"E@	c #7B7772",
"F@	c #B1B0AE",
"G@	c #A6A6A6",
"H@	c #BEBCB9",
"I@	c #C4C0B9",
"J@	c #BFBCB8",
"K@	c #B9B8B8",
"L@	c #B9B9B8",
"M@	c #C2BFB9",
"N@	c #C3BFB9",
"O@	c #BBBAB8",
"P@	c #BDBBB8",
"Q@	c #C1BEB9",
"R@	c #BAB9B8",
"S@	c #C0BDB9",
"T@	c #C2BEB9",
"U@	c #BEBCB8",
"V@	c #A8A7A6",
"W@	c #716E6B",
"X@	c #877668",
"Y@	c #463A28",
"Z@	c #2B2925",
"`@	c #504025",
" #	c #AC7B25",
".#	c #9B7027",
"+#	c #3C3425",
"@#	c #302C24",
"##	c #876324",
"$#	c #B78127",
"%#	c #674F26",
"&#	c #272624",
"*#	c #564424",
"=#	c #B07D26",
"-#	c #8D6727",
";#	c #322D25",
">#	c #393124",
",#	c #966C25",
"'#	c #AF7D27",
")#	c #554426",
"!#	c #282624",
"~#	c #674E24",
"{#	c #B98326",
"]#	c #A37527",
"^#	c #443926",
"/#	c #2C2924",
"(#	c #7C5B24",
"_#	c #B68126",
":#	c #6A5127",
"<#	c #534124",
"[#	c #AF7C25",
"}#	c #9C7127",
"|#	c #3D3425",
"1#	c #302B24",
"2#	c #866224",
"3#	c #B78226",
"4#	c #685026",
"5#	c #282725",
"6#	c #4F3F24",
"7#	c #6B5229",
"8#	c #8A796C",
"9#	c #14110C",
"0#	c #352000",
"a#	c #CB7F00",
"b#	c #B47100",
"c#	c #251700",
"d#	c #150D00",
"e#	c #9B6100",
"f#	c #DF8C00",
"g#	c #663F00",
"h#	c #060300",
"i#	c #523300",
"j#	c #D58600",
"k#	c #9E6300",
"l#	c #170D00",
"m#	c #231500",
"n#	c #B16F00",
"o#	c #D38400",
"p#	c #4B2E00",
"q#	c #6C4300",
"r#	c #E79100",
"s#	c #C27900",
"t#	c #321F00",
"u#	c #0E0800",
"v#	c #8B5700",
"w#	c #DD8B00",
"x#	c #6B4300",
"y#	c #4D2F00",
"z#	c #D68600",
"A#	c #B57100",
"B#	c #261700",
"C#	c #140C00",
"D#	c #9A6000",
"E#	c #674000",
"F#	c #472C00",
"G#	c #9A6100",
"H#	c #6E4C14",
"I#	c #89796C",
"J#	c #857568",
"K#	c #533A10",
"L#	c #A66800",
"M#	c #925C00",
"N#	c #160E00",
"O#	c #2B1B00",
"P#	c #BE7700",
"Q#	c #D98900",
"R#	c #4C2F00",
"S#	c #090500",
"T#	c #764A00",
"U#	c #E38F00",
"V#	c #855400",
"W#	c #0C0700",
"X#	c #3E2700",
"Y#	c #D08300",
"Z#	c #C67D00",
"`#	c #342000",
" $	c #110A00",
".$	c #915B00",
"+$	c #F69B00",
"@$	c #AC6C00",
"#$	c #1F1300",
"$$	c #201400",
"%$	c #AF6E00",
"&$	c #DA8900",
"*$	c #513300",
"=$	c #080500",
"-$	c #704600",
";$	c #E89200",
">$	c #9E6400",
",$	c #2A1A00",
"'$	c #BC7700",
")$	c #4D3000",
"!$	c #754900",
"~$	c #DB8A00",
"{$	c #271E11",
"]$	c #867669",
"^$	c #795417",
"/$	c #603F07",
"($	c #110E09",
"_$	c #473009",
":$	c #D58A09",
"<$	c #C98208",
"[$	c #392708",
"}$	c #171209",
"|$	c #966209",
"1$	c #E49309",
"2$	c #6C4708",
"3$	c #0F0C08",
"4$	c #5D3E09",
"5$	c #E19109",
"6$	c #B17308",
"7$	c #261B08",
"8$	c #251B09",
"9$	c #B07209",
"0$	c #F79F09",
"a$	c #946008",
"b$	c #181208",
"c$	c #392709",
"d$	c #C98209",
"e$	c #CD8408",
"f$	c #3D2A08",
"g$	c #161109",
"h$	c #915F09",
"i$	c #ED9809",
"j$	c #855708",
"k$	c #130F08",
"l$	c #462F09",
"m$	c #D48909",
"n$	c #CA8308",
"o$	c #3A2808",
"p$	c #946109",
"q$	c #EA9609",
"r$	c #784F09",
"s$	c #0F0C07",
"t$	c #282116",
"u$	c #8B7A6C",
"v$	c #70685C",
"w$	c #9A9997",
"x$	c #C8B89D",
"y$	c #DCC59D",
"z$	c #B4AB9C",
"A$	c #9A9B9C",
"B$	c #B0A99D",
"C$	c #DBC49D",
"D$	c #C7B79D",
"E$	c #9D9D9C",
"F$	c #A2A09C",
"G$	c #CFBD9D",
"H$	c #D9C39D",
"I$	c #ABA59C",
"J$	c #9B9B9C",
"K$	c #B9AE9D",
"L$	c #DDC59D",
"M$	c #D2BE9D",
"N$	c #A4A19C",
"O$	c #9D9C9C",
"P$	c #C3B59D",
"Q$	c #B6AC9C",
"R$	c #AEA89C",
"S$	c #DAC49D",
"T$	c #CFBC9D",
"U$	c #A19F9C",
"V$	c #9E9D9C",
"W$	c #AFA89C",
"X$	c #CBBA9C",
"Y$	c #999897",
"Z$	c #696258",
"`$	c #847466",
" %	c #757473",
".%	c #CDCECF",
"+%	c #CCCDCF",
"@%	c #CFCFCF",
"#%	c #CECECF",
"$%	c #CBCDCF",
"%%	c #CECFCF",
"&%	c #CBCCCD",
"*%	c #ADADAD",
"=%	c #C3C3C4",
"-%	c #6F6E6D",
";%	c #917F70",
">%	c #5E5751",
",%	c #898888",
"'%	c #BEBEBF",
")%	c #868685",
"!%	c #938172",
"~%	c #BBA99A",
"{%	c #968374",
"]%	c #6D6157",
"^%	c #696562",
"/%	c #929190",
"(%	c #908F8E",
"_%	c #979796",
":%	c #9C9A99",
"<%	c #9C9B99",
"[%	c #979695",
"}%	c #676360",
"|%	c #6F6258",
"1%	c #978575",
"2%	c #BCAA9B",
"3%	c #B8A799",
"4%	c #C0AC9D",
"5%	c #A49282",
"6%	c #918071",
"7%	c #88796C",
"8%	c #72675E",
"9%	c #796C61",
"0%	c #8A7B6E",
"a%	c #897A6D",
"b%	c #807267",
"c%	c #6D625A",
"d%	c #86776B",
"e%	c #928072",
"f%	c #A59283",
"g%	c #B7A698",
"h%	c #B4A295",
"i%	c #BEAB9D",
"j%	c #BDA99A",
"k%	c #BCA898",
"l%	c #86796F",
"m%	c #B5A293",
"n%	c #BCA999",
"o%	c #C3B1A3",
"p%	c #CEBFB4",
"q%	c #CBBBAF",
"r%	c #CCBDB1",
"s%	c #CDBDB2",
"t%	c #C2B0A2",
"u%	c #928376",
"v%	c #8D7F74",
"w%	c #A9998B",
"x%	c #BDAA9A",
"y%	c #BDAB9D",
"z%	c #B3A294",
"A%	c #B8A698",
"B%	c #BBA899",
"C%	c #BCA99A",
"D%	c #867A71",
"E%	c #998A7E",
"F%	c #C5B4A8",
"G%	c #D4C7BF",
"H%	c #CFC1B8",
"I%	c #D1C4BB",
"J%	c #CFC1B7",
"K%	c #C4B3A7",
"L%	c #9C8C80",
"M%	c #8D8076",
"N%	c #A8988C",
"O%	c #BCAA9A",
"        . + + + @ # $ % + & * = - ; > , ' ) ! ! ! ! ! ! ~ { ] ^ ; / ( * & + % _ : < [ + + .         ",
"    } | 1 1 2 3 4 5 6 7 8 9 0 a b c d e f g h h h h h h i j k l m n o 0 9 3 p q r s 8 2 1 1 | }     ",
"t u 2 v w x y z A B C D E E E F G G G H I J K K K K K K L M E G G G N E E E O P Q R S y x w v 3 u t ",
"T w v 2 U V W X Y Z `  .................+.@.@.@.@.@.@.@.@.+................. .#.$.%.&.*.=.-.;.v >.,.",
",.'.w U ).!.~.{.].^./.(.(.(.(.(.(.(.(.(.(.(.(.(.(.(.(.(.(.(.(.(.(.(.(.(.(.(.(._.:.<.[.}.|.1.4 2.'.,.",
",.'.w 3.4.5.6.7.8.9.0.0.0.0.0.0.0.0.0.0.0.0.0.0.0.0.0.0.0.0.0.0.0.0.0.0.0.0.0.8.9.8.a.b.c.d.e.2.'.,.",
",.'.w f.g.h.i.].0.0.0.0.0.0.0.0.0.0.0.0.0.0.0.0.0.0.0.0.0.0.0.0.0.0.0.0.0.0.0.0.0.8.7.j.k.4.[ 2.'.,.",
",.'.w f.g.l.8.m.0.0.0.0.0.0.0.0.n.9.n.n.n.n.n.n.n.n.n.n.n.n.n.n.9.o.0.0.0.0.0.0.0.0.p.q.r.s.[ 2.'.,.",
",.'.w f.g.l.8.0.0.0.0.0.0.0.t.u.v.a.w.x.w.w.w.w.w.w.w.x.x.x.x.y.z.A.B.q.0.0.0.0.0.0.m.C.r.s.[ 2.'.,.",
",.'.w f.D.E.F.G.B.B.B.B.B.B.H.9.[.I.J.K.L.M.N.O.P.O.Q.R.S.S.T.P.U.V.u.H.B.B.B.B.B.B.G.W.X.s.[ 2.'.,.",
",.'.w f.Y.Z.`.q.q.q.q.q.q.q.8.8. +.+++@+.+#+$+%+%+%+&+++++Q.*+=+-+I.A.0.q.q.q.q.q.q.q.;+r.s.[ 2.'.,.",
",.'.w f.g.l.t.8.8.8.8.8.8.8.0.q.>+-+Q.,+O.'+)+)+)+,+!+L.L.~+{+P.-+T.]+0.8.8.8.8.8.8.8.o.^+s.[ 2.'.,.",
",.'.w f.D.l.G./+_._._._._.(+u.n._+M.~+@+:+$+$+$+<+P.N.N.-+<+[+L.#+}+A.u.G._._._._._./+|+1+s.[ 2.'.,.",
",.'.w f.D.2+3+4+5+5+5+5+6+7+8+W.A.9+0+a+0+V.V.V.0+b+b+b+c+d+a+e+f+g+B.h+i+j+j+j+j+j+k+l+m+n+[ 2.'.,.",
",.'.w f.o+p+q+r+s+s+s+s+t+u+v+w+j.(.o.x+n.n.n.n.n.n.n.n.n.n.n.x+n.n.y+z+r+t+t+t+t+t+r+A+B+C+[ 2.'.,.",
",.'.w f.D.D+E+F+G+G+G+G+G+7+z+H+I+J+K+J+L+m.0.0.0.0.0.0.0.0.4+M+J+N+O+P+Q+R+w+w+w+w+S+T+U+n+[ 2.'.,.",
",.'.w f.g.V+W+X+m.m.m.m.m.m.Y+Z+`+ @ @ @.@m.0.0.0.0.0.0.0.0.+@O+ @@@#@$@m.m.m.m.m.m.X+%@&@s.[ 2.'.,.",
",.'.w f.g.Z.%@0.0.0.0.0.0.0.0.*@$@=@-@-@Y+0.0.0.0.0.0.0.0.0.$@;@=@>@0.0.0.0.0.0.0.0.0.,@r.s.[ 2.'.,.",
",.'.w f.g.Z.%@0.0.0.0.0.0.0.0.0.0.'@'@'@0.0.0.0.0.0.0.0.0.0.0.'@'@0.0.0.0.0.0.0.0.0.0.,@r.s.[ 2.'.,.",
",.'.w f.g.Z.%@0.0.0.0.0.0.0.0.0.0.0.0.0.0.0.0.0.0.0.0.0.0.0.0.0.0.0.0.0.0.0.0.0.0.0.0.,@r.s.[ 2.'.,.",
",.'.w f.g.Z.%@0.0.0.0.0.0.0.0.0.0.0.0.0.0.0.0.0.0.0.0.0.0.0.0.0.0.0.0.0.0.0.0.0.0.0.0.,@r.s.[ 2.'.,.",
",.'.w f.g.Z.%@0.0.0.0.0.0.0.0.0.0.0.0.0.0.0.0.0.0.0.0.0.0.0.0.0.0.0.0.0.0.0.0.0.0.0.0.,@r.s.[ 2.'.,.",
",.'.w f.g.Z.%@0.0.0.0.0.0.0.0.0.0.0.0.0.0.0.0.0.0.0.0.0.0.0.0.0.0.0.0.0.0.0.0.0.0.0.0.,@r.s.[ 2.'.,.",
",.'.w f.g.Z.%@0.0.0.0.0.0.0.0.0.0.0.0.0.0.0.0.0.0.0.0.0.0.0.0.0.0.0.0.0.0.0.0.0.0.0.0.,@r.s.[ 2.'.,.",
"u )@!@f.g.Z.%@0.0.0.0.0.0.0.0.0.0.0.0.0.0.0.0.0.0.0.0.0.0.0.0.0.0.0.0.0.0.0.0.0.0.0.0.,@r.s.[ ~@~@,.",
"{@]@^@/@(@Z.%@0.0.0.0.0.0.0.0.0.0.0.0.0.0.0.0.0.0.0.0.0.0.0.0.0.0.0.0.0.0.0.0.0.0.0.0.,@r._@/@:@<@{@",
"[@}@|@1@2@3@8.0.0.0.0.0.0.0.0.0.0.0.0.0.0.0.0.0.0.0.0.0.0.0.0.0.0.0.0.0.0.0.0.0.0.0.0.C.X.4@1@5@6@7@",
"8@9@0@a@b@l.%@0.0.0.0.0.0.0.0.0.0.0.0.0.0.0.0.0.0.0.0.0.0.0.0.0.0.0.0.0.0.0.0.0.0.0.0.C.^+c@d@e@5@f@",
"g@h@i@j@D.Z.%@0.0.0.0.0.0.0.0.0.0.0.0.0.0.0.0.0.0.0.0.0.0.0.0.0.0.0.0.0.0.0.0.0.0.0.0.,@r._@j@k@l@m@",
"u ~@n@f.g.Z.%@0.0.0.0.0.0.0.0.0.0.0.0.0.0.0.0.0.0.0.0.0.0.0.0.0.0.0.0.0.0.0.0.0.0.0.0.,@r.s.[ ~@~@,.",
",.'.w f.g.l.%@m.0.0.0.0.0.0.0.0.0.0.0.0.0.0.0.0.0.0.0.0.0.0.0.0.0.0.0.0.0.0.0.0.0.0.m.C.r.s.[ 2.'.,.",
",.'.w f.g.Z.q.9.9.j.o.0.0.0.0.0.0.0.0.0.0.0.0.0.0.0.0.0.0.0.0.0.0.0.0.0.0.0.0.o.9.9.n.t.r.s.[ 2.'.,.",
",.'.w f.g.o@j.g+6.p@A.0.0.0.0.0.0.0.0.0.0.0.0.0.0.0.0.0.0.0.0.0.0.0.0.0.0.0.8.q@p@6.7.9.&@s.[ 2.'.,.",
",.'.w f.g.o@j.a.r@s@]+0.0.0.0.0.0.0.0.0.0.0.0.0.0.0.0.0.0.0.0.0.0.0.0.0.0.0.8.q@t@r@g+/.&@s.[ 2.'.,.",
",.'.w f.g.V+/.g+s@6.A.0.m.m.m.m.m.m.m.m.m.m.m.m.m.m.m.m.m.m.m.m.m.m.m.m.m.m.0.q@6.s@7.9.&@s.[ 2.'.,.",
",.'.w f.D.u@H.v@7.7.q@B.B.B.B.B.B.B.B.B.B.B.B.B.B.B.B.B.B.B.B.B.B.B.B.B.B.B.B.].7.7.v@H.w@s.[ 2.'.,.",
",.'.w f.D.x@y@9.j.j.j.z@z@z@z@z@z@z@z@z@z@z@z@z@z@z@z@z@z@z@z@z@z@z@z@z@z@z@z@j.j.j.9.|+A@B@[ 2.'.,.",
",.'.w f.g.V+B.v@C@X+X+p.X+X+X+C@p.X+X+X+p.X+X+X+p.C@X+X+X+p.C@X+X+C@p.X+X+X+p.X+X+X+v@B.D@s.[ 2.'.,.",
",.'.w f.D.E@F@G@H@I@J@K@L@M@N@O@7.H@I@P@7.O@N@Q@R@7.S@I@S@K@K@T@N@O@7.U@I@J@K@L@M@N@V@t@W@n+[ 2.'.,.",
",.'.w f.X@Y@Z@`@ #.#+#@###$#%#&#*#=#-#;#>#,#'#)#!#~#{#]#^#/#(#_#:#!#<#[#}#|#1#2#3#4#5#6#7#8#[ 2.'.,.",
",.'.w f.o+9#0#a#b#c#d#e#f#g#h#i#j#k#l#m#n#o#p#h#q#r#s#t#u#v#w#x#h#y#z#A#B#C#D#f#E#h#F#G#H#I#[ 2.'.,.",
",.'.w f.J#K#L#M#N#O#P#Q#R#S#T#U#V#W#X#Y#Z#`# $.$+$@$#$$$%$&$*$=$-$;$>$N#,$'$&$)$=$!$~$x#{$8#[ 2.'.,.",
",.'.w f.]$^$/$($_$:$<$[$}$|$1$2$3$4$5$6$7$8$9$0$a$b$c$d$e$f$g$h$i$j$k$l$m$n$o$}$p$q$r$s$t$u$[ 2.'.,.",
",.'.w f.D.v$w$w$x$y$z$A$B$C$D$E$F$G$H$I$J$K$L$M$N$O$P$L$Q$A$R$S$T$U$V$x$y$z$A$W$C$X$Y$w$Z$_@[ 2.'.,.",
",.'.w f.`$ %H.6..%+%.%@%#%$%+%@%@%+%$%#%@%.%$%+%%%@%.%$%.%@%#%$%+%@%@%+%$%.%@%#%+%&%*%=%-%4.[ 2.'.,.",
",.'.w & ;%>%,%v.C.*%W+@%@%@%@%@%@%@%@%@%@%@%@%@%@%@%@%@%@%@%@%@%@%@%@%@%@%@%@%n.t@m.'%)%>%!%f.w '.,.",
"T '.'.~%H {%]%^%/%(%_%:%:%:%:%:%:%:%:%:%:%:%:%:%:%:%:%:%:%:%:%:%:%:%:%:%:%:%<%[%(%/%}%|%1%E 2%'.'.,.",
"3%4%'.'.2 % 5%6%7%8%9%0%a%a%a%a%a%a%a%a%a%a%I#I#I#I#I#I#a%a%a%a%a%a%a%a%a%a%0%b%c%d%e%f%f.2 '.'.4%g%",
"  h%i%;.'.;.j%k%+ l%<@m%n%k%k%k%k%k%k%k%k%o%p%q%r%s%q%p%t%k%k%k%k%k%k%k%k%n%m%u%v%w%n%x%;.'.;.y%z%  ",
"      A%~%B%B%C%z%D%E%4 ~%B%B%B%B%B%B%B%B%F%G%H%I%I%J%G%K%B%B%B%B%B%B%B%B%~%-.L%M%N%O%B%B%~%g%      "};
