/* XPM */
static char * exitopenpack_xpm[] = {
"50 50 3 1",
" 	c #000000",
".	c #2121FF",
"+	c #FFFF00",
"  .                                           .   ",
"  .                                           .   ",
"  .                                           .   ",
"  .                                           .   ",
"  .       .                       .       .   .   ",
"  .                                           .   ",
"  .       .                       .       .   .   ",
"  .                                           .   ",
"  .                                           .   ",
"  .                 ++++++++                  .   ",
"  .              ++++++++++++++               .   ",
"  .   .        ++++++++++++++++++         .   .   ",
"  .           ++++++++++++++++++++            .   ",
"  .          ++++++++++++++++++++++           .   ",
"  .         ++++++++++++++++++++++++          .   ",
"  .....    ++++++++++++++++++++++++++    ......   ",
"          ++++++++++++++++++++++++++++            ",
"          ++++++++++++++++++++++++++++            ",
"         ++++++++++++++++++++++++++++++           ",
"         ++++++++++++++++++++++++++++++           ",
"         ++++++++++++++++++++++++++++++           ",
"  ..... ++++++++++++++++++++++++++++++++ ......   ",
"        ++++++++++++++++++++++++++++++++          ",
"        ++++++++++++++++++++++++++++++++          ",
"        ++++++++++++++++++++++++++++++++          ",
"  ..... ++++++++++++++++++++++++++++++++ ......   ",
"        ++++++++++++++++++++++++++++++++          ",
"        ++++++++++++++++++++++++++++++++          ",
"        ++++++++++++++++++++++++++++++++          ",
"         ++++++++++++++++++++++++++++++           ",
"         ++++++++++++++++++++++++++++++           ",
"  .....  ++++++++++++++++++++++++++++++  ......   ",
"  .       ++++++++++++++++++++++++++++        .   ",
"  .       ++++++++++++++++++++++++++++        .   ",
"  .        ++++++++++++++++++++++++++         .   ",
"  .   .     ++++++++++++++++++++++++      .   .   ",
"  .          ++++++++++++++++++++++           .   ",
"  .           ++++++++++++++++++++            .   ",
"  .            ++++++++++++++++++             .   ",
"  .              ++++++++++++++               .   ",
"                    ++++++++                      ",
"  .                                           .   ",
"  .                                           .   ",
"  .                                           .   ",
"  .                                           .   ",
"  .                                           .   ",
"  .                                           .   ",
"  .                                           .   ",
"  .                                           .   ",
"  .                                           .   "};
