/* XPM */
static char * exitclose_xpm[] = {
"50 50 4 1",
" 	c #000000",
".	c #2121FF",
"+	c #DE9751",
"@	c #FFB7AE",
"  .                    . .                    .   ",
"                                                  ",
"                                                  ",
"    +                               +       +     ",
"   ++                                       ++    ",
"   +@       +                       +       @+    ",
"    + .   .   .                   .   .   . +     ",
"                                                  ",
"    ++ +  + +  + ++ +  +    + ++ +  + +  + ++     ",
"                                                  ",
"    +       + .  +             +  . +       +     ",
"      .                                   .       ",
"                                                  ",
"    ++ +  + +    ++ +       + ++         + ++     ",
"                                                  ",
"  ........  +                       +  ........   ",
"          . +                       + .           ",
"          .                           .           ",
"          . +                       + .           ",
"          .                           .           ",
"          .        ....@@@....        .           ",
"  ........  + .    .         .    . +  ........   ",
"                   .         .                    ",
"            +      .         .      +             ",
"                   .         .                    ",
"  .........   .    .         .    .   .........   ",
"          . +      ...........      + .           ",
"          .                           .           ",
"          . +                       + .           ",
"          .                           .           ",
"         ..                           ..          ",
"  .         +                       +         .   ",
"                                                  ",
"    ++ +  + +  + ++ +       + ++ +  + +  + ++     ",
"    +       +                       +       +     ",
"                                                  ",
"    +       +                       +       +     ",
"   ++                                       ++    ",
"   +@                                       @+    ",
"       +    +    +             +    +    +        ",
"                                                  ",
"       +    +    +     . .     +    +    +        ",
"                                                  ",
"                                                  ",
"    +                                       +     ",
"                                                  ",
"    +                                       +     ",
"                                                  ",
"                                                  ",
"  .                                           .   "};
