/* XPM */
static char * exitclosepack_xpm[] = {
"50 50 6 1",
" 	c #000000",
".	c #2121FF",
"+	c #DE9751",
"@	c #FFB7AE",
"#	c #FFFF00",
"$	c #47B7AE",
"  .                    . .                    .   ",
"                                                  ",
"                                                  ",
"    +                               +       +     ",
"   ++                                       ++    ",
"   +@       +                       +       @+    ",
"    + .   .   .                   .   .   . +     ",
"                                                  ",
"    ++                                   + ++     ",
"                    ########                      ",
"    +            ##############             +     ",
"      .        ##################         .       ",
"              ####################                ",
"    ++       ######################      + ++     ",
"            ########################              ",
"  .....    ##########################    ......   ",
"          ############################            ",
"          ############################            ",
"         ##############################           ",
"         ##############################           ",
"         ##############################           ",
"  ..... ################################ ......   ",
"        ################################          ",
"        ################################          ",
"        ################################          ",
"  ..... ################################ ......   ",
"        ################################          ",
"        ################################          ",
"        ################################          ",
"         ##############################           ",
"         ##############################           ",
"  .      ##############################       .   ",
"          ############################            ",
"    ++    ############################   + ++     ",
"    +      ##########################       +     ",
"            ########################              ",
"    +        ######################         +     ",
"   ++         ####################          ++    ",
"   +@          ##################           @+    ",
"                 ##############          +        ",
"                    ########                      ",
"                                         +        ",
"             $                                    ",
"                                                  ",
"    +                                       +     ",
"                                                  ",
"    +                                       +     ",
"                                                  ",
"                                                  ",
"  .                                           .   "};
