/* XPM */
static char * exitopen_xpm[] = {
"50 50 3 1",
" 	c #000000",
".	c #2121FF",
"+	c #FFB7AE",
"  .                                           .   ",
"  .                                           .   ",
"  .                                           .   ",
"  .                                           .   ",
"  .       .                       .       .   .   ",
"  .                                           .   ",
"  .       .                       .       .   .   ",
"  .                                           .   ",
"  .                                           .   ",
"  .                                           .   ",
"  .                                           .   ",
"  .   .   .        .                  .   .   .   ",
"  .                                           .   ",
"  .                                           .   ",
"  .                                           .   ",
"  .........                            ........   ",
"          .                           .           ",
"          .                           .           ",
"          .                           .           ",
"          .                           .           ",
"          .        ....+++....        .           ",
"  .........        .              .    ........   ",
"                   .                              ",
"                   .                              ",
"                   .                              ",
"  .........   ..   .         .    .   .........   ",
"          .        ...........        .           ",
"          .                           .           ",
"          .                           .           ",
"          .                           .           ",
"          .        .                  .           ",
"  ........                             ........   ",
"  .                                           .   ",
"  .                                           .   ",
"  .                                           .   ",
"  .   .   .   .                   .   .   .   .   ",
"  .                                           .   ",
"  .                                           .   ",
"  .                                           .   ",
"  .                                           .   ",
"                                                  ",
"  .                    .                      .   ",
"  .                                           .   ",
"  .                                           .   ",
"  .                                           .   ",
"  .                                           .   ",
"  .                                           .   ",
"  .                                           .   ",
"  .                                           .   ",
"  .                                           .   "};
