/* XPM */
static char * fpackman_xpm[] = {
"50 50 2 1",
" 	c #000000",
".	c #FFFF00",
"                                                  ",
"                                                  ",
"                                                  ",
"                                                  ",
"                                                  ",
"                                                  ",
"                                                  ",
"                                                  ",
"                    ........                      ",
"                 ..............                   ",
"               ..................                 ",
"              ....................                ",
"             ......................               ",
"            ........................              ",
"           ..........................             ",
"          ............................            ",
"          ............................            ",
"            ...........................           ",
"              .........................           ",
"                .......................           ",
"                   .....................          ",
"                      ..................          ",
"                        ................          ",
"                          ..............          ",
"                          ..............          ",
"                        ................          ",
"                      ..................          ",
"                   .....................          ",
"                .......................           ",
"              .........................           ",
"            ...........................           ",
"          ............................            ",
"          ............................            ",
"           ..........................             ",
"            ........................              ",
"             ......................               ",
"              ....................                ",
"               ..................                 ",
"                 ..............                   ",
"                    ........                      ",
"                                                  ",
"                                                  ",
"                                                  ",
"                                                  ",
"                                                  ",
"                                                  ",
"                                                  ",
"                                                  ",
"                                                  ",
"                                                  "};
