/* XPM */
static char * StoneBlock_xpm[] = {
"50 50 452 2",
"  	c None",
". 	c #8E6619",
"+ 	c #936A19",
"@ 	c #976D1A",
"# 	c #996E1B",
"$ 	c #9A6E1B",
"% 	c #976C1A",
"& 	c #886117",
"* 	c #926819",
"= 	c #996E1A",
"- 	c #956C1A",
"; 	c #916819",
"> 	c #946A19",
", 	c #9E721B",
"' 	c #A7781D",
") 	c #AA7A1E",
"! 	c #AA7B1E",
"~ 	c #A97A1D",
"{ 	c #9C701B",
"] 	c #9F721C",
"^ 	c #A4761C",
"/ 	c #906719",
"( 	c #966C1A",
"_ 	c #A6771D",
": 	c #AC7C1E",
"< 	c #AB7B1D",
"[ 	c #AB7A1C",
"} 	c #A6761B",
"| 	c #A5761B",
"1 	c #AB7B1E",
"2 	c #9F721B",
"3 	c #906819",
"4 	c #AD7D1F",
"5 	c #B8892B",
"6 	c #C99D3F",
"7 	c #CEA448",
"8 	c #CFA548",
"9 	c #CEA246",
"0 	c #C29537",
"a 	c #B18224",
"b 	c #AB7C1E",
"c 	c #9D711B",
"d 	c #8F6719",
"e 	c #8F6718",
"f 	c #B48426",
"g 	c #D7AE52",
"h 	c #F0CD73",
"i 	c #F6D176",
"j 	c #F7CF74",
"k 	c #F7CF73",
"l 	c #F7D074",
"m 	c #F5D177",
"n 	c #E8C369",
"o 	c #C5993B",
"p 	c #AD7D1E",
"q 	c #A7791D",
"r 	c #B48526",
"s 	c #E2BB5F",
"t 	c #F5CA6D",
"u 	c #EEB755",
"v 	c #EBAF4B",
"w 	c #EAAD48",
"x 	c #EAAD49",
"y 	c #ECB14E",
"z 	c #F1C060",
"A 	c #F2CC71",
"B 	c #CBA043",
"C 	c #9E721C",
"D 	c #986D1A",
"E 	c #D7AD50",
"F 	c #F2C162",
"G 	c #EAAC47",
"H 	c #E9A944",
"I 	c #E9AA45",
"J 	c #E9AA44",
"K 	c #EDB351",
"L 	c #EEC467",
"M 	c #BE9032",
"N 	c #A3751C",
"O 	c #9A6F1B",
"P 	c #BA8B2D",
"Q 	c #EBBC5D",
"R 	c #EAAC48",
"S 	c #EEB553",
"T 	c #D8AC4E",
"U 	c #A5771D",
"V 	c #CB9B3B",
"W 	c #EAAB45",
"X 	c #EAAA45",
"Y 	c #EAAB46",
"Z 	c #E5B14F",
"` 	c #CD9938",
" .	c #E2A541",
"..	c #C48E33",
"+.	c #D69C3C",
"@.	c #E5AB47",
"#.	c #B58425",
"$.	c #CB9431",
"%.	c #D19839",
"&.	c #92691B",
"*.	c #B5832C",
"=.	c #E8A944",
"-.	c #E0A340",
";.	c #E1A441",
">.	c #E7A944",
",.	c #E3A640",
"'.	c #B48223",
").	c #CB922F",
"!.	c #C38E32",
"~.	c #E8AA45",
"{.	c #BA872E",
"].	c #BE8A30",
"^.	c #E4A642",
"/.	c #E6A844",
"(.	c #E3A53F",
"_.	c #B48222",
":.	c #CB9230",
"<.	c #DDA13F",
"[.	c #DEA23F",
"}.	c #A6781D",
"|.	c #DEA13E",
"1.	c #A77820",
"2.	c #A0731C",
"3.	c #9B6F1B",
"4.	c #8C6518",
"5.	c #E7A844",
"6.	c #AD7D2C",
"7.	c #7D5A18",
"8.	c #7C5918",
"9.	c #7C5A19",
"0.	c #E6A843",
"a.	c #E5A743",
"b.	c #BE8A33",
"c.	c #99762F",
"d.	c #B59346",
"e.	c #B69446",
"f.	c #B49346",
"g.	c #B19044",
"h.	c #DEA13F",
"i.	c #E8A840",
"j.	c #E8A73B",
"k.	c #E7A538",
"l.	c #E8A73D",
"m.	c #E9A943",
"n.	c #EBAB46",
"o.	c #CE963A",
"p.	c #98722B",
"q.	c #CFA249",
"r.	c #BE8E2F",
"s.	c #B5882A",
"t.	c #B08429",
"u.	c #9F7826",
"v.	c #E7A536",
"w.	c #E6A330",
"x.	c #E6A12C",
"y.	c #E5A029",
"z.	c #E5A12A",
"A.	c #E6A32F",
"B.	c #E8A83F",
"C.	c #E8A945",
"D.	c #E4A643",
"E.	c #E0A341",
"F.	c #DA9E3E",
"G.	c #CD9438",
"H.	c #9B7229",
"I.	c #C59B48",
"J.	c #E5A944",
"K.	c #B38121",
"L.	c #A5761C",
"M.	c #926918",
"N.	c #E7A535",
"O.	c #E5A12C",
"P.	c #E6A331",
"Q.	c #E8A63A",
"R.	c #E9A941",
"S.	c #E0A645",
"T.	c #CF9C42",
"U.	c #BE913D",
"V.	c #B1883A",
"W.	c #A78137",
"X.	c #96732D",
"Y.	c #916D29",
"Z.	c #DFA747",
"`.	c #E4A53F",
" +	c #CB9330",
".+	c #E9AA43",
"++	c #E7A435",
"@+	c #E49F29",
"#+	c #E39F29",
"$+	c #E6A12D",
"%+	c #E7A434",
"&+	c #E8A73C",
"*+	c #E9A942",
"=+	c #E9AC48",
"-+	c #E9AE4C",
";+	c #E6AE4D",
">+	c #E4AF50",
",+	c #E0B055",
"'+	c #A58137",
")+	c #B88631",
"!+	c #C8902A",
"~+	c #E6A230",
"{+	c #E6A029",
"]+	c #DE9C28",
"^+	c #D4992F",
"/+	c #E19F2C",
"(+	c #E5A02A",
"_+	c #E6A22F",
":+	c #E7A537",
"<+	c #E8A83E",
"[+	c #EBAC46",
"}+	c #DAA84D",
"|+	c #A07930",
"1+	c #D19737",
"2+	c #B58223",
"3+	c #C58C23",
"4+	c #E6A129",
"5+	c #E7A129",
"6+	c #D09226",
"7+	c #BF8C2E",
"8+	c #DB9F31",
"9+	c #E5A12B",
"0+	c #E8A639",
"a+	c #EBAD49",
"b+	c #C79B48",
"c+	c #AB7D2C",
"d+	c #B17F21",
"e+	c #AD7C1E",
"f+	c #BA8320",
"g+	c #CE8F23",
"h+	c #CB8D23",
"i+	c #C98C22",
"j+	c #C68A22",
"k+	c #C58A23",
"l+	c #B58022",
"m+	c #B18632",
"n+	c #DCA135",
"o+	c #D89726",
"p+	c #AF7C1F",
"q+	c #CE9124",
"r+	c #E7A433",
"s+	c #E8AF4D",
"t+	c #B28B3D",
"u+	c #8A641A",
"v+	c #976C19",
"w+	c #9E711B",
"x+	c #926919",
"y+	c #9B701B",
"z+	c #A6771C",
"A+	c #956B1B",
"B+	c #977128",
"C+	c #A17D33",
"D+	c #A38036",
"E+	c #A68439",
"F+	c #AC883D",
"G+	c #9D792F",
"H+	c #DFA63B",
"I+	c #E6A12A",
"J+	c #D29325",
"K+	c #9E711C",
"L+	c #C58B23",
"M+	c #E6A22E",
"N+	c #E6A332",
"O+	c #E9A83E",
"P+	c #E0AB49",
"Q+	c #B28F43",
"R+	c #93722E",
"S+	c #825F1C",
"T+	c #7D5A16",
"U+	c #8A6317",
"V+	c #8E6921",
"W+	c #AA883E",
"X+	c #D1A64A",
"Y+	c #E6B149",
"Z+	c #E9B247",
"`+	c #EBB144",
" @	c #ECB041",
".@	c #B88B33",
"+@	c #BC8B2E",
"@@	c #E8A32B",
"#@	c #DA9927",
"$@	c #E29E28",
"%@	c #DE9D2B",
"&@	c #BF9030",
"*@	c #C29A41",
"=@	c #BB9848",
"-@	c #AA8A40",
";@	c #9D7C35",
">@	c #BC9947",
",@	c #BB9035",
"'@	c #C78E25",
")@	c #E59F28",
"!@	c #E59F27",
"~@	c #AE7D25",
"{@	c #C7912E",
"]@	c #DC9A27",
"^@	c #B17F1E",
"/@	c #AD7F24",
"(@	c #A57F2C",
"_@	c #B7913C",
":@	c #B28326",
"<@	c #AA7B1D",
"[@	c #E19E29",
"}@	c #A97B26",
"|@	c #D59B30",
"1@	c #D79726",
"2@	c #E19D28",
"3@	c #DC9B27",
"4@	c #B2801F",
"5@	c #A5771C",
"6@	c #9A6F1A",
"7@	c #DB9B2A",
"8@	c #AA7E2A",
"9@	c #DE9E2C",
"0@	c #BF8722",
"a@	c #D59627",
"b@	c #B0842F",
"c@	c #E2A02B",
"d@	c #CC9026",
"e@	c #BA882C",
"f@	c #E6A22B",
"g@	c #E39F28",
"h@	c #B28025",
"i@	c #BD8828",
"j@	c #DF9C27",
"k@	c #B27E22",
"l@	c #A98539",
"m@	c #B58A35",
"n@	c #D49527",
"o@	c #D59526",
"p@	c #A9781E",
"q@	c #CB8F24",
"r@	c #C68C23",
"s@	c #A87823",
"t@	c #B58F3F",
"u@	c #E3AC41",
"v@	c #DBA63E",
"w@	c #C19235",
"x@	c #D49627",
"y@	c #DB9B26",
"z@	c #D99A26",
"A@	c #DD9C27",
"B@	c #D39426",
"C@	c #A4751D",
"D@	c #C88D24",
"E@	c #AE7C1D",
"F@	c #A07524",
"G@	c #B89341",
"H@	c #D6A237",
"I@	c #D29623",
"J@	c #D09623",
"K@	c #CD992D",
"L@	c #C1912E",
"M@	c #C79225",
"N@	c #CB9322",
"O@	c #CC9322",
"P@	c #CF9523",
"Q@	c #D59824",
"R@	c #DC9C26",
"S@	c #E4A029",
"T@	c #E09C28",
"U@	c #855F16",
"V@	c #876018",
"W@	c #85601A",
"X@	c #906E28",
"Y@	c #BF9943",
"Z@	c #D29E32",
"`@	c #CB9321",
" #	c #CB9425",
".#	c #C89428",
"+#	c #CB9323",
"@#	c #DC9B26",
"##	c #E19E28",
"$#	c #9C7C36",
"%#	c #AC8C41",
"&#	c #BC9A4B",
"*#	c #CCA347",
"=#	c #D09B2D",
"-#	c #D49824",
";#	c #DD9B27",
">#	c #B6903B",
",#	c #BA8E32",
"'#	c #B28426",
")#	c #C08B22",
"!#	c #CE9523",
"~#	c #D49625",
"{#	c #C98D24",
"]#	c #D99926",
"^#	c #996D19",
"/#	c #AA7A1D",
"(#	c #BE8920",
"_#	c #CC9422",
":#	c #B1801E",
"<#	c #B6821F",
"[#	c #E09D28",
"}#	c #DA9A26",
"|#	c #D69925",
"1#	c #D49724",
"2#	c #D19624",
"3#	c #CB9222",
"4#	c #B17F1F",
"5#	c #BE8921",
"6#	c #BD8920",
"7#	c #A6781C",
"8#	c #CE9423",
"9#	c #D39724",
"0#	c #DA9B26",
"a#	c #D79925",
"b#	c #CD9422",
"c#	c #C99122",
"d#	c #CA9222",
"e#	c #CA9322",
"f#	c #BB871F",
"g#	c #BF8A20",
"h#	c #C89121",
"i#	c #BB8720",
"j#	c #AC7C1D",
"k#	c #C38D21",
"l#	c #C18B20",
"m#	c #C89022",
"n#	c #B07F1F",
"o#	c #B3811F",
"p#	c #C48D21",
"q#	c #C58F21",
"r#	c #C68F21",
"s#	c #B3811E",
"t#	c #C58E21",
"u#	c #C08B21",
"v#	c #C08A21",
"w#	c #C79021",
"x#	c #B5821F",
"y#	c #A3761C",
"z#	c #946A1A",
"A#	c #A8791D",
"B#	c #B07F1E",
"C#	c #BB8620",
"D#	c #BA861F",
"E#	c #A4751C",
"F#	c #B88520",
"G#	c #956B1A",
"H#	c #BC8720",
"I#	c #956A1A",
"J#	c #B88420",
"K#	c #AF7E1E",
"L#	c #825D17",
"M#	c #916919",
"N#	c #946B1A",
"O#	c #A2741C",
"P#	c #7F5A16",
"Q#	c #986D1B",
"R#	c #7D5916",
"S#	c #896218",
"        . + @ # # # # # # # # # # # # # # # # # # # # # # # $ % & * $ # # # # # # # = - ;           ",
"      > , ' ) ! ! ! ! ! ! ! ! ! ! ! ! ! ! ! ! ! ! ! ! ! ! ! ~ { ] ! ! ! ! ! ! ! ! ! ! ~ ^ = /       ",
"    ( _ : : : < < [ [ [ [ [ [ [ [ [ [ [ [ [ [ [ [ [ [ [ [ [ } | [ [ [ [ [ [ [ [ [ < : : : 1 2 3     ",
"  > _ : : < 4 5 6 7 8 8 8 8 8 8 8 8 8 8 8 8 8 8 8 8 8 8 8 8 7 8 8 8 8 8 8 8 8 8 9 0 a < : : b c d   ",
"e ] : : < f g h i j k k k k k k k k k k k k k k k k k k k k k k k k k k k k k k l m n o p : : ~ (   ",
"> q : < r s t u v w w w w w w w w w w w w w w w w w w w w w w w w w w w w w w w x y z A B : : : C   ",
"D ! : 4 E F G H I I I I I I I I I I I I I I I I I I I I I I I I I I I I I I I I I J H K L M < : N ; ",
"O 1 < P Q R I I I I I I I I I I I I I I I I I I I I I I I I I I I I I I I I I I I I I H S T 4 : U + ",
"O 1 < V y J I I I I W X I I I I I I I I I I I I I I I I I I I I I I I I I I I I I I I I Y Z f : _ + ",
"O 1 < ` G I I I I  ...+.I I I I I I I I I I I I I I I I I I I I I I I I I I I I I I I I I @.#.: _ + ",
"O 1 < $.W I I I Y %.&.*.=.I I I I I I I I I I I I I I I I -.;.I I I I I I I I >.=.I I I I ,.'.: _ + ",
"O 1 < ).X I I I I  .!.+.I I I I I I I I I I I I I I I I ~.{.].I I I I I I I I ^./.I I I I (._.: _ + ",
"O 1 < :.X I I I I I Y X I I I I I I I I I I I I I I I I I <.[.I I I I I I I I I I I I I I (._.: }.+ ",
"O 1 < :.X I I I I I I I I I I I I I I I I I I I I I I I I W X I I I I I I I I I I I I I W |.1.2.3.4.",
"O 1 < :.X I I I I I I I I I I I I I I I I I I I I I I I I I I I I I I I I I I I I I I I 5.6.7.8.8.9.",
"O 1 < :.X 0.a.I I I I I I I I I I I I I I I I I I I I I I I I I I I I I I I I I I I I I b.c.d.e.f.g.",
"O 1 < :.W h.<.X I I I I I I I I I J i.j.k.l.m.I I I I I I I I I I I I I I I I I I W n.o.p.q.r.s.t.u.",
"O 1 < :.X I I I I I I I I J i.j.v.w.x.y.y.z.A.k.B.J I I I I I I I I I I I C./.D.E.F.G.H.I.J.K.< L.M.",
"O 1 < :.X I I I I J i.j.N.w.O.y.y.y.y.y.y.y.y.y.O.P.Q.R.I I I I I I I I I S.T.U.V.W.X.Y.Z.`._.: _ + ",
"O 1 <  +X .+i.j.++w.x.y.@+#+y.y.y.y.y.y.y.y.y.y.y.y.y.$+%+&+*+I I I I I I I =+-+;+>+,+'+)+(._.: _ + ",
"O 1 1 !+++~+x.y.y.y.{+]+^+/+y.y.y.y.y.y.y.y.y.y.y.y.y.y.y.(+_+:+<+H I I I I I I J I [+}+|+1+2+: _ + ",
"O 1 b 3+4+4+5+5+5+{+6+7+8+y.y.y.y.y.y.y.y.y.y.y.y.y.y.y.y.y.y.@+9+w.0+i.J I I I I I I a+b+c+d+e+}.+ ",
"O 1 b f+g+h+i+j+k+l+m+n+4+y.y.y.y.y.y.y.y.y.y.y.y.y.y.y.y.{+o+p+q+{+y.x.r+j.*+I I I I I s+t+u+v+w+x+",
"y+z+A+B+C+D+E+F+c.G+H+I+y.y.y.y.y.y.y.y.y.y.y.y.y.y.y.y.y.4+J+K+L+{+y.y.y.(+M+N+++:+Q.&+O+P+Q+R+S+T+",
"U+V+W+X+Y+Z+`+ @.@+@@@y.y.y.y.y.y.y.y.y.y.y.y.y.y.y.y.y.y.y.@+#@$@y.y.y.y.y.y.y.y.y.y.y.I+%@&@*@=@-@",
";@>@,@'@)@)@!@!@~@{@4+y.y.y.y.4+y.y.y.y.y.y.y.y.y.y.y.y.y.y.y.{+y.y.y.y.y.y.y.y.y.y.y.y.y.]@^@: /@(@",
"_@:@<@L+y.y.y.[@}@|@{+y.y.y.@+1@2@y.y.y.y.y.y.y.y.y.y.y.y.y.y.y.y.y.y.y.y.y.y.y.y.y.y.y.y.3@4@: 5@M.",
"6@< b 3+y.y.{+7@8@9@y.y.y.y.2@0@#@{+y.y.y.y.y.y.y.y.y.y.y.y.y.y.y.y.y.y.y.y.y.y.y.y.y.y.y.3@4@: _ + ",
"O 1 1 3+y.y.4+a@b@c@y.y.y.y.y.@+y.y.y.y.y.y.y.y.y.y.y.y.y.y.y.y.y.y.y.y.y.y.y.y.y.y.y.y.y.3@4@: _ + ",
"O 1 1 3+y.y.5+d@e@f@y.y.y.y.y.y.y.y.y.y.y.y.y.y.y.y.y.y.y.y.y.y.y.y.y.y.y.y.y.y.y.y.y.y.y.3@4@: _ + ",
"O 1 1 3+y.{+g@h@i@5+y.y.y.y.y.y.y.y.y.y.y.y.y.y.y.y.y.y.y.y.y.y.y.y.y.y.y.y.y.2@@+y.y.y.y.3@4@: _ + ",
"O 1 1 3+{+j@k@l@m@n@{+y.y.y.y.y.y.y.y.y.y.y.y.y.y.y.y.y.y.y.y.y.y.y.y.y.y.4+o@p@q@4+y.y.y.3@4@: _ + ",
"O 1 b r@o+s@t@u@v@w@x@y@z@A@$@y.y.y.y.y.y.y.y.y.y.y.y.y.y.y.y.y.y.y.y.y.y.4+B@C@D@4+y.y.y.3@4@: _ + ",
"O 1 ' E@F@G@H@I@J@K@L@M@N@O@P@Q@R@$@y.y.y.y.y.y.y.y.y.y.y.y.y.y.y.y.y.y.y.y.S@T@@+y.y.y.y.3@4@: _ + ",
"U@V@W@X@Y@Z@`@N@N@N@ #.#+#N@N@N@O@P@Q@@###y.y.y.y.y.y.y.y.y.y.y.y.y.y.y.y.y.y.y.y.y.y.y.y.3@4@: _ + ",
"$#%#&#*#=#`@N@N@N@N@N@N@N@N@N@N@N@N@N@O@P@-#y@##S@{+4+y.y.y.y.y.y.y.y.y.y.y.y.y.y.y.y.y.{+;#4@: _ + ",
">#,#'#)#O@N@N@N@N@N@N@N@N@N@N@N@N@N@N@N@N@N@N@!#-#~#{#]@{+y.y.y.y.y.y.y.y.y.y.y.y.y.S@g@$@]#4@: _ + ",
"^#/#1 (#_#N@N@N@N@N@N@N@N@N@N@N@N@N@N@N@N@N@N@N@N@:#3 <#y@##@+y.y.y.y.y.g@$@[#A@}#|#1#2#P@3#4#: _ + ",
"O 1 b 5#_#N@N@N@N@N@N@N@N@N@N@N@N@N@N@N@N@N@N@N@N@6#7#6#O@8#9#}#A@0#a#1#2#P@b#O@N@N@N@N@N@c#4#: _ + ",
"O 1 b 5#_#N@N@N@N@N@N@N@O@N@N@N@N@N@N@N@N@N@N@N@N@N@d#N@N@N@N@N@O@N@N@N@N@N@N@N@N@N@N@N@N@c#4#: _ + ",
"O 1 b (#_#N@N@N@N@N@N@e#f#g#N@N@N@N@N@N@N@N@N@N@N@N@N@N@N@N@N@N@N@N@N@N@N@N@N@h#e#N@N@N@N@c#4#: _ + ",
"O 1 : i#N@N@N@N@N@N@N@c#5@j#e#N@N@N@N@N@N@N@N@N@N@N@N@N@N@N@N@N@N@N@N@N@N@N@k#5@l#O@N@N@N@m#n#: _ + ",
"O 1 : o#c#N@N@N@N@N@N@N@p#q#N@N@N@N@N@N@N@N@N@N@N@N@N@N@N@N@N@N@N@N@N@N@N@N@r#s#t#N@N@N@O@u#e+: U + ",
"D ! : p v#O@N@N@N@N@N@N@N@N@N@N@N@N@N@N@N@N@N@N@N@N@N@N@N@w#w#N@N@N@N@N@N@N@N@N@N@N@N@N@c#x#: : y#; ",
"z#A#: : B#p#O@N@N@N@N@N@N@N@N@N@N@N@N@N@N@N@N@N@N@N@N@N@N@w#s#t#O@N@N@N@N@N@N@N@N@N@N@d#C#: : : 2   ",
"d 2.: : : B#v#c#O@_#_#_#_#_#_#_#_#_#_#_#_#_#_#_#_#_#_#_#_#b#D#E#q#_#_#_#_#_#_#_#_#N@r#F#p : : ~ %   ",
"  G#}.: : : p o#C#H#H#H#H#H#H#H#H#H#H#H#H#H#H#H#H#H#H#H#H#H#C#I#{ H#H#H#H#H#H#H#H#J#K#: : : : , d   ",
"    ( }.: : : : b b b b b b b b b b b b b b b b b b b b b b : $ L#' : b b b b b b : : : : 1 2.M#    ",
"      N#2.A#! 1 1 1 1 1 1 1 1 1 1 1 1 1 1 1 1 1 1 1 1 1 1 1 b O#P#c : 1 1 1 1 1 1 1 1 ) U 3.3       ",
"        d z#D O O O O O O O O O O O O O O O O O O O O O O O O Q#R#S#3.O O O O O O O O % x+          "};
