/* XPM */
static char * pomme_xpm[] = {
"50 50 4 1",
" 	c #000000",
".	c #DE9751",
"+	c #FF0000",
"@	c #DEDEFF",
"                                                  ",
"                                                  ",
"                                                  ",
"                                                  ",
"                                                  ",
"                                                  ",
"                                                  ",
"                                                  ",
"                                                  ",
"                                                  ",
"                                                  ",
"                                                  ",
"                                                  ",
"                                                  ",
"                                                  ",
"                                                  ",
"                                                  ",
"                                                  ",
"                                                  ",
"                         .                        ",
"                    +++ . +++                     ",
"                   +++++.+++++                    ",
"                   ++++++++++++                   ",
"                   ++++++++++++                   ",
"                   ++++++++++++                   ",
"                   +++++++++@++                   ",
"                   +++++++++@++                   ",
"                    +++++++@++                    ",
"                    ++++++++++                    ",
"                     ++++++++                     ",
"                      ++ +++                      ",
"                                                  ",
"                                                  ",
"                                                  ",
"                                                  ",
"                                                  ",
"                                                  ",
"                                                  ",
"                                                  ",
"                                                  ",
"                                                  ",
"                                                  ",
"                                                  ",
"                                                  ",
"                                                  ",
"                                                  ",
"                                                  ",
"                                                  ",
"                                                  ",
"                                                  "};
