/* XPM */
static char * upackman2_xpm[] = {
"50 50 2 1",
" 	c #000000",
".	c #FFFF00",
"                                                  ",
"                                                  ",
"                                                  ",
"                                                  ",
"                                                  ",
"                                                  ",
"                                                  ",
"                                                  ",
"                                                  ",
"                                                  ",
"                                                  ",
"                                                  ",
"                                                  ",
"                                                  ",
"                                                  ",
"                                                  ",
"           ..                        ..           ",
"          ....                      ....          ",
"          .....                    .....          ",
"          ......                  ......          ",
"         ........                ........         ",
"         .........              .........         ",
"         ..........            ..........         ",
"         ...........          ...........         ",
"         ............        ............         ",
"         .............      .............         ",
"         ..............    ..............         ",
"         ...............  ...............         ",
"          ..............................          ",
"          ..............................          ",
"          ..............................          ",
"           ............................           ",
"           ............................           ",
"            ..........................            ",
"             ........................             ",
"              ......................              ",
"               ....................               ",
"                ..................                ",
"                  ..............                  ",
"                     ........                     ",
"                                                  ",
"                                                  ",
"                                                  ",
"                                                  ",
"                                                  ",
"                                                  ",
"                                                  ",
"                                                  ",
"                                                  ",
"                                                  "};
