/* XPM */
static char * upackman_xpm[] = {
"50 50 2 1",
" 	c #000000",
".	c #FFFF00",
"                                                  ",
"                                                  ",
"                                                  ",
"                                                  ",
"                                                  ",
"                                                  ",
"                                                  ",
"                                                  ",
"                                                  ",
"                                                  ",
"                ..              ..                ",
"               ...              ...               ",
"              .....            .....              ",
"             ......            ......             ",
"            ........          ........            ",
"           .........          .........           ",
"           ..........        ..........           ",
"          ...........        ...........          ",
"          ...........        ...........          ",
"          ............      ............          ",
"         .............      .............         ",
"         .............      .............         ",
"         ..............    ..............         ",
"         ..............    ..............         ",
"         ...............  ...............         ",
"         ...............  ...............         ",
"         ................................         ",
"         ................................         ",
"          ..............................          ",
"          ..............................          ",
"          ..............................          ",
"           ............................           ",
"           ............................           ",
"            ..........................            ",
"             ........................             ",
"              ......................              ",
"               ....................               ",
"                ..................                ",
"                  ..............                  ",
"                     ........                     ",
"                                                  ",
"                                                  ",
"                                                  ",
"                                                  ",
"                                                  ",
"                                                  ",
"                                                  ",
"                                                  ",
"                                                  ",
"                                                  "};
