/* XPM */
static char * win1_xpm[] = {
"50 50 103 2",
"  	c #000000",
". 	c #BEBEBE",
"+ 	c #FFFFFF",
"@ 	c #B9B9B9",
"# 	c #CCCCCC",
"$ 	c #A7A7A7",
"% 	c #161616",
"& 	c #9B9B9B",
"* 	c #D7D7D7",
"= 	c #F2F2F2",
"- 	c #FCFCFC",
"; 	c #FBFBFB",
"> 	c #EFEFEF",
", 	c #D1D1D1",
"' 	c #878787",
") 	c #7D7D7D",
"! 	c #EDEDED",
"~ 	c #C8C8C8",
"{ 	c #B1B1B1",
"] 	c #5C5C5C",
"^ 	c #FDFDFD",
"/ 	c #0D0D0D",
"( 	c #1C1C1C",
"_ 	c #F6F6F6",
": 	c #FAFAFA",
"< 	c #3D3D3D",
"[ 	c #555555",
"} 	c #E3E3E3",
"| 	c #D0D0D0",
"1 	c #2A2A2A",
"2 	c #D6D6D6",
"3 	c #8A8A8A",
"4 	c #CFCFCF",
"5 	c #262626",
"6 	c #E7E7E7",
"7 	c #CDCDCD",
"8 	c #ECECEC",
"9 	c #898989",
"0 	c #868686",
"a 	c #ABABAB",
"b 	c #B0B0B0",
"c 	c #515151",
"d 	c #5F5F5F",
"e 	c #C7C7C7",
"f 	c #EBEBEB",
"g 	c #454545",
"h 	c #F3F3F3",
"i 	c #EEEEEE",
"j 	c #E1E1E1",
"k 	c #CACACA",
"l 	c #E6E6E6",
"m 	c #C3C3C3",
"n 	c #EAEAEA",
"o 	c #ACACAC",
"p 	c #848484",
"q 	c #B7B7B7",
"r 	c #F8F8F8",
"s 	c #929292",
"t 	c #BBBBBB",
"u 	c #DEDEDE",
"v 	c #E9E9E9",
"w 	c #F9F9F9",
"x 	c #C5C5C5",
"y 	c #FEFEFE",
"z 	c #5A5A5A",
"A 	c #7C7C7C",
"B 	c #AAAAAA",
"C 	c #757575",
"D 	c #F1F1F1",
"E 	c #DCDCDC",
"F 	c #DDDDDD",
"G 	c #6D6D6D",
"H 	c #E2E2E2",
"I 	c #C9C9C9",
"J 	c #707070",
"K 	c #535353",
"L 	c #AFAFAF",
"M 	c #4F4F4F",
"N 	c #5D5D5D",
"O 	c #383838",
"P 	c #C0C0C0",
"Q 	c #494949",
"R 	c #737373",
"S 	c #989898",
"T 	c #C6C6C6",
"U 	c #E8E8E8",
"V 	c #767676",
"W 	c #585858",
"X 	c #E5E5E5",
"Y 	c #D2D2D2",
"Z 	c #2E2E2E",
"` 	c #7A7A7A",
" .	c #D5D5D5",
"..	c #9E9E9E",
"+.	c #D8D8D8",
"@.	c #797979",
"#.	c #DADADA",
"$.	c #323232",
"%.	c #7F7F7F",
"&.	c #ADADAD",
"*.	c #474747",
"=.	c #DBDBDB",
"-.	c #F0F0F0",
"                                                                                                    ",
"                                                                                                    ",
"                                                                                                    ",
"                                                                                                    ",
"                                                                                                    ",
"                                                                                                    ",
"                                                                                                    ",
"                                                                                                    ",
"                                                                                                    ",
"                                                                                                    ",
"                                                                                                    ",
"                                                                                                    ",
"                                                                                                    ",
"                                                                                                    ",
"                                                                                                    ",
"                                                                                                    ",
"                                                                                                    ",
"                                                                                                    ",
"  . + + + @           # + + + $       % & * = - ; > , '           ) + + + !         ~ + + + {       ",
"  ] ^ + + > /       ( _ + + : <     [ } + + + + + + + + | 1       ) + + + !         ~ + + + {       ",
"    2 + + + 3       3 + + + 4     5 6 + + + + + + + + + + 7       ) + + + 8         ~ + + + {       ",
"    9 + + + ,       ~ + + + 0     a + + + ^ b c d e + + + + )     ) + + + f         ~ + + + {       ",
"      f + + ; g   / h + + i       j + + + k         l + + + m     ) + + + n         ~ + + + {       ",
"      o + + + a   p + + + q       r + + + s         t + + + u     ) + + + v         ~ + + + {       ",
"      < w + + l   x + + y z       + + + + A         B + + + l     ) + + + n         7 + + + {       ",
"        e + + + C D + + E         r + + + s         t + + + u     A + + + !         F + + + {       ",
"        G + + + H + + + &         H + + + I         l + + + m     J + + + w %     K ; + + + {       ",
"          u + + + + + _ 1         a + + + ^ L M N x + + + + )     O y + + + P Q R } + + + + {       ",
"          S + + + + + T           1 U + + + + + + + + + + 4         u + + + + + + + + + + + {       ",
"          ( D + + + + V             W X + + + + + + + + Y Z         ` ; + + + + + v  .+ + + {       ",
"            q + + + 6                 ( ..+.h - ; > , 3               @.#.r - 8 @ $.~ + + + {       ",
"            %.+ + + &.                                                                              ",
"        / d F + + ; *.                                                                              ",
"      =.+ + + + + e                                                                                 ",
"      =.+ + + + > *.                                                                                ",
"      =.+ y -.k K                                                                                   ",
"                                                                                                    ",
"                                                                                                    ",
"                                                                                                    ",
"                                                                                                    ",
"                                                                                                    ",
"                                                                                                    ",
"                                                                                                    ",
"                                                                                                    ",
"                                                                                                    ",
"                                                                                                    ",
"                                                                                                    ",
"                                                                                                    ",
"                                                                                                    ",
"                                                                                                    "};
