/* XPM */
static char * win2_xpm[] = {
"50 50 79 1",
" 	c #000000",
".	c #474747",
"+	c #FFFFFF",
"@	c #FAFAFA",
"#	c #4B4B4B",
"$	c #FEFEFE",
"%	c #ECECEC",
"&	c #727272",
"*	c #AFAFAF",
"=	c #C8C8C8",
"-	c #9A9A9A",
";	c #909090",
">	c #DDDDDD",
",	c #F8F8F8",
"'	c #FBFBFB",
")	c #EAEAEA",
"!	c #ADADAD",
"~	c #E8E8E8",
"{	c #4D4D4D",
"]	c #AAAAAA",
"^	c #D5D5D5",
"/	c #E9E9E9",
"(	c #BFBFBF",
"_	c #C1C1C1",
":	c #C4C4C4",
"<	c #969696",
"[	c #D2D2D2",
"}	c #F4F4F4",
"|	c #454545",
"1	c #606060",
"2	c #949494",
"3	c #C2C2C2",
"4	c #F1F1F1",
"5	c #696969",
"6	c #C5C5C5",
"7	c #F9F9F9",
"8	c #9E9E9E",
"9	c #8F8F8F",
"0	c #424242",
"a	c #E5E5E5",
"b	c #5F5F5F",
"c	c #E6E6E6",
"d	c #A6A6A6",
"e	c #B0B0B0",
"f	c #CCCCCC",
"g	c #FDFDFD",
"h	c #353535",
"i	c #A0A0A0",
"j	c #9B9B9B",
"k	c #CECECE",
"l	c #E4E4E4",
"m	c #565656",
"n	c #BBBBBB",
"o	c #888888",
"p	c #CACACA",
"q	c #E7E7E7",
"r	c #EEEEEE",
"s	c #FCFCFC",
"t	c #0D0D0D",
"u	c #B7B7B7",
"v	c #B9B9B9",
"w	c #EBEBEB",
"x	c #9F9F9F",
"y	c #B6B6B6",
"z	c #3B3B3B",
"A	c #929292",
"B	c #E3E3E3",
"C	c #535353",
"D	c #3D3D3D",
"E	c #BEBEBE",
"F	c #5C5C5C",
"G	c #EDEDED",
"H	c #8B8B8B",
"I	c #F0F0F0",
"J	c #CDCDCD",
"K	c #323232",
"L	c #D1D1D1",
"M	c #A3A3A3",
"N	c #8D8D8D",
"                                                  ",
"                                                  ",
"                                                  ",
"                                                  ",
"                                                  ",
"                                                  ",
"                                                  ",
"                                                  ",
"                                                  ",
"                                                  ",
"                                                  ",
"                                                  ",
"                                                  ",
"                                                  ",
"                         .+++@                    ",
"                         .+++@                    ",
"                         .+++@                    ",
"                                                  ",
"   #$++%   &+++*   =+++- .+++@   .+++@ ;>,')!     ",
"    ~+++{  ]+++^   /+++{ .+++@   .+++@(++++++_    ",
"    :+++<  [+++}  |$++/  .+++@   .+++++++++++$1   ",
"    2+++3  4++++5 2+++6  .+++@   .++++78|97+++]   ",
"    0$++a b++c++d _+++<  .+++@   .++++e   f+++_   ",
"     c++ghi++j$+k l++$|  .+++@   .++++m   n+++=   ",
"     _+++op+$0q+rhs++q   .+++@   .+++gt   u+++=   ",
"     ;+++vw+/ 6++x+++3   .+++@   .+++@    y+++=   ",
"     zg++c++= -++)+++A   .+++@   .+++@    y+++=   ",
"      B+++++8 C+++++gD   .+++@   .+++@    y+++=   ",
"      E+++++F  G++++l    .+++@   .+++@    y+++=   ",
"      H++++I   J++++(    .+++@   .+++@    y+++=   ",
"      Ks+++L   M++++N    .+++@   .+++@    y+++=   ",
"                                                  ",
"                                                  ",
"                                                  ",
"                                                  ",
"                                                  ",
"                                                  ",
"                                                  ",
"                                                  ",
"                                                  ",
"                                                  ",
"                                                  ",
"                                                  ",
"                                                  ",
"                                                  ",
"                                                  ",
"                                                  ",
"                                                  ",
"                                                  ",
"                                                  "};
