/* XPM */
static char * !_xpm[] = {
"50 50 256 2",
"  	c #000000",
". 	c #350606",
"+ 	c #5E1313",
"@ 	c #571010",
"# 	c #561010",
"$ 	c #5B1212",
"% 	c #510E0E",
"& 	c #2C0505",
"* 	c #370707",
"= 	c #270404",
"- 	c #020000",
"; 	c #230303",
"> 	c #300505",
", 	c #2E0505",
"' 	c #200303",
") 	c #470B0B",
"! 	c #581111",
"~ 	c #601313",
"{ 	c #380707",
"] 	c #010000",
"^ 	c #0E0000",
"/ 	c #0D0000",
"( 	c #1F0303",
"_ 	c #3C0808",
": 	c #0F0101",
"< 	c #D20000",
"[ 	c #FF0000",
"} 	c #BC0000",
"| 	c #3E0909",
"1 	c #4B0D0D",
"2 	c #310606",
"3 	c #420A0A",
"4 	c #400909",
"5 	c #360707",
"6 	c #340606",
"7 	c #320606",
"8 	c #110101",
"9 	c #500E0E",
"0 	c #4A0D0D",
"a 	c #490C0C",
"b 	c #4A0C0C",
"c 	c #2A0404",
"d 	c #130101",
"e 	c #040000",
"f 	c #3F0909",
"g 	c #4B0C0C",
"h 	c #4F0E0E",
"i 	c #4C0D0D",
"j 	c #350707",
"k 	c #0E0101",
"l 	c #0B0101",
"m 	c #4D0D0D",
"n 	c #2B0404",
"o 	c #070000",
"p 	c #2D0505",
"q 	c #030000",
"r 	c #240404",
"s 	c #4E0D0D",
"t 	c #400A0A",
"u 	c #3D0909",
"v 	c #410A0A",
"w 	c #3A0808",
"x 	c #360606",
"y 	c #460B0B",
"z 	c #551010",
"A 	c #3D0808",
"B 	c #1B0202",
"C 	c #160101",
"D 	c #480C0C",
"E 	c #621414",
"F 	c #5B1111",
"G 	c #060000",
"H 	c #280404",
"I 	c #080000",
"J 	c #1E0202",
"K 	c #240303",
"L 	c #500F0F",
"M 	c #210303",
"N 	c #290404",
"O 	c #1F0202",
"P 	c #530F0F",
"Q 	c #520E0E",
"R 	c #611313",
"S 	c #5F1212",
"T 	c #2D0404",
"U 	c #520F0F",
"V 	c #150202",
"W 	c #330606",
"X 	c #5A1111",
"Y 	c #490D0D",
"Z 	c #290505",
"` 	c #220303",
" .	c #300606",
"..	c #0A0000",
"+.	c #450B0B",
"@.	c #450A0A",
"#.	c #591111",
"$.	c #540F0F",
"%.	c #2C0404",
"&.	c #170202",
"*.	c #FE0101",
"=.	c #BA0202",
"-.	c #440A0A",
";.	c #5E1212",
">.	c #410909",
",.	c #5C1212",
"'.	c #5C1111",
").	c #140101",
"!.	c #0D0101",
"~.	c #FE0000",
"{.	c #B80505",
"].	c #220404",
"^.	c #260404",
"/.	c #651515",
"(.	c #4E0E0E",
"_.	c #FD0202",
":.	c #F90404",
"<.	c #390808",
"[.	c #3E0808",
"}.	c #2F0505",
"|.	c #320505",
"1.	c #160202",
"2.	c #FD0000",
"3.	c #EE0909",
"4.	c #E10E0E",
"5.	c #F40606",
"6.	c #B80404",
"7.	c #621313",
"8.	c #330707",
"9.	c #100101",
"0.	c #050000",
"a.	c #260303",
"b.	c #090000",
"c.	c #F10808",
"d.	c #DD1010",
"e.	c #E30E0E",
"f.	c #AD0E0E",
"g.	c #5D1212",
"h.	c #150101",
"i.	c #EF0808",
"j.	c #DF0F0F",
"k.	c #280303",
"l.	c #2F0606",
"m.	c #190202",
"n.	c #1A0202",
"o.	c #180202",
"p.	c #100000",
"q.	c #190101",
"r.	c #EA0B0B",
"s.	c #AB1010",
"t.	c #200202",
"u.	c #440B0B",
"v.	c #571111",
"w.	c #3B0808",
"x.	c #FB0202",
"y.	c #5F1313",
"z.	c #6C1616",
"A.	c #D00000",
"B.	c #B80202",
"C.	c #120202",
"D.	c #641414",
"E.	c #6B1616",
"F.	c #541010",
"G.	c #430A0A",
"H.	c #470C0C",
"I.	c #581010",
"J.	c #C80000",
"K.	c #B00000",
"L.	c #6A1616",
"M.	c #BF0000",
"N.	c #A50000",
"O.	c #631414",
"P.	c #1D0202",
"Q.	c #140202",
"R.	c #B50000",
"S.	c #9A0000",
"T.	c #5D1313",
"U.	c #AA0000",
"V.	c #8C0000",
"W.	c #390707",
"X.	c #130000",
"Y.	c #2B0505",
"Z.	c #9E0000",
"`.	c #F50606",
" +	c #800A0A",
".+	c #0C0101",
"++	c #4F0D0D",
"@+	c #430909",
"#+	c #250303",
"$+	c #910000",
"%+	c #FA0202",
"&+	c #D41313",
"*+	c #7D1616",
"=+	c #691616",
"-+	c #681515",
";+	c #820404",
">+	c #ED0909",
",+	c #EB0A0A",
"'+	c #DE1010",
")+	c #CD1515",
"!+	c #751515",
"~+	c #671515",
"{+	c #780C0C",
"]+	c #D71111",
"^+	c #D91111",
"/+	c #DC0F0F",
"(+	c #D51212",
"_+	c #671313",
":+	c #661515",
"<+	c #4D0E0E",
"[+	c #690B0B",
"}+	c #DB1010",
"|+	c #D21313",
"1+	c #D61212",
"2+	c #D71212",
"3+	c #6C1717",
"4+	c #0C0000",
"5+	c #4F0707",
"6+	c #E50D0D",
"7+	c #DA1010",
"8+	c #D01414",
"9+	c #D41212",
"0+	c #D61010",
"a+	c #3C0909",
"b+	c #380808",
"c+	c #510F0F",
"d+	c #120101",
"e+	c #591010",
"f+	c #210202",
"g+	c #1C0202",
"h+	c #490B0B",
"i+	c #3F0808",
"j+	c #130202",
"k+	c #0F0000",
"l+	c #170101",
"m+	c #F90202",
"n+	c #E80B0B",
"o+	c #B00C0C",
"p+	c #550F0F",
"q+	c #E90B0B",
"r+	c #D31313",
"s+	c #DC1010",
"t+	c #EC0A0A",
"u+	c #B20B0B",
"v+	c #0A0101",
"w+	c #F70404",
"x+	c #DA1111",
"y+	c #B50808",
"z+	c #310505",
"A+	c #6A1717",
"B+	c #D81111",
"C+	c #D51313",
"D+	c #460C0C",
"E+	c #BB0101",
"F+	c #F00808",
"G+	c #641515",
"                                            . + @ # $ % & * = -         ; > , '                     ",
"                                        -   - ) ! $ ~ {   - -   ] ^ / ( _ * . > :                   ",
"                        < [ [ [ [ [ }     -     | 1 {           2 3 4 4 5 6 5 7 8                   ",
"      ]                 < [ [ [ [ [ }       -           - -   , 9 0 a b * * * c                     ",
"8 d e   ]               < [ [ [ [ [ }                       ] f b g h i j 7 , k   ]                 ",
"; c ; l   ]             < [ [ [ [ [ }                 -       2 1 # @ m j * n o                     ",
"> & p (                 < [ [ [ [ [ }           ]   -   q r p 5 s 9 h t u v > 8                     ",
"w * > ; ]               < [ [ [ [ [ }       ] ]     d 8 x y y 1 z ! % A 5 p ' -                     ",
"a f > B   ]             < [ [ [ [ [ }   -       C j | , y v D 9 ! E F ) = G     ]                   ",
"A * H I                 < [ [ [ [ [ } -     J B K u A c ) 1 9 % L h b * M l e                       ",
"N ; :   ]               < [ [ [ [ [ }   O a P 5 C ; M 8 * Q R S y T N c > , J   ]                   ",
"      ]                 < [ [ [ [ [ }   6 U Q * e   I V W 1 X + Y Z / ` w 3 N                       ",
"-   ]                   < [ [ [ [ [ }   B 7  .B ] ..2 +.@.y h #.$.) %.&., 5 `                       ",
"                        < [ [ [ [ *.=.k           O -.;.X 1 >.P ,.'.w - ).B !.  ]                   ",
"                        < [ [ [ [ ~.{._ ; &.O ].^._ % /.S P y (.Q L 2         ]                 ]   ",
"            ]   ]       < _.:._.[ [ } H 4 <.[.$.U 9 $.~ # +.W }.|.p 1.  -                     ]     ",
"      ]         ]       < 2.3.4.5.:.6.= n | t @ 7.~ ,.+ h 8.9.: q     -   ]             -       0.a.",
"    q   e b.o q   ]     < [ [ c.d.e.f.g.f 7 t U z y y v . B     h.& W K G   ]         -     J  .. j ",
"      o c p 5 . ).  ]   < [ [ [ i.j.f.#.# k._ | l.m.n.o.G ]   ; D a y a * o             ..x 1 i % % ",
"e p./ q.w 3 3 t c       < [ [ [ [ r.s.g.# O 9.9.    ]   t.| ) s y 3 3 3 a N   ]         H u.U g.v.7.",
"w.f b 1 4 3 f u N   ]   < [ [ [ [ x.f.U w e       q   W y.y.;.z.$ 3 3 f y 7             %.i X ,.#.,.",
"h ! ! # +.* _ 2 8       A.[ [ [ [ [ B.n.    -       C.$.F ! @ D.E.F.G.4 H.n         ]   O @ X @ $.~ ",
"i I.P U w l h.!.  ]     J.[ [ [ [ [ K.    -         O $ U # I.I.L.$ y +.3 9.  ] b.]   ]   | y.# X P ",
"6 1 % u.B       ] ]     M.[ [ [ [ [ N.  ]           / z X X #.# O.P u.v `   m.n N P.e - d a.D Q G.m.",
"  Q.O 1.  -             R.[ [ [ [ [ S.    l K c &.- ] %.T.$ ,.$ ! = ( d p.9.6 _ w p C b.c w.* '     ",
"        - -             U.[ [ [ [ [ V.G ).* D a H.=     4 z X @ 2   r A w { G.4 i U W.X.Y.3 w ;   - ",
"                      - Z.[ [ [ x.`. +a v y y f y u..+    = , P.  o.) 9 h b ++@+P E # l.&.N #+9.  ] ",
"                    -   $+[ 2.%+i.&+*+=+-+U G.v G.u.l -           6 I.# g.~ z y # /.$ 7   e q   ]   ",
"                      0.;+i.>+,+'+)+!+7.=+~+0 u.a 5               u y.# @ T.# a D # 4 n.  -   ]     ",
"            ]         r {+]+^+/+^+(+_+O./.:+u.f w.'   ]           6 ~ X #.! <+}.5 c I   -           ",
"          ]   q .+l   B [+}+|+1+2+]+R D.3+# ^.` J ]               4+9 y.# ,..         q             ",
"    -       G H w.G.* ^.5+6+7+8+9+0+! F X a+G -     ]     ]     q   m.v 0 { 0.    ] ]               ",
"  -   - V Q.m._ (.,.'.m b+3 c+g.:+D 5 j > e   ]       ] ]   -     q           -                     ",
"    4+<.9 P H.% @ R ~ E c+y b $.# W.4+      q     -     - ; A <.e   q     - -                       ",
"    ^.% I.g.F z ,./.L.F U _ 3 3 W I   -       - -   e   8 G.-.+.3 d+  ]           ]       ]         ",
"    c + $.X z 9 P :+7.e+9 f+B B 0.  q     ]       7 Q (.f+y v G.f 4 o         ] ]     -     ]       ",
"    1.(.,.@ ~ f g+h+! Q u I       ]   I q   ]   B #.X $ #.y D +.u.4 b.    -   ]   n.2 6 }.h.  ]     ",
"  -   = 1 9 y 1.  p.H N ..  -   ] - h.6 *     ] %.,.@ #.$.! i++.| ^.  - -     e d _ W.* W.j !.      ",
"  - -   e j+    -         -   k+G   W a v #+    p.# + X X # l+g+).    -   ^.u.) a b W.5 { w.O       ",
"      -       -         < [ m+n+6+x.o+G.3 W.b.-   n Q $ P 5 l m.g+J ( J %.p+s 1 % y.H.w.v | C       ",
"                        < [ q+r+s+t+u+4 H.j ]   -   j+c O v+H * _ <.w v 9 D.# g i # m y | #+        ",
"                        < w+r+x+x+4.y+G.A ).  ]     Q.^.c z+3 9 m % 1 3 i A+:+z @ P K d+v+  ] ]     ",
"                      - < i.B+d.C+6+6.t M     ]   C.<.1 % h $.;.E ~ #.D+u.c+~+D.P .         ]       ",
"                        < w+e.x+4.x.E+%.]   ]     P.+.$ ! + y.#.y.=+/.9 u.3 i f Q.  - -             ",
"                      - < x.F+s+`.[ } -   ]       .., v h z g.#.;.:+z.X G.u y W     -               ",
"                        < [ m+i.[ [ }   ]       -   - C.w.#.@ ! g.G+E.;.+.v H.B   ]                 ",
"                        < [ [ [ [ [ }             -     2 $ ,.@ X $ L.#.) 3 (   ]                   ",
"                            -   -                       %.$.X #.X #.D.y 6 P.  ] ]                   ",
"                                                        k++.y.z g.I.p 8 I   ] ]                     ",
"                                                      -   f+y h ) c   - - ]                         "};
