/* XPM */
static char * e_xpm[] = {
"50 50 326 2",
"  	c #000000",
". 	c #010000",
"+ 	c #0F0101",
"@ 	c #330606",
"# 	c #3D0808",
"$ 	c #500E0E",
"% 	c #530F0F",
"& 	c #4A0C0C",
"* 	c #460B0B",
"= 	c #380707",
"- 	c #130101",
"; 	c #020000",
"> 	c #030000",
", 	c #050000",
"' 	c #040000",
") 	c #150202",
"! 	c #350707",
"~ 	c #3F0909",
"{ 	c #450B0B",
"] 	c #410A0A",
"^ 	c #300505",
"/ 	c #160101",
"( 	c #390707",
"_ 	c #420A0A",
": 	c #470C0C",
"< 	c #4F0E0E",
"[ 	c #490C0C",
"} 	c #3C0808",
"| 	c #250303",
"1 	c #110101",
"2 	c #0B0101",
"3 	c #200303",
"4 	c #210303",
"5 	c #170202",
"6 	c #070000",
"7 	c #120101",
"8 	c #230303",
"9 	c #310505",
"0 	c #3B0707",
"a 	c #430A0A",
"b 	c #080000",
"c 	c #090000",
"d 	c #2F0505",
"e 	c #3D0909",
"f 	c #3E0909",
"g 	c #320505",
"h 	c #1D0202",
"i 	c #0D0000",
"j 	c #1A0202",
"k 	c #290404",
"l 	c #1C0202",
"m 	c #310606",
"n 	c #370707",
"o 	c #340606",
"p 	c #2B0404",
"q 	c #150101",
"r 	c #1E0202",
"s 	c #180202",
"t 	c #280404",
"u 	c #2D0505",
"v 	c #240303",
"w 	c #0A0101",
"x 	c #140101",
"y 	c #3B0808",
"z 	c #480C0C",
"A 	c #440B0B",
"B 	c #1B0202",
"C 	c #3A0808",
"D 	c #270404",
"E 	c #100101",
"F 	c #060000",
"G 	c #4B0D0D",
"H 	c #500F0F",
"I 	c #190101",
"J 	c #220303",
"K 	c #0C0101",
"L 	c #380808",
"M 	c #0A0000",
"N 	c #200202",
"O 	c #1F0303",
"P 	c #260303",
"Q 	c #0B0000",
"R 	c #390808",
"S 	c #320606",
"T 	c #800707",
"U 	c #AF0808",
"V 	c #CD0808",
"W 	c #E20505",
"X 	c #F40101",
"Y 	c #FC0000",
"Z 	c #FD0000",
"` 	c #F80000",
" .	c #EB0000",
"..	c #D70000",
"+.	c #B40000",
"@.	c #6D0000",
"#.	c #2F0606",
"$.	c #2A0404",
"%.	c #470B0B",
"&.	c #4E0D0D",
"*.	c #350000",
"=.	c #AF0101",
"-.	c #E80404",
";.	c #EE0909",
">.	c #EC0A0A",
",.	c #ED0909",
"'.	c #F20707",
").	c #FB0202",
"!.	c #FF0000",
"~.	c #FE0000",
"{.	c #FE0101",
"].	c #E30000",
"^.	c #930505",
"/.	c #410909",
"(.	c #510F0F",
"_.	c #591111",
":.	c #400909",
"<.	c #940000",
"[.	c #F10000",
"}.	c #FA0303",
"|.	c #F00808",
"1.	c #F60505",
"2.	c #FD0101",
"3.	c #F70404",
"4.	c #D00707",
"5.	c #600909",
"6.	c #430B0B",
"7.	c #440A0A",
"8.	c #520F0F",
"9.	c #551010",
"0.	c #160000",
"a.	c #C20000",
"b.	c #FC0202",
"c.	c #F30707",
"d.	c #EF0808",
"e.	c #E00A0A",
"f.	c #750909",
"g.	c #2E0505",
"h.	c #4A0D0D",
"i.	c #D00000",
"j.	c #F50505",
"k.	c #F40606",
"l.	c #F90303",
"m.	c #FC0101",
"n.	c #F80404",
"o.	c #F30606",
"p.	c #E50909",
"q.	c #650606",
"r.	c #240404",
"s.	c #360707",
"t.	c #C30000",
"u.	c #E40000",
"v.	c #B60000",
"w.	c #860000",
"x.	c #5D0000",
"y.	c #3C0000",
"z.	c #370101",
"A.	c #610101",
"B.	c #8E0101",
"C.	c #C00202",
"D.	c #EC0505",
"E.	c #EC0909",
"F.	c #EB0A0A",
"G.	c #CF0D0D",
"H.	c #4D0C0C",
"I.	c #2C0505",
"J.	c #980000",
"K.	c #7A0000",
"L.	c #550B0B",
"M.	c #AE0E0E",
"N.	c #DC1010",
"O.	c #E70C0C",
"P.	c #E60D0D",
"Q.	c #DA1111",
"R.	c #A91111",
"S.	c #260404",
"T.	c #190202",
"U.	c #420000",
"V.	c #F40000",
"W.	c #220101",
"X.	c #571010",
"Y.	c #911212",
"Z.	c #DE0F0F",
"`.	c #E90B0B",
" +	c #E40D0D",
".+	c #DE1010",
"++	c #D81111",
"@+	c #D21212",
"#+	c #600D0D",
"$+	c #0C0000",
"%+	c #BB0000",
"&+	c #C80000",
"*+	c #2D0404",
"=+	c #581111",
"-+	c #5C1212",
";+	c #631414",
">+	c #9F1111",
",+	c #E50D0D",
"'+	c #E00F0F",
")+	c #AE0B0B",
"!+	c #320000",
"~+	c #F70000",
"{+	c #EE0000",
"]+	c #2E0000",
"^+	c #540F0F",
"/+	c #5F1313",
"(+	c #560F0F",
"_+	c #D40C0C",
":+	c #E10E0E",
"<+	c #DF0B0B",
"[+	c #A00000",
"}+	c #9D0000",
"|+	c #280303",
"1+	c #3E0808",
"2+	c #9B0909",
"3+	c #6D0808",
"4+	c #210202",
"5+	c #D60000",
"6+	c #270303",
"7+	c #1F0202",
"8+	c #590808",
"9+	c #EA0B0B",
"0+	c #F00707",
"a+	c #A30404",
"b+	c #1A0101",
"c+	c #D90000",
"d+	c #4C0D0D",
"e+	c #D50E0E",
"f+	c #E30D0D",
"g+	c #C50505",
"h+	c #0D0101",
"i+	c #6D0404",
"j+	c #BE0000",
"k+	c #2A0505",
"l+	c #350606",
"m+	c #CE0D0D",
"n+	c #CA0909",
"o+	c #970505",
"p+	c #FB0101",
"q+	c #F10606",
"r+	c #E90A0A",
"s+	c #E80A0A",
"t+	c #EE0808",
"u+	c #F20606",
"v+	c #ED0A0A",
"w+	c #CF0B0B",
"x+	c #AC0303",
"y+	c #EF0909",
"z+	c #DA0909",
"A+	c #BD0101",
"B+	c #FB0303",
"C+	c #E30606",
"D+	c #C50000",
"E+	c #F10707",
"F+	c #FD0202",
"G+	c #E60505",
"H+	c #C70000",
"I+	c #FA0202",
"J+	c #F10808",
"K+	c #E20707",
"L+	c #180101",
"M+	c #4E0E0E",
"N+	c #140202",
"O+	c #340707",
"P+	c #160202",
"Q+	c #B90000",
"R+	c #AE0000",
"S+	c #0E0101",
"T+	c #A30000",
"U+	c #C40000",
"V+	c #800000",
"W+	c #E70000",
"X+	c #170101",
"Y+	c #540101",
"Z+	c #E00000",
"`+	c #B00303",
" @	c #AB0505",
".@	c #E70707",
"+@	c #420404",
"@@	c #5B0A0A",
"#@	c #EA0808",
"$@	c #BA0707",
"%@	c #B90A0A",
"&@	c #9C0303",
"*@	c #5D0B0B",
"=@	c #E90707",
"-@	c #5F0000",
";@	c #950404",
">@	c #520606",
",@	c #9F0101",
"'@	c #BC0000",
")@	c #E20000",
"!@	c #890000",
"~@	c #660000",
"{@	c #450000",
"]@	c #1C0000",
"^@	c #490000",
"/@	c #640101",
"(@	c #7F0909",
"_@	c #9D0B0B",
":@	c #B80B0B",
"<@	c #D10A0A",
"[@	c #EB0909",
"}@	c #2B0505",
"|@	c #AD0000",
"1@	c #750000",
"2@	c #E10000",
"3@	c #ED0101",
"4@	c #B10101",
"5@	c #480101",
"6@	c #8F0303",
"7@	c #CC0A0A",
"8@	c #EA0A0A",
"9@	c #EA0505",
"0@	c #900606",
"a@	c #390606",
"b@	c #9A0A0A",
"c@	c #C10505",
"d@	c #DF0101",
"e@	c #EF0000",
"f@	c #F90000",
"g@	c #F50000",
"h@	c #E10101",
"i@	c #C30404",
"j@	c #A50808",
"k@	c #7C0909",
"                        . .       .             + @ # $ % & * = -   . ;   > , . ; ' ) ! ~ { ] ^ / - ",
"                          .                     - ( _ : < [ } | 1 2 , . - 3 4 5 6 7 8 9 0 a _ ^ / b ",
"                                                c d e e f g h i j k 8 l m n o p q r @ f a { ] d / . ",
"                                              . . s t u v w . ; x p o y * z A n B r ^ C f e n D E   ",
"                                            . ; .   F 2 6 . . . . 1 p _ G H < f I E l J | v r x ,   ",
"b 2 ' . .                         . . > ' > . . .         . . . ; K r L [ $ $ } 7 ; M B N x 2 s 4 r ",
"j O j 2 . .                       ; - r 8 P B 6 .               / P p ! * < & ^ Q 2 t C # R S C e } ",
"t p k B F                         c P T U V W X Y Z `  ...+.@.F t ^ @ ( ] G A #.J $.~ %.{ &.$ %.{ { ",
"o @ d v 2                       *.=.-.;.>.,.'.).!.!.~.{.!.!.!.].^.@ n y f * : f = # A A /.(._.a _ ] ",
":.# S 8 w .                   <.[.!.}.'.;.|.1.2.{.}.1.}.{.!.!.!.3.4.5.~ = # 6.a :.a a { 7.8.9.a _ ] ",
"] # ^ B ,                 0.a.!.!.!.2.}.3.3.).!.b.c.d.1.2.!.!.~.}.'.e.f.g.k ^ y ~ a _ A _ & h.{ { A ",
"S d J 2 .               0.i.!.!.!.!.!.!.~.{.!.!.b.j.k.l.{.~.m.}.n.o.,.p.q.t r.u } 7.C s.o S o :.A A ",
"j s 2 ; .               t.!.!.!.!.!.!.!.u.v.w.x.y.z.A.B.C.D.d.E.|.|.,.F.G.H.^ 8 @ f I.B 5 - q $.o o ",
"      .               J.!.!.!.!.!.!.u.K.  .     .     x s.L.M.N.O.;.>.P.Q.R.%.m S.P T.> . .   M - 1 ",
"                    U.V.!.!.!.!.!.t.W.c ; .         ; S.G < X.Y.Z.`. +.+++@+#+/.$.$+. . .       . . ",
"                    %+!.!.!.!.!.&+b 4 p l E - 1 '   F *+(.=+-+;+>+,+'+Q.Q.'+)+{ S F   .           w ",
"                  !+~+!.!.!.!.{+]+> B ^ o g.^ ! v c , P a ^+_./+(+_+,+:+:+P.<+_ I.> .           . s ",
"                . [+!.!.!.!.!.}+  . . 5 S y } 7.C B ' / |+n :.] 1+2+>.`.`.F.F.3+N ; . .         ; 4+",
"      . . ' ' ; . 5+!.!.!.!.` ]+    .   j o f { ] J 7 r 6+P 7+I D 8+O.9+0+o.k.a+k D   . .       E k ",
"      > T.O | | b+` !.!.!.!.c+        . ' k A d+7.D 4 ^ = ( ^ J s.%.e+f+|.}.2.g+:.# T.  .       T.m ",
"      h+g.= } y i+{.!.!.!.!.j+        . w k+{ d+* l+g.( :.] } # 7.& m+,+`.n.m.n+* _ 9 F . .   . / = ",
"      E o :.] ~ o+2.!.!.!.!.Z Y Y Y Y Y p+q+r+s+`.t+u+t+`.F.v+O.F.>.F.>.`.o.3.w+_ { n 7 J $.B . 2 @ ",
"      6 p C e ( x+{.!.!.!.!.!.!.!.!.!.!.{.k.>.F.9+d.1.o.>.>.y+`.F.>.F.,.`.o.3.z+_ _ $.D y :.= J F B ",
"      . x P I.S.A+!.!.!.!.!.!.!.!.!.!.!.!.}.'.;.,.o.b.).1.k.n.k.F.9+9+F.9+3.B+C+_ m 5 l+a a _ ( J , ",
"      .   , 2 b D+!.!.!.!.!.!.!.!.!.!.!.!.~.).3.n.b.!.!.{.2.{.2.E+>.9+F.E+b.F+G+f 4+1 @ { %.* _ d F ",
"                H+!.!.!.!.!.!.!.!.!.!.!.!.!.m.).2.!.!.!.!.!.!.!.I+E+>.J+).{.l.K+y k L+P _ < M+_ |+> ",
"                a.!.!.!.!.!.<.. .   ' > w v n } = 4 6 .       . j = _ S E s n e :.# P N+O+& h.n P+  ",
"                Q+!.!.!.!.!.R+. S+B 3 3 t } * { * y s .       w d a A C J v ] ] a * @ 1 4 ( R $.L+x ",
"                T+!.!.!.!.!.U+K D n C = } a A ] 7.A 3 ;       s ( A a ~ D v A 7._ { ( / j d ! S d S ",
"                V+!.!.!.!.!.W+1 g.} _ :.a a { a * ~ B .       s o ] _ = B X+e * a 7.o / J = :.:._ _ ",
"                ]+Z !.!.!.~.~.Y+3 u R f _ _ 7._ _ S E         S+D y C v F ' D y } C J i O o e ] * { ",
"            . . , Z+!.!.2.}.n.`+x 5 k R _ } s.o ^ l ,         , s g.$.K   ; 6 h | h b > h+l p y a a ",
"            > s k  @l.m.n.o.E+.@+@2 s d } ^ 7+5 - , .         . 6 / - . .   .       . ; . > B = A a ",
"            + d # @@#@1.j.d.>.>.$@j 2 h v l c .       . . . . . . .   .             .       q ! 7.7.",
"            5 e ] { %@E+o.>.9+>.d.&@' 6 c ; . .         . - t k + . .                       h+I.:.A ",
"            - y _ a *@=@n.|.F.,.'.I+R+                  b m f :.@ / ; . -@a.Q+              ; B l+f ",
"            F t } ~ ~ ;@2.}.k.j.l.{.!.c+K.              x ~ a 7.] >@,@..Z !.U+  . .   .     ; 6 B D ",
"          . . h+8 $.| + '@!.2.2.~.!.!.!.!.)@%+!@~@{@]@^@/@(@_@:@<@[@).!.!.!.U+. . h+7+v 4 1 > ; . , ",
"            . . . , .   . t.!.!.!.!.{.}.n.{.!.!.!.!.!.!.!.1.,.9+>.E+b.!.!.!.U+  c $.o ! o }@7 ;     ",
"                            |@Y !.!.l.d.;.l.~.!.!.!.!.!.!.2.n.o.j.I+~.!.!.!.U+  T.y C n = = 4 F     ",
"                              1@2@2.|.9+F.o.2.!.!.!.!.!.!.!.~.b.b.2.2.2.3@4@5@. B :.:.C } } v 6     ",
"                                  6@7@8@9+|.b.!.!.!.!.!.!.!.).3.j.9@g+0@a@m | S++ ! ] ] :.s.T.>     ",
"                                  3 y @@b@c@d@e@f@Z Y g@{+h@i@j@k@a _ _ _ _ y J 6 / I.@ g.r 6 .     ",
"                                  x g.~ ! s ; .           w S.( f a %.7.7.A * @ +   ' c F . . .     ",
"                                  b r o O ,   .           ; 7 O ^ ~ 7.a 7._ z C /                   ",
"                                  . 2 B c . .             . . ' J :.7._ a :.* C /                   ",
"                                  . .     .                     l f A a a :.{ m S+                  ",
"                                                                - o A _ { _ C r ' .                 ",
"                                                                > 8 y e f s.h , .                   ",
"                                                                . 2 3 $.S.5 ' . .                   "};
