/* XPM */
static char * l_xpm[] = {
"50 50 186 2",
"  	c #000000",
". 	c #100101",
"+ 	c #2F0505",
"@ 	c #360707",
"# 	c #370707",
"$ 	c #3B0808",
"% 	c #2E0505",
"& 	c #0E0101",
"* 	c #010000",
"= 	c #020000",
"- 	c #030000",
"; 	c #190202",
"> 	c #2C0505",
", 	c #330606",
"' 	c #320606",
") 	c #1C0202",
"! 	c #040000",
"~ 	c #1A0202",
"{ 	c #110101",
"] 	c #F60000",
"^ 	c #FF0000",
"/ 	c #7D0000",
"( 	c #140101",
"_ 	c #1D0202",
": 	c #1C0303",
"< 	c #1E0202",
"[ 	c #240303",
"} 	c #290404",
"| 	c #220303",
"1 	c #2A0404",
"2 	c #160101",
"3 	c #2B0404",
"4 	c #3A0808",
"5 	c #280404",
"6 	c #200303",
"7 	c #270404",
"8 	c #050000",
"9 	c #070000",
"0 	c #350606",
"a 	c #350707",
"b 	c #210303",
"c 	c #060000",
"d 	c #0A0101",
"e 	c #420A0A",
"f 	c #390808",
"g 	c #250303",
"h 	c #150101",
"i 	c #2D0505",
"j 	c #3C0909",
"k 	c #3F0909",
"l 	c #340606",
"m 	c #310606",
"n 	c #090000",
"o 	c #260404",
"p 	c #300505",
"q 	c #310505",
"r 	c #0D0101",
"s 	c #0C0101",
"t 	c #080000",
"u 	c #0D0000",
"v 	c #130101",
"w 	c #1B0202",
"x 	c #0F0101",
"y 	c #0B0101",
"z 	c #120101",
"A 	c #180202",
"B 	c #390707",
"C 	c #0C0000",
"D 	c #380707",
"E 	c #FE0101",
"F 	c #FE0000",
"G 	c #1F0303",
"H 	c #280303",
"I 	c #380808",
"J 	c #FC0202",
"K 	c #F90303",
"L 	c #FC0101",
"M 	c #7D0101",
"N 	c #200202",
"O 	c #400A0A",
"P 	c #3D0909",
"Q 	c #3C0808",
"R 	c #F80404",
"S 	c #F70404",
"T 	c #7E0404",
"U 	c #450B0B",
"V 	c #3E0909",
"W 	c #FD0101",
"X 	c #F50505",
"Y 	c #7F0606",
"Z 	c #1F0202",
"` 	c #150202",
" .	c #0B0000",
"..	c #0E0000",
"+.	c #0F0000",
"@.	c #270303",
"#.	c #230303",
"$.	c #FB0202",
"%.	c #7E0505",
"&.	c #3F0A0A",
"*.	c #490C0C",
"=.	c #7E0303",
"-.	c #320505",
";.	c #440A0A",
">.	c #4A0C0C",
",.	c #4E0D0D",
"'.	c #4A0D0D",
").	c #170202",
"!.	c #190101",
"~.	c #210202",
"{.	c #4B0D0D",
"].	c #4D0D0D",
"^.	c #470C0C",
"/.	c #430A0A",
"(.	c #2D0404",
"_.	c #410A0A",
":.	c #480C0C",
"<.	c #420B0B",
"[.	c #2C0404",
"}.	c #3B0707",
"|.	c #3A0707",
"1.	c #180101",
"2.	c #2B0505",
"3.	c #260303",
"4.	c #F50101",
"5.	c #FA0303",
"6.	c #F40606",
"7.	c #7F0808",
"8.	c #F20202",
"9.	c #F60505",
"0.	c #F10707",
"a.	c #7F0707",
"b.	c #4B0C0C",
"c.	c #440B0B",
"d.	c #F00303",
"e.	c #F20707",
"f.	c #F30707",
"g.	c #4E0E0E",
"h.	c #400909",
"i.	c #F30202",
"j.	c #F30606",
"k.	c #420909",
"l.	c #170101",
"m.	c #F10303",
"n.	c #7D0202",
"o.	c #ED0505",
"p.	c #EC0606",
"q.	c #FA0202",
"r.	c #EE0505",
"s.	c #FD0000",
"t.	c #160202",
"u.	c #EE0404",
"v.	c #F40505",
"w.	c #F90202",
"x.	c #EF0808",
"y.	c #EB0A0A",
"z.	c #EA0707",
"A.	c #F00808",
"B.	c #E90B0B",
"C.	c #E60D0D",
"D.	c #EE0808",
"E.	c #250404",
"F.	c #EC0505",
"G.	c #EF0909",
"H.	c #E70C0C",
"I.	c #EA0B0B",
"J.	c #F50606",
"K.	c #ED0909",
"L.	c #E80B0B",
"M.	c #E50D0D",
"N.	c #EB0B0B",
"O.	c #F10808",
"P.	c #E40D0D",
"Q.	c #E30E0E",
"R.	c #E60C0C",
"S.	c #E80C0C",
"T.	c #EC0A0A",
"U.	c #7E0606",
"V.	c #F20606",
"W.	c #F20808",
"X.	c #F70505",
"Y.	c #FD0202",
"Z.	c #410909",
"`.	c #430B0B",
" +	c #0A0000",
".+	c #470B0B",
"                                                        . + @ # $ % &   * *   = - * * *             ",
"                                                      * * ; > , ' ) !   * * & ; ~ { - *             ",
"                                    ] ^ ^ ^ ^ ^ /       *   ( _ : _ < { - & [ } } | & *             ",
"                                    ] ^ ^ ^ ^ ^ /         * * . 1 ' , % 2 ) > > 3 } ( -             ",
"                                    ] ^ ^ ^ ^ ^ /             | # # # 4 5 6 5 3 > 7 . *             ",
"* * 8 9 - * *                       ] ^ ^ ^ ^ ^ /             | # @ 0 $ a b [ 1 1 ) c               ",
"* d ( ; ( 9 * *                     ] ^ ^ ^ ^ ^ /             . + @ 4 e f } 5 1 g . - - * * *       ",
"- h 6 | b h !                       ] ^ ^ ^ ^ ^ /           * = ; i j k l + + m 5 ; ~ ~ { - *       ",
"n 6 1 } o ) 9                       ] ^ ^ ^ ^ ^ / * *   c c * =   2 p q % p p % 5 } } } | & *       ",
"r 5 a ' } ) c *                     ] ^ ^ ^ ^ ^ / * c ~ [ ~ c     * b % a l } ) | i > 3 } ( -       ",
"& 5 @ ' 7 ( -                       ] ^ ^ ^ ^ ^ /   ( 3 ' [ d * * ! ~ > a , | s _ 5 3 > 7 . *       ",
"t < } o ~ u t - * *                 ] ^ ^ ^ ^ ^ /   v o 5 w c * x ~ 6 g } 5 g | b g 1 1 ) c         ",
"* y ( z . ( ; ( 9 * *               ] ^ ^ ^ ^ ^ / * 8 x . t * t < % > b A [ l f ' 1 1 g . *         ",
"* *   - h 6 | b h !                 ] ^ ^ ^ ^ ^ /   *     - d A } B ' 6 C 5 D k 4 q m 5 { =         ",
"  *   n 6 1 } o ) 9                 ] ^ E F ^ ^ /       = { G 3 ' $ ' 6 C H ' I @ q % [ x *         ",
"      r 5 a ' } ) c *               ] F J K L E M s -   8 N a O P Q ' 6 t b + # 0 } _ { ! *         ",
"      & 5 @ ' 7 ( -                 ] ^ L R S K T > _ c - g Q U V l 1 ~ t ~ > a , | s =             ",
"      t < } o ~ t * *               ] ^ ^ W S X Y D p h = w % ' 1 Z 2 ` w 6 g } 5 | ) { -           ",
"      * y ( v  .! = * *             ] ^ ^ ^ W S Y D @ w ! c { v ..c +.@.# ' #.A _ } % b t           ",
"      * * = v ; _ < & = *           ] ^ ^ ^ ^ $.%.@ % ( * *     - ` q &.*.U q z ( 5 p #.t           ",
"        * n g i m m 6 9             ] ^ ^ ^ ^ W =.[ ; 8 *     * v -.;.>.,.'.k | u ~ b ).!           ",
"          y 1 a a l o d             ] ^ ^ ^ F J =.!.s & r -   ! ~.e >.{.].^./.(.r c y c * *         ",
"          ! | p ' % < c             ] ^ ^ ^ ^ L T 1 g 7 > _ c - Z _.^.*.:.<.k [.s                   ",
"          * x < [ < r *   *         ] ^ ^ ^ ^ ^ M } p ' D p h = x i V O O Q }.| c   - * * *         ",
"          *   - t c ! ! * * *       ] ^ ^ ^ ^ ^ / ( 1 ' D @ w ! * x % # 4 |.l #.!.1.).. ! * c x x 8 ",
"                = v ; < < & = *     ] ^ ^ ^ ^ ^ M 2 6 q @ + ( * *   h g + 4 # l B # > 6 . ! 2 g g 2 ",
"                n g i m m 6 9     * ] ^ ^ ^ F $.%.m + 2.3.; 8 *   *    .1 B 4 Q ^.:.V , < n < m p G ",
"                y 1 a a l o d     * 4.W J J 5.6.7.f $ ' h =   *       n ' @ @ P >.].U P } s A 1 } ~ ",
"                ! | p ' % < c     t 8.9.X 9.6.0.a.@ D D ; *           t ' @ # V b.].c.$ % x t ( ( n ",
"                * x < [ < r *     r d.6.e.f.0.0.7.D 4 l h *           = [ # f Q *.g.h.B 1 x * = = * ",
"                *   - 9 8 * * ! c n i.K X j.e.e.a.# # } y           *   s i @ 4 O k.a q [ ; . ! * c ",
"                * * - ! *   x ~ < ~ 4.W 5.X e.6.%.1 5 < l.r = * *     *   h g [.1 | N 3.1 } 6 . ! 2 ",
"                = z 6 [ ) { < 1 % % m.F W R 6.R n.h | % ' i ~ ! *       *   n & n * z i , a ' < n < ",
"                d o ' # ' g 7 ' a a o.W F $.K K n.6 m 4 f $ m v =     *             ) @ @ D $ } s A ",
"                { ' @ B # % } @ B @ p.J F q.X X %.m # B @ D B G 6 6 d * *           ) B D # B % x t ",
"                & m # # B i 6 p # a r.W E K 6.e.a.# # f D 4 0 + , l 1 { * *         { , 4 # D 1 r   ",
"                ! 6 m l l b y ~ 5 7 8.s.F J K X Y # @ D # # i @ # D @ 1 & *         - G p ' + w 8   ",
"              * * n ) | _ & 8 ! d t.i.q.$.W W 5.%.# m > 1 7 ) l B D # a ).*       * = u #.1 g { - * ",
"                * * * 8 v 6 g ) { < u.X v.9.w.L T m 7 A { & c g a B @ % { *         c | 1 3 3 #.& * ",
"                      d o ' # ' g 7 p.e.x.y.e.q.M _ h c *   * y 6 1 7 A !   *       v m p i % % ~ ! ",
"                      { ' @ B # % } z.A.B.C.D.S M 9 * * *       c z w E.o ` x x c * h a 0 + m ' ) ! ",
"                      & m # # B i 6 F.G.H.I.x.X M *           - ( #.# k O 4 + 5 _ d d 3 @ @ l > v = ",
"                      ! 6 m l l b y i.J.K.G.0.R E ^ ^ ^ ^ ^ ^ F 5.e.L.C.M.C.N.O.X $.^ W K S =.).8 * ",
"                    * * n ) | _ y * ] J S j.S W ^ ^ ^ ^ ^ ^ ^ F q.6.B.P.Q.M.R.D.A.S E ^ ^ F / A _ ~ ",
"                      * * * - *   * ] F J S J F $.q.F ^ ^ ^ ^ ^ E J e.S.P.M.B.A.x.X W ^ ^ F =.1 3 3 ",
"                                    ] ^ F W F $.6.6.$.^ ^ ^ ^ ^ ^ ^ 5.D.I.T.D.e.A.X W ^ ^ W U.p i % ",
"                                    ] ^ ^ ^ E X A.0.S W ^ ^ ^ ^ ^ ^ L V.x.x.A.W.G.X.Y.F ^ L a.0 + m ",
"                                            ; @ # B p z *           . q Z.e `.e k m } _ d d 3 @ @ l ",
"                                            ; m @ # o d *            +> c..+:.U j D # p w ! { [ 1 g ",
"                                            x g l 3 z * *           9 ~.@ P k V B D B 4 } y   - c ! "};
