/* XPM */
static char * o_xpm[] = {
"50 50 310 2",
"  	c #000000",
". 	c #010000",
"+ 	c #380707",
"@ 	c #440B0B",
"# 	c #3E0909",
"$ 	c #3F0909",
"% 	c #480C0C",
"& 	c #350707",
"* 	c #280404",
"= 	c #400909",
"- 	c #390808",
"; 	c #3C0808",
"> 	c #470B0B",
", 	c #2C0505",
"' 	c #210303",
") 	c #2D0505",
"! 	c #300505",
"~ 	c #330606",
"{ 	c #2E0505",
"] 	c #250303",
"^ 	c #110101",
"/ 	c #410A0A",
"( 	c #450B0B",
"_ 	c #2A0404",
": 	c #430A0A",
"< 	c #150101",
"[ 	c #020000",
"} 	c #0B0101",
"| 	c #0F0101",
"1 	c #100101",
"2 	c #030000",
"3 	c #0A0000",
"4 	c #070000",
"5 	c #040000",
"6 	c #340606",
"7 	c #420A0A",
"8 	c #490C0C",
"9 	c #270404",
"0 	c #080000",
"a 	c #050000",
"b 	c #320606",
"c 	c #130101",
"d 	c #240303",
"e 	c #060000",
"f 	c #360707",
"g 	c #350606",
"h 	c #140101",
"i 	c #370707",
"j 	c #220303",
"k 	c #200303",
"l 	c #3D0909",
"m 	c #290404",
"n 	c #230303",
"o 	c #460B0B",
"p 	c #160101",
"q 	c #3A0808",
"r 	c #1F0303",
"s 	c #3B0808",
"t 	c #0A0101",
"u 	c #400A0A",
"v 	c #310606",
"w 	c #440A0A",
"x 	c #470C0C",
"y 	c #2B0404",
"z 	c #0D0101",
"A 	c #710000",
"B 	c #B30000",
"C 	c #D50202",
"D 	c #E70303",
"E 	c #F10303",
"F 	c #F40505",
"G 	c #F10606",
"H 	c #EE0505",
"I 	c #E90101",
"J 	c #D60000",
"K 	c #B10000",
"L 	c #6A0000",
"M 	c #1E0202",
"N 	c #090000",
"O 	c #9B0000",
"P 	c #E70000",
"Q 	c #FF0000",
"R 	c #F80303",
"S 	c #F30606",
"T 	c #F20707",
"U 	c #F10707",
"V 	c #F70404",
"W 	c #FE0000",
"X 	c #E40000",
"Y 	c #940000",
"Z 	c #180202",
"` 	c #1D0202",
" .	c #630000",
"..	c #E00000",
"+.	c #FE0101",
"@.	c #F40606",
"#.	c #F50505",
"$.	c #EF0808",
"%.	c #EF0909",
"&.	c #EC0A0A",
"*.	c #FD0101",
"=.	c #F90303",
"-.	c #FC0202",
";.	c #DB0000",
">.	c #580000",
",.	c #1A0202",
"'.	c #120101",
").	c #850101",
"!.	c #F40101",
"~.	c #E80C0C",
"{.	c #E70C0C",
"].	c #F80404",
"^.	c #F30000",
"/.	c #790000",
"(.	c #830707",
"_.	c #EA0909",
":.	c #E90B0B",
"<.	c #F00808",
"[.	c #F60505",
"}.	c #ED0909",
"|.	c #EA0B0B",
"1.	c #F70000",
"2.	c #760000",
"3.	c #2B0505",
"4.	c #5E0303",
"5.	c #E60909",
"6.	c #F70303",
"7.	c #CF0606",
"8.	c #9A0909",
"9.	c #760C0C",
"0.	c #5B0D0D",
"a.	c #5A0B0B",
"b.	c #750909",
"c.	c #9E0A0A",
"d.	c #CD0A0A",
"e.	c #EB0A0A",
"f.	c #F00000",
"g.	c #4B0000",
"h.	c #DA0101",
"i.	c #FA0303",
"j.	c #E10606",
"k.	c #7C0505",
"l.	c #4E0D0D",
"m.	c #870C0C",
"n.	c #DC0B0B",
"o.	c #D40000",
"p.	c #DB0505",
"q.	c #540B0B",
"r.	c #500E0E",
"s.	c #5C0909",
"t.	c #DF0808",
"u.	c #880000",
"v.	c #2F0505",
"w.	c #E60000",
"x.	c #FD0202",
"y.	c #FB0303",
"z.	c #E70404",
"A.	c #570808",
"B.	c #4F0E0E",
"C.	c #4A0C0C",
"D.	c #1D0303",
"E.	c #260404",
"F.	c #5F0202",
"G.	c #F60000",
"H.	c #DF0000",
"I.	c #190202",
"J.	c #0C0101",
"K.	c #7A0000",
"L.	c #EA0A0A",
"M.	c #E30D0D",
"N.	c #8E0C0C",
"O.	c #520F0F",
"P.	c #4F0D0D",
"Q.	c #A60000",
"R.	c #6C0000",
"S.	c #170202",
"T.	c #C00202",
"U.	c #FB0202",
"V.	c #EE0909",
"W.	c #E40D0D",
"X.	c #C21111",
"Y.	c #5C1212",
"Z.	c #541010",
"`.	c #530F0F",
" +	c #4B0D0D",
".+	c #0D0000",
"++	c #E90000",
"@+	c #BD0000",
"#+	c #DC0808",
"$+	c #E80B0B",
"%+	c #990E0E",
"&+	c #4D0D0D",
"*+	c #B00000",
"=+	c #E10303",
"-+	c #1F0202",
";+	c #570909",
">+	c #F10808",
",+	c #E60B0B",
"'+	c #510B0B",
")+	c #3D0808",
"!+	c #510000",
"~+	c #E50D0D",
"{+	c #DE0F0F",
"]+	c #4B0808",
"^+	c #850606",
"/+	c #D90707",
"(+	c #1A0101",
"_+	c #260303",
":+	c #EE0000",
"<+	c #E60C0C",
"[+	c #E30E0E",
"}+	c #DC1010",
"|+	c #DA1111",
"1+	c #7F1010",
"2+	c #A20101",
"3+	c #C80000",
"4+	c #D91111",
"5+	c #D81111",
"6+	c #951010",
"7+	c #410909",
"8+	c #B60000",
"9+	c #DE1010",
"0+	c #D81212",
"a+	c #DD1010",
"b+	c #A70C0C",
"c+	c #390707",
"d+	c #C20000",
"e+	c #B20000",
"f+	c #F50606",
"g+	c #B10B0B",
"h+	c #C60000",
"i+	c #4C0D0D",
"j+	c #510E0E",
"k+	c #A70000",
"l+	c #B90707",
"m+	c #1B0202",
"n+	c #C70000",
"o+	c #9A0000",
"p+	c #A80000",
"q+	c #B80808",
"r+	c #B00202",
"s+	c #B00C0C",
"t+	c #B60101",
"u+	c #170101",
"v+	c #B60707",
"w+	c #A90909",
"x+	c #9F0707",
"y+	c #2C0404",
"z+	c #C90808",
"A+	c #980A0A",
"B+	c #850B0B",
"C+	c #E30000",
"D+	c #7D0B0B",
"E+	c #5A0A0A",
"F+	c #FA0000",
"G+	c #320000",
"H+	c #4D0000",
"I+	c #F90202",
"J+	c #4C0909",
"K+	c #D70C0C",
"L+	c #9D0000",
"M+	c #AE0000",
"N+	c #0E0101",
"O+	c #B80A0A",
"P+	c #DC0000",
"Q+	c #E80000",
"R+	c #BB0000",
"S+	c #1C0202",
"T+	c #7A0404",
"U+	c #8C0000",
"V+	c #A30000",
"W+	c #E50000",
"X+	c #ED0000",
"Y+	c #400000",
"Z+	c #560000",
"`+	c #F40000",
" @	c #DE0000",
".@	c #930000",
"+@	c #2E0000",
"@@	c #470000",
"#@	c #870000",
"$@	c #DB0808",
"%@	c #830000",
"&@	c #D20000",
"*@	c #5A0000",
"=@	c #F50000",
"-@	c #D60101",
";@	c #9C0000",
">@	c #3D0000",
",@	c #6D0000",
"'@	c #A10000",
")@	c #820000",
"!@	c #860000",
"~@	c #FC0101",
"{@	c #650000",
"]@	c #D30707",
"^@	c #5B0101",
"/@	c #0E0000",
"(@	c #E60101",
"_@	c #DA0707",
":@	c #920707",
"<@	c #720202",
"[@	c #B20202",
"}@	c #E80303",
"|@	c #F40202",
"1@	c #F70101",
"2@	c #EB0000",
"3@	c #D40202",
"4@	c #A90C0C",
"5@	c #730A0A",
"                          . + @ # $ % &       .   . * = - ; > ,     ' ) ! ~ { ] ^                   ",
"                    .       ] % / = ( ;       . .     _ # ; : = <   [ } | 1 | 2         .           ",
"                  .   [ 3 4 5 6 7 ( 8 9   . .     0 4 a b / > = c             < , ~ d e   .         ",
"                    4 _ ) f g h , i 9           j ! { k h ; l m [       .   n % % o 8 i 4           ",
"                    p q 7 7 / _         . .   r s f g ! 1 1 1     .       t $ ( 7 / 7 8 m   .       ",
"                    | + 7 # l m   .           ) f 6 f b ^       .         h ( l u 7 $ o b           ",
"                      d i ; v ^       .       j ! i i _                   e = @ w : = x y         . ",
"                  . .   } h z   .   . A B C D E F G H I J K L           .   M x ( o ( 7 1   . N .   ",
"                    .         . . O P Q R S S T T U V W Q Q Q X Y .     .     { = @ / j   Z y m ` 5 ",
"                        .      ...Q Q +.@.#.S $.%.&.#.*.+.=.V -.Q ;.>.    .     ,.r '.  | 6 s q ) p ",
"                    . .     ).!.Q Q Q W S T $.$.T #.=.*.U ~.{.~.].Q ^./.    .           d 7 = > o n ",
"                        h (._.].Q Q Q Q ].$.~.:.<.#.[.T :.:.}.:.|.+.Q 1.2.              3.8 = / x ~ ",
"                        4.5.$.].Q Q Q +.6.7.8.9.0.a.b.c.d.e.&.e.|.+.Q Q f.g.            d 8 @ : 7 i ",
"                    .   h.=.i.*.Q Q i.j.k.m { # > l.o ( : m.n.{.T Q Q Q Q o.            e s 8 = o ] ",
"                      Y Q Q Q Q Q *.p.q.l * | m @ r.8 u = u s.t.i.Q Q Q Q Q u.        .   | v.f 9 [ ",
"        .       . .   w.Q Q Q x.y.z.A.B.C.l , D.{ u 7 > b E.j F.G.Q Q Q Q Q H.          .           ",
"          } I.J.    K.Q Q W ].L.M.N.( O.P.o 7 b h n { b ] e     Q.Q Q Q Q Q Q R.          .     . . ",
"          0 , ; j S.T.U.Q -.V.W.X.Y.O.Z.`. +$ s c   | 1 [   .   .+++Q Q Q Q Q @+.   .               ",
"        .   . * = - #+$+[.U.~.:.%+&+8 7 &+> 7 s c         .       *+Q Q =.$.$.=+-+}   .             ",
"          .     _ ;+$.e.}.U.>+,+'+ +v ,.g 7 )+3.5 .               !+W *.e.~+{+{+]+) 3           .   ",
"            .   a ^+&.:.}.*.-./+s ~ J.  (+& q _+e . .   .           :+U.<+[+}+|+1+$ j       . .     ",
"              .   2+$.V.V Q Q 3+} .   n % % o 8 i 4 0 2   .         o.W :.}+4+5+6+7+y       .   I.v ",
"              .   8+*.*.Q Q Q *+    } $ ( 7 / 7 8 ! 6 i     .       @+Q =.9+0+a+b+8 d         c ; c+",
"                . d+Q Q Q Q Q Q.    h ( l u 7 $ o o 8 / ]           e+Q Q f+W.|.g+# N         n : c+",
"                  h+Q Q Q Q Q O     e = @ w : = i+j+: 7 c+N .       k+Q Q *.T e.l+] M M M J.  m+x : ",
"                  n+Q Q Q Q Q o+  .   M x ( o ( i+> = % i [   .     p+Q +.].U $.q+q / 7 l ) }   E./ ",
"                . d+Q Q Q Q Q Q.  .     { = @ / { q x % v.` a   c j r+W *.@.:.e.s+% 7 : > 7 n     t ",
"      . .         t+=.V -.Q Q *+    .     ,.r '.^ ) B.: q ) u+N _ s v+i.Q i.#.<.w+> : @ / 8 6       ",
"    .       N e h x+~.{.~.].Q 3+      .           y+&+= > o n a 3.7 z+=.Q Q +.V A+/ 7 @ 7 8 + 2     ",
"      [ m+y { { i B+:.}.:.|.+.C+              . . 3.8 = / x ~   S.m D *.Q Q Q =.D+o / : l o ~       ",
"      Z & @ : $ 7 E+e.&.e.|.+.F+G+                d 8 @ : 7 i     H+W Q Q Q Q I+J+@ : @ / x m+  .   ",
"      ^ { + 7 = ( : K+|.{.T Q Q L+                e s 8 = o ]     M+Q Q Q Q Q C+b % = > 7 r   .     ",
"  N+1 } c ] ~ # u = O+}.<.i.Q Q P+              .   | v.f 9 [     Q+Q Q Q Q Q R+p ~ q 6 S+  . .     ",
"' v 6 , J.  j q > b T+=.U.Q Q Q Q U+              .           . V+Q Q Q Q Q Q L   [ ^ e   . .       ",
"! s l 7 v   c _ b ] e W+Q Q Q Q Q X+Y+  .           .     . . Z+`+Q Q Q Q Q  @  .       .           ",
"~ 7 ( $ s c   | | [   .@Q Q Q Q Q Q ..+@  .                 @@++Q Q Q Q Q Q #@                      ",
"v o @ 7 s c         .   ;.Q Q Q Q =.$.$@2.  .             %@X+Q Q Q Q Q Q &@                        ",
"^ 6 7 )+3.5             *@=@Q Q *.e.e.|.L.-@;@L >@Y+,@'@;.W Q Q Q Q Q Q f.g.                        ",
"  N m+m+a   .     .       )@F+Q U.:.&.e.}.}.W Q Q Q Q Q Q Q Q Q Q Q Q 1.2.                          ",
".         .   0 2   .       !@G.W }.{.|.|.}.W Q Q Q Q Q Q -.@.S #.~@`+K.                            ",
"        .   < 6 i     .       {@..U.$.|.V.].Q Q Q Q Q Q *.$.U T U ]@^@                              ",
"            ~ 8 / ]             /@O (@U.*.Q Q Q Q Q Q Q =.e.U _@:@s -+                              ",
"          S+% : 7 c+N               } <@[@C }@|@I+I+1@2@3@4@5@s / # p                               ",
"      .   _ ( = x & .             t * i ; - q / 7 l ) }   E./ o # ]                                 ",
"          ` q : )+h   .           '.b ( 7 % % 7 : > 7 n     t '.t   . .                             ",
"      .   ^ m u '     .           a r { q = > : @ / 8 6             .                               ",
"            p y .   .           .   . t _ : / 7 @ 7 8 + 2                                           ",
"        . .       .               .     j ( o / : l o ~                                             ",
"            .   .                       M $ @ : @ / x m+  .                                         ",
"                                        0 b % = > 7 r   .                                           "};
