/* XPM */
static char * s_xpm[] = {
"50 50 419 2",
"  	c #000000",
". 	c #2D0505",
"+ 	c #4E0E0E",
"@ 	c #5B1111",
"# 	c #5F1313",
"$ 	c #641414",
"% 	c #681515",
"& 	c #651515",
"* 	c #4C0D0D",
"= 	c #190202",
"- 	c #050000",
"; 	c #130101",
"> 	c #4B0D0D",
", 	c #631414",
"' 	c #671515",
") 	c #6C1717",
"! 	c #6F1717",
"~ 	c #711818",
"{ 	c #6B1616",
"] 	c #1C0202",
"^ 	c #240303",
"/ 	c #160101",
"( 	c #540F0F",
"_ 	c #701818",
": 	c #661515",
"< 	c #470C0C",
"[ 	c #430A0A",
"} 	c #5C1212",
"| 	c #571010",
"1 	c #350707",
"2 	c #0B0101",
"3 	c #6A1616",
"4 	c #741919",
"5 	c #761A1A",
"6 	c #6D1717",
"7 	c #591111",
"8 	c #270404",
"9 	c #340606",
"0 	c #611313",
"a 	c #681616",
"b 	c #420A0A",
"c 	c #410A0A",
"d 	c #751919",
"e 	c #400A0A",
"f 	c #310606",
"g 	c #5A1111",
"h 	c #2C0505",
"i 	c #480C0C",
"j 	c #561010",
"k 	c #601313",
"l 	c #440A0A",
"m 	c #260404",
"n 	c #3A0808",
"o 	c #2F0505",
"p 	c #490C0C",
"q 	c #691616",
"r 	c #6E1717",
"s 	c #621414",
"t 	c #3D0909",
"u 	c #640101",
"v 	c #AB0303",
"w 	c #C10A0A",
"x 	c #C21313",
"y 	c #AE1919",
"z 	c #AE1A1A",
"A 	c #CD1414",
"B 	c #EC0808",
"C 	c #EA0707",
"D 	c #CC1212",
"E 	c #B11717",
"F 	c #AD1515",
"G 	c #AE0909",
"H 	c #860000",
"I 	c #320000",
"J 	c #0F0101",
"K 	c #940000",
"L 	c #E20000",
"M 	c #F50505",
"N 	c #E20E0E",
"O 	c #CF1414",
"P 	c #BF1717",
"Q 	c #B01A1A",
"R 	c #CE1414",
"S 	c #F00808",
"T 	c #FB0202",
"U 	c #EB0A0A",
"V 	c #DB1010",
"W 	c #E10F0F",
"X 	c #F60505",
"Y 	c #FF0000",
"Z 	c #FC0000",
"` 	c #DB0000",
" .	c #9F0000",
"..	c #350000",
"+.	c #510E0E",
"@.	c #300505",
"#.	c #560606",
"$.	c #D30303",
"%.	c #FD0101",
"&.	c #E80C0C",
"*.	c #C91515",
"=.	c #B61919",
"-.	c #AF1A1A",
";.	c #AB1B1B",
">.	c #B21A1A",
",.	c #FE0000",
"'.	c #F80404",
").	c #FC0202",
"!.	c #FA0202",
"~.	c #F90303",
"{.	c #B40000",
"].	c #010000",
"^.	c #370707",
"/.	c #711414",
"(.	c #BB1616",
"_.	c #D31313",
":.	c #F30707",
"<.	c #EA0B0B",
"[.	c #BC1818",
"}.	c #B71919",
"|.	c #B81919",
"1.	c #C21717",
"2.	c #F70404",
"3.	c #EE0909",
"4.	c #B40101",
"5.	c #290404",
"6.	c #5D1212",
"7.	c #6F1818",
"8.	c #AB1818",
"9.	c #B51919",
"0.	c #DA1111",
"a.	c #DE0F0F",
"b.	c #DF0F0F",
"c.	c #E70C0C",
"d.	c #F30606",
"e.	c #FC0101",
"f.	c #FA0303",
"g.	c #EF0808",
"h.	c #EC0A0A",
"i.	c #B20202",
"j.	c #500E0E",
"k.	c #581111",
"l.	c #961313",
"m.	c #BB1818",
"n.	c #F80101",
"o.	c #CC0202",
"p.	c #A00303",
"q.	c #7A0303",
"r.	c #530303",
"s.	c #4C0808",
"t.	c #510D0D",
"u.	c #5D0C0C",
"v.	c #600505",
"w.	c #7D0101",
"x.	c #9E0303",
"y.	c #B50808",
"z.	c #D00A0A",
"A.	c #EA0909",
"B.	c #ED0909",
"C.	c #B10404",
"D.	c #731919",
"E.	c #D50A0A",
"F.	c #C71616",
"G.	c #B31A1A",
"H.	c #B91919",
"I.	c #D40000",
"J.	c #4B0000",
"K.	c #2B0404",
"L.	c #721818",
"M.	c #160202",
"N.	c #400909",
"O.	c #4C0A0A",
"P.	c #910B0B",
"Q.	c #C80909",
"R.	c #330606",
"S.	c #791B1B",
"T.	c #7A1B1B",
"U.	c #390808",
"V.	c #550000",
"W.	c #E40D0D",
"X.	c #DD1010",
"Y.	c #F40606",
"Z.	c #DC0000",
"`.	c #0D0000",
" +	c #530F0F",
".+	c #7B1B1B",
"++	c #180202",
"@+	c #3C0808",
"#+	c #100101",
"$+	c #300606",
"%+	c #781A1A",
"&+	c #791A1A",
"*+	c #450B0B",
"=+	c #880000",
"-+	c #830000",
";+	c #200303",
">+	c #771A1A",
",+	c #4A0C0C",
"'+	c #220303",
")+	c #210303",
"!+	c #621313",
"~+	c #9E0000",
"{+	c #1E0202",
"]+	c #1A0202",
"^+	c #4A0D0D",
"/+	c #A20000",
"(+	c #3B0000",
"_+	c #510F0F",
":+	c #380707",
"<+	c #1B0202",
"[+	c #5E1313",
"}+	c #3E0909",
"|+	c #060000",
"1+	c #070000",
"2+	c #910000",
"3+	c #9C0000",
"4+	c #470B0B",
"5+	c #3F0909",
"6+	c #3B0808",
"7+	c #140101",
"8+	c #090000",
"9+	c #170202",
"0+	c #1D0202",
"a+	c #110101",
"b+	c #080000",
"c+	c #5A0000",
"d+	c #F20000",
"e+	c #6C0000",
"f+	c #360707",
"g+	c #460B0B",
"h+	c #5F1212",
"i+	c #030000",
"j+	c #250303",
"k+	c #2A0404",
"l+	c #230303",
"m+	c #120101",
"n+	c #D60C0C",
"o+	c #CA1515",
"p+	c #BE1818",
"q+	c #D61212",
"r+	c #FA0000",
"s+	c #C20000",
"t+	c #680000",
"u+	c #390707",
"v+	c #701717",
"w+	c #4D0E0E",
"x+	c #4D0D0D",
"y+	c #951616",
"z+	c #AA1B1B",
"A+	c #E90000",
"B+	c #C00000",
"C+	c #420000",
"D+	c #460C0C",
"E+	c #0C0101",
"F+	c #3D0808",
"G+	c #A11B1B",
"H+	c #AC1B1B",
"I+	c #CB1515",
"J+	c #EA0000",
"K+	c #C90000",
"L+	c #9A0000",
"M+	c #5F0C0C",
"N+	c #7C1B1B",
"O+	c #4F0E0E",
"P+	c #0D0101",
"Q+	c #7E1B1B",
"R+	c #A21B1B",
"S+	c #D41313",
"T+	c #EC0909",
"U+	c #B01818",
"V+	c #8F1C1C",
"W+	c #320505",
"X+	c #3F0A0A",
"Y+	c #1F0202",
"Z+	c #320606",
"`+	c #7A1A1A",
" @	c #971A1A",
".@	c #F70505",
"+@	c #C01717",
"@@	c #9D1818",
"#@	c #6B1313",
"$@	c #520F0F",
"%@	c #690F0F",
"&@	c #B70404",
"*@	c #EF0000",
"=@	c #F90202",
"-@	c #E10E0E",
";@	c #E30D0D",
">@	c #E30707",
",@	c #7F0606",
"'@	c #2E0505",
")@	c #581010",
"!@	c #6C1616",
"~@	c #750000",
"{@	c #B00000",
"]@	c #D80000",
"^@	c #F60000",
"/@	c #FE0101",
"(@	c #E90909",
"_@	c #810A0A",
":@	c #180101",
"<@	c #720000",
"[@	c #AC0000",
"}@	c #D30000",
"|@	c #F00707",
"1@	c #E20A0A",
"2@	c #4B0505",
"3@	c #2C0404",
"4@	c #4B0C0C",
"5@	c #240101",
"6@	c #D10000",
"7@	c #B20505",
"8@	c #040000",
"9@	c #551010",
"0@	c #731818",
"a@	c #781B1B",
"b@	c #350606",
"c@	c #6D0000",
"d@	c #E90202",
"e@	c #F10707",
"f@	c #E50404",
"g@	c #280404",
"h@	c #630101",
"i@	c #F60202",
"j@	c #F80303",
"k@	c #520000",
"l@	c #0E0101",
"m@	c #E00E0E",
"n@	c #7B0505",
"o@	c #200202",
"p@	c #020000",
"q@	c #B90202",
"r@	c #C41616",
"s@	c #C11717",
"t@	c #C51616",
"u@	c #8A1010",
"v@	c #260303",
"w@	c #BA0606",
"x@	c #B41919",
"y@	c #811616",
"z@	c #4F0D0D",
"A@	c #7C1C1C",
"B@	c #D90707",
"C@	c #761717",
"D@	c #4E0D0D",
"E@	c #440B0B",
"F@	c #1F0303",
"G@	c #7D1C1C",
"H@	c #971B1B",
"I@	c #9A1919",
"J@	c #6F1010",
"K@	c #970808",
"L@	c #D51212",
"M@	c #AB1A1A",
"N@	c #9E1A1A",
"O@	c #E90A0A",
"P@	c #D60000",
"Q@	c #A00000",
"R@	c #450000",
"S@	c #951919",
"T@	c #D11313",
"U@	c #C61616",
"V@	c #A31414",
"W@	c #150101",
"X@	c #591010",
"Y@	c #A71818",
"Z@	c #E00F0F",
"`@	c #FD0000",
" #	c #E00000",
".#	c #C40000",
"+#	c #7A0202",
"@#	c #6D0C0C",
"##	c #711616",
"$#	c #7B1A1A",
"%#	c #821B1B",
"&#	c #8A1B1B",
"*#	c #981A1A",
"=#	c #A71B1B",
"-#	c #E60707",
";#	c #580A0A",
">#	c #B71212",
",#	c #AD1A1A",
"'#	c #AD1B1B",
")#	c #900101",
"!#	c #0A0101",
"~#	c #CA0606",
"{#	c #EA0A0A",
"]#	c #A91C1C",
"^#	c #A91B1B",
"/#	c #AE1B1B",
"(#	c #980000",
"_#	c #D20000",
":#	c #BF1818",
"<#	c #A61C1C",
"[#	c #A51C1C",
"}#	c #A61B1B",
"|#	c #7F0000",
"1#	c #990000",
"2#	c #CA0000",
"3#	c #EE0000",
"4#	c #E90B0B",
"5#	c #C81515",
"6#	c #C51212",
"7#	c #A70303",
"8#	c #1E0000",
"9#	c #4D0000",
"0#	c #900000",
"a#	c #B80000",
"b#	c #CE0101",
"c#	c #DC0404",
"d#	c #E50A0A",
"e#	c #D51111",
"f#	c #B31818",
"g#	c #A51B1B",
"h#	c #9C1B1B",
"i#	c #941A1A",
"j#	c #7B1212",
"k#	c #661414",
"l#	c #3A0707",
"                                                . + @ # $ % & * =                                   ",
"                                          -   ; > , ' ) ! ~ { + ]                                   ",
"                              - -   = ^ / -   / ( % { _ ~ ! : < /                                   ",
"                              - ] [ } | 1 -   2 > 3 4 5 6 7 [ 8 -                                   ",
"                                9 0 ~ a b 2 - ; c $ 4 d ' e / -                                     ",
"                                f 7 : g 1 2 h i j # : ' k ( l m                                     ",
"                              - / f n o / ] p q r 0 + + s 6 $ t                                     ",
"                          -     -     u v w x y z A B C D E F G H I                                 ",
"                  J m m ; -       K L M N O P z Q R S T U V W X Y Z `  ...                          ",
"                  / c 7 +.9 @.#.$.Y %.&.*.=.-.;.>.O S ,.T X '.).!.~.T ,.{.].                        ",
"                  2 ^.} a $ /.(._.:.%.<.R [.}.|.1.V M Y Y Y %.2.S 3.S '.4.].    -   = @.^.5.J -     ",
"- -               - - @.6.7.8.>.9.0.T 2.<.N a.b.c.d.e.Y Y Y f.g.U h.<.g.i.      2 o j.# 0 k.n J     ",
"- -                 -   9 l.m.Q -.A '.,.n.o.p.q.r.s.t.u.v.w.x.y.z.A.U B.C.      ^ + q D.4 7.} .     ",
"l ] -                 - 2 E.F.G.H.V ).I.J.    K.} _ D.L.' [ M.@.N.O.P.Q.v   ].].R.} ~ S.T.5 3 e     ",
"$ U.                  - V.!.W._.X.Y.Z.`.    J  +4 .+T.T.S.% R.++@.@+t o #+  ].  $+& %+T.%+&+! b     ",
"{ *+                    =+,.e.f.e.Y -+      ;+& >+>+>+>+T.D.,+  ; '+)+#+  ].  2 o !+S..+%+&+3 o     ",
"k ^.                    ~+Y Y Y Y Y I       {+& %+>+%+>+S.D.>             ].  ]+f ^+) %+d { > J     ",
"c /                     /+Y Y Y Y Y (+      2 _+4 T.T.S.S.) :+  J J - -       <+o ^.* [+7 }+/ -     ",
"; - |+].|+2 1+].].      2+Y Y Y Y Y 3+    - - m 0 5 T.T.D.j m @+4+5+m |+= R.6+R.. R.9 K.7+  -       ",
"  - ].8+9+{+0+a+b+].    c+%.M h.S T d+e+    -   f+@ q q j o g+s % # g+'+t h+: g N.R.f ;+|+          ",
"    i+/ j+k+k+l+m+  2 ; {+n+o+m.p+q+M r+s+t+  -   ;+R.o / @.s D.d 4 , u++ v+d 3 w+6+f+)+1+          ",
"    8+)+f 9 @.k+k+@+p x+( y+z z+z+G.0.%.Y Y A+B+2+C+  ].].b 7.&+%+.+L.,+D+a 7.s p u+f {+-           ",
"    E+5.F+5+f+R.+ ' _ ! _ >+G+Q -.H+I+).Y Y Y Y Y ,.J+K+L+M+4 N+%+S.4  +. > j O+@+k+<+E+].          ",
"    P+k+t 5+9 1 | ! >+>+>+&+Q+R+H+Q S+%.Y Y Y Y Y Y Y Y %.T+U+V+Q+&+~ * ]+W+X+N.R.]+- ].            ",
"    1+Y+o f+Z+. b } { D.>+%+&+`+ @[.c.Y Y Y Y Y Y Y Y Y %..@b.+@9.@@#@^.8 h Z+Z+. j+<+2             ",
"; = #+2 @.> j $@N.^._+3 5 d r 3 & %@&@*@Y Y Y Y Y Y Y Y Y e.=@B.-@;@>@,@:+'@'+'+'@^.@.++            ",
"$@# )@b * $ 6 ! $ t f g r !@ +5+^.^ -   ~@{@]@^@Y Y Y Y Y Y ,.Y /@).M (@_@@./ ; K.:+Z+=             ",
"7.>+d % 0 r 5 >+L.k.^ t j.> o 2       - - b+#+:@<@[@}@^@Y Y Y %.~.M |@U 1@2@/ b+<+8 l+J             ",
">+&+S.L.q L.T.%+4 # ^ ; ;+/ - -         - 3@ +k 4@/ 7+5@=+6@Z T Y.3.U <.h.7@/ ].1+J E+8@].          ",
"%+%+S.D.# % >+>+_ 9@]                   / | 0@a@L.7 f+b@h ; c@d@M S 3.3.e@f@#+                      ",
"6 d d % t [ k : 7 f+-   ].].            h 3 S.&+T.4 } [ 5+g@1+h@i@j@~.j@!.%.k@                      ",
"< g )@5+; J m @.^ l@8+l@#+|+-           8 % S.T.%+S.3 *+[ @.2 |+I.~.U m@-@U n@o@J p@].              ",
"- J J   -     p@; o@o * k.b ].-         J $@L.S.&+0@[+b F+8 |+  q@N o+r@s@t@u@N.Z+<+p@              ",
"              8+v@f+ +~ >+$ h           - ^ O+& ' j :+. v@a+].  w@o+H.p+H.x@y@z@l R.m+              ",
"              2 K.g+) N+A@~ O+2             = ^.e n ^.:+f+9 K.J B@1.Q 9.>.Q C@D@E@t F@              ",
"              8@'+O+4 G@H@I@J@J           J ^.( k , s : a ' @ K@'.L@=.H+;.M@, g+[ F+;+              ",
"              ].J *+6 &+N@s@O@P@Q@R@      {+O+6 d 5 >+%+%+&+S@T@M X X.U@1.V@O+E@E@^.W@  i+i+].].    ",
"              ].].3@X@~ Y@Z@).,.,.`@ #.#/++#@###4 $#%#&#*#=#;.[.&.Y %.f.-#;#*+*+t m 2 9+0+= 2 ].|+a+",
"                  / t 0 >#'.Y ,.Y Y Y Y Y /@2.<.L@[.,#'#,#-.z+>.a.,.Y ,.)#k+9 9 m #+0+o R.. 0+!#/ k+",
"                  - ] n ~#,.,.Y Y Y Y Y Y ,.,.%.{#P ]#^#^#/#H+x@a.,.Z (#  8+m+#+- a+o F+5+}+o W@{+f+",
"                  - -   _#,.Y Y Y Y Y Y /@).!.f.U :#<#[#}#z+M@[.<.A+|#            <+U.[ b *+@+{+++'@",
"                        C+1#2#3#Y Y Y ,.f.Y.S e@4#5#z+<#<#[#G.6#7#8#              <+@+g+b l }+j+b+/ ",
"                                9#0#a#b#c#>@d#O@4#e#f#g#h#i#j#8 - -               J 9 *+E@[ 6+;+  ].",
"                                  8@b+2 <+k+f+t b < k.k#: j @.- -                 p@{+f+F+6+. J     ",
"                    ].].8@|+i+  P+{+j+^ = 7+l+b@N.N.u+l#:+g@#+-                   ].- 9+l+)+a+].    ",
"                    p@m+^ h 8 <+;+@.:+u+@.++a+5.u+f+j+= 7+2 ].                      ].      ].].    ",
"                    !#8 U.c 5+R.'@u+N.c @+g@2 ++l+;+#+p@      ].].].].].  ].                ].      ",
"                    a+R.c [ E@@+9 @+E@b }+h 2 8@8+- ].].        ].l@'+k+<+].].                      ",
"                    P+f b [ E@F+h R.c c n m 1+                  - 8 6+N.:+'+|+].                    ",
"                    8@;+^.5+5+R.++<+. Z+g@7+].                  J 9 [ [ b u+)+p@        ].].  ].].  "};
