/* XPM */
static char * u_xpm[] = {
"50 50 266 2",
"  	c #000000",
". 	c #030000",
"+ 	c #250303",
"@ 	c #3C0808",
"# 	c #3A0808",
"$ 	c #210303",
"% 	c #1A0202",
"& 	c #410A0A",
"* 	c #520F0F",
"= 	c #4C0D0D",
"- 	c #350606",
"; 	c #0B0101",
"> 	c #300505",
", 	c #500E0E",
"' 	c #581111",
") 	c #561010",
"! 	c #530F0F",
"~ 	c #400909",
"{ 	c #160101",
"] 	c #310606",
"^ 	c #4D0D0D",
"/ 	c #551010",
"( 	c #571010",
"_ 	c #3B0808",
": 	c #0E0101",
"< 	c #120101",
"[ 	c #140101",
"} 	c #230303",
"| 	c #340606",
"1 	c #460B0B",
"2 	c #510F0F",
"3 	c #540F0F",
"4 	c #480C0C",
"5 	c #270404",
"6 	c #220303",
"7 	c #090000",
"8 	c #200303",
"9 	c #4A0C0C",
"0 	c #4F0E0E",
"a 	c #390808",
"b 	c #100101",
"c 	c #470B0B",
"d 	c #1E0202",
"e 	c #390707",
"f 	c #4E0E0E",
"g 	c #5B1111",
"h 	c #5D1212",
"i 	c #450B0B",
"j 	c #2A0404",
"k 	c #190202",
"l 	c #5B1212",
"m 	c #5C1212",
"n 	c #510E0E",
"o 	c #350707",
"p 	c #280404",
"q 	c #320606",
"r 	c #470C0C",
"s 	c #430A0A",
"t 	c #260404",
"u 	c #060000",
"v 	c #611313",
"w 	c #631414",
"x 	c #591111",
"y 	c #1B0202",
"z 	c #DF0000",
"A 	c #FF0000",
"B 	c #ED0000",
"C 	c #601313",
"D 	c #621414",
"E 	c #D80F0F",
"F 	c #F50505",
"G 	c #FE0101",
"H 	c #D60000",
"I 	c #1F0303",
"J 	c #360707",
"K 	c #420A0A",
"L 	c #4A0D0D",
"M 	c #DD0D0D",
"N 	c #EC0A0A",
"O 	c #F40606",
"P 	c #FB0202",
"Q 	c #370707",
"R 	c #5A1111",
"S 	c #DC0D0D",
"T 	c #DA1111",
"U 	c #E20E0E",
"V 	c #F60505",
"W 	c #4B0D0D",
"X 	c #641414",
"Y 	c #DF0C0C",
"Z 	c #D91111",
"` 	c #E00F0F",
" .	c #FE0000",
"..	c #EA0202",
"+.	c #3D0909",
"@.	c #661515",
"#.	c #651414",
"$.	c #EB0606",
"%.	c #EB0A0A",
"&.	c #EE0909",
"*.	c #FA0303",
"=.	c #E40505",
"-.	c #240303",
";.	c #691616",
">.	c #F30101",
",.	c #E70404",
"'.	c #330606",
").	c #F50000",
"!.	c #490C0C",
"~.	c #5E1212",
"{.	c #1D0202",
"].	c #3F0909",
"^.	c #2C0505",
"/.	c #F00303",
"(.	c #3E0909",
"_.	c #5F1313",
":.	c #440A0A",
"<.	c #5E1313",
"[.	c #671515",
"}.	c #681515",
"|.	c #C41515",
"1.	c #DF0F0F",
"2.	c #F90303",
"3.	c #C31515",
"4.	c #D31313",
"5.	c #F10707",
"6.	c #581010",
"7.	c #651515",
"8.	c #D41313",
"9.	c #681616",
"0.	c #DB1010",
"a.	c #F70404",
"b.	c #D50000",
"c.	c #170202",
"d.	c #CC1313",
"e.	c #F30606",
"f.	c #CF0505",
"g.	c #290404",
"h.	c #E30A0A",
"i.	c #E40D0D",
"j.	c #C40D0D",
"k.	c #EC0000",
"l.	c #F40101",
"m.	c #D01414",
"n.	c #B61313",
"o.	c #FC0202",
"p.	c #E10707",
"q.	c #440B0B",
"r.	c #D81111",
"s.	c #CB1515",
"t.	c #CC1515",
"u.	c #B01616",
"v.	c #2D0505",
"w.	c #FD0101",
"x.	c #CA1212",
"y.	c #D41212",
"z.	c #C71616",
"A.	c #B11515",
"B.	c #C31414",
"C.	c #F60000",
"D.	c #DE0F0F",
"E.	c #C91515",
"F.	c #B21515",
"G.	c #DD0101",
"H.	c #E80C0C",
"I.	c #CF1010",
"J.	c #FD0000",
"K.	c #F20707",
"L.	c #DC1010",
"M.	c #B91212",
"N.	c #D00707",
"O.	c #F80404",
"P.	c #E30909",
"Q.	c #450000",
"R.	c #CC0808",
"S.	c #BE0E0E",
"T.	c #E30E0E",
"U.	c #F40303",
"V.	c #2E0505",
"W.	c #890000",
"X.	c #B11111",
"Y.	c #CF1414",
"Z.	c #CE1414",
"`.	c #D51212",
" +	c #EA0B0B",
".+	c #5D0505",
"++	c #BB0000",
"@+	c #A21212",
"#+	c #CA1515",
"$+	c #D21313",
"%+	c #E60D0D",
"&+	c #920101",
"*+	c #180000",
"=+	c #EF0000",
"-+	c #8A0F0F",
";+	c #CD1414",
">+	c #D71212",
",+	c #CD0000",
"'+	c #9F0101",
")+	c #520606",
"!+	c #E50D0D",
"~+	c #E10F0F",
"{+	c #F90000",
"]+	c #510000",
"^+	c #721111",
"/+	c #E80808",
"(+	c #DD0202",
"_+	c #D30000",
":+	c #761515",
"<+	c #C01414",
"[+	c #D40101",
"}+	c #A20000",
"|+	c #C50505",
"1+	c #320000",
"2+	c #8E1515",
"3+	c #CB0808",
"4+	c #350000",
"5+	c #F10000",
"6+	c #D11313",
"7+	c #ED0303",
"8+	c #B50000",
"9+	c #770000",
"0+	c #490000",
"a+	c #260000",
"b+	c #550000",
"c+	c #7C0000",
"d+	c #B30202",
"e+	c #D90808",
"f+	c #E10E0E",
"g+	c #DC0000",
"h+	c #C00F0F",
"i+	c #900000",
"j+	c #EF0808",
"k+	c #EA0404",
"l+	c #570404",
"m+	c #EF0404",
"n+	c #BD1111",
"o+	c #C20000",
"p+	c #D90E0E",
"q+	c #730D0D",
"r+	c #D70F0F",
"s+	c #E90B0B",
"t+	c #C50C0C",
"u+	c #B70505",
"v+	c #DE1010",
"w+	c #BF1414",
"x+	c #741414",
"y+	c #C61515",
"z+	c #D20303",
"A+	c #880A0A",
"B+	c #C51212",
"C+	c #D61212",
"D+	c #E80707",
"E+	c #A40F0F",
"F+	c #621313",
"G+	c #C51515",
"H+	c #C81515",
"I+	c #4E0D0D",
"J+	c #840C0C",
"K+	c #BC0202",
"L+	c #E30000",
"M+	c #F70000",
"N+	c #E80000",
"O+	c #CE0000",
"P+	c #9A0000",
"Q+	c #370202",
"                                                .   + @ # $   .   % & * * = - ;                     ",
"                                                              .   > , ' ) ! ~ {                     ",
"                                                                  ] ^ / ( ! _ :                     ",
"< . .                                                     . . [ } | 1 2 3 4 5                       ",
"| 6 7 .                                                     8 _ 1 9 0 ! , a b                       ",
"c # d                                                 .   ; e f * ( g h ) _ <                       ",
", i j                                     . .   b k : .   : ~ ! ( l m g n o :                       ",
"( i p .                                   . < q r s t .   u e / v w x i q y .                       ",
"/ @ %                 z A A A A B           + = h 3 ] u . ; > , C D E F G A A H                     ",
"s p u                 z A A A A B           } i 2 1 t u I J K L 2 * M N O P A H                     ",
"6 ; .                 z A A A A B         . : } j $ : < Q 3 R ^ _ _ S T U V A H                     ",
"  .                   z A A A A B     .     .     7 k > W D X 0 j t Y Z ` F A H                     ",
"                      z A A A  ...% ; .         . 6 +.f R @.#.0 j [ $.%.&.*.A H                     ",
"                      z A A A G =.i +.+ 6 -.{   ; o ! v @.;.X f j . >.*.P G A H                     ",
"                      z A A A  .,.4 3 0 ^ 3 L t 7 '.0 m C C ' s $   ).A A A A H             .   b 6 ",
"            . .       z A A A A B 6 !.g ~.X v i < {.'.@ ~ ].Q + :   ).A A A A H             u $ +.9 ",
"  . . 7 ; 7 . .       z A A A A B   + W h #.@., % . ; < { { k ^.# J /. .A A A H             k _ 3 C ",
"  u + Q (.& q < .     z A A A A B . u > / w _.:.b         d 4 m _.<.E O  .A A H             -.4 h [.",
"  { & ( h ~., j       z A A A A B . . < # W & } .       7 ].v ;.}.}.|.1.2.A A H             8 f X [.",
"  k 4 C X D ) |       z A A A A B   . . : { :   .       { n #.X #.X 3.4.5.A A H             b 1 w [.",
"  ; _ 6._.m = p       z A A A A B                       [ n #.#.7.X |.8.5.A A H               5 2 v ",
"  . I _ 4 1 > :       z A A A A B                       u (.C 9.}.[.|.0.a.A  .b.. .         . u j K ",
"  . . 7 { c.; . .     z A A A A B                     . . % = D [.}.d.N P V e.f.% . b } g.{.7 .     ",
"              .       z A A A A B     7 $ > j [ . .     .   5 1 3 3 h.*.e.i.1.j.| c.j 1 ^ (.d       ",
"                      z A A A A k.; [ o * h l 4 $ .       .   { -.$ l.2.i.8.m.n.f g.Q ( ~.f j       ",
"                      z A A o.V p.# & ( @.;.;.w q.7                 ).O r.s.t.u.~.Q v.^ / q.6       ",
"                      z A w.5.1.x.R m w [.7.7.[.2 b                 ).O y.z.t.A.C ~ [ j ] -.: .     ",
"                      z A P N r.B.X X @.[.[.}.7.9 7                 C.*.D.E.E.F.h a   . u . .       ",
"                      G.w.P O H.I._.X 7.@.@.7.g Q                   J. .K.L.4.M.W 8                 ",
"        . . ; b 7   {.N.N &.F O.P./ w D x / n ].y                 Q.A A G a.&.R.6 .                 ",
"        u -.].L :.] a S.T r.T.V U.1 R ( ~ V.p k .                 W.A A A A A H . .                 ",
"        c.K g X D ! = X.Y.Z.`. +o..++.e $ u       . . . . .   .   ++A A A A A H .                   ",
"        6 ! X @.[.~.3 @+#+t.$+%+o.&+{ : . .         . d @ 1 q . *+=+A A A A A H                     ",
"        {.n #.@.[._.L -+Z.;+>+N w.,+                : s ~.w R @ '+A A A A A A H                     ",
"        ; e ' v D ! v.)+!+~+ +O.A {+]+              I / [.@.7.^+/+ .A A A A A H   . .   .           ",
"      . . { o 1 :.V.; 7 (+2.o. .A  ._+. .           y ! [.[.:+<+i.G A A A A A [+> +.@ v.< .         ",
"        . . . 7 7   .   }+A A A w.O N |+1+.         7 (.~.2+3.`.N  .A A A A w.3+* ) / f | ;         ",
"                        4+5+A A F L.6+i.7+8+9+0+a+b+c+d+e+f+` N *.g+).A A A 2.h+_.x ' R !.d         ",
"                          i+A o.T.s.#+>+j+ .A A A A A A w.O.F a.k+l+m+2.P  .O.n+7.~.h _.f 6         ",
"                            o+V r.#+s.6+%. .A A A A A  .O.N !+p+q+n r+` s+V P t+v #.w l & <         ",
"                              u+v+Z.t.T O A A A A A A w.j+T w+x+#.#.y+t.$+%+*.z+K * , ].8 .         ",
"                              d A+B+C+&.w.A A A A A A w.D+E+F+X ;.9.G+#+H+C+K.H 7 [ [ 7 . .         ",
"                              : v.I+J+K+L+=+{+J.M+N+O+P+Q+'.!.h @.[.@.@.;.X & .                     ",
"                              . < j + . .             . . 7 ] x [.@.@.#.[.D & .                     ",
"                              . .     .                     g.) [.[.@.X @.m '.                      ",
"                                                            {.!.w [.[.[._.r c..                     ",
"                                                            u ] / v C g s % . .                     ",
"                                                            . < ] :.q.- k . .                       ",
"                                                              . . : b u . .                         ",
"                                                                                                    "};
