/* XPM */
static char * y_xpm[] = {
"50 50 401 2",
"  	c #000000",
". 	c #010000",
"+ 	c #140101",
"@ 	c #250303",
"# 	c #2B0404",
"$ 	c #2C0505",
"% 	c #290404",
"& 	c #1A0202",
"* 	c #030000",
"= 	c #160101",
"- 	c #050000",
"; 	c #0D0101",
"> 	c #210303",
", 	c #280404",
"' 	c #2A0404",
") 	c #220303",
"! 	c #0F0101",
"~ 	c #0C0101",
"{ 	c #020000",
"] 	c #2E0000",
"^ 	c #F60000",
"/ 	c #FF0000",
"( 	c #FB0202",
"_ 	c #EF0808",
": 	c #E80808",
"< 	c #460808",
"[ 	c #3A0808",
"} 	c #0B0101",
"| 	c #240303",
"1 	c #270404",
"2 	c #8C0404",
"3 	c #FC0202",
"4 	c #D10000",
"5 	c #0A0101",
"6 	c #C20000",
"7 	c #F60505",
"8 	c #F10707",
"9 	c #F30606",
"0 	c #9C0606",
"a 	c #3C0808",
"b 	c #190202",
"c 	c #260404",
"d 	c #2F0505",
"e 	c #300505",
"f 	c #CF0505",
"g 	c #850000",
"h 	c #200303",
"i 	c #100101",
"j 	c #680000",
"k 	c #F20707",
"l 	c #D60707",
"m 	c #390808",
"n 	c #320606",
"o 	c #040000",
"p 	c #070000",
"q 	c #1D0202",
"r 	c #590505",
"s 	c #F50404",
"t 	c #EC0000",
"u 	c #DD0000",
"v 	c #F70404",
"w 	c #F00808",
"x 	c #710909",
"y 	c #1F0303",
"z 	c #150101",
"A 	c #0E0101",
"B 	c #330606",
"C 	c #350707",
"D 	c #2D0505",
"E 	c #B20303",
"F 	c #FC0101",
"G 	c #FE0000",
"H 	c #AF0000",
"I 	c #1B0202",
"J 	c #080000",
"K 	c #970000",
"L 	c #F90303",
"M 	c #BF0303",
"N 	c #3E0909",
"O 	c #380707",
"P 	c #340606",
"Q 	c #EC0101",
"R 	c #FB0000",
"S 	c #470000",
"T 	c #1C0000",
"U 	c #F20000",
"V 	c #2A0000",
"W 	c #1E0303",
"X 	c #3B0808",
"Y 	c #370707",
"Z 	c #2B0505",
"` 	c #170202",
" .	c #1F0202",
"..	c #8A0303",
"+.	c #CF0000",
"@.	c #B90000",
"#.	c #9D0000",
"$.	c #180202",
"%.	c #2E0505",
"&.	c #CF0303",
"*.	c #F80404",
"=.	c #FD0101",
"-.	c #810000",
";.	c #560000",
">.	c #FD0000",
",.	c #DF0000",
"'.	c #360707",
").	c #110101",
"!.	c #510101",
"~.	c #F70303",
"{.	c #F50505",
"].	c #EA0000",
"^.	c #D50000",
"/.	c #120101",
"(.	c #1C0202",
"_.	c #B30000",
":.	c #FA0303",
"<.	c #AC0101",
"[.	c #8A0000",
"}.	c #BE0303",
"|.	c #ED0000",
"1.	c #F90404",
"2.	c #F00707",
"3.	c #EE0909",
"4.	c #EA0909",
"5.	c #4F0606",
"6.	c #F60404",
"7.	c #E70808",
"8.	c #410606",
"9.	c #880101",
"0.	c #F30707",
"a.	c #EA0B0B",
"b.	c #EC0A0A",
"c.	c #C00A0A",
"d.	c #430A0A",
"e.	c #260303",
"f.	c #AF0101",
"g.	c #FE0101",
"h.	c #ED0909",
"i.	c #970A0A",
"j.	c #470C0C",
"k.	c #460B0B",
"l.	c #D20000",
"m.	c #800A0A",
"n.	c #440B0B",
"o.	c #4B0202",
"p.	c #CE0B0B",
"q.	c #4E0E0E",
"r.	c #4B0D0D",
"s.	c #0C0000",
"t.	c #060000",
"u.	c #4D0101",
"v.	c #F90202",
"w.	c #D80A0A",
"x.	c #440A0A",
"y.	c #0B0000",
"z.	c #1E0202",
"A.	c #CD0000",
"B.	c #700C0C",
"C.	c #420A0A",
"D.	c #2A0505",
"E.	c #AE0505",
"F.	c #F40606",
"G.	c #A50808",
"H.	c #310606",
"I.	c #7C0000",
"J.	c #F70505",
"K.	c #BA0606",
"L.	c #DF0808",
"M.	c #F10808",
"N.	c #F70101",
"O.	c #440303",
"P.	c #490D0D",
"Q.	c #4F0E0E",
"R.	c #220202",
"S.	c #3D0909",
"T.	c #400A0A",
"U.	c #390707",
"V.	c #E50101",
"W.	c #F30000",
"X.	c #2E0202",
"Y.	c #860707",
"Z.	c #C80202",
"`.	c #5D1212",
" +	c #601313",
".+	c #611313",
"++	c #621313",
"@+	c #490C0C",
"#+	c #3B0707",
"$+	c #130101",
"%+	c #A40303",
"&+	c #F50606",
"*+	c #9A0101",
"=+	c #C80707",
"-+	c #790202",
";+	c #4A0D0D",
">+	c #5A1111",
",+	c #591111",
"'+	c #631313",
")+	c #350606",
"!+	c #190101",
"~+	c #090000",
"{+	c #460606",
"]+	c #EC0606",
"^+	c #4D0202",
"/+	c #F00606",
"(+	c #DF0505",
"_+	c #5E1212",
":+	c #5C1212",
"<+	c #3E0808",
"[+	c #230303",
"}+	c #270303",
"|+	c #BC0808",
"1+	c #630000",
"2+	c #B00000",
"3+	c #A60202",
"4+	c #470B0B",
"5+	c #641414",
"6+	c #691616",
"7+	c #540F0F",
"8+	c #0D0000",
"9+	c #410A0A",
"0+	c #6F0404",
"a+	c #F80303",
"b+	c #FD0202",
"c+	c #BE0000",
"d+	c #EB0000",
"e+	c #F40202",
"f+	c #3A0101",
"g+	c #230202",
"h+	c #551010",
"i+	c #400909",
"j+	c #3B0909",
"k+	c #480C0C",
"l+	c #DE0101",
"m+	c #EF0303",
"n+	c #260101",
"o+	c #840000",
"p+	c #C80000",
"q+	c #160202",
"r+	c #460C0C",
"s+	c #500E0E",
"t+	c #200202",
"u+	c #500F0F",
"v+	c #9A0202",
"w+	c #E90B0B",
"x+	c #970303",
"y+	c #D00000",
"z+	c #770404",
"A+	c #370606",
"B+	c #4D0D0D",
"C+	c #4C0D0D",
"D+	c #3F0909",
"E+	c #4A0C0C",
"F+	c #480B0B",
"G+	c #3D0808",
"H+	c #410707",
"I+	c #DA0E0E",
"J+	c #E20E0E",
"K+	c #E40D0D",
"L+	c #E30E0E",
"M+	c #D60404",
"N+	c #DF0303",
"O+	c #250404",
"P+	c #0A0000",
"Q+	c #450B0B",
"R+	c #2E0404",
"S+	c #AF0D0D",
"T+	c #E50D0D",
"U+	c #600000",
"V+	c #A10303",
"W+	c #4D0E0E",
"X+	c #4D0C0C",
"Y+	c #4E0D0D",
"Z+	c #520F0F",
"`+	c #300606",
" @	c #410909",
".@	c #6A0C0C",
"+@	c #E50C0C",
"@@	c #E70C0C",
"#@	c #BD0000",
"$@	c #F70000",
"%@	c #380101",
"&@	c #510F0F",
"*@	c #561010",
"=@	c #310505",
"-@	c #C70B0B",
";@	c #C50000",
">@	c #530F0F",
",@	c #571010",
"'@	c #290505",
")@	c #8D0909",
"!@	c #EE0000",
"~@	c #700000",
"{@	c #1A0101",
"]@	c #550F0F",
"^@	c #581010",
"/@	c #631414",
"(@	c #E10707",
"_@	c #DF0202",
":@	c #5B1212",
"<@	c #651515",
"[@	c #380808",
"}@	c #541010",
"|@	c #560F0F",
"1@	c #5F1313",
"2@	c #B10202",
"3@	c #EA0A0A",
"4@	c #F20606",
"5@	c #9C0808",
"6@	c #150202",
"7@	c #510E0E",
"8@	c #4B0000",
"9@	c #E10F0F",
"0@	c #E30D0D",
"a@	c #DF0C0C",
"b@	c #540D0D",
"c@	c #100000",
"d@	c #3F0A0A",
"e@	c #EF0909",
"f@	c #EB0A0A",
"g@	c #B50D0D",
"h@	c #5B1111",
"i@	c #2C0404",
"j@	c #3C0707",
"k@	c #800000",
"l@	c #E80C0C",
"m@	c #720B0B",
"n@	c #6A1616",
"o@	c #140202",
"p@	c #340707",
"q@	c #E80000",
"r@	c #E60D0D",
"s@	c #D10909",
"t@	c #681616",
"u@	c #6D1717",
"v@	c #621414",
"w@	c #C30000",
"x@	c #9B0404",
"y@	c #2D0404",
"z@	c #450A0A",
"A@	c #6F1717",
"B@	c #6E1717",
"C@	c #F00000",
"D@	c #F50000",
"E@	c #2E0101",
"F@	c #5E1313",
"G@	c #3A0707",
"H@	c #8D0000",
"I@	c #BF0101",
"J@	c #420909",
"K@	c #D70000",
"L@	c #680202",
"M@	c #671515",
"N@	c #370808",
"O@	c #650505",
"P@	c #DE0000",
"Q@	c #611414",
"R@	c #651414",
"S@	c #661515",
"T@	c #BC0B0B",
"U@	c #9B0000",
"V@	c #0E0000",
"W@	c #5F1212",
"X@	c #6C1717",
"Y@	c #641515",
"Z@	c #7D1313",
"`@	c #E70B0B",
" #	c #EE0202",
".#	c #300303",
"+#	c #681515",
"@#	c #6B1616",
"##	c #6B1313",
"$#	c #CA1010",
"%#	c #AB0808",
"&#	c #6C1616",
"*#	c #680606",
"=#	c #A20909",
"-#	c #E10808",
";#	c #E90606",
">#	c #510909",
",#	c #A30404",
"'#	c #581111",
")#	c #D80404",
"!#	c #1D0101",
"~#	c #240404",
"{#	c #D60D0D",
"]#	c #620C0C",
"^#	c #0F0000",
"/#	c #2C0303",
"(#	c #320505",
"_#	c #E60C0C",
":#	c #DF0F0F",
"<#	c #C20E0E",
"[#	c #660F0F",
"}#	c #360606",
"|#	c #E80B0B",
"1#	c #DE0D0D",
"2#	c #D10D0D",
"3#	c #BA0B0B",
"4#	c #7F0D0D",
"                      .           . .                           + @ # $ % & *                       ",
". .                 . .   = $ $ +   .                   . . - ; = > , ' ) !                         ",
"~ { .           ] ^ / / ( _ : < [ +   .                   } & > | 1 ' 2 3 / / / / 4                 ",
"& 5               6 / / 7 8 9 0 a $                 .   * b c % $ d e f ( / / / / g                 ",
"h i               j / / ( _ k l m n     . {   o p * {   * q ' $ d e r s 3 / / / t                   ",
"h ! .               u / / v k w x y   . { o z | > A { . . b # B C D E F G / / / H                   ",
"I J                 K / / / L 7 M         A d N O ) . . * + 1 B P % Q / / / / R S                   ",
"! .                 T U / / / / ^ V . .   W X a Y Z ~ 5 `  .| , % ..( F G / / +.                    ",
"* .                   @./ / / / / #.    . @ d d d ' ! $.' %.@ & & &.7 *.=./ / -.                    ",
".                     ;.>./ / / / ,..     I 1 D %.| + | P '.1 ).!.~.{.v =./ ]..                     ",
"                        ^./ / G G / j /.$.(.| % % y c %.O '.1 )._.F :.*.*.L <.. .                   ",
"                        [./ / =.:.( }.D D %.$ %.Z ' B Y [ '.c ).|.G 1.2.3.4.5.A .                   ",
"                    .     |./ =.:.6.7.8.a a C '.%.Z e B n D y 9./ =.0.a.b.c.d.e.          .   o ~ ! ",
"          . .   . .     A f./ / g.L h.i.j.k.Y e.q = I q q $.A l./ =.0.a.h.m.n.B           . } I | @ ",
". . { * { . .       ! # B o.R / / g.{.p.q.r.B s.. * - t.t.p u.v.3 =.L h.w.x.n.%.  . .   . y.I ' n B ",
". A $.(.z.z o .     (.n n y A./ / G L _ B.C.D.y.*       5 ) E.F.F.v ( v G.N Y `   .   J & c d C O O ",
"t.z.$ e H.1 i   .   ; I & ~ I./ ( *.L J.K.d D.@ `   . { q B L.M.M.8 v N.O.| ` % P.Q.'.R.H.C S.T.U.Y ",
"p ) B '.P $ =     .           V.*.8 {.( W.X.d Y >     t., Y.k k k 8 F.Z.{   B `. +.+++@+#+'.N n.[ '.",
"* & D n e @ ! .     .     t.$+%+&+3.&+3 / *+@ $ &     - , =+k k k 8 F.-+    ;+`.>+,+'+>+N '.O [ )+n ",
". 5 & @ , !+o * 5 ~+{ . * q # {+]+_ {.( / u ! + ~+  . . ^+/+w M.8 8 (+i   { P _+_+:+.+`.<+)+e [+z.z.",
". . { y.e.n q q 1 }+= - J @ P a |+_ {.3 / G 1+    . . . 2+L 9 8 8 F.3+J $+` z 4+_+5+6+7+[ P , ~+  8+",
"    .   . h O [ 9+4+)++   & | 1 0+a+( b+=.=.c+. .     . d+=.:.v v e+f+= D.B D g+@+,+h+j.i+j+% 5 e x.",
"      .   o Z x.j.k+n.| . { J } A l+3 v F.{.m+n+.     o+/ / G g.g.p+q+B C.x.d.X O [ r+;+n.m @ %.s+s+",
"        . - t+n.u+Q.n.> { t.).$.& v+F.b.w+b.0.x+*     y+/ / / / =.z+A+C.@+B+C+k+S.D+E+F+O [+).G+B+B+",
"          t.y a Q.@+C ).- b % d %.H+I+J+K+L+w+M+o   S R / / / G N+[ C.@+q.B+C+P.N a x.G+O+P+* d Q+Q.",
"          o = $ C %.I J z.R+n C Y @+S+T+T+T+L+9 U+. H / / / / G V+n C F+W+X+Y+Z+[ e B d , `+P '.9+k+",
"          . t.+ I + s.}+C  @9+'.'.C+.@+@T+@@@@&+#@  ]./ / / / $@%@` z %.@+;+Z+&@'.|  .' @+*@s+q.q.s+",
"      . . o - {   ~+) a @+k.Q+S.=@k+E+-@a.b.b.a+W.g / / / / / ;@  . { 8+n n.@+k+Y  .5 Z >@*@&@>@,@>+",
"      . ; (.| y + b n s+>+,@r.S.'@)+k+)@3._ 8 g./ !@=./ / / / ~@    s. .$ '.Q+r.U.z.* {@B+*@*@]@s+4+",
"      t. .d C P ' @ U.^@6+/@&@)+(.(.%.U.(@k ( / =.v F.&+F =._@> $.p $+D d.:@<@>+S. .  * [@}@.+_+x.z.",
"  . . ~ ' '.O U.m Y S.|@1@:@@+R.~+t.* + 2@g./ g.v 0.3.3@h.4@5@Q+C b ).# k+ +/@}@C ` p 6@B P.7+7@[ z.",
".     ~+' Y [ k.r.k.4+k+B+j.d y.* .     8@R / ( k 0.3@9@0@a@b@>@x.y p $.$ <+i+H.(.c@d Q+k.T.D+d@k.Q+",
"  . + [+%.[ d.r.k.O D+C.# > ).o .         y+/ L e@k f@J+T+g@q.q.9+`   - t.~+P+~+/.$ P._+,@G+b e Q.h@",
"  /.i@U.U.[ D+d@X '.O j@@ | c ) } * . .   k@/ ( 3.2.a.T+l@m@s+@+n ~ .   * . s.D k+*@ +n@`.G+o@) T.B+",
"  ~ @ %.Y )+[ O X U.S.p@P m a O e.z.+   .   q@/ {.e@_ r@s@i+;+a I {       - }+&@5+t@n@u@v@C.q+-  .' ",
"} p A q ' B C C C P =@' X C.i+D+[ B c 5     w@/ g.*.{.6.x@y@z@}@D+' d $ i ! m 1@t@A@A@B@<@4+o@      ",
"' | J   I d X % z.I $.= n S.G+T.N U.e I * 8+C@/ / / / D@E@+ $+[ ,@*@,@.+r.| O >+1@v@5+F@*@U.~+      ",
"n Y ,   A ) % q o   . p (.% =@U.G@O P y o H@/ / / / / I@z.@ c c Q+h@:+ +:+O y@@+|@*@7+W+J@q   . o * ",
"U.P H.A   } } .   . . . . J b i@'.G@=@{@* K@/ / / / G L@D P C '.O Z+v@M@.+N@+ %.k+C+E+d.G@T.C+d.% /.",
"U.'.e A         .           5 %.7+^@7@Y+O@>./ / / / P@$.' P a T.j+i+:+Q@&@1   y.@ B '.9+ +R@S@n@`.'.",
"Y n [+*                     ! d.1@M@<@:+T@( / / / / U@V@t+U.@+Y+@+G+S.9+Y z.o   * ).q >@W@v@S@M@X@,@",
"z z *   .     .             ` T.,+Y@.+Z@`@3 / / =. #.#[+d x.7@7+>@k+Y O P  ..       z.>+>+.++#S@@#.+",
"      .   - {   .           p C C+>+##$#{.G / 3 7 %#m a k+s+7+>@7+s+O O e z         y.>@1@R@&#M@X@:+",
"    .   i ' D     .       . { X.*#=#-#v / / / ( ;#>#n.q.Q.Q.h+,+]@C+U.n ) t..     {   Z _+<@X@&#6+u+",
"        % S.'.q       ;./ / / / G F =./ / G g.=.,#n C.7@q.W+&@,@7@i+d y J . *     {     N '#5+M@>@G@",
"      z a O Y d t.    ;./ / / / >.=.F 3 1.7 7 )#!#q )+Z+Z+@+E+@+m $ U.D+D V@{ {     {   . e.P H.}+~#",
"  .   ) U.C a # .     ;./ / g.v.k 3.w k h.r@{#]#=@^#) G+B+k.G+/#e.r. +5+/@4+b         {   .       (#",
"      = d O n !   .   ;./ / ( M._#:#T+l@K+<#[#Z+k+y ).[+}#d.z@z@q._+.+h@ +1@B - .                 X ",
"  .   ~ > C &     .   ;./ G *.b.|#1#2#3#4#>@7+s+q.d { e.E+`._+h@:+`.`.:+_+.+ @e.{ .               B ",
"        i [+.   .         - | 9+d.x.@+k+n.s+>@Q.r.d { b T.Q.h@h@1@_+.+ +S@1@F+G+# ~+.             y."};
