/* XPM */
static char * wall5_xpm[] = {
"50 50 912 2",
"  	c None",
". 	c #936A19",
"+ 	c #976D1A",
"@ 	c #996E1B",
"# 	c #9C7E24",
"$ 	c #9B7A21",
"% 	c #9A6E1B",
"& 	c #976C1A",
"* 	c #886117",
"= 	c #926819",
"- 	c #996E1A",
"; 	c #956C1A",
"> 	c #916819",
", 	c #946A19",
"' 	c #9E721B",
") 	c #A7781D",
"! 	c #AA7A1E",
"~ 	c #AA7B1E",
"{ 	c #A97D20",
"] 	c #A4922E",
"^ 	c #A5902B",
"/ 	c #AA7C1F",
"( 	c #A97A1D",
"_ 	c #9C701B",
": 	c #9F721C",
"< 	c #A4761C",
"[ 	c #966C1A",
"} 	c #A6771D",
"| 	c #AC7C1E",
"1 	c #AB7B1D",
"2 	c #AB7A1C",
"3 	c #AA7C1D",
"4 	c #A98323",
"5 	c #A39931",
"6 	c #A6761B",
"7 	c #A5781C",
"8 	c #AB7B1E",
"9 	c #9F721B",
"0 	c #906819",
"a 	c #AD7D1F",
"b 	c #B8892B",
"c 	c #C99D3F",
"d 	c #CEA448",
"e 	c #CFA548",
"f 	c #CBAE46",
"g 	c #CBAD46",
"h 	c #CEA547",
"i 	c #B89F3D",
"j 	c #B99F3D",
"k 	c #B59E3B",
"l 	c #A39A32",
"m 	c #B59E3C",
"n 	c #C0A041",
"o 	c #B39D3B",
"p 	c #C7A344",
"q 	c #CEA246",
"r 	c #C29537",
"s 	c #B18224",
"t 	c #AB7C1E",
"u 	c #9D711B",
"v 	c #B48426",
"w 	c #D7AE52",
"x 	c #F0CD73",
"y 	c #F6D176",
"z 	c #F7CF74",
"A 	c #F7CF73",
"B 	c #D4CE57",
"C 	c #D1CE55",
"D 	c #F6CF72",
"E 	c #F5CE72",
"F 	c #E5C267",
"G 	c #DCBD61",
"H 	c #E4C266",
"I 	c #F1CB6F",
"J 	c #BBA849",
"K 	c #A69C35",
"L 	c #A99E38",
"M 	c #A99C38",
"N 	c #E1C064",
"O 	c #E7C468",
"P 	c #E2C165",
"Q 	c #F3CC70",
"R 	c #F7D074",
"S 	c #F5D177",
"T 	c #E8C369",
"U 	c #C5993B",
"V 	c #AD7D1E",
"W 	c #A7791D",
"X 	c #B48526",
"Y 	c #E2BB5F",
"Z 	c #F5CA6D",
"` 	c #EEB755",
" .	c #EBAF4B",
"..	c #EAAD48",
"+.	c #DDB845",
"@.	c #DBB845",
"#.	c #C2CA40",
"$.	c #BFCC40",
"%.	c #DDB745",
"&.	c #E5B147",
"*.	c #E4AB46",
"=.	c #B39D37",
"-.	c #A49A32",
";.	c #A99B34",
">.	c #BEA03A",
",.	c #B19D37",
"'.	c #A59B33",
").	c #B69E38",
"!.	c #AB9C35",
"~.	c #A59A33",
"{.	c #AD9C35",
"].	c #DEA944",
"^.	c #EAAD49",
"/.	c #ECB14E",
"(.	c #F1C060",
"_.	c #F2CC71",
":.	c #CBA043",
"<.	c #9E721C",
"[.	c #986D1A",
"}.	c #D7AD50",
"|.	c #F2C162",
"1.	c #EAAC47",
"2.	c #E8AA44",
"3.	c #DEB443",
"4.	c #D9B842",
"5.	c #E0B244",
"6.	c #CAC541",
"7.	c #BDCD3F",
"8.	c #BCCD3F",
"9.	c #BBCE3F",
"0.	c #C1CA40",
"a.	c #BECC3F",
"b.	c #D9B843",
"c.	c #DAB743",
"d.	c #D7B542",
"e.	c #B29F36",
"f.	c #AE9C35",
"g.	c #E1A843",
"h.	c #E9AA45",
"i.	c #E9AA44",
"j.	c #E9A944",
"k.	c #EDB351",
"l.	c #EEC467",
"m.	c #BE9032",
"n.	c #A3751C",
"o.	c #9A6F1B",
"p.	c #BA8B2D",
"q.	c #EBBC5D",
"r.	c #EAAC48",
"s.	c #E7AC45",
"t.	c #C8C541",
"u.	c #C1C940",
"v.	c #C1CB40",
"w.	c #BCCE3F",
"x.	c #C0CA40",
"y.	c #B8A538",
"z.	c #B79E37",
"A.	c #E6A944",
"B.	c #EEB553",
"C.	c #D8AC4E",
"D.	c #A5771D",
"E.	c #CB9B3B",
"F.	c #CEC141",
"G.	c #C6C740",
"H.	c #C9A53C",
"I.	c #C3A03B",
"J.	c #E8AA45",
"K.	c #EAAB46",
"L.	c #E5B14F",
"M.	c #CD9938",
"N.	c #D3BD42",
"O.	c #BBCF3F",
"P.	c #BACB3E",
"Q.	c #B8B43B",
"R.	c #B59E37",
"S.	c #B29C36",
"T.	c #CBA23D",
"U.	c #E3A843",
"V.	c #E5AB47",
"W.	c #B58425",
"X.	c #CB9431",
"Y.	c #EAAB45",
"Z.	c #B9C93E",
"`.	c #AFB438",
" +	c #A49B32",
".+	c #C9A23C",
"++	c #E7A944",
"@+	c #E8A944",
"#+	c #E3A640",
"$+	c #B48223",
"%+	c #CB922F",
"&+	c #E9AB45",
"*+	c #DAB341",
"=+	c #CAC340",
"-+	c #B9CA3E",
";+	c #ACB236",
">+	c #A7A434",
",+	c #A49D33",
"'+	c #A59A32",
")+	c #D0A33E",
"!+	c #E4A642",
"~+	c #E6A844",
"{+	c #E3A53F",
"]+	c #B48222",
"^+	c #CB9230",
"/+	c #DEAF41",
"(+	c #B4BF35",
"_+	c #B9CD3E",
":+	c #A9AF34",
"<+	c #958D28",
"[+	c #A09730",
"}+	c #B89D37",
"|+	c #A6781D",
"1+	c #E3AD43",
"2+	c #B8BD36",
"3+	c #B8CB3C",
"4+	c #ABB335",
"5+	c #968D28",
"6+	c #A19830",
"7+	c #A49932",
"8+	c #CBA03C",
"9+	c #DEA13E",
"0+	c #A77820",
"a+	c #A0731C",
"b+	c #9B6F1B",
"c+	c #EAAA45",
"d+	c #D1B43D",
"e+	c #B6C739",
"f+	c #BACD3E",
"g+	c #B7C83D",
"h+	c #9B972B",
"i+	c #9A912C",
"j+	c #A2952F",
"k+	c #BC9F38",
"l+	c #D8A841",
"m+	c #E7A844",
"n+	c #AD7D2C",
"o+	c #7D5A18",
"p+	c #7C5918",
"q+	c #D4B13E",
"r+	c #AFBF34",
"s+	c #B2C537",
"t+	c #B5C839",
"u+	c #B7CA3B",
"v+	c #B8CB3D",
"w+	c #B9CD3D",
"x+	c #A9B233",
"y+	c #9B942C",
"z+	c #A29932",
"A+	c #A29931",
"B+	c #AC9833",
"C+	c #ACA135",
"D+	c #B3A538",
"E+	c #E6AA44",
"F+	c #BE8A33",
"G+	c #99762F",
"H+	c #B59346",
"I+	c #B69446",
"J+	c #B49346",
"K+	c #E4AE43",
"L+	c #B6B934",
"M+	c #AABD30",
"N+	c #ABBE31",
"O+	c #ADC032",
"P+	c #B1C436",
"Q+	c #B0C335",
"R+	c #AEC133",
"S+	c #B3C638",
"T+	c #AFC234",
"U+	c #ABB833",
"V+	c #989229",
"W+	c #978D29",
"X+	c #9E952F",
"Y+	c #9D942E",
"Z+	c #A19831",
"`+	c #9D942D",
" @	c #9E952E",
".@	c #988F2A",
"+@	c #96912A",
"@@	c #9EA132",
"#@	c #C9A73D",
"$@	c #C3A63C",
"%@	c #C99739",
"&@	c #98732B",
"*@	c #CEA249",
"=@	c #BE8E2F",
"-@	c #B5882A",
";@	c #B08429",
">@	c #DCB041",
",@	c #AFBD31",
"'@	c #ABBE30",
")@	c #AABE30",
"!@	c #A9BA30",
"~@	c #9A992A",
"{@	c #928826",
"]@	c #938A27",
"^@	c #968D29",
"/@	c #958C28",
"(@	c #9C932D",
"_@	c #9B922C",
":@	c #9A912B",
"<@	c #978E29",
"[@	c #9F962F",
"}@	c #948B27",
"|@	c #928926",
"1@	c #96952C",
"2@	c #9AA332",
"3@	c #9CA132",
"4@	c #998C2D",
"5@	c #AB9F3B",
"6@	c #C4A63C",
"7@	c #B28222",
"8@	c #A5761C",
"9@	c #B9BA36",
"0@	c #A1A92D",
"a@	c #938A26",
"b@	c #948B28",
"c@	c #99902A",
"d@	c #978E2A",
"e@	c #938C27",
"f@	c #989E30",
"g@	c #98A332",
"h@	c #98A232",
"i@	c #AEA335",
"j@	c #B38423",
"k@	c #CB9330",
"l@	c #C8AA3A",
"m@	c #A7B82F",
"n@	c #9EA12B",
"o@	c #938C28",
"p@	c #989D30",
"q@	c #BBA338",
"r@	c #C2942B",
"s@	c #A5A72C",
"t@	c #9FB12D",
"u@	c #A6B82F",
"v@	c #A8BB2F",
"w@	c #A7B52F",
"x@	c #979228",
"y@	c #938B27",
"z@	c #979A2E",
"A@	c #AE9E33",
"B@	c #B18725",
"C@	c #B69529",
"D@	c #9BA72F",
"E@	c #95A52A",
"F@	c #9AAB2B",
"G@	c #9BAC2B",
"H@	c #A0B22D",
"I@	c #9FB02D",
"J@	c #A5B72E",
"K@	c #A2B42E",
"L@	c #969B29",
"M@	c #928A26",
"N@	c #908F2A",
"O@	c #97A131",
"P@	c #9F992D",
"Q@	c #AC7E1F",
"R@	c #B28B25",
"S@	c #9BA52E",
"T@	c #93A329",
"U@	c #92A229",
"V@	c #99AA2B",
"W@	c #94A429",
"X@	c #98A82A",
"Y@	c #94A42A",
"Z@	c #9AAC2B",
"`@	c #929D28",
" #	c #7F7921",
".#	c #8E8525",
"+#	c #908725",
"@#	c #7F7821",
"##	c #8F942C",
"$#	c #98A432",
"%#	c #94962E",
"&#	c #97781F",
"*#	c #9E711B",
"=#	c #9B701B",
"-#	c #A6771C",
";#	c #956D1C",
">#	c #97862B",
",#	c #98A32D",
"'#	c #888D25",
")#	c #7C7420",
"!#	c #8A8124",
"~#	c #8A8224",
"{#	c #918826",
"]#	c #8C8424",
"^#	c #8B8324",
"/#	c #908726",
"(#	c #7D7520",
"_#	c #868627",
":#	c #969A31",
"<#	c #857021",
"[#	c #8A6317",
"}#	c #8E7123",
"|#	c #A19538",
"1#	c #9DA334",
"2#	c #98A52F",
"3#	c #8F9B28",
"4#	c #828022",
"5#	c #78711F",
"6#	c #807821",
"7#	c #867E23",
"8#	c #857D22",
"9#	c #898123",
"0#	c #8D8424",
"a#	c #8C8425",
"b#	c #8B8224",
"c#	c #837B22",
"d#	c #847C22",
"e#	c #7E7621",
"f#	c #877E23",
"g#	c #827A22",
"h#	c #807C23",
"i#	c #92992E",
"j#	c #989F31",
"k#	c #B39743",
"l#	c #AA8A40",
"m#	c #998132",
"n#	c #999A32",
"o#	c #99A332",
"p#	c #99A530",
"q#	c #878B25",
"r#	c #79721F",
"s#	c #7A7320",
"t#	c #7E7721",
"u#	c #898023",
"v#	c #8C8324",
"w#	c #837C22",
"x#	c #877F23",
"y#	c #7A7220",
"z#	c #7B7420",
"A#	c #79711F",
"B#	c #797220",
"C#	c #77701F",
"D#	c #868526",
"E#	c #95A130",
"F#	c #939E2E",
"G#	c #95A030",
"H#	c #96A130",
"I#	c #91972A",
"J#	c #A28725",
"K#	c #AD9138",
"L#	c #90962A",
"M#	c #97A231",
"N#	c #99A432",
"O#	c #97A72C",
"P#	c #7C7721",
"Q#	c #7B7320",
"R#	c #7C7520",
"S#	c #8E942B",
"T#	c #8F9A2B",
"U#	c #8A9528",
"V#	c #909B2C",
"W#	c #8D982A",
"X#	c #879226",
"Y#	c #8C9025",
"Z#	c #8F791E",
"`#	c #9A701A",
" $	c #9A8C25",
".$	c #949F2F",
"+$	c #9AA631",
"@$	c #9AA82F",
"#$	c #99A72E",
"$$	c #96A62B",
"%$	c #97A62C",
"&$	c #8F9928",
"*$	c #7C7621",
"=$	c #797320",
"-$	c #878B26",
";$	c #899427",
">$	c #889326",
",$	c #8C8823",
"'$	c #9A701B",
")$	c #998A23",
"!$	c #8B9628",
"~$	c #929D2D",
"{$	c #94A02E",
"]$	c #97A52D",
"^$	c #939F2D",
"/$	c #92A02A",
"($	c #93A02C",
"_$	c #95A42B",
":$	c #8F9C29",
"<$	c #807E23",
"[$	c #7D7921",
"}$	c #879026",
"|$	c #907E20",
"1$	c #957B1F",
"2$	c #8A9126",
"3$	c #8B9629",
"4$	c #889327",
"5$	c #8C9829",
"6$	c #8C9729",
"7$	c #899527",
"8$	c #889226",
"9$	c #7E7B21",
"0$	c #878F25",
"a$	c #878D24",
"b$	c #88771E",
"c$	c #967B1F",
"d$	c #8B9125",
"e$	c #858B25",
"f$	c #7A7420",
"g$	c #848824",
"h$	c #869126",
"i$	c #848F25",
"j$	c #859025",
"k$	c #7E8823",
"l$	c #787A1F",
"m$	c #8D791E",
"n$	c #858D25",
"o$	c #837520",
"p$	c #78701F",
"q$	c #7F8423",
"r$	c #838E25",
"s$	c #818C24",
"t$	c #7B8522",
"u$	c #788121",
"v$	c #7C8623",
"w$	c #798322",
"x$	c #747C20",
"y$	c #7E791F",
"z$	c #7B7C20",
"A$	c #7E8923",
"B$	c #858F25",
"C$	c #879126",
"D$	c #828D25",
"E$	c #818A24",
"F$	c #7F7E22",
"G$	c #9E8323",
"H$	c #947C22",
"I$	c #9A7F22",
"J$	c #7C721F",
"K$	c #7A7120",
"L$	c #796F21",
"M$	c #7B7221",
"N$	c #7F7320",
"O$	c #7E7321",
"P$	c #797420",
"Q$	c #797620",
"R$	c #787920",
"S$	c #797520",
"T$	c #7A7921",
"U$	c #797D21",
"V$	c #737A20",
"W$	c #747D20",
"X$	c #788222",
"Y$	c #6F781F",
"Z$	c #717A20",
"`$	c #72781F",
" %	c #84741D",
".%	c #87781F",
"+%	c #727B20",
"@%	c #768021",
"#%	c #7D8723",
"$%	c #7F8923",
"%%	c #808A24",
"&%	c #818B24",
"*%	c #757F21",
"=%	c #7F8924",
"-%	c #778121",
";%	c #727D20",
">%	c #827B27",
",%	c #B6882D",
"'%	c #CE9627",
")%	c #CE9527",
"!%	c #837621",
"~%	c #B48B25",
"{%	c #A27828",
"]%	c #7C5E29",
"^%	c #7D7122",
"/%	c #9B7432",
"(%	c #8B7329",
"_%	c #7C731E",
":%	c #9A7E30",
"<%	c #B08547",
"[%	c #867528",
"}%	c #76741F",
"|%	c #727820",
"1%	c #737720",
"2%	c #71771F",
"3%	c #747720",
"4%	c #737820",
"5%	c #747820",
"6%	c #6E781F",
"7%	c #6E771F",
"8%	c #7A781F",
"9%	c #79731D",
"0%	c #717B20",
"a%	c #727C20",
"b%	c #7A7825",
"c%	c #B78635",
"d%	c #D59728",
"e%	c #DC9B26",
"f%	c #BF8F25",
"g%	c #D99B28",
"h%	c #B57A2C",
"i%	c #7F542E",
"j%	c #977031",
"k%	c #AE713E",
"l%	c #A47533",
"m%	c #B08531",
"n%	c #B1844A",
"o%	c #BB7C4F",
"p%	c #9A7433",
"q%	c #757720",
"r%	c #71781F",
"s%	c #777820",
"t%	c #6F771F",
"u%	c #70781F",
"v%	c #82771E",
"w%	c #847D2A",
"x%	c #6D771F",
"y%	c #7A7924",
"z%	c #B47F47",
"A%	c #C88D53",
"B%	c #C98F3F",
"C%	c #CC932D",
"D%	c #D49824",
"E%	c #B0792B",
"F%	c #835331",
"G%	c #A76B3C",
"H%	c #AF703E",
"I%	c #B0713E",
"J%	c #BA7C4A",
"K%	c #B77A4A",
"L%	c #AA6D3D",
"M%	c #8C6231",
"N%	c #737422",
"O%	c #76791F",
"P%	c #87741D",
"Q%	c #9A8830",
"R%	c #817827",
"S%	c #B47A48",
"T%	c #C78A60",
"U%	c #C88C62",
"V%	c #C88C59",
"W%	c #C78C46",
"X%	c #A57230",
"Y%	c #8E5A34",
"Z%	c #A96D3C",
"`%	c #AE703E",
" &	c #B07140",
".&	c #B27443",
"+&	c #955F36",
"@&	c #7B4E2E",
"#&	c #776B25",
"$&	c #787B1F",
"%&	c #7A7B20",
"&&	c #827B1F",
"*&	c #906E1B",
"=&	c #93701A",
"-&	c #7B791F",
";&	c #72791F",
">&	c #707820",
",&	c #8F742F",
"'&	c #AF703F",
")&	c #B57847",
"!&	c #BD8052",
"~&	c #C4875C",
"{&	c #BC7E50",
"]&	c #A2693C",
"^&	c #966037",
"/&	c #A4693B",
"(&	c #875632",
"_&	c #845430",
":&	c #AE7F2A",
"<&	c #B49025",
"[&	c #A38A24",
"}&	c #7E7C20",
"|&	c #817F21",
"1&	c #827F28",
"2&	c #747A22",
"3&	c #7A7B24",
"4&	c #7F7D21",
"5&	c #7C7D20",
"6&	c #877E21",
"7&	c #9A8622",
"8&	c #A88A22",
"9&	c #797C1F",
"0&	c #8A7D20",
"a&	c #8F7D1F",
"b&	c #9C7B1F",
"c&	c #98711C",
"d&	c #9C7D1F",
"e&	c #817D20",
"f&	c #877F20",
"g&	c #797C20",
"h&	c #827D1F",
"i&	c #7F7C21",
"j&	c #747822",
"k&	c #877A2B",
"l&	c #9B852A",
"m&	c #807D20",
"n&	c #958321",
"o&	c #846E27",
"p&	c #7F5B2E",
"q&	c #9B6338",
"r&	c #B17342",
"s&	c #A0663A",
"t&	c #AC6F3D",
"u&	c #966036",
"v&	c #9C6438",
"w&	c #A26D31",
"x&	c #D39427",
"y&	c #D89B26",
"z&	c #D49926",
"A&	c #AF8C23",
"B&	c #B88D31",
"C&	c #BC8C54",
"D&	c #977E37",
"E&	c #9D7335",
"F&	c #7B7026",
"G&	c #AD8922",
"H&	c #B58D21",
"I&	c #A48821",
"J&	c #C59222",
"K&	c #BE9022",
"L&	c #A18721",
"M&	c #AD7F1F",
"N&	c #A87D1E",
"O&	c #A87D1F",
"P&	c #AC8621",
"Q&	c #B28D22",
"R&	c #C09122",
"S&	c #B08C22",
"T&	c #B58D22",
"U&	c #A28921",
"V&	c #B18525",
"W&	c #806D28",
"X&	c #A1703A",
"Y&	c #B78642",
"Z&	c #AC8B22",
"`&	c #BD8925",
" *	c #96662C",
".*	c #7F5130",
"+*	c #9D6439",
"@*	c #AC6E3D",
"#*	c #A76C3C",
"$*	c #A56A3B",
"%*	c #AC6F3B",
"&*	c #BB832F",
"**	c #CA912B",
"=*	c #CC9224",
"-*	c #CB9322",
";*	c #C89225",
">*	c #C68D51",
",*	c #C28558",
"'*	c #A76F3E",
")*	c #9A6B2C",
"!*	c #C79023",
"~*	c #CA9322",
"{*	c #C69222",
"]*	c #C69122",
"^*	c #B17F1F",
"/*	c #BE8920",
"(*	c #CC9422",
"_*	c #C68F24",
":*	c #90622C",
"<*	c #925D35",
"[*	c #BA7D4B",
"}*	c #C08937",
"|*	c #C48D24",
"1*	c #9F6E2B",
"2*	c #976136",
"3*	c #AB6E3D",
"4*	c #AD6F3E",
"5*	c #B27441",
"6*	c #BA7D47",
"7*	c #C48853",
"8*	c #C98E54",
"9*	c #C78D4D",
"0*	c #C78C4E",
"a*	c #C38759",
"b*	c #B07343",
"c*	c #865631",
"d*	c #B68126",
"e*	c #C99122",
"f*	c #BB8720",
"g*	c #A6732A",
"h*	c #825230",
"i*	c #AE7345",
"j*	c #C08654",
"k*	c #C9912F",
"l*	c #C78F24",
"m*	c #B07637",
"n*	c #A86C3C",
"o*	c #AF713F",
"p*	c #B67848",
"q*	c #C3865A",
"r*	c #C78B60",
"s*	c #C4885C",
"t*	c #A06639",
"u*	c #7E502F",
"v*	c #95662B",
"w*	c #A4761D",
"x*	c #C18B20",
"y*	c #CC9322",
"z*	c #C89022",
"A*	c #B07F1F",
"B*	c #B3811F",
"C*	c #BA8526",
"D*	c #855530",
"E*	c #B87B4B",
"F*	c #C3884B",
"G*	c #CA922A",
"H*	c #C78E28",
"I*	c #B2763B",
"J*	c #B07240",
"K*	c #B7794A",
"L*	c #B67949",
"M*	c #B47646",
"N*	c #B27442",
"O*	c #8C5933",
"P*	c #7E512E",
"Q*	c #B37F26",
"R*	c #B3811E",
"S*	c #C58E21",
"T*	c #C08B21",
"U*	c #AD7C1E",
"V*	c #C08A21",
"W*	c #94642C",
"X*	c #B27444",
"Y*	c #BF853B",
"Z*	c #CA9223",
"`*	c #BC8232",
" =	c #9D6539",
".=	c #A66B3C",
"+=	c #AA6D3C",
"@=	c #A0673A",
"#=	c #7D4F2F",
"$=	c #98672C",
"%=	c #C89123",
"&=	c #B5821F",
"*=	c #A3761C",
"==	c #946A1A",
"-=	c #A8791D",
";=	c #B07F1E",
">=	c #C48D21",
",=	c #B37F27",
"'=	c #B0723E",
")=	c #BC8233",
"!=	c #B3763B",
"~=	c #8D5A34",
"{=	c #8B5833",
"]=	c #AD703E",
"^=	c #AF713E",
"/=	c #9F6639",
"(=	c #815230",
"_=	c #7C4E2E",
":=	c #7A4D2E",
"<=	c #B78227",
"[=	c #CA9222",
"}=	c #BB8620",
"|=	c #C99123",
"1=	c #97672B",
"2=	c #885632",
"3=	c #7F5030",
"4=	c #845431",
"5=	c #A3693B",
"6=	c #84562D",
"7=	c #88592D",
"8=	c #8C5C2E",
"9=	c #8E5F2E",
"0=	c #A2702B",
"a=	c #C68F21",
"b=	c #B88520",
"c=	c #956B1A",
"d=	c #BC8720",
"e=	c #AC7926",
"f=	c #7F512D",
"g=	c #9A6237",
"h=	c #945E36",
"i=	c #794C2E",
"j=	c #885732",
"k=	c #A1673A",
"l=	c #8E5B34",
"m=	c #805130",
"n=	c #A66A3B",
"o=	c #A66B3B",
"p=	c #81542C",
"q=	c #966A20",
"r=	c #B78222",
"s=	c #B78322",
"t=	c #B88322",
"u=	c #BA8522",
"v=	c #B88420",
"w=	c #AF7E1E",
"x=	c #AA7B1F",
"y=	c #8E612A",
"z=	c #8F5B34",
"A=	c #7F502F",
"B=	c #825331",
"C=	c #815724",
"D=	c #916919",
"E=	c #946B1A",
"F=	c #A87820",
"G=	c #9E6E26",
"H=	c #86592D",
"I=	c #794D2E",
"J=	c #7C502C",
"K=	c #996D1F",
"L=	c #9A6F1C",
"M=	c #946626",
"N=	c #8A5C2B",
"O=	c #885A2C",
"P=	c #87592C",
"Q=	c #80542B",
"R=	c #885E22",
"S=	c #926919",
"          . + @ @ @ @ @ @ @ @ @ @ @ @ @ @ @ @ @ @ @ @ # $ @ % & * = % @ @ @ @ @ @ @ - ; >           ",
"      , ' ) ! ~ ~ ~ ~ ~ ~ ~ ~ ~ ~ ~ ~ ~ ~ ~ ~ ~ ~ ~ { ] ^ / ( _ : ~ ~ ~ ~ ~ ~ ~ ~ ~ ~ ( < -         ",
"    [ } | | | 1 1 2 2 2 2 2 2 2 2 2 2 2 2 2 2 2 3 2 4 5 5 4 6 7 1 2 2 2 2 2 2 2 2 1 | | | 8 9 0     ",
"  , } | | 1 a b c d e e e f g e e e e e e e e h i j k l l m n o p e e e e e e e q r s 1 | | t u     ",
"  : | | 1 v w x y z A A A B C D A A A E F G H I J l K l l L M K N O G P Q A A A R S T U V | | ( [   ",
", W | 1 X Y Z `  .....+.@.#.$.%.@.&...*.=.-.;.>.,.l l l l l l '.).!.~.{.].......^./.(._.:.| | | <.  ",
"[.~ | a }.|.1.2.3.4.5.6.7.8.9.0.a.b.c.d.e.l l l -.l l l l l l l l l l f.g.h.h.h.h.i.j.k.l.m.1 | n.  ",
"o.8 1 p.q.r.h.s.t.9.u.0.9.9.9.9.8.v.w.x.y.l l l l l l l l l l l l l l z.A.h.h.h.h.h.h.j.B.C.a | D.  ",
"o.8 1 E./.i.h.h.F.9.9.9.9.9.9.9.9.9.9.G.H.l l l l l l l l l l l l l l I.J.h.h.h.h.h.h.h.K.L.v | }   ",
"o.8 1 M.1.h.h.h.N.9.9.9.9.9.9.9.9.O.P.Q.R.-.l l l l l l l l l l l l l S.T.U.h.h.h.h.h.h.h.V.W.| }   ",
"o.8 1 X.Y.h.s.N.0.9.9.9.9.9.9.9.9.Z.`. +l l l l l l l l l l l l l l l l l .+h.++@+h.h.h.h.#+$+| }   ",
"o.8 1 %+&+*+=+7.9.9.9.9.9.9.9.-+;+>+,+l l l l l l l l l l l l l l l l l '+)+h.!+~+h.h.h.h.{+]+| }   ",
"o.8 1 ^+/+(+_+9.9.9.9.9.9.9.9.:+<+[+l l l l l l l l l l l l l l l l l l ~.}+)+A.h.h.h.h.h.{+]+| |+  ",
"o.8 1 ^+1+2+3+9.9.9.9.9.9.9.O.4+5+6+l l l l l l l l l l l l l l l l l l l l 7+8+h.h.h.h.Y.9+0+a+b+  ",
"o.8 1 ^+c+d+e+f+9.9.9.9.9.9.O.g+h+i+l l l l l l l l l l l l l l l l l l l l j+k+l+h.h.h.m+n+o+p+p+  ",
"o.8 1 ^+c+q+r+s+t+f+u+v+3+f+3+w+x+y+6+z+l l l l l l l l l l l A+A+6+l l l 6+B+C+D+E+J.J.F+G+H+I+J+  ",
"o.8 1 ^+K+L+M+N+O+P+N+Q+R+S+T+Q+U+V+W+X+Y+l A+Z+Z+A+Z+l Z+A+l `+ @.@A+ @ @.@W++@@@#@$@%@&@*@=@-@;@  ",
"o.8 1 ^+>@,@M+M+M+'@M+M+M+'@)@!@~@{@]@^@/@[+.@/@(@_@:@A+_@<@[+<@^@/@[@^@5+}@|@|@1@2@3@4@5@6@7@1 8@  ",
"o.8 1 ^+1+9@M+M+M+M+M+M+M+M+M+0@a@|@|@|@|@<@]@|@5+}@b@<@/@|@c@}@|@]@d@|@|@|@|@|@e@f@g@h@g@i@j@| }   ",
"o.8 1 k@l@m@M+M+M+M+M+M+M+M+M+n@|@|@|@|@|@|@|@|@|@|@|@|@|@|@|@|@|@|@|@|@|@|@|@|@o@p@g@g@g@q@]+| }   ",
"o.8 8 r@s@t@u@v@M+M+M+M+M+M+M+w@x@|@|@|@|@|@|@|@|@|@|@|@|@|@|@|@|@|@|@|@|@|@|@y@z@g@g@g@g@A@B@| }   ",
"o.8 t C@D@E@F@G@u@H@I@J@H@v@K@L@M@|@|@|@|@|@|@|@|@|@|@|@|@|@|@|@|@|@|@|@|@|@|@|@N@O@g@g@g@g@P@Q@|+  ",
"o.8 t R@S@T@U@U@V@W@T@X@Y@Z@`@ #.#|@|@|@|@|@|@|@|@|@|@|@|@|@|@|@|@|@|@|@|@|@|@+#@###$#g@g@g@%#&#*#  ",
"=#-#;#>#,#U@U@U@U@U@U@U@U@U@'#)#!#~#{#+#|@|@|@|@|@|@|@|@|@|@|@+#+#]#^#|@/#+#^#~#(#_#g@g@g@g@g@:#<#  ",
"[#}#|#1#2#T@U@U@U@U@U@U@U@U@3#4#5#6#7#8#|@]#^#9#{#~#0#a@a#!#{#b#c#d#e#{#f#8#g#5#h#i#g@g@g@g@g@j#k#l#",
"m#n#o#g@p#Y@U@U@U@U@U@U@U@U@U@q#5#r#r#s#!#t#5#)#u#s#d#v#w#5#x#7#5#y#z#~#z#A#B#C#D#h@E#F#G#H#F#I#J#  ",
"K#L#M#g@N#O#Y@T@U@U@U@U@U@U@3#P#C#C#C#C#Q#A#C#5#s#C#y#s#B#C#z#R#C#C#5#z#C#C#C#C#s#S#T#U#V#W#U#X#Y#Z#",
"`# $.$M#$#+$@$#$Y@$$%$Y@$$Y@&$*$C#C#C#C#C#C#C#C#C#C#C#C#C#C#C#C#C#C#C#C#C#C#C#C#=$-$;$X#;$>$X#X#X#,$",
"'$)$!$T#.$~${${$]$^${$/$($_$:$<$C#C#C#C#C#C#C#C#C#C#C#C#C#C#C#C#C#C#C#C#C#C#C#C#[$}$X#X#X#X#X#X#Y#|$",
"1$2$X#X#3$4$U#U#5$;$6$>$!$7$8$9$C#C#C#C#C#C#C#C#C#C#C#C#C#C#C#C#C#C#C#C#C#C#C#C#P#0$X#X#X#X#X#X#a$b$",
"c$d$X#X#X#X#X#X#X#X#X#X#X#X#X#e$f$C#C#C#C#C#C#C#C#C#C#C#C#C#C#C#C#C#C#C#C#C#C#r#g$X#h$h$i$X#X#j$k$l$",
"m$0$X#X#X#X#X#X#X#X#X#X#X#X#X#n$R#o$C#5#C#C#C#C#C#C#C#C#C#C#C#5#5#B#B#C#p$5#r#z#q$r$s$t$u$r$v$w$x$y$",
"z$A$B$h$X#X#X#X#X#X#C$i$D$h$j$E$F$G$H$I$C#J$K$L$C#M$K$C#N$O$C#P$Q$Q$R$C#P$S$T$U$V$W$X$Y$Z$X$Y$Y$`$ %",
".%+%@%#%$%t$%%k$r$v$&%X$*%=%-%;%>%,%'%)%!%~%{%]%^%/%(%_%:%<%[%}%|%1%2%=$3%4%5%6%7%7%Y$7%7%7%7%7%7%8%",
"9%7%7%Z$Z$7%0%Z$W$Y$W$Y$Y$a%7%7%b%c%d%e%f%g%h%i%j%k%l%m%n%o%p%q%7%7%r%s%t%7%7%7%7%7%7%7%7%7%7%7%u%v%",
"w%7%7%7%7%7%7%7%7%7%7%7%7%7%7%x%y%z%A%B%C%D%E%F%G%H%I%J%K%L%M%N%7%7%7%Y$7%7%7%7%7%7%7%7%7%7%7%7%O%P%",
"Q%r%7%7%7%7%7%7%7%7%7%7%7%7%7%x%R%S%T%U%V%W%X%Y%Z%`% &.&`%+&@&#&$&u%7%7%x%7%7%7%7%7%u%r%%&t%Y$`$&&*&",
"=&-&6%7%7%7%7%7%7%7%7%Y$;&t%7%>&,&'&)&!&~&{&]&^&`%`%`%H%/&(&_&:&<&[&}&|&1&2&3&>&4&5&6&7&8&9&0&a&b&  ",
"c&d&0&e&5&f&g&h&;&i&j&k&l&m&n&o&p&q&`%`%r&.&L%s&`%`%`%t&u&v&w&x&y&z&A&B&C&D&E&F&G&H&I&J&K&L&M&N&}   ",
"o.8 O&P&Q&R&S&T&U&V&W&X&Y&Z&J&`& *.*+*`%`%`%`%@*`%`%`%#*$*%*&***=*-*;*>*,*'*u&)*!*~*{*-*~*]*^*| }   ",
"o.8 t /*(*-*-*-*-*_*:*<*[*}*-*-*|*1*2*3*`%`%`%`%`%`%`%4*H%5*6*7*8*9*0*a*b*<*c*d*~*-*-*-*-*e*^*| }   ",
"o.8 | f*-*-*-*-*-*-*g*h*i*j*k*-*-*l*m*`%n*#*`%`%`%`%`%`%o*.&p*q*U%r*s*p*t*u*v*w*x*y*-*-*-*z*A*| }   ",
"o.8 | B*e*-*-*-*-*-*C*D*/&E*F*G*-*H*I*`%n*u&t&`%`%`%`%`%`%`%J*K*L*M*N*4*O*P*Q*R*S*-*-*-*y*T*U*| D.  ",
"[.~ | V V*y*-*-*-*-*!*W*^&`%X*Y*Z*`*`%`%t&O* =`%`%`%Z%.=`%`%`%`%+=$*@=+&#=$=%=-*-*-*-*-*e*&=| | *=  ",
"==-=| | ;=>=y*-*-*-*-*,=_&/&H%'=)=!=`%`%`%~={=]=`%`%u&@=^=`%/=~=(&(=_=:=P*<=-*-*-*-*-*[=}=| | | 9   ",
"  a+| | | ;=V*e*y*(*(*|=1=2=$*`%^=4*3*H%@=3=2=4*`%/&4=5=^=^=+&:=6=7=8=9=0=|=(*(*(*-*a=b=V | | ( &   ",
"  c=|+| | | V B*}=d=d=d=e=f=4=t*]=g=h=$*4=i=j=k=q&l=m=G%n=o=v&p=q=r=s=t=u=d=d=d=d=v=w=| | | | '     ",
"    [ |+| | | | t t t t x=y=:=m=z=A=(=(&:=:=h*4=m=#=m=<*h*B=z=#=C=) | t t t t t t | | | | 8 a+D=    ",
"      E=a+-=~ 8 8 8 8 F=G=H=:=:=:=:=:=:=:=:=:=:=:=:=:=:=I=I=:=:=J=K=| 8 8 8 8 8 8 8 8 ! D.b+0       ",
"          ==[.o.o.o.L=M=N=O=O=O=O=O=O=O=O=O=O=O=O=O=O=O=O=O=O=P=Q=R=b+o.o.o.o.o.o.o.o.& S=          "};
