/* XPM */
static char * wall4_xpm[] = {
"50 50 592 2",
"  	c None",
". 	c #936A19",
"+ 	c #976D1A",
"@ 	c #996E1B",
"# 	c #9D7329",
"$ 	c #C0A47A",
"% 	c #E4D0AF",
"& 	c #F4E2C2",
"* 	c #F1DEBF",
"= 	c #D9C3A0",
"- 	c #B29261",
"; 	c #9A6E1B",
"> 	c #976C1A",
", 	c #886117",
"' 	c #926819",
") 	c #996E1A",
"! 	c #956C1A",
"~ 	c #916819",
"{ 	c #946A19",
"] 	c #9E721B",
"^ 	c #A7781D",
"/ 	c #AA7A1E",
"( 	c #AA7B1E",
"_ 	c #AE8232",
": 	c #D6BC94",
"< 	c #F5E5C9",
"[ 	c #FBEDD4",
"} 	c #FBEDD3",
"| 	c #EFDCBE",
"1 	c #C6A675",
"2 	c #A97A1D",
"3 	c #9C701B",
"4 	c #9F721C",
"5 	c #A4761C",
"6 	c #966C1A",
"7 	c #A6771D",
"8 	c #AC7C1E",
"9 	c #AB7B1D",
"0 	c #AB7A1C",
"a 	c #AE7E2A",
"b 	c #D9C099",
"c 	c #FAEBD1",
"d 	c #F3E3C6",
"e 	c #C6A574",
"f 	c #A6761B",
"g 	c #A5761B",
"h 	c #AB7B1E",
"i 	c #9F721B",
"j 	c #906819",
"k 	c #AD7D1F",
"l 	c #B8892B",
"m 	c #C99D3F",
"n 	c #CEA448",
"o 	c #CFA548",
"p 	c #E0C28B",
"q 	c #F8EACE",
"r 	c #F3E1C0",
"s 	c #D6B26A",
"t 	c #CEA246",
"u 	c #C29537",
"v 	c #B18224",
"w 	c #AB7C1E",
"x 	c #9D711B",
"y 	c #B48426",
"z 	c #D7AE52",
"A 	c #F0CD73",
"B 	c #F6D176",
"C 	c #F7CF74",
"D 	c #F7CF73",
"E 	c #F7D386",
"F 	c #FAE7C6",
"G 	c #F9E1B3",
"H 	c #F7D077",
"I 	c #F7D074",
"J 	c #F5D177",
"K 	c #E8C369",
"L 	c #C5993B",
"M 	c #AD7D1E",
"N 	c #A7791D",
"O 	c #B48526",
"P 	c #E2BB5F",
"Q 	c #F5CA6D",
"R 	c #EEB755",
"S 	c #EBAF4B",
"T 	c #EAAD48",
"U 	c #EAAD49",
"V 	c #EFCC97",
"W 	c #FBECD3",
"X 	c #FAEACF",
"Y 	c #EFC386",
"Z 	c #ECB14E",
"` 	c #F1C060",
" .	c #F2CC71",
"..	c #CBA043",
"+.	c #9E721C",
"@.	c #986D1A",
"#.	c #D7AD50",
"$.	c #F2C162",
"%.	c #EAAC47",
"&.	c #E9A944",
"*.	c #E9AA45",
"=.	c #E6B059",
"-.	c #EED7AB",
";.	c #F6DDB8",
">.	c #EAAF54",
",.	c #EAAD4F",
"'.	c #EBB460",
").	c #EBB463",
"!.	c #EBB25D",
"~.	c #E9AB49",
"{.	c #E9AA44",
"].	c #EDB351",
"^.	c #EEC467",
"/.	c #BE9032",
"(.	c #A3751C",
"_.	c #9A6F1B",
":.	c #BA8B2D",
"<.	c #EBBC5D",
"[.	c #EAAC48",
"}.	c #E9AB47",
"|.	c #E0B971",
"1.	c #EFDBB3",
"2.	c #FCEED5",
"3.	c #FAEAD0",
"4.	c #F2CE9A",
"5.	c #F1CF96",
"6.	c #F5DAA9",
"7.	c #F5DCAD",
"8.	c #F4D8A6",
"9.	c #F1C98E",
"0.	c #EBB562",
"a.	c #EEB553",
"b.	c #D8AC4E",
"c.	c #A5771D",
"d.	c #CB9B3B",
"e.	c #EAAB45",
"f.	c #EAAA45",
"g.	c #E7B058",
"h.	c #DDC081",
"i.	c #F2E0BB",
"j.	c #F8E5BF",
"k.	c #F7E0B3",
"l.	c #F7E0B4",
"m.	c #EDBC73",
"n.	c #EAAB46",
"o.	c #E5B14F",
"p.	c #CD9938",
"q.	c #E2A541",
"r.	c #C48E33",
"s.	c #D69C3C",
"t.	c #E2B76C",
"u.	c #DDC388",
"v.	c #F5E4C2",
"w.	c #FBEED5",
"x.	c #FBEDD5",
"y.	c #F8E7C5",
"z.	c #F6DFB1",
"A.	c #F6DBAB",
"B.	c #E5AB47",
"C.	c #B58425",
"D.	c #CB9431",
"E.	c #D19839",
"F.	c #92691B",
"G.	c #B5832C",
"H.	c #E8A944",
"I.	c #E8AD4F",
"J.	c #DDBC7A",
"K.	c #DEC58C",
"L.	c #F7E7C9",
"M.	c #F8E8C9",
"N.	c #F4DCAE",
"O.	c #F4D8A7",
"P.	c #EBB564",
"Q.	c #E3A640",
"R.	c #B48223",
"S.	c #CB922F",
"T.	c #C38E32",
"U.	c #E5B360",
"V.	c #D9BF80",
"W.	c #E0C890",
"X.	c #F9EACE",
"Y.	c #F7E8CD",
"Z.	c #F2E3C6",
"`.	c #F0D9AA",
" +	c #F7DFB3",
".+	c #F1D099",
"++	c #E9AD4F",
"@+	c #E3A53F",
"#+	c #B48222",
"$+	c #CB9230",
"%+	c #D9BE81",
"&+	c #E4CD99",
"*+	c #FAEBD0",
"=+	c #E7D6B5",
"-+	c #D4C198",
";+	c #F9EBD1",
">+	c #EDD8A9",
",+	c #F4DDAE",
"'+	c #F7DEB2",
")+	c #EEC07C",
"!+	c #A6781D",
"~+	c #E8AD50",
"{+	c #DCBD7D",
"]+	c #D8BE81",
"^+	c #E7D1A1",
"/+	c #EEDEC0",
"(+	c #E1D0AC",
"_+	c #FAECD3",
":+	c #EFDBB0",
"<+	c #EFD7A5",
"[+	c #F7E0B5",
"}+	c #F4D6A5",
"|+	c #EAB15A",
"1+	c #DEA13E",
"2+	c #A77820",
"3+	c #A0731C",
"4+	c #9B6F1B",
"5+	c #EAAE53",
"6+	c #E8BC76",
"7+	c #DAC082",
"8+	c #E9D4A7",
"9+	c #F1DFBA",
"0+	c #E9D09B",
"a+	c #EFC584",
"b+	c #E7A844",
"c+	c #AD7D2C",
"d+	c #7D5A18",
"e+	c #7C5918",
"f+	c #E6A843",
"g+	c #E5A743",
"h+	c #EDBA74",
"i+	c #F5DBB4",
"j+	c #EED9AF",
"k+	c #D9BF82",
"l+	c #D9BF81",
"m+	c #E8D09A",
"n+	c #F9E7C2",
"o+	c #FAEBCF",
"p+	c #F6E6C6",
"q+	c #E4CB94",
"r+	c #F5DDAF",
"s+	c #F4D7A5",
"t+	c #EAB057",
"u+	c #BE8A33",
"v+	c #99762F",
"w+	c #B59346",
"x+	c #B69446",
"y+	c #B49346",
"z+	c #DEA13F",
"A+	c #DDA13F",
"B+	c #EEC081",
"C+	c #F8E4C4",
"D+	c #EEDAB0",
"E+	c #E4C889",
"F+	c #F3D697",
"G+	c #F6DCA7",
"H+	c #F8E4BC",
"I+	c #FAEBCE",
"J+	c #E3CB95",
"K+	c #F0D7A5",
"L+	c #F7DFB2",
"M+	c #DEB678",
"N+	c #98722B",
"O+	c #CFA249",
"P+	c #BE8E2F",
"Q+	c #B5882A",
"R+	c #B08429",
"S+	c #EDBE7D",
"T+	c #F8E5C7",
"U+	c #EBD6AA",
"V+	c #E1C688",
"W+	c #F2D493",
"X+	c #F3D593",
"Y+	c #F3D696",
"Z+	c #F5DAA1",
"`+	c #F8E2B7",
" @	c #FAE9CA",
".@	c #E7D09F",
"+@	c #E8CE98",
"@@	c #E8D1A3",
"#@	c #E7D1A3",
"$@	c #F8E1B5",
"%@	c #E1C79A",
"&@	c #C79F50",
"*@	c #E5A944",
"=@	c #B38121",
"-@	c #A5761C",
";@	c #EBB567",
">@	c #F7E1BF",
",@	c #E8D2A3",
"'@	c #DEC386",
")@	c #F1D493",
"!@	c #F3D594",
"~@	c #F4D99F",
"{@	c #F7E0B2",
"]@	c #FAE8C7",
"^@	c #EBD7AC",
"/@	c #E0C68C",
"(@	c #F5DEB0",
"_@	c #E4CE9F",
":@	c #E4CD9F",
"<@	c #F2DAAD",
"[@	c #E4B569",
"}@	c #E4A53F",
"|@	c #CB9330",
"1@	c #E9AA43",
"2@	c #E8A840",
"3@	c #E9AB48",
"4@	c #F4D5AB",
"5@	c #E5CE9D",
"6@	c #DCC284",
"7@	c #F0D292",
"8@	c #F4D89C",
"9@	c #F6DEAD",
"0@	c #F9E7C4",
"a@	c #FBECD0",
"b@	c #F2DFBA",
"c@	c #DCC287",
"d@	c #F0D8A7",
"e@	c #F5DEB2",
"f@	c #DBBA85",
"g@	c #C8902A",
"h@	c #E7A435",
"i@	c #E6A230",
"j@	c #E6A12C",
"k@	c #EDC084",
"l@	c #FAECD1",
"m@	c #E3CC99",
"n@	c #DBC183",
"o@	c #EDD090",
"p@	c #F4D698",
"q@	c #F6DDA9",
"r@	c #F9E5BE",
"s@	c #F6E5C5",
"t@	c #DCC389",
"u@	c #E8CF99",
"v@	c #E7CDA0",
"w@	c #D39D46",
"x@	c #B58223",
"y@	c #C58C23",
"z@	c #E6A129",
"A@	c #E9AA4D",
"B@	c #F6DEBB",
"C@	c #E2CA95",
"D@	c #EBCE8F",
"E@	c #F4D697",
"F@	c #F5DBA4",
"G@	c #F8E3BA",
"H@	c #FAEACC",
"I@	c #E1C992",
"J@	c #F5DEB1",
"K@	c #F5DCAF",
"L@	c #C09A60",
"M@	c #B17F21",
"N@	c #AD7C1E",
"O@	c #BA8320",
"P@	c #CE8F23",
"Q@	c #CB8D23",
"R@	c #E0BC8D",
"S@	c #FBECD2",
"T@	c #F8E9CB",
"U@	c #E9CC8D",
"V@	c #F3D595",
"W@	c #F5DA9F",
"X@	c #F7E1B5",
"Y@	c #E5CF9C",
"Z@	c #DBC184",
"`@	c #F1D9A7",
" #	c #D6B984",
".#	c #8A641A",
"+#	c #976C19",
"@#	c #9E711B",
"##	c #9B701B",
"$#	c #A6771C",
"%#	c #956B1B",
"&#	c #977128",
"*#	c #A17D33",
"=#	c #AD8D50",
"-#	c #ECDBBD",
";#	c #F7E7C8",
">#	c #DDC58B",
",#	c #E6CA8B",
"'#	c #F5D99E",
")#	c #E7CD92",
"!#	c #F0D19B",
"~#	c #B5934A",
"{#	c #93722E",
"]#	c #825F1C",
"^#	c #8A6317",
"/#	c #8E6921",
"(#	c #AA883E",
"_#	c #D1A64A",
":#	c #E6B149",
"<#	c #EFC98C",
"[#	c #FBEBD1",
"}#	c #F5E4C4",
"|#	c #DBC287",
"1#	c #E3C789",
"2#	c #E5C98A",
"3#	c #E1C78E",
"4#	c #F6DEB1",
"5#	c #F4D9A9",
"6#	c #C89E53",
"7#	c #C29A41",
"8#	c #BB9848",
"9#	c #AA8A40",
"0#	c #9D7C35",
"a#	c #BC9947",
"b#	c #BB9035",
"c#	c #C78E25",
"d#	c #E6A236",
"e#	c #F4D8B1",
"f#	c #F4E2C0",
"g#	c #DBC186",
"h#	c #E0C587",
"i#	c #F4D694",
"j#	c #DBC185",
"k#	c #F1D9A8",
"l#	c #F7DFB1",
"m#	c #CBA66B",
"n#	c #AD7F24",
"o#	c #B7913C",
"p#	c #B28326",
"q#	c #AA7B1D",
"r#	c #C58B23",
"s#	c #EAB46B",
"t#	c #F9E8CB",
"u#	c #F2E0BA",
"v#	c #DAC184",
"w#	c #DEC385",
"x#	c #F1D392",
"y#	c #F1D393",
"z#	c #E3C78A",
"A#	c #EED191",
"B#	c #F7DEAF",
"C#	c #DABA86",
"D#	c #A5771C",
"E#	c #9A6F1A",
"F#	c #EFC898",
"G#	c #EFDCB4",
"H#	c #DAC083",
"I#	c #DCC184",
"J#	c #EFD291",
"K#	c #E9CC8E",
"L#	c #C0A975",
"M#	c #DFC488",
"N#	c #F4D695",
"O#	c #DFC486",
"P#	c #F4D79A",
"Q#	c #F5DAA2",
"R#	c #F6DEAC",
"S#	c #E6CB9A",
"T#	c #AE802A",
"U#	c #C99440",
"V#	c #F6DCBA",
"W#	c #ECD8AE",
"X#	c #F4D594",
"Y#	c #EACD8E",
"Z#	c #C6AE78",
"`#	c #E1C689",
" $	c #E4C98A",
".$	c #DBC083",
"+$	c #E8CD90",
"@$	c #F6DEAF",
"#$	c #F0D6A8",
"$$	c #B88E49",
"%$	c #D2A76B",
"&$	c #FAE8CC",
"*$	c #EAD5A8",
"=$	c #D8BE82",
"-$	c #EBCE8E",
";$	c #E8CB8D",
">$	c #E4C88A",
",$	c #E8CB8C",
"'$	c #EED091",
")$	c #F4D799",
"!$	c #F4DAA7",
"~$	c #C19B5D",
"{$	c #DFBF93",
"]$	c #E8D3A4",
"^$	c #D4BB7F",
"/$	c #CFB67C",
"($	c #E2C688",
"_$	c #F2D595",
":$	c #CAA562",
"<$	c #AE7F2C",
"[$	c #ECD5B2",
"}$	c #E6D09E",
"|$	c #D6BC80",
"1$	c #DDC285",
"2$	c #D5B270",
"3$	c #B89153",
"4$	c #F4E2C5",
"5$	c #E3CC98",
"6$	c #E2C788",
"7$	c #ECCF8F",
"8$	c #DFBE7C",
"9$	c #A97B26",
"0$	c #C5A577",
"a$	c #F6E7CC",
"b$	c #F7E9CE",
"c$	c #F8E7C6",
"d$	c #E0C88F",
"e$	c #E7C887",
"f$	c #AD8133",
"g$	c #855F16",
"h$	c #876018",
"i$	c #CBB797",
"j$	c #DECCA7",
"k$	c #E4D2AF",
"l$	c #DDC385",
"m$	c #E3C889",
"n$	c #E1C687",
"o$	c #EDCE8D",
"p$	c #B58C44",
"q$	c #9C7C36",
"r$	c #AF8F47",
"s$	c #E8D5B2",
"t$	c #E7D4AD",
"u$	c #F4D798",
"v$	c #EFD191",
"w$	c #F0D291",
"x$	c #BF9854",
"y$	c #B6903B",
"z$	c #C19950",
"A$	c #F0DFC0",
"B$	c #F8E5BE",
"C$	c #C7A361",
"D$	c #996D19",
"E$	c #BE9963",
"F$	c #F6E6CB",
"G$	c #FAEACB",
"H$	c #F7DFAF",
"I$	c #EED190",
"J$	c #D0B77D",
"K$	c #D1AE6E",
"L$	c #CBAC7F",
"M$	c #FAEBD2",
"N$	c #F9E6C0",
"O$	c #F0D392",
"P$	c #D7BD81",
"Q$	c #D2B97E",
"R$	c #E7CB8C",
"S$	c #D7BC83",
"T$	c #D9B878",
"U$	c #D5BA94",
"V$	c #F7E0B0",
"W$	c #F2D494",
"X$	c #CAB27B",
"Y$	c #E0C081",
"Z$	c #9B701F",
"`$	c #DDC290",
" %	c #EFD292",
".%	c #E6C786",
"+%	c #A4803E",
"@%	c #9D7325",
"#%	c #E0C080",
"$%	c #E9CD8D",
"%%	c #D4BA7F",
"&%	c #EACB8A",
"*%	c #B08D4E",
"=%	c #A47B34",
"-%	c #ECCF90",
";%	c #C2AB76",
">%	c #C7AF78",
",%	c #EECF8F",
"'%	c #B89659",
")%	c #AB8644",
"!%	c #EBCC8B",
"~%	c #EACD8F",
"{%	c #D5BB81",
"]%	c #CBB37A",
"^%	c #C2A164",
"/%	c #B49053",
"(%	c #EFCF8F",
"_%	c #E6CA8C",
":%	c #E1C587",
"<%	c #D1B275",
"[%	c #C5A569",
"}%	c #DFC487",
"|%	c #E8CC8C",
"1%	c #F2D393",
"2%	c #E1C588",
"3%	c #DEC285",
"4%	c #DBBF83",
"5%	c #DABF82",
"6%	c #DABF83",
"7%	c #E0C486",
"8%	c #E9CC8C",
"9%	c #DFC386",
"0%	c #D9BE83",
"a%	c #DABE83",
"          . + @ @ @ @ @ @ @ @ @ @ @ @ @ # $ % & * = - @ @ @ ; > , ' ; @ @ @ @ @ @ @ ) ! ~           ",
"      { ] ^ / ( ( ( ( ( ( ( ( ( ( ( ( _ : < [ [ [ } | 1 ( ( 2 3 4 ( ( ( ( ( ( ( ( ( ( 2 5 )         ",
"    6 7 8 8 8 9 9 0 0 0 0 0 0 0 0 0 a b c [ [ [ [ [ [ d e 0 f g 0 0 0 0 0 0 0 0 0 9 8 8 8 h i j     ",
"  { 7 8 8 9 k l m n o o o o o o o o p q [ [ [ [ [ [ [ [ r s n o o o o o o o o o t u v 9 8 8 w x     ",
"  4 8 8 9 y z A B C D D D D D D D E F [ [ [ [ [ [ [ [ [ [ G H D D D D D D D D D I J K L M 8 8 2 6   ",
"{ N 8 9 O P Q R S T T T T T T T U V W [ [ [ [ [ [ [ [ [ [ X Y T T T T T T T T T U Z `  ...8 8 8 +.  ",
"@.( 8 k #.$.%.&.*.*.*.*.*.*.*.*.=.-.[ [ [ [ [ [ [ [ [ [ [ [ ;.>.,.'.).!.~.*.*.*.*.{.&.].^./.9 8 (.  ",
"_.h 9 :.<.[.*.*.*.*.*.*.*.*.*.}.|.1.2.[ [ [ [ [ [ [ [ [ [ [ 3.4.5.6.7.8.9.0.*.*.*.*.*.&.a.b.k 8 c.  ",
"_.h 9 d.Z {.*.*.*.*.e.f.*.*.*.g.h.i.2.[ [ [ [ [ [ [ [ [ [ [ [ j.k.l.l.l.k.8.m.*.*.*.*.*.n.o.y 8 7   ",
"_.h 9 p.%.*.*.*.*.q.r.s.*.*.*.t.u.v.w.[ [ [ [ [ [ [ [ [ [ [ x.y.z.l.l.l.l.l.A.m.*.*.*.*.*.B.C.8 7   ",
"_.h 9 D.e.*.*.*.n.E.F.G.H.*.I.J.K.L.x.[ [ [ 2.[ [ [ [ [ [ [ x.M.N.l.l.l.l.l.l.O.P.*.*.*.*.Q.R.8 7   ",
"_.h 9 S.f.*.*.*.*.q.T.s.*.*.U.V.W.X.[ [ [ Y.Z.[ [ [ [ [ [ [ [ X.`. +l.l.l.l.l.l..+++*.*.*.@+#+8 7   ",
"_.h 9 $+f.*.*.*.*.*.n.f.*.}.|.%+&+*+[ [ 2.=+-+;+[ [ [ [ [ [ [ W >+,+l.l.l.l.l.l.'+)+*.*.*.@+#+8 !+  ",
"_.h 9 $+f.*.*.*.*.*.*.*.*.~+{+]+^+} [ [ 2./+(+_+[ [ [ [ [ [ [ x.:+<+[+l.l.l.l.l.l.}+|+*.e.1+2+3+4+  ",
"_.h 9 $+f.*.*.*.*.*.*.*.5+6+7+]+8+2.[ [ [ [ [ [ [ [ [ [ [ [ [ 2.9+0+l.l.l.l.l.l.l.k.a+*.b+c+d+e+e+  ",
"_.h 9 $+f.f+g+*.*.*.*.h+i+j+k+l+m+n+o+x.[ [ [ [ [ [ [ [ [ [ [ x.p+q+r+l.l.l.l.l.l.l.s+t+u+v+w+x+y+  ",
"_.h 9 $+e.z+A+f.*.*.B+C+x.D+k+k+E+F+G+H+I+[ x.[ [ [ [ [ [ [ [ [ X.J+K+[+l.l.l.l.l.l.L+M+N+O+P+Q+R+  ",
"_.h 9 $+f.*.*.*.*.S+T+[ x.U+l+k+V+W+X+Y+Z+`+ @} x.[ [ [ [ [ [ [ W .@+@l.l.l.l.[+@@#@$@%@&@*@=@9 -@  ",
"_.h 9 $+f.*.*.*.;@>@[ [ [ ,@%+k+'@)@!@!@X+!@~@{@]@} x.[ [ [ [ [ 2.^@/@(@l.l.l.$@_@:@$@<@[@}@#+8 7   ",
"_.h 9 |@f.1@2@3@4@} [ [ } 5@]+k+6@7@!@!@!@!@X+!@8@9@0@a@x.[ [ [ w.b@c@d@[+l.l.l.e@e@l.l.f@@+#+8 7   ",
"_.h h g@h@i@j@k@X [ [ [ l@m@]+k+n@o@!@!@!@!@!@!@X+!@p@q@r@o+[ [ w.s@t@u@l.l.l.l.l.l.l.l.v@w@x@8 7   ",
"_.h w y@z@z@A@B@[ [ [ [ X.C@]+k+7+D@!@!@!@!@!@!@!@!@!@X+E@F@G@H@[ X.I@/@J@l.l.l.l.l.l.l.K@L@M@N@!+  ",
"_.h w O@P@Q@R@S@[ [ [ x.T@W.l+k+k+U@!@!@!@!@!@!@!@!@!@!@!@X+V@W@X@]@Y@Z@`@[+l.l.l.l.l.l.l. #.#+#@#  ",
"##$#%#&#*#=#-#[ [ [ [ x.;#>#l+k+k+,#!@!@!@!@!@!@!@!@!@!@!@!@!@!@!@'#)#l+0+l.l.l.l.l.l.l.l.!#~#{#]#  ",
"^#/#(#_#:#<#[#[ [ [ [ w.}#|#k+k+k+1#!@!@!@!@!@!@!@!@!@!@!@!@!@!@!@X+2#]+3#4#l.l.l.l.l.l.l.5#6#7#8#9#",
"0#a#b#c#d#e#[ [ [ [ [ w.f#g#k+k+k+h#W+!@!@!@!@!@!@!@i#!@!@!@!@!@!@!@2#k+j#k#[+l.l.l.l.l.l.l#m#8 n#  ",
"o#p#q#r#s#t#[ [ [ [ [ w.u#v#k+k+k+w#x#!@!@!@!@!@!@y#z#A#!@!@!@!@!@!@2#k+k+)#G+B#l.l.l.l.l.l.C#8 D#  ",
"E#9 w y@F#} [ [ [ [ [ w.G#H#k+k+k+I#J#!@!@!@!@!@i#K#L#M#N#!@!@!@!@!@2#k+k+O#)@P#Q#R#k.l.l.l.S#T#7   ",
"_.h h U#V#[ [ [ [ [ [ 2.W#l+k+k+k+H#o@!@!@!@!@!@X#Y#Z#`#N#!@!@!@!@!@ $k+k+.$o@!@7@+$8@G+@$l.#$$$7   ",
"_.h h %$&$[ [ [ [ [ [ w.*$]+k+=$]+7+-$!@!@!@!@!@!@W+;$7@!@!@!@!@!@!@>$k+k+k+,$X#'$`#W+!@)$Q#!$~$7   ",
"_.h h {$} [ [ [ [ [ [ [ ]$]+k+^$/$k+,$!@!@!@!@!@!@!@i#!@!@!@!@!@!@!@>$k+k+k+($!@!@W+!@!@!@!@_$:$7   ",
"_.h <$[$[ [ [ [ [ [ [ S@}$]+k+]+|$k+2#!@!@!@!@!@!@!@!@!@!@!@!@!@!@!@>$k+k+k+1$7@!@!@!@!@!@!@!@2$7   ",
"_.h 3$4$[ [ [ [ [ [ [ c 5$%+k+k+k+k+6$!@!@!@!@!@!@!@!@!@!@!@!@!@!@!@E+k+k+k+H#7$!@!@!@!@!@!@!@8$9$  ",
"_.h 0$3.[ [ [ [ a$b$x.c$d$l+k+k+k+k+h#W+!@!@!@!@!@!@!@!@!@!@!@!@!@!@E+k+k+k+k+,#!@!@!@!@!@!@!@e$f$  ",
"g$h$i$} [ [ [ w.j$k$r@~@($k+k+k+k+k+l$x#!@!@!@!@!@!@!@!@!@!@!@!@!@!@m$k+k+k+k+n$W+!@!@!@!@!@!@o$p$  ",
"q$r$s$[ [ [ [ w.t$+@u$X+,#k+k+k+k+k+I#v$!@!@!@!@!@!@!@!@!@!@!@!@!@!@m$k+k+k+k+6@J#!@!@!@!@!@!@w$x$  ",
"y$z$A$[ [ x.S@B$Z+!@!@!@Y#k+k+k+k+k+H#7$!@!@!@!@!@!@!@!@!@!@!@!@!@!@1#k+k+k+k+7+-$!@!@!@!@!@!@!@C$  ",
"D$E$F$[ [ G$H$p@X+!@!@!@I$n@k+k+|$J$k+Y#!@!@!@!@W+!@!@!@!@!@!@!@!@!@1#k+k+k+k+k+2#!@!@!@!@!@!@!@K$  ",
"_.L$M$} N$Q#!@!@!@!@!@!@O$l$k+k+P$Q$k+R$!@!@!@x#S$K#X#!@!@!@!@!@!@!@1#k+k+k+k+k+h#W+!@!@!@!@!@!@T$  ",
"_.U$H@V$u$X+!@!@!@!@!@!@W$n$k+k+k+k+k+($W+!@!@v$X$z#i#!@!@!@!@!@!@!@6$k+k+k+k+k+I#v$!@!@!@!@!@!@Y$  ",
"Z$`$F@!@!@!@!@!@!@!@!@!@!@2#k+k+k+k+k+.$7$!@!@W$;$ %!@!@!@!@!@!@!@!@6$k+k+k+k+k+7+Y#!@!@!@!@!@!@.%+%",
"@%#%X+!@!@!@!@!@!@!@!@!@!@$%k+k+k+k+k+k+6$W+!@!@i#!@!@!@!@!@!@!@!@!@6$k+k+k+k+Q$%% $!@!@!@!@!@!@&%*%",
"=%.%!@!@!@)@-%!@!@!@!@!@!@o@.$k+k+k+k+k+.$7$!@!@!@!@!@!@!@!@!@!@!@!@6$k+k+k+]+;%>%O#)@!@!@!@!@!@,%'%",
")%!%!@!@!@~%{%y#!@!@!@!@!@O$1$k+k+k+k+k+k+V+W+!@!@!@!@!@!@!@!@!@!@!@($k+k+k+=$>%]%n@o@!@!@!@!@!@w$^%",
"/%(%!@!@!@ %_%W$!@!@!@!@!@W+h#k+k+k+k+k+k+H#D@!@!@!@!@!@!@!@!@!@!@!@($k+k+k+k+P$]+k+:%v$!@!@!@!@y#<%",
"[%x#!@!@!@!@X#!@!@!@!@!@!@!@>$k+k+k+k+k+k+k+n$W+!@!@!@!@!@!@!@!@!@!@($k+k+k+k+k+k+k+k+'@7$!@!@!@W+  ",
"  W+!@!@!@!@!@!@!@!@!@x#o@U@}%k+k+k+k+k+k+k+H#-$!@!@!@!@!@!@!@!@y#D@w#k+k+k+k+k+k+k+k+k+I#|%W+!@!@  ",
"  !@!@!@!@!@W+x#A#U@m$O#I#k+k+k+k+k+k+k+k+k+k+:%W+!@!@!@!@W+I$,#O#n@k+k+k+k+k+k+k+k+k+k+k+H#>$O$!@1%",
"  !@!@x#o@$%E+O#n@7+k+k+k+k+k+k+k+k+k+k+k+k+k+H#Y#!@!@v$U@($n@k+k+k+k+k+k+k+k+k+k+k+k+k+k+k+k+:%I$W+",
"v$-$2#2%3%4%5%6%6%6%6%6%6%6%6%6%6%6%6%6%6%6%6%5%7%8%E+9%4%5%6%6%0%a%6%6%6%6%6%6%6%6%6%6%6%6%6%6%7%$%"};
