/* XPM */
static char * wall6_xpm[] = {
"50 50 361 2",
"  	c None",
". 	c #301717",
"+ 	c #2F1717",
"@ 	c #361A1A",
"# 	c #422020",
"$ 	c #422121",
"% 	c #412020",
"& 	c #341919",
"* 	c #311818",
"= 	c #391B1B",
"- 	c #391C1C",
"; 	c #321818",
"> 	c #351A1A",
", 	c #432121",
"' 	c #3D1E1E",
") 	c #291414",
"! 	c #1F0F0F",
"~ 	c #1C0D0D",
"{ 	c #371B1B",
"] 	c #603030",
"^ 	c #7B4040",
"/ 	c #844646",
"( 	c #804343",
"_ 	c #7F4242",
": 	c #7F4141",
"< 	c #773D3D",
"[ 	c #542A2A",
"} 	c #592C2C",
"| 	c #5D2E2E",
"1 	c #743B3B",
"2 	c #814444",
"3 	c #824545",
"4 	c #804242",
"5 	c #7E4141",
"6 	c #753C3C",
"7 	c #4D2727",
"8 	c #210F0F",
"9 	c #381B1B",
"0 	c #623131",
"a 	c #783D3D",
"b 	c #975656",
"c 	c #8F5050",
"d 	c #8C4C4C",
"e 	c #8C4B4B",
"f 	c #8B4A4A",
"g 	c #894848",
"h 	c #884747",
"i 	c #884646",
"j 	c #814242",
"k 	c #793D3D",
"l 	c #703838",
"m 	c #442121",
"n 	c #582C2C",
"o 	c #633131",
"p 	c #482323",
"q 	c #673333",
"r 	c #773C3C",
"s 	c #793E3E",
"t 	c #884949",
"u 	c #945252",
"v 	c #975454",
"w 	c #914F4F",
"x 	c #904E4E",
"y 	c #8E4C4C",
"z 	c #8C4A4A",
"A 	c #8A4949",
"B 	c #482424",
"C 	c #3A1D1D",
"D 	c #7D4141",
"E 	c #8C4E4E",
"F 	c #774040",
"G 	c #683535",
"H 	c #6C3838",
"I 	c #703A3A",
"J 	c #713A3A",
"K 	c #753D3D",
"L 	c #773E3E",
"M 	c #7A3E3E",
"N 	c #6A3535",
"O 	c #643232",
"P 	c #5E2F2F",
"Q 	c #4C2626",
"R 	c #472323",
"S 	c #542929",
"T 	c #5F2F2F",
"U 	c #693636",
"V 	c #794040",
"W 	c #824646",
"X 	c #925353",
"Y 	c #834949",
"Z 	c #753E3E",
"` 	c #763E3E",
" .	c #784040",
"..	c #7B4141",
"+.	c #783E3E",
"@.	c #763C3C",
"#.	c #6D3737",
"$.	c #783F3F",
"%.	c #854848",
"&.	c #8D4F4F",
"*.	c #723C3C",
"=.	c #653232",
"-.	c #653333",
";.	c #663333",
">.	c #4A2525",
",.	c #4F2727",
"'.	c #492424",
").	c #5C2F2F",
"!.	c #683737",
"~.	c #854B4B",
"{.	c #6B3636",
"].	c #472424",
"^.	c #1F0E0E",
"/.	c #3A1C1C",
"(.	c #5F3030",
"_.	c #723E3E",
":.	c #7B4343",
"<.	c #5A2D2D",
"[.	c #5B2E2E",
"}.	c #5A2C2C",
"|.	c #4C2525",
"1.	c #572B2B",
"2.	c #472222",
"3.	c #562B2B",
"4.	c #6D3B3B",
"5.	c #592D2D",
"6.	c #3F1F1F",
"7.	c #221010",
"8.	c #582B2B",
"9.	c #5D2F2F",
"0.	c #613030",
"a.	c #452222",
"b.	c #5C2E2E",
"c.	c #613232",
"d.	c #713C3C",
"e.	c #331919",
"f.	c #5B2D2D",
"g.	c #562A2A",
"h.	c #512828",
"i.	c #6C3939",
"j.	c #673434",
"k.	c #532A2A",
"l.	c #4F2828",
"m.	c #502929",
"n.	c #4A2424",
"o.	c #552A2A",
"p.	c #623232",
"q.	c #683434",
"r.	c #3B1C1C",
"s.	c #512929",
"t.	c #572C2C",
"u.	c #633232",
"v.	c #4E2626",
"w.	c #613131",
"x.	c #4B2626",
"y.	c #502828",
"z.	c #522A2A",
"A.	c #522929",
"B.	c #4B2525",
"C.	c #552B2B",
"D.	c #492525",
"E.	c #4C2727",
"F.	c #4E2727",
"G.	c #532929",
"H.	c #733B3B",
"I.	c #6F3939",
"J.	c #582D2D",
"K.	c #4D2626",
"L.	c #3E1F1F",
"M.	c #763D3D",
"N.	c #7B3F3F",
"O.	c #844545",
"P.	c #894747",
"Q.	c #854545",
"R.	c #824343",
"S.	c #7D4040",
"T.	c #743C3C",
"U.	c #6C3737",
"V.	c #462222",
"W.	c #703939",
"X.	c #6A3636",
"Y.	c #462424",
"Z.	c #432222",
"`.	c #2E1717",
" +	c #341A1A",
".+	c #603131",
"++	c #8E4F4F",
"@+	c #874646",
"#+	c #844444",
"$+	c #864545",
"%+	c #8A4848",
"&+	c #935151",
"*+	c #7E4242",
"=+	c #723A3A",
"-+	c #4E2828",
";+	c #452323",
">+	c #3F2020",
",+	c #2B1616",
"'+	c #291515",
")+	c #301818",
"!+	c #7B4545",
"~+	c #A25F5F",
"{+	c #965555",
"]+	c #915050",
"^+	c #8D4C4C",
"/+	c #874747",
"(+	c #6C3636",
"_+	c #723D3D",
":+	c #8F4E4E",
"<+	c #945353",
"[+	c #925252",
"}+	c #955656",
"|+	c #8F5151",
"1+	c #844747",
"2+	c #7C4040",
"3+	c #753B3B",
"4+	c #402020",
"5+	c #311919",
"6+	c #824949",
"7+	c #6E3939",
"8+	c #6F3A3A",
"9+	c #713B3B",
"0+	c #723B3B",
"a+	c #774242",
"b+	c #985858",
"c+	c #854949",
"d+	c #7E4545",
"e+	c #753F3F",
"f+	c #6D3838",
"g+	c #7C4343",
"h+	c #723939",
"i+	c #442222",
"j+	c #3E2020",
"k+	c #2A1515",
"l+	c #794242",
"m+	c #502727",
"n+	c #663636",
"o+	c #804747",
"p+	c #693535",
"q+	c #562C2C",
"r+	c #643333",
"s+	c #271313",
"t+	c #251212",
"u+	c #231111",
"v+	c #1D0E0E",
"w+	c #633333",
"x+	c #774141",
"y+	c #211010",
"z+	c #1B0D0D",
"A+	c #5E3030",
"B+	c #975555",
"C+	c #572D2D",
"D+	c #1D0D0D",
"E+	c #6D3939",
"F+	c #4A2626",
"G+	c #6F3838",
"H+	c #9A5A5A",
"I+	c #854747",
"J+	c #824444",
"K+	c #542B2B",
"L+	c #462323",
"M+	c #401F1F",
"N+	c #733A3A",
"O+	c #965656",
"P+	c #7A4242",
"Q+	c #3C1D1D",
"R+	c #361B1B",
"S+	c #442323",
"T+	c #7F4343",
"U+	c #522828",
"V+	c #653434",
"W+	c #7F4646",
"X+	c #9B5A5A",
"Y+	c #381C1C",
"Z+	c #6B3737",
"`+	c #814343",
" @	c #864646",
".@	c #764040",
"+@	c #834444",
"@@	c #743F3F",
"#@	c #3B1D1D",
"$@	c #6E3838",
"%@	c #894949",
"&@	c #8F4D4D",
"*@	c #8A4C4C",
"=@	c #311717",
"-@	c #864747",
";@	c #793F3F",
">@	c #915353",
",@	c #8E5050",
"'@	c #7E4444",
")@	c #7A3F3F",
"!@	c #985656",
"~@	c #633434",
"{@	c #8E4D4D",
"]@	c #874A4A",
"^@	c #8A4E4E",
"/@	c #5E2E2E",
"(@	c #8D4E4E",
"_@	c #7B4242",
":@	c #693434",
"<@	c #884D4D",
"[@	c #854C4C",
"}@	c #412121",
"|@	c #542C2C",
"1@	c #763B3B",
"2@	c #965454",
"3@	c #804444",
"4@	c #794343",
"5@	c #2C1616",
"6@	c #321919",
"7@	c #814545",
"8@	c #864A4A",
"9@	c #743D3D",
"0@	c #7D4444",
"a@	c #874949",
"b@	c #2F1818",
"c@	c #6A3737",
"d@	c #763F3F",
"e@	c #804545",
"f@	c #834747",
"g@	c #773F3F",
"h@	c #905151",
"i@	c #814747",
"j@	c #733D3D",
"k@	c #804646",
"l@	c #884B4B",
"m@	c #6E3A3A",
"n@	c #281414",
"o@	c #2D1717",
"p@	c #784141",
"q@	c #6D3A3A",
"r@	c #905252",
"s@	c #7F4848",
"t@	c #2C1515",
"u@	c #200F0F",
"v@	c #733F3F",
"w@	c #6F3C3C",
"x@	c #643434",
"y@	c #8B4B4B",
"z@	c #8B4949",
"A@	c #7E4343",
"B@	c #572E2E",
"C@	c #3E1E1E",
"D@	c #693737",
"E@	c #794141",
"F@	c #7C4242",
"G@	c #784242",
"H@	c #563030",
"I@	c #512C2C",
"J@	c #4D2929",
"K@	c #492626",
"L@	c #673535",
"M@	c #482727",
"N@	c #3F2121",
"O@	c #663434",
"P@	c #3C1E1E",
"Q@	c #351B1B",
"R@	c #331818",
"S@	c #1E0E0E",
"T@	c #411F1F",
". . . + @ # # $ $ $ $ $ $ $ $ $ $ % & * = - ; > % $ $ # $ $ $ $ $ $ $ $ $ $ $ $ $ $ , ' ) ! ~ ~ ~ ~ ",
". . + { ] ^ / ( _ : : : : : : : : < [ { } | ' [ 1 ^ 2 3 4 5 5 5 5 : : : : : : : : : _ 6 7 - 8 ~ ~ ~ ",
". + 9 0 a 5 b c d e f g h h h i j k l m n o p q r s _ t u v w x y z A g h h h i i i h s 7 B C 8 ~ ~ ",
"+ 9 0 a D E F G H I J K L < M < N O P m Q ] R S T U V W X Y Z `  .V ....V +.< 6 6 @.< #.Q B B C 8 ~ ",
"& } $.%.&.*.=.-.=.-.-.;.0 o ;.P } } S 9 >.P ,.'.} } ).!.~.{.=.=.=.-.=.=.-.-.-.-.-.-.;.0 >.B B ].{ ^.",
"/.n (._.:.=.;.<.[.;.;.;.=.-.o }.} }.|./.1.0 } 2.3.} } 1.4.I -.;.;.;.5.<.;.;.;.;.;.;.;.P $ $ 6.C @ 7.",
"/.3.8.(.H ;.;.9.P ;.-.0.-.;.T } } } # a.b.=.| |.,.} } n c.d.;.;.;.;.9.9.;.;.;.=.0 -.;.P % - > > e.7.",
"/.1.} } 9.0.O ;.;.;.;.] -.O f.} } g.' h.P ;.T S '.} } } <.i.j.;.O O ;.;.;.;.;.P k.o q P % - > > e.7.",
"/.1.} k.l.m.k.3.<.P 0 =.;.0.} } }.,.% n 0.q 0 } n.o.} } } p.q.;.-.-.;.;.;.;.;.O ] -.q P % /.> > e.7.",
"r.3.k.l.l.l.l.l.l.l.s.[ t.} } } } R |.<.] u.] <.h.v.} } } f.w.-.;.;.;.;.;.;.;.;.;.;.;.P % /.> > e.7.",
"{ >.x.Q l.l.l.y.l.l.l.l.l.s.n } 1.m o.3.z.A.s.[ 3.B.8.} } [ s.C.[.w.=.;.;.;.;.;.;.T 9.T % /.> > e.7.",
". * e.r.# % , a.D.E.F.l.l.l.G.} A.'.3.y.l.l.l.l.[ v.S } [ l.l.l.l.s.C.f.0.=.;.;.q O u.T % C > > e.7.",
"& '.f.q.H.I.p.J.A.'.'.R R >.Q G.K.F.y.F.F.F.F.F.l.K.|.A.l.l.l.l.l.l.l.l.m.[ <.[.| (.0.<.L.- > > e.7.",
"/.P M.N.O.P.h i Q.R.S.T.U.-.9.o.% V.Q l.k.t.9.-.U.W.X.| [ l.F.l.l.l.l.l.l.l.F.].Y.].B Z.+ `. +> e.7.",
"/.3..+F ++x i @+@+@+i h h h Q.#.R P D R.#+Q.$+@+i %+&+*+=+X.] 3.y.F.-+l.l.l.Q ;+;+;+;+>+,+'+)+> e.7.",
"/.1.} [.!+~+{+u ]+^+A /+$+R.(+}.2.[ _+:+e y x &+<+[+}+|+1+2+a 3+#.0 n A.l.l.B ;+;+;+;+4+,+'+,+5+e.7.",
"/.1.} n c.6+7+8+I I 9+0+W.q.} } p h.} a+b+c+d+e+I X.j.f+F g+^ a a r h+G [.K.y.'.Z.i+i+j+,+'+k+`.)+7.",
"/.1.} } .+l+O n ] ;.-.-.;.0.} } B.m+} n+o+=.=.=.-.;.P 0 =.;.p+j.9.5.q+A.K.w.^ +.I.r+n R k+s+t+s+u+v+",
"/.1.} } (.e+-.w.O ;.;.;.;.0 } }.,.m+} w+x+;.u.| O ;.T 0 ;.;.] k.-+l.x.'.;.a 3 y i i @+s l.i+ +y+z+~ ",
"/.1.} } A+d.;.;.O [.o ;.;.o }.}.m+m+} (.8+;.] [ 0 q ;.-.o 9.A.l.l.].n.{.k a ^ B+z h h D C+l.B L.) D+",
"/.1.} } 9.E+;.;.0 3.w.;.;.O <.} y.v.} f.j.q -.0 ] b.3.y.F+x.l.F., K.G+k a < _ H+E I+J++.K+F+i+4+{ y+",
"/.1.} } b.U ;.;.;.=.;.;.;.O f.} G.v.} } b.5.k.7 D.L+;+;+;+L+D.M+h.N+a a r *+O+P+(.u.p+0 a.Q+R+> e.7.",
"/.1.} } <.-.;.o 0 ;.;.;.;.=.f.} o.v.} o.B ;+S+;+;+;+i+$ 6.6.L.K.l s ^ N.T+b+:.=.u.O ;.P % 9 > > e.7.",
"/.1.} } }.O ;.P P ;.;.;.;.=.f.} g.|.1.x.;+;+i+Z.$ i+D.3.u.H.W.U+f.V+d.W+X+o+=.=.=.;.;.P M+Y+> > e.7.",
"/.1.} } n ] ;.;.;.;.;.=.9.s.Q [ 1.B.F.i+L+'.s.).Z+< `+ @h A 2+1.G.} n <.a+.@=.f.q+=.q n R+9 > > e.7.",
"/.1.n o.s.A.9.-.;.O [.l.].;+;+].B.a.C.-.J 2++@@+i i @+h y d M -.K.} } } A+@@j.(.b.-.q [.#@- > > e.7.",
"= A.A.l.l.l.y.n 5.7 Y.;+;+;+S+i+C.b.b.$@T+%@z g A &@]+&.&.*@a =+B.3.} } } p.j.;.;.;.;.T % /.> > e.7.",
"=@#@>.l.l.l.l.-+].S+;+;+;+$ >.p+-@;@[ o.9.!.:.>@,@d+*.X.j.'@)@a o.v.}.} } } 0 ;.;.;.;.P % C > > e.7.",
". . @ L+l.l.l.7 L+;+;+Z.$ 5.N.f !@2+p+|.8.8.8.~@H 0.=.] o 7+;@k ;.a.} } } } | ;.;.;.q P % C > > e.7.",
". . . ; % 7 l.Q ;+i+4+Q $@/+{@]@^@*+a n B.} } } /@O ;.O =.;.W.@.W., U+} } } }.o ;.;.;.P % #@> > e.7.",
". . . + . #@B.D.4+$ (.`+&@*@F q.p+6 a =+'.m+} [ 7 s.P -.;.=.0.J.C.% B.n } } } T ;.o 3.C.% #@@ > e.7.",
"* & & & & & r.% s.$.y (@_@X.;.-.P [ 3.w.o.Q+L+L+;+;+].y.b.O n -+>.[ }.h.} } } f.O 0 [ [ % #@@ > e.7.",
"' O :@q.:@q.q.p+K <@[@U.;.=.P A.B S+Z.L+<.(.>.6.}@;+;+;+].F.s.l.'.U I.'.1.} } } ] ;.=.P % Q+@ > e.7.",
"' -.q.-.0.w.w.5.[ z.|@<.9.A.B ;+i+L+t.H.Q.Q.@.q.A.i+$ S+;+;+x.l.K.N.T+h.v.} } } n 1.t.y.{ e.> > e.7.",
"* & e.9 K.{.G K.m x.l.l.>.S+i+L+t.0+O.h @+^+*+a a $@f.>.i+i+].7 5.#+t ~@V.g.} } F.;+;+>+,+'+)+> e.7.",
". 9 y.I.+@P./ 1@-.,.'.7 ].L+q+=+#+i @+@+z 2@++3@)@a a N+u.A.B B.X.@+&@4@K.n.} o.].;+;+4+,+'+5@6@e.7.",
"{ w.+@P.h y ++7@N.3+;.Q ,.J #+i @+P.&@]+8@9@9+0@]@a@( )@a 3+N G.$@@+{@W+A+m G.F.;+;+L+4+,+'+,+b@6@7.",
"r.n c@%.]+'@f+d@e@f@` G.1.g@%@f w h@i@8+;.=.;.-.p+j@k@l@a@]@8+S o.Z c Z m@v.# i+}@4+% ' k+n@k+o@) ^.",
"/.3.8.!.p@-.=.=.G e+(.m+m+f.q@r@0@Z+-.-.;.u.b.0 ;.O =.X.l+s@b.S K.f.@@7+d.c.9.[.3.y.l.'.* t@t+u@~ ~ ",
"/.1.} c.7+=.[.f.;.c@b.h.v.} } v@p+-.;.;.;.(.m.b.=.t.P ;.q.w@<.g.|.8.x@7+X.d+y@e z f z@A@B@F+C@+ 7.~ ",
"/.1.} 9.G -.n t.-.j.9.h.B.} n D@Z+;.o ] ;.=.] O ;.T 0 ;.j.m@<.n n.1.9.E+;.*. .E@F@'@k@G@H@I@J@K@{ 8 ",
"/.1.} <.u.;.=.=.;.=.f.h.'.} } c.q.;.o ] ;.;.;.;.;.q ;.;.j.c@} } n.o.<.L@j.=.=.=.-.O ] P % 4+M@N@& 7.",
"/.1.} } 0 ;.P 0.;.O f.G.n.} } f.O ;.;.;.;.;.;.;.O ] -.;.q O@} } |.h.} ] j.u.[.O ;.O 0 P % ' P@@ e.7.",
"/.1.} } 0 ;.b.T ;.u.n ,.p } n o.| ;.;.;.;.;.;.;.] 3.O ;.;.u.} }.,.K.} f.=.o 5.O 9.n O T % ' - > e.7.",
"/.3.8.3.9.;.;.;.q P y.i+M+o.s.l.s.(.;.;.;.;.;.q ;.O ;.q q 0.} }.h.p } }.o ;.;.;.t.y.0.T 6.Q@)+)+6@7.",
"& B m.l.s.b.] T P C.l.C@R@'.l.l.l.A.3.3.t.n 5.<.[.b.b.| | o.A.3.g.'.8.} [ k.[ C.k.s.} [ Q@b@b@b@k+S@",
". & R l.l.7 B ].].Q F.= + /.7 l.l.D.;+;+;+;+;+;+;+;+L+L+].x.l.y.s.T@o.o.].S+;+;+;+;+;+$ 5+b@b@k+S@~ ",
". . & R l.D.;+;+;+B >.& . =@$ l.x.;+;+;+;+;+;+;+;+;+;+;+;+;+>.l.Q 9 ,.F.;+;+;+;+;+;+;+4+)+b@k+S@~ ~ ",
". . . & V.].;+;+;+L+, * . . & R Y.;+;+;+;+;+;+;+;+;+;+;+;+;+;+D.L+* , ].;+;+;+;+;+;+;+4+o@) S@~ ~ ~ ",
". . . . R@{ { { { { & . . . . > { { { { { { { { { { { { { { { { > . & { { { { { { { { e.7.S@~ ~ ~ ~ "};
