/* XPM */
static char * cactus_xpm[] = {
"50 50 918 2",
"  	c None",
". 	c #936A19",
"+ 	c #976D1A",
"@ 	c #996E1B",
"# 	c #976F1C",
"$ 	c #8C7423",
"% 	c #7C772B",
"& 	c #747D30",
"* 	c #69762D",
"= 	c #6E7A2C",
"- 	c #77762A",
"; 	c #857425",
"> 	c #94711E",
", 	c #9A6E1B",
"' 	c #976C1A",
") 	c #886117",
"! 	c #926819",
"~ 	c #996E1A",
"{ 	c #956C1A",
"] 	c #916819",
"^ 	c #946A19",
"/ 	c #9E721B",
"( 	c #A7781D",
"_ 	c #AA7A1E",
": 	c #AA7B1E",
"< 	c #9E7D23",
"[ 	c #858231",
"} 	c #70803C",
"| 	c #728842",
"1 	c #758B44",
"2 	c #687C3E",
"3 	c #667E34",
"4 	c #688131",
"5 	c #63772F",
"6 	c #777D2D",
"7 	c #967E27",
"8 	c #A77A1E",
"9 	c #9C701B",
"0 	c #9F721C",
"a 	c #A97A1D",
"b 	c #A4761C",
"c 	c #966C1A",
"d 	c #A6771D",
"e 	c #AC7C1E",
"f 	c #AB7B1D",
"g 	c #AB7A1C",
"h 	c #AD7E2D",
"i 	c #AC7C26",
"j 	c #997F26",
"k 	c #7A883A",
"l 	c #6E8342",
"m 	c #708544",
"n 	c #7A9148",
"o 	c #748946",
"p 	c #6C7F43",
"q 	c #697E3B",
"r 	c #6B8533",
"s 	c #647D30",
"t 	c #5D742F",
"u 	c #697F30",
"v 	c #877C25",
"w 	c #A2761B",
"x 	c #AB7B1E",
"y 	c #9F721B",
"z 	c #906819",
"A 	c #AD7D1F",
"B 	c #B8892B",
"C 	c #C99D3F",
"D 	c #CEA448",
"E 	c #CFA548",
"F 	c #D7B474",
"G 	c #E8D2AF",
"H 	c #CAB986",
"I 	c #7C8741",
"J 	c #6F8442",
"K 	c #6D8043",
"L 	c #768C46",
"M 	c #7B9248",
"N 	c #718645",
"O 	c #687C3B",
"P 	c #6A8433",
"Q 	c #6A8432",
"R 	c #5E742F",
"S 	c #5E752E",
"T 	c #617B25",
"U 	c #A08F36",
"V 	c #CDA447",
"W 	c #CEA246",
"X 	c #C29537",
"Y 	c #B18224",
"Z 	c #AB7C1E",
"` 	c #9D711B",
" .	c #B48426",
"..	c #D7AE52",
"+.	c #F0CD73",
"@.	c #F6D176",
"#.	c #F7CF74",
"$.	c #F7CF73",
"%.	c #F7D077",
"&.	c #F3DBA5",
"*.	c #EEE8D1",
"=.	c #8F9A73",
"-.	c #66793C",
";.	c #6F8244",
">.	c #799047",
",.	c #7B9148",
"'.	c #708444",
").	c #6B7F43",
"!.	c #637837",
"~.	c #688132",
"{.	c #6C8633",
"].	c #627A30",
"^.	c #596F2B",
"/.	c #55701D",
"(.	c #6E8028",
"_.	c #D8BA63",
":.	c #F7D074",
"<.	c #F5D177",
"[.	c #E8C369",
"}.	c #C5993B",
"|.	c #AD7D1E",
"1.	c #A7791D",
"2.	c #B48526",
"3.	c #E2BB5F",
"4.	c #F5CA6D",
"5.	c #EEB755",
"6.	c #EBAF4B",
"7.	c #EAAD48",
"8.	c #C4A145",
"9.	c #8E985F",
"0.	c #73834A",
"a.	c #6B7E42",
"b.	c #718544",
"c.	c #6F8344",
"d.	c #5E7330",
"e.	c #678031",
"f.	c #6C8733",
"g.	c #667E31",
"h.	c #536A24",
"i.	c #4D6618",
"j.	c #5A761B",
"k.	c #9B8B2F",
"l.	c #E6AB47",
"m.	c #EAAD49",
"n.	c #ECB14E",
"o.	c #F1C060",
"p.	c #F2CC71",
"q.	c #CBA043",
"r.	c #9E721C",
"s.	c #986D1A",
"t.	c #D1A94E",
"u.	c #DAB258",
"v.	c #CD9E41",
"w.	c #CF9C3F",
"x.	c #DDA442",
"y.	c #E9AA45",
"z.	c #E6A944",
"A.	c #A1953F",
"B.	c #768D43",
"C.	c #6F8343",
"D.	c #738845",
"E.	c #799048",
"F.	c #6C8041",
"G.	c #607534",
"H.	c #5B712E",
"I.	c #667F31",
"J.	c #6D8733",
"K.	c #657E2E",
"L.	c #4D651B",
"M.	c #4A6217",
"N.	c #57731B",
"O.	c #747E22",
"P.	c #D7A23F",
"Q.	c #E9AA44",
"R.	c #E9A944",
"S.	c #EDB351",
"T.	c #EEC467",
"U.	c #BE9032",
"V.	c #A3751C",
"W.	c #9A6F1B",
"X.	c #AE882D",
"Y.	c #999041",
"Z.	c #707F38",
"`.	c #71863F",
" +	c #6E813C",
".+	c #848036",
"++	c #C7993C",
"@+	c #DEA643",
"#+	c #8E923F",
"$+	c #7A9048",
"%+	c #6E8244",
"&+	c #758A46",
"*+	c #7B9348",
"=+	c #778E44",
"-+	c #627835",
";+	c #6C8632",
">+	c #5E7924",
",+	c #4B6317",
"'+	c #496117",
")+	c #55701A",
"!+	c #5E791D",
"~+	c #C89B3B",
"{+	c #EEB553",
"]+	c #D8AC4E",
"^+	c #A5771D",
"/+	c #A47C20",
"(+	c #848336",
"_+	c #6F8540",
":+	c #6F8444",
"<+	c #687E3B",
"[+	c #787A3A",
"}+	c #DBB87E",
"|+	c #F2CA9D",
"1+	c #EBB56B",
"2+	c #D9A442",
"3+	c #848D3A",
"4+	c #778E45",
"5+	c #6E8144",
"6+	c #748A44",
"7+	c #768F41",
"8+	c #6C8537",
"9+	c #657E30",
"0+	c #648028",
"a+	c #59751C",
"b+	c #4B6417",
"c+	c #546F1A",
"d+	c #5B781C",
"e+	c #C09838",
"f+	c #EAAB46",
"g+	c #E5B14F",
"h+	c #8D7E2D",
"i+	c #6B8040",
"j+	c #778D47",
"k+	c #6D843B",
"l+	c #A1A986",
"m+	c #F3E8D3",
"n+	c #E8C89F",
"o+	c #EAAF58",
"p+	c #D8A442",
"q+	c #808A35",
"r+	c #6D8637",
"s+	c #657A38",
"t+	c #627737",
"u+	c #698136",
"v+	c #6D8734",
"w+	c #698332",
"x+	c #5A702D",
"y+	c #5C7625",
"z+	c #56721A",
"A+	c #567319",
"B+	c #BE9838",
"C+	c #E5AB47",
"D+	c #B58425",
"E+	c #A67D22",
"F+	c #7B823B",
"G+	c #798F47",
"H+	c #768C45",
"I+	c #6F8938",
"J+	c #728243",
"K+	c #878851",
"L+	c #AF832F",
"M+	c #E8A944",
"N+	c #5D732E",
"O+	c #5A702E",
"P+	c #657E31",
"Q+	c #596F2C",
"R+	c #516821",
"S+	c #526A1D",
"T+	c #95A078",
"U+	c #BAC39B",
"V+	c #9CA677",
"W+	c #536E19",
"X+	c #BF9838",
"Y+	c #E7A944",
"Z+	c #E3A640",
"`+	c #B48223",
" @	c #9F7F29",
".@	c #728342",
"+@	c #6B7E43",
"@@	c #6B813B",
"#@	c #6D8634",
"$@	c #657F2F",
"%@	c #5E6A20",
"&@	c #C69437",
"*@	c #5D732F",
"=@	c #698231",
"-@	c #586F28",
";@	c #4D651D",
">@	c #526B1C",
",@	c #AAAD83",
"'@	c #C4C498",
")@	c #788748",
"!@	c #4D651C",
"~@	c #536E1A",
"{@	c #E4A642",
"]@	c #E6A844",
"^@	c #E3A53F",
"/@	c #B48222",
"(@	c #967F2A",
"_@	c #6E8142",
":@	c #728743",
"<@	c #637839",
"[@	c #5E7530",
"}@	c #647F29",
"|@	c #5A6A1C",
"1@	c #CC9A3C",
"2@	c #D8A341",
"3@	c #7D8731",
"4@	c #688231",
"5@	c #5C732E",
"6@	c #637C2E",
"7@	c #66822B",
"8@	c #5E7923",
"9@	c #4C6519",
"0@	c #5C7522",
"a@	c #5B761F",
"b@	c #496215",
"c@	c #D29F40",
"d@	c #C1973D",
"e@	c #BD963D",
"f@	c #C3983D",
"g@	c #D4A040",
"h@	c #E2A43F",
"i@	c #A6781D",
"j@	c #907D28",
"k@	c #647A37",
"l@	c #697E3D",
"m@	c #738B3E",
"n@	c #6A8236",
"o@	c #5C722F",
"p@	c #5B712D",
"q@	c #5E7827",
"r@	c #5C791E",
"s@	c #546C1A",
"t@	c #BA9136",
"u@	c #757F24",
"v@	c #5C7821",
"w@	c #50681F",
"x@	c #56711D",
"y@	c #5C791D",
"z@	c #58741B",
"A@	c #4B6418",
"B@	c #5B791C",
"C@	c #E2A643",
"D@	c #AB8D38",
"E@	c #727B36",
"F@	c #6A803D",
"G@	c #718840",
"H@	c #697F3A",
"I@	c #777F34",
"J@	c #AB8D36",
"K@	c #A47821",
"L@	c #A0731C",
"M@	c #9B6F1B",
"N@	c #907E28",
"O@	c #5E752F",
"P@	c #6A8332",
"Q@	c #698232",
"R@	c #5A712B",
"S@	c #4F6919",
"T@	c #5A771C",
"U@	c #54701A",
"V@	c #AF8B33",
"W@	c #D8A240",
"X@	c #747D21",
"Y@	c #577319",
"Z@	c #486017",
"`@	c #5C791C",
" #	c #EBB56A",
".#	c #EDBE85",
"+#	c #EAB774",
"@#	c #AF8F3D",
"##	c #576C2B",
"$#	c #6E8341",
"%#	c #788E47",
"&#	c #728843",
"*#	c #677D38",
"=#	c #706F27",
"-#	c #7B5B19",
";#	c #7C5918",
">#	c #937D26",
",#	c #5F752D",
"'#	c #5A702C",
")#	c #647E2D",
"!#	c #647F28",
"~#	c #516A1D",
"{#	c #4A6317",
"]#	c #A98931",
"^#	c #D8A443",
"/#	c #818B3A",
"(#	c #627636",
"_#	c #496118",
":#	c #EBB364",
"<#	c #F4D9B6",
"[#	c #F9EBD8",
"}#	c #CACCB8",
"|#	c #697A45",
"1#	c #758C42",
"2#	c #728745",
"3#	c #6C8043",
"4#	c #778C47",
"5#	c #718644",
"6#	c #6D7E3B",
"7#	c #A38E40",
"8#	c #B49346",
"9#	c #997B1E",
"0#	c #576D1D",
"a#	c #4C641B",
"b#	c #546F1C",
"c#	c #536D19",
"d#	c #526D19",
"e#	c #59761B",
"f#	c #9F852E",
"g#	c #E7A945",
"h#	c #EBB46B",
"i#	c #EBD0AA",
"j#	c #E2DFC4",
"k#	c #C0C1A7",
"l#	c #506522",
"m#	c #486016",
"n#	c #EAB05A",
"o#	c #E1C89A",
"p#	c #C8C4A5",
"q#	c #6D8141",
"r#	c #768E41",
"s#	c #6E8143",
"t#	c #6C8042",
"u#	c #888536",
"v#	c #AE8429",
"w#	c #A17A1C",
"x#	c #5F6919",
"y#	c #475E18",
"z#	c #4E6818",
"A#	c #5B771C",
"B#	c #59751B",
"C#	c #8A7F28",
"D#	c #E8A945",
"E#	c #D8A94F",
"F#	c #9BA056",
"G#	c #828E51",
"H#	c #4A6119",
"I#	c #465E14",
"J#	c #526D17",
"K#	c #5A781B",
"L#	c #BF9738",
"M#	c #9B8534",
"N#	c #5F7132",
"O#	c #678130",
"P#	c #718A3A",
"Q#	c #738944",
"R#	c #76833F",
"S#	c #9D7A24",
"T#	c #B18F54",
"U#	c #B9B89B",
"V#	c #828D61",
"W#	c #486115",
"X#	c #516B19",
"Y#	c #787B20",
"Z#	c #DC9F33",
"`#	c #E6A330",
" $	c #E5A12C",
".$	c #D49926",
"+$	c #727B1B",
"@$	c #557219",
"#$	c #4D641D",
"$$	c #718050",
"%$	c #768B48",
"&$	c #6B8531",
"*$	c #C0993A",
"=$	c #E1A643",
"-$	c #767224",
";$	c #5E772A",
">$	c #687D3A",
",$	c #778E47",
"'$	c #708343",
")$	c #967E2C",
"!$	c #AC8C63",
"~$	c #DECCB4",
"{$	c #E9DCBF",
"]$	c #949B69",
"^$	c #465D15",
"/$	c #69771C",
"($	c #CD9526",
"_$	c #E39F29",
":$	c #E5A029",
"<$	c #D49927",
"[$	c #747D1E",
"}$	c #58751B",
"|$	c #57741A",
"1$	c #5A6E2D",
"2$	c #D6D2BB",
"3$	c #DCDABA",
"4$	c #A2AF73",
"5$	c #C39E41",
"6$	c #DCA341",
"7$	c #6D6D20",
"8$	c #5A7420",
"9$	c #6A8530",
"0$	c #6D8242",
"a$	c #6E8242",
"b$	c #8E7F2E",
"c$	c #A5814C",
"d$	c #B68F57",
"e$	c #A47F25",
"f$	c #70761E",
"g$	c #4C6418",
"h$	c #57711A",
"i$	c #AD8B28",
"j$	c #E19F2C",
"k$	c #4C631A",
"l$	c #6C7A3E",
"m$	c #6F8337",
"n$	c #607C21",
"o$	c #BF9737",
"p$	c #CE9B3D",
"q$	c #5E6A1C",
"r$	c #607C22",
"s$	c #60792D",
"t$	c #647B34",
"u$	c #748D3F",
"v$	c #738A42",
"w$	c #697D3F",
"x$	c #667B39",
"y$	c #877D2A",
"z$	c #9D821F",
"A$	c #536C19",
"B$	c #516C19",
"C$	c #4F6818",
"D$	c #918323",
"E$	c #E19E28",
"F$	c #465F14",
"G$	c #526E18",
"H$	c #BC9329",
"I$	c #E8A639",
"J$	c #E8A840",
"K$	c #C39638",
"L$	c #546A1A",
"M$	c #51691D",
"N$	c #576D28",
"O$	c #647C31",
"P$	c #677F33",
"Q$	c #5D7330",
"R$	c #867D29",
"S$	c #B48220",
"T$	c #857D1D",
"U$	c #536E18",
"V$	c #587519",
"W$	c #60701A",
"X$	c #C59425",
"Y$	c #D49A27",
"Z$	c #BC9124",
"`$	c #E6A12C",
" %	c #BB8E2A",
".%	c #526C19",
"+%	c #55711A",
"@%	c #496217",
"#%	c #4B6319",
"$%	c #536A23",
"%%	c #667F2F",
"&%	c #637B30",
"*%	c #5F762F",
"=%	c #847A29",
"-%	c #9B701B",
";%	c #A6771C",
">%	c #956B1B",
",%	c #977128",
"'%	c #967C2F",
")%	c #697521",
"!%	c #4C6516",
"~%	c #607239",
"{%	c #7F8F58",
"]%	c #5C7620",
"^%	c #7F7A1D",
"/%	c #D29927",
"(%	c #D59A27",
"_%	c #B58922",
":%	c #506A19",
"<%	c #5D791F",
"[%	c #627E26",
"}%	c #5B7328",
"|%	c #576D29",
"1%	c #5C742A",
"2%	c #756F24",
"3%	c #8A6317",
"4%	c #8E6921",
"5%	c #AA883E",
"6%	c #D1A64A",
"7%	c #E6B149",
"8%	c #D2A640",
"9%	c #878228",
"0%	c #B1BA94",
"a%	c #DBD5B9",
"b%	c #657930",
"c%	c #5A771A",
"d%	c #4C6518",
"e%	c #B38D23",
"f%	c #E4A029",
"g%	c #A48320",
"h%	c #4A6218",
"i%	c #566E1B",
"j%	c #A38E3D",
"k%	c #AA8A40",
"l%	c #9D7C35",
"m%	c #BC9947",
"n%	c #BB9035",
"o%	c #C78E25",
"p%	c #E59F28",
"q%	c #D8A447",
"r%	c #DCCFA7",
"s%	c #8A9351",
"t%	c #4F6819",
"u%	c #5A761C",
"v%	c #62711A",
"w%	c #66791D",
"x%	c #E29E28",
"y%	c #907D1E",
"z%	c #57741B",
"A%	c #455C15",
"B%	c #5B6A17",
"C%	c #A27D22",
"D%	c #B7913C",
"E%	c #B28326",
"F%	c #AA7B1D",
"G%	c #C58B23",
"H%	c #E7A955",
"I%	c #E0A855",
"J%	c #9A7923",
"K%	c #A08626",
"L%	c #887A1E",
"M%	c #71731B",
"N%	c #6A761B",
"O%	c #6C781C",
"P%	c #70781D",
"Q%	c #797A1C",
"R%	c #687A1D",
"S%	c #DF9D28",
"T%	c #827A1D",
"U%	c #495F19",
"V%	c #87926C",
"W%	c #9FA078",
"X%	c #A37D2D",
"Y%	c #9A6F1A",
"Z%	c #C58C23",
"`%	c #E6A029",
" &	c #DB9B2A",
".&	c #AA7E2A",
"+&	c #DE9E2C",
"@&	c #DF9E28",
"#&	c #D99B27",
"$&	c #D49826",
"%&	c #D29826",
"&&	c #D49726",
"*&	c #AC8320",
"=&	c #717C1D",
"-&	c #72791D",
";&	c #516424",
">&	c #CDC8AA",
",&	c #FBF2E1",
"'&	c #DECEBB",
")&	c #B09676",
"!&	c #E6A129",
"~&	c #D59627",
"{&	c #B0842F",
"]&	c #E2A02B",
"^&	c #C59325",
"/&	c #60771B",
"(&	c #536D1A",
"_&	c #496017",
":&	c #7E8740",
"<&	c #C2AB77",
"[&	c #CDB38E",
"}&	c #C5B197",
"|&	c #E7A129",
"1&	c #CC9026",
"2&	c #BA882C",
"3&	c #E6A22B",
"4&	c #AA8B22",
"5&	c #847A1B",
"6&	c #E39F28",
"7&	c #B28025",
"8&	c #BD8828",
"9&	c #BD9124",
"0&	c #DB9C28",
"a&	c #807E1E",
"b&	c #4E6718",
"c&	c #56721B",
"d&	c #727A1D",
"e&	c #A57E1E",
"f&	c #DF9C27",
"g&	c #B27E22",
"h&	c #A98539",
"i&	c #B58A35",
"j&	c #D49527",
"k&	c #D39826",
"l&	c #707B1D",
"m&	c #BB9124",
"n&	c #B48E23",
"o&	c #556E19",
"p&	c #587619",
"q&	c #547019",
"r&	c #5C731A",
"s&	c #B18D22",
"t&	c #B2801F",
"u&	c #C68C23",
"v&	c #D89726",
"w&	c #A87823",
"x&	c #B58F3F",
"y&	c #E3AC41",
"z&	c #DBA63E",
"A&	c #C19235",
"B&	c #D49627",
"C&	c #DB9B26",
"D&	c #D99A26",
"E&	c #DFA54F",
"F&	c #EBC092",
"G&	c #D1BD8B",
"H&	c #68802A",
"I&	c #58741A",
"J&	c #5C781C",
"K&	c #978620",
"L&	c #70761C",
"M&	c #5A771B",
"N&	c #597320",
"O&	c #6C7E44",
"P&	c #4D6221",
"Q&	c #496216",
"R&	c #A38922",
"S&	c #D89926",
"T&	c #AE7C1D",
"U&	c #A07524",
"V&	c #B89341",
"W&	c #D6A237",
"X&	c #D29623",
"Y&	c #D09623",
"Z&	c #CD992D",
"`&	c #C1912E",
" *	c #C79225",
".*	c #CB9322",
"+*	c #D2A259",
"@*	c #E6C69E",
"#*	c #D3C698",
"$*	c #6A822C",
"%*	c #5A731A",
"&*	c #567219",
"**	c #868E59",
"=*	c #EDE7D9",
"-*	c #8D9B6F",
";*	c #556E17",
">*	c #9F8821",
",*	c #DD9D28",
"'*	c #DC9B27",
")*	c #855F16",
"!*	c #876018",
"~*	c #85601A",
"{*	c #906E28",
"]*	c #BF9943",
"^*	c #D29E32",
"/*	c #CB9321",
"(*	c #CB9425",
"_*	c #C89428",
":*	c #CB9323",
"<*	c #BB8F23",
"[*	c #6C7B1D",
"}*	c #4B6318",
"|*	c #536F18",
"1*	c #6B7B3A",
"2*	c #D4CFA8",
"3*	c #CED1B0",
"4*	c #AF902B",
"5*	c #DE9D28",
"6*	c #9C7C36",
"7*	c #AC8C41",
"8*	c #BC9A4B",
"9*	c #CCA347",
"0*	c #D09B2D",
"a*	c #BD8E21",
"b*	c #6E7B1D",
"c*	c #4D641C",
"d*	c #61792E",
"e*	c #5F762E",
"f*	c #506A18",
"g*	c #626F19",
"h*	c #A19036",
"i*	c #E5CB9E",
"j*	c #E8B26D",
"k*	c #DD9B27",
"l*	c #B6903B",
"m*	c #BA8E32",
"n*	c #B28426",
"o*	c #C08B22",
"p*	c #CC9322",
"q*	c #BC8E21",
"r*	c #60752F",
"s*	c #A1A97B",
"t*	c #DDDBC2",
"u*	c #B9BC9E",
"v*	c #546E1C",
"w*	c #74781C",
"x*	c #74761C",
"y*	c #7A761C",
"z*	c #927E1E",
"A*	c #AF8B22",
"B*	c #CD9726",
"C*	c #E09E28",
"D*	c #E6A43E",
"E*	c #E5A648",
"F*	c #D99926",
"G*	c #996D19",
"H*	c #AA7A1D",
"I*	c #BE8920",
"J*	c #CC9422",
"K*	c #50681D",
"L*	c #677A39",
"M*	c #939D60",
"N*	c #818D4E",
"O*	c #D99A27",
"P*	c #DA9B27",
"Q*	c #DC9C27",
"R*	c #E09D28",
"S*	c #DD9C27",
"T*	c #DA9A26",
"U*	c #D69925",
"V*	c #D49724",
"W*	c #D19624",
"X*	c #CF9523",
"Y*	c #CB9222",
"Z*	c #B17F1F",
"`*	c #BE8921",
" =	c #475F15",
".=	c #516D17",
"+=	c #59761A",
"@=	c #B48E22",
"#=	c #D79925",
"$=	c #CD9422",
"%=	c #C99122",
"&=	c #A8891F",
"*=	c #CA9322",
"==	c #BB871F",
"-=	c #BF8A20",
";=	c #A5861F",
">=	c #C89121",
",=	c #BB8720",
"'=	c #A5771C",
")=	c #AC7C1D",
"!=	c #A7A86C",
"~=	c #E3C7A6",
"{=	c #D4A86A",
"]=	c #CB9429",
"^=	c #C38D21",
"/=	c #C18B20",
"(=	c #C89022",
"_=	c #B07F1F",
":=	c #B3811F",
"<=	c #C48D21",
"[=	c #C58F21",
"}=	c #5B781B",
"|=	c #B1B073",
"1=	c #E8CDAA",
"2=	c #D6AD72",
"3=	c #CC9530",
"4=	c #C68F21",
"5=	c #B3811E",
"6=	c #C58E21",
"7=	c #C08B21",
"8=	c #AD7C1E",
"9=	c #C08A21",
"0=	c #A78921",
"a=	c #B5821F",
"b=	c #A3761C",
"c=	c #946A1A",
"d=	c #A8791D",
"e=	c #B07F1E",
"f=	c #CA9222",
"g=	c #BB8620",
"h=	c #BD8F21",
"i=	c #4A6316",
"j=	c #475F14",
"k=	c #A9891F",
"l=	c #B88520",
"m=	c #956B1A",
"n=	c #BC8720",
"o=	c #AF841F",
"p=	c #6A7A1C",
"q=	c #64763E",
"r=	c #5F7B21",
"s=	c #9D811E",
"t=	c #B88420",
"u=	c #AF7E1E",
"v=	c #A07B1D",
"w=	c #67781C",
"x=	c #557117",
"y=	c #7A8855",
"z=	c #E7E3D0",
"A=	c #CCCEA9",
"B=	c #8D9E5A",
"C=	c #8F7B20",
"D=	c #916919",
"E=	c #946B1A",
"F=	c #A07A1D",
"G=	c #57731A",
"H=	c #596C29",
"I=	c #828B53",
"J=	c #73873C",
"K=	c #617D23",
"L=	c #86741B",
"M=	c #91701B",
"N=	c #67771B",
"O=	c #5B741B",
"P=	c #4C6417",
"Q=	c #4A6117",
"R=	c #576F1A",
"S=	c #5F781C",
"T=	c #4B6316",
"U=	c #485F14",
"V=	c #546D18",
"W=	c #5D771B",
"X=	c #796B19",
"Y=	c #926919",
"          . + @ @ @ @ @ @ @ @ @ @ @ @ @ # $ % & * = - ; > @ , ' ) ! , @ @ @ @ @ @ @ ~ { ]           ",
"      ^ / ( _ : : : : : : : : : : : : < [ } | 1 2 3 4 5 6 7 8 9 0 : : : : : : : : : : a b ~         ",
"    c d e e e f f g g g g g g h i g j k l m n o p q r s t u v w g g g g g g g g g f e e e x y z     ",
"  ^ d e e f A B C D E E E E E F G H I J K L M N p O P Q R S T U V E E E E E E E W X Y f e e Z `     ",
"  0 e e f  ...+.@.#.$.$.$.$.$.%.&.*.=.-.;.>.,.'.).!.~.{.].^./.(._.$.$.$.$.$.$.$.:.<.[.}.|.e e a c   ",
"^ 1.e f 2.3.4.5.6.7.7.7.7.7.7.7.8.9.0.a.b.M n c.2 d.e.f.g.h.i.j.k.l.7.7.7.7.7.7.m.n.o.p.q.e e e r.  ",
"s.: e A t.u.v.w.x.y.y.y.y.y.y.z.A.B.C.p D.M E.F.G.H.I.J.K.L.M.N.O.P.y.y.y.y.y.y.y.Q.R.S.T.U.f e V.  ",
"W.x f X.Y.Z.`. +.+++y.y.y.y.y.@+#+$+%+p &+*+=+-+H.H.g.;+>+,+'+)+!+~+y.y.y.y.y.y.y.y.y.R.{+]+A e ^+  ",
"W.x /+(+_+:+&+n <+[+}+|+1+y.y.2+3+4+5+p 6+7+8+t H.H.9+0+a+b+'+c+d+e+y.y.y.y.y.y.y.y.y.y.f+g+ .e d   ",
"W.x h+i+j+c.c.M k+l+m+n+o+y.y.p+q+r+s+t+u+v+w+t H.x+y+z+A+,+'+c+d+B+y.y.y.y.y.y.y.y.y.y.y.C+D+e d   ",
"W.E+F+;.G+'.K H+I+J+K+L+M+y.y.p+q+w+N+O+P+f.w+t Q+R+S+T+U+V+d.W+d+X+y.y.y.y.y.Y+M+y.y.y.y.Z+`+e d   ",
"W. @.@c.>.N +@@@#@$@%@&@y.y.y.p+q+w+*@H.g.J.=@-@;@'+>@,@'@)@!@~@d+X+y.y.y.y.y.{@]@y.y.y.y.^@/@e d   ",
"W.(@_@c.n :@<@[@w+}@|@1@y.y.y.2@3@4@5@x+6@7@8@9@'+'+W+0@a@b@'+c+d+X+y.y.y.y.y.Y+c@d@e@f@g@h@/@e i@  ",
"W.j@k@l@m@n@o@p@q@r@s@t@y.y.y.P.u@v@w@;@x@y@z@A@'+'+c+B@z@b+'+c+d+X+y.y.y.y.C@D@E@F@G@H@I@J@K@L@M@  ",
"W.N@O@t P@Q@R@R+S@T@U@V@y.y.y.W@X@Y@,+Z@c+B@z@A@'+'+c+`@z@b+'+c+d+X+y. #.#+#@###$#n %#%+&#*#=#-#;#  ",
"W.>#,#'#)#!#~#'+{#N.N.]#y.y.y.^#/#(#_#'+c+`@z@A@'+'+c+`@z@b+'+c+d+X+y.:#<#[#}#|#1#M 2#3#4#5#6#7#8#  ",
"W.9#0#a#b#B@c#'+'+d#e#f#g#y.h#i#j#k#l#m#c+`@z@A@'+'+c+`@z@b+'+c+d+X+y.y.n#o#p#q#r#G+s#K j+&+t#u#v#  ",
"W.w#x#y#z#A#z@A@'+i.B#C#C@Q.D#E#F#G#H#'+c+`@z@A@'+'+c+`@z@,+I#J#K#L#y.y.]@M#N#O#P#Q#p K %#L 3#R#S#  ",
"W.T#U#V#W#z@d+X#'+M.)+Y#Z#`# $.$+$@$,+'+c+`@z@A@'+'+c+`@z@#$$$%$&$*$y.y.=$-$;${.r >$a.5+>.,$p '$)$  ",
"!$~${$]$^$d#d+z@A@'+z#/$($_$:$<$[$}$A@'+c+`@z@A@'+'+c+`@|$1$2$3$4$5$y.y.6$7$8$9$~.*@t+0$n %#K a$b$  ",
"c$d$e$f${#g$}$d+c#'+M.h$i$j$:$<$[$z@A@'+c+`@z@A@'+'+c+`@z@k$l$m$n$o$y.y.p$q$B#r$s$H.H.t$u$v$w$x$y$  ",
"W.x Z z$A$'+B$d+T@C$'+z#D$E$:$<$[$z@A@'+c+`@z@A@'+'+c+`@z@b+F$G$d+H$I$J$K$L$T@e#M$N$H.O$f.P$Q$O@R$  ",
"W.x Z S$T$z#{#U$V$z@i.'+W$X$:$Y$[$z@A@'+c+`@z@A@'+'+c+`@z@b+'+c+d+Z$:$`$ %.%d++%@%#%$%%%{.&%H.*%=%  ",
"-%;%>%,%'%)%!%~%{%]%N.i.,+^%/%(%[$z@A@'+c+`@z@A@'+'+c+`@z@b+'+c+d+Z$:$:$_%)+d+:%'+'+i.<%[%}%|%1%2%  ",
"3%4%5%6%7%8%9%0%a%b%c%}$C$d%^%e%[$z@A@'+c+`@z@A@'+'+c+`@z@b+'+c+d+Z$:$f%g%z@}$b+'+'+.%d+B#d%h%i%j%k%",
"l%m%n%o%p%p%q%r%s%t%c+u%T@c+S@v%w%}$A@'+c+`@z@A@'+'+c+`@z@b+'+c+d+Z$:$x%y%u%~@'+'+,+z%B@+%@%A%B%C%  ",
"D%E%F%G%:$:$H%I%J%K%L%M%N%O%P%Q%R%z@A@'+c+`@z@A@'+'+c+`@z@b+'+c+d+Z$:$S%T%j.i.'+'+:%d+d+:%U%V%W%X%  ",
"Y%f Z Z%:$:$`% &.&+&@&#&$&%&&&*&=&z@A@'+c+`@z@A@'+'+c+`@z@b+'+c+d+Z$:$$&-&)+M.'+,+N.d+B#b+;&>&,&'&)&",
"W.x x Z%:$:$!&~&{&]&:$:$:$:$:$<$[$z@A@'+c+`@z@A@'+'+c+`@z@b+'+c+d+Z$:$^&/&z#'+'+B$d+d+(&'+_&:&<&[&}&",
"W.x x Z%:$:$|&1&2&3&:$:$:$:$:$<$[$z@A@'+c+`@z@A@'+'+c+`@z@b+'+c+d+Z$:$4&+%M.'+i.B#d+B#d%'+.%5&Z d   ",
"W.x x Z%:$`%6&7&8&|&:$:$:$:$:$Y$[$z@A@'+c+`@z@A@'+'+c+`@z@b+'+c+d+9&0&a&b&'+,+c&d+d+B$'+i.d&e&e d   ",
"W.x x Z%`%f&g&h&i&j&`%:$:$:$:$k&l&}$A@'+c+`@z@A@'+'+c+`@z@b+'+c+d+m&n&o&'+M.c+d+p&q&{#,+r&s&t&e d   ",
"W.x Z u&v&w&x&y&z&A&B&C&D&E&F&G&H&I&A@'+c+`@z@A@'+'+c+`@z@b+'+c+J&K&L&,+M.~@M&N&O&P&Q&c+R&S&t&e d   ",
"W.x ( T&U&V&W&X&Y&Z&`& *.*+*@*#*$*|$A@'+c+`@z@A@'+'+c+`@z@b+'+c+B@%*A@,+c+d+&***=*-*;*>*,*'*t&e d   ",
")*!*~*{*]*^*/*.*.*.*(*_*:*.*.*<*[*z@}*Z@W+K#z@A@'+'+c+`@z@b+'+~@c+d%z#N.d+d+|*1*2*3*4*5*:$'*t&e d   ",
"6*7*8*9*0*/*.*.*.*.*.*.*.*.*.*a*b*z@,+c*d*e*c&A@'+'+c+`@z@b+M.f*X#+%T@d+z@d#b&g*h*i*j*:$`%k*t&e d   ",
"l*m*n*o*p*.*.*.*.*.*.*.*.*.*.*q*b*|$r*s*t*u*v*g$'+'+c+`@z@b+@%c+e#O%w*x*y*z*A*B*C*D*E*6&x%F*t&e d   ",
"G*H*x I*J*.*.*.*.*.*.*.*.*.*.*q*b*z@K*L*M*N*c+A@'+'+c+`@z@b+'+c+d+e%O*P*Q*S%R*S*T*U*V*W*X*Y*Z*e d   ",
"W.x Z `*J*.*.*.*.*.*.*.*.*.*.*q*b*z@,+ =.=+=z@A@'+'+c+`@z@b+'+c+d+@=#=V*W*X*$=p*.*.*.*.*.*%=Z*e d   ",
"W.x Z `*J*.*.*.*.*.*.*.*p*.*.*q*b*z@A@'+c+`@z@A@'+'+c+`@z@b+'+c+d+&=.*.*.*.*.*.*.*.*.*.*.*%=Z*e d   ",
"W.x Z I*J*.*.*.*.*.*.**===-=.*q*b*z@A@'+c+`@z@A@'+'+c+`@z@b+'+c+d+;=.*.*.*.*.*>=*=.*.*.*.*%=Z*e d   ",
"W.x e ,=.*.*.*.*.*.*.*%='=)=*=q*b*z@A@'+c+`@z@A@'+'+c+`@z@b+'+c+d+!=~={=]=.*^='=/=p*.*.*.*(=_=e d   ",
"W.x e :=%=.*.*.*.*.*.*.*<=[=.*q*b*z@A@'+c+`@z@A@'+'+c+`@z@b+'+c+}=|=1=2=3=.*4=5=6=.*.*.*p*7=8=e ^+  ",
"s.: e |.9=p*.*.*.*.*.*.*.*.*.*q*b*z@A@'+c+`@z@A@'+'+c+`@z@b+'+c+d+0=.*.*.*.*.*.*.*.*.*.*%=a=e e b=  ",
"c=d=e e e=<=p*.*.*.*.*.*.*.*.*q*b*z@A@'+c+`@z@A@'+'+c+`@z@b+'+c+d+&=.*.*.*.*.*.*.*.*.*f=g=e e e y   ",
"  L@e e e e=9=%=p*J*J*J*J*J*J*h=b*z@A@'+c+`@z@A@'+'+c+`@z@i=j=W+d+k=J*J*J*J*J*J*J*.*4=l=|.e e a '   ",
"  m=i@e e e |.:=g=n=n=n=n=n=n=o=p=z@A@'+c+`@z@A@'+'+c+`@I&l#q=P+r=s=n=n=n=n=n=n=n=t=u=e e e e /     ",
"    c i@e e e e Z Z Z Z Z Z Z v=w=z@A@'+c+`@z@A@'+'+c+`@x=y=z=A=B=C=e Z Z Z Z Z Z e e e e x L@D=    ",
"      E=L@d=: x x x x x x x x F=w=z@}*'+c+`@z@A@'+'+c+`@G=H=I=J=K=L=e x x x x x x x x _ ^+M@z       ",
"          c=s.W.W.W.W.W.W.W.W.M=N=O=P=Q=R=S=O=P=Q=Q=R=S=O=T=U=V=W=X=M@W.W.W.W.W.W.W.W.' Y=          "};
