/* XPM */
static char * wall1_xpm[] = {
"50 50 343 2",
"  	c None",
". 	c #42231A",
"+ 	c #43241A",
"@ 	c #46271A",
"# 	c #48291A",
"$ 	c #4A2B1A",
"% 	c #492A1A",
"& 	c #47281A",
"* 	c #45261A",
"= 	c #46261B",
"- 	c #5D3223",
"; 	c #723E2B",
"> 	c #75412E",
", 	c #76412E",
"' 	c #713E2B",
") 	c #422319",
"! 	c #5D3323",
"~ 	c #5E3323",
"{ 	c #7C442E",
"] 	c #97543A",
"^ 	c #98553B",
"/ 	c #96533A",
"( 	c #7B442E",
"_ 	c #5E3324",
": 	c #432519",
"< 	c #723E2C",
"[ 	c #804731",
"} 	c #5B3122",
"| 	c #79422D",
"1 	c #8F4E35",
"2 	c #8E4E35",
"3 	c #673826",
"4 	c #442519",
"5 	c #7F452F",
"6 	c #432419",
"7 	c #6A3A27",
"8 	c #7A432E",
"9 	c #6A3A28",
"0 	c #472919",
"a 	c #74402D",
"b 	c #7A432D",
"c 	c #8D4E35",
"d 	c #3F2318",
"e 	c #090503",
"f 	c #904F36",
"g 	c #663826",
"h 	c #080403",
"i 	c #79432D",
"j 	c #864A33",
"k 	c #643626",
"l 	c #4A2C19",
"m 	c #98553C",
"n 	c #8F4F35",
"o 	c #7D442F",
"p 	c #5B3223",
"q 	c #673927",
"r 	c #874A32",
"s 	c #8D4D35",
"t 	c #864932",
"u 	c #7E452F",
"v 	c #854932",
"w 	c #462819",
"x 	c #4C2E19",
"y 	c #824730",
"z 	c #78422C",
"A 	c #5C3223",
"B 	c #76402C",
"C 	c #79422E",
"D 	c #78422E",
"E 	c #7B432E",
"F 	c #7B432F",
"G 	c #77412D",
"H 	c #77412C",
"I 	c #834831",
"J 	c #482919",
"K 	c #4D2E19",
"L 	c #74402E",
"M 	c #97553B",
"N 	c #3D2116",
"O 	c #140B07",
"P 	c #75402B",
"Q 	c #522C1F",
"R 	c #5A3122",
"S 	c #5B3222",
"T 	c #572F21",
"U 	c #512B1E",
"V 	c #4C291D",
"W 	c #4C291C",
"X 	c #4D2A1D",
"Y 	c #4D291D",
"Z 	c #723F2A",
"` 	c #120A06",
" .	c #422418",
"..	c #492A19",
"+.	c #552E1F",
"@.	c #341C13",
"#.	c #7D452F",
"$.	c #7F4630",
"%.	c #874A33",
"&.	c #864A32",
"*.	c #8D4E36",
"=.	c #854A34",
"-.	c #321A13",
";.	c #341C14",
">.	c #301912",
",.	c #331B13",
"'.	c #3C2016",
").	c #351C14",
"!.	c #2F1911",
"~.	c #3B2016",
"{.	c #4E2A1D",
"].	c #834933",
"^.	c #8A4C34",
"/.	c #93523A",
"(.	c #321B12",
"_.	c #593121",
":.	c #8C4D34",
"<.	c #8A4C33",
"[.	c #79432E",
"}.	c #5C3222",
"|.	c #884A33",
"1.	c #74402B",
"2.	c #341D13",
"3.	c #884C36",
"4.	c #572F22",
"5.	c #532D21",
"6.	c #593024",
"7.	c #4E2A1E",
"8.	c #552E21",
"9.	c #693929",
"0.	c #5A3124",
"a.	c #4C291E",
"b.	c #5A3123",
"c.	c #673828",
"d.	c #884B35",
"e.	c #97543B",
"f.	c #914F36",
"g.	c #351D14",
"h.	c #603524",
"i.	c #5F3424",
"j.	c #93533B",
"k.	c #915037",
"l.	c #633625",
"m.	c #0D0705",
"n.	c #502C1E",
"o.	c #8F4F36",
"p.	c #583022",
"q.	c #552E22",
"r.	c #4F2B1F",
"s.	c #6A3A29",
"t.	c #5B3224",
"u.	c #4D291E",
"v.	c #582F22",
"w.	c #874B35",
"x.	c #6B3B28",
"y.	c #0E0805",
"z.	c #47271A",
"A.	c #93523B",
"B.	c #894B33",
"C.	c #723E2A",
"D.	c #854931",
"E.	c #5B3124",
"F.	c #542E22",
"G.	c #733F2B",
"H.	c #824731",
"I.	c #8D4D34",
"J.	c #4A281D",
"K.	c #623626",
"L.	c #582F21",
"M.	c #733F2C",
"N.	c #814731",
"O.	c #542D20",
"P.	c #4D2A1E",
"Q.	c #522C20",
"R.	c #8B4D34",
"S.	c #703D2A",
"T.	c #5B3123",
"U.	c #94533B",
"V.	c #7B442F",
"W.	c #532D1F",
"X.	c #49271B",
"Y.	c #743F2C",
"Z.	c #613526",
"`.	c #5C3224",
" +	c #4B291E",
".+	c #723F2B",
"++	c #48271B",
"@+	c #95543B",
"#+	c #7C442F",
"$+	c #23120C",
"%+	c #45251A",
"&+	c #74402C",
"*+	c #5A3023",
"=+	c #452519",
"-+	c #24130C",
";+	c #552F21",
">+	c #96543C",
",+	c #4D311D",
"'+	c #3C2017",
")+	c #21110C",
"!+	c #22120C",
"~+	c #3D2117",
"{+	c #4A2C1A",
"]+	c #572F23",
"^+	c #3F2218",
"/+	c #21110B",
"(+	c #804631",
"_+	c #46261A",
":+	c #402219",
"<+	c #5E3424",
"[+	c #583023",
"}+	c #1F100B",
"|+	c #97553C",
"1+	c #733E2B",
"2+	c #442419",
"3+	c #24130D",
"4+	c #43251A",
"5+	c #573023",
"6+	c #361D15",
"7+	c #23130C",
"8+	c #955339",
"9+	c #894C36",
"0+	c #20110B",
"a+	c #633627",
"b+	c #512C20",
"c+	c #49281C",
"d+	c #8C4C34",
"e+	c #94533A",
"f+	c #623526",
"g+	c #643728",
"h+	c #412319",
"i+	c #94523A",
"j+	c #21120C",
"k+	c #3E2118",
"l+	c #4B291D",
"m+	c #5C3225",
"n+	c #593023",
"o+	c #4D2F19",
"p+	c #5D3325",
"q+	c #593124",
"r+	c #95533A",
"s+	c #472819",
"t+	c #5D3225",
"u+	c #47261A",
"v+	c #804630",
"w+	c #4C301C",
"x+	c #4D311C",
"y+	c #814730",
"z+	c #4B2D1A",
"A+	c #53371D",
"B+	c #884B36",
"C+	c #8B4C34",
"D+	c #814631",
"E+	c #884C35",
"F+	c #814630",
"G+	c #593022",
"H+	c #824831",
"I+	c #48271C",
"J+	c #7F4631",
"K+	c #512B20",
"L+	c #1F110B",
"M+	c #96543B",
"N+	c #3D2118",
"O+	c #3E2218",
"P+	c #96543A",
"Q+	c #492B19",
"R+	c #46251A",
"S+	c #562E21",
"T+	c #562F21",
"U+	c #52361D",
"V+	c #583021",
"W+	c #99563C",
"X+	c #391F16",
"Y+	c #824832",
"Z+	c #8B4D35",
"`+	c #915036",
" @	c #1E100A",
".@	c #3B2017",
"+@	c #884B33",
"@@	c #573020",
"#@	c #78422D",
"$@	c #562F22",
"%@	c #4B291C",
"&@	c #5F3423",
"*@	c #040201",
"=@	c #4A291C",
"-@	c #3C2117",
";@	c #683929",
">@	c #683927",
",@	c #050202",
"'@	c #402318",
")@	c #7F462F",
"!@	c #532E1F",
"~@	c #6A3A2A",
"{@	c #3F2219",
"]@	c #190E09",
"^@	c #7E4530",
"/@	c #834731",
"(@	c #48261B",
"_@	c #542D21",
":@	c #653727",
"<@	c #4B281D",
"[@	c #643627",
"}@	c #76412D",
"|@	c #170D09",
"1@	c #28160F",
"2@	c #5D3224",
"3@	c #5F3425",
"4@	c #573021",
"5@	c #5E3325",
"6@	c #603425",
"7@	c #5D3324",
"8@	c #26150E",
"9@	c #522D1E",
"0@	c #95533B",
"a@	c #97543C",
"b@	c #6C3B28",
"c@	c #4C2A1D",
"d@	c #6F3D29",
"e@	c #723F2C",
"f@	c #945239",
"g@	c #3E2217",
"h@	c #693A27",
"i@	c #653726",
"j@	c #060302",
"k@	c #673827",
"l@	c #6F3D2A",
"m@	c #623624",
"n@	c #623524",
"o@	c #6E3C29",
"p@	c #7C432E",
"q@	c #844932",
"r@	c #844832",
"s@	c #643726",
"t@	c #6B3A28",
"u@	c #442619",
"v@	c #4E2F19",
"w@	c #503119",
"x@	c #513219",
"y@	c #503219",
"z@	c #4B2D19",
"A@	c #4F3119",
"B@	c #422419",
". + + + @ # $ $ $ $ $ $ $ $ $ $ $ $ $ $ $ $ $ $ $ $ $ $ $ $ $ $ # % $ $ $ $ $ $ $ $ $ % & * . + + . ",
"+ = - ; > , > > > > > > > > > > > > > > > > > > > > > > > > > > > > > > > > > > > > > > , > ' - = + ",
") ! ~ { ] ^ ^ ^ ^ ^ ^ ^ ^ ^ ^ ^ ^ ^ ^ ^ ^ ^ ^ ^ ^ ^ ^ ^ ^ ^ ^ ^ ^ ^ ^ ^ ^ ^ ^ ^ ^ ^ ^ ^ ^ / ( _ ! ) ",
": < [ } | 1 2 3 4 5 1 2 2 2 2 2 2 2 2 2 2 2 2 2 2 2 2 2 2 2 2 2 2 2 2 2 2 2 2 1 { 6 7 1 2 | } 8 9 ) ",
"0 a ^ { } b c d e 7 f 2 2 2 2 2 2 2 2 2 2 2 2 2 2 2 2 2 2 2 2 2 2 2 2 2 2 2 2 f g h 4 2 i } { j k 4 ",
"l a m n o p b { q r c s s s s s s s s s s s s s s s s s s s s s s s s s s s s c t 3 u b p o f v k w ",
"x a m y z b A B o C C C D C E F F F F F F F F F F F F F F F F F F F F E C C C C C u G p | H I v k J ",
"K L M N O P 8 Q R S A S A T U V W W W W W X W W W W W W W V Y W W W V U T S S A S R Q u Z `  .v k ..",
"K L m +.@.{ #.} $.%.I &.*.=.X -.;.;.;.>.,.'.).;.;.;.;.;.!.).~.;.;.;.-.{.].^.r I r $.- /.u (._.t k ..",
"K a m :.<.:.[.}.|.1.2.3 f m 3.4.5.6.6.7.8.9.0.6.6.6.6.6.a.b.c.6.6.5.4.d.e.f.| g.h.r i.j.k.<.s v k ..",
"K a m 2 2 :.[.}.|.l.m.n.2 o.m 3.p.q.0.r.4.s.t.0.0.0.0.0.u.t.9.0.q.v.w.e.1 f x.y.z.&.i.A.k.2 2 v k ..",
"K a m 2 2 :.[.}.&.B.C.D.2 2 o.m 3.p.q.r.4.s.t.0.0.0.0.0.u.E.9.F.v.w.e.1 2 2 <.G.I t _ A.k.2 2 v k ..",
"K a m 2 2 :.[.}.H.I.f 1 2 2 2 o.m 3.p.J.4.s.t.0.0.0.0.0.u.t.K.4.w.e.1 2 2 2 2 f :.o _ A.k.2 2 v k ..",
"K a m 2 2 :.8 L.M.N.:.2 2 2 2 2 o.m 3.O.8.s.t.0.0.0.0.0.P.Q.- w.e.n 2 2 2 2 2 R.$.S.T.U.k.2 2 v k J ",
"K a m 2 2 :.V.W.X.Y.N.:.2 2 2 2 2 o.^ 3.b.Z.`.0.0.0.0.0. +O.w.e.n 2 2 2 2 2 R.$..+++T @+k.2 2 v k w ",
"K a m 2 2 :.#+Q $+%+&+N.:.2 2 2 2 2 o.^ 3.*+q.0.0.0.0.F.T w.e.o.2 2 2 2 2 R.$.G.=+-+;+>+k.2 2 v k ,+",
"K a m 2 2 :.V.R '+)+%+&+N.:.2 2 2 2 2 o.^ 3.p.F.0.0.F.v.w.M o.2 2 2 2 2 R.$.G.%+!+~+_ @+k.2 2 v k {+",
"K a m 2 2 :.V.} ]+^+/+%+&+N.:.2 2 2 2 2 o.e.3.p.F.F.v.w.M o.2 2 2 2 2 R.(+; _+$+:+]+<+@+k.2 2 v k ..",
"K a m 2 2 :.V.} [+0.'+}+_+&+N.R.2 2 2 2 2 n e.3.4.T w.|+o.2 2 2 2 2 R.(+1+2+3+4+0.]+_ @+k.2 2 v k ..",
"K a m 2 2 :.V.} 5+E.5.6+7+%+&+[ R.2 2 2 2 2 n 8+N.9+M o.2 2 2 2 2 R.(+1+%+0+++a+0.]+_ @+k.2 2 v k ..",
"K a m 2 2 :.V.} 5+0.5.b+c+!+%+&+[ R.2 2 2 2 2 d+e+M o.2 2 2 2 2 :.(+1+%+)+g.f+g+0.]+_ @+k.2 2 v k ..",
"K a m 2 2 :.V.} 5+0.5.Q.s.h+)+%+&+[ R.2 2 2 :.i+e.o.2 2 2 2 2 :.(+; =+j+k+l+K.g+0.]+_ @+k.2 2 v k ..",
"K a m 2 2 :.V.} 5+0.5.Q.s.m+^+j+%+&+[ R.2 s i+e.o.2 2 2 2 2 :.(+; =+j+^+n+a.K.g+0.]+_ @+k.2 2 v k ..",
"o+a m 2 2 :.V.} 5+0.5.Q.s.p+q+^+j+%+Y.I :.r+e.o.2 2 2 2 2 :.(+; =+j+^+0.n+a.K.g+0.]+_ @+k.2 2 v k s+",
"l a m 2 2 :.V.} 5+0.5.Q.s.t+0.0.^+!+u+{ i+e.o.2 2 2 2 2 :.v+&+u+!+^+0.0.n+a.K.g+0.]+_ @+k.2 2 v k w+",
"x+a m 2 2 :.V.} 5+0.5.Q.s.t+0.0.q+^+V 9+m o.2 2 2 2 2 :.$.N.y+V ^+q+0.0.n+a.K.g+0.]+_ @+k.2 2 v k z+",
"A+a m 2 2 :.V.} 5+0.5.Q.s.t+0.0.q.p.B+m o.2 2 2 2 2 :.$.v+C+r+3.p.q.0.0.n+a.K.g+0.]+_ @+k.2 2 v k ..",
"K a m 2 2 :.V.} 5+0.5.Q.s.t+0.q.v.d.m o.2 2 2 2 2 :.$.D+C+2 1 e.E+p.F.0.n+a.K.g+0.]+_ @+k.2 2 v k ..",
"K a m 2 2 :.V.} 5+0.5.Q.s.p+F.v.d.m o.2 2 2 2 2 :.(+D+C+2 2 2 1 e.3.p.q.n+a.K.g+0.]+_ @+k.2 2 v k ..",
"K a m 2 2 :.V.} 5+0.5.Q.s.]+4.d.m o.2 2 2 2 2 :.(+F+C+2 2 2 2 2 2 e.B+p.5.a.K.g+0.]+_ @+k.2 2 v k ..",
"K a m 2 2 :.V.} 5+0.5.Q.f+G+w.m o.2 2 2 2 2 :.[ Y.8 H+C+2 2 2 2 2 2 e.B+4.I+K.g+0.]+_ @+k.2 2 v k ..",
"K a m 2 2 :.V.} 5+0.5.a.T.d.m o.2 2 2 2 2 :.N.; _+u+Y.J+C+2 2 2 2 2 2 e.B+8._ g+0.]+_ @+k.2 2 v k ..",
"K a m 2 2 :.V.} 5+0.K+O.d.m o.2 2 2 2 2 :.N.1+=+}+L+%+Y.J+C+2 2 2 2 2 2 M+B+A 0.0.]+_ @+k.2 2 v k ..",
"K a m 2 2 :.V.} [+q.v.d.m o.2 2 2 2 2 :.N..+=+/+N+O+!+%+Y.J+C+2 2 2 2 2 2 P+B+p.q.]+_ @+k.2 2 v k ..",
"Q+a m 2 2 :.V.} Q.v.d.m o.2 2 2 2 2 :.N.G.R+/+N+q+0.^+j+=+Y.$.C+2 2 2 2 2 2 P+3.p.Q.<+@+k.2 2 v k ..",
"x+a m 2 2 :.V.T S+B+m o.2 2 2 2 2 :.N.; =+!+N+q+0.0.0.^+0+=+Y.$.C+2 2 2 2 2 2 P+3.T+T.@+k.2 2 v k ..",
"U+a m 2 2 :.8 V+].W+o.2 2 2 2 2 :.N.1+2+)+_+0.0.0.0.0.q+X+0+_+Y.$.C+2 2 2 2 2 2 e.Y+T.U.k.2 2 v k ..",
"K a m 2 2 :.[.A Z+`+n 1 2 2 2 :.H.1+=+ @^+9.`.0.0.0.0.0.u..@3+%+Y.$.C+2 2 2 2 n f +@i.A.k.2 2 v k ..",
"K a m 2 2 :.[.}.r y+@@#@1 2 :.H.G.=+0+,.$@s.t.0.0.0.0.0.u.b.%@j+%+Y.$.C+2 1 I V+P &.i.A.k.2 2 v k ..",
"K a m 2 n :.[.}.+@&@*@=@1 :.H.G.=+0+-@7.4.s.t.0.0.0.0.0.u.`.;@^+j+%+Y.$.^.f >@,@'@&.i.A.k.1 1 v k ..",
"K a m &.)@C+[.}.r v+!@H 2 H.1+=+0+-@q+r.4.~@t.0.0.0.0.0.u.`.9.0.{@!+%+Y.$.C+I +.G.r i.j.o.5 r v k ..",
"K L ^  .]@1.^@R u &.r t /@1+(@!+X+$@]+u._@:@[+]+]+]+]+]+<@p.[@]+$@'+$+++' #.v r r u A i+}@|@z.v k ..",
"K L ^ X 1@E G Q 2@3@3@3@3@2@G+4@5@6@3@_ 3@K.6@3@3@3@3@3@_ 6@f+3@6@3@p.G+`.3@3@3@3@7@Q #+i 8@9@t k ..",
"x a m C++@| p o /.0@U.U.U.0@>+|+>+>+>+>+>+>+>+>+>+>+>+>+>+>+>+>+>+>+a@>+0@U.U.U.0@0@$.} | +@:.v k J ",
"l L m 1 b S { b@c@H.f f f f f f f f f f f f f f f f f f f f f f f f f f f f f f v+%@d@{ S b n v k w ",
"0 e@f@| } { c g@h h@f 2 2 2 2 2 2 2 2 2 2 2 2 2 2 2 2 2 2 2 2 2 2 2 2 2 2 2 2 f i@j@: 2 { } b R.k@4 ",
": l@E } { 1 2 #@m@&.2 2 2 2 2 2 2 2 2 2 2 2 2 2 2 2 2 2 2 2 2 2 2 2 2 2 2 2 2 2 v n@b 1 1 { } E o@h+",
") p ~ p@&.I I q@v r@I I I I I I I I I I I I I I I I I I I I I I I I I I I I I I q@v q@I I %.{ ~ A ) ",
"+ = A 9 :@s@s@s@s@s@s@s@s@s@s@s@s@s@s@s@s@s@s@s@s@s@s@s@s@s@s@s@s@s@s@s@s@s@s@s@s@s@s@s@s@:@t@A = + ",
") . ) u@Q+v@w@x@x@x@x@x@x@x@x@x@x@x@x@x@x@x@x@x@x@x@x@x@x@x@x@y@z@o+x@x@x@x@x@x@x@x@x@A@x 0 B@) . ) "};
