/* XPM */
static char * wall3_xpm[] = {
"50 50 822 2",
"  	c None",
". 	c #936A19",
"+ 	c #976D1A",
"@ 	c #996E1B",
"# 	c #996E1C",
"$ 	c #986F1D",
"% 	c #967020",
"& 	c #8C7629",
"* 	c #817B2F",
"= 	c #7E7E33",
"- 	c #737A32",
"; 	c #7A7C34",
"> 	c #807D32",
", 	c #86782B",
"' 	c #937223",
") 	c #986E1C",
"! 	c #996F1C",
"~ 	c #976C1A",
"{ 	c #886117",
"] 	c #926819",
"^ 	c #9A6E1B",
"/ 	c #996E1A",
"( 	c #956C1A",
"_ 	c #916819",
": 	c #946A19",
"< 	c #9E721B",
"[ 	c #A7781D",
"} 	c #AA7A1E",
"| 	c #AA7B1E",
"1 	c #A97B1F",
"2 	c #9E8029",
"3 	c #8B8336",
"4 	c #7C833D",
"5 	c #7B8742",
"6 	c #7D8E44",
"7 	c #748542",
"8 	c #6E7E40",
"9 	c #718141",
"0 	c #7A8B43",
"a 	c #7B8B43",
"b 	c #7A843F",
"c 	c #828339",
"d 	c #96822F",
"e 	c #99721F",
"f 	c #9F721C",
"g 	c #A97A1D",
"h 	c #A4761C",
"i 	c #966C1A",
"j 	c #A6771D",
"k 	c #AC7C1E",
"l 	c #AB7B1D",
"m 	c #AB7A1C",
"n 	c #A17E26",
"o 	c #8E8738",
"p 	c #7E8740",
"q 	c #728242",
"r 	c #748945",
"s 	c #799047",
"t 	c #778D47",
"u 	c #6D8144",
"v 	c #6C7F43",
"w 	c #738845",
"x 	c #778D46",
"y 	c #708443",
"z 	c #788440",
"A 	c #85883D",
"B 	c #998330",
"C 	c #A97B1E",
"D 	c #AB7B1E",
"E 	c #9F721B",
"F 	c #906819",
"G 	c #AD7D1F",
"H 	c #B8892B",
"I 	c #C99D3F",
"J 	c #CEA448",
"K 	c #CFA548",
"L 	c #CCA447",
"M 	c #B09C45",
"N 	c #929446",
"O 	c #798944",
"P 	c #6F8344",
"Q 	c #718645",
"R 	c #7B9248",
"S 	c #728845",
"T 	c #6E8244",
"U 	c #758B46",
"V 	c #6E8243",
"W 	c #708544",
"X 	c #879145",
"Y 	c #A39946",
"Z 	c #C2A147",
"` 	c #CEA246",
" .	c #C29537",
"..	c #B18224",
"+.	c #AB7C1E",
"@.	c #9D711B",
"#.	c #B48426",
"$.	c #D7AE52",
"%.	c #F0CD73",
"&.	c #F6D176",
"*.	c #F7CF74",
"=.	c #F7CF73",
"-.	c #ECC96E",
";.	c #C3B25E",
">.	c #919A4D",
",.	c #738945",
"'.	c #788E47",
").	c #6C8043",
"!.	c #768C46",
"~.	c #7A9148",
"{.	c #718644",
"].	c #7F9147",
"^.	c #ACA756",
"/.	c #DDC068",
"(.	c #F7D074",
"_.	c #F5D177",
":.	c #E8C369",
"<.	c #C5993B",
"[.	c #AD7D1E",
"}.	c #A7791D",
"|.	c #B48526",
"1.	c #E2BB5F",
"2.	c #F5CA6D",
"3.	c #EEB755",
"4.	c #EBAF4B",
"5.	c #EAAD48",
"6.	c #E0A947",
"7.	c #B69D45",
"8.	c #839346",
"9.	c #6E8143",
"0.	c #768D46",
"a.	c #6D8143",
"b.	c #728745",
"c.	c #788F47",
"d.	c #789046",
"e.	c #9F9846",
"f.	c #D1A546",
"g.	c #E9AD48",
"h.	c #EAAD49",
"i.	c #ECB14E",
"j.	c #F1C060",
"k.	c #F2CC71",
"l.	c #CBA043",
"m.	c #9E721C",
"n.	c #986D1A",
"o.	c #D7AD50",
"p.	c #F2C162",
"q.	c #EAAC47",
"r.	c #E9A944",
"s.	c #E9AA45",
"t.	c #EAB05D",
"u.	c #E0AE5A",
"v.	c #B79B43",
"w.	c #7F9247",
"x.	c #788E46",
"y.	c #7A9147",
"z.	c #748A45",
"A.	c #738A45",
"B.	c #799147",
"C.	c #9B9645",
"D.	c #D4A444",
"E.	c #E9AA44",
"F.	c #EDB351",
"G.	c #EEC467",
"H.	c #BE9032",
"I.	c #A3751C",
"J.	c #9A6F1B",
"K.	c #BA8B2D",
"L.	c #EBBC5D",
"M.	c #EAAC48",
"N.	c #E9B875",
"O.	c #D3C393",
"P.	c #909F5B",
"Q.	c #799046",
"R.	c #6D8043",
"S.	c #728645",
"T.	c #A09744",
"U.	c #DBA644",
"V.	c #EEB553",
"W.	c #D8AC4E",
"X.	c #A5771D",
"Y.	c #CB9B3B",
"Z.	c #D2AB59",
"`.	c #DDDABB",
" +	c #C7CFAC",
".+	c #84985B",
"++	c #6A7D41",
"@+	c #697C40",
"#+	c #6F8444",
"$+	c #708444",
"%+	c #7A9249",
"&+	c #82964F",
"*+	c #AF9B45",
"=+	c #E2A844",
"-+	c #EAAB46",
";+	c #E5B14F",
">+	c #CD9938",
",+	c #D5A140",
"'+	c #8A8F40",
")+	c #BDC18E",
"!+	c #FBF5E7",
"~+	c #C9D0BA",
"{+	c #667644",
"]+	c #5C6E33",
"^+	c #6D8243",
"/+	c #6E8145",
"(+	c #86995C",
"_+	c #A1B077",
":+	c #839449",
"<+	c #C39F44",
"[+	c #E8A945",
"}+	c #E5AB47",
"|+	c #B58425",
"1+	c #CB9431",
"2+	c #EAAB45",
"3+	c #E7A945",
"4+	c #9F8E37",
"5+	c #768F42",
"6+	c #9CAA6D",
"7+	c #EFE4C5",
"8+	c #FBF9F3",
"9+	c #B3B9A4",
"0+	c #57692F",
"a+	c #718544",
"b+	c #839361",
"c+	c #D1D3B8",
"d+	c #AAB57F",
"e+	c #8D9141",
"f+	c #D7A341",
"g+	c #E3A640",
"h+	c #B48223",
"i+	c #CB922F",
"j+	c #EAAA45",
"k+	c #CB9F3F",
"l+	c #7D8934",
"m+	c #6F8837",
"n+	c #7C9148",
"o+	c #DDD5AD",
"p+	c #FFF4E2",
"q+	c #BFC4B2",
"r+	c #617438",
"s+	c #788F45",
"t+	c #627735",
"u+	c #849363",
"v+	c #DADDCB",
"w+	c #EBE5CD",
"x+	c #8E9E60",
"y+	c #738C3E",
"z+	c #6F8736",
"A+	c #A89239",
"B+	c #E5A844",
"C+	c #E3A53F",
"D+	c #B48222",
"E+	c #CB9230",
"F+	c #E2A743",
"G+	c #9D9138",
"H+	c #6C8633",
"I+	c #677F33",
"J+	c #A0A475",
"K+	c #EEE1C5",
"L+	c #879068",
"M+	c #6B803D",
"N+	c #798F47",
"O+	c #7C9349",
"P+	c #6E843C",
"Q+	c #697849",
"R+	c #D3D8C9",
"S+	c #FDF6E9",
"T+	c #C7C49B",
"U+	c #6D823F",
"V+	c #6B8534",
"W+	c #7D8834",
"X+	c #CC9F3F",
"Y+	c #A6781D",
"Z+	c #C79E3F",
"`+	c #778834",
" @	c #6A8432",
".@	c #5F772F",
"+@	c #5F7035",
"@@	c #727A49",
"#@	c #5E7035",
"$@	c #71893F",
"%@	c #7A9247",
"&@	c #7B9249",
"*@	c #6C823A",
"=@	c #828E68",
"-@	c #F8F6F1",
";@	c #FBEED4",
">@	c #A1A774",
",@	c #5C722E",
"'@	c #677F31",
")@	c #A39239",
"!@	c #E4A844",
"~@	c #DEA13E",
"{@	c #A77820",
"]@	c #A0731C",
"^@	c #9B6F1B",
"/@	c #9E9138",
"(@	c #678031",
"_@	c #5C732E",
":@	c #526826",
"<@	c #475C1C",
"[@	c #5B712C",
"}@	c #6E8838",
"|@	c #728B3B",
"1@	c #748D3E",
"2@	c #768E41",
"3@	c #778E43",
"4@	c #6E8342",
"5@	c #6B7F42",
"6@	c #6D7F44",
"7@	c #6C8042",
"8@	c #758C44",
"9@	c #789043",
"0@	c #6C8537",
"a@	c #73834F",
"b@	c #E3DDC7",
"c@	c #E7DBB6",
"d@	c #79884D",
"e@	c #596F2C",
"f@	c #627A30",
"g@	c #6B8533",
"h@	c #7C8935",
"i@	c #CEA040",
"j@	c #E7A844",
"k@	c #AD7D2C",
"l@	c #7D5A18",
"m@	c #7C5918",
"n@	c #E6A843",
"o@	c #CA9D3E",
"p@	c #7A8834",
"q@	c #637B30",
"r@	c #5B712E",
"s@	c #5C722F",
"t@	c #6B8532",
"u@	c #6C8632",
"v@	c #6C8734",
"w@	c #6F8839",
"x@	c #657A37",
"y@	c #637838",
"z@	c #647939",
"A@	c #65793A",
"B@	c #6D843A",
"C@	c #718A39",
"D@	c #61782F",
"E@	c #8A8F5F",
"F@	c #8C905F",
"G@	c #5C7130",
"H@	c #5E752F",
"I@	c #698332",
"J@	c #AA943A",
"K@	c #E6A944",
"L@	c #BE8A33",
"M@	c #99762F",
"N@	c #B59346",
"O@	c #B69446",
"P@	c #B49346",
"Q@	c #DBA03E",
"R@	c #A69037",
"S@	c #6B8432",
"T@	c #5F752F",
"U@	c #657E31",
"V@	c #5A702D",
"W@	c #5A712D",
"X@	c #657D30",
"Y@	c #698330",
"Z@	c #4C641C",
"`@	c #415617",
" #	c #586E2B",
".#	c #667F31",
"+#	c #858A35",
"@#	c #C09338",
"##	c #98722B",
"$#	c #CFA249",
"%#	c #BE8E2F",
"&#	c #B5882A",
"*#	c #B08429",
"=#	c #D9A442",
"-#	c #8B8C36",
";#	c #688132",
">#	c #698232",
",#	c #60772F",
"'#	c #6C8533",
")#	c #708633",
"!#	c #877B2D",
"~#	c #C59B48",
"{#	c #E5A944",
"]#	c #B38121",
"^#	c #A5761C",
"/#	c #C69D3E",
"(#	c #6F8633",
"_#	c #647C30",
":#	c #688131",
"<#	c #627B30",
"[#	c #6B8433",
"}#	c #787E2F",
"|#	c #D9A445",
"1#	c #E4A53F",
"2#	c #CB9330",
"3#	c #E7A944",
"4#	c #A79338",
"5#	c #60782F",
"6#	c #668031",
"7#	c #617830",
"8#	c #657D31",
"9#	c #688232",
"0#	c #748533",
"a#	c #AA8631",
"b#	c #C8902A",
"c#	c #DEA034",
"d#	c #868A32",
"e#	c #6A8332",
"f#	c #617930",
"g#	c #667E31",
"h#	c #6D8633",
"i#	c #8D7E30",
"j#	c #D19737",
"k#	c #B58223",
"l#	c #C58C23",
"m#	c #CB992A",
"n#	c #778832",
"o#	c #688031",
"p#	c #5D732E",
"q#	c #5F762F",
"r#	c #5D742E",
"s#	c #958D3B",
"t#	c #A97D2C",
"u#	c #B17F21",
"v#	c #AD7C1E",
"w#	c #BA8320",
"x#	c #A38622",
"y#	c #69822B",
"z#	c #6C8733",
"A#	c #5B722E",
"B#	c #647B30",
"C#	c #888931",
"D#	c #AD8A3B",
"E#	c #8A641A",
"F#	c #976C19",
"G#	c #9E711B",
"H#	c #9B701B",
"I#	c #A6771C",
"J#	c #956B1B",
"K#	c #977128",
"L#	c #716D20",
"M#	c #546E1B",
"N#	c #658029",
"O#	c #647C31",
"P#	c #6A8333",
"Q#	c #6B8531",
"R#	c #637F27",
"S#	c #717E23",
"T#	c #CEA243",
"U#	c #B28F43",
"V#	c #93722E",
"W#	c #825F1C",
"X#	c #A18766",
"Y#	c #AD9982",
"Z#	c #C1AC8B",
"`#	c #D1B985",
" $	c #929058",
".$	c #4E6320",
"+$	c #5B771E",
"@$	c #627E26",
"#$	c #5F762C",
"$$	c #5D742F",
"%$	c #647E2D",
"&$	c #627E25",
"*$	c #5C791E",
"=$	c #667A1D",
"-$	c #BD9126",
";$	c #BF9030",
">$	c #C29A41",
",$	c #BB9848",
"'$	c #AA8A40",
")$	c #B9A380",
"!$	c #E4D6BB",
"~$	c #EDE0CE",
"{$	c #E9E2D5",
"]$	c #CDCFC2",
"^$	c #708050",
"/$	c #567219",
"($	c #5A771C",
"_$	c #546D20",
":$	c #556B26",
"<$	c #61792F",
"[$	c #596F2B",
"}$	c #556C25",
"|$	c #5A7521",
"1$	c #5B781C",
"2$	c #5E791C",
"3$	c #AA8A22",
"4$	c #B17F1E",
"5$	c #AD7F24",
"6$	c #C09F60",
"7$	c #DCC6A4",
"8$	c #F7E9D4",
"9$	c #FEF6E7",
"0$	c #FBF6ED",
"a$	c #949E76",
"b$	c #557119",
"c$	c #59761B",
"d$	c #4C6517",
"e$	c #4B631A",
"f$	c #526822",
"g$	c #566C27",
"h$	c #5C722C",
"i$	c #67812E",
"j$	c #556D21",
"k$	c #60782A",
"l$	c #6D8733",
"m$	c #586E2A",
"n$	c #556C27",
"o$	c #516720",
"p$	c #4B6319",
"q$	c #536F19",
"r$	c #9A8520",
"s$	c #B2801F",
"t$	c #A5771C",
"u$	c #9A6F1A",
"v$	c #AD7F2E",
"w$	c #D7BD97",
"x$	c #F3DFB9",
"y$	c #EEE0C3",
"z$	c #808B57",
"A$	c #58741A",
"B$	c #58751B",
"C$	c #4B6317",
"D$	c #496117",
"E$	c #546C21",
"F$	c #648029",
"G$	c #6D8735",
"H$	c #778D48",
"I$	c #667544",
"J$	c #566A2A",
"K$	c #607830",
"L$	c #5C732F",
"M$	c #6A8430",
"N$	c #69832E",
"O$	c #5E7729",
"P$	c #50671F",
"Q$	c #4A6219",
"R$	c #496017",
"S$	c #526D19",
"T$	c #8D821F",
"U$	c #AF7F1F",
"V$	c #AC7E29",
"W$	c #C8B07B",
"X$	c #BBB890",
"Y$	c #566A24",
"Z$	c #5A781B",
"`$	c #58741B",
" %	c #496217",
".%	c #546D21",
"+%	c #6D8634",
"@%	c #8CA05E",
"#%	c #C5CEAF",
"$%	c #E7E9E2",
"%%	c #778557",
"&%	c #66812D",
"*%	c #5E762D",
"=%	c #66802F",
"-%	c #68832E",
";%	c #65812A",
">%	c #5E7B1F",
",%	c #546F1A",
"'%	c #4A6217",
")%	c #516C19",
"!%	c #86811F",
"~%	c #AB7F1E",
"{%	c #977F20",
"]%	c #4A6018",
"^%	c #56721A",
"/%	c #798B4D",
"(%	c #CAD1AE",
"_%	c #F5F3E7",
":%	c #FDF9F0",
"<%	c #FBF7EF",
"[%	c #919B72",
"}%	c #5A761F",
"|%	c #536A24",
"1%	c #556C26",
"2%	c #546B25",
"3%	c #536A23",
"4%	c #526921",
"5%	c #5C7722",
"6%	c #5E7B20",
"7%	c #5C791D",
"8%	c #5B781D",
"9%	c #506A19",
"0%	c #7F7F1E",
"a%	c #A77E1E",
"b%	c #92801E",
"c%	c #59751B",
"d%	c #55711A",
"e%	c #657B33",
"f%	c #B9BE8B",
"g%	c #E9DFBB",
"h%	c #F6E5C1",
"i%	c #F4E2BF",
"j%	c #888F5D",
"k%	c #57741B",
"l%	c #4E6819",
"m%	c #496118",
"n%	c #4A6218",
"o%	c #4B6318",
"p%	c #57731B",
"q%	c #55701A",
"r%	c #4F6919",
"s%	c #797E1E",
"t%	c #A47E1E",
"u%	c #A87B1E",
"v%	c #8D7F1E",
"w%	c #526B1C",
"x%	c #69822D",
"y%	c #718834",
"z%	c #8F9D56",
"A%	c #A8AA7D",
"B%	c #59692B",
"C%	c #58751A",
"D%	c #4E6718",
"E%	c #4A6317",
"F%	c #4F6918",
"G%	c #757D1E",
"H%	c #A27E1E",
"I%	c #A77C1E",
"J%	c #8B7E1F",
"K%	c #556F1A",
"L%	c #59771A",
"M%	c #59761A",
"N%	c #617D24",
"O%	c #667D2E",
"P%	c #556F1B",
"Q%	c #5A761B",
"R%	c #56711A",
"S%	c #4E6818",
"T%	c #5B791C",
"U%	c #727C1D",
"V%	c #A07D1E",
"W%	c #A3781D",
"X%	c #7D791C",
"Y%	c #5A771B",
"Z%	c #587519",
"`%	c #5A761C",
" &	c #506A16",
".&	c #697118",
"+&	c #855F16",
"@&	c #876018",
"#&	c #83621A",
"$&	c #6F7420",
"%&	c #57731A",
"&&	c #526626",
"*&	c #747835",
"=&	c #A07C1C",
"-&	c #9C7C36",
";&	c #AC8C41",
">&	c #B89849",
",&	c #8F8830",
"'&	c #54701A",
")&	c #4F6818",
"!&	c #516B17",
"~&	c #899570",
"{&	c #BDC1AA",
"]&	c #C5BA98",
"^&	c #BF9F7A",
"/&	c #A97D35",
"(&	c #B6903B",
"_&	c #BA8E32",
":&	c #AF8325",
"<&	c #8B7F1E",
"[&	c #5B771C",
"}&	c #4E6716",
"|&	c #C1C5AC",
"1&	c #FFFFFB",
"2&	c #FBF6EC",
"3&	c #E7D9C7",
"4&	c #C9B091",
"5&	c #A38458",
"6&	c #996D19",
"7&	c #AA7A1D",
"8&	c #8F7F1E",
"9&	c #55721A",
"0&	c #4F6819",
"a&	c #506919",
"b&	c #4D6617",
"c&	c #BCBA96",
"d&	c #FFF1D8",
"e&	c #F8EAD1",
"f&	c #F0E1C7",
"g&	c #DDCCB3",
"h&	c #B39B7C",
"i&	c #94801E",
"j&	c #506A17",
"k&	c #989C6C",
"l&	c #DFD3AA",
"m&	c #DDC9A5",
"n&	c #C09D6E",
"o&	c #9B811E",
"p&	c #4D6618",
"q&	c #536F1A",
"r&	c #526C19",
"s&	c #495F16",
"t&	c #7C761F",
"u&	c #AC8125",
"v&	c #AC7D23",
"w&	c #A2831E",
"x&	c #60791C",
"y&	c #4B6417",
"z&	c #4C6518",
"A&	c #546F19",
"B&	c #4F6817",
"C&	c #536D19",
"D&	c #877E1D",
"E&	c #A7831F",
"F&	c #6B7B1D",
"G&	c #4C6618",
"H&	c #516526",
"I&	c #596A31",
"J&	c #4C6416",
"K&	c #93821E",
"L&	c #B07F1F",
"M&	c #A77F1E",
"N&	c #767C1D",
"O&	c #4B6418",
"P&	c #5C791C",
"Q&	c #516A19",
"R&	c #A1AB8E",
"S&	c #C9CFBC",
"T&	c #6B7F41",
"U&	c #475F14",
"V&	c #5F791C",
"W&	c #9B821E",
"X&	c #A87C1E",
"Y&	c #7D7C1D",
"Z&	c #516B19",
"`&	c #62762F",
" *	c #D2CFB7",
".*	c #FEFBF5",
"+*	c #C1CAB1",
"@*	c #5E7432",
"#*	c #475F15",
"$*	c #63791C",
"%*	c #9F7E1D",
"&*	c #A3761C",
"**	c #946A1A",
"=*	c #A8791D",
"-*	c #837A1C",
";*	c #4C6417",
">*	c #60732F",
",*	c #D5CAA9",
"'*	c #FFF5DE",
")*	c #F9F2E1",
"!*	c #B1B995",
"~*	c #486016",
"{*	c #69791C",
"]*	c #A27B1D",
"^*	c #8F7A1D",
"/*	c #5E781C",
"(*	c #536E19",
"_*	c #5B781B",
":*	c #526A1E",
"<*	c #92975F",
"[*	c #C5C28D",
"}*	c #D6D1AB",
"|*	c #D8D7BC",
"1*	c #83925B",
"2*	c #4D641B",
"3*	c #73781C",
"4*	c #956B1A",
"5*	c #9D7B1D",
"6*	c #64781C",
"7*	c #536E1A",
"8*	c #557019",
"9*	c #516B18",
"0*	c #6C8435",
"a*	c #7E8D50",
"b*	c #949D68",
"c*	c #818F56",
"d*	c #506B18",
"e*	c #86791C",
"f*	c #A77C1D",
"g*	c #70781C",
"h*	c #486015",
"i*	c #465F14",
"j*	c #967A1D",
"k*	c #916919",
"l*	c #946B1A",
"m*	c #9F731C",
"n*	c #84781C",
"o*	c #5D781C",
"p*	c #516918",
"q*	c #4A6117",
"r*	c #4F6718",
"s*	c #5B751B",
"t*	c #57711A",
"u*	c #4B6217",
"v*	c #516919",
"w*	c #5C771C",
"x*	c #5C781C",
"y*	c #4C6317",
"z*	c #5A741B",
"A*	c #6E781C",
"B*	c #9B771D",
"C*	c #836E1A",
"D*	c #63751B",
"E*	c #63761B",
"F*	c #596D19",
"G*	c #4C6216",
"H*	c #506517",
"I*	c #5F731A",
"J*	c #5E7219",
"K*	c #4D6316",
"L*	c #566A19",
"M*	c #62751B",
"N*	c #5E741B",
"O*	c #60751B",
"P*	c #566B19",
"Q*	c #516618",
"R*	c #62741B",
"S*	c #62761B",
"T*	c #76731B",
"U*	c #8F6A19",
"          . + @ @ @ @ @ @ @ @ @ @ @ # $ % & * = - ; > , ' ) ! ~ { ] ^ @ @ @ @ @ @ @ / ( _           ",
"      : < [ } | | | | | | | | | | 1 2 3 4 5 6 7 8 9 0 a b c d e f | | | | | | | | | | g h /         ",
"    i j k k k l l m m m m m m m n o p q r s t u v v w s x y z A B C m m m m m m m l k k k D E F     ",
"  : j k k l G H I J K K K K L M N O P Q s R S v v v T s R U V W X Y Z K K K K K `  ...l k k +.@.    ",
"  f k k l #.$.%.&.*.=.=.=.-.;.>.,.u P '.R s P v v v ).!.R ~.S ).{.].^./.=.=.=.=.(._.:.<.[.k k g i   ",
": }.k l |.1.2.3.4.5.5.5.6.7.8.U 9.).U R R 0.a.v v v v b.R R c.P v b.d.e.f.g.5.5.h.i.j.k.l.k k k m.  ",
"n.| k G o.p.q.r.s.s.t.u.v.w.x.P v W y.R R r v v v v v P ~.R R z.).).A.B.C.D.s.s.s.E.r.F.G.H.l k I.  ",
"J.D l K.L.M.s.s.s.s.N.O.P.Q.{.v R.U R R R S.v v v v v 9.c.R R s P v a.x R T.U.s.s.s.s.r.V.W.G k X.  ",
"J.D l Y.i.E.s.s.s.s.Z.`. +.+++@+#+s R R s $+v v v v v R.!.R R R r v v W %+&+*+=+s.s.s.s.-+;+#.k j   ",
"J.D l >+q.s.s.s.s.,+'+)+!+~+{+]+r R R R '.V v v v v v v ,.R R R c.^+v /+(+_+:+<+[+s.s.s.s.}+|+k j   ",
"J.D l 1+2+s.s.s.3+4+5+6+7+8+9+0+x.R R R x R.v v v v v v b.R R R ~.a+v b+c+d+R e+f+s.s.s.s.g+h+k j   ",
"J.D l i+j+s.s.s.k+l+m+n+o+p+q+r+y.R R R U v v v v v v v W ~.R R s+t+u+v+w+x+y+z+A+B+s.s.s.C+D+k j   ",
"J.D l E+j+s.s.F+G+H+H+I+J+K+L+M+R R R R ,.v v v v v v v P N+R O+P+Q+R+S+T+U+V+H+W+X+s.s.s.C+D+k Y+  ",
"J.D l E+j+s.s.Z+`+H+ @.@+@@@#@$@%@&@R R b.v v v v v v v T '.R O+*@=@-@;@>@,@'@H+H+)@!@s.2+~@{@]@^@  ",
"J.D l E+j+s.F+/@H+H+(@_@:@<@[@}@|@1@2@3@4@5@R.6@6@6@6@v 7@8@9@2@0@a@b@c@d@e@f@g@H+h@i@s.j@k@l@m@m@  ",
"J.D l E+j+n@o@p@H+H+q@r@,@s@f@t@u@v@m+w@x@y@z@A@A@A@A@z@y@B@C@m+H+D@E@F@G@r@H@I@H+H+J@K@L@M@N@O@P@  ",
"J.D l E+2+Q@R@H+H+S@T@r@r@r@U@H+H+H+H+ @_@V@W@r@r@r@r@W@V@X@H+H+H+Y@Z@`@ #r@,@.#H+H++#@###$#%#&#*#  ",
"J.D l E+j+=#-#H+H+;#,@r@r@,@;#H+H+H+H+>#_@r@r@r@r@r@r@r@r@q@H+H+H+H+H+,#r@r@r@f@'#H+)#!#~#{#]#l ^#  ",
"J.D l E+j+/#(#H+H+_#r@r@r@H@I@H+H+H+H+:#,@r@r@r@r@r@r@r@r@f@g@H+H+H+H+<#r@r@r@T@[#H+H+}#|#1#D+k j   ",
"J.D l 2#3#4#H+H+g@5#r@r@r@,# @H+H+H+H+6#,@r@r@r@r@r@r@r@r@7#g@H+H+H+H+8#r@r@r@_@9#H+H+0#a#C+D+k j   ",
"J.D D b#c#d#H+H+e#H@r@r@r@f#H+H+H+H+H+g#,@r@r@r@r@r@r@r@r@,#g@H+H+H+H+(@,@r@r@,@U@H+H+h#i#j#k#k j   ",
"J.D +.l#m#n#H+H+o#p#r@r@r@q@H+H+H+H+H+8#r@r@r@r@r@r@r@r@r@q#g@H+H+H+H+>#r#r@r@r@f@H+H+H+s#t#u#v#Y+  ",
"J.D +.w#x#y#H+z#g#A#r@r@,@8#H+H+H+H+H+B#r@r@r@r@r@r@r@r@r@H@g@H+H+H+H+e#q#r@r@r@,#g@H+u@C#D#E#F#G#  ",
"H#I#J#K#L#M#N#t@O#r@r@r@_@(@H+H+H+H+H+q@r@r@r@r@r@r@r@r@r@r#[#H+H+H+H+ @,#r@r@r@H@P#Q#R#S#T#U#V#W#  ",
"X#Y#Z#`# $.$+$@$#$r@r@r@p#;#H+H+H+H+H+f@r@r@r@r@r@r@r@r@r@_@ @H+H+H+H+g@7#r@r@r@$$%$&$*$=$-$;$>$,$'$",
")$!$~${$]$^$/$($_$:$e@r@$$I@H+H+t@H+H+<$r@r@r@r@r@r@r@r@r@_@e#H+H+H+H+H+f@r@r@[$}$|$1$1$2$3$4$k 5$  ",
"6$7$8$9$0$a$b$c$d$e$f$g$h$ @H+i$j$k$H+7#r@r@r@r@r@r@r@r@r@_@I@H+H+H+H+l$q@m$n$o$p$q$1$1$1$r$s$k t$  ",
"u$v$w$x$y$z$A$B$C$D$D$e$E$F$G$H$I$J$t@K$r@r@r@r@r@r@r@r@r@L$>#H+H+t@M$N$O$P$Q$D$R$S$1$1$1$T$U$k j   ",
"J.D V$W$X$Y$Z$`$ %D$D$D$.%+%@%#%$%%%&%*%e@V@V@V@V@V@V@V@V@[@=%M$-%;%&$>%,%'%D$D$D$)%1$1$1$!%~%k j   ",
"J.D | {%]%S$1$^% %D$D$D$/%(%_%:%<%[%}%_$f$|%:$n$g$n$1%2%3%4%5%6%7%8%1$1$,%'%D$D$D$9%($1$1$0%a%k j   ",
"J.D C b%c%($1$d%D$D$D$D$e%f%g%h%i%j%k%l%m%n%n%n%n%n%n%n%n%o%p%1$1$1$1$1$q%'%D$D$D$r%($1$1$s%t%k j   ",
"J.D u%v%1$1$1$q%D$D$D$D$w%x%y%z%A%B%C%D%R$D$D$D$D$D$D$D$D$'%^%1$1$1$1$1$d%E%D$D$D$F%($1$1$G%H%k j   ",
"J.D I%J%1$1$1$K%D$D$D$D$F%L%M%N%O%P%Q%D%D$D$D$D$D$D$D$D$D$'%^%1$1$1$1$1$R%E%D$D$D$S%Q%1$T%U%V%k j   ",
"J.D W%X%1$1$1$,%D$D$D$D$9%1$1$Y%Z%Y%($D%D$D$D$D$D$D$D$D$D$'%^%1$1$1$1$1$R%E%D$D$D$S%`%1$ &.&V%k j   ",
"+&@&#&$&1$1$1$,%D$D$D$D$9%1$1$1$1$1$($D%D$D$D$D$D$D$D$D$D$'%^%1$1$1$1$1$R%E%D$D$D$S%($%&&&*&=&k j   ",
"-&;&>&,&1$1$1$'&D$D$D$D$9%1$1$1$1$1$($D%D$D$D$D$D$D$D$D$D$'%^%1$1$1$1$1$R%E%D$D$D$)&($!&~&{&]&^&/&  ",
"(&_&:&<&1$1$1$q%D$D$D$D$r%1$1$1$1$1$($D%D$D$D$D$D$D$D$D$D$'%^%1$1$1$1$1$R%E%D$D$D$)&[&}&|&1&2&3&4&5&",
"6&7&C 8&1$1$1$9&D$D$D$D$0&1$1$1$1$1$($D%D$D$D$D$D$D$D$D$D$'%^%1$1$1$1$1$q%'%D$D$D$a&1$b&c&d&e&f&g&h&",
"J.D +.i&1$1$1$p% %D$D$D$S%1$1$1$1$1$1$S%D$D$D$D$D$D$D$D$D$'%^%1$1$1$1$1$'&'%D$D$D$9%1$j&k&l&m&n&j   ",
"J.D +.o&1$1$1$`$'%D$D$D$p&[&1$1$1$1$1$0&D$D$D$D$D$D$D$D$D$'%p%1$1$1$($($q&'%D$D$D$r&1$A$s&t&u&v&j   ",
"J.D +.w&x&1$1$B$y&D$D$D$z&($1$1$1$1$1$r%D$D$D$D$D$D$D$D$D$E%`$1$1$1$A&B&r&D$D$D$D$C&1$1$c%D&U$k j   ",
"J.D k E&F&1$1$c%G&D$D$D$z&c$1$1$1$1$1$r%D$D$D$D$D$D$D$D$D$E%B$1$1$A$H&I&J&D$D$D$D$,%1$1$1$K&L&k j   ",
"J.D k M&N&1$1$Q%S%D$D$D$O&B$1$1$1$1$1$9%D$D$D$D$D$D$D$D$D$E%c%1$P&Q&R&S&T&U&D$D$E%d%1$1$V&W&v#k X.  ",
"n.| k X&Y&1$1$($9%D$D$D$C$%&1$1$1$1$1$Z&D$D$D$D$D$D$D$D$D$C$c$1$Y%`& *.*+*@*#*D$O&p%1$1$$*%*k k &*  ",
"**=*k k -*1$1$1$S$D$D$D$E%d%1$1$1$1$1$r&D$D$D$D$D$D$D$D$D$;*`%1$L%>*,*'*)*!* #~*p&c%1$1${*]*k k E   ",
"  ]@k k ^*/*1$T%q%'%D$D$ %(*1$1$1$1$1$S$D$D$D$D$D$D$D$D$D$z&`%1$_*:*<*[*}*|*1*2*S%($1$1$3*u%k g ~   ",
"  4*Y+k 5*6*1$1$p%y&D$D$D$r&1$1$1$1$1$7* %D$D$D$D$D$D$D$D$p&($1$T%8*9*0*a*b*c*P$d*1$1$1$e*+.k <     ",
"    i Y+f*g*1$1$c%p&D$D$R$r%($1$1$1$1$'&'%D$D$D$D$D$D$D$D$)&($1$1$1$P&b$h*i*#* %'&1$1$/*j*D ]@k*    ",
"      l*m*n*o*o*o*p*q*D$D$r*s*o*o*o*o*t*u*D$D$D$D$D$D$D$D$v*w*o*x*o*o*,%D$D$D$y*z*o*x*A*B*^@F       ",
"          C*D*E*E*F*G*G*G*H*I*E*E*E*E*J*K*G*G*G*G*G*G*G*G*L*M*E*N*O*E*P*G*G*G*Q*R*E*S*T*U*          "};
