/* XPM */
static char * wall_xpm[] = {
"50 50 514 2",
"  	c None",
". 	c #8E6619",
"+ 	c #936A19",
"@ 	c #976D1A",
"# 	c #996E1B",
"$ 	c #986D1B",
"% 	c #896422",
"& 	c #876222",
"* 	c #8A6420",
"= 	c #8D661F",
"- 	c #90681E",
"; 	c #936A1C",
"> 	c #966C1B",
", 	c #976C1A",
"' 	c #886117",
") 	c #926819",
"! 	c #9A6E1B",
"~ 	c #996E1A",
"{ 	c #956C1A",
"] 	c #916819",
"^ 	c #946A19",
"/ 	c #9E721B",
"( 	c #A7781D",
"_ 	c #AA7A1E",
": 	c #AA7B1E",
"< 	c #9B7126",
"[ 	c #655B50",
"} 	c #5D5B59",
"| 	c #655D55",
"1 	c #6D6052",
"2 	c #73614D",
"3 	c #786247",
"4 	c #7C623F",
"5 	c #806135",
"6 	c #7C5C2A",
"7 	c #976D20",
"8 	c #A97A1D",
"9 	c #A4761C",
"0 	c #906719",
"a 	c #966C1A",
"b 	c #A6771D",
"c 	c #AC7C1E",
"d 	c #AB7B1D",
"e 	c #AB7A1C",
"f 	c #A8781C",
"g 	c #7B6345",
"h 	c #7A7A7A",
"i 	c #828282",
"j 	c #808080",
"k 	c #7D7D7D",
"l 	c #767676",
"m 	c #727272",
"n 	c #6D6D6D",
"o 	c #616161",
"p 	c #836336",
"q 	c #AB7B1E",
"r 	c #9F721B",
"s 	c #906819",
"t 	c #AD7D1F",
"u 	c #B8892B",
"v 	c #C99D3F",
"w 	c #CEA448",
"x 	c #CFA548",
"y 	c #AD8C47",
"z 	c #73706C",
"A 	c #818181",
"B 	c #7E7E7E",
"C 	c #6D6254",
"D 	c #BD9745",
"E 	c #CEA246",
"F 	c #C29537",
"G 	c #B18224",
"H 	c #AB7C1E",
"I 	c #9D711B",
"J 	c #8F6719",
"K 	c #8F6718",
"L 	c #9F721C",
"M 	c #B48426",
"N 	c #D7AE52",
"O 	c #F0CD73",
"P 	c #F6D176",
"Q 	c #F7CF74",
"R 	c #F7CF73",
"S 	c #E7C26C",
"T 	c #8E7E62",
"U 	c #7F7F7F",
"V 	c #898989",
"W 	c #646464",
"X 	c #AB915C",
"Y 	c #F4CD72",
"Z 	c #F7D074",
"` 	c #F5D177",
" .	c #E8C369",
"..	c #C5993B",
"+.	c #AD7D1E",
"@.	c #A7791D",
"#.	c #B48526",
"$.	c #E2BB5F",
"%.	c #F5CA6D",
"&.	c #EEB755",
"*.	c #EBAF4B",
"=.	c #EAAD48",
"-.	c #D8A045",
";.	c #977850",
">.	c #7B7A7A",
",.	c #999999",
"'.	c #6A6A6A",
").	c #6B6055",
"!.	c #CE9945",
"~.	c #EAAD49",
"{.	c #ECB14E",
"].	c #F1C060",
"^.	c #F2CC71",
"/.	c #CBA043",
"(.	c #9E721C",
"_.	c #986D1A",
":.	c #D7AD50",
"<.	c #F2C162",
"[.	c #EAAC47",
"}.	c #E9A944",
"|.	c #E9AA45",
"1.	c #E8A945",
"2.	c #CB9542",
"3.	c #877158",
"4.	c #878787",
"5.	c #969696",
"6.	c #959595",
"7.	c #949494",
"8.	c #989898",
"9.	c #9D9D9D",
"0.	c #A0A0A0",
"a.	c #A6A6A6",
"b.	c #6C6C6C",
"c.	c #696969",
"d.	c #626262",
"e.	c #977448",
"f.	c #E4A744",
"g.	c #E9AA44",
"h.	c #EDB351",
"i.	c #EEC467",
"j.	c #BE9032",
"k.	c #A3751C",
"l.	c #9A6F1B",
"m.	c #BA8B2D",
"n.	c #EBBC5D",
"o.	c #EAAC48",
"p.	c #E5A744",
"q.	c #BB8B44",
"r.	c #7E7165",
"s.	c #909090",
"t.	c #9A9A9A",
"u.	c #9E9E9E",
"v.	c #A9A9A9",
"w.	c #CFCFCF",
"x.	c #B8B8B8",
"y.	c #6B6B6B",
"z.	c #66605A",
"A.	c #C59143",
"B.	c #EEB553",
"C.	c #D8AC4E",
"D.	c #A5771D",
"E.	c #CB9B3B",
"F.	c #EAAB45",
"G.	c #EAAA45",
"H.	c #DFA343",
"I.	c #AA8048",
"J.	c #7D7771",
"K.	c #A2A2A2",
"L.	c #9F9F9F",
"M.	c #777777",
"N.	c #676767",
"O.	c #8B6E4B",
"P.	c #E1A444",
"Q.	c #EAAB46",
"R.	c #E5B14F",
"S.	c #CD9938",
"T.	c #E2A541",
"U.	c #C48E33",
"V.	c #D69C3C",
"W.	c #D79D42",
"X.	c #97764E",
"Y.	c #81807F",
"Z.	c #8C8C8C",
"`.	c #8E8E8E",
" +	c #63605E",
".+	c #BC8B43",
"++	c #E5AB47",
"@+	c #B58425",
"#+	c #CB9431",
"$+	c #D19839",
"%+	c #92691B",
"&+	c #B5832C",
"*+	c #E7A844",
"=+	c #CA9442",
"-+	c #877159",
";+	c #979797",
">+	c #747474",
",+	c #80694F",
"'+	c #DCA143",
")+	c #E7A944",
"!+	c #E8A944",
"~+	c #E3A640",
"{+	c #B48223",
"]+	c #CB922F",
"^+	c #C38E32",
"/+	c #D2993B",
"(+	c #BA8A44",
"_+	c #7F7266",
":+	c #838383",
"<+	c #707070",
"[+	c #626161",
"}+	c #B18444",
"|+	c #E4A642",
"1+	c #E6A844",
"2+	c #E3A53F",
"3+	c #B48222",
"4+	c #CB9230",
"5+	c #A97F47",
"6+	c #7E7872",
"7+	c #9B9B9B",
"8+	c #7B7B7B",
"9+	c #776451",
"0+	c #D79D43",
"a+	c #A6781D",
"b+	c #DBA043",
"c+	c #96764F",
"d+	c #838280",
"e+	c #7C7C7C",
"f+	c #686868",
"g+	c #A67D46",
"h+	c #DEA13E",
"i+	c #A77820",
"j+	c #A0731C",
"k+	c #9B6F1B",
"l+	c #8C6518",
"m+	c #B58745",
"n+	c #717171",
"o+	c #8F8F8F",
"p+	c #939393",
"q+	c #9C9C9C",
"r+	c #B1B1B1",
"s+	c #A3A3A3",
"t+	c #73675B",
"u+	c #C69141",
"v+	c #AD7D2C",
"w+	c #7D5A18",
"x+	c #7C5918",
"y+	c #7C5A19",
"z+	c #E6A843",
"A+	c #E5A743",
"B+	c #99774D",
"C+	c #6F6F6F",
"D+	c #888888",
"E+	c #A7A7A7",
"F+	c #B3B3B3",
"G+	c #B7B7B7",
"H+	c #B2B2B2",
"I+	c #BCBCBC",
"J+	c #BABABA",
"K+	c #858585",
"L+	c #817264",
"M+	c #E0A443",
"N+	c #BE8A33",
"O+	c #99762F",
"P+	c #B59346",
"Q+	c #B69446",
"R+	c #B49346",
"S+	c #B19044",
"T+	c #DEA13F",
"U+	c #DDA13F",
"V+	c #DEA243",
"W+	c #7F6A54",
"X+	c #797979",
"Y+	c #8A8A8A",
"Z+	c #A1A1A1",
"`+	c #C5C5C5",
" @	c #B6B6B6",
".@	c #787878",
"+@	c #7F7C7A",
"@@	c #91734F",
"#@	c #D09843",
"$@	c #CC9539",
"%@	c #98722B",
"&@	c #CFA249",
"*@	c #BE8E2F",
"=@	c #B5882A",
"-@	c #B08429",
";@	c #9F7826",
">@	c #CF9843",
",@	c #6A635D",
"'@	c #B5B5B5",
")@	c #8B8B8B",
"!@	c #756C64",
"~@	c #7F633B",
"{@	c #C39947",
"]@	c #E5A944",
"^@	c #B38121",
"/@	c #A5761C",
"(@	c #926918",
"_@	c #B98A45",
":@	c #666666",
"<@	c #848484",
"[@	c #ACACAC",
"}@	c #6A645D",
"|@	c #D29E45",
"1@	c #E4A53F",
"2@	c #CB9330",
"3@	c #E9AA43",
"4@	c #E8A840",
"5@	c #E6A63B",
"6@	c #9E7746",
"7@	c #737373",
"8@	c #A5A5A5",
"9@	c #67635E",
"0@	c #A87B34",
"a@	c #C8902A",
"b@	c #E7A435",
"c@	c #E6A230",
"d@	c #E6A12C",
"e@	c #DC9A2A",
"f@	c #816950",
"g@	c #AEAEAE",
"h@	c #A4A4A4",
"i@	c #AFAFAF",
"j@	c #656361",
"k@	c #8C6C36",
"l@	c #D19737",
"m@	c #B58223",
"n@	c #C58C23",
"o@	c #E6A129",
"p@	c #E7A129",
"q@	c #D0922E",
"r@	c #6F645A",
"s@	c #ADADAD",
"t@	c #B4B4B4",
"u@	c #656464",
"v@	c #A38148",
"w@	c #AB7D2C",
"x@	c #B17F21",
"y@	c #AD7C1E",
"z@	c #BA8320",
"A@	c #CE8F23",
"B@	c #CB8D23",
"C@	c #C98C22",
"D@	c #A27533",
"E@	c #646363",
"F@	c #8D8D8D",
"G@	c #AE874C",
"H@	c #B28B3D",
"I@	c #8A641A",
"J@	c #976C19",
"K@	c #9E711B",
"L@	c #926919",
"M@	c #9B701B",
"N@	c #A6771C",
"O@	c #956B1B",
"P@	c #977128",
"Q@	c #A17D33",
"R@	c #A38036",
"S@	c #A68439",
"T@	c #7E6A48",
"U@	c #757575",
"V@	c #6E6E6E",
"W@	c #A07A49",
"X@	c #E0AB49",
"Y@	c #B28F43",
"Z@	c #93722E",
"`@	c #825F1C",
" #	c #7D5A16",
".#	c #8A6317",
"+#	c #8E6921",
"@#	c #AA883E",
"##	c #D1A64A",
"$#	c #E6B149",
"%#	c #E9B247",
"&#	c #E4AC43",
"*#	c #8A7151",
"=#	c #868686",
"-#	c #91704B",
";#	c #DA9A2B",
">#	c #BF9030",
",#	c #C29A41",
"'#	c #BB9848",
")#	c #AA8A40",
"!#	c #9D7C35",
"~#	c #BC9947",
"{#	c #BB9035",
"]#	c #C78E25",
"^#	c #E59F28",
"/#	c #D2922B",
"(#	c #716459",
"_#	c #816A52",
":#	c #D49428",
"<#	c #B17F1E",
"[#	c #AD7F24",
"}#	c #A57F2C",
"|#	c #B7913C",
"1#	c #B28326",
"2#	c #AA7B1D",
"3#	c #C58B23",
"4#	c #E5A029",
"5#	c #B5823B",
"6#	c #727171",
"7#	c #746557",
"8#	c #CE912A",
"9#	c #B2801F",
"0#	c #A5771C",
"a#	c #9A6F1A",
"b#	c #D3942C",
"c#	c #887666",
"d#	c #6D645D",
"e#	c #C48C2F",
"f#	c #E19D29",
"g#	c #A27B4B",
"h#	c #676461",
"i#	c #BA8633",
"j#	c #C28A34",
"k#	c #837D78",
"l#	c #656565",
"m#	c #AF7F38",
"n#	c #BB8525",
"o#	c #8E755D",
"p#	c #A1783F",
"q#	c #977241",
"r#	c #898888",
"s#	c #BBBBBB",
"t#	c #7B634A",
"u#	c #88652D",
"v#	c #8E6829",
"w#	c #A3751F",
"x#	c #997129",
"y#	c #7F776F",
"z#	c #B9B9B9",
"A#	c #BEBEBE",
"B#	c #C7C7C7",
"C#	c #9C7022",
"D#	c #A6771F",
"E#	c #7A6752",
"F#	c #929292",
"G#	c #A8A8A8",
"H#	c #6C6966",
"I#	c #946C29",
"J#	c #855F16",
"K#	c #735935",
"L#	c #7E7D7D",
"M#	c #919191",
"N#	c #696868",
"O#	c #8A6731",
"P#	c #9A7A35",
"Q#	c #786A50",
"R#	c #80633B",
"S#	c #B28D3A",
"T#	c #76654F",
"U#	c #606060",
"V#	c #766045",
"W#	c #916919",
"X#	c #93691C",
"Y#	c #6D5F51",
"Z#	c #6D5E4E",
"`#	c #8E671B",
" $	c #916921",
".$	c #6B6054",
"+$	c #685F56",
"@$	c #886422",
"#$	c #8E6824",
"$$	c #696159",
"%$	c #65615E",
"&$	c #826028",
"*$	c #8B6627",
"=$	c #67615C",
"-$	c #656463",
";$	c #795C33",
">$	c #87642A",
",$	c #656260",
"'$	c #6E593D",
")$	c #83622E",
"!$	c #646361",
"~$	c #636363",
"{$	c #665848",
"]$	c #7D5F33",
"^$	c #5F5852",
"/$	c #755B38",
"($	c #525252",
"_$	c #6E583D",
":$	c #474747",
"<$	c #4D4D4D",
"[$	c #5E5E5E",
"}$	c #605C58",
"|$	c #515151",
"1$	c #505050",
"2$	c #494949",
"3$	c #595959",
"4$	c #5A5A5A",
"5$	c #5B5A5A",
"6$	c #585757",
"7$	c #575656",
"8$	c #5A5959",
"9$	c #565656",
"0$	c #404040",
"a$	c #6D5432",
"b$	c #705633",
"c$	c #735833",
"d$	c #745933",
"e$	c #745A34",
"f$	c #755A34",
"g$	c #785E3B",
"h$	c #785E3C",
"i$	c #775D3C",
"j$	c #66533B",
"k$	c #6D573C",
"l$	c #795E3C",
"m$	c #765C3B",
"n$	c #6F5634",
"o$	c #3E3E3E",
"        . + @ # # # # # # # # # # # # # # # $ % & * = - ; > # , ' ) ! # # # # # # # ~ { ]           ",
"      ^ / ( _ : : : : : : : : : : : : : : : < [ } | 1 2 3 4 5 6 7 : : : : : : : : : : 8 9 ~ 0       ",
"    a b c c c d d e e e e e e e e e e e e f g h i j k h l m n o p e e e e e e e e d c c c q r s     ",
"  ^ b c c d t u v w x x x x x x x x x x x y z A j j j j B A i h C D x x x x x x E F G d c c H I J   ",
"K L c c d M N O P Q R R R R R R R R R R S T B j j j j j U j V k W X Y R R R R R Z `  ...+.c c 8 a   ",
"^ @.c d #.$.%.&.*.=.=.=.=.=.=.=.=.=.=.-.;.>.i A A A A A j j ,.l '.).!.=.=.=.=.=.~.{.].^./.c c c (.  ",
"_.: c t :.<.[.}.|.|.|.|.|.|.|.|.|.1.2.3.4.5.6.7.6.8.9.0.5.8.a.b.c.d.e.f.|.|.|.|.|.g.}.h.i.j.d c k.] ",
"l.q d m.n.o.|.|.|.|.|.|.|.|.|.|.p.q.r.s.t.,.,.,.,.t.t.u.v.w.x.l '.y.z.A.|.|.|.|.|.|.|.}.B.C.t c D.+ ",
"l.q d E.{.g.|.|.|.|.F.G.|.|.|.H.I.J.6.,.,.,.,.,.,.,.,.,.0.K.t.L.M.'.N.O.P.|.|.|.|.|.|.|.Q.R.M c b + ",
"l.q d S.[.|.|.|.|.T.U.V.|.|.W.X.Y.8.,.,.,.,.,.,.,.,.,.5.Z.i U `.8.l y. +.+|.|.|.|.|.|.|.|.++@+c b + ",
"l.q d #+F.|.|.|.Q.$+%+&+*+=+-+V ,.,.,.,.,.,.,.,.,.,.;+V j j j U 4.`.>+c.,+'+|.)+!+|.|.|.|.~+{+c b + ",
"l.q d ]+G.|.|.|.|.T.^+/+(+_+s.,.,.,.,.,.,.,.,.,.,.,.Z.j j j j j j :+:+<+[+}+|.|+1+|.|.|.|.2+3+c b + ",
"l.q d 4+G.|.|.|.|.|.P.5+6+7.t.,.,.,.,.,.,.,.,.,.7+t.:+j j j B B j j A 8+n 9+0+|.|.|.|.|.|.2+3+c a++ ",
"l.q d 4+G.|.|.|.|.b+c+d+,.t.,.,.,.,.,.,.,.,.,.t.v.s.j j j j B k j j j j e+f+g+1.|.|.|.|.F.h+i+j+k+l+",
"l.q d 4+G.|.|.|.|.m+n+V Z.o+p+8.q+,.8.8.8.8.,.r+s+j j j j j j j j j j U e+8+t+u+1.|.|.|.*+v+w+x+x+y+",
"l.q d 4+G.z+A+|.)+B+c.b.C+m l 8+D+,.E+F+G+H+I+J+K+j j j j j j j j j j U 8+j B L+}+M+|.|.N+O+P+Q+R+S+",
"l.q d 4+F.T+U+G.V+W+y.y.y.'.'.'.n >+X+B Y+Z+`+ @V U j B .@j j j j j j j j 4.6.7.+@@@#@$@%@&@*@=@-@;@",
"l.q d 4+G.|.|.|.>@,@y.'.y.y.y.y.y.'.'.'.y.n m q+'@t.j U 8+j j j j j U :+)@5.,.,.,.Z.!@~@{@]@^@d /@(@",
"l.q d 4+G.|.|.|._@W '.:@y.y.y.y.y.y.y.y.y.y.y.'.<@[@[@4.j j j j j j )@8.,.,.,.,.,.t.p+}@|@1@3+c b + ",
"l.q d 2@G.3@4@5@6@f+y.f+y.y.y.y.y.y.y.y.y.'.N.y.c.7@8.'@6.A U U A 5.8@7+,.,.,.,.,.;+i 9@0@2+3+c b + ",
"l.q q a@b@c@d@e@f@y.y.y.y.y.y.y.y.'.'.y.y.y.'.y.y.'.y.j g@8@V <@h@i@q+,.,.,.,.,.;+i n j@k@l@m@c b + ",
"l.q H n@o@o@p@q@r@b.y.y.y.y.y.y.y.c.c.y.y.y.y.y.y.y.y.y.<+,.s@x.t@7+,.,.,.,.,.8.:+n y.u@v@w@x@y@a++ ",
"l.q H z@A@B@C@D@E@y.y.y.y.y.y.y.y.y.y.y.y.y.y.y.f+f+y.y.y.'.F@'@t.,.,.,.,.,.8.<@n y.y.N.G@H@I@J@K@L@",
"M@N@O@P@Q@R@S@T@f+y.y.y.y.y.'.'.y.y.y.y.y.y.y.y.f+N.y.y.y.'.U@9.,.,.,.,.,.8.K+V@y.y.y.c.W@X@Y@Z@`@ #",
".#+#@###$#%#&#*#y.y.y.'.y.<+M.X+m n y.y.y.y.y.y.y.y.y.y.y.y.n+t.,.,.,.,.8.=#V@y.y.y.y.'.-#;#>#,#'#)#",
"!#~#{#]#^#^#/#(#b.n >+k =#F@7.)@U h U@V@y.y.y.y.y.y.y.y.y.y.V@6.t.,.,.,.4.C+y.y.y.y.y.y._#:#<#c [#}#",
"|#1#2#3#4#4#5#6#K+`.p+;+t.t.t.4.j j U k .@<+b.y.y.y.y.y.y.y.n o+t.,.,.V C+y.y.y.y.y.y.b.7#8#9#c 0#(@",
"a#d H n@4#b#c#5.,.,.,.,.,.t.7+:+j j j j j U h 7@V@y.y.y.y.y.b.Y+t.,.V <+y.y.y.y.y.y.y.b.d#e#9#c b + ",
"l.q q n@f#g#F@t.,.,.,.,.,.Z+;+U j j U j j j j j e+l <+b.y.y.y.=#t.Y+<+y.y.y.y.y.y.'.y.y.h#i#9#c b + ",
"l.q q n@j#k#,.,.,.,.,.,.t.s@Y+U j B b.X+j j j j j j B X+m n y.K+Z.n+y.y.:@'.y.y.y.y.y.y.l#m#9#c b + ",
"l.q q n#o#6.,.,.,.,.,.8.8@v.j j j 8+d.>+A j j j j j j j U e+U@k m y.y.y.c.y.y.y.y.y.y.y.N.p#9#c b + ",
"l.q _ q#r#t.,.,.,.,.8.q+s#5.U j j B n h j j j j j j U j j j <@=#V@y.y.y.y.y.y.y.y.y.y.y.'.t#u#v#w#+ ",
"l.q x#y#8.,.,.7+q+a.z#A#B#v.:+U j j B j j j j j j k h j j i s.;+X+'.y.y.y.y.y.y.y.y.y.y.b.V@'.| C#+ ",
"l.D#E#F#q+q+9.8@v.q+:+X+X+0.G#Y+U j j j j j j j j U U j j F@,.t.)@n y.y.y.y.y.y.y.y.y.y.m j i H#I#+ ",
"J#K#L#M#`.Z.4.>+n b.y.'.'.b.4.9.`.j j j j j j j j j j j V 8.,.,.;+X+'.y.y.'.f+y.y.y.y.n 8+j U N#O#+ ",
"P#Q#U@>+n '.'.y.y.y.y.y.y.y.'.U@Y+Z.A j j j j j j j j =#5.,.,.,.,.)@n y.y.N.o '.y.y.y.>+j j i y.R#+ ",
"S#T#'.'.y.y.y.y.y.y.y.y.y.y.y.'.n .@U U j j j j j j <@p+,.,.,.;+Y+6.X+'.y.:@U#'.y.y.V@k j A 4.b.V#W#",
"X#Y#y.y.y.y.y.y.y.c.:@y.y.y.y.y.y.y.n >+k j j j j i s.,.,.,.,.;+K+;+)@n y.'.N.y.y.y.U@j j =#Y+y.Z#`#",
" $.$y.y.y.y.y.y.y.f+d.y.y.y.y.y.y.y.y.y.<+h j j j F@,.,.,.,.,.,.8.,.;+X+'.y.y.y.y.<+<@:+U s.=#'.+$@$",
"#$$$y.y.y.y.y.y.y.'.f+y.y.y.y.y.y.y.y.y.y.V@M.U V 8.,.,.,.,.,.,.,.,.t.)@n y.y.y.'.M.5.0.8.0.B '.%$&$",
"*$=$b.y.y.y.'.'.y.y.y.y.y.y.y.y.y.y.y.y.y.y.y..@6.,.,.,.,.,.,.,.,.,.,.;+X+'.y.y.'.k ,.7+g@A#m y.-$;$",
">$,$b.y.y.y.W l#y.y.y.y.y.y.y.y.y.y.y.y.y.y.y.C+o+t.8.8.,.,.,.,.,.,.,.t.)@n y.y.y.:+t.,.L.8@n '.N.'$",
")$!$b.y.y.y.o ~$y.y.y.y.y.y.y.y.y.y.y.'.N.y.y.y.i t.F@i ,.,.p+4.8.,.,.,.;+X+'.y.b.V t.8.K.6.'.f+c.{$",
"]$-$y.y.y.y.l#N.y.y.y.y.y.y.y.y.y.y.y.c.d.'.y.'.>+6.F@j ,.t.Z.U@;+,.,.,.t.)@n y.n o+t.,.K.4.'.'.y.^$",
"/$l#y.y.y.y.y.y.y.y.y.c.N.y.y.y.y.y.y.'.:@y.y.y.n Y+,.8.,.,.6.Z.,.,.,.,.,.;+X+'.n+F#,.,.0..@'.y.'.($",
"_$N.y.y.y.y.y.y.y.y.y.W U#c.y.y.y.y.y.y.y.y.y.y.'.e+8.,.,.,.,.,.,.,.,.,.,.t.)@n >+5.,.,.8.n+'.'.l#:$",
"<$f+y.y.y.y.y.y.y.y.y.d.[$f+y.y.y.y.y.y.y.y.y.y.y.<+F#,.,.,.,.,.,.,.,.,.,.,.;+.@X+8.,.t.Z.b.y.y.}$  ",
"|$'.b.b.b.b.b.b.b.b.b.W U#c.b.b.b.b.b.b.b.b.b.b.b.b.=#7+t.t.t.t.t.t.t.t.t.t.7+Z.:+t.t.t.j y.b.'.1$  ",
"2$3$4$4$4$4$4$5$5$5$5$6$7$8$5$5$5$5$5$5$5$5$5$5$5$8$l#k U U U U U U U U U U U e+M.U U k ~$3$4$9$    ",
"  0$0$0$a$b$c$d$d$d$d$d$e$d$d$d$d$d$d$d$d$d$d$d$d$d$f$g$h$h$h$i$j$k$l$h$h$h$h$h$h$h$h$m$n$0$0$o$    "};
