/* XPM */
static char * col0_xpm[] = {
"50 50 803 2",
"  	c None",
". 	c #8E6619",
"+ 	c #936A19",
"@ 	c #976D1A",
"# 	c #996E1B",
"$ 	c #9A6E1B",
"% 	c #976C1A",
"& 	c #886117",
"* 	c #926819",
"= 	c #996E1A",
"- 	c #956C1A",
"; 	c #916819",
"> 	c #946A19",
", 	c #9E721B",
"' 	c #A7781D",
") 	c #AA7A1E",
"! 	c #AA7B1E",
"~ 	c #A97A1D",
"{ 	c #9C701B",
"] 	c #9F721C",
"^ 	c #A4761C",
"/ 	c #906719",
"( 	c #966C1A",
"_ 	c #A6771D",
": 	c #AC7C1E",
"< 	c #AB7B1D",
"[ 	c #AB7A1C",
"} 	c #A6761B",
"| 	c #A5761B",
"1 	c #AB7B1E",
"2 	c #9F721B",
"3 	c #906819",
"4 	c #AD7D1F",
"5 	c #B8892B",
"6 	c #C99D3F",
"7 	c #CEA448",
"8 	c #CFA548",
"9 	c #CEA246",
"0 	c #C29537",
"a 	c #B18224",
"b 	c #AB7C1E",
"c 	c #9D711B",
"d 	c #8F6719",
"e 	c #8F6718",
"f 	c #B48426",
"g 	c #D7AE52",
"h 	c #F0CD73",
"i 	c #F6D176",
"j 	c #F7CF74",
"k 	c #F7CF73",
"l 	c #F7D074",
"m 	c #F5D177",
"n 	c #E8C369",
"o 	c #C5993B",
"p 	c #AD7D1E",
"q 	c #A7791D",
"r 	c #B48526",
"s 	c #E2BB5F",
"t 	c #F5CA6D",
"u 	c #EEB755",
"v 	c #EBAF4B",
"w 	c #EAAD48",
"x 	c #E8AC48",
"y 	c #E9AC48",
"z 	c #E6AA47",
"A 	c #E8AC47",
"B 	c #E5A946",
"C 	c #E4A947",
"D 	c #E4A846",
"E 	c #DFA547",
"F 	c #E3A846",
"G 	c #E5AA48",
"H 	c #EAAD49",
"I 	c #ECB14E",
"J 	c #F1C060",
"K 	c #F2CC71",
"L 	c #CBA043",
"M 	c #9E721C",
"N 	c #986D1A",
"O 	c #D7AD50",
"P 	c #F2C162",
"Q 	c #EAAC47",
"R 	c #E9A944",
"S 	c #E9AA45",
"T 	c #DBA248",
"U 	c #CE9948",
"V 	c #D39D4C",
"W 	c #D0A05A",
"X 	c #C6944A",
"Y 	c #D1A15A",
"Z 	c #C89C5B",
"` 	c #BF8F47",
" .	c #CEA466",
"..	c #C0995F",
"+.	c #C69D61",
"@.	c #CCA771",
"#.	c #BA9864",
"$.	c #CAA874",
"%.	c #C7A777",
"&.	c #BF9A63",
"*.	c #CE9C51",
"=.	c #E4A643",
"-.	c #E9AA44",
";.	c #EDB351",
">.	c #EEC467",
",.	c #BE9032",
"'.	c #A3751C",
").	c #9A6F1B",
"!.	c #BA8B2D",
"~.	c #EBBC5D",
"{.	c #EAAC48",
"].	c #E6A844",
"^.	c #D29B45",
"/.	c #C4A885",
"(.	c #D9CAB6",
"_.	c #CFC5A9",
":.	c #D4C8B4",
"<.	c #E0D4BA",
"[.	c #D6CAAA",
"}.	c #DECFAA",
"|.	c #E6D9B4",
"1.	c #DED1AE",
"2.	c #E8D9B3",
"3.	c #EBDEBA",
"4.	c #E5D9B4",
"5.	c #F2E4BE",
"6.	c #EEE3BD",
"7.	c #EBE0BB",
"8.	c #F3E7C3",
"9.	c #BBA882",
"0.	c #D4A051",
"a.	c #E5A744",
"b.	c #EEB553",
"c.	c #D8AC4E",
"d.	c #A5771D",
"e.	c #CB9B3B",
"f.	c #EAAB45",
"g.	c #EAAA45",
"h.	c #E0A444",
"i.	c #C3A680",
"j.	c #E5E3DC",
"k.	c #F7F5F1",
"l.	c #FCFAF0",
"m.	c #FEFAEA",
"n.	c #FBF4DD",
"o.	c #FFF4D1",
"p.	c #FEF2CB",
"q.	c #FDF1CA",
"r.	c #FFF3CC",
"s.	c #FFF2CB",
"t.	c #FFF3CB",
"u.	c #FEF3CC",
"v.	c #E0D4AF",
"w.	c #CAA66F",
"x.	c #E1A443",
"y.	c #EAAB46",
"z.	c #E5B14F",
"A.	c #CD9938",
"B.	c #E2A541",
"C.	c #C48E33",
"D.	c #D69C3C",
"E.	c #D79F49",
"F.	c #CEBAA0",
"G.	c #F7F6F1",
"H.	c #FFFFFE",
"I.	c #FFFDF6",
"J.	c #FFF6DC",
"K.	c #FFF4D4",
"L.	c #F4E7C1",
"M.	c #B89B6C",
"N.	c #E7A844",
"O.	c #E5AB47",
"P.	c #B58425",
"Q.	c #CB9431",
"R.	c #D19839",
"S.	c #92691B",
"T.	c #B5832C",
"U.	c #E8A944",
"V.	c #E8A945",
"W.	c #DCA34C",
"X.	c #BEAC8B",
"Y.	c #FFFBEB",
"Z.	c #FFFCF2",
"`.	c #FFF8E3",
" +	c #FFF3D0",
".+	c #FFF2CC",
"++	c #FFF2CA",
"@+	c #FFF3CE",
"#+	c #FFF3CF",
"$+	c #F2E7C2",
"%+	c #C9AB7B",
"&+	c #DCA145",
"*+	c #E7A944",
"=+	c #E3A640",
"-+	c #B48223",
";+	c #CB922F",
">+	c #C38E32",
",+	c #D99F43",
"'+	c #CDB78D",
")+	c #F2E7C6",
"!+	c #FFF5D7",
"~+	c #FFF5D9",
"{+	c #FFF5D6",
"]+	c #FFF5D8",
"^+	c #FFF4D3",
"/+	c #FFF6DA",
"(+	c #FFF7DE",
"_+	c #FFF7E0",
":+	c #FFF4CF",
"<+	c #EFE3BE",
"[+	c #CAB083",
"}+	c #DDA243",
"|+	c #E4A642",
"1+	c #E3A53F",
"2+	c #B48222",
"3+	c #CB9230",
"4+	c #DAA148",
"5+	c #C9AF83",
"6+	c #F6ECC7",
"7+	c #FFF4D5",
"8+	c #FFF8E2",
"9+	c #FFF3CD",
"0+	c #FFF6DB",
"a+	c #FFF6D9",
"b+	c #FEF2CA",
"c+	c #BEA477",
"d+	c #E0A549",
"e+	c #A6781D",
"f+	c #E3A543",
"g+	c #BBA37B",
"h+	c #F5ECCB",
"i+	c #FFF7DC",
"j+	c #FFF6D5",
"k+	c #FFF5CD",
"l+	c #FBEFC6",
"m+	c #FFF4D2",
"n+	c #FFF5D4",
"o+	c #FFF6D6",
"p+	c #FFF6CC",
"q+	c #F0E3B5",
"r+	c #FAEBBD",
"s+	c #FDF0C9",
"t+	c #F7E8B4",
"u+	c #D5B878",
"v+	c #D8A046",
"w+	c #DEA13E",
"x+	c #A77820",
"y+	c #A0731C",
"z+	c #9B6F1B",
"A+	c #8C6518",
"B+	c #DCA143",
"C+	c #CDB184",
"D+	c #EDE4C5",
"E+	c #FDF3CF",
"F+	c #E2D6A8",
"G+	c #CABA84",
"H+	c #D2C38C",
"I+	c #E4D6A1",
"J+	c #FFF4CD",
"K+	c #EEE0B3",
"L+	c #C4B478",
"M+	c #AA9B64",
"N+	c #A99B6B",
"O+	c #CEBE88",
"P+	c #F8E6A9",
"Q+	c #F7E39E",
"R+	c #D1B672",
"S+	c #DBA143",
"T+	c #AD7D2C",
"U+	c #7D5A18",
"V+	c #7C5918",
"W+	c #7C5A19",
"X+	c #E6A843",
"Y+	c #E5A743",
"Z+	c #DFA447",
"`+	c #C1A273",
" @	c #F4EBC5",
".@	c #F2E0A6",
"+@	c #9C8E5A",
"@@	c #5C5330",
"#@	c #2D260C",
"$@	c #8A7E4C",
"%@	c #D4C899",
"&@	c #FCEEC2",
"*@	c #FBEEC1",
"=@	c #C4B683",
"-@	c #595030",
";@	c #090601",
">@	c #27220E",
",@	c #3C3514",
"'@	c #DBC572",
")@	c #F9E394",
"!@	c #CEB26F",
"~@	c #DAA34A",
"{@	c #BE8A33",
"]@	c #99762F",
"^@	c #B59346",
"/@	c #B69446",
"(@	c #B49346",
"_@	c #B19044",
":@	c #DEA13F",
"<@	c #DDA13F",
"[@	c #E2A33E",
"}@	c #C0A272",
"|@	c #E6D9AB",
"1@	c #B2A574",
"2@	c #393213",
"3@	c #030200",
"4@	c #000000",
"5@	c #332D11",
"6@	c #8E845D",
"7@	c #F6E9B5",
"8@	c #FAECB7",
"9@	c #827646",
"0@	c #1E1A08",
"a@	c #1B1705",
"b@	c #AD9C56",
"c@	c #EDD786",
"d@	c #DABF79",
"e@	c #D49D46",
"f@	c #EBAB46",
"g@	c #CE963A",
"h@	c #98722B",
"i@	c #CFA249",
"j@	c #BE8E2F",
"k@	c #B5882A",
"l@	c #B08429",
"m@	c #9F7826",
"n@	c #E8A840",
"o@	c #E8A73B",
"p@	c #E7A536",
"q@	c #E6A330",
"r@	c #DB9A2E",
"s@	c #CAA671",
"t@	c #D9CFA5",
"u@	c #9E925C",
"v@	c #040300",
"w@	c #010000",
"x@	c #716734",
"y@	c #EBDEAF",
"z@	c #FFF2C9",
"A@	c #E5D9A4",
"B@	c #8F8451",
"C@	c #0B0901",
"D@	c #241E07",
"E@	c #9A894A",
"F@	c #F8E18E",
"G@	c #C9B475",
"H@	c #D8A045",
"I@	c #E0A341",
"J@	c #DA9E3E",
"K@	c #CD9438",
"L@	c #9B7229",
"M@	c #C59B48",
"N@	c #E5A944",
"O@	c #B38121",
"P@	c #A5761C",
"Q@	c #926918",
"R@	c #E7A535",
"S@	c #E5A12C",
"T@	c #E5A029",
"U@	c #E29E2C",
"V@	c #B3894C",
"W@	c #ECE2B7",
"X@	c #A29867",
"Y@	c #484223",
"Z@	c #352E11",
"`@	c #A39663",
" #	c #F3E4AE",
".#	c #FEEDB7",
"+#	c #F2E09D",
"@#	c #B5A458",
"##	c #272208",
"$#	c #181405",
"%#	c #493F17",
"&#	c #C9B363",
"*#	c #E8D287",
"=#	c #C6A867",
"-#	c #C39544",
";#	c #BE913D",
">#	c #B1883A",
",#	c #A78137",
"'#	c #96732D",
")#	c #916D29",
"!#	c #DFA747",
"~#	c #E4A53F",
"{#	c #CB9330",
"]#	c #E9AA43",
"^#	c #E7A435",
"/#	c #E6A12C",
"(#	c #E49F29",
"_#	c #E39F29",
":#	c #C69246",
"<#	c #D3BF92",
"[#	c #C8BE8F",
"}#	c #9E9259",
"|#	c #615526",
"1#	c #332C0F",
"2#	c #84753F",
"3#	c #D9C37A",
"4#	c #FFEAA2",
"5#	c #D5C17D",
"6#	c #D6C276",
"7#	c #E3CC74",
"8#	c #B6A35B",
"9#	c #7F6F35",
"0#	c #907F46",
"a#	c #C9B367",
"b#	c #EED584",
"c#	c #D9B972",
"d#	c #D2A04E",
"e#	c #E9AE4C",
"f#	c #E6AE4D",
"g#	c #E4AF50",
"h#	c #E0B055",
"i#	c #A58137",
"j#	c #B88631",
"k#	c #C8902A",
"l#	c #E6A230",
"m#	c #E6A029",
"n#	c #DE9C28",
"o#	c #D4992F",
"p#	c #E19F2C",
"q#	c #DD9B2F",
"r#	c #C9974E",
"s#	c #BFA676",
"t#	c #E5D58E",
"u#	c #CEB86D",
"v#	c #D8C170",
"w#	c #EDD47C",
"x#	c #FBE392",
"y#	c #E8D281",
"z#	c #A5934E",
"A#	c #A7954F",
"B#	c #E9D27F",
"C#	c #F5DE8E",
"D#	c #F1DA88",
"E#	c #F4DA84",
"F#	c #F3DB8B",
"G#	c #C7B073",
"H#	c #CF9D4D",
"I#	c #E2A645",
"J#	c #EBAC46",
"K#	c #DAA84D",
"L#	c #A07930",
"M#	c #D19737",
"N#	c #B58223",
"O#	c #C58C23",
"P#	c #E6A129",
"Q#	c #E7A129",
"R#	c #D09226",
"S#	c #BF8C2E",
"T#	c #DB9F31",
"U#	c #E29E29",
"V#	c #C49242",
"W#	c #DEC57D",
"X#	c #FBE494",
"Y#	c #FCE493",
"Z#	c #FCE596",
"`#	c #FAE496",
" $	c #F7E190",
".$	c #CDB76A",
"+$	c #C7B26A",
"@$	c #FEE695",
"#$	c #F1DA90",
"$$	c #F0D98E",
"%$	c #F9E094",
"&$	c #F7E295",
"*$	c #D1B46E",
"=$	c #DAA247",
"-$	c #EBAD49",
";$	c #C79B48",
">$	c #AB7D2C",
",$	c #B17F21",
"'$	c #AD7C1E",
")$	c #BA8320",
"!$	c #CE8F23",
"~$	c #CB8D23",
"{$	c #C98C22",
"]$	c #C68A22",
"^$	c #C58A23",
"/$	c #B58022",
"($	c #B18632",
"_$	c #DCA135",
":$	c #D69C3B",
"<$	c #F8E295",
"[$	c #DEC781",
"}$	c #BEA367",
"|$	c #E1CB86",
"1$	c #ECD88E",
"2$	c #CDB371",
"3$	c #CAAE67",
"4$	c #DEC983",
"5$	c #D1BB79",
"6$	c #BB9D5D",
"7$	c #CDB271",
"8$	c #E0C983",
"9$	c #C8A15A",
"0$	c #DE9E32",
"a$	c #E9A942",
"b$	c #E8AF4D",
"c$	c #B28B3D",
"d$	c #8A641A",
"e$	c #976C19",
"f$	c #9E711B",
"g$	c #926919",
"h$	c #9B701B",
"i$	c #A6771C",
"j$	c #956B1B",
"k$	c #977128",
"l$	c #A17D33",
"m$	c #A38036",
"n$	c #A68439",
"o$	c #AC883D",
"p$	c #9D792F",
"q$	c #DFA63B",
"r$	c #E6A12A",
"s$	c #E19D28",
"t$	c #C19549",
"u$	c #D7BE78",
"v$	c #C5A25D",
"w$	c #C08B36",
"x$	c #C8A25A",
"y$	c #C0A362",
"z$	c #B98C41",
"A$	c #C89239",
"B$	c #AE9053",
"C$	c #9D8650",
"D$	c #B38029",
"E$	c #B48943",
"F$	c #CDA55C",
"G$	c #D79B39",
"H$	c #E5A02A",
"I$	c #E6A22E",
"J$	c #E6A332",
"K$	c #E7A537",
"L$	c #E8A63A",
"M$	c #E8A73C",
"N$	c #E9A83E",
"O$	c #E0AB49",
"P$	c #B28F43",
"Q$	c #93722E",
"R$	c #825F1C",
"S$	c #7D5A16",
"T$	c #8A6317",
"U$	c #8E6921",
"V$	c #AA883E",
"W$	c #D1A64A",
"X$	c #E6B149",
"Y$	c #E9B247",
"Z$	c #EBB144",
"`$	c #ECB041",
" %	c #B88B33",
".%	c #BC8B2E",
"+%	c #E8A32B",
"@%	c #DC9B2F",
"#%	c #D19430",
"$%	c #CF9432",
"%%	c #DC9A2A",
"&%	c #D5972F",
"*%	c #D49938",
"=%	c #DE9B28",
"-%	c #E09D28",
";%	c #D99A30",
">%	c #D19226",
",%	c #DE9B27",
"'%	c #DF9C2A",
")%	c #E29E28",
"!%	c #DE9D2B",
"~%	c #BF9030",
"{%	c #C29A41",
"]%	c #BB9848",
"^%	c #AA8A40",
"/%	c #9D7C35",
"(%	c #BC9947",
"_%	c #BB9035",
":%	c #C78E25",
"<%	c #E59F28",
"[%	c #E59F27",
"}%	c #AE7D25",
"|%	c #C7912E",
"1%	c #DC9A27",
"2%	c #B17F1E",
"3%	c #AD7F24",
"4%	c #A57F2C",
"5%	c #B7913C",
"6%	c #B28326",
"7%	c #AA7B1D",
"8%	c #C58B23",
"9%	c #E19E29",
"0%	c #A97B26",
"a%	c #D59B30",
"b%	c #D79726",
"c%	c #DC9B27",
"d%	c #B2801F",
"e%	c #A5771C",
"f%	c #9A6F1A",
"g%	c #DB9B2A",
"h%	c #AA7E2A",
"i%	c #DE9E2C",
"j%	c #BF8722",
"k%	c #DA9927",
"l%	c #D59627",
"m%	c #B0842F",
"n%	c #E2A02B",
"o%	c #CC9026",
"p%	c #BA882C",
"q%	c #E6A22B",
"r%	c #E39F28",
"s%	c #B28025",
"t%	c #BD8828",
"u%	c #DF9C27",
"v%	c #B27E22",
"w%	c #A98539",
"x%	c #B58A35",
"y%	c #D49527",
"z%	c #D59526",
"A%	c #A9781E",
"B%	c #CB8F24",
"C%	c #C68C23",
"D%	c #D89726",
"E%	c #A87823",
"F%	c #B58F3F",
"G%	c #E3AC41",
"H%	c #DBA63E",
"I%	c #C19235",
"J%	c #D49627",
"K%	c #DB9B26",
"L%	c #D99A26",
"M%	c #DD9C27",
"N%	c #D39426",
"O%	c #A4751D",
"P%	c #C88D24",
"Q%	c #AE7C1D",
"R%	c #A07524",
"S%	c #B89341",
"T%	c #D6A237",
"U%	c #D29623",
"V%	c #D09623",
"W%	c #CD992D",
"X%	c #C1912E",
"Y%	c #C79225",
"Z%	c #CB9322",
"`%	c #CC9322",
" &	c #CF9523",
".&	c #D59824",
"+&	c #DC9C26",
"@&	c #E4A029",
"#&	c #E09C28",
"$&	c #855F16",
"%&	c #876018",
"&&	c #85601A",
"*&	c #906E28",
"=&	c #BF9943",
"-&	c #D29E32",
";&	c #CB9321",
">&	c #CB9425",
",&	c #C89428",
"'&	c #CB9323",
")&	c #DC9B26",
"!&	c #E19E28",
"~&	c #9C7C36",
"{&	c #AC8C41",
"]&	c #BC9A4B",
"^&	c #CCA347",
"/&	c #D09B2D",
"(&	c #D49824",
"_&	c #DD9B27",
":&	c #B6903B",
"<&	c #BA8E32",
"[&	c #B28426",
"}&	c #C08B22",
"|&	c #CE9523",
"1&	c #D49625",
"2&	c #C98D24",
"3&	c #D99926",
"4&	c #996D19",
"5&	c #AA7A1D",
"6&	c #BE8920",
"7&	c #CC9422",
"8&	c #B1801E",
"9&	c #B6821F",
"0&	c #DA9A26",
"a&	c #D69925",
"b&	c #D49724",
"c&	c #D19624",
"d&	c #CB9222",
"e&	c #B17F1F",
"f&	c #BE8921",
"g&	c #BD8920",
"h&	c #BC8820",
"i&	c #CA9122",
"j&	c #CC9223",
"k&	c #D29624",
"l&	c #DA9B26",
"m&	c #D79925",
"n&	c #CD9422",
"o&	c #C99122",
"p&	c #C99222",
"q&	c #C79021",
"r&	c #C38D20",
"s&	c #BF8A1F",
"t&	c #BD891F",
"u&	c #BB871F",
"v&	c #C08B1F",
"w&	c #C48D20",
"x&	c #CA9322",
"y&	c #BF8A20",
"z&	c #CA9222",
"A&	c #C89121",
"B&	c #C18C20",
"C&	c #BB871E",
"D&	c #B4821D",
"E&	c #AF7E1C",
"F&	c #AB7B1B",
"G&	c #A97A1A",
"H&	c #A97A1B",
"I&	c #BA861E",
"J&	c #BB8720",
"K&	c #AC7C1D",
"L&	c #C28C20",
"M&	c #B7841E",
"N&	c #AB7C1B",
"O&	c #A37519",
"P&	c #9D7118",
"Q&	c #9A6E17",
"R&	c #976D17",
"S&	c #986D17",
"T&	c #996E17",
"U&	c #A27519",
"V&	c #B6831D",
"W&	c #C38D21",
"X&	c #C18B20",
"Y&	c #C89022",
"Z&	c #B07F1F",
"`&	c #B3811F",
" *	c #C48D21",
".*	c #C58F21",
"+*	c #BE891F",
"@*	c #B07F1C",
"#*	c #A27419",
"$*	c #926815",
"%*	c #8E6615",
"&*	c #8D6514",
"**	c #8E6614",
"=*	c #8F6715",
"-*	c #936916",
";*	c #BC881F",
">*	c #C68F21",
",*	c #B3811E",
"'*	c #C58E21",
")*	c #C08B21",
"!*	c #C08A21",
"~*	c #B2801C",
"{*	c #A5771A",
"]*	c #9B6F17",
"^*	c #946A16",
"/*	c #906715",
"(*	c #8C6414",
"_*	c #956B16",
":*	c #A6771A",
"<*	c #B5821F",
"[*	c #A3761C",
"}*	c #946A1A",
"|*	c #A8791D",
"1*	c #B07F1E",
"2*	c #B1801C",
"3*	c #A8791A",
"4*	c #9E7218",
"5*	c #9C7017",
"6*	c #8B6315",
"7*	c #9D7018",
"8*	c #A9791A",
"9*	c #BB8620",
"0*	c #C48E20",
"a*	c #BF8B1F",
"b*	c #B3811C",
"c*	c #A2741A",
"d*	c #926818",
"e*	c #B5831D",
"f*	c #C69021",
"g*	c #B88520",
"h*	c #956B1A",
"i*	c #BC8720",
"j*	c #BA8620",
"k*	c #B9851F",
"l*	c #B7831F",
"m*	c #B5821E",
"n*	c #B4811E",
"o*	c #B5811F",
"p*	c #916719",
"q*	c #9A6E1A",
"r*	c #B88420",
"s*	c #AF7E1E",
"t*	c #AA7C1E",
"u*	c #825D17",
"v*	c #916919",
"w*	c #946B1A",
"x*	c #A2741C",
"y*	c #7F5A16",
"z*	c #986D1B",
"A*	c #7D5916",
"B*	c #896218",
"        . + @ # # # # # # # # # # # # # # # # # # # # # # # $ % & * $ # # # # # # # = - ;           ",
"      > , ' ) ! ! ! ! ! ! ! ! ! ! ! ! ! ! ! ! ! ! ! ! ! ! ! ~ { ] ! ! ! ! ! ! ! ! ! ! ~ ^ = /       ",
"    ( _ : : : < < [ [ [ [ [ [ [ [ [ [ [ [ [ [ [ [ [ [ [ [ [ } | [ [ [ [ [ [ [ [ [ < : : : 1 2 3     ",
"  > _ : : < 4 5 6 7 8 8 8 8 8 8 8 8 8 8 8 8 8 8 8 8 8 8 8 8 7 8 8 8 8 8 8 8 8 8 9 0 a < : : b c d   ",
"e ] : : < f g h i j k k k k k k k k k k k k k k k k k k k k k k k k k k k k k k l m n o p : : ~ (   ",
"> q : < r s t u v w w w w w w w w w w w w w x y w z A x B y C D w E F G z w w w H I J K L : : : M   ",
"N ! : 4 O P Q R S S S S S S S S S S S S T U V W X Y Z `  ...+.@.#.$.%.&.*.=.S S S -.R ;.>.,.< : '.; ",
").1 < !.~.{.S S S S S S S S S S S S ].^./.(._.:.<.[.}.|.1.2.3.4.5.6.7.8.9.0.a.S S S S R b.c.4 : d.+ ",
").1 < e.I -.S S S S f.g.S S S S S S h.i.j.k.l.m.n.o.p.q.r.s.t.r.s.r.r.u.v.w.x.S S S S S y.z.f : _ + ",
").1 < A.Q S S S S B.C.D.S S S S S S E.F.G.H.I.J.K.s.s.s.s.s.s.s.s.s.s.t.L.M.N.S S S S S S O.P.: _ + ",
").1 < Q.f.S S S y.R.S.T.U.S S S S V.W.X.Y.Z.`. +.+s.s.s.s.s.++@+#+s..+s.$+%+&+*+U.S S S S =+-+: _ + ",
").1 < ;+g.S S S S B.>+D.S S S S S S ,+'+)+!+~+{+]+^+.+s.s..+K./+(+_+{+:+<+[+}+|+].S S S S 1+2+: _ + ",
").1 < 3+g.S S S S S y.g.S S S S S S 4+5+6+7+J.8+_+_+7+9+s. +0+(+a+!+(+~+b+c+d+S S S S S S 1+2+: e++ ",
").1 < 3+g.S S S S S S S S S S S S S f+g+h+i+j+k+l+o.{+m+.+n+o+p+q+r+s+9+t+u+v+S S S S S f.w+x+y+z+A+",
").1 < 3+g.S S S S S S S S S S S S S B+C+D+E+F+G+H+I+J+ +.+ +K+L+M+N+O+P+Q+R+S+S S S S S N.T+U+V+V+W+",
").1 < 3+g.X+Y+S S S S S S S S S S S Z+`+ @.@+@@@#@$@%@&@.+*@=@-@;@>@,@'@)@!@~@S S S S S {@]@^@/@(@_@",
").1 < 3+f.:@<@g.S S S S S S S S S -.[@}@|@1@2@3@4@5@6@7@s.8@9@0@4@4@a@b@c@d@e@S S f.f@g@h@i@j@k@l@m@",
").1 < 3+g.S S S S S S S S -.n@o@p@q@r@s@t@u@v@4@4@w@x@y@z@A@B@C@4@4@D@E@F@G@H@f+I@J@K@L@M@N@O@< P@Q@",
").1 < 3+g.S S S S -.n@o@R@q@S@T@T@T@U@V@W@X@Y@v@4@Z@`@ #.#+#@###4@$#%#&#*#=#-#;#>#,#'#)#!#~#2+: _ + ",
").1 < {#g.]#n@o@^#q@/#T@(#_#T@T@T@T@(#:#<#[#}#|#1#2#3#4#5#6#7#8#9#0#a#b#c#d#z e#f#g#h#i#j#1+2+: _ + ",
").1 1 k#^#l#/#T@T@T@m#n#o#p#T@T@T@T@T@q#r#s#t#u#v#w#x#y#z#A#B#C#D#E#F#G#H#I#S S -.S J#K#L#M#N#: _ + ",
").1 b O#P#P#Q#Q#Q#m#R#S#T#T@T@T@T@T@T@T@U#V#W#X#Y#Z#`# $.$+$@$#$$$%$&$*$=$S S S S S S -$;$>$,$'$e++ ",
").1 b )$!$~${$]$^$/$($_$P#T@T@T@T@T@T@T@(#:$!@<$[$}$|$1$2$3$4$5$6$7$8$9$0$o@a$S S S S S b$c$d$e$f$g$",
"h$i$j$k$l$m$n$o$]@p$q$r$T@T@T@T@T@T@T@T@T@s$t$u$v$w$x$y$z$A$B$C$D$E$F$G$(#H$I$J$^#K$L$M$N$O$P$Q$R$S$",
"T$U$V$W$X$Y$Z$`$ %.%+%T@T@T@T@T@T@T@T@T@T@(#@%#%$%%%&%*%=%-%;%>%,%'%=%)%T@T@T@T@T@T@T@T@r$!%~%{%]%^%",
"/%(%_%:%<%<%[%[%}%|%P#T@T@T@T@P#T@T@T@T@T@T@T@T@T@T@T@T@T@T@T@m#T@T@T@T@T@T@T@T@T@T@T@T@T@1%2%: 3%4%",
"5%6%7%8%T@T@T@9%0%a%m#T@T@T@(#b%s$T@T@T@T@T@T@T@T@T@T@T@T@T@T@T@T@T@T@T@T@T@T@T@T@T@T@T@T@c%d%: e%Q@",
"f%< b O#T@T@m#g%h%i%T@T@T@T@s$j%k%m#T@T@T@T@T@T@T@T@T@T@T@T@T@T@T@T@T@T@T@T@T@T@T@T@T@T@T@c%d%: _ + ",
").1 1 O#T@T@P#l%m%n%T@T@T@T@T@(#T@T@T@T@T@T@T@T@T@T@T@T@T@T@T@T@T@T@T@T@T@T@T@T@T@T@T@T@T@c%d%: _ + ",
").1 1 O#T@T@Q#o%p%q%T@T@T@T@T@T@T@T@T@T@T@T@T@T@T@T@T@T@T@T@T@T@T@T@T@T@T@T@T@T@T@T@T@T@T@c%d%: _ + ",
").1 1 O#T@m#r%s%t%Q#T@T@T@T@T@T@T@T@T@T@T@T@T@T@T@T@T@T@T@T@T@T@T@T@T@T@T@T@T@s$(#T@T@T@T@c%d%: _ + ",
").1 1 O#m#u%v%w%x%y%m#T@T@T@T@T@T@T@T@T@T@T@T@T@T@T@T@T@T@T@T@T@T@T@T@T@T@P#z%A%B%P#T@T@T@c%d%: _ + ",
").1 b C%D%E%F%G%H%I%J%K%L%M%)%T@T@T@T@T@T@T@T@T@T@T@T@T@T@T@T@T@T@T@T@T@T@P#N%O%P%P#T@T@T@c%d%: _ + ",
").1 ' Q%R%S%T%U%V%W%X%Y%Z%`% &.&+&)%T@T@T@T@T@T@T@T@T@T@T@T@T@T@T@T@T@T@T@T@@&#&(#T@T@T@T@c%d%: _ + ",
"$&%&&&*&=&-&;&Z%Z%Z%>&,&'&Z%Z%Z%`% &.&)&!&T@T@T@T@T@T@T@T@T@T@T@T@T@T@T@T@T@T@T@T@T@T@T@T@c%d%: _ + ",
"~&{&]&^&/&;&Z%Z%Z%Z%Z%Z%Z%Z%Z%Z%Z%Z%Z%`% &(&K%!&@&m#P#T@T@T@T@T@T@T@T@T@T@T@T@T@T@T@T@T@m#_&d%: _ + ",
":&<&[&}&`%Z%Z%Z%Z%Z%Z%Z%Z%Z%Z%Z%Z%Z%Z%Z%Z%Z%Z%|&(&1&2&1%m#T@T@T@T@T@T@T@T@T@T@T@T@T@@&r%)%3&d%: _ + ",
"4&5&1 6&7&Z%Z%Z%Z%Z%Z%Z%Z%Z%Z%Z%Z%Z%Z%Z%Z%Z%Z%Z%Z%8&3 9&K%!&(#T@T@T@T@T@r%)%-%M%0&a&b&c& &d&e&: _ + ",
").1 b f&7&Z%Z%Z%Z%Z%Z%Z%Z%Z%Z%Z%Z%Z%Z%Z%Z%Z%Z%Z%Z%g&e%h&i&j&k&3&M%l&m&b&c& &n&`%Z%Z%Z%Z%Z%o&e&: _ + ",
").1 b f&7&Z%Z%Z%Z%Z%Z%Z%`%Z%Z%Z%Z%Z%Z%Z%Z%Z%Z%p&q&r&s&t&u&u&t&v&w&q&p&Z%Z%Z%Z%Z%Z%Z%Z%Z%Z%o&e&: _ + ",
").1 b 6&7&Z%Z%Z%Z%Z%Z%x&u&y&Z%Z%Z%Z%Z%Z%Z%z&A&B&C&D&E&F&G&H&F&E&D&I&B&A&z&Z%Z%A&x&Z%Z%Z%Z%o&e&: _ + ",
").1 : J&Z%Z%Z%Z%Z%Z%Z%o&e%K&x&Z%Z%Z%Z%Z%Z%o&L&M&N&O&P&Q&R&S&T&P&U&F&V&B&A&Z%W&e%X&`%Z%Z%Z%Y&Z&: _ + ",
").1 : `&o&Z%Z%Z%Z%Z%Z%Z% *.*Z%Z%Z%Z%Z%Z%Z%q&+*@*#*R&$*%*&***=*-*T&#*E&;*>*z&>*,*'*Z%Z%Z%`%)*'$: d.+ ",
"N ! : p !*`%Z%Z%Z%Z%Z%Z%Z%Z%Z%Z%Z%Z%Z%Z%z&>*+*~*{*]*^*/*%*(***_*]*:*~*t&.*p&Z%Z%Z%Z%Z%Z%o&<*: : [*; ",
"}*|*: : 1* *`%Z%Z%Z%Z%Z%Z%Z%Z%Z%Z%Z%Z%Z%z&q&B&I&2*3*U&4*5*T&6*7*8*2*u&r&A&z&Z%Z%Z%Z%Z%z&9*: : : 2   ",
"d y+: : : 1*!*o&`%7&7&7&7&7&7&7&7&7&7&7&7&Z%A&0*a*C&V&b*@*~*c*d*e*B&f*x&7&7&7&7&7&Z%>*g*p : : ~ %   ",
"  h*e+: : : p `&9*i*i*i*i*i*i*i*i*i*i*i*i*i*J&j*k*l*9&m*n*n*o*p*q*9*i*i*i*i*i*i*i*r*s*: : : : , d   ",
"    ( e+: : : : b b b b b b b b b b b b b b b b b t*t*t*t*t*b $ u*' : b b b b b b : : : : 1 y+v*    ",
"      w*y+|*! 1 1 1 1 1 1 1 1 1 1 1 1 1 1 1 1 1 1 1 1 1 1 1 b x*y*c : 1 1 1 1 1 1 1 1 ) d.z+3       ",
"        d }*N ).).).).).).).).).).).).).).).).).).).).).).).).z*A*B*z+).).).).).).).).% g$          "};
