/* XPM */
static char * col1_xpm[] = {
"50 50 823 2",
"  	c None",
". 	c #8E6619",
"+ 	c #936A19",
"@ 	c #976D1A",
"# 	c #996E1B",
"$ 	c #9A6E1B",
"% 	c #976C1A",
"& 	c #886117",
"* 	c #926819",
"= 	c #996E1A",
"- 	c #956C1A",
"; 	c #916819",
"> 	c #946A19",
", 	c #9E721B",
"' 	c #A7781D",
") 	c #AA7A1E",
"! 	c #AA7B1E",
"~ 	c #A97A1D",
"{ 	c #9C701B",
"] 	c #9F721C",
"^ 	c #A4761C",
"/ 	c #906719",
"( 	c #966C1A",
"_ 	c #A6771D",
": 	c #AC7C1E",
"< 	c #AB7B1D",
"[ 	c #AB7A1C",
"} 	c #A6761B",
"| 	c #A5761B",
"1 	c #AB7B1E",
"2 	c #9F721B",
"3 	c #906819",
"4 	c #AD7D1F",
"5 	c #B8892B",
"6 	c #C99D3F",
"7 	c #CEA448",
"8 	c #CFA548",
"9 	c #CEA246",
"0 	c #C29537",
"a 	c #B18224",
"b 	c #AB7C1E",
"c 	c #9D711B",
"d 	c #8F6719",
"e 	c #8F6718",
"f 	c #B48426",
"g 	c #D7AE52",
"h 	c #F0CD73",
"i 	c #F6D176",
"j 	c #F7CF74",
"k 	c #F7CF73",
"l 	c #F7D074",
"m 	c #F5D177",
"n 	c #E8C369",
"o 	c #C5993B",
"p 	c #AD7D1E",
"q 	c #A7791D",
"r 	c #B48526",
"s 	c #E2BB5F",
"t 	c #F5CA6D",
"u 	c #EEB755",
"v 	c #EBAF4B",
"w 	c #EAAD48",
"x 	c #EAAD49",
"y 	c #ECB14E",
"z 	c #F1C060",
"A 	c #F2CC71",
"B 	c #CBA043",
"C 	c #9E721C",
"D 	c #986D1A",
"E 	c #D7AD50",
"F 	c #F2C162",
"G 	c #EAAC47",
"H 	c #E9A944",
"I 	c #E9AA45",
"J 	c #E9AA44",
"K 	c #EDB351",
"L 	c #EEC467",
"M 	c #BE9032",
"N 	c #A3751C",
"O 	c #9A6F1B",
"P 	c #BA8B2D",
"Q 	c #EBBC5D",
"R 	c #EAAC48",
"S 	c #EEB553",
"T 	c #D8AC4E",
"U 	c #A5771D",
"V 	c #CB9B3B",
"W 	c #EAAB45",
"X 	c #EAAA45",
"Y 	c #EAAB46",
"Z 	c #E5B14F",
"` 	c #CD9938",
" .	c #E2A541",
"..	c #C48E33",
"+.	c #D69C3C",
"@.	c #E5AB47",
"#.	c #B58425",
"$.	c #CB9431",
"%.	c #D19839",
"&.	c #92691B",
"*.	c #B5832C",
"=.	c #E8A944",
"-.	c #E3A647",
";.	c #DCA247",
">.	c #DEA343",
",.	c #E6A844",
"'.	c #E7A844",
").	c #DFA240",
"!.	c #E1A441",
"~.	c #E7A944",
"{.	c #E3A640",
"].	c #B48223",
"^.	c #CB922F",
"/.	c #C38E32",
"(.	c #E4A744",
"_.	c #CF9946",
":.	c #BE9B70",
"<.	c #CBAF8B",
"[.	c #CDAD7F",
"}.	c #C29D68",
"|.	c #C0914B",
"1.	c #D29F52",
"2.	c #AF8545",
"3.	c #AF8136",
"4.	c #DEA242",
"5.	c #E4A645",
"6.	c #E5A744",
"7.	c #E4A642",
"8.	c #E3A53F",
"9.	c #B48222",
"0.	c #CB9230",
"a.	c #E7A945",
"b.	c #D69F4D",
"c.	c #BFB099",
"d.	c #EEECE6",
"e.	c #F2F0E8",
"f.	c #E9E3CE",
"g.	c #EBE4D5",
"h.	c #E5DBC2",
"i.	c #CFC1A0",
"j.	c #CAB892",
"k.	c #CFB88E",
"l.	c #C6AB80",
"m.	c #B69463",
"n.	c #C79D60",
"o.	c #D0A361",
"p.	c #CD9C54",
"q.	c #D09A45",
"r.	c #E2A646",
"s.	c #E7A845",
"t.	c #A6781D",
"u.	c #E8A945",
"v.	c #C19557",
"w.	c #E5E1D5",
"x.	c #FDFDFC",
"y.	c #FFFFFE",
"z.	c #FFFAEB",
"A.	c #FFF8E6",
"B.	c #FDF4D7",
"C.	c #FFF4CE",
"D.	c #FCF0C9",
"E.	c #F4E8C3",
"F.	c #F1E5BF",
"G.	c #F4E7C0",
"H.	c #E6D9B6",
"I.	c #D9CBA8",
"J.	c #DBC8A1",
"K.	c #D5C19A",
"L.	c #BDA881",
"M.	c #C59E65",
"N.	c #D8A04C",
"O.	c #DEA13E",
"P.	c #A77820",
"Q.	c #A0731C",
"R.	c #9B6F1B",
"S.	c #8C6518",
"T.	c #E2A543",
"U.	c #C4A472",
"V.	c #EAE4D1",
"W.	c #FFFDF7",
"X.	c #FFFCF5",
"Y.	c #FFF7E0",
"Z.	c #FFF4D3",
"`.	c #FFF3CD",
" +	c #FFF2CB",
".+	c #FFF3CB",
"++	c #FFF3CC",
"@+	c #FCEFC9",
"#+	c #F8ECC6",
"$+	c #F8EDC6",
"%+	c #E2D3AE",
"&+	c #C3A06B",
"*+	c #DFA342",
"=+	c #AD7D2C",
"-+	c #7D5A18",
";+	c #7C5918",
">+	c #7C5A19",
",+	c #E6A843",
"'+	c #E5A743",
")+	c #DBA145",
"!+	c #CDB080",
"~+	c #ECE2C1",
"{+	c #FFF5D7",
"]+	c #FFF6DC",
"^+	c #FFF4D5",
"/+	c #FFF2CD",
"(+	c #F8EDC7",
"_+	c #C2AE88",
":+	c #D99F41",
"<+	c #BE8A33",
"[+	c #99762F",
"}+	c #B59346",
"|+	c #B69446",
"1+	c #B49346",
"2+	c #B19044",
"3+	c #DEA13F",
"4+	c #DDA13F",
"5+	c #E8A840",
"6+	c #E8A73B",
"7+	c #D89D42",
"8+	c #C8AF83",
"9+	c #F6ECC7",
"0+	c #FFF4D2",
"a+	c #FFF5DA",
"b+	c #FFF6DD",
"c+	c #FFF2CA",
"d+	c #FEF3CB",
"e+	c #BFAB85",
"f+	c #DCA34A",
"g+	c #EBAB46",
"h+	c #CE963A",
"i+	c #98722B",
"j+	c #CFA249",
"k+	c #BE8E2F",
"l+	c #B5882A",
"m+	c #B08429",
"n+	c #9F7826",
"o+	c #E7A536",
"p+	c #E6A330",
"q+	c #E6A12C",
"r+	c #E49F29",
"s+	c #D69939",
"t+	c #C2B18D",
"u+	c #FDF5D5",
"v+	c #FFF7DB",
"w+	c #FFF6DA",
"x+	c #FFF5DB",
"y+	c #FFF7E1",
"z+	c #FFF3D2",
"A+	c #FFF5D9",
"B+	c #FFF3CE",
"C+	c #F4E9C3",
"D+	c #C6AC7F",
"E+	c #D39C46",
"F+	c #DA9E3E",
"G+	c #CD9438",
"H+	c #9B7229",
"I+	c #C59B48",
"J+	c #E5A944",
"K+	c #B38121",
"L+	c #A5761C",
"M+	c #926918",
"N+	c #E7A535",
"O+	c #E5A12C",
"P+	c #E5A029",
"Q+	c #C99037",
"R+	c #D5C8A6",
"S+	c #FBF2D2",
"T+	c #FFF5CF",
"U+	c #F4E9BE",
"V+	c #F1E5B6",
"W+	c #FBEEC4",
"X+	c #FFF5D5",
"Y+	c #FFF5D6",
"Z+	c #FFF7DD",
"`+	c #FFF7DF",
" @	c #FFF4D0",
".@	c #E9DEBA",
"+@	c #B9A37A",
"@@	c #A8823A",
"#@	c #A78137",
"$@	c #96732D",
"%@	c #916D29",
"&@	c #DFA747",
"*@	c #E4A53F",
"=@	c #CB9330",
"-@	c #E9AA43",
";@	c #E7A435",
">@	c #E39F29",
",@	c #C4944E",
"'@	c #E0D1AC",
")@	c #F6E9BB",
"!@	c #D4C48A",
"~@	c #A8985D",
"{@	c #AC9D69",
"]@	c #CABC8A",
"^@	c #EFE2B6",
"/@	c #FFF3CF",
"(@	c #FFF6D2",
"_@	c #FFF5CC",
":@	c #FAEEC5",
"<@	c #FFF3D0",
"[@	c #FFF6D9",
"}@	c #EBDCB6",
"|@	c #C4A26A",
"1@	c #E1AA4B",
"2@	c #E4AF50",
"3@	c #E0B055",
"4@	c #A58137",
"5@	c #B88631",
"6@	c #C8902A",
"7@	c #E6A230",
"8@	c #E6A029",
"9@	c #DE9C28",
"0@	c #D4992F",
"a@	c #E19F2C",
"b@	c #DF9C29",
"c@	c #C9A064",
"d@	c #DBCDA3",
"e@	c #D1C492",
"f@	c #615732",
"g@	c #090701",
"h@	c #1B1605",
"i@	c #685E37",
"j@	c #BBAF80",
"k@	c #FCEEC0",
"l@	c #FFF2CC",
"m@	c #F7E9BD",
"n@	c #D5C690",
"o@	c #BCAB6D",
"p@	c #CEBE85",
"q@	c #E8D8A8",
"r@	c #FFF1C7",
"s@	c #FEF0C6",
"t@	c #ECD99D",
"u@	c #C3964E",
"v@	c #EBAC46",
"w@	c #DAA84D",
"x@	c #A07930",
"y@	c #D19737",
"z@	c #B58223",
"A@	c #C58C23",
"B@	c #E6A129",
"C@	c #E7A129",
"D@	c #D09226",
"E@	c #BF8C2E",
"F@	c #DB9F31",
"G@	c #DC9A2D",
"H@	c #C8A26A",
"I@	c #DAD0A7",
"J@	c #A99C66",
"K@	c #1A1605",
"L@	c #000000",
"M@	c #221D09",
"N@	c #7B714B",
"O@	c #F4E7B1",
"P@	c #FBEEC3",
"Q@	c #C7B885",
"R@	c #6E643E",
"S@	c #25210F",
"T@	c #1F1A07",
"U@	c #8D7E48",
"V@	c #EEDA99",
"W@	c #FEEAA5",
"X@	c #DBC682",
"Y@	c #D29F4C",
"Z@	c #E6A845",
"`@	c #EBAD49",
" #	c #C79B48",
".#	c #AB7D2C",
"+#	c #B17F21",
"@#	c #AD7C1E",
"##	c #BA8320",
"$#	c #CE8F23",
"%#	c #CB8D23",
"&#	c #C98C22",
"*#	c #C68A22",
"=#	c #C58A23",
"-#	c #B58022",
";#	c #B18632",
">#	c #DCA135",
",#	c #E09D2E",
"'#	c #B7935D",
")#	c #ECE4B9",
"!#	c #8D824A",
"~#	c #010000",
"{#	c #736935",
"]#	c #F4E7B6",
"^#	c #F0E2AD",
"/#	c #867A4E",
"(#	c #231E0B",
"_#	c #2B250B",
":#	c #C4B064",
"<#	c #F5DF8F",
"[#	c #D4BA76",
"}#	c #D7A34E",
"|#	c #E8AF4D",
"1#	c #B28B3D",
"2#	c #8A641A",
"3#	c #976C19",
"4#	c #9E711B",
"5#	c #926919",
"6#	c #9B701B",
"7#	c #A6771C",
"8#	c #956B1B",
"9#	c #977128",
"0#	c #A17D33",
"a#	c #A38036",
"b#	c #A68439",
"c#	c #AC883D",
"d#	c #9D792F",
"e#	c #DFA63B",
"f#	c #E6A12A",
"g#	c #BB8D4A",
"h#	c #DED2A7",
"i#	c #B6AB73",
"j#	c #58512E",
"k#	c #181304",
"l#	c #4C421C",
"m#	c #BBAD76",
"n#	c #F7E9BB",
"o#	c #FFF2C7",
"p#	c #DDCF95",
"q#	c #7D7344",
"r#	c #080601",
"s#	c #282209",
"t#	c #B2A05A",
"u#	c #EED887",
"v#	c #D7B972",
"w#	c #D39939",
"x#	c #E7A537",
"y#	c #E8A63A",
"z#	c #E8A73C",
"A#	c #E9A83E",
"B#	c #E0AB49",
"C#	c #B28F43",
"D#	c #93722E",
"E#	c #825F1C",
"F#	c #7D5A16",
"G#	c #8A6317",
"H#	c #8E6921",
"I#	c #AA883E",
"J#	c #D1A64A",
"K#	c #E6B149",
"L#	c #E9B247",
"M#	c #EBB144",
"N#	c #ECB041",
"O#	c #B88B33",
"P#	c #BC8B2E",
"Q#	c #E8A32B",
"R#	c #D39532",
"S#	c #C7A570",
"T#	c #CEBB7D",
"U#	c #B7A765",
"V#	c #7D6E36",
"W#	c #85763F",
"X#	c #B8A460",
"Y#	c #EBD68F",
"Z#	c #FCE7A1",
"`#	c #F8E399",
" $	c #E0CD81",
".$	c #A1924E",
"+$	c #201B06",
"@$	c #100C02",
"#$	c #5D5225",
"$$	c #C6B267",
"%$	c #F0DA8C",
"&$	c #CDAD68",
"*$	c #D8982A",
"=$	c #DE9D2B",
"-$	c #BF9030",
";$	c #C29A41",
">$	c #BB9848",
",$	c #AA8A40",
"'$	c #9D7C35",
")$	c #BC9947",
"!$	c #BB9035",
"~$	c #C78E25",
"{$	c #E59F28",
"]$	c #E59F27",
"^$	c #AE7D25",
"/$	c #C7912E",
"($	c #CF9639",
"_$	c #CFB36F",
":$	c #F1DC8E",
"<$	c #F9E089",
"[$	c #F1D781",
"}$	c #F7DE8B",
"|$	c #F7DF90",
"1$	c #C8B46A",
"2$	c #8C7C3E",
"3$	c #DAC46F",
"4$	c #DEC877",
"5$	c #91803F",
"6$	c #3D3412",
"7$	c #574C25",
"8$	c #A59352",
"9$	c #E4CD7E",
"0$	c #DFC983",
"a$	c #BF9245",
"b$	c #DC9A27",
"c$	c #B17F1E",
"d$	c #AD7F24",
"e$	c #A57F2C",
"f$	c #B7913C",
"g$	c #B28326",
"h$	c #AA7B1D",
"i$	c #C58B23",
"j$	c #E19E29",
"k$	c #A97B26",
"l$	c #D59B30",
"m$	c #D79726",
"n$	c #E19D28",
"o$	c #D99C36",
"p$	c #CBAD69",
"q$	c #FCE697",
"r$	c #FEE697",
"s$	c #F5DC91",
"t$	c #F9E396",
"u$	c #FBE595",
"v$	c #D3BC6A",
"w$	c #7E6E34",
"x$	c #E2CB79",
"y$	c #FEE796",
"z$	c #EAD483",
"A$	c #E4CB77",
"B$	c #E7CD76",
"C$	c #E7CF7D",
"D$	c #DABB73",
"E$	c #CDA356",
"F$	c #DB9B2F",
"G$	c #DC9B27",
"H$	c #B2801F",
"I$	c #A5771C",
"J$	c #9A6F1A",
"K$	c #DB9B2A",
"L$	c #AA7E2A",
"M$	c #DE9E2C",
"N$	c #BF8722",
"O$	c #DA9927",
"P$	c #DF9C2A",
"Q$	c #BB9754",
"R$	c #EAD68E",
"S$	c #C8B174",
"T$	c #BE9F5F",
"U$	c #E0CB85",
"V$	c #F1DC91",
"W$	c #D0B974",
"X$	c #E2CB7D",
"Y$	c #F1DA8F",
"Z$	c #F2DA8F",
"`$	c #FBE293",
" %	c #FEE798",
".%	c #D4BB78",
"+%	c #CB9947",
"@%	c #DB9A2E",
"#%	c #D59627",
"$%	c #B0842F",
"%%	c #E2A02B",
"&%	c #D29736",
"*%	c #C89D51",
"=%	c #BD8B39",
"-%	c #C58B2C",
";%	c #C7A660",
">%	c #C7AC6B",
",%	c #C2974C",
"'%	c #B8944F",
")%	c #D6C07C",
"!%	c #D1B773",
"~%	c #C8A967",
"{%	c #E0C983",
"]%	c #F1DD92",
"^%	c #D2B168",
"/%	c #D79933",
"(%	c #CC9026",
"_%	c #BA882C",
":%	c #E6A22B",
"<%	c #E29E29",
"[%	c #DE9C2C",
"}%	c #E29E2A",
"|%	c #DD9B2A",
"1%	c #CE963B",
"2%	c #D5972F",
"3%	c #CC9439",
"4%	c #BB944D",
"5%	c #C49444",
"6%	c #C58F38",
"7%	c #BF9F5E",
"8%	c #C3A86A",
"9%	c #CA9846",
"0%	c #E39F28",
"a%	c #B28025",
"b%	c #BD8828",
"c%	c #E09D28",
"d%	c #DD9A28",
"e%	c #DE9C2B",
"f%	c #D69933",
"g%	c #DF9C27",
"h%	c #B27E22",
"i%	c #A98539",
"j%	c #B58A35",
"k%	c #D49527",
"l%	c #D59526",
"m%	c #A9781E",
"n%	c #CB8F24",
"o%	c #C68C23",
"p%	c #D89726",
"q%	c #A87823",
"r%	c #B58F3F",
"s%	c #E3AC41",
"t%	c #DBA63E",
"u%	c #C19235",
"v%	c #D49627",
"w%	c #DB9B26",
"x%	c #D99A26",
"y%	c #DD9C27",
"z%	c #E29E28",
"A%	c #D39426",
"B%	c #A4751D",
"C%	c #C88D24",
"D%	c #AE7C1D",
"E%	c #A07524",
"F%	c #B89341",
"G%	c #D6A237",
"H%	c #D29623",
"I%	c #D09623",
"J%	c #CD992D",
"K%	c #C1912E",
"L%	c #C79225",
"M%	c #CB9322",
"N%	c #CC9322",
"O%	c #CF9523",
"P%	c #D59824",
"Q%	c #DC9C26",
"R%	c #E4A029",
"S%	c #E09C28",
"T%	c #855F16",
"U%	c #876018",
"V%	c #85601A",
"W%	c #906E28",
"X%	c #BF9943",
"Y%	c #D29E32",
"Z%	c #CB9321",
"`%	c #CB9425",
" &	c #C89428",
".&	c #CB9323",
"+&	c #DC9B26",
"@&	c #E19E28",
"#&	c #9C7C36",
"$&	c #AC8C41",
"%&	c #BC9A4B",
"&&	c #CCA347",
"*&	c #D09B2D",
"=&	c #D49824",
"-&	c #DD9B27",
";&	c #B6903B",
">&	c #BA8E32",
",&	c #B28426",
"'&	c #C08B22",
")&	c #CE9523",
"!&	c #D49625",
"~&	c #C98D24",
"{&	c #D99926",
"]&	c #996D19",
"^&	c #AA7A1D",
"/&	c #BE8920",
"(&	c #CC9422",
"_&	c #CA9222",
":&	c #AF7E1D",
"<&	c #8D6618",
"[&	c #B07E1E",
"}&	c #D29524",
"|&	c #D79626",
"1&	c #D99726",
"2&	c #DA9826",
"3&	c #DA9827",
"4&	c #DE9B27",
"5&	c #E09D27",
"6&	c #DF9C28",
"7&	c #DA9A26",
"8&	c #D69925",
"9&	c #D49724",
"0&	c #D19624",
"a&	c #CB9222",
"b&	c #B17F1F",
"c&	c #BE8921",
"d&	c #C89121",
"e&	c #C58F21",
"f&	c #C18C20",
"g&	c #AE7E1D",
"h&	c #956B18",
"i&	c #A5771B",
"j&	c #AF7D1C",
"k&	c #AD7C1C",
"l&	c #B07D1C",
"m&	c #B5801E",
"n&	c #B9821F",
"o&	c #BA831F",
"p&	c #BC851F",
"q&	c #C0881F",
"r&	c #C28B21",
"s&	c #C58E21",
"t&	c #C79021",
"u&	c #C99121",
"v&	c #C99122",
"w&	c #C69021",
"x&	c #C38D20",
"y&	c #BE891F",
"z&	c #B6831D",
"A&	c #AE7D1C",
"B&	c #A7781A",
"C&	c #A07319",
"D&	c #9C7018",
"E&	c #986E17",
"F&	c #976C16",
"G&	c #966C16",
"H&	c #986D17",
"I&	c #9A6F17",
"J&	c #9E7218",
"K&	c #A5771A",
"L&	c #AD7D1B",
"M&	c #B5831D",
"N&	c #BC881F",
"O&	c #C28C20",
"P&	c #C68F21",
"Q&	c #CA9322",
"R&	c #BB871F",
"S&	c #BF8A20",
"T&	c #C28D20",
"U&	c #B7841E",
"V&	c #AF7E1C",
"W&	c #A6771A",
"X&	c #9D7118",
"Y&	c #916815",
"Z&	c #8D6514",
"`&	c #8B6314",
" *	c #8B6414",
".*	c #8E6615",
"+*	c #936916",
"@*	c #9C7017",
"#*	c #A47619",
"$*	c #BA871E",
"%*	c #BB8720",
"&*	c #AC7C1D",
"**	c #C48E21",
"=*	c #C08B20",
"-*	c #BB871E",
";*	c #A7791A",
">*	c #906715",
",*	c #876113",
"'*	c #855F12",
")*	c #865F13",
"!*	c #8A6314",
"~*	c #926815",
"{*	c #AE7E1C",
"]*	c #9A6F19",
"^*	c #B9851E",
"/*	c #C89021",
"(*	c #C89022",
"_*	c #B07F1F",
":*	c #B3811F",
"<*	c #C48D21",
"[*	c #B2811D",
"}*	c #A97A1B",
"|*	c #A37519",
"1*	c #956B16",
"2*	c #8F6715",
"3*	c #896213",
"4*	c #886113",
"5*	c #8E6614",
"6*	c #926915",
"7*	c #976D17",
"8*	c #B8851E",
"9*	c #AB7B1C",
"0*	c #C08A20",
"a*	c #C08B21",
"b*	c #C08A21",
"c*	c #BD891F",
"d*	c #B4821D",
"e*	c #B1801C",
"f*	c #AB7C1B",
"g*	c #A8791A",
"h*	c #996E17",
"i*	c #9F7218",
"j*	c #AB7B1B",
"k*	c #B5821F",
"l*	c #A3761C",
"m*	c #946A1A",
"n*	c #A8791D",
"o*	c #B07F1E",
"p*	c #B2801C",
"q*	c #B07F1C",
"r*	c #A1731A",
"s*	c #B5821D",
"t*	c #C08A1F",
"u*	c #C99222",
"v*	c #BB8620",
"w*	c #C99221",
"x*	c #C48E20",
"y*	c #C08B1F",
"z*	c #BE8A1F",
"A*	c #BF8A1F",
"B*	c #C18B1F",
"C*	c #C78F21",
"D*	c #A3741C",
"E*	c #B88520",
"F*	c #956B1A",
"G*	c #BC8720",
"H*	c #BA8620",
"I*	c #B9851F",
"J*	c #B8841F",
"K*	c #BA851F",
"L*	c #956A1A",
"M*	c #B88420",
"N*	c #AF7E1E",
"O*	c #825D17",
"P*	c #916919",
"Q*	c #946B1A",
"R*	c #A2741C",
"S*	c #7F5A16",
"T*	c #986D1B",
"U*	c #7D5916",
"V*	c #896218",
"        . + @ # # # # # # # # # # # # # # # # # # # # # # # $ % & * $ # # # # # # # = - ;           ",
"      > , ' ) ! ! ! ! ! ! ! ! ! ! ! ! ! ! ! ! ! ! ! ! ! ! ! ~ { ] ! ! ! ! ! ! ! ! ! ! ~ ^ = /       ",
"    ( _ : : : < < [ [ [ [ [ [ [ [ [ [ [ [ [ [ [ [ [ [ [ [ [ } | [ [ [ [ [ [ [ [ [ < : : : 1 2 3     ",
"  > _ : : < 4 5 6 7 8 8 8 8 8 8 8 8 8 8 8 8 8 8 8 8 8 8 8 8 7 8 8 8 8 8 8 8 8 8 9 0 a < : : b c d   ",
"e ] : : < f g h i j k k k k k k k k k k k k k k k k k k k k k k k k k k k k k k l m n o p : : ~ (   ",
"> q : < r s t u v w w w w w w w w w w w w w w w w w w w w w w w w w w w w w w w x y z A B : : : C   ",
"D ! : 4 E F G H I I I I I I I I I I I I I I I I I I I I I I I I I I I I I I I I I J H K L M < : N ; ",
"O 1 < P Q R I I I I I I I I I I I I I I I I I I I I I I I I I I I I I I I I I I I I I H S T 4 : U + ",
"O 1 < V y J I I I I W X I I I I I I I I I I I I I I I I I I I I I I I I I I I I I I I I Y Z f : _ + ",
"O 1 < ` G I I I I  ...+.I I I I I I I I I I I I I I I I I I I I I I I I I I I I I I I I I @.#.: _ + ",
"O 1 < $.W I I I Y %.&.*.=.I I I I I I I I I I -.;.>.,.I '.).!.I I I I I I I I ~.=.I I I I {.].: _ + ",
"O 1 < ^.X I I I I  ./.+.I I I I I I I I I (._.:.<.[.}.|.1.2.3.4.~.5.6.I I I I 7.,.I I I I 8.9.: _ + ",
"O 1 < 0.X I I I I I Y X I I I I I I I I a.b.c.d.e.f.g.h.i.j.k.l.m.n.o.p.q.4.r.s.I I I I I 8.9.: t.+ ",
"O 1 < 0.X I I I I I I I I I I I I I I I u.v.w.x.y.z.A.B.C.D.E.F.G.H.I.J.K.L.M.N.'.I I I W O.P.Q.R.S.",
"O 1 < 0.X I I I I I I I I I I I I I I I T.U.V.W.X.Y.Z.`. + +.+ + +++++@+#+$+%+&+*+I I I '.=+-+;+;+>+",
"O 1 < 0.X ,+'+I I I I I I I I I I I I I )+!+~+{+]+^+/+ + + + + + + + + + + +(+_+:+I I I <+[+}+|+1+2+",
"O 1 < 0.W 3+4+X I I I I I I I I I J 5+6+7+8+9+0+a+]+b+Z. + + + +c+ +`. + + +d+e+f+I g+h+i+j+k+l+m+n+",
"O 1 < 0.X I I I I I I I I J 5+6+o+p+q+r+s+t+u+Y.v+w+x+y+z+ + +`.^+w+A+^+B+ +C+D+E+F+G+H+I+J+K+< L+M+",
"O 1 < 0.X I I I I J 5+6+N+p+O+P+P+P+P+P+Q+R+S+T+U+V+W+X+{+B+`.Y+Z+`+Y.`+A+ @.@+@@@#@$@%@&@*@9.: _ + ",
"O 1 < =@X -@5+6+;@p+q+P+r+>@P+P+P+P+P+r+,@'@)@!@~@{@]@^@ @B+/@X+(@_@:@<@[@Y+}@|@1@2@3@4@5@8.9.: _ + ",
"O 1 1 6@;@7@q+P+P+P+8@9@0@a@P+P+P+P+P+b@c@d@e@f@g@h@i@j@k@/+l@m@n@o@p@q@r@s@t@u@J I v@w@x@y@z@: _ + ",
"O 1 b A@B@B@C@C@C@8@D@E@F@P+P+P+P+P+P+G@H@I@J@K@L@L@M@N@O@l@P@Q@R@S@T@U@V@W@X@Y@Z@I I `@ #.#+#@#t.+ ",
"O 1 b ##$#%#&#*#=#-#;#>#B@P+P+P+P+P+P+,#'#)#!#~#L@L@~#{#]# +^#/#(#~#L@_#:#<#[#}#a.I I I |#1#2#3#4#5#",
"6#7#8#9#0#a#b#c#[+d#e#f#P+P+P+P+P+P+P+r+g#h#i#j#k#k#l#m#n#o#p#q#r#L@L@s#t#u#v#w#;@x#y#z#A#B#C#D#E#F#",
"G#H#I#J#K#L#M#N#O#P#Q#P+P+P+P+P+P+P+P+P+R#S#T#U#V#W#X#Y#Z#`# $.$+$L@@$#$$$%$&$*$P+P+P+P+f#=$-$;$>$,$",
"'$)$!$~${${$]$]$^$/$B@P+P+P+P+B@P+P+P+P+>@($_$:$<$[$}$|$1$2$3$4$5$6$7$8$9$0$a$>@P+P+P+P+P+b$c$: d$e$",
"f$g$h$i$P+P+P+j$k$l$8@P+P+P+r+m$n$P+P+P+r+o$p$q$r$s$t$u$v$w$x$y$z$A$B$C$D$E$F$P+P+P+P+P+P+G$H$: I$M+",
"J$< b A@P+P+8@K$L$M$P+P+P+P+n$N$O$8@P+P+P+P$Q$R$S$T$U$V$W$X$|$Y$Z$`$ %.%+%@%r+P+P+P+P+P+P+G$H$: _ + ",
"O 1 1 A@P+P+B@#%$%%%P+P+P+P+P+r+P+P+P+P+P+r+&%*%=%-%;%>%,%'%)%!%~%{%]%^%/%P+P+P+P+P+P+P+P+G$H$: _ + ",
"O 1 1 A@P+P+C@(%_%:%P+P+P+P+P+P+P+P+P+P+P+P+<%[%}%|%&%1%2%3%4%5%6%7%8%9%b@P+P+P+P+P+P+P+P+G$H$: _ + ",
"O 1 1 A@P+8@0%a%b%C@P+P+P+P+P+P+P+P+P+P+P+P+P+P+P+P+P+r+>@>@c%d%e%f%*$n$P+P+P+n$r+P+P+P+P+G$H$: _ + ",
"O 1 1 A@8@g%h%i%j%k%8@P+P+P+P+P+P+P+P+P+P+P+P+P+P+P+P+P+P+P+P+P+P+r+r+P+P+B@l%m%n%B@P+P+P+G$H$: _ + ",
"O 1 b o%p%q%r%s%t%u%v%w%x%y%z%P+P+P+P+P+P+P+P+P+P+P+P+P+P+P+P+P+P+P+P+P+P+B@A%B%C%B@P+P+P+G$H$: _ + ",
"O 1 ' D%E%F%G%H%I%J%K%L%M%N%O%P%Q%z%P+P+P+P+P+P+P+P+P+P+P+P+P+P+P+P+P+P+P+P+R%S%r+P+P+P+P+G$H$: _ + ",
"T%U%V%W%X%Y%Z%M%M%M%`% &.&M%M%M%N%O%P%+&@&P+P+P+P+P+P+P+P+P+P+P+P+P+P+P+P+P+P+P+P+P+P+P+P+G$H$: _ + ",
"#&$&%&&&*&Z%M%M%M%M%M%M%M%M%M%M%M%M%M%N%O%=&w%@&R%8@B@P+P+P+P+P+P+P+P+P+P+P+P+P+P+P+P+P+8@-&H$: _ + ",
";&>&,&'&N%M%M%M%M%M%M%M%M%M%M%M%M%M%M%M%M%M%M%)&=&!&~&b$8@P+P+P+P+P+P+P+P+P+P+P+P+P+R%0%z%{&H$: _ + ",
"]&^&1 /&(&M%M%M%M%M%M%M%M%M%M%M%M%M%M%M%M%M%M%M%_&:&<&[&}&|&1&2&3&b$4&c%5&c%6&y%7&8&9&0&O%a&b&: _ + ",
"O 1 b c&(&M%M%M%M%M%M%M%M%M%M%M%M%M%M%M%_&_&d&e&f&g&h&i&j&k&l&m&n&o&p&q&r&s&t&u&_&M%M%M%M%v&b&: _ + ",
"O 1 b c&(&M%M%M%M%M%M%M%N%M%M%M%M%_&_&d&w&x&y&z&A&B&C&D&E&F&G&G&H&I&J&K&L&M&N&O&P&v&_&M%M%v&b&: _ + ",
"O 1 b /&(&M%M%M%M%M%M%Q&R&S&M%M%_&d&P&T&y&U&V&W&X&G&Y&Z&`& *Z&.*Y&+*G&@*#*L&z&$*T&t&_&M%M%v&b&: _ + ",
"O 1 : %*M%M%M%M%M%M%M%v&I$&*Q&_&d&**=*-*z&V&;*J&G&>*`&,*'*)*,*!*.*~*G&@*#*L&{*]*^*/*_&M%M%(*_*: _ + ",
"O 1 : :*v&M%M%M%M%M%M%M%<*e&M%_&t&O&N&U&[*V&}*|*@*1*2* *3*4*!*5*6*7*X&K&L&M&8*9*0*v&_&M%N%a*@#: U + ",
"D ! : p b*N%M%M%M%M%M%M%M%M%M%_&t&x&c*^*d*e*V&f*g*|*J&@*h*G&H&i*K&j*e*U&c*f&e&d&_&M%M%M%v&k*: : l*; ",
"m*n*: : o*<*N%M%M%M%M%M%M%M%M%_&v&w&T&y&-*U&M&d*[*p*q*q*e*V&r*s*t*O&s&t&d&u*_&M%M%M%M%_&v*: : : 2   ",
"d Q.: : : o*b*v&N%(&(&(&(&(&(&(&M%M%w*t&x*f&y*z*y&y&A*B*x&C*U&D*e&(&(&(&(&(&(&(&(&M%P&E*p : : ~ %   ",
"  F*t.: : : p :*v*G*G*G*G*G*G*G*G*G*G*v*H*I*I*J*J*J*I*K*H*%*v*L*{ G*G*G*G*G*G*G*G*M*N*: : : : , d   ",
"    ( t.: : : : b b b b b b b b b b b b b b b b b b b b b b : $ O*' : b b b b b b : : : : 1 Q.P*    ",
"      Q*Q.n*! 1 1 1 1 1 1 1 1 1 1 1 1 1 1 1 1 1 1 1 1 1 1 1 b R*S*c : 1 1 1 1 1 1 1 1 ) U R.3       ",
"        d m*D O O O O O O O O O O O O O O O O O O O O O O O O T*U*V*R.O O O O O O O O % 5#          "};
