/* XPM */
static char * col4_xpm[] = {
"50 50 813 2",
"  	c None",
". 	c #8E6619",
"+ 	c #936A19",
"@ 	c #976D1A",
"# 	c #996E1B",
"$ 	c #9A6E1B",
"% 	c #976C1A",
"& 	c #886117",
"* 	c #926819",
"= 	c #996E1A",
"- 	c #956C1A",
"; 	c #916819",
"> 	c #946A19",
", 	c #9E721B",
"' 	c #A7781D",
") 	c #AA7A1E",
"! 	c #AA7B1E",
"~ 	c #A97A1D",
"{ 	c #9C701B",
"] 	c #9F721C",
"^ 	c #A4761C",
"/ 	c #906719",
"( 	c #966C1A",
"_ 	c #A6771D",
": 	c #AC7C1E",
"< 	c #AB7B1D",
"[ 	c #AB7A1C",
"} 	c #A6761B",
"| 	c #A5761B",
"1 	c #AB7B1E",
"2 	c #9F721B",
"3 	c #906819",
"4 	c #AD7D1F",
"5 	c #B8892B",
"6 	c #C99D3F",
"7 	c #CEA448",
"8 	c #CFA548",
"9 	c #CEA246",
"0 	c #C29537",
"a 	c #B18224",
"b 	c #AB7C1E",
"c 	c #9D711B",
"d 	c #8F6719",
"e 	c #8F6718",
"f 	c #B48426",
"g 	c #D7AE52",
"h 	c #F0CD73",
"i 	c #F6D176",
"j 	c #F7CF74",
"k 	c #F7CF73",
"l 	c #F7D074",
"m 	c #F5D177",
"n 	c #E8C369",
"o 	c #C5993B",
"p 	c #AD7D1E",
"q 	c #A7791D",
"r 	c #B48526",
"s 	c #E2BB5F",
"t 	c #F5CA6D",
"u 	c #EEB755",
"v 	c #EBAF4B",
"w 	c #EAAD48",
"x 	c #EAAD49",
"y 	c #ECB14E",
"z 	c #F1C060",
"A 	c #F2CC71",
"B 	c #CBA043",
"C 	c #9E721C",
"D 	c #986D1A",
"E 	c #D7AD50",
"F 	c #F2C162",
"G 	c #EAAC47",
"H 	c #E9A944",
"I 	c #E9AA45",
"J 	c #E9AA44",
"K 	c #EDB351",
"L 	c #EEC467",
"M 	c #BE9032",
"N 	c #A3751C",
"O 	c #9A6F1B",
"P 	c #BA8B2D",
"Q 	c #EBBC5D",
"R 	c #EAAC48",
"S 	c #EEB553",
"T 	c #D8AC4E",
"U 	c #A5771D",
"V 	c #CB9B3B",
"W 	c #EAAB45",
"X 	c #EAAA45",
"Y 	c #EAAB46",
"Z 	c #E5B14F",
"` 	c #CD9938",
" .	c #E2A541",
"..	c #C48E33",
"+.	c #D69C3C",
"@.	c #E5AB47",
"#.	c #B58425",
"$.	c #CB9431",
"%.	c #D19839",
"&.	c #92691B",
"*.	c #B5832C",
"=.	c #E8A944",
"-.	c #E0A340",
";.	c #E1A441",
">.	c #E7A944",
",.	c #E3A640",
"'.	c #B48223",
").	c #CB922F",
"!.	c #C38E32",
"~.	c #E8AA45",
"{.	c #BA872E",
"].	c #BE8A30",
"^.	c #E4A642",
"/.	c #E6A844",
"(.	c #E3A53F",
"_.	c #B48222",
":.	c #CB9230",
"<.	c #DDA13F",
"[.	c #DEA23F",
"}.	c #A6781D",
"|.	c #DEA13E",
"1.	c #A77820",
"2.	c #A0731C",
"3.	c #9B6F1B",
"4.	c #8C6518",
"5.	c #DFA446",
"6.	c #D9A049",
"7.	c #DAA046",
"8.	c #E1A444",
"9.	c #E7A844",
"0.	c #AD7D2C",
"a.	c #7D5A18",
"b.	c #7C5918",
"c.	c #7C5A19",
"d.	c #E6A843",
"e.	c #E5A743",
"f.	c #E7A845",
"g.	c #D9A352",
"h.	c #CBA77B",
"i.	c #CCB498",
"j.	c #CEB28E",
"k.	c #CEA871",
"l.	c #CE9E58",
"m.	c #D69E46",
"n.	c #E1A443",
"o.	c #BE8A33",
"p.	c #99762F",
"q.	c #B59346",
"r.	c #B69446",
"s.	c #B49346",
"t.	c #B19044",
"u.	c #DEA13F",
"v.	c #E8A840",
"w.	c #E8A73B",
"x.	c #E7A538",
"y.	c #E8A73D",
"z.	c #DDA145",
"A.	c #C9A980",
"B.	c #DCD7CE",
"C.	c #F3F2ED",
"D.	c #EEEADE",
"E.	c #E1D8C5",
"F.	c #D8CAB3",
"G.	c #D1B892",
"H.	c #C9A671",
"I.	c #C89A56",
"J.	c #D49C44",
"K.	c #E8A945",
"L.	c #EBAB46",
"M.	c #CE963A",
"N.	c #98722B",
"O.	c #CFA249",
"P.	c #BE8E2F",
"Q.	c #B5882A",
"R.	c #B08429",
"S.	c #9F7826",
"T.	c #E7A536",
"U.	c #E6A330",
"V.	c #E6A12C",
"W.	c #E5A029",
"X.	c #E3A02A",
"Y.	c #D19B4A",
"Z.	c #CEBEA7",
"`.	c #F9F8F1",
" +	c #FFFFFF",
".+	c #FFFDF6",
"++	c #FFF9E8",
"@+	c #FAF4E0",
"#+	c #F1E6C6",
"$+	c #E7D9B4",
"%+	c #DFCDA7",
"&+	c #D1BA91",
"*+	c #C2A372",
"=+	c #C29553",
"-+	c #D29A42",
";+	c #E2A543",
">+	c #E4A643",
",+	c #E0A341",
"'+	c #DA9E3E",
")+	c #CD9438",
"!+	c #9B7229",
"~+	c #C59B48",
"{+	c #E5A944",
"]+	c #B38121",
"^+	c #A5761C",
"/+	c #926918",
"(+	c #E7A535",
"_+	c #E5A12C",
":+	c #DF9C2A",
"<+	c #CB9E5D",
"[+	c #D9CFB3",
"}+	c #FFFAEA",
"|+	c #FFFCF3",
"1+	c #FFF5D8",
"2+	c #FFF5D5",
"3+	c #FFF3CE",
"4+	c #FEF2CB",
"5+	c #FBEEC8",
"6+	c #F4E8C2",
"7+	c #EEE1BA",
"8+	c #E4D4AE",
"9+	c #CEBB95",
"0+	c #BA9D71",
"a+	c #B78E4E",
"b+	c #BC8F42",
"c+	c #B98E3F",
"d+	c #B0873A",
"e+	c #A78137",
"f+	c #96732D",
"g+	c #916D29",
"h+	c #DFA747",
"i+	c #E4A53F",
"j+	c #CB9330",
"k+	c #E9AA43",
"l+	c #E7A435",
"m+	c #E49F29",
"n+	c #E39F29",
"o+	c #DA9A32",
"p+	c #C5A471",
"q+	c #EBE1BE",
"r+	c #FFF4D4",
"s+	c #FFF6DC",
"t+	c #FFF5D6",
"u+	c #FFF2CD",
"v+	c #FFF2CB",
"w+	c #FFF3CB",
"x+	c #FCF0C9",
"y+	c #F9EEC7",
"z+	c #F7E9C2",
"A+	c #E5D9B5",
"B+	c #C6B895",
"C+	c #BB9C6B",
"D+	c #D2A04D",
"E+	c #E3AE50",
"F+	c #E0B055",
"G+	c #A58137",
"H+	c #B88631",
"I+	c #C8902A",
"J+	c #E6A230",
"K+	c #E6A029",
"L+	c #DE9C28",
"M+	c #D4992F",
"N+	c #E19F2C",
"O+	c #D59A3F",
"P+	c #C4B08A",
"Q+	c #FAF0CD",
"R+	c #FFF4D6",
"S+	c #FFF6DA",
"T+	c #FFF5D9",
"U+	c #FFF3D0",
"V+	c #FEF3CC",
"W+	c #FDF2CB",
"X+	c #EADDB7",
"Y+	c #BA9A6A",
"Z+	c #EBAC46",
"`+	c #DAA84D",
" @	c #A07930",
".@	c #D19737",
"+@	c #B58223",
"@@	c #C58C23",
"#@	c #E6A129",
"$@	c #E7A129",
"%@	c #D09226",
"&@	c #BF8C2E",
"*@	c #DB9F31",
"=@	c #E19E2A",
"-@	c #CB984F",
";@	c #D4CAAA",
">@	c #FFF7D8",
",@	c #FFF6D8",
"'@	c #FFF6DB",
")@	c #FFF6DE",
"!@	c #FFF2CA",
"~@	c #F8EDC7",
"{@	c #C3AF89",
"]@	c #D89E41",
"^@	c #EBAD49",
"/@	c #C79B48",
"(@	c #AB7D2C",
"_@	c #B17F21",
":@	c #AD7C1E",
"<@	c #BA8320",
"[@	c #CE8F23",
"}@	c #CB8D23",
"|@	c #C98C22",
"1@	c #C68A22",
"2@	c #C58A23",
"3@	c #B58022",
"4@	c #B18632",
"5@	c #DCA135",
"6@	c #E09D2E",
"7@	c #BB9763",
"8@	c #ECE4C2",
"9@	c #FBF0CB",
"0@	c #EEE3B7",
"a@	c #EADEB1",
"b@	c #F5E8BA",
"c@	c #FFF4D3",
"d@	c #FFF4D5",
"e@	c #FFF5D7",
"f@	c #FFF4D1",
"g@	c #FAEEC7",
"h@	c #BBA57D",
"i@	c #DDA142",
"j@	c #E8AF4D",
"k@	c #B28B3D",
"l@	c #8A641A",
"m@	c #976C19",
"n@	c #9E711B",
"o@	c #926919",
"p@	c #9B701B",
"q@	c #A6771C",
"r@	c #956B1B",
"s@	c #977128",
"t@	c #A17D33",
"u@	c #A38036",
"v@	c #A68439",
"w@	c #AC883D",
"x@	c #9D792F",
"y@	c #DFA63B",
"z@	c #E6A12A",
"A@	c #D89931",
"B@	c #BAA680",
"C@	c #F8EDC2",
"D@	c #D9C992",
"E@	c #A1925B",
"F@	c #958652",
"G@	c #BBAC78",
"H@	c #EBDDAA",
"I@	c #FFF5D2",
"J@	c #FFF7DD",
"K@	c #FFF7DF",
"L@	c #FFF8E5",
"M@	c #EFE4BE",
"N@	c #B48D55",
"O@	c #E5A436",
"P@	c #E8A63A",
"Q@	c #E8A73C",
"R@	c #E9A83E",
"S@	c #E0AB49",
"T@	c #B28F43",
"U@	c #93722E",
"V@	c #825F1C",
"W@	c #7D5A16",
"X@	c #8A6317",
"Y@	c #8E6921",
"Z@	c #AA883E",
"`@	c #D1A64A",
" #	c #E6B149",
".#	c #E9B247",
"+#	c #EBB144",
"@#	c #ECB041",
"##	c #B88B33",
"$#	c #BC8B2E",
"%#	c #E8A32B",
"&#	c #C58C34",
"*#	c #D3C9A6",
"=#	c #E2D397",
"-#	c #584E23",
";#	c #0B0901",
">#	c #050300",
",#	c #2B240B",
"'#	c #A99B61",
")#	c #FCEFC2",
"!#	c #FFF5D4",
"~#	c #FFF6D5",
"{#	c #FFF6D1",
"]#	c #FFF5D0",
"^#	c #FFF8E2",
"/#	c #FFF4CC",
"(#	c #D2C7A5",
"_#	c #C68E38",
":#	c #E4A029",
"<#	c #DE9D2B",
"[#	c #BF9030",
"}#	c #C29A41",
"|#	c #BB9848",
"1#	c #AA8A40",
"2#	c #9D7C35",
"3#	c #BC9947",
"4#	c #BB9035",
"5#	c #C78E25",
"6#	c #E59F28",
"7#	c #E59F27",
"8#	c #AE7D25",
"9#	c #C7912E",
"0#	c #B68A4B",
"a#	c #ECE3B9",
"b#	c #A3985E",
"c#	c #272310",
"d#	c #000000",
"e#	c #5A5024",
"f#	c #F0E2AD",
"g#	c #FEF1CB",
"h#	c #FFF3CC",
"i#	c #FDEFC2",
"j#	c #E0D19E",
"k#	c #CABC87",
"l#	c #DECE94",
"m#	c #FCECBE",
"n#	c #FFF4D2",
"o#	c #BCA780",
"p#	c #D89933",
"q#	c #DC9A27",
"r#	c #B17F1E",
"s#	c #AD7F24",
"t#	c #A57F2C",
"u#	c #B7913C",
"v#	c #B28326",
"w#	c #AA7B1D",
"x#	c #C58B23",
"y#	c #E19E29",
"z#	c #A97B26",
"A#	c #D59B30",
"B#	c #D79726",
"C#	c #E19D28",
"D#	c #B88C4F",
"E#	c #E9DFB3",
"F#	c #9F9561",
"G#	c #343018",
"H#	c #010100",
"I#	c #010000",
"J#	c #63592C",
"K#	c #ECE0AC",
"L#	c #FEF1CA",
"M#	c #FCEFC1",
"N#	c #C7B986",
"O#	c #83774D",
"P#	c #605632",
"Q#	c #685F3B",
"R#	c #B2A36B",
"S#	c #F7E8B7",
"T#	c #FFF1C4",
"U#	c #F3E2A7",
"V#	c #C29C5A",
"W#	c #DF9D2E",
"X#	c #DC9B27",
"Y#	c #B2801F",
"Z#	c #A5771C",
"`#	c #9A6F1A",
" $	c #DB9B2A",
".$	c #AA7E2A",
"+$	c #DE9E2C",
"@$	c #BF8722",
"#$	c #DA9927",
"$$	c #C99036",
"%$	c #CBB890",
"&$	c #C7B87A",
"*$	c #716639",
"=$	c #2E270D",
"-$	c #1A1605",
";$	c #473E1A",
">$	c #AEA16B",
",$	c #FFF3CA",
"'$	c #E7DAA3",
")$	c #80754B",
"!$	c #25200B",
"~$	c #020100",
"{$	c #090701",
"]$	c #4F4622",
"^$	c #D9C57A",
"/$	c #FBE69B",
"($	c #DDC884",
"_$	c #CE9A45",
":$	c #E19D2A",
"<$	c #D59627",
"[$	c #B0842F",
"}$	c #E2A02B",
"|$	c #E29E29",
"1$	c #BC8C43",
"2$	c #DEC984",
"3$	c #C6B36A",
"4$	c #9A894C",
"5$	c #938247",
"6$	c #B4A15F",
"7$	c #EAD795",
"8$	c #FBE9B0",
"9$	c #FFEFB6",
"0$	c #D2C381",
"a$	c #635B33",
"b$	c #050401",
"c$	c #211C07",
"d$	c #C2AE60",
"e$	c #F6DF8F",
"f$	c #CDB270",
"g$	c #D79B3A",
"h$	c #CC9026",
"i$	c #BA882C",
"j$	c #E6A22B",
"k$	c #C59647",
"l$	c #E8CF86",
"m$	c #FDE593",
"n$	c #F6DD88",
"o$	c #F1D883",
"p$	c #FBE290",
"q$	c #F2DC8F",
"r$	c #D0BC79",
"s$	c #DECA81",
"t$	c #D8C471",
"u$	c #7C6F3A",
"v$	c #141003",
"w$	c #423914",
"x$	c #D2BD6E",
"y$	c #EDD88B",
"z$	c #CCA65E",
"A$	c #DB9B30",
"B$	c #E39F28",
"C$	c #B28025",
"D$	c #BD8828",
"E$	c #C89D52",
"F$	c #E9D187",
"G$	c #F5DD92",
"H$	c #F0D88D",
"I$	c #F6DE93",
"J$	c #FDE798",
"K$	c #E5CE7D",
"L$	c #988746",
"M$	c #BBA65B",
"N$	c #EAD37F",
"O$	c #C0AC62",
"P$	c #6B5E2B",
"Q$	c #2C260C",
"R$	c #453B15",
"S$	c #AB984F",
"T$	c #EED886",
"U$	c #DEC981",
"V$	c #CF9F4D",
"W$	c #DB9929",
"X$	c #DF9C27",
"Y$	c #B27E22",
"Z$	c #A98539",
"`$	c #B58A35",
" %	c #D49527",
".%	c #CC953C",
"+%	c #D3B66F",
"@%	c #CDB371",
"#%	c #C09F5F",
"$%	c #D7BF7B",
"%%	c #F0DC91",
"&%	c #E0CA7F",
"*%	c #C1AC65",
"=%	c #DCC679",
"-%	c #F9E291",
";%	c #F2DB8B",
">%	c #DCC576",
",%	c #CFB869",
"'%	c #D8C070",
")%	c #E9D183",
"!%	c #E2CC85",
"~%	c #C7A662",
"{%	c #C68E31",
"]%	c #A8781E",
"^%	c #CB8F24",
"/%	c #C68C23",
"(%	c #D89726",
"_%	c #A87823",
":%	c #B58F3F",
"<%	c #E3AC41",
"[%	c #DBA63E",
"}%	c #C19235",
"|%	c #D49627",
"1%	c #DB9B26",
"2%	c #D99A26",
"3%	c #DD9C27",
"4%	c #E29E28",
"5%	c #E09D29",
"6%	c #CE9333",
"7%	c #C68E33",
"8%	c #C78D2D",
"9%	c #C8A25A",
"0%	c #CFB774",
"a%	c #CBAC67",
"b%	c #CBAD66",
"c%	c #E7D086",
"d%	c #EFD88E",
"e%	c #EED78D",
"f%	c #F8E091",
"g%	c #FAE291",
"h%	c #E3CD83",
"i%	c #C9A864",
"j%	c #C79646",
"k%	c #D79930",
"l%	c #D29326",
"m%	c #A4751D",
"n%	c #C88D24",
"o%	c #AE7C1D",
"p%	c #A07524",
"q%	c #B89341",
"r%	c #D6A237",
"s%	c #D29623",
"t%	c #D09623",
"u%	c #CD992D",
"v%	c #C1912E",
"w%	c #C79225",
"x%	c #CB9322",
"y%	c #CC9322",
"z%	c #CF9523",
"A%	c #D59824",
"B%	c #DC9C26",
"C%	c #C59341",
"D%	c #CA9235",
"E%	c #C29242",
"F%	c #C4AB6A",
"G%	c #CBAE6A",
"H%	c #C6A563",
"I%	c #E1C983",
"J%	c #F5E094",
"K%	c #D8BD77",
"L%	c #CE9840",
"M%	c #E29E2B",
"N%	c #E09C28",
"O%	c #855F16",
"P%	c #876018",
"Q%	c #85601A",
"R%	c #906E28",
"S%	c #BF9943",
"T%	c #D29E32",
"U%	c #CB9321",
"V%	c #CB9425",
"W%	c #C89428",
"X%	c #CB9323",
"Y%	c #DC9B26",
"Z%	c #E19E28",
"`%	c #E39E28",
" &	c #D79932",
".&	c #CB9740",
"+&	c #CC953B",
"@&	c #C48F3A",
"#&	c #C4A765",
"$&	c #CFB673",
"%&	c #CB9F52",
"&&	c #DB9A2C",
"*&	c #9C7C36",
"=&	c #AC8C41",
"-&	c #BC9A4B",
";&	c #CCA347",
">&	c #D09B2D",
",&	c #D49824",
"'&	c #DA9A26",
")&	c #E09D28",
"!&	c #E29F29",
"~&	c #DF9C28",
"{&	c #DB9A2D",
"]&	c #D39A3C",
"^&	c #D59D40",
"/&	c #DD9C31",
"(&	c #DD9B27",
"_&	c #B6903B",
":&	c #BA8E32",
"<&	c #B28426",
"[&	c #C08B22",
"}&	c #CA9222",
"|&	c #C89121",
"1&	c #C58F21",
"2&	c #C18B20",
"3&	c #BD891F",
"4&	c #BC881F",
"5&	c #BD871F",
"6&	c #BB841F",
"7&	c #AF7B1E",
"8&	c #C08621",
"9&	c #CC8E23",
"0&	c #D19225",
"a&	c #D59525",
"b&	c #D79626",
"c&	c #D99926",
"d&	c #996D19",
"e&	c #AA7A1D",
"f&	c #BE8920",
"g&	c #CC9422",
"h&	c #C69021",
"i&	c #B9861E",
"j&	c #B07F1C",
"k&	c #A7781A",
"l&	c #9F7218",
"m&	c #996E17",
"n&	c #946A16",
"o&	c #7E5A12",
"p&	c #65480E",
"q&	c #815B13",
"r&	c #9D6E18",
"s&	c #A4721A",
"t&	c #AC771C",
"u&	c #B47D1E",
"v&	c #BD8320",
"w&	c #C78B22",
"x&	c #D19224",
"y&	c #DA9826",
"z&	c #DE9B27",
"A&	c #D69925",
"B&	c #D49724",
"C&	c #D19624",
"D&	c #CB9222",
"E&	c #B17F1F",
"F&	c #BE8921",
"G&	c #C99222",
"H&	c #C38D20",
"I&	c #BA861E",
"J&	c #AD7D1B",
"K&	c #A17419",
"L&	c #966C16",
"M&	c #8E6614",
"N&	c #876013",
"O&	c #825D12",
"P&	c #805B11",
"Q&	c #755310",
"R&	c #66480D",
"S&	c #745310",
"T&	c #7F5A11",
"U&	c #825C12",
"V&	c #886013",
"W&	c #916516",
"X&	c #9B6C18",
"Y&	c #A27219",
"Z&	c #AB791B",
"`&	c #B5801D",
" *	c #BF8920",
".*	c #C78F21",
"+*	c #C99122",
"@*	c #C48E20",
"#*	c #B8851E",
"$*	c #AA7B1B",
"%*	c #9B6F17",
"&*	c #8F6615",
"**	c #866013",
"=*	c #7C5811",
"-*	c #795610",
";*	c #785510",
">*	c #77550F",
",*	c #76540F",
"'*	c #815B11",
")*	c #CA9322",
"!*	c #BB871F",
"~*	c #BF8A20",
"{*	c #BF8A1F",
"]*	c #B1801C",
"^*	c #926915",
"/*	c #876113",
"(*	c #7B5810",
"_*	c #75530F",
":*	c #C58F20",
"<*	c #BB8720",
"[*	c #AC7C1D",
"}*	c #C79121",
"|*	c #A2751B",
"1*	c #C89022",
"2*	c #B07F1F",
"3*	c #B3811F",
"4*	c #C48D21",
"5*	c #B2801E",
"6*	c #C58E21",
"7*	c #C08B21",
"8*	c #C08A21",
"9*	c #7E5A11",
"0*	c #7D5911",
"a*	c #B5821F",
"b*	c #A3761C",
"c*	c #946A1A",
"d*	c #A8791D",
"e*	c #B07F1E",
"f*	c #926815",
"g*	c #916815",
"h*	c #876014",
"i*	c #9A6E17",
"j*	c #A8781A",
"k*	c #BB8620",
"l*	c #C99221",
"m*	c #C28C20",
"n*	c #BE8A1F",
"o*	c #BA871E",
"p*	c #B6831D",
"q*	c #B4821D",
"r*	c #B2811C",
"s*	c #B7831D",
"t*	c #AA7A1B",
"u*	c #BB881F",
"v*	c #C68F21",
"w*	c #B88520",
"x*	c #956B1A",
"y*	c #BC8720",
"z*	c #BA8620",
"A*	c #B9851F",
"B*	c #BA8520",
"C*	c #B88420",
"D*	c #AF7E1E",
"E*	c #825D17",
"F*	c #916919",
"G*	c #946B1A",
"H*	c #A2741C",
"I*	c #7F5A16",
"J*	c #986D1B",
"K*	c #7D5916",
"L*	c #896218",
"        . + @ # # # # # # # # # # # # # # # # # # # # # # # $ % & * $ # # # # # # # = - ;           ",
"      > , ' ) ! ! ! ! ! ! ! ! ! ! ! ! ! ! ! ! ! ! ! ! ! ! ! ~ { ] ! ! ! ! ! ! ! ! ! ! ~ ^ = /       ",
"    ( _ : : : < < [ [ [ [ [ [ [ [ [ [ [ [ [ [ [ [ [ [ [ [ [ } | [ [ [ [ [ [ [ [ [ < : : : 1 2 3     ",
"  > _ : : < 4 5 6 7 8 8 8 8 8 8 8 8 8 8 8 8 8 8 8 8 8 8 8 8 7 8 8 8 8 8 8 8 8 8 9 0 a < : : b c d   ",
"e ] : : < f g h i j k k k k k k k k k k k k k k k k k k k k k k k k k k k k k k l m n o p : : ~ (   ",
"> q : < r s t u v w w w w w w w w w w w w w w w w w w w w w w w w w w w w w w w x y z A B : : : C   ",
"D ! : 4 E F G H I I I I I I I I I I I I I I I I I I I I I I I I I I I I I I I I I J H K L M < : N ; ",
"O 1 < P Q R I I I I I I I I I I I I I I I I I I I I I I I I I I I I I I I I I I I I I H S T 4 : U + ",
"O 1 < V y J I I I I W X I I I I I I I I I I I I I I I I I I I I I I I I I I I I I I I I Y Z f : _ + ",
"O 1 < ` G I I I I  ...+.I I I I I I I I I I I I I I I I I I I I I I I I I I I I I I I I I @.#.: _ + ",
"O 1 < $.W I I I Y %.&.*.=.I I I I I I I I I I I I I I I I -.;.I I I I I I I I >.=.I I I I ,.'.: _ + ",
"O 1 < ).X I I I I  .!.+.I I I I I I I I I I I I I I I I ~.{.].I I I I I I I I ^./.I I I I (._.: _ + ",
"O 1 < :.X I I I I I Y X I I I I I I I I I I I I I I I I I <.[.I I I I I I I I I I I I I I (._.: }.+ ",
"O 1 < :.X I I I I I I I I I I I I I I I I I I I I I I I I W X I I I I I I I I I I I I I W |.1.2.3.4.",
"O 1 < :.X I I I I I I I I I I I I I I I I I I /.5.6.7.8.9.I I I I I I I I I I I I I I I 9.0.a.b.b.c.",
"O 1 < :.X d.e.I I I I I I I I I I I I I I I f.g.h.i.j.k.l.m.n.>.I I I I I I I I I I I I o.p.q.r.s.t.",
"O 1 < :.W u.<.X I I I I I I I I I J v.w.x.y.z.A.B.C.D.E.F.G.H.I.J.n.K.I I I I I I W L.M.N.O.P.Q.R.S.",
"O 1 < :.X I I I I I I I I J v.w.T.U.V.W.W.X.Y.Z.`. +.+++@+#+$+%+&+*+=+-+;+K./.>+,+'+)+!+~+{+]+< ^+/+",
"O 1 < :.X I I I I J v.w.(+U._+W.W.W.W.W.W.:+<+[+}+|+++1+2+3+4+5+6+7+8+9+0+a+b+c+d+e+f+g+h+i+_.: _ + ",
"O 1 < j+X k+v.w.l+U.V.W.m+n+W.W.W.W.W.W.W.o+p+q+r+s+t+u+v+v+v+v+w+4+x+y+z+A+B+C+D+E+F+G+H+(._.: _ + ",
"O 1 1 I+l+J+V.W.W.W.K+L+M+N+W.W.W.W.W.W.n+O+P+Q+R+S+s+T+U+v+v+v+v+v+v+v+v+V+W+X+Y+n.Z+`+ @.@+@: _ + ",
"O 1 b @@#@#@$@$@$@K+%@&@*@W.W.W.W.W.W.W.=@-@;@>@S+,@'@)@'@u+v+v+v+!@!@v+v+v+v+~@{@]@I ^@/@(@_@:@}.+ ",
"O 1 b <@[@}@|@1@2@3@4@5@#@W.W.W.W.W.W.W.6@7@8@9@0@a@b@3+s+c@!@v+3+d@e@f@v+v+v+g@h@i@I I j@k@l@m@n@o@",
"p@q@r@s@t@u@v@w@p.x@y@z@W.W.W.W.W.W.W.W.A@B@C@D@E@F@G@H@I@r+!@U+S+J@K@L@'@v+v+M@N@O@P@Q@R@S@T@U@V@W@",
"X@Y@Z@`@ #.#+#@###$#%#W.W.W.W.W.W.W.W.W.&#*#=#-#;#>#,#'#)#U+v+!#~#{#]#c@^#t+/#(#_#:#W.W.z@<#[#}#|#1#",
"2#3#4#5#6#6#7#7#8#9##@W.W.W.W.#@W.W.W.m+0#a#b#c#d#d#d#e#f#g#h#i#j#k#l#m#n#'@4+o#p#m+W.W.W.q#r#: s#t#",
"u#v#w#x#W.W.W.y#z#A#K+W.W.W.m+B#C#W.W.n+D#E#F#G#H#d#I#J#K#L#M#N#O#P#Q#R#S#T#U#V#W#W.W.W.W.X#Y#: Z#/+",
"`#< b @@W.W.K+ $.$+$W.W.W.W.C#@$#$K+W.W.$$%$&$*$=$-$;$>$b@,$'$)$!$~${$]$^$/$($_$:$W.W.W.W.X#Y#: _ + ",
"O 1 1 @@W.W.#@<$[$}$W.W.W.W.W.m+W.W.W.W.|$1$2$3$4$5$6$7$8$9$0$a$b$d#d#c$d$e$f$g$n+W.W.W.W.X#Y#: _ + ",
"O 1 1 @@W.W.$@h$i$j$W.W.W.W.W.W.W.W.W.W.n+k$l$m$n$o$p$q$r$s$t$u$v$d#d#w$x$y$z$A$W.W.W.W.W.X#Y#: _ + ",
"O 1 1 @@W.K+B$C$D$$@W.W.W.W.W.W.W.W.W.W.C#E$F$G$H$I$J$K$L$M$N$O$P$Q$R$S$T$U$V$W$m+W.W.W.W.X#Y#: _ + ",
"O 1 1 @@K+X$Y$Z$`$ %K+W.W.W.W.W.W.W.W.W.n+.%+%@%#%$%%%&%*%=%-%;%>%,%'%)%!%~%{%]%^%#@W.W.W.X#Y#: _ + ",
"O 1 b /%(%_%:%<%[%}%|%1%2%3%4%W.W.W.W.W.W.5%6%7%8%9%0%a%b%c%d%e%f%g%h%i%j%k%l%m%n%#@W.W.W.X#Y#: _ + ",
"O 1 ' o%p%q%r%s%t%u%v%w%x%y%z%A%B%4%W.W.W.W.W.W.:+.@C%D%E%F%G%H%I%J%K%L%M%:#:#N%m+W.W.W.W.X#Y#: _ + ",
"O%P%Q%R%S%T%U%x%x%x%V%W%X%x%x%x%y%z%A%Y%Z%W.W.W.W.W.`%C# &.&+&@&#&$&%&&&W.W.W.W.W.W.W.W.W.X#Y#: _ + ",
"*&=&-&;&>&U%x%x%x%x%x%x%x%x%x%x%x%x%x%y%z%,&'&)&!&`%4%C#C#~&~&{&]&^&/&m+W.W.W.W.W.W.W.W.K+(&Y#: _ + ",
"_&:&<&[&y%x%x%x%x%x%x%x%x%x%x%x%x%x%}&|&1&2&3&4&5&6&7&8&}@9&0&a&b&q#C#m+W.W.W.W.W.W.:#B$4%c&Y#: _ + ",
"d&e&1 f&g&x%x%x%x%x%x%x%x%x%x%x%}&h&2&i&j&k&l&m&n&o&p&q&r&s&t&u&v&w&x&y&z&)&)&3%'&A&B&C&z%D&E&: _ + ",
"O 1 b F&g&x%x%x%x%x%x%x%x%x%x%G&H&I&J&K&L&M&N&O&P&Q&R&S&T&U&V&W&X&Y&Z&`& *.*x%y%x%x%x%x%x%+*E&: _ + ",
"O 1 b F&g&x%x%x%x%x%x%x%y%x%}&@*#*$*%*&***P&=*-*;*>*,*,*>*;*-*=*'***&*%*$*#*@*}&x%x%x%x%x%+*E&: _ + ",
"O 1 b f&g&x%x%x%x%x%x%)*!*~*|&{*]*K&^*/*P&(*-*,*,*_*_*_*_*,*,*-*(*P&/*^*K&]*{*:*)*x%x%x%x%+*E&: _ + ",
"O 1 : <*x%x%x%x%x%x%x%+*Z#[*}*{*]*K&^*/*P&(*-*,*,*_*_*_*_*,*,*-*(*P&/*^*K&]*#*|*2&y%x%x%x%1*2*: _ + ",
"O 1 : 3*+*x%x%x%x%x%x%x%4*1&}&@*#*$*%*&***P&=*-*;*>*,*,*>*;*-*=*P&**&*%*$*#*~*5*6*x%x%x%y%7*:@: U + ",
"D ! : p 8*y%x%x%x%x%x%x%x%x%x%G&H&I&J&K&L&M&N&O&P&9*0*0*9*0*P&N&M&L&K&J&I&H&G&x%x%x%x%x%+*a*: : b*; ",
"c*d*: : e*4*y%x%x%x%x%x%x%x%x%x%}&h&2&i&j&k&l&m&n&f*g*g*f*g*h*i*j*j&i&2&h&}&x%x%x%x%x%}&k*: : : 2   ",
"d 2.: : : e*8*+*y%g&g&g&g&g&g&g&g&g&x%l*h&m*n*o*p*q*r*r*q*s*t*d&u*h&l*x%g&g&g&g&g&x%v*w*p : : ~ %   ",
"  x*}.: : : p 3*k*y*y*y*y*y*y*y*y*y*y*y*y*y*<*k*z*A*A*A*A*z*B*c*{ y*y*y*y*y*y*y*y*C*D*: : : : , d   ",
"    ( }.: : : : b b b b b b b b b b b b b b b b b b b b b b : $ E*' : b b b b b b : : : : 1 2.F*    ",
"      G*2.d*! 1 1 1 1 1 1 1 1 1 1 1 1 1 1 1 1 1 1 1 1 1 1 1 b H*I*c : 1 1 1 1 1 1 1 1 ) U 3.3       ",
"        d c*D O O O O O O O O O O O O O O O O O O O O O O O O J*K*L*3.O O O O O O O O % o@          "};
