/* XPM */
static char * col5_xpm[] = {
"50 50 780 2",
"  	c None",
". 	c #8E6619",
"+ 	c #936A19",
"@ 	c #976D1A",
"# 	c #996E1B",
"$ 	c #9A6E1B",
"% 	c #976C1A",
"& 	c #886117",
"* 	c #926819",
"= 	c #996E1A",
"- 	c #956C1A",
"; 	c #916819",
"> 	c #946A19",
", 	c #9E721B",
"' 	c #A7781D",
") 	c #AA7A1E",
"! 	c #AA7B1E",
"~ 	c #A97A1D",
"{ 	c #9C701B",
"] 	c #9F721C",
"^ 	c #A4761C",
"/ 	c #906719",
"( 	c #966C1A",
"_ 	c #A6771D",
": 	c #AC7C1E",
"< 	c #AB7B1D",
"[ 	c #AB7A1C",
"} 	c #A6761B",
"| 	c #A5761B",
"1 	c #AB7B1E",
"2 	c #9F721B",
"3 	c #906819",
"4 	c #AD7D1F",
"5 	c #B8892B",
"6 	c #C99D3F",
"7 	c #CEA448",
"8 	c #CFA548",
"9 	c #CEA246",
"0 	c #C29537",
"a 	c #B18224",
"b 	c #AB7C1E",
"c 	c #9D711B",
"d 	c #8F6719",
"e 	c #8F6718",
"f 	c #B48426",
"g 	c #D7AE52",
"h 	c #F0CD73",
"i 	c #F6D176",
"j 	c #F7CF74",
"k 	c #F7CF73",
"l 	c #F7D074",
"m 	c #F5D177",
"n 	c #E8C369",
"o 	c #C5993B",
"p 	c #AD7D1E",
"q 	c #A7791D",
"r 	c #B48526",
"s 	c #E2BB5F",
"t 	c #F5CA6D",
"u 	c #EEB755",
"v 	c #EBAF4B",
"w 	c #EAAD48",
"x 	c #EAAD49",
"y 	c #ECB14E",
"z 	c #F1C060",
"A 	c #F2CC71",
"B 	c #CBA043",
"C 	c #9E721C",
"D 	c #986D1A",
"E 	c #D7AD50",
"F 	c #F2C162",
"G 	c #EAAC47",
"H 	c #E9A944",
"I 	c #E9AA45",
"J 	c #E9AA44",
"K 	c #EDB351",
"L 	c #EEC467",
"M 	c #BE9032",
"N 	c #A3751C",
"O 	c #9A6F1B",
"P 	c #BA8B2D",
"Q 	c #EBBC5D",
"R 	c #EAAC48",
"S 	c #EEB553",
"T 	c #D8AC4E",
"U 	c #A5771D",
"V 	c #CB9B3B",
"W 	c #EAAB45",
"X 	c #EAAA45",
"Y 	c #EAAB46",
"Z 	c #E5B14F",
"` 	c #CD9938",
" .	c #E2A541",
"..	c #C48E33",
"+.	c #D69C3C",
"@.	c #E5AB47",
"#.	c #B58425",
"$.	c #CB9431",
"%.	c #D19839",
"&.	c #92691B",
"*.	c #B5832C",
"=.	c #E8A944",
"-.	c #E0A340",
";.	c #E1A441",
">.	c #E7A944",
",.	c #E3A640",
"'.	c #B48223",
").	c #CB922F",
"!.	c #C38E32",
"~.	c #E8AA45",
"{.	c #BA872E",
"].	c #BE8A30",
"^.	c #E4A642",
"/.	c #E6A844",
"(.	c #E3A53F",
"_.	c #B48222",
":.	c #CB9230",
"<.	c #DDA13F",
"[.	c #DEA23F",
"}.	c #A6781D",
"|.	c #DEA13E",
"1.	c #A77820",
"2.	c #A0731C",
"3.	c #9B6F1B",
"4.	c #8C6518",
"5.	c #E7A844",
"6.	c #AD7D2C",
"7.	c #7D5A18",
"8.	c #7C5918",
"9.	c #7C5A19",
"0.	c #E6A843",
"a.	c #E5A743",
"b.	c #BE8A33",
"c.	c #99762F",
"d.	c #B59346",
"e.	c #B69446",
"f.	c #B49346",
"g.	c #B19044",
"h.	c #DEA13F",
"i.	c #E8A840",
"j.	c #E8A73B",
"k.	c #E7A538",
"l.	c #E8A73D",
"m.	c #E9A943",
"n.	c #D49B41",
"o.	c #B78D50",
"p.	c #B68C50",
"q.	c #CC9641",
"r.	c #E1A442",
"s.	c #EBAB46",
"t.	c #CE963A",
"u.	c #98722B",
"v.	c #CFA249",
"w.	c #BE8E2F",
"x.	c #B5882A",
"y.	c #B08429",
"z.	c #9F7826",
"A.	c #E7A536",
"B.	c #E6A330",
"C.	c #E6A12C",
"D.	c #E5A029",
"E.	c #E5A12A",
"F.	c #E6A32F",
"G.	c #CE9437",
"H.	c #B8AB96",
"I.	c #ECEAE4",
"J.	c #EEEADF",
"K.	c #CFC5A9",
"L.	c #B29C7A",
"M.	c #B88D4E",
"N.	c #D2993F",
"O.	c #E8A945",
"P.	c #E4A643",
"Q.	c #E0A341",
"R.	c #DA9E3E",
"S.	c #CD9438",
"T.	c #9B7229",
"U.	c #C59B48",
"V.	c #E5A944",
"W.	c #B38121",
"X.	c #A5761C",
"Y.	c #926918",
"Z.	c #E7A535",
"`.	c #E5A12C",
" +	c #E29E28",
".+	c #AF8C5D",
"++	c #F1F0E8",
"@+	c #FFFFFF",
"#+	c #FFFCEC",
"$+	c #FDF9EF",
"%+	c #E8E0C7",
"&+	c #C5B795",
"*+	c #B19469",
"=+	c #BF8F47",
"-+	c #D99E40",
";+	c #E0A645",
">+	c #CF9C42",
",+	c #BE913D",
"'+	c #B1883A",
")+	c #A78137",
"!+	c #96732D",
"~+	c #916D29",
"{+	c #DFA747",
"]+	c #E4A53F",
"^+	c #CB9330",
"/+	c #E9AA43",
"(+	c #E7A435",
"_+	c #E49F29",
":+	c #E39F29",
"<+	c #D39429",
"[+	c #BCAE8D",
"}+	c #FFFBEB",
"|+	c #FFFEFB",
"1+	c #FFF7E0",
"2+	c #FFF8E3",
"3+	c #FFF5D4",
"4+	c #FFF4CC",
"5+	c #F9EDC7",
"6+	c #DFD4B2",
"7+	c #BCAC8A",
"8+	c #B18F5E",
"9+	c #C69242",
"0+	c #DEA241",
"a+	c #E9AC48",
"b+	c #E9AE4C",
"c+	c #E6AE4D",
"d+	c #E4AF50",
"e+	c #E0B055",
"f+	c #A58137",
"g+	c #B88631",
"h+	c #C8902A",
"i+	c #E6A230",
"j+	c #E6A029",
"k+	c #DE9C28",
"l+	c #D4992F",
"m+	c #E19F2C",
"n+	c #BB893D",
"o+	c #DDD4B1",
"p+	c #FFF4D1",
"q+	c #FFF7DF",
"r+	c #FFF6DA",
"s+	c #FFF2CC",
"t+	c #FFF2CA",
"u+	c #FFF2CB",
"v+	c #FFF3CC",
"w+	c #F4E8C2",
"x+	c #D7CAA8",
"y+	c #B6A37E",
"z+	c #B48D53",
"A+	c #CD9640",
"B+	c #E3A543",
"C+	c #EBAC46",
"D+	c #DAA84D",
"E+	c #A07930",
"F+	c #D19737",
"G+	c #B58223",
"H+	c #C58C23",
"I+	c #E6A129",
"J+	c #E7A129",
"K+	c #D09226",
"L+	c #BF8C2E",
"M+	c #DB9F31",
"N+	c #DF9C28",
"O+	c #AF9267",
"P+	c #F7EDC7",
"Q+	c #FFF3D0",
"R+	c #FFF5D8",
"S+	c #FFF3CB",
"T+	c #FFF4CD",
"U+	c #EEE2BE",
"V+	c #CCBF9E",
"W+	c #AD9268",
"X+	c #D29A41",
"Y+	c #EBAD49",
"Z+	c #C79B48",
"`+	c #AB7D2C",
" @	c #B17F21",
".@	c #AD7C1E",
"+@	c #BA8320",
"@@	c #CE8F23",
"#@	c #CB8D23",
"$@	c #C98C22",
"%@	c #C68A22",
"&@	c #C58A23",
"*@	c #B58022",
"=@	c #B18632",
"-@	c #DCA135",
";@	c #CE912D",
">@	c #C4B897",
",@	c #FFF7D8",
"'@	c #FFF7DE",
")@	c #FFF8E2",
"!@	c #FFF9E8",
"~@	c #FFF5D7",
"{@	c #F4E8C3",
"]@	c #AD936A",
"^@	c #E8AF4D",
"/@	c #B28B3D",
"(@	c #8A641A",
"_@	c #976C19",
":@	c #9E711B",
"<@	c #926919",
"[@	c #9B701B",
"}@	c #A6771C",
"|@	c #956B1B",
"1@	c #977128",
"2@	c #A17D33",
"3@	c #A38036",
"4@	c #A68439",
"5@	c #AC883D",
"6@	c #9D792F",
"7@	c #DFA63B",
"8@	c #E6A12A",
"9@	c #B68847",
"0@	c #E6DFBE",
"a@	c #FFF6D6",
"b@	c #FFF5CD",
"c@	c #FFF5CB",
"d@	c #FFF3D2",
"e@	c #FFF8E4",
"f@	c #FFF5CE",
"g@	c #C1B391",
"h@	c #D39734",
"i@	c #E8A63A",
"j@	c #E8A73C",
"k@	c #E9A83E",
"l@	c #E0AB49",
"m@	c #B28F43",
"n@	c #93722E",
"o@	c #825F1C",
"p@	c #7D5A16",
"q@	c #8A6317",
"r@	c #8E6921",
"s@	c #AA883E",
"t@	c #D1A64A",
"u@	c #E6B149",
"v@	c #E9B247",
"w@	c #EBB144",
"x@	c #ECB041",
"y@	c #B88B33",
"z@	c #BC8B2E",
"A@	c #E8A32B",
"B@	c #DB9928",
"C@	c #B29B74",
"D@	c #FCF2CA",
"E@	c #F2E0A6",
"F@	c #BBAA6B",
"G@	c #B09F61",
"H@	c #E2D192",
"I@	c #FFF1C4",
"J@	c #FFF5D6",
"K@	c #FFF3CE",
"L@	c #FFF4D2",
"M@	c #B8A783",
"N@	c #D79627",
"O@	c #DE9D2B",
"P@	c #BF9030",
"Q@	c #C29A41",
"R@	c #BB9848",
"S@	c #AA8A40",
"T@	c #9D7C35",
"U@	c #BC9947",
"V@	c #BB9035",
"W@	c #C78E25",
"X@	c #E59F28",
"Y@	c #E59F27",
"Z@	c #AE7D25",
"`@	c #C7912E",
" #	c #C78D31",
".#	c #CEC4A3",
"+#	c #EDDEA1",
"@#	c #625626",
"##	c #0C0A01",
"$#	c #070500",
"%#	c #383011",
"&#	c #CCBC7A",
"*#	c #FFF4D3",
"=#	c #FFF6DD",
"-#	c #F2E8C2",
";#	c #AF8A56",
">#	c #E39E28",
",#	c #DC9A27",
"'#	c #B17F1E",
")#	c #AD7F24",
"!#	c #A57F2C",
"~#	c #B7913C",
"{#	c #B28326",
"]#	c #AA7B1D",
"^#	c #C58B23",
"/#	c #E19E29",
"(#	c #A97B26",
"_#	c #D59B30",
":#	c #D79726",
"<#	c #E19D28",
"[#	c #B3894C",
"}#	c #EEE6BD",
"|#	c #A29557",
"1#	c #060400",
"2#	c #000000",
"3#	c #685D2B",
"4#	c #FAECB8",
"5#	c #FFF2CD",
"6#	c #FFF5D5",
"7#	c #FFF5D0",
"8#	c #FFF6CC",
"9#	c #FFF3CF",
"0#	c #D3C8A7",
"a#	c #C38B32",
"b#	c #DC9B27",
"c#	c #B2801F",
"d#	c #A5771C",
"e#	c #9A6F1A",
"f#	c #DB9B2A",
"g#	c #AA7E2A",
"h#	c #DE9E2C",
"i#	c #BF8722",
"j#	c #DA9927",
"k#	c #B08A53",
"l#	c #F2EBBE",
"m#	c #857B44",
"n#	c #4B421C",
"o#	c #F2E5AC",
"p#	c #FBEBB6",
"q#	c #CDBB7A",
"r#	c #B2A161",
"s#	c #D7C584",
"t#	c #FEEEBE",
"u#	c #FFF6DC",
"v#	c #FEF2CA",
"w#	c #B59F79",
"x#	c #DA9827",
"y#	c #D59627",
"z#	c #B0842F",
"A#	c #E2A02B",
"B#	c #C18B39",
"C#	c #D0C5A2",
"D#	c #BEB06D",
"E#	c #161203",
"F#	c #020100",
"G#	c #85793F",
"H#	c #FDF0BF",
"I#	c #FAECB7",
"J#	c #8E7F43",
"K#	c #181404",
"L#	c #030200",
"M#	c #231D08",
"N#	c #AC9B5A",
"O#	c #FFEFBD",
"P#	c #F1E0A3",
"Q#	c #B98E49",
"R#	c #CC9026",
"S#	c #BA882C",
"T#	c #E6A22B",
"U#	c #E19D29",
"V#	c #AF8647",
"W#	c #E5D58E",
"X#	c #A08D44",
"Y#	c #3A3212",
"Z#	c #30290E",
"`#	c #796B32",
" $	c #EADA9C",
".$	c #FFF4CB",
"+$	c #CFC17F",
"@$	c #1E1906",
"#$	c #393211",
"$$	c #E9D27D",
"%$	c #FFEA9E",
"&$	c #D5C07E",
"*$	c #CB902E",
"=$	c #E39F28",
"-$	c #B28025",
";$	c #BD8828",
">$	c #B9914C",
",$	c #F4DF93",
"'$	c #FFE691",
")$	c #EED47A",
"!$	c #E9CF75",
"~$	c #FDE390",
"{$	c #FFEAA2",
"]$	c #FBE498",
"^$	c #FFECA3",
"/$	c #B8A85A",
"($	c #0B0901",
"_$	c #221D08",
":$	c #D8C26B",
"<$	c #FEE798",
"[$	c #BB9D5F",
"}$	c #DF9C27",
"|$	c #B27E22",
"1$	c #A98539",
"2$	c #B58A35",
"3$	c #D49527",
"4$	c #DF9B28",
"5$	c #BEA061",
"6$	c #FEE697",
"7$	c #FFE799",
"8$	c #FFE899",
"9$	c #D4BE6A",
"0$	c #60531F",
"a$	c #E2CB71",
"b$	c #342D0E",
"c$	c #53481B",
"d$	c #F2DA81",
"e$	c #EBD78F",
"f$	c #B2863D",
"g$	c #A9781E",
"h$	c #CB8F24",
"i$	c #C68C23",
"j$	c #D89726",
"k$	c #A87823",
"l$	c #B58F3F",
"m$	c #E3AC41",
"n$	c #DBA63E",
"o$	c #C19235",
"p$	c #D49627",
"q$	c #DB9B26",
"r$	c #D99A26",
"s$	c #DD9C27",
"t$	c #E39E29",
"u$	c #B88E47",
"v$	c #E4D28B",
"w$	c #C5AE72",
"x$	c #BDA266",
"y$	c #EFD88F",
"z$	c #FFE999",
"A$	c #DAC36F",
"B$	c #6E5F27",
"C$	c #D7C06C",
"D$	c #FFE794",
"E$	c #BCA654",
"F$	c #453C16",
"G$	c #28220B",
"H$	c #594D1D",
"I$	c #D4BD65",
"J$	c #FFE997",
"K$	c #C9B374",
"L$	c #C18828",
"M$	c #A4751D",
"N$	c #C88D24",
"O$	c #AE7C1D",
"P$	c #A07524",
"Q$	c #B89341",
"R$	c #D6A237",
"S$	c #D29623",
"T$	c #D09623",
"U$	c #CD992D",
"V$	c #C1912E",
"W$	c #C79225",
"X$	c #CB9322",
"Y$	c #CC9322",
"Z$	c #CF9523",
"`$	c #D59824",
" %	c #DC9C26",
".%	c #DC9A29",
"+%	c #B9893B",
"@%	c #BE8932",
"#%	c #C1882A",
"$%	c #CFBE7E",
"%%	c #EAD68D",
"&%	c #C6AF70",
"*%	c #E7CF80",
"=%	c #FEE695",
"-%	c #FFE895",
";%	c #F3D87F",
">%	c #E5CB73",
",%	c #F1D881",
"'%	c #F1D98E",
")%	c #D5C17F",
"!%	c #BB8C40",
"~%	c #E29E29",
"{%	c #E09C28",
"]%	c #855F16",
"^%	c #876018",
"/%	c #85601A",
"(%	c #906E28",
"_%	c #BF9943",
":%	c #D29E32",
"<%	c #CB9321",
"[%	c #CB9425",
"}%	c #C89428",
"|%	c #CB9323",
"1%	c #DC9B26",
"2%	c #E19E28",
"3%	c #D5952A",
"4%	c #B88F4A",
"5%	c #AB8B4E",
"6%	c #C58A28",
"7%	c #B0975D",
"8%	c #F3DF94",
"9%	c #D5BF7E",
"0%	c #EFD78E",
"a%	c #FFE698",
"b%	c #C5AF71",
"c%	c #BC8D43",
"d%	c #C98F30",
"e%	c #9C7C36",
"f%	c #AC8C41",
"g%	c #BC9A4B",
"h%	c #CCA347",
"i%	c #D09B2D",
"j%	c #CA9222",
"k%	c #C99121",
"l%	c #C89022",
"m%	c #CA9122",
"n%	c #CE9223",
"o%	c #D19224",
"p%	c #D09225",
"q%	c #D09024",
"r%	c #CA8D23",
"s%	c #C98C23",
"t%	c #A78141",
"u%	c #A79159",
"v%	c #B17E2B",
"w%	c #A8894F",
"x%	c #F2DE92",
"y%	c #EDD990",
"z%	c #B98D44",
"A%	c #DD9B27",
"B%	c #B6903B",
"C%	c #BA8E32",
"D%	c #B28426",
"E%	c #C08B22",
"F%	c #C79021",
"G%	c #C18C20",
"H%	c #BA861E",
"I%	c #B17F1C",
"J%	c #A7781A",
"K%	c #9F7318",
"L%	c #996E17",
"M%	c #956B16",
"N%	c #966A16",
"O%	c #936716",
"P%	c #8B6016",
"Q%	c #9C6C18",
"R%	c #A4711A",
"S%	c #A2701B",
"T%	c #AF791D",
"U%	c #926F36",
"V%	c #AE9A62",
"W%	c #AA8A4F",
"X%	c #CD8F27",
"Y%	c #E09D28",
"Z%	c #E4A029",
"`%	c #D99926",
" &	c #996D19",
".&	c #AA7A1D",
"+&	c #BE8920",
"@&	c #CC9422",
"#&	c #BF8A1F",
"$&	c #B3811D",
"%&	c #A5771A",
"&&	c #976D17",
"*&	c #8B6314",
"=&	c #805B11",
"-&	c #795610",
";&	c #73520E",
">&	c #6E4E0D",
",&	c #6D4D0D",
"'&	c #5D420B",
")&	c #4B3408",
"!&	c #61430B",
"~&	c #775310",
"{&	c #805812",
"]&	c #885D14",
"^&	c #8D6115",
"/&	c #946617",
"(&	c #A8741B",
"_&	c #BB821F",
":&	c #D59525",
"<&	c #DA9A26",
"[&	c #D69925",
"}&	c #D49724",
"|&	c #D19624",
"1&	c #CB9222",
"2&	c #B17F1F",
"3&	c #BE8921",
"4&	c #C48E21",
"5&	c #A8791A",
"6&	c #976C16",
"7&	c #876013",
"8&	c #71500E",
"9&	c #6A4B0C",
"0&	c #64460B",
"a&	c #61440B",
"b&	c #5F430A",
"c&	c #5E420A",
"d&	c #563D09",
"e&	c #4B3407",
"f&	c #573D09",
"g&	c #60430A",
"h&	c #62450B",
"i&	c #68480C",
"j&	c #724F0F",
"k&	c #7B5511",
"l&	c #835B12",
"m&	c #8F6415",
"n&	c #9E6F18",
"o&	c #AD7C1C",
"p&	c #BD881F",
"q&	c #C68F21",
"r&	c #C99122",
"s&	c #C78F21",
"t&	c #BB871E",
"u&	c #A97A1B",
"v&	c #825D12",
"w&	c #74520F",
"x&	c #5C410A",
"y&	c #5B4009",
"z&	c #593F09",
"A&	c #593E09",
"B&	c #C99222",
"C&	c #A9791B",
"D&	c #6C4C0D",
"E&	c #65470B",
"F&	c #5A3F09",
"G&	c #583E09",
"H&	c #573D08",
"I&	c #C08B1F",
"J&	c #BB8720",
"K&	c #9E721A",
"L&	c #986D18",
"M&	c #AC7C1C",
"N&	c #C08A20",
"O&	c #B07F1F",
"P&	c #B3811F",
"Q&	c #BF8920",
"R&	c #B5831D",
"S&	c #B6831D",
"T&	c #AF7E1D",
"U&	c #C58E21",
"V&	c #C08B21",
"W&	c #C08A21",
"X&	c #5D420A",
"Y&	c #B5821F",
"Z&	c #A3761C",
"`&	c #946A1A",
" *	c #A8791D",
".*	c #B07F1E",
"+*	c #C48D21",
"@*	c #70500E",
"#*	c #6A4B0D",
"$*	c #7C5811",
"%*	c #8C6314",
"&*	c #BB8620",
"**	c #C89121",
"=*	c #C28D20",
"-*	c #B2801C",
";*	c #A7791A",
">*	c #A07318",
",*	c #9A6F17",
"'*	c #936A16",
")*	c #906815",
"!*	c #8D6514",
"~*	c #9B6F17",
"{*	c #926816",
"]*	c #865F15",
"^*	c #AB7C1B",
"/*	c #B88520",
"(*	c #956B1A",
"_*	c #BC8720",
":*	c #B9851F",
"<*	c #B6831F",
"[*	c #B3801E",
"}*	c #B17F1D",
"|*	c #AE7D1D",
"1*	c #AC7B1C",
"2*	c #AA7A1C",
"3*	c #B2801E",
"4*	c #906619",
"5*	c #9A6E1A",
"6*	c #B88420",
"7*	c #AF7E1E",
"8*	c #825D17",
"9*	c #916919",
"0*	c #946B1A",
"a*	c #A2741C",
"b*	c #7F5A16",
"c*	c #986D1B",
"d*	c #7D5916",
"e*	c #896218",
"        . + @ # # # # # # # # # # # # # # # # # # # # # # # $ % & * $ # # # # # # # = - ;           ",
"      > , ' ) ! ! ! ! ! ! ! ! ! ! ! ! ! ! ! ! ! ! ! ! ! ! ! ~ { ] ! ! ! ! ! ! ! ! ! ! ~ ^ = /       ",
"    ( _ : : : < < [ [ [ [ [ [ [ [ [ [ [ [ [ [ [ [ [ [ [ [ [ } | [ [ [ [ [ [ [ [ [ < : : : 1 2 3     ",
"  > _ : : < 4 5 6 7 8 8 8 8 8 8 8 8 8 8 8 8 8 8 8 8 8 8 8 8 7 8 8 8 8 8 8 8 8 8 9 0 a < : : b c d   ",
"e ] : : < f g h i j k k k k k k k k k k k k k k k k k k k k k k k k k k k k k k l m n o p : : ~ (   ",
"> q : < r s t u v w w w w w w w w w w w w w w w w w w w w w w w w w w w w w w w x y z A B : : : C   ",
"D ! : 4 E F G H I I I I I I I I I I I I I I I I I I I I I I I I I I I I I I I I I J H K L M < : N ; ",
"O 1 < P Q R I I I I I I I I I I I I I I I I I I I I I I I I I I I I I I I I I I I I I H S T 4 : U + ",
"O 1 < V y J I I I I W X I I I I I I I I I I I I I I I I I I I I I I I I I I I I I I I I Y Z f : _ + ",
"O 1 < ` G I I I I  ...+.I I I I I I I I I I I I I I I I I I I I I I I I I I I I I I I I I @.#.: _ + ",
"O 1 < $.W I I I Y %.&.*.=.I I I I I I I I I I I I I I I I -.;.I I I I I I I I >.=.I I I I ,.'.: _ + ",
"O 1 < ).X I I I I  .!.+.I I I I I I I I I I I I I I I I ~.{.].I I I I I I I I ^./.I I I I (._.: _ + ",
"O 1 < :.X I I I I I Y X I I I I I I I I I I I I I I I I I <.[.I I I I I I I I I I I I I I (._.: }.+ ",
"O 1 < :.X I I I I I I I I I I I I I I I I I I I I I I I I W X I I I I I I I I I I I I I W |.1.2.3.4.",
"O 1 < :.X I I I I I I I I I I I I I I I I I I I I I I I I I I I I I I I I I I I I I I I 5.6.7.8.8.9.",
"O 1 < :.X 0.a.I I I I I I I I I I I I I I I I I I I I I I I I I I I I I I I I I I I I I b.c.d.e.f.g.",
"O 1 < :.W h.<.X I I I I I I I I I J i.j.k.l.m.I n.o.p.q.r.I I I I I I I I I I I I W s.t.u.v.w.x.y.z.",
"O 1 < :.X I I I I I I I I J i.j.A.B.C.D.D.E.F.G.H.I.J.K.L.M.N.a.I I I I I O./.P.Q.R.S.T.U.V.W.< X.Y.",
"O 1 < :.X I I I I J i.j.Z.B.`.D.D.D.D.D.D.D. +.+++@+@+#+$+%+&+*+=+-+5.I I ;+>+,+'+)+!+~+{+]+_.: _ + ",
"O 1 < ^+X /+i.j.(+B.C.D._+:+D.D.D.D.D.D.D.D.<+[+}+@+|+1+2+3+4+5+6+7+8+9+0+I a+b+c+d+e+f+g+(._.: _ + ",
"O 1 1 h+(+i+C.D.D.D.j+k+l+m+D.D.D.D.D.D.D.D.n+o+p+q+r+s+t+u+u+u+4+v+w+x+y+z+A+B+J I C+D+E+F+G+: _ + ",
"O 1 b H+I+I+J+J+J+j+K+L+M+D.D.D.D.D.D.D.D.N+O+P+Q+R+R+Q+u+u+u+u+u+u+S+T+u+U+V+W+X+I I Y+Z+`+ @.@}.+ ",
"O 1 b +@@@#@$@%@&@*@=@-@I+D.D.D.D.D.D.D.D.;@>@,@1+'@)@!@~@u+u+u+u+u+u+u+u+v+T+{@]@r.I I ^@/@(@_@:@<@",
"[@}@|@1@2@3@4@5@c.6@7@8@D.D.D.D.D.D.D.D.D.9@0@a@b@c@4+d@e@Q+u+u+u+t+t+u+u+u+u+f@g@h@i@j@k@l@m@n@o@p@",
"q@r@s@t@u@v@w@x@y@z@A@D.D.D.D.D.D.D.D.D.B@C@D@E@F@G@H@I@J@~@t+u+K@R+r+L@u+u+u+4+M@N@D.D.8@O@P@Q@R@S@",
"T@U@V@W@X@X@Y@Y@Z@`@I+D.D.D.D.I+D.D.D.D. #.#+#@###$#%#&#T+*#t+L@q+'@1+!@=#u+u+-#;#>#D.D.D.,#'#: )#!#",
"~#{#]#^#D.D.D./#(#_#j+D.D.D._+:#<#D.D._+[#}#|#1#2#2#2#3#4#5#s+6#7#8#4+9#2+J@4+0#a#D.D.D.D.b#c#: d#Y.",
"e#< b H+D.D.j+f#g#h#D.D.D.D.<#i#j#j+D.:+k#l#m#2#2#2#2#n#o#s+v+p#q#r#s#t#L@u#v#w#x#D.D.D.D.b#c#: _ + ",
"O 1 1 H+D.D.I+y#z#A#D.D.D.D.D._+D.D.D.D.B#C#D#E#2#2#F#G#H#s+I#J#K#L#M#N#O#I@P#Q#_+D.D.D.D.b#c#: _ + ",
"O 1 1 H+D.D.J+R#S#T#D.D.D.D.D.D.D.D.D.D.U#V#W#X#Y#Z#`# $t+.$+$@$2#2#2##$$$%$&$*$D.D.D.D.D.b#c#: _ + ",
"O 1 1 H+D.j+=$-$;$J+D.D.D.D.D.D.D.D.D.D.:+>$,$'$)$!$~${$]$^$/$($2#2#2#_$:$<$[$x#_+D.D.D.D.b#c#: _ + ",
"O 1 1 H+j+}$|$1$2$3$j+D.D.D.D.D.D.D.D.D.4$5$<$6$7$8$8$9$0$9$a$b$2#2#2#c$d$e$f$g$h$I+D.D.D.b#c#: _ + ",
"O 1 b i$j$k$l$m$n$o$p$q$r$s$ +D.D.D.D.D.t$u$v$w$x$y$z$A$B$C$D$E$F$G$H$I$J$K$L$M$N$I+D.D.D.b#c#: _ + ",
"O 1 ' O$P$Q$R$S$T$U$V$W$X$Y$Z$`$ % +D.D.D..%+%@%#%$%%%&%*%=%8$-%;%>%,%'%)%!%~%{%_+D.D.D.D.b#c#: _ + ",
"]%^%/%(%_%:%<%X$X$X$[%}%|%X$X$X$Y$Z$`$1%2%D.D._+3%4%5%6%7%8%9%0%a%8$b%c%d%<#D.D.D.D.D.D.D.b#c#: _ + ",
"e%f%g%h%i%<%X$X$X$X$X$X$X$X$X$X$X$X$j%k%l%m%n%o%p%q%r%s%t%u%v%w%x%y%z%D.D.D.D.D.D.D.D.D.j+A%c#: _ + ",
"B%C%D%E%Y$X$X$X$X$X$X$X$X$X$X$j%F%G%H%I%J%K%L%M%N%O%P%Q%R%S%T%U%V%W%X%Y%_+D.D.D.D.D.Z%=$ +`%c#: _ + ",
" &.&1 +&@&X$X$X$X$X$X$X$X$j%F%#&$&%&&&*&=&-&;&>&,&'&)&!&~&{&]&^&/&(&_&r%:&A%N+s$<&[&}&|&Z$1&2&: _ + ",
"O 1 b 3&@&X$X$X$X$X$X$X$j%4&H%5&6&7&-&8&9&0&a&b&c&d&e&f&g&h&i&j&k&l&m&n&o&p&q&1&X$X$X$X$X$r&2&: _ + ",
"O 1 b 3&@&X$X$X$X$X$X$X$s&t&u&M%v&w&9&0&b&x&y&z&z&z&A&z&z&y&x&b&0&9&w&v&M%u&t&q&X$X$X$X$X$r&2&: _ + ",
"O 1 b +&@&X$X$X$X$X$X$B&$&C&K%*&-&D&E&b&y&F&G&G&H&H&H&H&G&G&F&y&b&E&D&-&*&K%$&I&B&X$X$X$X$r&2&: _ + ",
"O 1 : J&X$X$X$X$X$X$X$l%K&L&K%*&-&D&E&b&y&F&G&G&H&H&H&H&G&G&F&y&b&E&D&-&*&K%M&K&N&Y$X$X$X$l%O&: _ + ",
"O 1 : P&r&X$X$X$X$X$X$X$Q&R&u&M%v&w&9&0&b&x&y&z&z&z&z&z&z&y&x&b&0&9&w&v&M%u&S&T&U&X$X$X$Y$V&.@: U + ",
"D ! : p W&Y$X$X$X$X$X$X$j%4&H%5&6&7&-&8&9&0&a&b&c&X&X&c&b&b&h&9&8&-&7&6&5&H%4&j%X$X$X$X$r&Y&: : Z&; ",
"`& *: : .*+*Y$X$X$X$X$X$X$j%F%#&$&%&&&*&=&-&;&>&,&D&D&,&>&@*#*$*%*&&%&$&#&F%j%X$X$X$X$j%&*: : : 2   ",
"d 2.: : : .*W&r&Y$@&@&@&@&@&@&X$**=*t&-*;*>*,*'*)*!*!*)*'*~*{*]*^*t&=***X$@&@&@&@&X$q&/*p : : ~ %   ",
"  (*}.: : : p P&&*_*_*_*_*_*_*_*_*_*&*:*<*[*}*|*1*2*2*1*|*}*3*4*5*&*_*_*_*_*_*_*_*6*7*: : : : , d   ",
"    ( }.: : : : b b b b b b b b b b b b b b b b b b b b b b : $ 8*' : b b b b b b : : : : 1 2.9*    ",
"      0*2. *! 1 1 1 1 1 1 1 1 1 1 1 1 1 1 1 1 1 1 1 1 1 1 1 b a*b*c : 1 1 1 1 1 1 1 1 ) U 3.3       ",
"        d `&D O O O O O O O O O O O O O O O O O O O O O O O O c*d*e*3.O O O O O O O O % <@          "};
