/* XPM */
static char * col3_xpm[] = {
"50 50 791 2",
"  	c None",
". 	c #8E6619",
"+ 	c #936A19",
"@ 	c #976D1A",
"# 	c #996E1B",
"$ 	c #9A6E1B",
"% 	c #976C1A",
"& 	c #886117",
"* 	c #926819",
"= 	c #996E1A",
"- 	c #956C1A",
"; 	c #916819",
"> 	c #946A19",
", 	c #9E721B",
"' 	c #A7781D",
") 	c #AA7A1E",
"! 	c #AA7B1E",
"~ 	c #A97A1D",
"{ 	c #9C701B",
"] 	c #9F721C",
"^ 	c #A4761C",
"/ 	c #906719",
"( 	c #966C1A",
"_ 	c #A6771D",
": 	c #AC7C1E",
"< 	c #AB7B1D",
"[ 	c #AB7A1C",
"} 	c #A6761B",
"| 	c #A5761B",
"1 	c #AB7B1E",
"2 	c #9F721B",
"3 	c #906819",
"4 	c #AD7D1F",
"5 	c #B8892B",
"6 	c #C99D3F",
"7 	c #CEA448",
"8 	c #CFA548",
"9 	c #CEA246",
"0 	c #C29537",
"a 	c #B18224",
"b 	c #AB7C1E",
"c 	c #9D711B",
"d 	c #8F6719",
"e 	c #8F6718",
"f 	c #B48426",
"g 	c #D7AE52",
"h 	c #F0CD73",
"i 	c #F6D176",
"j 	c #F7CF74",
"k 	c #F7CF73",
"l 	c #F7D074",
"m 	c #F5D177",
"n 	c #E8C369",
"o 	c #C5993B",
"p 	c #AD7D1E",
"q 	c #A7791D",
"r 	c #B48526",
"s 	c #E2BB5F",
"t 	c #F5CA6D",
"u 	c #EEB755",
"v 	c #EBAF4B",
"w 	c #EAAD48",
"x 	c #EAAD49",
"y 	c #ECB14E",
"z 	c #F1C060",
"A 	c #F2CC71",
"B 	c #CBA043",
"C 	c #9E721C",
"D 	c #986D1A",
"E 	c #D7AD50",
"F 	c #F2C162",
"G 	c #EAAC47",
"H 	c #E9A944",
"I 	c #E9AA45",
"J 	c #E9AA44",
"K 	c #EDB351",
"L 	c #EEC467",
"M 	c #BE9032",
"N 	c #A3751C",
"O 	c #9A6F1B",
"P 	c #BA8B2D",
"Q 	c #EBBC5D",
"R 	c #EAAC48",
"S 	c #EEB553",
"T 	c #D8AC4E",
"U 	c #A5771D",
"V 	c #CB9B3B",
"W 	c #EAAB45",
"X 	c #EAAA45",
"Y 	c #EAAB46",
"Z 	c #E5B14F",
"` 	c #CD9938",
" .	c #E2A541",
"..	c #C48E33",
"+.	c #D69C3C",
"@.	c #E5AB47",
"#.	c #B58425",
"$.	c #CB9431",
"%.	c #D19839",
"&.	c #92691B",
"*.	c #B5832C",
"=.	c #E8A944",
"-.	c #E0A340",
";.	c #E1A441",
">.	c #E7A944",
",.	c #E3A640",
"'.	c #B48223",
").	c #CB922F",
"!.	c #C38E32",
"~.	c #E8AA45",
"{.	c #BA872E",
"].	c #BE8A30",
"^.	c #E4A642",
"/.	c #E6A844",
"(.	c #E3A53F",
"_.	c #B48222",
":.	c #CB9230",
"<.	c #DDA13F",
"[.	c #DEA23F",
"}.	c #A6781D",
"|.	c #E4A644",
"1.	c #D9A149",
"2.	c #D49E4A",
"3.	c #D99F43",
"4.	c #E4A643",
"5.	c #DEA13E",
"6.	c #A77820",
"7.	c #A0731C",
"8.	c #9B6F1B",
"9.	c #8C6518",
"0.	c #D0A05E",
"a.	c #CBB396",
"b.	c #D1BEA5",
"c.	c #CFB48C",
"d.	c #C6A36F",
"e.	c #C69751",
"f.	c #D49B42",
"g.	c #E3A543",
"h.	c #E8A945",
"i.	c #E7A945",
"j.	c #E7A844",
"k.	c #AD7D2C",
"l.	c #7D5A18",
"m.	c #7C5918",
"n.	c #7C5A19",
"o.	c #E6A843",
"p.	c #E5A743",
"q.	c #D29B47",
"r.	c #C9B8A1",
"s.	c #ECE9E4",
"t.	c #F5F4EE",
"u.	c #EDE8D9",
"v.	c #E7E0D0",
"w.	c #E0D3BA",
"x.	c #CEBB97",
"y.	c #BA9E72",
"z.	c #BC9152",
"A.	c #D29E4F",
"B.	c #DBA34D",
"C.	c #DEA347",
"D.	c #E3A644",
"E.	c #BE8A33",
"F.	c #99762F",
"G.	c #B59346",
"H.	c #B69446",
"I.	c #B49346",
"J.	c #B19044",
"K.	c #DEA13F",
"L.	c #E8A840",
"M.	c #E8A73B",
"N.	c #E7A538",
"O.	c #E5A53C",
"P.	c #C39B60",
"Q.	c #E4DDCE",
"R.	c #FCFCF8",
"S.	c #FFFFFE",
"T.	c #FFFBED",
"U.	c #FEF9E7",
"V.	c #FBF2D8",
"W.	c #F8EDC8",
"X.	c #F6EAC3",
"Y.	c #E8DDBA",
"Z.	c #CFC19E",
"`.	c #C4AE86",
" +	c #CAA876",
".+	c #CFA568",
"++	c #D09F56",
"@+	c #D59D47",
"#+	c #E0A343",
"$+	c #EBAB46",
"%+	c #CE963A",
"&+	c #98722B",
"*+	c #CFA249",
"=+	c #BE8E2F",
"-+	c #B5882A",
";+	c #B08429",
">+	c #9F7826",
",+	c #E7A536",
"'+	c #E6A330",
")+	c #E6A12C",
"!+	c #E5A029",
"~+	c #DA992B",
"{+	c #C8A978",
"]+	c #EAE3CB",
"^+	c #FFFBEE",
"/+	c #FFFBEF",
"(+	c #FFF7DF",
"_+	c #FFF4D4",
":+	c #FFF3CF",
"<+	c #FFF2CC",
"[+	c #FFF2CB",
"}+	c #FFF3CC",
"|+	c #FAEEC7",
"1+	c #ECE0BB",
"2+	c #DED0AB",
"3+	c #D7C39C",
"4+	c #D1B88D",
"5+	c #C5A473",
"6+	c #C89851",
"7+	c #D89D3F",
"8+	c #DA9E3E",
"9+	c #CD9438",
"0+	c #9B7229",
"a+	c #C59B48",
"b+	c #E5A944",
"c+	c #B38121",
"d+	c #A5761C",
"e+	c #926918",
"f+	c #E7A535",
"g+	c #E5A12C",
"h+	c #D09537",
"i+	c #CFB78D",
"j+	c #F2E8C4",
"k+	c #FFF5D7",
"l+	c #FFF6DB",
"m+	c #FFF2CD",
"n+	c #FBEEC8",
"o+	c #F2E5C1",
"p+	c #E7DAB6",
"q+	c #C9B995",
"r+	c #A28654",
"s+	c #A47F36",
"t+	c #96732D",
"u+	c #916D29",
"v+	c #DFA747",
"w+	c #E4A53F",
"x+	c #CB9330",
"y+	c #E9AA43",
"z+	c #E7A435",
"A+	c #E49F29",
"B+	c #E39F29",
"C+	c #E39E29",
"D+	c #CC984C",
"E+	c #D3C39D",
"F+	c #FBF1CF",
"G+	c #FFF6DD",
"H+	c #FFF6DA",
"I+	c #FFF3D0",
"J+	c #FEF2CB",
"K+	c #E9DDB9",
"L+	c #C6AA7B",
"M+	c #D8A64C",
"N+	c #E0B055",
"O+	c #A58137",
"P+	c #B88631",
"Q+	c #C8902A",
"R+	c #E6A230",
"S+	c #E6A029",
"T+	c #DE9C28",
"U+	c #D4992F",
"V+	c #E19F2C",
"W+	c #DE9B2A",
"X+	c #CBA062",
"Y+	c #DCD3B3",
"Z+	c #FFF7D9",
"`+	c #FFF6D9",
" @	c #FFF6D7",
".@	c #FFF6DC",
"+@	c #FFF3CE",
"@@	c #FFF3CD",
"#@	c #FFF3CB",
"$@	c #F1E5BF",
"%@	c #C3A77A",
"&@	c #DEA242",
"*@	c #EBAC46",
"=@	c #DAA84D",
"-@	c #A07930",
";@	c #D19737",
">@	c #B58223",
",@	c #C58C23",
"'@	c #E6A129",
")@	c #E7A129",
"!@	c #D09226",
"~@	c #BF8C2E",
"{@	c #DB9F31",
"]@	c #DB9B32",
"^@	c #C3A373",
"/@	c #EEE6C4",
"(@	c #FAEFC9",
"_@	c #EBE0B4",
":@	c #E6DAAC",
"<@	c #F4E6B7",
"[@	c #FFF4D3",
"}@	c #FFF2CA",
"|@	c #FFF4D1",
"1@	c #FFF5D9",
"2@	c #FFF4D2",
"3@	c #FEF1CA",
"4@	c #EDE1BA",
"5@	c #BB9760",
"6@	c #EBAD49",
"7@	c #C79B48",
"8@	c #AB7D2C",
"9@	c #B17F21",
"0@	c #AD7C1E",
"a@	c #BA8320",
"b@	c #CE8F23",
"c@	c #CB8D23",
"d@	c #C98C22",
"e@	c #C68A22",
"f@	c #C58A23",
"g@	c #B58022",
"h@	c #B18632",
"i@	c #DCA135",
"j@	c #D79A3A",
"k@	c #BFAB86",
"l@	c #F8ECC0",
"m@	c #D6C68F",
"n@	c #9D8E58",
"o@	c #918351",
"p@	c #B2A473",
"q@	c #E6D7A4",
"r@	c #FFF4D0",
"s@	c #FFF7DE",
"t@	c #FFF7DB",
"u@	c #FFF7E0",
"v@	c #FDF2CA",
"w@	c #DACEAB",
"x@	c #C59448",
"y@	c #E8AF4D",
"z@	c #B28B3D",
"A@	c #8A641A",
"B@	c #976C19",
"C@	c #9E711B",
"D@	c #926919",
"E@	c #9B701B",
"F@	c #A6771C",
"G@	c #956B1B",
"H@	c #977128",
"I@	c #A17D33",
"J@	c #A38036",
"K@	c #A68439",
"L@	c #AC883D",
"M@	c #9D792F",
"N@	c #DFA63B",
"O@	c #E6A12A",
"P@	c #C8913D",
"Q@	c #D1C6A3",
"R@	c #E2D397",
"S@	c #564B20",
"T@	c #080701",
"U@	c #060500",
"V@	c #2F2810",
"W@	c #9D905A",
"X@	c #FCEFBF",
"Y@	c #FFF2CE",
"Z@	c #FFF5D5",
"`@	c #FCF2CC",
" #	c #F5EBC0",
".#	c #F6E9BD",
"+#	c #FEF1C9",
"@#	c #FEF3CB",
"##	c #C0AF8B",
"$#	c #D79A39",
"%#	c #E7A537",
"&#	c #E8A63A",
"*#	c #E8A73C",
"=#	c #E9A83E",
"-#	c #E0AB49",
";#	c #B28F43",
">#	c #93722E",
",#	c #825F1C",
"'#	c #7D5A16",
")#	c #8A6317",
"!#	c #8E6921",
"~#	c #AA883E",
"{#	c #D1A64A",
"]#	c #E6B149",
"^#	c #E9B247",
"/#	c #EBB144",
"(#	c #ECB041",
"_#	c #B88B33",
":#	c #BC8B2E",
"<#	c #E8A32B",
"[#	c #B78A4A",
"}#	c #ECE3B9",
"|#	c #A4985E",
"1#	c #272310",
"2#	c #000000",
"3#	c #554B21",
"4#	c #EDE0AA",
"5#	c #FBECB9",
"6#	c #CDBB7E",
"7#	c #A8985C",
"8#	c #BBAB71",
"9#	c #E1D19F",
"0#	c #FCEEC5",
"a#	c #F7E8B6",
"b#	c #C1A16A",
"c#	c #DD9D31",
"d#	c #DE9D2B",
"e#	c #BF9030",
"f#	c #C29A41",
"g#	c #BB9848",
"h#	c #AA8A40",
"i#	c #9D7C35",
"j#	c #BC9947",
"k#	c #BB9035",
"l#	c #C78E25",
"m#	c #E59F28",
"n#	c #E59F27",
"o#	c #AE7D25",
"p#	c #C7912E",
"q#	c #B98D4E",
"r#	c #EAE0B3",
"s#	c #A09766",
"t#	c #3C371C",
"u#	c #010100",
"v#	c #010000",
"w#	c #685E2F",
"x#	c #E9DDAB",
"y#	c #FBEEBD",
"z#	c #AD9F6B",
"A#	c #433B1B",
"B#	c #070501",
"C#	c #1A1505",
"D#	c #847643",
"E#	c #E5D397",
"F#	c #FDEBAE",
"G#	c #E7D595",
"H#	c #CC9F53",
"I#	c #DF9C2C",
"J#	c #DC9A27",
"K#	c #B17F1E",
"L#	c #AD7F24",
"M#	c #A57F2C",
"N#	c #B7913C",
"O#	c #B28326",
"P#	c #AA7B1D",
"Q#	c #C58B23",
"R#	c #E19E29",
"S#	c #A97B26",
"T#	c #D59B30",
"U#	c #D79726",
"V#	c #E19D28",
"W#	c #C99038",
"X#	c #CCB990",
"Y#	c #C6B87D",
"Z#	c #7B7041",
"`#	c #362F12",
" $	c #1E1906",
".$	c #4C431D",
"+$	c #B4A670",
"@$	c #F3E6B8",
"#$	c #FFF3CA",
"$$	c #E2D59F",
"%$	c #7B7148",
"&$	c #0C0902",
"*$	c #2A240A",
"=$	c #C2AE64",
"-$	c #F6E090",
";$	c #DAC17D",
">$	c #D29D45",
",$	c #E29E29",
"'$	c #DC9B27",
")$	c #B2801F",
"!$	c #A5771C",
"~$	c #9A6F1A",
"{$	c #DB9B2A",
"]$	c #AA7E2A",
"^$	c #DE9E2C",
"/$	c #BF8722",
"($	c #DA9927",
"_$	c #E09D2A",
":$	c #C18E3F",
"<$	c #D7C07C",
"[$	c #CAB770",
"}$	c #A49251",
"|$	c #9E8C4D",
"1$	c #BEAA65",
"2$	c #EAD792",
"3$	c #FBE7A7",
"4$	c #FEECAB",
"5$	c #D8C782",
"6$	c #776C39",
"7$	c #060501",
"8$	c #2B240A",
"9$	c #B9A65D",
"0$	c #EFD989",
"a$	c #D5B670",
"b$	c #D49939",
"c$	c #D59627",
"d$	c #B0842F",
"e$	c #E2A02B",
"f$	c #CC973F",
"g$	c #DEC47B",
"h$	c #FBE493",
"i$	c #F8DF8B",
"j$	c #F3DA86",
"k$	c #FAE18F",
"l$	c #F2DB8D",
"m$	c #C7B470",
"n$	c #C3B06B",
"o$	c #DCC671",
"p$	c #A3924F",
"q$	c #2E270D",
"r$	c #110D03",
"s$	c #201B06",
"t$	c #6E612E",
"u$	c #D1BC70",
"v$	c #EAD487",
"w$	c #D0AB62",
"x$	c #D9992D",
"y$	c #CC9026",
"z$	c #BA882C",
"A$	c #E6A22B",
"B$	c #CF9E4A",
"C$	c #DEC47D",
"D$	c #F7E194",
"E$	c #EFD78E",
"F$	c #F1D98F",
"G$	c #FBE597",
"H$	c #EED887",
"I$	c #B19E56",
"J$	c #A6934E",
"K$	c #E8D07D",
"L$	c #E2CC7B",
"M$	c #9D8A46",
"N$	c #6C5F31",
"O$	c #84743F",
"P$	c #BDA961",
"Q$	c #E7D082",
"R$	c #DCC27B",
"S$	c #CC9C4A",
"T$	c #E09D29",
"U$	c #E39F28",
"V$	c #B28025",
"W$	c #BD8828",
"X$	c #D49837",
"Y$	c #CBAA64",
"Z$	c #D4BC78",
"`$	c #C2A161",
" %	c #CDB06C",
".%	c #E9D48C",
"+%	c #E7D187",
"@%	c #CBB56E",
"#%	c #DFC87B",
"$%	c #FBE393",
"%%	c #FEE796",
"&%	c #FBE38E",
"*%	c #F1D67F",
"=%	c #EAD27E",
"-%	c #E3CA7D",
";%	c #D9BA72",
">%	c #CFA457",
",%	c #D89930",
"'%	c #DF9C27",
")%	c #B27E22",
"!%	c #A98539",
"~%	c #B58A35",
"{%	c #D49527",
"]%	c #D4962E",
"^%	c #C38D36",
"/%	c #C98E2F",
"(%	c #C89746",
"_%	c #C8AE6D",
":%	c #C9AC68",
"<%	c #C59E54",
"[%	c #D0B875",
"}%	c #EFDA90",
"|%	c #DEC884",
"1%	c #F2DA90",
"2%	c #FEE698",
"3%	c #EFD98E",
"4%	c #C4A15E",
"5%	c #CF9537",
"6%	c #DB9A2C",
"7%	c #D49426",
"8%	c #A9781E",
"9%	c #CB8F24",
"0%	c #C68C23",
"a%	c #D89726",
"b%	c #A87823",
"c%	c #B58F3F",
"d%	c #E3AC41",
"e%	c #DBA63E",
"f%	c #C19235",
"g%	c #D49627",
"h%	c #DB9B26",
"i%	c #D99A26",
"j%	c #DD9C27",
"k%	c #E29E28",
"l%	c #D8992F",
"m%	c #CD963D",
"n%	c #CB9439",
"o%	c #D09431",
"p%	c #B69554",
"q%	c #BEA466",
"r%	c #BA8B3E",
"s%	c #BB9E60",
"t%	c #F0DB91",
"u%	c #E0C77F",
"v%	c #C8923B",
"w%	c #D39426",
"x%	c #A4751D",
"y%	c #C88D24",
"z%	c #AE7C1D",
"A%	c #A07524",
"B%	c #B89341",
"C%	c #D6A237",
"D%	c #D29623",
"E%	c #D09623",
"F%	c #CD992D",
"G%	c #C1912E",
"H%	c #C79225",
"I%	c #CB9322",
"J%	c #CC9322",
"K%	c #CF9523",
"L%	c #D59824",
"M%	c #DC9C26",
"N%	c #E19E2A",
"O%	c #D69933",
"P%	c #D29735",
"Q%	c #B58C46",
"R%	c #C9AC6B",
"S%	c #C4984E",
"T%	c #DC9A29",
"U%	c #E4A029",
"V%	c #E09C28",
"W%	c #855F16",
"X%	c #876018",
"Y%	c #85601A",
"Z%	c #906E28",
"`%	c #BF9943",
" &	c #D29E32",
".&	c #CB9321",
"+&	c #CB9425",
"@&	c #C89428",
"#&	c #CB9323",
"$&	c #DC9B26",
"%&	c #E19E28",
"&&	c #D99827",
"*&	c #9C7C36",
"=&	c #AC8C41",
"-&	c #BC9A4B",
";&	c #CCA347",
">&	c #D09B2D",
",&	c #D49824",
"'&	c #DD9B27",
")&	c #B6903B",
"!&	c #BA8E32",
"~&	c #B28426",
"{&	c #C08B22",
"]&	c #CC9323",
"^&	c #D09523",
"/&	c #CE9124",
"(&	c #C08622",
"_&	c #D19224",
":&	c #D99726",
"<&	c #DA9826",
"[&	c #DB9927",
"}&	c #DE9B27",
"|&	c #E39E28",
"1&	c #D99926",
"2&	c #996D19",
"3&	c #AA7A1D",
"4&	c #BE8920",
"5&	c #CC9422",
"6&	c #C99222",
"7&	c #C68F21",
"8&	c #C08B20",
"9&	c #B9861E",
"0&	c #B2801C",
"a&	c #966C18",
"b&	c #765413",
"c&	c #936917",
"d&	c #B07C1C",
"e&	c #B57F1E",
"f&	c #B9801F",
"g&	c #BD8320",
"h&	c #C28721",
"i&	c #C98C23",
"j&	c #D19225",
"k&	c #E09D28",
"l&	c #DA9A26",
"m&	c #D69925",
"n&	c #D49724",
"o&	c #D19624",
"p&	c #CB9222",
"q&	c #B17F1F",
"r&	c #BE8921",
"s&	c #CA9222",
"t&	c #C79021",
"u&	c #BF8A1F",
"v&	c #B4821D",
"w&	c #AA7B1B",
"x&	c #A17419",
"y&	c #9B6F17",
"z&	c #8C6515",
"A&	c #795712",
"B&	c #896314",
"C&	c #946A16",
"D&	c #956A16",
"E&	c #9A6D17",
"F&	c #A07019",
"G&	c #A5731A",
"H&	c #A7761A",
"I&	c #AB791B",
"J&	c #B27E1C",
"K&	c #B9851F",
"L&	c #C38C20",
"M&	c #C99121",
"N&	c #C99122",
"O&	c #BD891F",
"P&	c #AF7F1C",
"Q&	c #A37619",
"R&	c #956B16",
"S&	c #926915",
"T&	c #916815",
"U&	c #8F6615",
"V&	c #8F6715",
"W&	c #906715",
"X&	c #CA9322",
"Y&	c #BB871F",
"Z&	c #BF8A20",
"`&	c #C38D20",
" *	c #B5831D",
".*	c #A7781A",
"+*	c #9C7017",
"@*	c #926815",
"#*	c #8E6615",
"$*	c #C08B1F",
"%*	c #BB8720",
"&*	c #AC7C1D",
"**	c #AE7D1C",
"=*	c #9E721A",
"-*	c #C08A20",
";*	c #C89022",
">*	c #B07F1F",
",*	c #B3811F",
"'*	c #C48D21",
")*	c #C58F21",
"!*	c #B8851E",
"~*	c #AF7E1D",
"{*	c #C58E21",
"]*	c #C08B21",
"^*	c #C08A21",
"/*	c #976C16",
"(*	c #936A16",
"_*	c #B5821F",
":*	c #A3761C",
"<*	c #946A1A",
"[*	c #A8791D",
"}*	c #B07F1E",
"|*	c #AC7C1B",
"1*	c #A5771A",
"2*	c #A07318",
"3*	c #916816",
"4*	c #A27419",
"5*	c #AD7C1B",
"6*	c #BB8620",
"7*	c #C89121",
"8*	c #C28C20",
"9*	c #C18B1F",
"0*	c #B17F1D",
"a*	c #9D6F1A",
"b*	c #BF8B20",
"c*	c #B88520",
"d*	c #956B1A",
"e*	c #BC8720",
"f*	c #956A1A",
"g*	c #B88420",
"h*	c #AF7E1E",
"i*	c #825D17",
"j*	c #916919",
"k*	c #946B1A",
"l*	c #A2741C",
"m*	c #7F5A16",
"n*	c #986D1B",
"o*	c #7D5916",
"p*	c #896218",
"        . + @ # # # # # # # # # # # # # # # # # # # # # # # $ % & * $ # # # # # # # = - ;           ",
"      > , ' ) ! ! ! ! ! ! ! ! ! ! ! ! ! ! ! ! ! ! ! ! ! ! ! ~ { ] ! ! ! ! ! ! ! ! ! ! ~ ^ = /       ",
"    ( _ : : : < < [ [ [ [ [ [ [ [ [ [ [ [ [ [ [ [ [ [ [ [ [ } | [ [ [ [ [ [ [ [ [ < : : : 1 2 3     ",
"  > _ : : < 4 5 6 7 8 8 8 8 8 8 8 8 8 8 8 8 8 8 8 8 8 8 8 8 7 8 8 8 8 8 8 8 8 8 9 0 a < : : b c d   ",
"e ] : : < f g h i j k k k k k k k k k k k k k k k k k k k k k k k k k k k k k k l m n o p : : ~ (   ",
"> q : < r s t u v w w w w w w w w w w w w w w w w w w w w w w w w w w w w w w w x y z A B : : : C   ",
"D ! : 4 E F G H I I I I I I I I I I I I I I I I I I I I I I I I I I I I I I I I I J H K L M < : N ; ",
"O 1 < P Q R I I I I I I I I I I I I I I I I I I I I I I I I I I I I I I I I I I I I I H S T 4 : U + ",
"O 1 < V y J I I I I W X I I I I I I I I I I I I I I I I I I I I I I I I I I I I I I I I Y Z f : _ + ",
"O 1 < ` G I I I I  ...+.I I I I I I I I I I I I I I I I I I I I I I I I I I I I I I I I I @.#.: _ + ",
"O 1 < $.W I I I Y %.&.*.=.I I I I I I I I I I I I I I I I -.;.I I I I I I I I >.=.I I I I ,.'.: _ + ",
"O 1 < ).X I I I I  .!.+.I I I I I I I I I I I I I I I I ~.{.].I I I I I I I I ^./.I I I I (._.: _ + ",
"O 1 < :.X I I I I I Y X I I I I I I I I I I I I I I I I I <.[.I I I I I I I I I I I I I I (._.: }.+ ",
"O 1 < :.X I I I I I I I I I I I I I I I I I I |.1.2.3.4.I W X I I I I I I I I I I I I I W 5.6.7.8.9.",
"O 1 < :.X I I I I I I I I I I I I I I I I I /.0.a.b.c.d.e.f.g.h.i.h.I I I I I I I I I I j.k.l.m.m.n.",
"O 1 < :.X o.p.I I I I I I I I I I I I I I I q.r.s.t.u.v.w.x.y.z.A.B.C.D.h.I I I I I I I E.F.G.H.I.J.",
"O 1 < :.W K.<.X I I I I I I I I I J L.M.N.O.P.Q.R.S.T.U.V.W.X.Y.Z.`. +.+++@+#+>.I W $+%+&+*+=+-+;+>+",
"O 1 < :.X I I I I I I I I J L.M.,+'+)+!+!+~+{+]+^+/+(+_+:+<+[+}+}+|+1+2+3+4+5+6+7+8+9+0+a+b+c+< d+e+",
"O 1 < :.X I I I I J L.M.f+'+g+!+!+!+!+!+!+h+i+j+k+l+_+m+[+[+[+[+[+[+}+}+n+o+p+q+r+s+t+u+v+w+_.: _ + ",
"O 1 < x+X y+L.M.z+'+)+!+A+B+!+!+!+!+!+!+C+D+E+F+k+l+G+H+I+[+[+[+[+[+[+[+[+}+J+K+L+M+N+O+P+(._.: _ + ",
"O 1 1 Q+z+R+)+!+!+!+S+T+U+V+!+!+!+!+!+!+W+X+Y+Z+`+ @`+.@l++@[+[+[+@@+@@@[+[+#@$@%@&@*@=@-@;@>@: _ + ",
"O 1 b ,@'@'@)@)@)@S+!@~@{@!+!+!+!+!+!+!+]@^@/@(@_@:@<@+@`+[@}@<+|@1@l+1@2@[+3@4@5@/.I 6@7@8@9@0@}.+ ",
"O 1 b a@b@c@d@e@f@g@h@i@'@!+!+!+!+!+!+A+j@k@l@m@n@o@p@q@r@[@[+[@s@t@.@u@(+|@v@w@x@I I I y@z@A@B@C@D@",
"E@F@G@H@I@J@K@L@F.M@N@O@!+!+!+!+!+!+!+A+P@Q@R@S@T@U@V@W@X@Y@<+Z@`@ #.#+#l+`+@###$#%#&#*#=#-#;#>#,#'#",
")#!#~#{#]#^#/#(#_#:#<#!+!+!+!+!+!+!+!+A+[#}#|#1#2#2#2#3#4#3@}+5#6#7#8#9#0#:+a#b#c#!+!+!+O@d#e#f#g#h#",
"i#j#k#l#m#m#n#n#o#p#'@!+!+!+!+'@!+!+!+A+q#r#s#t#u#2#v#w#x#+#y#z#A#B#C#D#E#F#G#H#I#!+!+!+!+J#K#: L#M#",
"N#O#P#Q#!+!+!+R#S#T#S+!+!+!+A+U#V#!+!+!+W#X#Y#Z#`# $.$+$@$#$$$%$&$2#2#*$=$-$;$>$,$!+!+!+!+'$)$: !$e+",
"~$< b ,@!+!+S+{$]$^$!+!+!+!+V#/$($S+!+!+_$:$<$[$}$|$1$2$3$4$5$6$7$2#2#8$9$0$a$b$!+!+!+!+!+'$)$: _ + ",
"O 1 1 ,@!+!+'@c$d$e$!+!+!+!+!+A+!+!+!+!+A+f$g$h$i$j$k$l$m$n$o$p$q$r$s$t$u$v$w$x$!+!+!+!+!+'$)$: _ + ",
"O 1 1 ,@!+!+)@y$z$A$!+!+!+!+!+!+!+!+!+!+,$B$C$D$E$F$G$H$I$J$K$L$M$N$O$P$Q$R$S$T$!+!+!+!+!+'$)$: _ + ",
"O 1 1 ,@!+S+U$V$W$)@!+!+!+!+!+!+!+!+!+!+A+X$Y$Z$`$ %.%+%@%#%$%%%&%*%=%-%;%>%,%V#A+!+!+!+!+'$)$: _ + ",
"O 1 1 ,@S+'%)%!%~%{%S+!+!+!+!+!+!+!+!+!+!+,$]%^%/%(%_%:%<%[%}%|%1%2%3%4%5%6%7%8%9%'@!+!+!+'$)$: _ + ",
"O 1 b 0%a%b%c%d%e%f%g%h%i%j%k%!+!+!+!+!+!+!+!+!+,$l%m%n%o%p%q%r%s%t%u%v%!+'@w%x%y%'@!+!+!+'$)$: _ + ",
"O 1 ' z%A%B%C%D%E%F%G%H%I%J%K%L%M%k%!+!+!+!+!+!+!+!+A+k%N%O%P%~+Q%R%S%T%!+!+U%V%A+!+!+!+!+'$)$: _ + ",
"W%X%Y%Z%`% &.&I%I%I%+&@&#&I%I%I%J%K%L%$&%&!+!+!+!+!+!+!+!+A+C+!+V%&&V#!+!+!+!+!+!+!+!+!+!+'$)$: _ + ",
"*&=&-&;&>&.&I%I%I%I%I%I%I%I%I%I%I%I%I%J%K%,&h%%&U%S+'@!+!+!+!+!+!+!+!+!+!+!+!+!+!+!+!+!+S+'&)$: _ + ",
")&!&~&{&J%I%I%I%I%I%I%I%I%I%I%I%I%I%I%I%I%I%I%]&^&/&(&_&:&a%<&[&}&V#|&!+!+!+!+!+!+!+U%U$k%1&)$: _ + ",
"2&3&1 4&5&I%I%I%I%I%I%I%I%I%I%I%I%I%I%I%6&7&8&9&0&a&b&c&d&e&f&g&h&i&j&:&'&k&k&j%l&m&n&o&K%p&q&: _ + ",
"O 1 b r&5&I%I%I%I%I%I%I%I%I%I%I%I%I%s&t&u&v&w&x&y&z&A&B&C&D&E&F&G&H&I&J&K&L&M&p&I%I%I%I%I%N&q&: _ + ",
"O 1 b r&5&I%I%I%I%I%I%I%J%I%I%I%I%I%t&O&P&Q&y&R&S&T&U&V&V&V&V&W&T&S&R&y&Q&P&O&t&I%I%I%I%I%N&q&: _ + ",
"O 1 b 4&5&I%I%I%I%I%I%X&Y&Z&I%I%I%s&`& *.*+*R&@*W&V&U&#*#*#*#*U&V&W&@*R&+*.* *$*6&I%I%I%I%N&q&: _ + ",
"O 1 : %*I%I%I%I%I%I%I%N&!$&*X&I%I%s&`& *.*+*R&@*W&V&U&#*#*#*#*U&V&W&@*R&+*.***=*-*J%I%I%I%;*>*: _ + ",
"O 1 : ,*N&I%I%I%I%I%I%I%'*)*I%I%I%I%t&O&P&Q&y&R&S&T&W&V&V&V&V&W&T&S&R&y&Q&P&!*~*{*I%I%I%J%]*0@: U + ",
"D ! : p ^*J%I%I%I%I%I%I%I%I%I%I%I%I%s&t&u&v&w&x&y&/*R&C&(*W&T&R&/*y&x&w&v&u&t&s&I%I%I%I%N&_*: : :*; ",
"<*[*: : }*'*J%I%I%I%I%I%I%I%I%I%I%I%I%I%6&7&8&9&0&|*.*1*Q&2*3*4*5*0&9&8&7&6&I%I%I%I%I%s&6*: : : 2   ",
"d 7.: : : }*^*N&J%5&5&5&5&5&5&5&5&5&5&5&5&5&5&s&7*7&`&8*9*9*0*a*b*7*s&5&5&5&5&5&5&I%7&c*p : : ~ %   ",
"  d*}.: : : p ,*6*e*e*e*e*e*e*e*e*e*e*e*e*e*e*e*e*e*e*e*e*e*6*f*{ e*e*e*e*e*e*e*e*g*h*: : : : , d   ",
"    ( }.: : : : b b b b b b b b b b b b b b b b b b b b b b : $ i*' : b b b b b b : : : : 1 7.j*    ",
"      k*7.[*! 1 1 1 1 1 1 1 1 1 1 1 1 1 1 1 1 1 1 1 1 1 1 1 b l*m*c : 1 1 1 1 1 1 1 1 ) U 8.3       ",
"        d <*D O O O O O O O O O O O O O O O O O O O O O O O O n*o*p*8.O O O O O O O O % D@          "};
