/* XPM */
static char * col2_xpm[] = {
"50 50 827 2",
"  	c None",
". 	c #8E6619",
"+ 	c #936A19",
"@ 	c #976D1A",
"# 	c #996E1B",
"$ 	c #9A6E1B",
"% 	c #976C1A",
"& 	c #886117",
"* 	c #926819",
"= 	c #996E1A",
"- 	c #956C1A",
"; 	c #916819",
"> 	c #946A19",
", 	c #9E721B",
"' 	c #A7781D",
") 	c #AA7A1E",
"! 	c #AA7B1E",
"~ 	c #A97A1D",
"{ 	c #9C701B",
"] 	c #9F721C",
"^ 	c #A4761C",
"/ 	c #906719",
"( 	c #966C1A",
"_ 	c #A6771D",
": 	c #AC7C1E",
"< 	c #AB7B1D",
"[ 	c #AB7A1C",
"} 	c #A6761B",
"| 	c #A5761B",
"1 	c #AB7B1E",
"2 	c #9F721B",
"3 	c #906819",
"4 	c #AD7D1F",
"5 	c #B8892B",
"6 	c #C99D3F",
"7 	c #CEA448",
"8 	c #CFA548",
"9 	c #CEA246",
"0 	c #C29537",
"a 	c #B18224",
"b 	c #AB7C1E",
"c 	c #9D711B",
"d 	c #8F6719",
"e 	c #8F6718",
"f 	c #B48426",
"g 	c #D7AE52",
"h 	c #F0CD73",
"i 	c #F6D176",
"j 	c #F7CF74",
"k 	c #F7CF73",
"l 	c #F7D074",
"m 	c #F5D177",
"n 	c #E8C369",
"o 	c #C5993B",
"p 	c #AD7D1E",
"q 	c #A7791D",
"r 	c #B48526",
"s 	c #E2BB5F",
"t 	c #F5CA6D",
"u 	c #EEB755",
"v 	c #EBAF4B",
"w 	c #EAAD48",
"x 	c #EAAD49",
"y 	c #ECB14E",
"z 	c #F1C060",
"A 	c #F2CC71",
"B 	c #CBA043",
"C 	c #9E721C",
"D 	c #986D1A",
"E 	c #D7AD50",
"F 	c #F2C162",
"G 	c #EAAC47",
"H 	c #E9A944",
"I 	c #E9AA45",
"J 	c #E9AA44",
"K 	c #EDB351",
"L 	c #EEC467",
"M 	c #BE9032",
"N 	c #A3751C",
"O 	c #9A6F1B",
"P 	c #BA8B2D",
"Q 	c #EBBC5D",
"R 	c #EAAC48",
"S 	c #EEB553",
"T 	c #D8AC4E",
"U 	c #A5771D",
"V 	c #CB9B3B",
"W 	c #EAAB45",
"X 	c #EAAA45",
"Y 	c #EAAB46",
"Z 	c #E5B14F",
"` 	c #CD9938",
" .	c #E2A541",
"..	c #C48E33",
"+.	c #D69C3C",
"@.	c #E5AB47",
"#.	c #B58425",
"$.	c #CB9431",
"%.	c #D19839",
"&.	c #92691B",
"*.	c #B5832C",
"=.	c #E8A944",
"-.	c #E7A945",
";.	c #E7A944",
">.	c #E0A340",
",.	c #E1A441",
"'.	c #E3A640",
").	c #B48223",
"!.	c #CB922F",
"~.	c #C38E32",
"{.	c #E8A945",
"].	c #DDA244",
"^.	c #C9974D",
"/.	c #C0914D",
"(.	c #CE9A4C",
"_.	c #D7A253",
":.	c #D69E49",
"<.	c #DBA042",
"[.	c #B7852D",
"}.	c #BE8A30",
"|.	c #E6A844",
"1.	c #E4A642",
"2.	c #E3A53F",
"3.	c #B48222",
"4.	c #CB9230",
"5.	c #E2A544",
"6.	c #C8A371",
"7.	c #DACEBF",
"8.	c #E6E0D2",
"9.	c #D5CBB2",
"0.	c #C9BAA2",
"a.	c #CFB997",
"b.	c #CCB084",
"c.	c #B99969",
"d.	c #B58B4C",
"e.	c #D1A057",
"f.	c #D4A154",
"g.	c #D49D48",
"h.	c #DDA142",
"i.	c #E5A845",
"j.	c #E5A744",
"k.	c #A6781D",
"l.	c #D09B4A",
"m.	c #D1C3AF",
"n.	c #F2F1ED",
"o.	c #FCFCFA",
"p.	c #FFFDF1",
"q.	c #FEF9EC",
"r.	c #F6EED7",
"s.	c #EEE3C0",
"t.	c #EFE2BB",
"u.	c #E8DCB8",
"v.	c #D4C6A4",
"w.	c #D0BC96",
"x.	c #D3BB90",
"y.	c #CAAF83",
"z.	c #BA9968",
"A.	c #C59A5B",
"B.	c #D1A25C",
"C.	c #D59F4E",
"D.	c #E1A443",
"E.	c #DEA13E",
"F.	c #A77820",
"G.	c #A0731C",
"H.	c #9B6F1B",
"I.	c #8C6518",
"J.	c #E7A844",
"K.	c #C99E60",
"L.	c #DFD6C4",
"M.	c #FDFCF6",
"N.	c #FFFFFD",
"O.	c #FFFAED",
"P.	c #FFF6DD",
"Q.	c #FFF5D5",
"R.	c #FFF3CD",
"S.	c #FEF2CB",
"T.	c #FFF3CC",
"U.	c #FCF0C9",
"V.	c #F5E9C3",
"W.	c #F1E5BF",
"X.	c #F3E6C0",
"Y.	c #E6D9B7",
"Z.	c #D4C6A2",
"`.	c #CDB58B",
" +	c #C89A58",
".+	c #E4A643",
"++	c #AD7D2C",
"@+	c #7D5A18",
"#+	c #7C5918",
"$+	c #7C5A19",
"%+	c #E6A843",
"&+	c #E5A743",
"*+	c #E1A444",
"=+	c #CDA86F",
"-+	c #E1D8BC",
";+	c #FFF8E2",
">+	c #FFF8E4",
",+	c #FFF5D6",
"'+	c #FFF2CC",
")+	c #FFF2CB",
"!+	c #FFF3CB",
"~+	c #FEF3CC",
"{+	c #F3E8C2",
"]+	c #BEA881",
"^+	c #D89E41",
"/+	c #BE8A33",
"(+	c #99762F",
"_+	c #B59346",
":+	c #B69446",
"<+	c #B49346",
"[+	c #B19044",
"}+	c #DEA13F",
"|+	c #DDA13F",
"1+	c #E8A840",
"2+	c #E8A73B",
"3+	c #DEA03B",
"4+	c #C5A370",
"5+	c #EDE3BF",
"6+	c #FFF4D2",
"7+	c #FFF5D9",
"8+	c #FFF5D7",
"9+	c #FFF4D3",
"0+	c #FFF3CF",
"a+	c #FFF4CD",
"b+	c #C5B692",
"c+	c #D6A04E",
"d+	c #E8AA44",
"e+	c #EBAB46",
"f+	c #CE963A",
"g+	c #98722B",
"h+	c #CFA249",
"i+	c #BE8E2F",
"j+	c #B5882A",
"k+	c #B08429",
"l+	c #9F7826",
"m+	c #E7A536",
"n+	c #E6A330",
"o+	c #E6A12C",
"p+	c #E5A029",
"q+	c #DD9B2D",
"r+	c #B69E77",
"s+	c #FAF1CE",
"t+	c #FFF7DD",
"u+	c #FFF8E1",
"v+	c #FFF8E5",
"w+	c #FFF6DC",
"x+	c #FFF3CE",
"y+	c #FFF4D1",
"z+	c #FBF0C9",
"A+	c #CAB790",
"B+	c #CF9C4E",
"C+	c #D99D3E",
"D+	c #CD9438",
"E+	c #9B7229",
"F+	c #C59B48",
"G+	c #E5A944",
"H+	c #B38121",
"I+	c #A5761C",
"J+	c #926918",
"K+	c #E7A535",
"L+	c #E5A12C",
"M+	c #D1932D",
"N+	c #CBB994",
"O+	c #F8EFD0",
"P+	c #FFF6D6",
"Q+	c #FFF6D1",
"R+	c #FEF2CE",
"S+	c #FFF6DB",
"T+	c #FFF7DF",
"U+	c #FFF6DE",
"V+	c #F2E7C1",
"W+	c #C2B18A",
"X+	c #A5813F",
"Y+	c #A78137",
"Z+	c #96732D",
"`+	c #916D29",
" @	c #DFA747",
".@	c #E4A53F",
"+@	c #CB9330",
"@@	c #E9AA43",
"#@	c #E7A435",
"$@	c #E49F29",
"%@	c #E39F29",
"&@	c #C7913E",
"*@	c #D9C9A3",
"=@	c #F6EBC5",
"-@	c #E8DBAE",
";@	c #CDBF8C",
">@	c #D4C489",
",@	c #ECDDAA",
"'@	c #F9EDC5",
")@	c #FFF5D4",
"!@	c #FFF5D8",
"~@	c #FFF7DB",
"{@	c #FFF6D7",
"]@	c #FFF6DA",
"^@	c #FFF7DE",
"/@	c #FFF5D3",
"(@	c #EEE2BC",
"_@	c #C9AD7F",
":@	c #DBA64A",
"<@	c #E4AF50",
"[@	c #E0B055",
"}@	c #A58137",
"|@	c #B88631",
"1@	c #C8902A",
"2@	c #E6A230",
"3@	c #E6A029",
"4@	c #DE9C28",
"5@	c #D4992F",
"6@	c #E19F2C",
"7@	c #E19D29",
"8@	c #C99A56",
"9@	c #D9CBA3",
"0@	c #E7DAAA",
"a@	c #A79969",
"b@	c #695E38",
"c@	c #4D4528",
"d@	c #85794B",
"e@	c #D4C795",
"f@	c #FDF1C8",
"g@	c #FFF2CE",
"h@	c #F4E9C0",
"i@	c #E7DBAD",
"j@	c #EEDFAE",
"k@	c #FEF0C6",
"l@	c #FFF4D4",
"m@	c #FEF4D5",
"n@	c #F1E2B4",
"o@	c #C09B63",
"p@	c #EBAC46",
"q@	c #DAA84D",
"r@	c #A07930",
"s@	c #D19737",
"t@	c #B58223",
"u@	c #C58C23",
"v@	c #E6A129",
"w@	c #E7A129",
"x@	c #D09226",
"y@	c #BF8C2E",
"z@	c #DB9F31",
"A@	c #DE9B2B",
"B@	c #C99F63",
"C@	c #D8CDA3",
"D@	c #C2B57E",
"E@	c #3E3615",
"F@	c #030300",
"G@	c #040300",
"H@	c #2B260E",
"I@	c #8B8057",
"J@	c #F8EAB7",
"K@	c #FFF2CA",
"L@	c #F6E6B1",
"M@	c #B8A86C",
"N@	c #91834E",
"O@	c #978A5C",
"P@	c #C5B57D",
"Q@	c #FFEFBE",
"R@	c #FFF0BF",
"S@	c #E9D799",
"T@	c #C79A4F",
"U@	c #EBAD49",
"V@	c #C79B48",
"W@	c #AB7D2C",
"X@	c #B17F21",
"Y@	c #AD7C1E",
"Z@	c #BA8320",
"`@	c #CE8F23",
" #	c #CB8D23",
".#	c #C98C22",
"+#	c #C68A22",
"@#	c #C58A23",
"##	c #B58022",
"$#	c #B18632",
"%#	c #DCA135",
"&#	c #E09D2D",
"*#	c #BB965F",
"=#	c #E9E1B7",
"-#	c #958A4F",
";#	c #030200",
">#	c #000000",
",#	c #5C5227",
"'#	c #F3E6B1",
")#	c #FBEEBD",
"!#	c #9E8F58",
"~#	c #322C12",
"{#	c #130F03",
"]#	c #5E542C",
"^#	c #D8C377",
"/#	c #FAE597",
"(#	c #DAC480",
"_#	c #D5A351",
":#	c #E8AF4D",
"<#	c #B28B3D",
"[#	c #8A641A",
"}#	c #976C19",
"|#	c #9E711B",
"1#	c #926919",
"2#	c #9B701B",
"3#	c #A6771C",
"4#	c #956B1B",
"5#	c #977128",
"6#	c #A17D33",
"7#	c #A38036",
"8#	c #A68439",
"9#	c #AC883D",
"0#	c #9D792F",
"a#	c #DFA63B",
"b#	c #E6A12A",
"c#	c #B58B50",
"d#	c #EAE0B4",
"e#	c #A49A65",
"f#	c #423C20",
"g#	c #100D03",
"h#	c #948854",
"i#	c #F0E3B5",
"j#	c #FFF3CA",
"k#	c #E4D7A1",
"l#	c #7A7148",
"m#	c #0B0902",
"n#	c #201C07",
"o#	c #B29F57",
"p#	c #F0D989",
"q#	c #D8BB76",
"r#	c #D39C42",
"s#	c #E6A335",
"t#	c #E7A537",
"u#	c #E8A63A",
"v#	c #E8A73C",
"w#	c #E9A83E",
"x#	c #E0AB49",
"y#	c #B28F43",
"z#	c #93722E",
"A#	c #825F1C",
"B#	c #7D5A16",
"C#	c #8A6317",
"D#	c #8E6921",
"E#	c #AA883E",
"F#	c #D1A64A",
"G#	c #E6B149",
"H#	c #E9B247",
"I#	c #EBB144",
"J#	c #ECB041",
"K#	c #B88B33",
"L#	c #BC8B2E",
"M#	c #E8A32B",
"N#	c #CA9138",
"O#	c #CBB489",
"P#	c #C8BA80",
"Q#	c #998B52",
"R#	c #574C21",
"S#	c #2F280D",
"T#	c #685C2B",
"U#	c #D4C385",
"V#	c #F9E8AE",
"W#	c #FEEDB3",
"X#	c #DECE8C",
"Y#	c #847840",
"Z#	c #0D0A01",
"`#	c #31290D",
" $	c #AE9C58",
".$	c #EFD988",
"+$	c #D6B871",
"@$	c #D39631",
"#$	c #DE9D2B",
"$$	c #BF9030",
"%$	c #C29A41",
"&$	c #BB9848",
"*$	c #AA8A40",
"=$	c #9D7C35",
"-$	c #BC9947",
";$	c #BB9035",
">$	c #C78E25",
",$	c #E59F28",
"'$	c #E59F27",
")$	c #AE7D25",
"!$	c #C7912E",
"~$	c #E19D2A",
"{$	c #C9923B",
"]$	c #CFB673",
"^$	c #DFCB81",
"/$	c #D4BD70",
"($	c #D7BF6D",
"_$	c #F1D781",
":$	c #FBE395",
"<$	c #E5D089",
"[$	c #CDBA76",
"}$	c #DDC876",
"|$	c #BCA95C",
"1$	c #493F1A",
"2$	c #211C07",
"3$	c #29230A",
"4$	c #766831",
"5$	c #D8C370",
"6$	c #F2DB8E",
"7$	c #C9A660",
"8$	c #DC9A29",
"9$	c #DC9A27",
"0$	c #B17F1E",
"a$	c #AD7F24",
"b$	c #A57F2C",
"c$	c #B7913C",
"d$	c #B28326",
"e$	c #AA7B1D",
"f$	c #C58B23",
"g$	c #E19E29",
"h$	c #A97B26",
"i$	c #D59B30",
"j$	c #D79726",
"k$	c #E19D28",
"l$	c #D69A37",
"m$	c #CFB16B",
"n$	c #FAE395",
"o$	c #FDE493",
"p$	c #FBE393",
"q$	c #FFE898",
"r$	c #F6E090",
"s$	c #C6B162",
"t$	c #867639",
"u$	c #DCC572",
"v$	c #F4DC8A",
"w$	c #BCA75A",
"x$	c #958449",
"y$	c #AA9654",
"z$	c #D2BB6F",
"A$	c #ECD589",
"B$	c #D3BC7A",
"C$	c #C6913B",
"D$	c #DC9B27",
"E$	c #B2801F",
"F$	c #A5771C",
"G$	c #9A6F1A",
"H$	c #DB9B2A",
"I$	c #AA7E2A",
"J$	c #DE9E2C",
"K$	c #BF8722",
"L$	c #DA9927",
"M$	c #DA9C34",
"N$	c #C5A866",
"O$	c #F3DE92",
"P$	c #DFC882",
"Q$	c #D1B876",
"R$	c #F1D990",
"S$	c #FBE596",
"T$	c #D3BC6F",
"U$	c #BBA663",
"V$	c #F3DB8A",
"W$	c #FDE795",
"X$	c #F7DD88",
"Y$	c #F2DA87",
"Z$	c #DAC27A",
"`$	c #C69F59",
" %	c #C89033",
".%	c #DF9C2A",
"+%	c #D59627",
"@%	c #B0842F",
"#%	c #E2A02B",
"$%	c #E39E29",
"%%	c #C29141",
"&%	c #D4B871",
"*%	c #C29D57",
"=%	c #C08F41",
"-%	c #CFB978",
";%	c #DFCB84",
">%	c #C9AA66",
",%	c #CCB16B",
"'%	c #EDD88C",
")%	c #E0CB86",
"!%	c #E5CD87",
"~%	c #F6DE92",
"{%	c #F9E295",
"]%	c #D0B36E",
"^%	c #D49A3B",
"/%	c #CC9026",
"(%	c #BA882C",
"_%	c #E6A22B",
":%	c #DF9C29",
"<%	c #D09532",
"[%	c #D4962F",
"}%	c #D3942B",
"|%	c #C39446",
"1%	c #B68E49",
"2%	c #C78F34",
"3%	c #BF9246",
"4%	c #C1A667",
"5%	c #BD9854",
"6%	c #B48A44",
"7%	c #D3BB76",
"8%	c #DEC781",
"9%	c #CEA458",
"0%	c #DC9B2D",
"a%	c #E39F28",
"b%	c #B28025",
"c%	c #BD8828",
"d%	c #E29E2B",
"e%	c #E29E28",
"f%	c #E09C28",
"g%	c #D89931",
"h%	c #D0983A",
"i%	c #D59730",
"j%	c #D09533",
"k%	c #C3994F",
"l%	c #CDA255",
"m%	c #D69B39",
"n%	c #DF9C27",
"o%	c #B27E22",
"p%	c #A98539",
"q%	c #B58A35",
"r%	c #D49527",
"s%	c #DF9C28",
"t%	c #DE9B28",
"u%	c #D59526",
"v%	c #A9781E",
"w%	c #CB8F24",
"x%	c #C68C23",
"y%	c #D89726",
"z%	c #A87823",
"A%	c #B58F3F",
"B%	c #E3AC41",
"C%	c #DBA63E",
"D%	c #C19235",
"E%	c #D49627",
"F%	c #DB9B26",
"G%	c #D99A26",
"H%	c #DD9C27",
"I%	c #D39426",
"J%	c #A4751D",
"K%	c #C88D24",
"L%	c #AE7C1D",
"M%	c #A07524",
"N%	c #B89341",
"O%	c #D6A237",
"P%	c #D29623",
"Q%	c #D09623",
"R%	c #CD992D",
"S%	c #C1912E",
"T%	c #C79225",
"U%	c #CB9322",
"V%	c #CC9322",
"W%	c #CF9523",
"X%	c #D59824",
"Y%	c #DC9C26",
"Z%	c #E4A029",
"`%	c #855F16",
" &	c #876018",
".&	c #85601A",
"+&	c #906E28",
"@&	c #BF9943",
"#&	c #D29E32",
"$&	c #CB9321",
"%&	c #CB9425",
"&&	c #C89428",
"*&	c #CB9323",
"=&	c #DC9B26",
"-&	c #E19E28",
";&	c #9C7C36",
">&	c #AC8C41",
",&	c #BC9A4B",
"'&	c #CCA347",
")&	c #D09B2D",
"!&	c #D49824",
"~&	c #E59F29",
"{&	c #E39E28",
"]&	c #DD9B27",
"^&	c #B6903B",
"/&	c #BA8E32",
"(&	c #B28426",
"_&	c #C08B22",
":&	c #CA9222",
"<&	c #C99222",
"[&	c #CC9222",
"}&	c #C98E22",
"|&	c #BB8321",
"1&	c #CA8D23",
"2&	c #D19124",
"3&	c #D09124",
"4&	c #D19225",
"5&	c #D39325",
"6&	c #D79626",
"7&	c #DB9927",
"8&	c #D99926",
"9&	c #996D19",
"0&	c #AA7A1D",
"a&	c #BE8920",
"b&	c #CC9422",
"c&	c #C99122",
"d&	c #C58E21",
"e&	c #C08B1F",
"f&	c #B9851E",
"g&	c #B17F1C",
"h&	c #946B17",
"i&	c #745312",
"j&	c #8F6516",
"k&	c #AA771B",
"l&	c #AD781C",
"m&	c #AF791D",
"n&	c #B37C1E",
"o&	c #B77F1F",
"p&	c #BE8420",
"q&	c #C88B22",
"r&	c #D29225",
"s&	c #DE9B27",
"t&	c #DA9A26",
"u&	c #D69925",
"v&	c #D49724",
"w&	c #D19624",
"x&	c #CB9222",
"y&	c #B17F1F",
"z&	c #BE8921",
"A&	c #C89121",
"B&	c #C38D20",
"C&	c #BB871E",
"D&	c #A6781A",
"E&	c #9D7118",
"F&	c #8B6415",
"G&	c #745310",
"H&	c #805C12",
"I&	c #886113",
"J&	c #886013",
"K&	c #8B6214",
"L&	c #916516",
"M&	c #966817",
"N&	c #986B17",
"O&	c #9E6F18",
"P&	c #A7761A",
"Q&	c #B2801D",
"R&	c #BD881F",
"S&	c #C68F20",
"T&	c #CA9122",
"U&	c #C68F21",
"V&	c #BD891F",
"W&	c #B2801C",
"X&	c #A5771A",
"Y&	c #996E17",
"Z&	c #8F6615",
"`&	c #876113",
" *	c #825C12",
".*	c #7F5B11",
"+*	c #7E5A11",
"@*	c #7D5911",
"#*	c #7F5A11",
"$*	c #815C12",
"%*	c #866013",
"&*	c #9B6F17",
"**	c #AB7B1B",
"=*	c #B9861E",
"-*	c #C48E20",
";*	c #CA9322",
">*	c #BB871F",
",*	c #BF8A20",
"'*	c #B07F1C",
")*	c #A17419",
"!*	c #946A16",
"~*	c #8A6314",
"{*	c #825D12",
"]*	c #7C5811",
"^*	c #7B5810",
"/*	c #7B5710",
"(*	c #835E12",
"_*	c #956B16",
":*	c #A47619",
"<*	c #B3811D",
"[*	c #C69021",
"}*	c #BB8720",
"|*	c #AC7C1D",
"1*	c #C28C20",
"2*	c #B7841E",
"3*	c #A97A1A",
"4*	c #9A6F17",
"5*	c #8E6615",
"6*	c #916815",
"7*	c #9C7017",
"8*	c #A8791A",
"9*	c #AE7E1C",
"0*	c #9C701A",
"a*	c #C89022",
"b*	c #B07F1F",
"c*	c #B3811F",
"d*	c #C48D21",
"e*	c #C58F21",
"f*	c #AD7D1B",
"g*	c #A07318",
"h*	c #8E6614",
"i*	c #896213",
"j*	c #876013",
"k*	c #865F13",
"l*	c #8B6414",
"m*	c #906715",
"n*	c #976D17",
"o*	c #A07319",
"p*	c #AA7B1B",
"q*	c #B4821D",
"r*	c #AD7C1D",
"s*	c #C38D21",
"t*	c #C08B21",
"u*	c #C08A21",
"v*	c #C79021",
"w*	c #A97A1B",
"x*	c #A37619",
"y*	c #B5821F",
"z*	c #A3761C",
"A*	c #946A1A",
"B*	c #A8791D",
"C*	c #B07F1E",
"D*	c #C08B20",
"E*	c #B8851E",
"F*	c #A5771B",
"G*	c #B6831E",
"H*	c #BE891F",
"I*	c #BB8620",
"J*	c #B8851F",
"K*	c #A3741C",
"L*	c #C48E21",
"M*	c #B88520",
"N*	c #956B1A",
"O*	c #BC8720",
"P*	c #956A1A",
"Q*	c #B88420",
"R*	c #AF7E1E",
"S*	c #825D17",
"T*	c #916919",
"U*	c #946B1A",
"V*	c #A2741C",
"W*	c #7F5A16",
"X*	c #986D1B",
"Y*	c #7D5916",
"Z*	c #896218",
"        . + @ # # # # # # # # # # # # # # # # # # # # # # # $ % & * $ # # # # # # # = - ;           ",
"      > , ' ) ! ! ! ! ! ! ! ! ! ! ! ! ! ! ! ! ! ! ! ! ! ! ! ~ { ] ! ! ! ! ! ! ! ! ! ! ~ ^ = /       ",
"    ( _ : : : < < [ [ [ [ [ [ [ [ [ [ [ [ [ [ [ [ [ [ [ [ [ } | [ [ [ [ [ [ [ [ [ < : : : 1 2 3     ",
"  > _ : : < 4 5 6 7 8 8 8 8 8 8 8 8 8 8 8 8 8 8 8 8 8 8 8 8 7 8 8 8 8 8 8 8 8 8 9 0 a < : : b c d   ",
"e ] : : < f g h i j k k k k k k k k k k k k k k k k k k k k k k k k k k k k k k l m n o p : : ~ (   ",
"> q : < r s t u v w w w w w w w w w w w w w w w w w w w w w w w w w w w w w w w x y z A B : : : C   ",
"D ! : 4 E F G H I I I I I I I I I I I I I I I I I I I I I I I I I I I I I I I I I J H K L M < : N ; ",
"O 1 < P Q R I I I I I I I I I I I I I I I I I I I I I I I I I I I I I I I I I I I I I H S T 4 : U + ",
"O 1 < V y J I I I I W X I I I I I I I I I I I I I I I I I I I I I I I I I I I I I I I I Y Z f : _ + ",
"O 1 < ` G I I I I  ...+.I I I I I I I I I I I I I I I I I I I I I I I I I I I I I I I I I @.#.: _ + ",
"O 1 < $.W I I I Y %.&.*.=.I I I I I I I I I I I I -.;.I I >.,.I I I I I I I I ;.=.I I I I '.).: _ + ",
"O 1 < !.X I I I I  .~.+.I I I I I I I I I {.].^./.(._.:.<.[.}.|.{.I I I I I I 1.|.I I I I 2.3.: _ + ",
"O 1 < 4.X I I I I I Y X I I I I I I I I I 5.6.7.8.9.0.a.b.c.d.e.f.g.h.|.i.j.{.I I I I I I 2.3.: k.+ ",
"O 1 < 4.X I I I I I I I I I I I I I I I I l.m.n.o.p.q.r.s.t.u.v.w.x.y.z.A.B.C.D.I I I I W E.F.G.H.I.",
"O 1 < 4.X I I I I I I I I I I I I I I I J.K.L.M.N.O.P.Q.R.S.S.T.U.V.W.X.Y.Z.`. +.+I I I J.++@+#+#+$+",
"O 1 < 4.X %+&+I I I I I I I I I I I I I *+=+-+;+>+,+'+)+)+)+)+)+)+!+T.)+T.~+{+]+^+I I I /+(+_+:+<+[+",
"O 1 < 4.W }+|+X I I I I I I I I I J 1+2+3+4+5+6+7+8+9+0+)+)+)+)+)+)+)+)+)+)+a+b+c+d+e+f+g+h+i+j+k+l+",
"O 1 < 4.X I I I I I I I I J 1+2+m+n+o+p+q+r+s+7+t+u+v+w+0+)+)+)+x+y+y+'+)+)+z+A+B+C+D+E+F+G+H+< I+J+",
"O 1 < 4.X I I I I J 1+2+K+n+L+p+p+p+p+p+M+N+O+P+Q+a+R+S+,+x+)+x+8+w+T+U+9+'+V+W+X+Y+Z+`+ @.@3.: _ + ",
"O 1 < +@X @@1+2+#@n+o+p+$@%@p+p+p+p+p+p+&@*@=@-@;@>@,@'@)@0+R.!@~@{@,+]@^@/@(@_@:@<@[@}@|@2.3.: _ + ",
"O 1 1 1@#@2@o+p+p+p+3@4@5@6@p+p+p+p+p+7@8@9@0@a@b@c@d@e@f@g@x+9+h@i@j@k@l@m@n@o@%+I p@q@r@s@t@: _ + ",
"O 1 b u@v@v@w@w@w@3@x@y@z@p+p+p+p+p+p+A@B@C@D@E@F@G@H@I@J@'+K@L@M@N@O@P@Q@R@S@T@-.I I U@V@W@X@Y@k.+ ",
"O 1 b Z@`@ #.#+#@###$#%#v@p+p+p+p+p+p+&#*#=#-#;#>#>#>#,#'#)+)#!#~#G@{#]#^#/#(#_#|.I I I :#<#[#}#|#1#",
"2#3#4#5#6#7#8#9#(+0#a#b#p+p+p+p+p+p+p+$@c#d#e#f#;#>#g#h#i#j#k#l#m#>#>#n#o#p#q#r#s#t#u#v#w#x#y#z#A#B#",
"C#D#E#F#G#H#I#J#K#L#M#p+p+p+p+p+p+p+p+p+N#O#P#Q#R#S#T#U#V#W#X#Y#Z#>#>#`# $.$+$@$p+p+p+p+b##$$$%$&$*$",
"=$-$;$>$,$,$'$'$)$!$v@p+p+p+p+v@p+p+p+p+~${$]$^$/$($_$:$<$[$}$|$1$2$3$4$5$6$7$8$p+p+p+p+p+9$0$: a$b$",
"c$d$e$f$p+p+p+g$h$i$3@p+p+p+$@j$k$p+p+p+$@l$m$n$o$p$q$r$s$t$u$v$w$x$y$z$A$B$C$$@p+p+p+p+p+D$E$: F$J+",
"G$< b u@p+p+3@H$I$J$p+p+p+p+k$K$L$3@p+p+$@M$N$O$P$Q$R$S$T$U$V$q$W$X$Y$Z$`$ %.%p+p+p+p+p+p+D$E$: _ + ",
"O 1 1 u@p+p+v@+%@%#%p+p+p+p+p+$@p+p+p+p+p+$%%%&%*%=%-%;%>%,%'%)%!%~%{%]%^%p+p+p+p+p+p+p+p+D$E$: _ + ",
"O 1 1 u@p+p+w@/%(%_%p+p+p+p+p+p+p+p+p+p+p+p+:%<%[%}%|%1%2%3%4%5%6%7%8%9%0%p+p+p+p+p+p+p+p+D$E$: _ + ",
"O 1 1 u@p+3@a%b%c%w@p+p+p+p+p+p+p+p+p+p+p+p+p+p+p+$%d%e%f%g%h%i%j%k%l%m%%@p+p+k$$@p+p+p+p+D$E$: _ + ",
"O 1 1 u@3@n%o%p%q%r%3@p+p+p+p+p+p+p+p+p+p+p+p+p+p+p+p+p+p+p+%@%@$@s%t%%@p+v@u%v%w%v@p+p+p+D$E$: _ + ",
"O 1 b x%y%z%A%B%C%D%E%F%G%H%e%p+p+p+p+p+p+p+p+p+p+p+p+p+p+p+p+p+p+p+p+p+p+v@I%J%K%v@p+p+p+D$E$: _ + ",
"O 1 ' L%M%N%O%P%Q%R%S%T%U%V%W%X%Y%e%p+p+p+p+p+p+p+p+p+p+p+p+p+p+p+p+p+p+p+p+Z%f%$@p+p+p+p+D$E$: _ + ",
"`% &.&+&@&#&$&U%U%U%%&&&*&U%U%U%V%W%X%=&-&p+p+p+p+p+p+p+p+p+p+p+p+p+p+p+p+p+p+p+p+p+p+p+p+D$E$: _ + ",
";&>&,&'&)&$&U%U%U%U%U%U%U%U%U%U%U%U%U%V%W%!&F%-&Z%~&Z%%@{&{&%@%@$@p+p+p+p+p+p+p+p+p+p+p+3@]&E$: _ + ",
"^&/&(&_&V%U%U%U%U%U%U%U%U%U%U%U%U%U%U%U%U%:&<&:&[&}&|&1&2&3&4&5&6&7&f%%@$@p+p+p+p+p+Z%a%e%8&E$: _ + ",
"9&0&1 a&b&U%U%U%U%U%U%U%U%U%U%U%U%U%U%U%c&d&e&f&g&h&i&j&k&l&m&n&o&p&q&r&y%s&s%H%t&u&v&w&W%x&y&: _ + ",
"O 1 b z&b&U%U%U%U%U%U%U%U%U%U%U%U%U%U%A&B&C&g&D&E&F&G&H&I&J&K&L&M&N&O&P&Q&R&S&T&U%U%U%U%U%c&y&: _ + ",
"O 1 b z&b&U%U%U%U%U%U%U%V%U%U%U%U%U%:&U&V&W&X&Y&Z&`& *.*+*@*@*@*#*$*%*Z&&***=*-*<&U%U%U%U%c&y&: _ + ",
"O 1 b a&b&U%U%U%U%U%U%;*>*,*U%U%U%U%:&U&V&'*)*!*~*{*#*]*^*/*/*^*@*#*(*~*_*:*<*V&[*:&U%U%U%c&y&: _ + ",
"O 1 : }*U%U%U%U%U%U%U%c&F$|*;*U%U%U%U%A&1*2*3*4*5*%*$*+*@*@*@*+*.*{*I&6*7*8*9*0*R&x&U%U%U%a*b*: _ + ",
"O 1 : c*c&U%U%U%U%U%U%U%d*e*U%U%U%U%U%U%A&B&=*f*g*_*h*i*j*k*%*I&l*m*n*o*p*q*f&r*s*U%U%U%V%t*Y@: U + ",
"D ! : p u*V%U%U%U%U%U%U%U%U%U%U%U%U%U%U%U%:&v*1*C&W&w*:*g*&*&*g*x*8*9*q*>*1*U&<&U%U%U%U%c&y*: : z*; ",
"A*B*: : C*d*V%U%U%U%U%U%U%U%U%U%U%U%U%U%U%U%U%U%:&v*B&D*V&E*F*G*H*e&1*d&v*:&U%U%U%U%U%:&I*: : : 2   ",
"d G.: : : C*u*c&V%b&b&b&b&b&b&b&b&b&b&b&b&b&b&b&b&b&b&U%U%V%J*K*L*U%U%b&b&b&b&b&b&U%U&M*p : : ~ %   ",
"  N*k.: : : p c*I*O*O*O*O*O*O*O*O*O*O*O*O*O*O*O*O*O*O*O*O*O*I*P*{ O*O*O*O*O*O*O*O*Q*R*: : : : , d   ",
"    ( k.: : : : b b b b b b b b b b b b b b b b b b b b b b : $ S*' : b b b b b b : : : : 1 G.T*    ",
"      U*G.B*! 1 1 1 1 1 1 1 1 1 1 1 1 1 1 1 1 1 1 1 1 1 1 1 b V*W*c : 1 1 1 1 1 1 1 1 ) U H.3       ",
"        d A*D O O O O O O O O O O O O O O O O O O O O O O O O X*Y*Z*H.O O O O O O O O % 1#          "};
